<svg xmlns="http://www.w3.org/2000/svg" viewBox="0 0 1000 1000"><defs><style>.cls-1{fill:none;}.cls-2{fill:#d2cecc;}.cls-3{fill:#004259;}.cls-4{fill:#fff;}.cls-5{fill:#331900;}.cls-6{fill:#8e553c;}.cls-7{fill:#663b2c;}</style></defs><g id="Layer_2" data-name="Layer 2"><g id="OutPut"><rect id="BG" class="cls-1" width="1000" height="1000"/></g><g id="Eyes"><path d="M537.33,475.16c32.82-81.84,131.26-35.36,117.33,3S537.33,475.16,537.33,475.16Z"/><path class="cls-2" d="M659.19,488.73A49.07,49.07,0,0,1,654.33,510q-1.1,2.29-2.42,4.48c-10.46,17.29-31.12,29-54.91,29a67.6,67.6,0,0,1-36.86-10.66,60,60,0,0,1-5.29-3.84c-12.32-10-20-24.36-20-40.3,0-30.26,27.84-54.79,62.19-54.79S659.19,458.47,659.19,488.73Z"/><path class="cls-3" d="M628.51,519.86a2.16,2.16,0,0,1-1.79,3.39,2,2,0,0,1-.72-.13,50.36,50.36,0,0,1-35.42,18.08c-1.11.07-2.23.11-3.36.11A50.16,50.16,0,0,1,571.93,539a51,51,0,0,1,15.29-99.53,50.26,50.26,0,0,1,33.4,12.67,12,12,0,0,1,1.48-.09,12.46,12.46,0,0,1,11.36,17.56,51.27,51.27,0,0,1-5,50.3Z"/><path d="M637.86,490.36a50.92,50.92,0,0,1-9.35,29.5c-.79,1.12-1.62,2.21-2.51,3.26a50.36,50.36,0,0,1-35.42,18.08c-1.11.07-2.23.11-3.36.11A50.16,50.16,0,0,1,571.93,539a51,51,0,0,1,15.29-99.53,50.26,50.26,0,0,1,33.4,12.67,50.86,50.86,0,0,1,17.24,38.27Z"/><path class="cls-4" d="M628.89,521.08a2.17,2.17,0,0,1-2.17,2.17,2,2,0,0,1-.72-.13,2.14,2.14,0,0,1-1.45-2,2.17,2.17,0,0,1,4.34,0Z"/><path class="cls-4" d="M634.55,464.46a12.46,12.46,0,1,1-13.93-12.37,12,12,0,0,1,1.48-.09A12.45,12.45,0,0,1,634.55,464.46Z"/><path d="M463,475.16l-.55.22-1.13.43h0c-10.62,4.07-68.81,25.36-99.13,16.6h0a28.11,28.11,0,0,1-11.26-5.9,20.36,20.36,0,0,1-5.58-8.31c-.24-.67-.45-1.34-.62-2a21,21,0,0,1-.7-4.83c-.23-6.68,2.57-13.37,7.48-19.36a49,49,0,0,1,4.79-5l0,0A61,61,0,0,1,369,438.09c1.24-.67,2.51-1.29,3.81-1.88h0c1.63-.74,3.31-1.42,5-2h0q3.17-1.15,6.48-2a72.21,72.21,0,0,1,13.53-2.19,65.61,65.61,0,0,1,14.65.71c13.89,2.27,27.56,9.35,38.4,23.2l0,.05A87,87,0,0,1,463,475.16Z"/><path class="cls-2" d="M465.19,488.73a48.62,48.62,0,0,1-2.53,15.51h0a51.91,51.91,0,0,1-8.72,15.94c-.35.44-.71.88-1.08,1.31l0,0c-.94,1.11-1.93,2.2-3,3.24a59.23,59.23,0,0,1-5.81,5.12A62.61,62.61,0,0,1,434.6,536h0a64.74,64.74,0,0,1-7.09,3.17h-.06A69.36,69.36,0,0,1,403,543.53c-1.85,0-3.69-.07-5.5-.21h0A67.08,67.08,0,0,1,367,533.39a57.91,57.91,0,0,1-5-3.52c-.32-.23-.63-.48-.94-.73-.75-.61-1.48-1.23-2.2-1.87-11.11-9.9-18-23.52-18-38.54,0-1,0-2,.09-2.93A48.51,48.51,0,0,1,344,471.34a52.18,52.18,0,0,1,8.32-14.4c11.28-13.92,29.76-23,50.66-23,19.3,0,36.55,7.74,48,19.9l0,.05A50.82,50.82,0,0,1,465.19,488.73Z"/><path class="cls-3" d="M463.42,490.36A50.94,50.94,0,0,1,428.07,539a50.16,50.16,0,0,1-15.29,2.36c-1.13,0-2.25,0-3.36-.11A50.36,50.36,0,0,1,374,523.12a2,2,0,0,1-.72.13,2.16,2.16,0,0,1-1.79-3.39,51.27,51.27,0,0,1-4.95-50.3A12.46,12.46,0,0,1,377.9,452a12,12,0,0,1,1.48.09,49.46,49.46,0,0,1,7.26-5.36,50.48,50.48,0,0,1,26.14-7.31A50.79,50.79,0,0,1,463.42,490.36Z"/><path d="M463.42,490.36A50.94,50.94,0,0,1,428.07,539a50.16,50.16,0,0,1-15.29,2.36c-1.13,0-2.25,0-3.36-.11A50.36,50.36,0,0,1,374,523.12c-.89-1-1.72-2.14-2.51-3.26a51,51,0,0,1,7.89-67.77,49.46,49.46,0,0,1,7.26-5.36,50.48,50.48,0,0,1,26.14-7.31A50.79,50.79,0,0,1,463.42,490.36Z"/><path class="cls-4" d="M375.45,521.08a2.14,2.14,0,0,1-1.45,2,2,2,0,0,1-.72.13,2.17,2.17,0,1,1,2.17-2.17Z"/><path class="cls-4" d="M390.36,464.46A12.46,12.46,0,1,1,377.9,452a12,12,0,0,1,1.48.09A12.46,12.46,0,0,1,390.36,464.46Z"/><g id="eyes-2" data-name="eyes"><path class="cls-5" d="M462.45,475.38c-.47-1.58-1-3.14-1.64-4.66l-1.18.29c.45,1.1.86,2.21,1.23,3.34.14.41.27.82.39,1.24a1.8,1.8,0,0,1,.06.22c.1.32.19.64.28,1s.21.79.31,1.18.15.61.22.91.14.6.2.91c.13.63.26,1.27.37,1.92s.23,1.45.32,2.18a1.23,1.23,0,0,1,0,.19c.05.41.1.82.14,1.23s.08.83.11,1.25c.06.79.1,1.58.11,2.37,0,.48,0,1,0,1.45a50.76,50.76,0,0,1-10.56,31.14l0,0c-.12.17-.24.33-.37.49-.48.61-1,1.2-1.48,1.78s-.75.86-1.14,1.28l-.08.09c-.64.69-1.29,1.35-2,2-.23.24-.47.46-.71.68-.66.62-1.34,1.21-2,1.79-.27.23-.55.45-.83.67s-.66.52-1,.78l-1,.74c-.49.36-1,.7-1.48,1l-.24.16c-.45.3-.91.59-1.37.86a2.29,2.29,0,0,1-.29.18c-.38.24-.77.47-1.16.68l-.69.39c-.55.31-1.11.6-1.67.88h0c-.42.21-.84.42-1.27.61l-.42.2c-.46.21-.93.42-1.41.61q-1.1.47-2.22.87c-.63.23-1.26.45-1.9.65-.18,0-.36.12-.55.16l-.06,0h0c-.57.18-1.15.35-1.73.49s-1.19.31-1.78.44-1,.23-1.54.32-.83.16-1.25.23l-.65.11c-.52.08-1.05.15-1.57.21l-.27,0c-.4,0-.81.09-1.21.12-1.53.15-3.09.22-4.66.22-1.13,0-2.25,0-3.36-.11-.54,0-1.08-.08-1.61-.13l-.63-.07-1.47-.18c-.52-.07-1-.15-1.54-.24s-1-.19-1.55-.3c-.3,0-.59-.11-.88-.18l-1.48-.35-1.61-.44c-.61-.18-1.22-.37-1.82-.57l-1.4-.49-1.34-.52-.86-.35-1.6-.71c-.48-.22-.95-.45-1.42-.69s-1.06-.54-1.58-.83-1-.58-1.55-.88l-1.5-.92h0c-.83-.55-1.65-1.11-2.45-1.7l-.45-.32-.18.27L379,536.8a58.21,58.21,0,0,0,18.53,6.52h0a61.37,61.37,0,0,0,6.43.75c1.24.08,2.5.12,3.77.12a59.58,59.58,0,0,0,17.18-2.5,58.07,58.07,0,0,0,12.64-5.5,56.53,56.53,0,0,0,11.56-8.93,53.2,53.2,0,0,0,13.56-23s0,0,0-.06a51.72,51.72,0,0,0-.21-28.86Z"/><path class="cls-6" d="M460.81,470.72l-1.18.29a50.64,50.64,0,0,0-46.85-31.59,50.26,50.26,0,0,0-33.4,12.67,12,12,0,0,0-1.48-.09,12.46,12.46,0,0,0-11.36,17.56,51.47,51.47,0,0,0-2.44,6.74l-10.44-3.09a54.76,54.76,0,0,1,24.67-29.32A58.24,58.24,0,0,1,394,437.73a59,59,0,0,1,13.66-1.58C431.91,436.15,452.59,450.5,460.81,470.72Z"/><path class="cls-7" d="M382.66,531.32,379,536.8c-16.86-9.37-28.17-26.75-28.17-46.64a51.34,51.34,0,0,1,2.87-17l10.44,3.09a51.27,51.27,0,0,0,7.39,43.56,2.16,2.16,0,0,0,1.79,3.39,2,2,0,0,0,.72-.13A50.58,50.58,0,0,0,382.66,531.32Z"/><path class="cls-5" d="M535.39,490.16a52.44,52.44,0,0,0,15.53,37.1,56.53,56.53,0,0,0,11.56,8.93,58.07,58.07,0,0,0,12.64,5.5,59.58,59.58,0,0,0,17.18,2.5c1.27,0,2.53,0,3.77-.12a61.37,61.37,0,0,0,6.43-.75A58.27,58.27,0,0,0,621,536.8l-3.7-5.48a50.09,50.09,0,0,1-26.76,9.88c-1.11.07-2.23.11-3.36.11a49.76,49.76,0,0,1-14.68-2.18c-.21,0-.41-.12-.61-.18a50.92,50.92,0,0,1-21.69-13.78q-1.41-1.51-2.7-3.15a51.24,51.24,0,0,1-7.17-51l-1.18-.29A51.33,51.33,0,0,0,535.39,490.16Z"/><path class="cls-6" d="M539.19,470.72l1.18.29a50.64,50.64,0,0,1,46.85-31.59,50.26,50.26,0,0,1,33.4,12.67,12,12,0,0,1,1.48-.09,12.46,12.46,0,0,1,11.36,17.56,51.47,51.47,0,0,1,2.44,6.74l10.44-3.09a54.76,54.76,0,0,0-24.67-29.32A58.24,58.24,0,0,0,606,437.73a59,59,0,0,0-13.66-1.58C568.09,436.15,547.41,450.5,539.19,470.72Z"/><path class="cls-7" d="M617.34,531.32l3.7,5.48c16.86-9.37,28.17-26.75,28.17-46.64a51.34,51.34,0,0,0-2.87-17L635.9,476.3a51.27,51.27,0,0,1-7.39,43.56,2.16,2.16,0,0,1-1.79,3.39,2,2,0,0,1-.72-.13A50.58,50.58,0,0,1,617.34,531.32Z"/></g></g></g></svg>