<svg xmlns="http://www.w3.org/2000/svg" viewBox="0 0 1000 1000"><defs><style>.cls-1{fill:none;}.cls-2{fill:#004900;}.cls-3{fill:#007f00;}.cls-4{fill:#00b200;}.cls-5{fill:#7f0000;}</style></defs><g id="Layer_2" data-name="Layer 2"><g id="OutPut"><rect id="BG" class="cls-1" width="1000" height="1000"/></g><g id="Green_Hair" data-name="Green Hair"><g id="_10" data-name="10"><g id="_7" data-name="7"><path class="cls-2" d="M377.72,63.16s-138,137.6-13.43,257.75c29.28-75.93,36.09-138.37,36.09-138.37S338.55,150.93,377.72,63.16Z"/><path class="cls-2" d="M657.77,125.59s61.59,88.19,8.33,171.2c-5.65-44.67-23.54-19.11-23.54-19.11l-42-68.47S668.77,184.9,657.77,125.59Z"/><path class="cls-3" d="M617.91,340.51c2.79-112.14-39-55.6-39-55.6l-24.7-120s36.52-17.21,35-54.16c-.39-9.68-3.38-20.71-10.32-33.15.74.56,28,21.46,51.19,55.86h0C662.84,182,687.48,257.47,617.91,340.51Z"/><path class="cls-3" d="M422.32,259.92c-16.73,20-3.19,98.84-3.19,98.84S359.37,345,359.37,218.62c0-58.19,20.11-98.61,41.8-125.26a.71.71,0,0,0,.07-.09l1.11-1.34c.19-.22.37-.45.56-.68l.59-.7A178.78,178.78,0,0,1,419.25,74.2C437.79,57.27,453.59,50,454.18,49.76c-7.29,14.64-10.6,27.62-11.22,39-2.45,44.49,35.93,64.75,35.93,64.75S439.05,239.9,422.32,259.92Z"/><path class="cls-4" d="M619.52,239.8c0,25.45-1.67,46.63-7.28,63.81-8.93,27.34-27.87,44.51-66,52.52,0,0-10.85-8.51-4.29-43.9l.44-2.28c2.89-14.4,8.57-33.06,18.79-57.07a.06.06,0,0,1,0,0c.87-2.07,1.79-4.17,2.74-6.32-1.68,3.67-3.29,7.27-4.87,10.76C504,379.39,504,384.55,504,384.55s-53.72-2.82-81.37-53.24C412,312,405.24,285.68,406.78,249.86,412.35,120.54,496,152.39,496,24.67,588.44,110.66,619.52,173.85,619.52,239.8Z"/><path class="cls-3" d="M559,257.27C504,379.39,504,384.55,504,384.55s-53.72-2.82-81.37-53.24C482.24,396.9,538.77,299.12,559,257.27Z"/><path class="cls-3" d="M612.24,303.61c-8.93,27.34-27.87,44.51-66,52.52,0,0-10.85-8.51-4.29-43.9l.44-2.28S562,380.07,612.24,303.61Z"/><path class="cls-2" d="M630.08,133.44c-37.61-41-40.87-22.71-40.87-22.71-.39-9.68-3.38-20.71-10.32-33.15C579.63,78.14,606.88,99,630.08,133.44Z"/><path class="cls-2" d="M454.18,49.76c-7.29,14.64-10.6,27.62-11.22,39-.08-9.71-2.41-32-23.71-14.56C437.79,57.27,453.59,50,454.18,49.76Z"/></g><path class="cls-2" d="M403.78,403.33c-3.09-.69-6.56-1.4-10.45-2.1h-.1c-3.34-.6-7-1.18-11-1.74-5.14-.71-10.85-1.38-17.18-2h0c-6.86-.63-14.45-1.15-22.85-1.52s-17.6-.57-27.7-.57c0,0,17-4.52,38.27-7.69,5.21-.78,10.68-1.47,16.21-2,23.91-2.28,49-1.39,59.95,9.68C428.93,414.26,431.57,409.51,403.78,403.33Z"/><path class="cls-3" d="M382.25,399.48c-5.14-.71-10.85-1.38-17.18-2h0c-6.86-.63-14.45-1.15-22.85-1.52s-17.6-.57-27.7-.57c0,0,17-4.52,38.27-7.69,5.21-.78,10.68-1.47,16.21-2C369,385.75,352.45,393.69,382.25,399.48Z"/><path class="cls-2" d="M596.22,403.33c3.09-.69,6.56-1.4,10.45-2.1h.1c3.34-.6,7-1.18,11-1.74,5.14-.71,10.85-1.38,17.18-2h0c6.86-.63,14.45-1.15,22.85-1.52s17.6-.57,27.7-.57c0,0-17-4.52-38.27-7.69-5.21-.78-10.68-1.47-16.21-2-23.91-2.28-49-1.39-59.95,9.68C571.07,414.26,568.43,409.51,596.22,403.33Z"/><path class="cls-3" d="M617.75,399.48c5.14-.71,10.85-1.38,17.18-2h0c6.86-.63,14.45-1.15,22.85-1.52s17.6-.57,27.7-.57c0,0-17-4.52-38.27-7.69-5.21-.78-10.68-1.47-16.21-2C631,385.75,647.55,393.69,617.75,399.48Z"/><path class="cls-5" d="M403.78,403.33c-3.09-.69-6.56-1.4-10.45-2.1A56.92,56.92,0,0,1,403.78,403.33Z"/></g></g></g></svg>