<svg xmlns="http://www.w3.org/2000/svg" viewBox="0 0 1000 1000"><defs><style>.cls-1{fill:none;}.cls-2{fill:#007f00;}.cls-3{fill:#004900;}.cls-4{fill:#00b200;}</style></defs><g id="Layer_2" data-name="Layer 2"><g id="OutPut"><rect id="BG" class="cls-1" width="1000" height="1000"/></g><g id="Green_Hair" data-name="Green Hair"><g id="_7" data-name="7"><g id="_6" data-name="6"><path class="cls-2" d="M699.59,335.46c-21.07,16-20.92,18.52-49.86,24.37s-45.91,8.88-62.26,3.74-31.12-28.52-30-41.14c-11.68,13.09-16.35,17.11-28.8,16.73s-25.29-16.73-30.34-27.48c-5.06,13.55-14.48,34.5-32.53,35.25S445,333.65,445,333.65s-1.51,14.23-19,14.23-24.9-22.18-24.9-22.18-19.85,17.3-61.87,9.35-62.64-40.2-59.91-87.42l0-.9c2.7-46.69,3.68-75.1,17.73-92,0,0-.27,48.93,18,66.23-2.72-29.45,1.95-65.92,7.39-68.72,7.79,11.89,14,30,13.86,39.14,2.58-28,4.13-59.84,7.54-64.39,11.29,18.24,61.82,62.33,124.49,10.36s79.39,11.15,79.39,11.15,3.89-17.3,16-12.62a68.91,68.91,0,0,1,21,13.55s1.56-20.57,16.34-20.1,20.62,15,20.62,15,0-21,15.95-20.57,47.86,17.3,70.43,85.09c2.88,8.62,5.21,16.84,7.08,24.66C727.93,287.1,718,321.55,699.59,335.46Z"/><path class="cls-3" d="M699.59,335.46c-21.07,16-20.92,18.52-49.86,24.37s-45.91,8.88-62.26,3.74-31.12-28.52-30-41.14c-11.68,13.09-16.35,17.11-28.8,16.73s-25.29-16.73-30.34-27.48c-5.06,13.55-14.48,34.5-32.53,35.25S445,333.65,445,333.65s-1.51,14.23-19,14.23-24.9-22.18-24.9-22.18-19.85,17.3-61.87,9.35-62.64-40.2-59.91-87.42l0-.9c21.88,43.72,52.11,78.09,90.61,63.08,88.71-34.6,60.7-112.67,44.74-133.24C468.21,208,458.3,281.76,451.36,300s-4.73,31.79,8.51,31.79,15.94-20.57,15.94-31.79c22.95,21,30.74-6.08,36.57-27.58,4.28,22,23.35,40.2,35.8,25.71C589.81,249,571.76,194.8,550.9,160.21c48.25,37.86,49.8,115,37.35,155.67,45.29-20.21,49.8-92.09,44-125.29,20.62,26.65,9.72,98.65,9.72,98.65s-17.11,40.2,27.24,38.78c32.62-1,42.84-62.23,46-94.53C727.93,287.1,718,321.55,699.59,335.46Z"/><path class="cls-4" d="M361.42,160.21S415.5,178.06,415.11,258c-8.17,5.24-7.78-5.28-12.84-5s-10.11,24.12-14,27.86c2.33-11.34,7.88-32-.39-34.94s-11.58,30.15-32,33.54c5.35-7.83,20.81-59.37,3.89-99.23,17.41,19.4,20.81,27.7,20.81,27.7S390.89,188.72,361.42,160.21Z"/><path class="cls-4" d="M450.54,166.91s31.75,31.48,37.72,88.82C500,232.58,507.71,192,520.68,232.58c0-21.26,3.63-27.08,3.63-27.08S530.8,225,544,232.58c0-27.08-9.86-83.75-53.44-85C500,163.48,507.71,171,503,174.39s-22.56-13.09-27.49-11.53a188.91,188.91,0,0,1,13.23,18.07S459.76,164.41,450.54,166.91Z"/><path class="cls-4" d="M580.67,156.58s41.63,5.26,43.47,75.5A124.15,124.15,0,0,1,613,214.67s2,23.14-10.59,44.41c2-20.8-1.89-53.29-18.82-86.25,12.06,15.19,9.54,12.62,9.54,12.62S596.81,174.23,580.67,156.58Z"/><path class="cls-4" d="M635.42,158.8S662.81,226.36,654,274c0,0,21-21.22,24.9-41.46,1.47,18.79,2.33,37.72,2.33,37.72s4.67-26.18,7.39-26.88c5.55,9.54,9,12.86,10.7,13.32l1.75.47c-1.55-12.62,6-58.67-51.35-118.51,11.28,23.14,17.7,42.78,14.39,54.93L647.2,160.21s-1,12.39.58,14A85.26,85.26,0,0,0,635.42,158.8Z"/></g><path class="cls-2" d="M403,390.5A76.09,76.09,0,0,1,382.7,401c-32.36,11.12-67.34,2-45.41-8.88,1-.52,2.21-1,3.52-1.57C375.62,376.5,403,390.5,403,390.5Z"/><path class="cls-3" d="M382.7,401c-32.36,11.12-67.34,2-45.41-8.88,0,0,3.53,12.84,45.37,8.88Z"/><path class="cls-2" d="M597,390.5A76.09,76.09,0,0,0,617.3,401c32.36,11.12,67.34,2,45.41-8.88-1-.52-2.21-1-3.52-1.57C624.38,376.5,597,390.5,597,390.5Z"/><path class="cls-3" d="M617.3,401c32.36,11.12,67.34,2,45.41-8.88,0,0-3.53,12.84-45.37,8.88Z"/></g></g></g></svg>