<svg xmlns="http://www.w3.org/2000/svg" viewBox="0 0 1000 1000"><defs><style>.cls-1{fill:none;}.cls-2{fill:#004900;}.cls-3{fill:#007f00;}.cls-4{fill:#00b200;}</style></defs><g id="Layer_2" data-name="Layer 2"><g id="OutPut"><rect id="BG" class="cls-1" width="1000" height="1000"/></g><g id="Green_Hair" data-name="Green Hair"><g id="_5" data-name="5"><circle class="cls-2" cx="344.41" cy="239.11" r="67"/><circle class="cls-2" cx="544.27" cy="177.61" r="67"/><circle class="cls-2" cx="654.21" cy="239.11" r="67"/><circle class="cls-2" cx="668.75" cy="294.68" r="67"/><circle class="cls-2" cx="398.26" cy="194.87" r="67"/><circle class="cls-2" cx="485.92" cy="168.87" r="67"/><circle class="cls-2" cx="331.25" cy="292.11" r="67"/><circle class="cls-2" cx="636.14" cy="284.93" r="67"/><circle class="cls-2" cx="625.6" cy="208.87" r="67"/><circle class="cls-3" cx="587.29" cy="191.69" r="67"/><circle class="cls-3" cx="654.21" cy="244.9" r="67"/><circle class="cls-3" cx="389.58" cy="217.93" r="67"/><circle class="cls-3" cx="642.94" cy="290" r="67"/><circle class="cls-3" cx="661.08" cy="300" r="67"/><circle class="cls-3" cx="495.08" cy="177.61" r="67"/><circle class="cls-3" cx="398.26" cy="272.5" r="67"/><circle class="cls-3" cx="339.42" cy="292.11" r="67"/><path class="cls-3" d="M396.28,389.52a156.46,156.46,0,0,1-22.55-3.21c-20.32-4.25-29.27,3.39-31.16-6.16,0,0,4.15-12.88,18.07-12.88C360.64,367.27,340.81,383.56,396.28,389.52Z"/><path class="cls-3" d="M657.43,380.15c-1.89,9.55-10.84,1.91-31.16,6.16a156.46,156.46,0,0,1-22.55,3.21c55.47-6,35.64-22.25,35.64-22.25C653.28,367.27,657.43,380.15,657.43,380.15Z"/><path class="cls-4" d="M396.28,389.52c-55.47-6-35.64-22.25-35.64-22.25,13.91,0,25,8.94,42.91.83s20.25,10.26,20.25,10.26S425.25,391.18,396.28,389.52Z"/><path class="cls-4" d="M603.72,389.52c-29,1.66-27.52-11.16-27.52-11.16s2.31-18.37,20.25-10.26,29-.83,42.91-.83C639.36,367.27,659.19,383.56,603.72,389.52Z"/><circle class="cls-4" cx="501.22" cy="239.11" r="67"/><circle class="cls-4" cx="524.85" cy="306.11" r="67"/><circle class="cls-4" cx="565.72" cy="244.61" r="67"/><circle class="cls-4" cx="625.6" cy="298.64" r="67"/><circle class="cls-4" cx="629.63" cy="261.87" r="67"/><circle class="cls-4" cx="429.58" cy="208.87" r="67"/><circle class="cls-4" cx="434.22" cy="287.88" r="67"/><circle class="cls-4" cx="380.14" cy="290" r="67"/></g></g></g></svg>