<svg xmlns="http://www.w3.org/2000/svg" viewBox="0 0 1000 1000"><defs><style>.cls-1{fill:none;}.cls-2{fill:#004900;}.cls-3{fill:#00b200;}.cls-4{fill:#007f00;opacity:0.2;}</style></defs><g id="Layer_2" data-name="Layer 2"><g id="OutPut"><rect id="BG" class="cls-1" width="1000" height="1000"/></g><g id="Green_Hair" data-name="Green Hair"><g id="_4" data-name="4"><path class="cls-2" d="M608.3,389.52c-1.54,3.59-7.73,17.64-12.74,23.48,1.22.08,2.44.15,3.67.21l3,.14c28,1.17,57.21-1.26,64.22-2.61q-6.88-3.56-13.43-6.49l-1.13-.5A211.4,211.4,0,0,0,608.3,389.52Z"/><path class="cls-2" d="M561.64,410.52a117.53,117.53,0,0,0,13.89,2.78c3.6.53,7.37.94,11.22,1.27a36.4,36.4,0,0,0,5.34-4.5c3.78-3.82,8.27-9.66,13.12-18.57l-.92-.19q-4.63,2.76-9.71,5.39A236.52,236.52,0,0,1,561.64,410.52Z"/><path class="cls-2" d="M430.5,378.72c-8.45,7.3-22.52,14.18-37.61,20l-2.79,1.08c-26.24,9.95-54.69,16.84-61.77,17.77q5.42-5.55,10.7-10.39c.31-.29.61-.57.92-.84,36.89-33.58,68.51-42.53,85.2-44.82C436.57,360,440,370.56,430.5,378.72Z"/><path class="cls-2" d="M426.3,168.53c87.07,150.47,24,169.56,24,169.56,16.69-.68,52.91-14.41,63.73-27.38a92.26,92.26,0,0,0,7.27-10c30.53-48.47,8.61-114.91-47-135.83-14.29-5.38-26.51-8.18-37.4-9.16l-.48,0c-2.83.84-5.34,1.65-7.5,2.38a6.58,6.58,0,0,0-1.84,1,0,0,0,0,1,0,0,12.46,12.46,0,0,0-1.84,2.26s0,0,0,0C425.5,168.62,423,162.8,426.3,168.53Z"/><path class="cls-3" d="M599.23,413.21l3,.14c28,1.17,57.21-1.26,64.22-2.61q-6.88-3.56-13.43-6.49l-1.13-.5C634.08,406.72,615.24,410.18,599.23,413.21Z"/><path class="cls-3" d="M392.89,398.77l-2.79,1.08c-26.24,9.95-54.69,16.84-61.77,17.77q5.42-5.55,10.7-10.39c.31-.29.61-.57.92-.84C357.77,403.6,376.74,400.94,392.89,398.77Z"/><path class="cls-3" d="M575.53,413.3c3.6.53,7.37.94,11.22,1.27a36.4,36.4,0,0,0,5.34-4.5C589,410.76,581.59,412.38,575.53,413.3Z"/><path class="cls-3" d="M632,366.16c.62-5.38.67-12.86-.54-23.21a62.41,62.41,0,0,1-1,12.69,56.31,56.31,0,0,1-6.56,18.23l0,0a149.64,149.64,0,0,1-21.51,15.41q-4.63,2.76-9.71,5.39a236.52,236.52,0,0,1-32.94,13.82q-6.87,2.33-14.3,4.46l-3.75,1c28.89-44.84,14.78-94.08-6.49-128.14-40.56-65-91.25-98.65-108.8-117.36a6.39,6.39,0,0,1-1.09-7.2s0,0,0,0a6.26,6.26,0,0,1,1.84-2.26,0,0,0,0,0,0,0,6.58,6.58,0,0,1,1.84-1c2.16-.73,4.67-1.54,7.5-2.38,21-6.21,59.41-14.1,102.62-6.25a150.09,150.09,0,0,1,47.7,17.39h0c4.3,2.45,8.46,5.12,12.48,8h0a148.65,148.65,0,0,1,39,41,144.5,144.5,0,0,1,22,62.61C663.45,307.79,657.69,339.35,632,366.16Z"/><path class="cls-4" d="M632,366.16c.62-5.38.67-12.86-.54-23.21,0,0,31.88-72.67,6.86-127.14a144.5,144.5,0,0,1,22,62.61C663.45,307.79,657.69,339.35,632,366.16Z"/></g></g></g></svg>