<svg xmlns="http://www.w3.org/2000/svg" viewBox="0 0 1000 1000"><defs><style>.cls-1{fill:none;}.cls-2,.cls-5{opacity:0.2;}.cls-3{fill:#764a23;}.cls-4{fill:#c0473f;}.cls-5{fill:#fff;}.cls-6{fill:#e37066;}.cls-7{fill:#e06055;}.cls-8{fill:#824d35;}.cls-9{fill:#262626;}.cls-10{fill:#595959;}.cls-11{fill:#999;}.cls-12{fill:#7f7f7f;}.cls-13{fill:#666;}</style></defs><g id="Layer_2" data-name="Layer 2"><g id="OutPut"><rect id="BG" class="cls-1" width="1000" height="1000"/></g><g id="Stand"><g id="_1" data-name="1"><ellipse class="cls-2" cx="499.53" cy="943.41" rx="109.8" ry="19.06"/><ellipse class="cls-2" cx="563.09" cy="905.16" rx="60.75" ry="9.21"/><path class="cls-3" d="M604,907.08c-8.15,6.72-45.22,0-59.07,2.44S519.43,913,519,898.94s13.24-12.84,13.24-12.84-4.7-9.53,1.48-15.84a16,16,0,0,1,6.87-3.92s-.14-.17-.37-.42c-4-5-2.12-16.93,10.14-18.12a8.59,8.59,0,0,1-.88-2.15c-1-3.75.1-8.67,3.91-10.41a6.74,6.74,0,0,1,1.46-.47c-2-3.26-7.75-6.93-2.45-9.17,0,0,29.54,3.26,26.89,25.87a15.09,15.09,0,0,1,6.28,1.92h0a8.52,8.52,0,0,1,3.49,11.53c13,6.72,11.41,16.09,9.57,19.76a46.54,46.54,0,0,1,4.67,3.43C611.49,895.06,611,901.3,604,907.08Z"/><path class="cls-2" d="M587.25,872.17c-28.46,4.05-48.56,2.57-53.51-1.91a16,16,0,0,1,6.87-3.92S546.18,875.39,587.25,872.17Z"/><path class="cls-2" d="M603.33,888.11c-9.44,3.51-33.39,6.78-51.32.9a97.34,97.34,0,0,0,46.65-4.33A46.54,46.54,0,0,1,603.33,888.11Z"/><path class="cls-2" d="M585.59,853.39c-5.34,2-15.05,4.31-28.93,2.68,13.59.47,22.65-4.6,22.65-4.6A15.09,15.09,0,0,1,585.59,853.39Z"/><path class="cls-2" d="M569.32,849.28c-5.4,1.49-18.94-1.48-18.94-1.48a8.59,8.59,0,0,1-.88-2.15C553.54,848,563.7,847.37,569.32,849.28Z"/><path class="cls-2" d="M563.09,838.11c-3,.8-6.82-1-9.68-2.87a6.74,6.74,0,0,1,1.46-.47A15.32,15.32,0,0,0,563.09,838.11Z"/><path class="cls-4" d="M552.23,938.21c-1.11.4-2.25.79-3.42,1.18a158.49,158.49,0,0,1-49.27,8,138.26,138.26,0,0,1-57.41-12.81h0c-10.67-5-16.54-9.89-15.21-11,30.35-25,30.55-50.7,61-55.69a71.89,71.89,0,0,1,11.66-.87,94.48,94.48,0,0,1,10.37.51c24.4,2.71,25.75,16.21,44.21,39.83A190.73,190.73,0,0,0,571.87,927C573.15,928.23,565.54,933.4,552.23,938.21Z"/><path class="cls-5" d="M552.23,938.21c-1.11.4-2.25.79-3.42,1.18-24,2.45-69.24,7-31.11,2.21,38.52-4.81,38.51-25.1,36.42-34.28A190.73,190.73,0,0,0,571.87,927C573.15,928.23,565.54,933.4,552.23,938.21Z"/><path class="cls-2" d="M442.12,934.53c-10.67-5-16.54-9.89-15.21-11,30.35-25,30.55-50.7,61-55.69C473.13,880.34,434.57,915.38,442.12,934.53Z"/><path class="cls-6" d="M547,951.65c-11,3.17-26.38,5.34-47.44,5.6h0c-65.4-.82-76.66-19.54-74.21-30.55,1-4.42,4.17-7.6,7-7.87,0,15.34,40.77,19.43,67.07,19.43h.39c26.3,0,64.3-4,64.3-19.31C572.3,919,584,941,547,951.65Z"/><path class="cls-7" d="M520.52,864.94v5.85c0,1.9-9.39,3.44-21,3.44a102.42,102.42,0,0,1-13.28-.78,39.15,39.15,0,0,1-4.1-.74h0c-2.26-.55-3.58-1.21-3.58-1.92v-5.85Z"/><path class="cls-7" d="M520.52,864.94c0,.86-1.88,1.63-5,2.24a90.94,90.94,0,0,1-16,1.21c-11.58,0-21-1.55-21-3.45,0-.82,1.78-1.59,4.73-2.18a89.42,89.42,0,0,1,16.24-1.26C511.13,861.5,520.52,863,520.52,864.94Z"/><path class="cls-8" d="M533.76,739.07S514.31,846.73,514,864.19a1.09,1.09,0,0,1-.81,1,48.25,48.25,0,0,1-14.1,1.45,67.69,67.69,0,0,1-13.89-1.9,1.1,1.1,0,0,1-.82-1l-19.67-124.7,21.9-9.88,9.5-.13Z"/><path class="cls-2" d="M499.1,866.67a67.69,67.69,0,0,1-13.89-1.9,1.1,1.1,0,0,1-.82-1l-19.67-124.7,21.9-9.88C483.32,764.69,477.21,848.25,499.1,866.67Z"/><path class="cls-2" d="M515.52,867.18a90.94,90.94,0,0,1-16,1.21c-11.58,0-21-1.55-21-3.45,0-.82,1.78-1.59,4.73-2.18-1.2,1.93-.27,5.6,26.07,4.54C511.88,867.2,513.92,867.16,515.52,867.18Z"/><path class="cls-2" d="M547,951.65c-11,3.17-26.38,5.34-47.44,5.6h0c-65.4-.82-76.66-19.54-74.21-30.55,10.56,14.09,40.45,28.35,119.94,25Z"/><path class="cls-9" d="M528.33,852.67s-111.33-2.67-53-34C465,830,439.33,843,528.33,852.67Z"/><path class="cls-9" d="M467.43,776s111.33,2.67,53,34C530.76,798.67,556.43,785.67,467.43,776Z"/><path class="cls-10" d="M451.44,774.12s.31-3.31,9-4.74c-.06,4-6.38,6-6.38,6A3.12,3.12,0,0,0,451.44,774.12Z"/><ellipse class="cls-9" cx="455.58" cy="774.71" rx="2.94" ry="7.81" transform="translate(-363.32 1145.02) rotate(-83.87)"/><path class="cls-10" d="M451.38,774.69s.31,3.31,9,4.75c-.07-4-6.38-6-6.38-6A3.14,3.14,0,0,1,451.38,774.69Z"/></g><g id="STD"><path class="cls-11" d="M548.39,703.56,541,716.25h0l-2.09,3.61a38.24,38.24,0,0,0-5.17,19.21h-69c0-.85,0-1.69-.08-2.53,0-.23,0-.46-.05-.68,0-.55-.09-1.1-.15-1.64,0-.31-.08-.63-.13-.94s0-.34-.07-.51c0-.38-.12-.75-.18-1.13s-.17-.9-.27-1.34c-.05-.24-.1-.47-.16-.7s-.08-.36-.12-.53a41.67,41.67,0,0,0-3.56-9.43l-8.38-16.08a57.93,57.93,0,0,0,7.28,8.6l.24.22,0,0a5.21,5.21,0,0,0,.89.61,4.44,4.44,0,0,0,.49.24l.51.18.39.11a8.12,8.12,0,0,0,1.69.2,10.84,10.84,0,0,0,1.65-.1,2.56,2.56,0,0,1,2.83,2.16,15.09,15.09,0,0,0,1.32,4.15,62.89,62.89,0,0,0,16.76,7.16,25.7,25.7,0,0,0,4.74-.42h0a14.8,14.8,0,0,0,3.45-1.05,7.89,7.89,0,0,1,6.76.15,24.53,24.53,0,0,0,8.1,1.86h0c1.17-.24,2.39-.51,3.68-.84h0a69.5,69.5,0,0,0,21.78-9.44,15.21,15.21,0,0,0,1.25-4.14,2.3,2.3,0,0,1,2.63-2,9,9,0,0,0,3.9-.19c.5-.49,1-1,1.49-1.52a.19.19,0,0,0,.06-.07A51.09,51.09,0,0,0,548.39,703.56Z"/><path class="cls-12" d="M541,716.25l-2.09,3.61a38.24,38.24,0,0,0-5.17,19.21h-69c0-.85,0-1.69-.08-2.53,0-.23,0-.46-.05-.68,0-.55-.09-1.1-.15-1.64,0-.31-.08-.63-.13-.94s0-.34-.07-.51c0-.38-.12-.75-.18-1.13s-.17-.9-.27-1.34c-.05-.24-.1-.47-.16-.7s-.08-.36-.12-.53a41.67,41.67,0,0,0-3.56-9.43l-8.38-16.08a57.93,57.93,0,0,0,7.28,8.6l.24.22,0,0a5.21,5.21,0,0,0,.89.61,4.44,4.44,0,0,0,.49.24l.51.18.39.11a8.12,8.12,0,0,0,1.69.2s2.36,4.68,4.71,8.79c1.55,2.72,3.1,5.18,4,5.9s4.72.61,9.75.47l3.16-.07c2.16,0,4.47,0,6.83.06a51.39,51.39,0,0,1,12.84,1.93c1.68.52,3.09,1,4.3,1.54,4.47,1.85,6.22,3.48,8.49,4.42,1.73.71,3.77,1,7.54.71C534.8,736.67,532.75,718.58,541,716.25Z"/><path class="cls-13" d="M518.59,739.07H464.72a62.36,62.36,0,0,0-1.05-9.47c0-.19-.08-.36-.12-.53a41.67,41.67,0,0,0-3.56-9.43l-8.38-16.08a57.93,57.93,0,0,0,7.28,8.6l.24.22,0,0a94.61,94.61,0,0,1,7.54,9.31c1.34,2,2.2,3.82,1.76,4.61-1.33,2.42,5.09,8.75,13.92,7s16.67-1.91,24.33.92c1.36.5,2.83,1.07,4.32,1.67,1.31.52,2.64,1.07,3.94,1.61Z"/></g></g></g></svg>