<svg xmlns="http://www.w3.org/2000/svg" viewBox="0 0 1000 1000"><defs><style>.cls-1{fill:none;}.cls-2{fill:#b2ad74;}.cls-3{fill:#e2de91;}.cls-4{fill:#fffdab;}.cls-5{fill:#e63128;}.cls-6{fill:#f1781f;}.cls-7{fill:#f7b614;}.cls-8{fill:#eff583;}</style></defs><g id="Layer_2" data-name="Layer 2"><g id="OutPut"><rect id="BG" class="cls-1" width="1000" height="1000"/></g><g id="Stand"><g id="_7" data-name="7"><path class="cls-2" d="M486.69,755.74s0,0,0,0a24.72,24.72,0,0,1-.57,5.66c-.09.43-.2.86-.32,1.28-.17.65-.38,1.29-.61,1.92a.06.06,0,0,1,0,0,24.71,24.71,0,0,1-1.14,2.64l-.14.27c-.39.75-.82,1.48-1.28,2.19a24.79,24.79,0,0,1-5.13,5.69A26.3,26.3,0,0,1,473,778.4l0,0h0a24.65,24.65,0,0,1-6,2.07c-.58.13-1.17.24-1.77.32-.27,0-.54.07-.82.09s-.64.07-1,.09l-.32,0a24.94,24.94,0,0,1-24.75-16.29,24.48,24.48,0,0,1-1.3-5.17,24.94,24.94,0,0,1,21.26-28.15,24.64,24.64,0,0,1,5.68-.14,70.26,70.26,0,0,1,.74,7.77v0H480l.36.39a24.83,24.83,0,0,1,3.89,5.78c.07.14.13.27.19.41h0a24.7,24.7,0,0,1,1.29,3.43h0c.16.53.29,1.06.41,1.61a1,1,0,0,1,0,.17c.13.59.24,1.19.32,1.8,0,.21.05.41.08.62C486.62,754.12,486.67,754.94,486.69,755.74Z"/><circle class="cls-2" cx="485.38" cy="792.21" r="24.94"/><circle class="cls-2" cx="472.62" cy="831.66" r="24.94"/><circle class="cls-2" cx="490.71" cy="853.61" r="24.94"/><circle class="cls-2" cx="524.66" cy="776.21" r="24.94"/><path class="cls-2" d="M554.51,759.86a24.72,24.72,0,0,1-4.92,15.9A24.85,24.85,0,0,1,533,785.57l-1.32.15h0a24.22,24.22,0,0,1-2.55.08h-.47c-.82,0-1.62-.1-2.42-.2a24,24,0,0,1-4.15-.94l-.07,0h0a23.06,23.06,0,0,1-3.31-1.32c-.43-.21-.86-.43-1.28-.67l-.66-.38h0c-.38-.23-.75-.46-1.11-.72a23,23,0,0,1-3-2.35,22.34,22.34,0,0,1-2.13-2.22h0l-.09-.1h0a21.69,21.69,0,0,1-1.63-2.18,2.41,2.41,0,0,1-.23-.36v0a23.56,23.56,0,0,1-2.36-4.74,24.36,24.36,0,0,1-1.32-5.22l0-.27c0-.22-.06-.44-.08-.67,0-.41-.07-.83-.1-1.24v0c0-.26,0-.54,0-.8a23.46,23.46,0,0,1,.19-3.57c0-.32.08-.65.14-1h0c.05-.34.12-.66.19-1,0-.11,0-.23.07-.34a24.18,24.18,0,0,1,1.16-3.74c0-.09.07-.18.11-.27s.14-.36.22-.54a24,24,0,0,1,1.4-2.72c.11-.19.23-.38.35-.56a.34.34,0,0,1,.07-.11,7.78,7.78,0,0,1,.47-.7,1.11,1.11,0,0,1,.16-.24s0,0,0,0q.61-.88,1.32-1.71c.42-.51.87-1,1.34-1.46t0,0a9.76,9.76,0,0,1,.73-.71,23.15,23.15,0,0,1,3.69-2.83c.37-.24.74-.47,1.13-.68h9.77V739c0-.2,0-.4,0-.59a1.09,1.09,0,0,1,0-.18,12.71,12.71,0,0,1,.41-2.23,20.25,20.25,0,0,1,2.58-.06,22.51,22.51,0,0,1,3.59.35,25,25,0,0,1,20.44,21.14Q554.46,758.66,554.51,759.86Z"/><circle class="cls-2" cx="518.27" cy="811.47" r="24.94"/><circle class="cls-2" cx="503.94" cy="834.69" r="14.35"/><circle class="cls-2" cx="492.73" cy="882.74" r="14.35"/><circle class="cls-2" cx="516.93" cy="864.88" r="6.79"/><circle class="cls-2" cx="490.44" cy="902.67" r="6.79"/><circle class="cls-2" cx="497.51" cy="907.58" r="6.79"/><circle class="cls-2" cx="498.75" cy="911.3" r="6.79"/><circle class="cls-2" cx="508.92" cy="894.97" r="6.79"/><path class="cls-3" d="M486.69,755.74s0,0,0,0a15.27,15.27,0,0,1-1.56,5.26c-.2.4-.41.8-.65,1.18l-.19.31h0a15.67,15.67,0,0,1-5,4.88,14.37,14.37,0,0,1-1.39.76,15.62,15.62,0,0,1-4.53,1.4l-.14,0a15.81,15.81,0,0,1-2.65.14h-.25a14.12,14.12,0,0,1-2.34-.29l-.48-.09c-.44-.11-.88-.23-1.31-.37a15.81,15.81,0,0,1-6-3.62h0a15.54,15.54,0,0,1-4.07-6.52,15.07,15.07,0,0,1-.57-2.45l0-.18a.49.49,0,0,1,0-.12h0a15.54,15.54,0,0,1,2.64-10.94l0,0a15.41,15.41,0,0,1,2.44-2.79,15.89,15.89,0,0,1,2.53-1.84,11.38,11.38,0,0,1,1.25-.65h0a14.35,14.35,0,0,1,1.82-.72h9.7a15.27,15.27,0,0,1,3,1.32,14.84,14.84,0,0,1,1.45.93h0a15.44,15.44,0,0,1,3.81,4l.24.36h0a15.2,15.2,0,0,1,1.49,3.09,15.51,15.51,0,0,1,.5,1.68c0,.11.05.21.06.32.08.36.15.73.2,1.1a12.47,12.47,0,0,1,.12,1.48A12.88,12.88,0,0,1,486.69,755.74Z"/><circle class="cls-3" cx="469.56" cy="763.08" r="15.71"/><circle class="cls-3" cx="479.62" cy="777.15" r="15.71"/><circle class="cls-3" cx="483.06" cy="801.85" r="15.71"/><circle class="cls-3" cx="482.26" cy="820.27" r="15.71"/><circle class="cls-3" cx="488.63" cy="832.67" r="15.71"/><circle class="cls-3" cx="490.42" cy="846.73" r="15.71"/><circle class="cls-3" cx="510.53" cy="823.78" r="15.71"/><circle class="cls-3" cx="520.64" cy="800.27" r="15.71"/><circle class="cls-3" cx="516.64" cy="781.28" r="15.71"/><circle class="cls-3" cx="523.93" cy="770.98" r="15.71"/><circle class="cls-3" cx="519.54" cy="757.03" r="15.71"/><path class="cls-3" d="M543.5,759.86a15.55,15.55,0,0,1-2.29,3.94,18,18,0,0,1-1.38,1.52c-.3.29-.62.57-1,.84a15.52,15.52,0,0,1-6.44,3.17l-.24,0c-.37.08-.74.15-1.11.2a14.89,14.89,0,0,1-2.3.15,12.63,12.63,0,0,1-1.63-.11h0a9.16,9.16,0,0,1-1.17-.17,15.57,15.57,0,0,1-5.42-2.14,15.27,15.27,0,0,1-1.61-1.16c-.19-.15-.36-.3-.54-.47h0c-.37-.33-.73-.68-1.07-1s-.49-.56-.73-.85l-.15-.2a15.32,15.32,0,0,1-2.23-4c-.09-.24-.18-.48-.25-.72a14.34,14.34,0,0,1-.46-1.77c-.06-.29-.11-.58-.15-.88s-.09-.74-.11-1.11a3.25,3.25,0,0,1,0-.54,4.1,4.1,0,0,1,0-.49,13,13,0,0,1,.07-1.4,10.58,10.58,0,0,1,.16-1.26c0-.1,0-.2,0-.3a15.15,15.15,0,0,1,1.21-3.74c.08-.17.16-.33.25-.49a15.75,15.75,0,0,1,4-5l.69-.53.11-.08a14.94,14.94,0,0,1,4-2.06l.31-.11h3.15V739c0-.2,0-.4,0-.59a7.26,7.26,0,0,1,.92-.07,14.33,14.33,0,0,1,3.41.2,14.53,14.53,0,0,1,1.76.41l.16,0,.23.07h0l.09,0a15.64,15.64,0,0,1,10.56,12.42c0,.11,0,.21.05.32A15.63,15.63,0,0,1,543.5,759.86Z"/><circle class="cls-3" cx="526.92" cy="765.24" r="15.71"/><circle class="cls-3" cx="499.82" cy="837.32" r="15.71"/><circle class="cls-3" cx="509.28" cy="849.29" r="15.71"/><circle class="cls-3" cx="489.44" cy="862.76" r="15.71"/><circle class="cls-3" cx="503.65" cy="874.26" r="11.98"/><circle class="cls-3" cx="505.89" cy="880.9" r="11.98"/><circle class="cls-3" cx="499.23" cy="891.04" r="11.98"/><circle class="cls-3" cx="502.87" cy="899.98" r="8.47"/><circle class="cls-3" cx="499.41" cy="910.11" r="4.43"/><circle class="cls-3" cx="503.9" cy="906.11" r="4.43"/><circle class="cls-3" cx="501.13" cy="910.97" r="4.43"/><circle class="cls-3" cx="502.6" cy="915.24" r="4.43"/><circle class="cls-3" cx="502.19" cy="921.1" r="4.43"/><circle class="cls-3" cx="506.91" cy="911.73" r="4.43"/><circle class="cls-3" cx="497.79" cy="904.44" r="4.43"/><circle class="cls-3" cx="491.54" cy="880.02" r="4.43"/><circle class="cls-4" cx="485.26" cy="765.71" r="12.47"/><circle class="cls-4" cx="504.15" cy="763.08" r="12.47"/><circle class="cls-4" cx="514.3" cy="765.06" r="12.47"/><circle class="cls-4" cx="509.45" cy="774.93" r="12.47"/><circle class="cls-4" cx="486.95" cy="781.46" r="12.47"/><circle class="cls-4" cx="500.16" cy="788.81" r="12.47"/><circle class="cls-4" cx="498.17" cy="774.56" r="12.47"/><circle class="cls-4" cx="500.78" cy="786.79" r="12.47"/><circle class="cls-4" cx="495" cy="797.21" r="12.47"/><circle class="cls-4" cx="504.06" cy="795.95" r="12.47"/><circle class="cls-4" cx="510.36" cy="807.66" r="12.47"/><circle class="cls-4" cx="502.49" cy="815.39" r="12.47"/><circle class="cls-4" cx="494.62" cy="818.55" r="12.47"/><circle class="cls-4" cx="486.14" cy="803.36" r="12.47"/><circle class="cls-4" cx="506.6" cy="795.59" r="12.47"/><circle class="cls-4" cx="514.45" cy="794.5" r="12.47"/><circle class="cls-4" cx="500.76" cy="817.69" r="12.47"/><circle class="cls-4" cx="496.87" cy="834.72" r="12.47"/><circle class="cls-4" cx="493.2" cy="829.27" r="12.47"/><circle class="cls-4" cx="487.57" cy="848.61" r="3.71"/><circle class="cls-4" cx="498.35" cy="859.73" r="3.71"/><circle class="cls-4" cx="503.08" cy="860.71" r="3.71"/><circle class="cls-4" cx="499.85" cy="850.6" r="7.23"/><path class="cls-5" d="M539.79,774.24a46.8,46.8,0,0,1-2,10.2,45.46,45.46,0,0,1-3.39,8h0a.47.47,0,0,1-.05.1l-.09.17-.57-.85c-.76-1.1-1.53-2.12-2.31-3.07h0l-.54-.66h0a1.41,1.41,0,0,1-.17-.18c-.61-.71-1.23-1.38-1.83-2l-.13-.13a42.13,42.13,0,0,0-6.85-5.69h0l-.78-.5c-.7-.43-1.27-.75-1.67-1l-.68-.34-.2.2c-.42.41-1.47,1.47-2.84,3l-.46.53c-.33.38-.67.79-1,1.22s-.71.88-1.08,1.35l-.17.22q-.33.42-.66.87l-.38.51-.78,1.07-.27.39-.54.79-.19.29h0a49.63,49.63,0,0,0-2.95,5,.54.54,0,0,0-.05.11l0,.07c-.33.65-.64,1.31-.94,2-.37.84-.71,1.68-1,2.55h0l-.06.18s0,0,0,0c-.21.6-.4,1.22-.57,1.83-.1.34-.19.69-.27,1s-.22,1-.31,1.44a23.93,23.93,0,0,0-.31,2.53c0,.26,0,.53,0,.79,0,.45,0,.9,0,1.35,0,.24,0,.49,0,.74s0,.52.07.79,0,.28.07.43h0c0,.14,0,.28.06.43h0c.07.39.15.79.25,1.18-.23-.26-.45-.51-.69-.76l-.41-.46-.05,0c-.58-.65-1.16-1.28-1.75-1.9l0,0c-.11-.13-.22-.24-.33-.36h0l-1.73-1.8-.47-.47-.08-.09-.06-.06-.23-.23-.95-.95c-.69-.69-1.37-1.36-2.05-2s-1.32-1.27-2-1.88c-.41-.4-.82-.78-1.22-1.16h0c-1.89-1.79-3.72-3.47-5.46-5.11l-.36-.34-1.61-1.51-.61-.58-.35-.34c-1.6-1.53-3.09-3-4.46-4.51a46.34,46.34,0,0,1-4.63-5.73,26.06,26.06,0,0,1-1.52-2.5h0c-.33-.62-.64-1.24-.92-1.87a31.65,31.65,0,0,1-2.78,2.25,24,24,0,0,0-2.3,1.72,11,11,0,0,0-1.88,2.59c-.18.29-.36.61-.56,1,0,0-.47-1.12-1.11-3.06a3.3,3.3,0,0,0-.12-.38c-.32-1-.69-2.25-1.06-3.64h0a70.25,70.25,0,0,1-2-11.63h0a52.86,52.86,0,0,1,0-8.45,40.84,40.84,0,0,1,1.18-7.19,33.75,33.75,0,0,1,2.13-5.91,30.31,30.31,0,0,1,2.75-4.7h61V739c0-.2,0-.4,0-.59a1.09,1.09,0,0,1,0-.18,12.71,12.71,0,0,1,.41-2.23,12.85,12.85,0,0,1,2.45-4.69,11,11,0,0,1,.13,4.63l-.06.23s.55.84,1.39,2.37l.12.22.14.24a.25.25,0,0,0,0,.07A72.83,72.83,0,0,1,537.25,752c.19.63.37,1.27.55,1.92.12.43.24.87.34,1.32a61.36,61.36,0,0,1,1.69,10.09A52.17,52.17,0,0,1,539.79,774.24Z"/><path class="cls-6" d="M474.86,739.07a47.08,47.08,0,0,1-7.08,8.2l-.26.24c-.51.46-1,.88-1.42,1.25-1.7,1.44-2.86,2.23-2.86,2.23a16.76,16.76,0,0,1,.49-2.5,21.47,21.47,0,0,1,1.12-3.16,18.76,18.76,0,0,1,4.41-6.26Z"/><path class="cls-6" d="M521.34,739.33l-2.25,1.46-.15.1-.78.5c-1.33.87-3,2-5,3.23l-1.37.87-.09.06-2.12,1.35-.41.26a3.87,3.87,0,0,1-.34.21l-.26.17-.08.05-.61.4c-.65.4-1.31.82-2,1.25l-1.32.83-.41.26c-.15.09-.27.19-.43.28h0l-.52.33-3.2,2c-2,1.23-4,2.47-5.95,3.69l-.14.08-.73.45c-2.4,1.47-4.78,2.91-7.05,4.26l-.89.53-.54.32-.4.24h0l-2.69,1.56-2,1.16-2,1.09c-1.7.94-3.21,1.72-4.46,2.32a17.74,17.74,0,0,1-2.53,1.07h-.06l-.25.07.06-.08h0c.24-.28,1.15-1.34,2.47-2.94,1.11-1.36,2.51-3.1,4-5.08h0l.42-.54,1.5-2,1.33-1.8h0c.76-1.07,1.54-2.16,2.3-3.27l.41-.6h0c1-1.44,2-2.92,2.84-4.37h0l.2-.34a41.12,41.12,0,0,0,4.57-9.68h30.22Z"/><path class="cls-6" d="M480.35,749.62q0,1,0,2c0,.88,0,1.76-.07,2.66s-.07,2-.12,3.06h0c-.05,1.29-.13,2.57-.22,3.84h0a1.94,1.94,0,0,1,0,.24c-.09,1.28-.2,2.55-.32,3.79-.08.73-.16,1.45-.25,2.16,0,.22-.05.44-.08.65-.12.88-.24,1.75-.38,2.58a7.19,7.19,0,0,1-.88-2.23,2,2,0,0,1-.05-.24,16.76,16.76,0,0,1-.33-1.83,40.88,40.88,0,0,1-.3-4.71,3.84,3.84,0,0,1,0-.48c0-1.55,0-3.21.1-4.91,0-.07,0-.14,0-.21q.08-1.46.18-2.94c.08-1.12.17-2.23.27-3.34.3-3.34.68-6.58,1-9.35.06-.45.12-.89.17-1.32h1.25v.39q0,.88,0,1.86h0C480.38,743.8,480.4,746.63,480.35,749.62Z"/><path class="cls-6" d="M489.56,754.65s21,4.89,12.79,35.54c8.27-9.21,21.81-19.62,21.53-38.72s-20.4-9.7-20.4-9.7Z"/><path class="cls-6" d="M510.09,767s11.72,9.52,18,9.61c-6.11-4.81-13.73-17.39-13.73-17.39Z"/><path class="cls-6" d="M536.76,759.26a21.65,21.65,0,0,0-1.68-4.55h0a16.09,16.09,0,0,0-.88-1.53,16.67,16.67,0,0,0-1.62-2.18,7.55,7.55,0,0,0-.54-.59,20,20,0,0,0-9.35-5.42h0a18.07,18.07,0,0,0-3-.55,10.68,10.68,0,0,1-.67-2.56,2.92,2.92,0,0,1,0-.51,3.38,3.38,0,0,1,0-.45.5.5,0,0,1,0-.17,2.16,2.16,0,0,1,.82-1.65h3.67l.32.11c.24.08.5.17.77.28a16.32,16.32,0,0,1,2.76,1.42,17.36,17.36,0,0,1,2.07,1.54,21.79,21.79,0,0,1,6,9c.09.25.17.5.25.75.21.64.39,1.27.54,1.91A22.17,22.17,0,0,1,536.76,759.26Z"/><path class="cls-7" d="M490.31,739.07c-1.47,1.38-3.65,3.5-6.11,6.17l-.05,0c-1.21,1.32-2.5,2.77-3.8,4.33-.33.39-.65.79-1,1.19-.6.74-1.2,1.49-1.79,2.27-.33.42-.65.85-1,1.28a73.14,73.14,0,0,0-6.46,10.25h0a46.31,46.31,0,0,0-2.14,4.8c-.12.28-.22.56-.32.84,0,0-.06-.33-.16-.93s-.16-1.11-.26-1.89h0c-.56-4.4-1.29-13.09.46-19.94a1.74,1.74,0,0,1,0-.22c.93-3.52,2.52-6.54,5.15-8.2Z"/><path class="cls-7" d="M511.18,739.07c0,.18-.05.36-.08.54a30.47,30.47,0,0,1-.89,4c-.08.28-.16.56-.26.85a1.15,1.15,0,0,1-.06.17c-.19.6-.42,1.22-.68,1.85a.14.14,0,0,1,0,.06c0,.1-.08.21-.13.32s-.14.34-.23.51a5.27,5.27,0,0,1-.22.49,4.39,4.39,0,0,1-.21.44,24.54,24.54,0,0,1-1.47,2.61l-.34.51a2,2,0,0,1-.18.26,21.88,21.88,0,0,1-1.62,2.1c-.24.28-.49.56-.77.84s-.73.76-1.13,1.12a24.35,24.35,0,0,1-3.36,2.61,5.25,5.25,0,0,0-1.49,1.48,8.61,8.61,0,0,0-1,1.89c-.06.14-.11.29-.16.44a24.66,24.66,0,0,0-1,7.43c0,.87,0,1.74,0,2.6,0,.09,0,.17,0,.26s0,.25,0,.37c0,.82.09,1.63.16,2.41,0,.6.11,1.17.17,1.73.4,3.69,1,6.49,1,6.7-.11-.11-1-1-2.45-2.54-.61-.66-1.32-1.44-2.1-2.32L492,778l-1-1.17c-1.47-1.74-3.09-3.74-4.72-5.92L485,769.15l-.61-.87c-.16-.23-.33-.46-.48-.7-.07-.08-.12-.17-.18-.25-.51-.74-1-1.49-1.49-2.25l-.64-1c-.53-.86-1-1.74-1.55-2.63-.05-.08-.1-.16-.14-.24h0c-.38-.68-.75-1.35-1.11-2-.5-1-1-1.95-1.4-2.93l-.06-.14h0c-.25-.58-.49-1.14-.72-1.72a33.39,33.39,0,0,1-1.78-6.08,18.39,18.39,0,0,1,.37-9.21Z"/><path class="cls-7" d="M533.36,758.42a56,56,0,0,1-.31,6.63h0c-.15,1.36-.35,2.78-.61,4.27,0,.13-.05.26-.07.4l-.17-.35c-.29-.61-.59-1.25-.92-1.92a54.5,54.5,0,0,0-7.55-12,1.34,1.34,0,0,0-.11-.14,43.06,43.06,0,0,0-3.47-3.6l-.43-.4a43.07,43.07,0,0,0-3.93-3.17h0c-.35-.27-.71-.52-1.07-.76-.92-.64-1.89-1.25-2.91-1.85l-.06,0c-.39-.23-.78-.45-1.19-.67a4.67,4.67,0,0,0-.49-.27l-.1,0-.63-.33c-1.12-.6-2.3-1.16-3.54-1.7l-.86-.38c-.36-.15-.7-.3-1-.46s-.8-.38-1.15-.58a14.79,14.79,0,0,1-1.48-.9,9.58,9.58,0,0,1-1.28-1h26.76l.47.55.27.3a12.46,12.46,0,0,1,1.88,2.5,24,24,0,0,1,2,4.27h0c.32.9.63,1.88.9,3,.07.29.14.58.2.88l.09.43c.12.54.22,1.1.31,1.68A40.84,40.84,0,0,1,533.36,758.42Z"/><path class="cls-7" d="M511.44,742.93s11.91,9.78,5.27,23.06c-.75-9.52-4.14-14.29-12-14.79S511.44,742.93,511.44,742.93Z"/><path class="cls-7" d="M504.42,742.93a26.67,26.67,0,0,0,3.76,18.93C499.78,750.07,494.27,754,504.42,742.93Z"/><path class="cls-7" d="M508.18,744.81s2.13,13,0,14.42C513.07,754.16,508.18,744.81,508.18,744.81Z"/><path class="cls-8" d="M505.38,739.07l-.29.22h0c-.33.26-.69.52-1.07.8l-1.26.92c-.9.65-1.88,1.34-2.93,2.06l-.54.36a82,82,0,0,1-12.84,7.32l-.31.13c-.14.07-.28.12-.42.18l.38-.35a3.83,3.83,0,0,0,.29-.28c5-4.82,5.09-9.54,4.91-11.36Z"/><path class="cls-8" d="M513.48,739.07c0,.12-.05.25-.09.39-.16.83-.41,1.91-.75,3.12,0,.13-.07.26-.11.39s-.15.51-.22.77c-.18.55-.36,1.12-.58,1.71a.38.38,0,0,1,0,.1c-.3.84-.64,1.7-1,2.56-.19.41-.38.82-.59,1.23l-.17.35c-.3.56-.61,1.12-.95,1.66a.82.82,0,0,1-.11.17l-.25.41a16.3,16.3,0,0,1-3.29,3.71l-.14.12-.67.49a17.53,17.53,0,0,0,.28-2.47,16.38,16.38,0,0,0,0-2.09h0c0-.16,0-.32,0-.48s0-.39-.07-.59-.05-.36-.08-.54A11.68,11.68,0,0,0,504,748h0c0-.07-.05-.14-.08-.2a7.75,7.75,0,0,0-1.62-2.53,6.53,6.53,0,0,0-1.41-1.11,8,8,0,0,0-1.62-.73,10.68,10.68,0,0,0-2.95-.46c-4-.1-2.73-.85.47-1.75,1.25-.36,2.81-.74,4.47-1.11.78-.18,1.59-.35,2.39-.52.48-.11.94-.21,1.42-.3h0l1.05-.22Z"/><path class="cls-8" d="M514.28,751.89l-.84-.51-3.35-2-.3-.19-1.1-.67h0l-.28-.18-.26-.15-.26-.16-.82-.5-1.53-.94-1.47-.9-1.36-.82-1.52-.93-1.36-.83-3-1.85-2.53-1.54.61-.61h8.43l.35.52c.12.16.23.33.35.5.27.37.54.74.83,1.12s.62.81.94,1.22c.69.86,1.4,1.72,2.12,2.55a4.72,4.72,0,0,0,.37.41h0c.09.12.2.24.3.36l.07.07h0l.55.63h0l.36.41,1.1,1.21c1.15,1.25,2.15,2.3,2.81,3Z"/><circle class="cls-3" cx="489.58" cy="796.99" r="4.84"/><circle class="cls-4" cx="458.64" cy="790.19" r="7.03"/><circle class="cls-3" cx="495.82" cy="813.2" r="7.97"/><circle class="cls-2" cx="524.66" cy="783.67" r="7.33"/><circle class="cls-3" cx="458.64" cy="749.53" r="7.5"/></g></g></g></svg>