<svg xmlns="http://www.w3.org/2000/svg" viewBox="0 0 1000 1000"><defs><style>.cls-1{fill:none;}.cls-2{fill:#f7931e;}.cls-2,.cls-7{opacity:0.5;}.cls-3,.cls-4{opacity:0.1;}.cls-4,.cls-5,.cls-6{fill:#fff;}.cls-6{opacity:0.4;}.cls-8{fill:#cecece;}.cls-9{fill:#142372;}.cls-10{fill:#2843af;}.cls-11{fill:#213a89;}.cls-12{fill:#231800;}.cls-13{opacity:0.8;}.cls-14{fill:#ffd652;}.cls-15{fill:#e8b62a;}.cls-16{opacity:0.2;}.cls-17{fill:#f9b200;}.cls-18{fill:#dd7d1d;}.cls-19{fill:#ccc;}.cls-20{fill:#afafaf;}.cls-21{fill:#8c8c8c;}.cls-22{fill:#9b5516;}</style></defs><g id="Layer_2" data-name="Layer 2"><g id="OutPut"><rect id="BG" class="cls-1" width="1000" height="1000"/></g><g id="Stand"><g id="_4" data-name="4"><path class="cls-2" d="M620.48,933.73c-.26,3.83-7,8.88-17.38,13.49-19.8,8.84-52.73,16.12-78.33,10.27-2.1-.48-4.13-1-6.11-1.7a74.26,74.26,0,0,0-14.34-3.26h-.11c-32.52-3.92-57,16-75.25,18.3-6.78.87-11.09-1-13.52-3.79-5-5.91-2-16.24,3.72-16.35,25-.45,25.61-23.56,35.24-37.37,5.47-7.84,13.86-12.68,31.32-8.67,29.26,6.73,52.45-.27,67.75-3,9.91-1.73,16.5-1.65,19.28,5.13a16.09,16.09,0,0,0,6.56,7.32c4.46,2.86,10.37,4.7,16.33,6.26,9.56,2.5,19.22,4.3,23.09,8.49A6.21,6.21,0,0,1,620.48,933.73Z"/><path class="cls-3" d="M618.73,928.88c-27.72,7.83-55.2-16.82-65.26-27.2,9.91-1.73,16.5-1.65,19.28,5.13a16.09,16.09,0,0,0,6.56,7.32c4.46,2.86,10.37,4.7,16.33,6.26C605.2,922.89,614.86,924.69,618.73,928.88Z"/><path class="cls-4" d="M415.45,967h0c-5-5.91-2-16.24,3.72-16.35,25-.45,25.61-23.56,35.24-37.37C454.4,913.31,457.37,946,415.45,967Z"/><path class="cls-5" d="M420.87,952.89s-4,.49-4.74,3.28S422,953.34,420.87,952.89Z"/><path class="cls-5" d="M559.86,957.16s3.12,1.19,4.49-.38S559.16,956.43,559.86,957.16Z"/><path class="cls-4" d="M603.1,947.22c-19.8,8.84-52.73,16.12-78.33,10.27C524.77,957.49,571.74,956.39,603.1,947.22Z"/><ellipse class="cls-3" cx="500.31" cy="938.18" rx="46.63" ry="7.05"/><path class="cls-6" d="M458.65,797.71s33.08,5.87,51.79,0S540.16,799,540.16,799s4.24,137.72-39.86,137.72S458.65,797.71,458.65,797.71Z"/><g class="cls-7"><path class="cls-5" d="M499.42,940.53c-15.39,0-29-.53-35.58-1.39-9-11.91-2.66-20-.28-23.08l.17-.21a146.53,146.53,0,0,1,21.61-3.2c4.77-.39,9.62-.58,14.39-.58a162.14,162.14,0,0,1,35.37,3.78l.17.23c2.38,3,8.68,11.16-.28,23.06C528.39,940,514.8,940.53,499.42,940.53Z"/><path class="cls-8" d="M499.73,912.57a161.48,161.48,0,0,1,35.08,3.73l.06.08c2.53,3.24,8.4,10.79-.15,22.29-6.66.84-20.1,1.36-35.3,1.36s-28.65-.52-35.31-1.36c-8.55-11.51-2.68-19.06-.16-22.29l.07-.09a147.51,147.51,0,0,1,21.36-3.14c4.76-.39,9.59-.58,14.35-.58h0m0-1c-5.24,0-10.09.23-14.43.58a142.56,142.56,0,0,0-21.86,3.26c-.09.11-.18.22-.27.35-2.82,3.62-8.76,11.84.4,23.85,7.07.95,21.46,1.42,35.85,1.42s28.77-.47,35.84-1.42c9.15-12,3.22-20.22.4-23.84q-.13-.19-.27-.36a162.66,162.66,0,0,0-35.66-3.84Z"/></g><g class="cls-7"><path class="cls-5" d="M534.94,918.27c-1.64-.37-3.34-.71-5.07-1s-3.7-.65-5.41-.91a169.3,169.3,0,0,0-24.69-1.79c-3.5,0-7.06.11-10.58.32-4.5.25-9,.68-13.32,1.27-6.22.84-10.5,1.78-12,2.13l-1.08-12.35c-.79-9.17-1.5-17.61-2.13-25.39-.8-9.8-1.4-17.48-1.89-24.17l0-.34c-.45-6.08-.87-12.06-1.24-17.78l0-.44c-.66-10.08-1.11-18.62-1.34-25.38-.79-22.6.87-23.17,2.19-23.63s2.09-1,2.5-5c0-.27,0-.49.06-.65,8.88-1.61,12.91-12.63,12-32.78,0-.48,0-.88-.05-1.19l52.41,1v.77c.19,17.71,2.15,27.49,6,29.89a18.16,18.16,0,0,0,6.67,2.34c.37,4.57,1.26,5.21,2.56,5.66s3,1,2.19,23.71c-.21,6.08-.6,13.51-1.14,22.08-.14,2.41-.31,4.94-.48,7.61l0,.16c-.06.92-.12,1.87-.19,2.83h0v.16c-.67,9.7-1.55,21.21-2.68,35.18-.34,4.16-.71,8.53-1.09,13.08l-.4,4.66q-.27,3.27-.56,6.66c-.29,3.33-.59,6.77-.9,10.3,0,.2,0,.36,0,.52Z"/><path class="cls-8" d="M473.36,749.66l51.39,1v.28c.19,17.9,2.23,27.81,6.25,30.31a18.11,18.11,0,0,0,6.46,2.35c.39,4.12,1.26,5.15,2.86,5.7,1,.34,2.64.9,1.86,23.22-.21,6-.59,13.47-1.14,22.07-.13,2.24-.29,4.59-.45,7.06l0,.7c-.07.92-.13,1.87-.2,2.83a1.21,1.21,0,0,0,0,.18c-.67,9.72-1.55,21.23-2.68,35.16q-.51,6.25-1.09,13.09c-.13,1.5-.26,3-.39,4.58q-.27,3.3-.57,6.74c-.28,3.33-.59,6.77-.9,10.33a4.26,4.26,0,0,0,0,.47c0,.49-.09,1-.13,1.48,0,.17,0,.33,0,.5-1.47-.32-3-.63-4.53-.91-1.88-.35-3.71-.65-5.43-.91a168.88,168.88,0,0,0-24.76-1.79c-3.51,0-7.08.1-10.6.31-4.52.25-9,.68-13.36,1.28-5.65.76-9.63,1.58-11.47,2,0-.19,0-.37,0-.55,0-.48-.09-1-.13-1.42-.29-3.36-.58-6.62-.85-9.8-.83-9.56-1.53-17.87-2.14-25.4-.79-9.77-1.39-17.44-1.88-24.16l0-.33c-.45-6.08-.87-12.06-1.24-17.78l0-.45c-.66-10.06-1.11-18.6-1.34-25.36-.77-22.23.87-22.8,1.86-23.14,1.56-.54,2.43-1.52,2.83-5.45a2.46,2.46,0,0,0,0-.26c5.71-1.22,9.46-6.25,11.16-15,1.38-7.09,1-14.64.87-18.26q0-.36,0-.66m-1-1c-.09,2.75,3.05,31.84-11.89,34.05,0,0,0,.36-.09,1-1.16,11.24-5.94-6.87-4.7,28.7.22,6.5.65,14.8,1.34,25.4l0,.44c.35,5.34.76,11.24,1.24,17.79l0,.34c.53,7.24,1.17,15.27,1.89,24.17.63,7.78,1.34,16.22,2.13,25.39.28,3.18.56,6.45.86,9.81q.13,1.54.27,3.12a118.43,118.43,0,0,1,12.5-2.25c3.76-.51,8.24-1,13.28-1.27,3.3-.2,6.83-.31,10.55-.31a167.68,167.68,0,0,1,24.61,1.78c1.78.26,3.59.57,5.4.9s3.72.72,5.61,1.15c.09-1,.18-2.08.27-3.11,0-.17,0-.34.05-.51q.46-5.29.9-10.29.5-5.87,1-11.33c.38-4.55.74-8.92,1.08-13.08,1.11-13.69,2-25.32,2.69-35.22a.25.25,0,0,1,0-.08c.06-1,.12-2,.19-2.89.18-2.73.35-5.31.5-7.77.57-9,.94-16.28,1.14-22.09,1.28-36.71-3.82-16.47-4.79-29.82a17.78,17.78,0,0,1-6.86-2.34c-6.06-3.77-5.71-28-5.79-30.73l-53.41-1Z"/></g><path class="cls-9" d="M533.76,739.07c-.11,7.5-.35,9.15-.51,11.95a3.36,3.36,0,0,1-3.08,2.86,3.93,3.93,0,0,1-.6.07c-4,.18-11.16.45-20.21.58-4,.06-8.44.09-13.09.07-8.49,0-17.85-.2-27.4-.65a2.52,2.52,0,0,1-.47-.06,3.44,3.44,0,0,1-3.2-2.81c-.16-2.31-.29-5.21-.35-8.5-.05-2.16-.11-1.09-.13-3.51Z"/><path class="cls-10" d="M455.22,812.57s42.43-16.07,88.16,0c-2,34.95-4.54,68-4.54,68H460Z"/><path class="cls-3" d="M535.26,939.61c-14.14,1.89-57.54,1.89-71.69,0-9.16-12-3.22-20.23-.4-23.85-14.42-164.22-4.56-115.21-2.82-132-.85,10.56-6.87,98.83,24.95,128.43a39.79,39.79,0,0,0,3.92,3.21c10,7.08,23.14,8.93,40.56,2.37,1.82-.67,3.7-1.45,5.61-2.32l.32-.15c0,.17,0,.34-.05.51C538.48,919.39,544.41,927.61,535.26,939.61Z"/><path class="cls-4" d="M537.57,893.64c5.5-67.2-.11-98.64-6-113.29a17.78,17.78,0,0,0,6.86,2.34C539.76,801.56,549.38,753.31,537.57,893.64Z"/><path class="cls-3" d="M502.62,754.56c-2,0-4.13,0-6.35,0-8.49,0-17.85-.2-27.4-.65a2.52,2.52,0,0,1-.47-.06,3.44,3.44,0,0,1-3.2-2.81c-.16-2.31-.29-5.21-.35-8.5h8.33C479.54,747.54,488.93,752.31,502.62,754.56Z"/><ellipse class="cls-3" cx="403.14" cy="933.25" rx="23.82" ry="3.6"/><path class="cls-3" d="M670.9,915.56c0,3.41-20.78,6.17-46.42,6.17a282.8,282.8,0,0,1-28.84-1.34c-6-1.56-11.87-3.4-16.33-6.26,4.84-2.71,23.22-4.73,45.17-4.73C650.12,909.4,670.9,912.16,670.9,915.56Z"/><g class="cls-7"><path class="cls-8" d="M430.6,816c-1.08.83-7.92,1.38-14.51,1.73s-13.07.48-13.07.48c-2.18,0-18.61-.46-25-1.53a6.73,6.73,0,0,1-2.36-.68Z"/><path class="cls-8" d="M430.6,816H375.68a6.73,6.73,0,0,0,2.36.68c6.37,1.07,22.8,1.49,25,1.53,0,0,6.41-.14,13.07-.48s13.43-.9,14.51-1.73Z"/></g><path class="cls-2" d="M378.85,833s9.94-4.66,18-1.59,28.32,2.19,30.32.27c0,17.12-4.36,95.63-24.05,95.63S378.85,833,378.85,833Z"/><path class="cls-10" d="M398.43,925.16l-2.52.39-15.22-84.86,0-.13-4.94-27.49,1.34-.57.9-.38C378.79,814.61,398.43,925.16,398.43,925.16Z"/><path class="cls-11" d="M378,812.12l-.9.38-1.34.57s-1.53-1.31-.86-2.5l.35-.16,1.94-.8C378,810,378.73,811.86,378,812.12Z"/><path class="cls-10" d="M377.16,809.61l-1.94.8-.35.16c-1.23,0-1.36-2.71-.88-3.09l1.11-.38.93-.31C377.23,807.39,377.84,808.89,377.16,809.61Z"/><path class="cls-11" d="M376,806.79l-.93.31-1.11.38c-1.35-1.11-1.68-1.22-1.36-2l1.88-2.18A3,3,0,0,1,376,806.79Z"/><path class="cls-10" d="M374.51,803.28l-1.88,2.18c-.41,0-1,.08-1.76.1a.75.75,0,0,1-.15,0h-.19c-6.38.14-21.89-.45-21.89-.45a1.7,1.7,0,0,0,.27-1.63,2.72,2.72,0,0,0-.26-.6Z"/><path class="cls-3" d="M370.53,805.56c-6.38.14-21.89-.45-21.89-.45a1.7,1.7,0,0,0,.27-1.63S352.9,805.35,370.53,805.56Z"/><path class="cls-3" d="M380.67,840.56l-4.94-27.49s-1.53-1.31-.86-2.5c-1.23,0-1.36-2.71-.88-3.09-1.35-1.11-1.68-1.22-1.36-2,0,0,.6,2.16,2.47,1.64-.84.92-1.89,2.12.12,3.31-.08,1.44,0,2.58,1.85,2.09C376.34,813.34,380.34,838.53,380.67,840.56Z"/><path class="cls-12" d="M348.64,805.11c-.33-1.81,0-2.23,0-2.23a2.72,2.72,0,0,1,.26.6A1.7,1.7,0,0,1,348.64,805.11Z"/><g class="cls-13"><polygon class="cls-5" points="397.49 841.37 400.07 839 401.05 847.82 396.96 851.64 397.49 841.37"/><path class="cls-8" d="M400,839.27l.95,8.5-3.82,3.57.51-9.87,2.36-2.2m.19-.52-2.79,2.61L396.82,852l4.36-4.08-1-9.12Z"/><polygon class="cls-5" points="387.92 849.85 387.22 841.54 397.23 841.49 396.7 851.79 387.92 849.85"/><path class="cls-8" d="M397.1,841.61l-.52,10L388,849.75l-.69-8.09,9.75,0m.27-.25-10.29.06.72,8.53,9,2,.55-10.59Z"/><polygon class="cls-5" points="391.49 837.47 399.89 838.83 397.28 841.27 387.4 841.29 391.49 837.47"/><path class="cls-8" d="M391.53,837.61l8.09,1.3-2.35,2.2-9.55,0,3.81-3.55m-.09-.27-4.36,4.08,10.29-.06,2.79-2.61-8.72-1.41Z"/></g><g class="cls-13"><polygon class="cls-5" points="395.5 855.14 396.81 849.64 402.09 858.57 401.24 862 395.5 855.14"/><path class="cls-8" d="M396.86,850l5.07,8.58-.75,3.18-5.54-6.63,1.22-5.13m-.1-.66-1.39,5.86,5.93,7.1.9-3.76-5.44-9.2Z"/><polygon class="cls-5" points="396.94 849.38 405.4 846.11 410.62 852.71 402.24 858.33 396.94 849.38"/><path class="cls-8" d="M405.36,846.26l5.08,6.42-8.16,5.48-5.16-8.72,8.24-3.18m.08-.3-8.68,3.35,5.44,9.2,8.61-5.78L405.44,846Z"/><polygon class="cls-5" points="402.32 858.54 410.61 853.01 409.31 858.5 401.49 862.05 402.32 858.54"/><path class="cls-8" d="M410.41,853.3l-1.21,5.11-7.53,3.42.75-3.17,8-5.36m.4-.57-8.61,5.78-.9,3.76,8.11-3.68,1.4-5.86Z"/></g><g class="cls-13"><polygon class="cls-5" points="409.47 839.29 406.98 835.18 418.93 836.25 422.93 842.74 409.47 839.29"/><path class="cls-8" d="M407.22,835.33l11.63,1,3.81,6.17-13.07-3.35-2.37-3.86m-.48-.29,2.69,4.37,13.76,3.53L419,836.13,406.74,835Z"/><polygon class="cls-5" points="406.92 852.82 409.53 839.56 423.02 843.02 418.1 854.12 406.92 852.82"/><path class="cls-8" d="M409.63,839.72l13.22,3.39L418,854l-11-1.27,2.56-13m-.2-.31-2.66,13.52,11.41,1.32,5-11.31-13.76-3.53Z"/><polygon class="cls-5" points="402.72 846.1 406.77 835.32 409.33 839.47 406.71 852.59 402.72 846.1"/><path class="cls-8" d="M406.8,835.6l2.37,3.86-2.52,12.79-3.79-6.16,3.94-10.49m-.06-.56-4.16,11.08,4.19,6.81,2.66-13.52L406.74,835Z"/></g><g class="cls-7"><path class="cls-5" d="M395.41,932.75a6.17,6.17,0,0,1-4.37-2.09c-15-15.14-14.91-104.65-14.87-113.9l.18.06.35.09.26.06a.79.79,0,0,0,.2,0,.51.51,0,0,0,.22,0l.13,0,.37.07h0l.17,0,.8.12.31,0,.61.08a5.32,5.32,0,0,1,.62.07l.44,0,.3,0,.72.07.28,0,1.34.11c.47,0,.95.09,1.44.12l2,.13.66,0,.31,0,3,.16,1.19.06h.39l.18,0a1.76,1.76,0,0,1,.33,0h.32l.46,0H394l.45,0h.27l.46,0h.28l.44,0,.57,0,.55,0h.26l1.86.06s1.09,0,1.33,0c.64,0,1.19,0,1.62,0H403l.73,0h.64l2.06-.06h.13l.3,0c.33,0,.7,0,1.08,0l2.65-.1.49,0,2.44-.09.42,0,.84,0,.38,0,.95-.06,1.76-.08.61,0,.63,0,.93,0c1.89-.14,3.85-.28,5.53-.47h.16l.39,0c.5-.05,1-.12,1.46-.19l.24,0a3,3,0,0,0,.34-.06h.08l.21,0,.67-.13.12,0,.1,0,.39-.09.35-.1c0,2.68,0,12.2-.3,24.6-.34,12.11-.93,23.51-1.77,33.89,0,.17,0,.38,0,.57-.09,1.16-.19,2.29-.29,3.43l-.08.88c0,.34-.06.67-.1,1,0,.62-.1,1.19-.16,1.78l0,.37A233.76,233.76,0,0,1,423,911.92c-3.17,13.82-7.26,20.83-12.15,20.83Z"/><path class="cls-8" d="M429.61,817.41c0,3.36,0,12.4-.31,23.94-.34,12.1-.93,23.49-1.76,33.83,0,.2,0,.41-.05.61-.08,1.11-.18,2.2-.28,3.31l0,.46-.05.53q0,.49-.09,1v.08h0l-.15,1.64-.05.43a235,235,0,0,1-4.3,28.57c-3.08,13.37-7.11,20.44-11.67,20.44H395.41a5.59,5.59,0,0,1-4-2c-14.54-14.69-14.77-100.75-14.73-112.88h0l.1,0a1.1,1.1,0,0,0,.26.06h0a.54.54,0,0,0,.19,0l.15,0,.23,0,0,0,.2,0H378c.24,0,.49.06.76.11l.38.05.57.08h.09a5.11,5.11,0,0,1,.55,0l.25,0,.21,0,.25,0,.75.07.26,0,.46,0,.45,0,.5,0,1.38.1.37,0,.31,0,1.34.1.61,0,.33,0c1,.07,2,.12,3,.17l1.15.06h1.21l.45,0H394l.46,0h.26l.47,0h.25l.43,0h.57l.57,0h.25l1.86.06.63,0,.74,0c.58,0,1.1,0,1.52,0h1l.71,0h.7l.79,0,1.21,0h.2l.26,0c.33,0,.69,0,1.1,0l.49,0,.55,0c.21,0,.42,0,.64,0l.57,0h.45l.43,0h.26l.61,0,.6,0,.49,0,.5,0,.43,0c.27,0,.53,0,.8,0h.08l.32,0h.24l.34,0,.35,0,.61,0,1.18-.06.59,0,.66,0c.3,0,.59,0,.93-.06,2-.14,3.87-.28,5.53-.46h.15l.4,0,1.47-.19.14,0,.11,0,.36-.05.09,0,.15,0h.07l.07,0,.3-.06.28,0,.15,0h.13l.1,0m1-1.41-.12.07s-.1,0-.15.07a3.55,3.55,0,0,1-.72.24l-.3.08-.28.06-.6.12-.37.06c-.12,0-.26,0-.4.06-.49.07-1,.15-1.61.21-.17,0-.34,0-.52.06-1.62.18-3.51.32-5.49.46-.32,0-.63,0-1,.06l-1.23.07-1.77.09-.72,0c-.19,0-.39,0-.58,0l-1.26.06-1,0-1.23.05-.72,0h-.37L409,818l-1,0c-.5,0-1,0-1.38,0h-.15l-2,.06h-.66l-.71,0-.56,0-2,0-1.34,0-1.85-.06-.83,0h-.53l-.72,0c-.23,0-.48,0-.73,0s-.47,0-.71,0h0l-.75,0a2.3,2.3,0,0,0-.37,0c-.18,0-.37,0-.57,0-1.37-.07-2.78-.13-4.17-.22l-1-.06-1.3-.09-.66-.05c-.65,0-1.28-.1-1.89-.15l-.92-.08-.25,0c-.34,0-.67-.06-1-.09l-.41,0c-.22,0-.44-.06-.65-.07l-.61-.08-1.12-.16a.13.13,0,0,0-.09,0H378l-.61-.11h-.05a2,2,0,0,1-.26-.06l-.25-.06-.55-.15-.3-.12-.14-.08-.15-.08s-1.23,117.25,19.73,117.25h15.44c5.69,0,9.75-8.63,12.64-21.21a237.52,237.52,0,0,0,4.33-28.7c.07-.72.14-1.41.2-2.12v0c.06-.51.1-1,.15-1.54.11-1.27.22-2.52.32-3.79,0-.19,0-.39,0-.58,1-11.92,1.49-23.88,1.77-33.91.4-14.81.3-25.38.3-25.38Z"/></g><path class="cls-3" d="M400.9,933.25h-5.49c-21,0-19.73-117.25-19.73-117.25l.15.08.14.08.3.12.55.15.25.06a2,2,0,0,0,.26.06h.05l.61.11H378c.4,4.36.92,9.81,1.57,16,2.86,27,8.14,67.34,15.92,89.3A48.23,48.23,0,0,0,400.9,933.25Z"/><path class="cls-4" d="M430.3,841.38c-.28,10-.81,22-1.77,33.91,0,.19,0,.39,0,.58-.1,1.27-.21,2.52-.32,3.79-.05.51-.09,1-.15,1.54-.61-6.26-1.49-12.69-2.51-19-.53-3.23-1.1-6.44-1.68-9.57-.44-2.39-.9-4.74-1.36-7-.89-4.41-1.79-8.59-2.67-12.44v-.06c-1.39-6.11-2.69-11.4-3.71-15.37v0c-.16-.61-.31-1.18-.44-1.71h15S430.7,826.57,430.3,841.38Z"/><path class="cls-3" d="M473.81,832.43a.69.69,0,0,0-.41.53c-.56,3.54-4.07,31.92,26.52,31.92s25.81-29.74,25.13-33.28a.77.77,0,0,0-.41-.51l-23.7-11.34a.89.89,0,0,0-.75,0Z"/><path class="cls-3" d="M500.07,827.47s.54,14.33-13.87,17.6c-12.08,2.75,15.77,1.14,25.1.55a.71.71,0,0,0,.34-1.34C507.36,842.1,499.3,836.73,500.07,827.47Z"/><path class="cls-14" d="M519.15,838.92a.81.81,0,0,1,1.49.35l.06,10.05a1.24,1.24,0,0,1-.26.75c-2.28,3-18.69,2.51-20.23,2.45h0c-1.58.07-19,.78-20.43-2.58a1.12,1.12,0,0,1-.09-.44l-.05-10a.81.81,0,0,1,1.49-.36c.17.28.35.55.55.82,1.54,2.06,4.2,4,8.76,3.94,3.23,0,5.51-3.35,7-7h0a40.88,40.88,0,0,0,1.85-5.72.82.82,0,0,1,1.55,0c.22.83.48,1.75.79,2.71l0,0c1.49,4.57,4.12,9.91,8.22,9.89,4.87,0,7.55-2.21,9-4.44C519,839.19,519.07,839.05,519.15,838.92Z"/><path class="cls-6" d="M481.2,849a.73.73,0,0,1-.68.9l-.76.08a1.12,1.12,0,0,1-.09-.44l-.05-10a.81.81,0,0,1,1.49-.35l.21.32a.67.67,0,0,1-.14.85C479.38,842,480.62,847,481.2,849Z"/><path class="cls-6" d="M500.69,833.36a1.64,1.64,0,0,0-.58.29c-.62.42-1.48-.07-1.28-.75s.34-1.22.48-1.77a.82.82,0,0,1,1.55,0c.11.41.23.86.36,1.31A.76.76,0,0,1,500.69,833.36Z"/><path class="cls-6" d="M519.13,839a.82.82,0,0,1,1.51.32l.06,10.05a1.24,1.24,0,0,1-.26.75l-.84-.23a.7.7,0,0,1-.56-.8c.32-1.78,1.1-6.92,0-9.4a.7.7,0,0,1,0-.63Z"/><path class="cls-15" d="M521.13,850v2.51a.75.75,0,0,1-.55.7,63,63,0,0,1-6.15,1.47c-16.21,3-31.48-.5-34.6-1.3a.73.73,0,0,1-.57-.69l0-2.53a.79.79,0,0,1,1-.7c4.38,1.08,22.31,4.88,39.82-.14A.79.79,0,0,1,521.13,850Z"/><path class="cls-16" d="M514.44,854.7c-16.21,3-31.48-.5-34.6-1.3a.73.73,0,0,1-.57-.69v-.66a.8.8,0,0,1,1.18-.64C484,853.14,495.45,857.61,514.44,854.7Z"/><path class="cls-17" d="M506,853.27h0a5.73,5.73,0,0,1-.45.75,6.56,6.56,0,0,1-5.34,2.65c-3.53,0-6.4-2.55-6.42-5.72a5.44,5.44,0,0,1,1.61-3.85,6.68,6.68,0,0,1,4.74-1.94c3.53,0,6.4,2.55,6.41,5.73a5.16,5.16,0,0,1-.55,2.37Z"/><path class="cls-16" d="M506,853.27l-.45.76a6.56,6.56,0,0,1-5.34,2.65c-3.53,0-6.4-2.55-6.42-5.72a5.27,5.27,0,0,1,.4-2,.83.83,0,0,1,1.52.07C497.49,854.84,506,853.27,506,853.27Z"/><path class="cls-18" d="M667.63,887.13c-.14.25-.29.51-.45.77h0c0,.09-.11.18-.17.27a97.34,97.34,0,0,1-6.36,8.76c-.82,1-1.64,2-2.45,2.87a74.19,74.19,0,0,1-7.61,7.41h0c-.94.78-1.85,1.5-2.73,2.15l-.07.06c-.22.17-.45.33-.68.49l-.12.1A51,51,0,0,1,635,916.51l-.14,0-.33.11-.31.08c-3.45.85-12.55,1.23-19.74,1.38h-.37c-4.43.09-8.08.09-9.12.07a1.82,1.82,0,0,1-.38,0,5.8,5.8,0,0,1-1.07-.31c-3.75-1.4-11-6.48-11.46-6.8h0s0-.93.11-2.51c.18-3.57.59-10.46,1.39-17.53.88-7.82,2.22-15.87,4.24-19.92a4.84,4.84,0,0,1,2.24-2.56h0A31,31,0,0,1,606.2,867c5.75-.81,12.45,0,18.15,5.14v0l0,0a11.39,11.39,0,0,1-1.33-1.52c-2.86-3.9-1.59-7.71.54-10.63.23-.32.47-.63.73-.93h0c.2-.24.4-.47.6-.68h0a24.55,24.55,0,0,1,4.43-3.77s.83.2,2.24.59C641.11,857.76,677.62,869.18,667.63,887.13Z"/><path class="cls-19" d="M617.18,887.49a29.87,29.87,0,0,1-.47,6.48h0A21.05,21.05,0,0,1,611,905.16a23.25,23.25,0,0,1-11.33,6.1,28.9,28.9,0,0,1-3,.55,7,7,0,0,1-4.52-.75h0c-5-2.81-6-12-6-17.39,0-2.41.07-4.08.07-4.08s2.48-19.49,14-21.05h0C611.56,867,616.69,873.16,617.18,887.49Z"/><path class="cls-20" d="M616.51,891A32.09,32.09,0,0,1,611,905.16a21.47,21.47,0,0,1-6.68,4.54l-.12,0a26.17,26.17,0,0,1-4.53,1.51,13.76,13.76,0,0,1-2.67-.44,16.91,16.91,0,0,1-2.6-1c-5.2-2.41-6.91-7.87-7.13-13.42a51.91,51.91,0,0,1,2.33-15.9c4.12-6.72,6.18-9.66,13.16-11,5.37-1.07,11.62,5.45,13.46,13.74A21.54,21.54,0,0,1,616.51,891Z"/><path class="cls-21" d="M595.73,905s-3.56-1.22-1.67-8.28,4.42-5.25,4.42-5.25Z"/><path d="M596.73,891.87s-2.13,1.47-2.73,6.37.7,6.63,2.51,7.07,4,0,4.75-7.17S596.73,891.87,596.73,891.87Z"/><path class="cls-21" d="M608.77,876.07h0a3.72,3.72,0,0,0-2.82-.56c-5.14.58-6.1-.91-6.55,2.1s-3.72,12.64-3.1,13.68c0,0,3.25,6.3,6.42,3h0a4.51,4.51,0,0,0,.39-.45l.1-.13a14.34,14.34,0,0,0,1-1.6l.14-.26c.1-.18.19-.38.29-.57l.12-.24.13-.28a6.11,6.11,0,0,0,.27-.58h0c.08-.2.17-.4.26-.6s.26-.62.38-.93c0-.1.09-.21.13-.31.89-2.23,1.67-4.64,2.27-6.64,0-.17.1-.34.14-.5l.18-.59c0-.09.05-.18.07-.27.13-.45.25-.87.35-1.24l.17-.63a1.94,1.94,0,0,0,0-.2c0-.11.06-.21.08-.3.08-.29.13-.51.17-.65a1.23,1.23,0,0,0,0-.19h0a.48.48,0,0,0,0-.2A1.9,1.9,0,0,0,608.77,876.07Zm-7.42,14.71a1.75,1.75,0,0,1-1.27,1.21c-1.77.45-2.28-1.6-1.83-2.59a4.16,4.16,0,0,1,.25-.52h0c.44-.81,1-1.35,2.06-.65A2.34,2.34,0,0,1,601.35,890.78Zm3.08-10.17h0a4.59,4.59,0,0,1-1.43,4.63c-2,1.67-3.57,1.73-3.49-.41a7.47,7.47,0,0,1,.31-1.73c1.06-3.81,3.48-4.13,3.48-4.13A2.29,2.29,0,0,1,604.43,880.61Z"/><path class="cls-19" d="M670.86,874.94a10.89,10.89,0,0,1-2.4,11.66c-.39.44-.82.87-1.28,1.3-4.11,3.75-8.19,4.41-12,3.11-3.58-1.19-7-4.06-10.06-7.69h0c-9.31-10.94-15.79-28.8-15.79-28.8,4.64-5.39,25.19,1.77,35.86,12.2A22.74,22.74,0,0,1,670.86,874.94Z"/><path class="cls-20" d="M665.14,866.72c6.28,6.13,9.13,13.39,3.32,19.88-22.13,14.75-37.61-30.54-37.61-30.54C632.35,851,653.13,857.52,665.14,866.72Z"/><g class="cls-7"><path class="cls-22" d="M635.53,879.27a12.67,12.67,0,0,1-3.18-1.25,43.55,43.55,0,0,1-8-5.91l0,0a11.39,11.39,0,0,1-1.33-1.52L635.15,879l.37.26h0Z"/><path class="cls-22" d="M636.1,894.79c3.55,2.13,7.7,9.64,8,10.26a64,64,0,0,0-8.29-9.56c1.51,4.45,0,15.5-.94,21.07l-.33.11c.42-5.41,1-16.38.15-23.17a3.82,3.82,0,0,1,.27.32A3.94,3.94,0,0,0,636.1,894.79Z"/><path class="cls-22" d="M660.26,894.86s-14.06-2.48-15.67-7.23C644.59,887.63,649.83,891.82,660.26,894.86Z"/><path class="cls-22" d="M620.1,880.49c3.55,10.4,1.64,18.71-11.18,33.08q-2,2.2-4.27,4.6a5.8,5.8,0,0,1-1.07-.31,48.44,48.44,0,0,0,4.78-4.37C614.51,907.18,624,894.68,620.1,880.49Z"/><path class="cls-22" d="M629.51,902.87c-3.12,6.5-5.2,9.57-8.92,12.07a41.28,41.28,0,0,1-6.07,3.19h-.37a47.91,47.91,0,0,0,4.72-3.31A42.12,42.12,0,0,0,629.51,902.87Z"/></g><path class="cls-3" d="M601.35,890.78a1.75,1.75,0,0,1-1.27,1.21c-1.77.45-2.28-1.6-1.83-2.59a4.16,4.16,0,0,1,.25-.52C598.53,889,599.24,892.92,601.35,890.78Z"/><path class="cls-3" d="M604.43,880.61a4.59,4.59,0,0,1-1.43,4.63c-2,1.67-3.57,1.73-3.49-.41h0S603.34,886.85,604.43,880.61Z"/><path class="cls-3" d="M603.12,893.86l.1-.13a14.34,14.34,0,0,0,1-1.6l.14-.26c.1-.18.19-.38.29-.57l.12-.24.13-.28a6.11,6.11,0,0,0,.27-.58h0c.08-.2.17-.4.26-.6s.26-.62.38-.93a2.88,2.88,0,0,0,.13-.31c.89-2.23,1.67-4.64,2.27-6.64,0-.17.1-.34.14-.5l.18-.59c0-.09.05-.19.07-.27.13-.45.25-.87.35-1.24l.17-.63a1.94,1.94,0,0,0,0-.2c0-.11.06-.21.08-.3.08-.29.13-.51.17-.65s0-.17,0-.17l0,0h0a.48.48,0,0,0,0-.2,1.9,1.9,0,0,0-.64-.88C613.84,879.15,605.23,891.36,603.12,893.86Z"/><path class="cls-3" d="M609,879.12l.17-.63Z"/><path class="cls-3" d="M616.19,883.23a21.54,21.54,0,0,1,.32,7.78A32.09,32.09,0,0,1,611,905.16a23.25,23.25,0,0,1-11.33,6.1,13.76,13.76,0,0,1-2.67-.44S613.81,904.52,616.19,883.23Z"/><path class="cls-3" d="M643.39,909.81,635,916.22l-.38.29-.32.24c-3.45.85-12.55,1.23-19.74,1.38h-.37c-4.43.09-8.08.09-9.12.07a1.82,1.82,0,0,1-.38,0,5.8,5.8,0,0,1-1.07-.31c-3.75-1.4-11-6.48-11.46-6.8a7,7,0,0,0,4.52.75,28.9,28.9,0,0,0,3-.55,23.25,23.25,0,0,0,11.33-6.1A21.05,21.05,0,0,0,616.71,894c.07.28,2.26,9.22-10.74,19.19.79.1,1.59.2,2.39.32l.56.08c3.19.47,6.47,1,10,1.26.57,0,1.14.08,1.72.11a42.9,42.9,0,0,0,14.21-1.68l.64-.19A51.22,51.22,0,0,0,643.39,909.81Z"/><path d="M624.84,858.3c-.17.21-.37.44-.6.68C624.44,858.74,624.64,858.51,624.84,858.3Z"/><path class="cls-3" d="M635.52,879.27,632.35,878a43.55,43.55,0,0,1-8-5.91l0,0a11.39,11.39,0,0,1-1.33-1.52c-2.86-3.9-1.59-7.71.54-10.63-4.6,7.06,9.16,17.32,11.64,19.09Z"/><path class="cls-3" d="M667.17,887.9c0,.09-.11.18-.17.27a97.34,97.34,0,0,1-6.36,8.76c-.82,1-1.64,2-2.45,2.87a74.19,74.19,0,0,1-7.61,7.41c7.64-6.64,7.26-12.15,4.55-16.2C659,892.31,663.06,891.65,667.17,887.9Z"/><path class="cls-2" d="M604.29,909.7l-.12,0a26.17,26.17,0,0,1-4.53,1.51,13.76,13.76,0,0,1-2.67-.44,16.91,16.91,0,0,1-2.6-1,11.1,11.1,0,0,1-5.44-5.54.16.16,0,0,0,0-.08c-.1-.2-.19-.41-.27-.62a21.47,21.47,0,0,1-1.39-7.18,25.65,25.65,0,0,0,1.27,3.62C590.54,904.77,595.26,912.15,604.29,909.7Z"/><path class="cls-3" d="M588.63,903.62a21.47,21.47,0,0,1-1.39-7.18,25.65,25.65,0,0,0,1.27,3.62A13.69,13.69,0,0,0,588.63,903.62Z"/><path class="cls-5" d="M589.22,904.14a3,3,0,0,0,1.06,1.42C590.94,905.91,589.22,904.14,589.22,904.14Z"/></g></g></g></svg>