<svg xmlns="http://www.w3.org/2000/svg" viewBox="0 0 1000 1000"><defs><style>.cls-1{fill:none;}.cls-2,.cls-6{opacity:0.2;}.cls-3{fill:#b72d2d;}.cls-4{fill:#f0f0f0;}.cls-5{opacity:0.1;}.cls-6{fill:#fff;}.cls-7{fill:#00662e;}.cls-8{fill:#00a551;}.cls-9{fill:#09c65e;}.cls-10{fill:#23f97f;}.cls-11{fill:#48e637;}.cls-12{fill:#00c22d;}.cls-13{fill:#b7b7b7;}.cls-14{fill:#d83636;opacity:0.8;}.cls-15{fill:#999;}.cls-16{fill:#7f7f7f;}.cls-17{fill:#666;}</style></defs><g id="Layer_2" data-name="Layer 2"><g id="OutPut"><rect id="BG" class="cls-1" width="1000" height="1000"/></g><g id="Stand"><g id="_8" data-name="8"><path class="cls-2" d="M559.45,935.5c0,5.61-26.39,10.17-59,10.17-8.72,0-17-.33-24.43-.91,5.56,5.55,16.11,18.14-2.74,18.14-24.16,0-23.69-3.93-23.69-3.93l-10.44-18.4,11.16.28c-5.59-1.56-8.81-3.39-8.81-5.35,0-5.61,26.39-10.17,58.95-10.17S559.45,929.89,559.45,935.5Z"/><path class="cls-2" d="M434.27,926s7.11,1.82,3.58,6.09S433.14,948.83,423.4,947a27.46,27.46,0,0,1-14.95-8l11.72-12Z"/><path class="cls-3" d="M535,926.35s.14,6.18-7.93,10.92c-5,2.94-13.19,5.33-26.54,5.33-3.3,0-6.3-.15-9-.41-26-2.53-26.76-15.84-26.76-15.84V739H478.5l52.5,0h2.76l.12,18.82.33,51.71.2,30h0l.33,51.76.2,30Z"/><path class="cls-4" d="M534.94,921.31l-.59.05c-59.21,5.23-68.28-7.63-69.63-12.41a5,5,0,0,1-.22-1.7s.22-20.37.22-52.33c0,35.36,65.64,36.38,70,36.41Z"/><path class="cls-4" d="M534.41,839.56h-.06c-59.21,5.23-68.28-7.63-69.63-12.41v-54c0,34.34,61.9,36.29,69.49,36.4Z"/><path class="cls-4" d="M533.88,757.82c-58.79,5.12-67.81-7.68-69.16-12.45V739l69,0Z"/><path class="cls-5" d="M491.48,942.19c-26-2.53-26.76-15.84-26.76-15.84V739H478.5C478.24,741.84,461.69,926,491.48,942.19Z"/><path class="cls-5" d="M535,926.35s.14,6.18-7.93,10.92c8-8.73,4-198.27,4-198.27h2.76l.12,18.82.33,51.71.2,30h0l.33,51.76.2,30Z"/><path class="cls-6" d="M513,749c6,0,9.67,131,0,131S503.33,749,513,749Z"/><path class="cls-7" d="M464.72,769.09s-.56,3.85,13.06,11.2c15.9,8.58-18.46,6.21-18.46,6.21S458.22,768.5,464.72,769.09Z"/><path class="cls-8" d="M488.36,809S467.72,829.88,470,872.34a133.49,133.49,0,0,0,1.9,16.41s-37.5-11.64-42-37.7a130.34,130.34,0,0,1,6.81-11.88h0c14.13-22.29,40.1-54.08,51.71-60C502.27,772.16,488.36,809,488.36,809Z"/><path class="cls-9" d="M488,804.16s-24,20.75-38,20.75a19.92,19.92,0,0,1-3.37-.27c-11.26-1.87-14.23-13.44-9.26-26.88-5.31-11.73-9.2-23.82-3.48-29.67a12,12,0,0,1,6.64-3.2,17.28,17.28,0,0,1,4.91-.24c10.81,1,16.89,12.58,38.51,14C508.69,780.19,488,804.16,488,804.16Z"/><path class="cls-7" d="M534,769.31s0,1.74-12.92,11c-14.7,10.51,18.46,6.21,18.46,6.21S540.46,768.72,534,769.31Z"/><path class="cls-8" d="M570.17,851.05c-4.54,26.06-42,37.7-42,37.7a131.22,131.22,0,0,0,2.08-23.57C530,827.54,511.64,809,511.64,809s-13.91-36.85,0-29.8c12.89,6.53,43.47,45,55.91,66.92h0C568.55,847.89,569.43,849.53,570.17,851.05Z"/><path class="cls-9" d="M562.57,797.76c3.66,9.9,3,18.79-2.08,23.52-.27.25-.54.49-.83.71l-.21.15-.62.4a12.5,12.5,0,0,1-2.41,1.26h0a17.72,17.72,0,0,1-6.46,1.1c-14,0-38-20.75-38-20.75s-20.65-24,4-25.55c16.31-1,23.78-7.87,31.1-11.6h0c3.76-1.91,7.47-3,12.32-2.11,5.18,1,7.9,3.59,9,7.26h0C570.21,778.62,566.85,788.31,562.57,797.76Z"/><path class="cls-10" d="M511.65,801.52c1,9.91,3.58,15.38-11.65,15.38-16.32,0-12.23-6.28-11.45-17.56.05-.8.09-1.62.1-2.47.2-12.83-4.64-13.23-4.64-19.35s16-5.33,16-5.33,16-.79,16,5.33-4.83,6.52-4.64,19.35C511.38,798.51,511.49,800.06,511.65,801.52Z"/><path class="cls-10" d="M562.57,797.76c3.66,9.9,3,18.79-2.08,23.52,3.48-3.73-8.62-5.45-4.16-19.11,5.34-16.34,2.5-35-9.24-35.16h0c3.76-1.91,7.47-3,12.32-2.11C573.72,767.55,569.28,783,562.57,797.76Z"/><path class="cls-10" d="M446.69,824.64c-11.26-1.87-14.23-13.44-9.26-26.88-6.71-14.81-11.15-30.21,3.16-32.87a17.28,17.28,0,0,1,4.91-.24s-10.62.23-4.19,18.35C447.62,800.75,434.07,820,446.69,824.64Z"/><path class="cls-7" d="M441.3,804.92l-3.87-7.16c-5.31-11.73-9.2-23.82-3.48-29.67C428.71,774.33,441,804.16,441.3,804.92Z"/><path class="cls-7" d="M562.57,797.76l-4.42,9.13c.58-1.43,10-24.53,10.21-34.73C570.21,778.62,566.85,788.31,562.57,797.76Z"/><path class="cls-11" d="M559.45,822.14l-.62.4C559,822.4,559.26,822.29,559.45,822.14Z"/><path class="cls-11" d="M556.42,823.8a25.61,25.61,0,0,0,2.41-1.26A12.5,12.5,0,0,1,556.42,823.8Z"/><path class="cls-7" d="M500,816.9c-16.32,0-12.23-6.28-11.45-17.56,0,0,4.25,13.37,23.1,2.18C512.68,811.43,515.23,816.9,500,816.9Z"/><path class="cls-7" d="M471.87,888.75s-37.5-11.64-42-37.7a130.34,130.34,0,0,1,6.81-11.88h0s-5.23,38.12,33.31,33.17h0A133.49,133.49,0,0,0,471.87,888.75Z"/><path class="cls-7" d="M570.17,851.05c-4.54,26.06-42,37.7-42,37.7a131.22,131.22,0,0,0,2.08-23.57c.43.59,14.44,18.82,37.34-19C568.55,847.89,569.43,849.53,570.17,851.05Z"/><path class="cls-12" d="M434.93,932.07h0c-2.62,4.26-7.52,8.34-8.22,8.9l-.07.07-4.29-3.94-12-11.06-.06-.06a25,25,0,0,1,18.66-4h0a25.37,25.37,0,0,1,3.11.74,7.53,7.53,0,0,1,3.5,2C437.31,926.67,436.56,929.4,434.93,932.07Z"/><path class="cls-4" d="M434.93,932.07a9.06,9.06,0,0,0,.05-4.36c-1.08-4.13-5.38-5.57-6-5.76a25.37,25.37,0,0,1,3.11.74,7.53,7.53,0,0,1,3.5,2C437.31,926.67,436.56,929.4,434.93,932.07Z"/><path class="cls-3" d="M429.52,935.65A9.5,9.5,0,0,1,426.7,941l-.07.07a8.26,8.26,0,0,1-1,.81,9.5,9.5,0,0,1-7.12,1.67l-3.9-.64a9.58,9.58,0,0,1-7.9-10.76,1.46,1.46,0,0,1,0-.22,9.44,9.44,0,0,1,1-3,8.53,8.53,0,0,1,2.52-2.86,9.32,9.32,0,0,1,10.32-.37,35,35,0,0,1,6.42,4.87C428.68,932.2,429.79,934,429.52,935.65Z"/><path class="cls-2" d="M434.93,932.07h0c-2.62,4.26-7.52,8.34-8.22,8.9l-.07.07a8.26,8.26,0,0,1-1,.81,9.5,9.5,0,0,1-7.12,1.67l-3.9-.64a9.58,9.58,0,0,1-7.9-10.76c7.74,5.07,12.57,6,15.61,5s4.15-3.83,4.71-6.56c5.05,1.38,7.1-.76,7.93-2.83a8.25,8.25,0,0,0,.57-3h0C437.31,926.67,436.56,929.4,434.93,932.07Z"/><path class="cls-6" d="M423.79,922.74s-11.32-.64-13.69,6.5C414.31,927.75,424.37,926,423.79,922.74Z"/><path class="cls-12" d="M439,943.85h0c2.42,5.91,7.76,12.09,8.52,12.94l.08.1,6.24-4.08,17.48-11.45.09-.06a32,32,0,0,0-22.71-9h0a32.36,32.36,0,0,0-4.08.29,9.55,9.55,0,0,0-4.83,1.78C437.16,936.54,437.53,940.14,439,943.85Z"/><path class="cls-4" d="M439,943.85a11.37,11.37,0,0,1,.84-5.51c2.22-5,7.95-5.91,8.82-6a32.36,32.36,0,0,0-4.08.29,9.55,9.55,0,0,0-4.83,1.78C437.16,936.54,437.53,940.14,439,943.85Z"/><path class="cls-3" d="M445.12,949.5a12.14,12.14,0,0,0,2.44,7.3l.08.1a11.5,11.5,0,0,0,1.07,1.23,12.19,12.19,0,0,0,8.63,3.59h5.06a12.25,12.25,0,0,0,12.21-11.93,2.81,2.81,0,0,0,0-.29,12,12,0,0,0-.68-4,10.9,10.9,0,0,0-2.58-4.13,11.93,11.93,0,0,0-12.95-2.62,45.1,45.1,0,0,0-9.11,4.81C446.89,945.32,445.12,947.34,445.12,949.5Z"/><path class="cls-2" d="M439,943.85h0c2.42,5.91,7.76,12.09,8.52,12.94l.08.1a11.5,11.5,0,0,0,1.07,1.23,12.19,12.19,0,0,0,8.63,3.59h5.06a12.25,12.25,0,0,0,12.21-11.93c-10.82,4.78-17.12,5-20.73,3s-4.45-5.69-4.58-9.26c-6.66.7-8.8-2.43-9.42-5.22a10.64,10.64,0,0,1-.09-3.93h0C437.16,936.54,437.53,940.14,439,943.85Z"/><path class="cls-6" d="M455,934.4s14.42,1.54,15.92,11C466,942.69,453.62,938.43,455,934.4Z"/><path class="cls-2" d="M543.89,969.61s23.12.69,26.28-12.17,30.13-14,30.13-14l1.34,11.14s15.69,5,27.53,1.93,12.94-23.42-6.41-28.66-50.44,4.54-50.44,4.54l-20.49,9.05-4.16,17Z"/><polyline class="cls-1" points="631.38 937.22 631.37 935.75 631.37 935.69"/><path class="cls-13" d="M629.74,940.15a13.05,13.05,0,0,1-1.26,1.1c-13.68,10.21-29.59,8.4-28.9,3.91v0a2.14,2.14,0,0,1,.32-.84c3-5.09-.52-15.94-19.58-9.16s-24.91,22.35-24.91,22.35,5.2,2.24,4.86,6.77h0a7.94,7.94,0,0,0-.16,1.06l-30.89,3.38a68.26,68.26,0,0,1,4.79-7.24c.43-.57.89-1.17,1.35-1.79,6.78-8.68,19.13-21.32,37-27.25C593.66,925.34,622.54,931.86,629.74,940.15Z"/><path class="cls-13" d="M631.45,944v.14c0,1.55-1,3.13-3,4.61a34.61,34.61,0,0,1-12.77,5.92c-9.8,2.29-18.24-.2-17.88-3.45l.21-.67,1.25-4.39.29-1c-.45,2.91,6.11,4.7,14.5,2.79a38.09,38.09,0,0,0,14.4-6.71,10.79,10.79,0,0,0,1.26-1.1,5.5,5.5,0,0,0,1.64-2.93Z"/><line class="cls-1" x1="599.58" y1="945.16" x2="599.58" y2="945.14"/><path class="cls-13" d="M600.84,940.57h0a7.25,7.25,0,0,1-.94,3.72,2.14,2.14,0,0,0-.32.84,5.38,5.38,0,0,0-.32-1.81c-.75-2-2.79-3.37-6.76-3.37a34,34,0,0,0-10,1.91c-.7.22-1.42.46-2.17.73a33.93,33.93,0,0,0-10.73,6,27.9,27.9,0,0,0-7.32,9.47,25.2,25.2,0,0,0-2,6.17c.34-4.53-4.86-6.77-4.86-6.77a29,29,0,0,1,1.67-3.36c.56-1,1.26-2.08,2.12-3.3.14-.17.27-.35.41-.54s.26-.37.42-.56c.7-.9,1.48-1.85,2.38-2.83.24-.26.48-.53.77-.8s.54-.56.84-.85l.22-.22c.26-.24.54-.52.84-.77s.68-.63,1-.94a.61.61,0,0,1,.14-.11c.49-.43,1-.85,1.55-1.26.24-.2.5-.39.76-.58s.54-.4.82-.59a3.13,3.13,0,0,1,.52-.35c.45-.32.89-.61,1.35-.89.12-.08.24-.17.38-.25.52-.32,1.08-.65,1.64-1,.18-.09.34-.19.53-.3l.84-.42.46-.23A9,9,0,0,1,576,937c.38-.19.78-.37,1.18-.55l.18-.08,1-.42h0l1.26-.49.66-.26c6.36-2.26,11-2.56,14.24-1.76C599,934.47,600.78,937.61,600.84,940.57Z"/><path class="cls-4" d="M631.38,937.21a5.5,5.5,0,0,1-1.64,2.93,10.79,10.79,0,0,1-1.26,1.1,38.09,38.09,0,0,1-14.4,6.71c-8.39,1.91-15,.12-14.5-2.79v0a2.13,2.13,0,0,1,.32-.85,6.09,6.09,0,0,0,.4-.81,7,7,0,0,0,.3-.88c0-.15.07-.3.1-.46a6.86,6.86,0,0,0,.12-.91c0-.21,0-.42,0-.63v0a1.62,1.62,0,0,0,0-.22,2.09,2.09,0,0,0,0-.25h0V940s0,0,0-.06h0c0-.11,0-.21,0-.32s0-.07,0-.1v0s0-.05,0-.07v0s0-.12,0-.18a1.3,1.3,0,0,1,0-.21.36.36,0,0,1,0-.1l0-.12c0-.11-.06-.22-.1-.33a.88.88,0,0,0,0-.15v0a1.58,1.58,0,0,0-.13-.34,1.4,1.4,0,0,0-.15-.33.49.49,0,0,0-.1-.22.19.19,0,0,0,0-.1h0a.82.82,0,0,0-.09-.19l-.1-.14-.15-.23a.72.72,0,0,0-.13-.19.36.36,0,0,0-.07-.1.83.83,0,0,0-.11-.15s0,0,0,0l-.13-.14v0l0,0,0,0c-.16-.17-.32-.34-.51-.52h0l-.07-.07,0,0,0,0-.12-.1a1.57,1.57,0,0,0-.25-.2l-.13-.1a2.25,2.25,0,0,0-.36-.24,1.69,1.69,0,0,0-.31-.21l0,0a2.56,2.56,0,0,0-.4-.22l-.12-.07-.06,0-.19-.1-.23-.11-.08,0h0l-.15-.06-.09,0-.36-.14-.14,0-.28-.09c-.17,0-.36-.11-.55-.15h-.08l-.34-.08h0l-.12,0-.24,0-.16,0-.58-.07h-.13l-.15,0-.51,0h-.6a15.75,15.75,0,0,0-2.15,0,7.06,7.06,0,0,0-.78.07,6.31,6.31,0,0,0-.83.11c-.53.06-1.09.15-1.67.27l-1.36.29c-.93.23-1.91.5-2.94.83-.51.16-1,.35-1.58.53l-.66.27a4.19,4.19,0,0,0-.46.16l-.06,0-.74.29s0,0,0,0a1,1,0,0,0-.16.06.42.42,0,0,0-.14.06,1.78,1.78,0,0,0-.29.12l-.41.17-.19.09a5.05,5.05,0,0,0-.59.26L576,937l-.45.2a3.55,3.55,0,0,0-.43.23,1.34,1.34,0,0,0-.24.12l-.44.21-.14.08-.12.05-.73.41-.09,0-.06,0c-.08,0-.15.08-.23.14-.24.12-.48.26-.72.4l0,0-.19.12-.47.28c-.14.08-.26.17-.39.24l-.3.2c-.23.14-.44.28-.65.43l-.39.28a2,2,0,0,0-.26.16h0l-.23.15,0,0-.29.2-.52.37h0l-.05,0,0,0-.1.06-.59.46c-.27.2-.54.4-.79.62l-.32.26c-.05,0-.11.09-.15.14l-.29.24-.08.06s0,0-.06.05c-.23.2-.47.41-.68.61l-.36.33-.3.27-.14.12-.4.38a2.44,2.44,0,0,0-.23.22l-.43.44-.41.41q-.4.4-.75.81a34,34,0,0,0-2.39,2.83h0c-.11.13-.2.25-.29.37l-.34.44a2.75,2.75,0,0,1-.19.28,6.82,6.82,0,0,0-.4.59l-.14.19-.13.2c-.27.4-.52.77-.75,1.14s-.31.49-.44.72l-.27.45c-.22.38-.41.74-.59,1.06l-.22.42a1.11,1.11,0,0,0-.07.16c-.09.17-.17.33-.23.47s0,.08-.06.11c-.24.52-.39.88-.46,1l0,.06,0,0-16.6,3.08-4.79.9-6,1.11,0-.08.07-.11.07-.11a4.71,4.71,0,0,1,.28-.48c.5-.82,1.42-2.28,2.75-4.19l.12-.16.07-.11s.05-.08.08-.11a96.88,96.88,0,0,1,21.74-22.3h0a0,0,0,0,0,0,0,.16.16,0,0,1,.08,0A72.7,72.7,0,0,1,568,926.58c1.4-.57,2.84-1.12,4.31-1.61a57,57,0,0,1,10.19-2.33,81.37,81.37,0,0,1,28.14,1.26h0a56.09,56.09,0,0,1,13,4.44A19.08,19.08,0,0,1,630,933a6,6,0,0,1,1.38,2.76A3.59,3.59,0,0,1,631.38,937.21Z"/><path class="cls-14" d="M560.27,964.25c.34-4.52-4.86-6.76-4.86-6.76L543.86,964l-4.59-1.15L534,961.47l-3.75,2.45L528,962.58l0-.08.07-.11.42-.65,2.68-4.13.12-.16.07-.11,0-.09,0,0c.38-.07,3.17-.54,6.8-1.12.1,0,.2,0,.3-.06,6.69-1,16-2.36,18.48-1.92h0a7.07,7.07,0,0,1,5.17,4A25.29,25.29,0,0,0,560.27,964.25Z"/><path class="cls-14" d="M582.49,941.87c-.7.21-1.43.46-2.17.73a33.58,33.58,0,0,0-10.72,6s-3.86-1.35-5.59-3.38c-.89-1.07-4.42-3.2-7.26-5.31a20,20,0,0,1-3.06-2.67c-.81-.95-1.08-1.77-.45-2.34h0a0,0,0,0,0,0,0,.16.16,0,0,1,.08,0A72.7,72.7,0,0,1,568,926.58s.86.5,2.12,1.28c1.54.93,3.67,2.27,5.53,3.59,2.27,1.61,4.12,3.18,4,3.93v0C581.6,938,582.65,941.05,582.49,941.87Z"/><path class="cls-14" d="M630,933a21,21,0,0,1-3.9,2.26c-.56.26-1.18.54-1.87.82-4.59,1.88-12.13,4-23.37,4.5v0a11.08,11.08,0,0,1-1.59,2.73c-.73-2-2.78-3.37-6.76-3.37,0,0,.77-5.8,2.07-6.58.63-.36,1.38-2,3.37-3.8,2.2-2.05,5.92-4.39,12.72-5.68h0a56.09,56.09,0,0,1,13,4.44A19.08,19.08,0,0,1,630,933Z"/><path class="cls-3" d="M560.27,964.25v0a5.15,5.15,0,0,1-.16,1.05c-.63,2.5-7.53,3.74-14.67,4.2l-.29,0-1.26.06c-7.33.36-14.43-.11-14.67-.9-.4-1.28-1.9-4.21-1.2-6.13l0-.08.07-.11c.08-.13.19-.34.35-.59l.07-.06a2.23,2.23,0,0,1,.67-.49,30.73,30.73,0,0,1,6.14-1.57c.93-.17,1.93-.36,3-.53,6.42-1.07,14.22-1.94,17.08-1.66C555.41,957.49,560.61,959.73,560.27,964.25Z"/><path class="cls-5" d="M582.51,922.64s-5.38,1.89-12.38,5.22a113.43,113.43,0,0,0-16.44,9.41c-7.31,5.16-13.54,11.44-15,18.41a2.45,2.45,0,0,0-.08.37,14.6,14.6,0,0,0-.27,3.1,10.79,10.79,0,0,1,.48,1.42,18,18,0,0,1,.46,2.23,20,20,0,0,0,1,4.7c.57,1.25,1.59,2.07,3.65,2.11-7.33.36-14.43-.11-14.67-.9-.4-1.28-1.9-4.21-1.2-6.13l0-.08.07-.11c.08-.13.19-.34.35-.59.5-.82,1.42-2.28,2.75-4.19l.12-.16.07-.11,0-.09,0,0a96.88,96.88,0,0,1,21.74-22.3h0a0,0,0,0,0,0,0,.16.16,0,0,1,.08,0A72.7,72.7,0,0,1,568,926.58c1.4-.57,2.84-1.12,4.31-1.61A57,57,0,0,1,582.51,922.64Z"/><path class="cls-5" d="M631.45,944v.14c0,1.55-1,3.13-3,4.61a34.61,34.61,0,0,1-12.77,5.92s-1.63-1.72-1.63-6.67c8.29-3.19,11.22-7.27,11.87-10.89a10.29,10.29,0,0,0,.13-1.81,12.53,12.53,0,0,0-2.4-6.91A19.08,19.08,0,0,1,630,933a6,6,0,0,1,1.38,2.76,3.59,3.59,0,0,1,0,1.46Z"/></g><g id="STD"><path class="cls-15" d="M548.39,703.56,541,716.25h0l-2.09,3.61a38.24,38.24,0,0,0-5.17,19.21h-69c0-.85,0-1.69-.08-2.53,0-.23,0-.46-.05-.68,0-.55-.09-1.1-.15-1.64,0-.31-.08-.63-.13-.94s0-.34-.07-.51c0-.38-.12-.75-.18-1.13s-.17-.9-.27-1.34c-.05-.24-.1-.47-.16-.7s-.08-.36-.12-.53a41.67,41.67,0,0,0-3.56-9.43l-8.38-16.08a57.93,57.93,0,0,0,7.28,8.6l.24.22,0,0a5.21,5.21,0,0,0,.89.61,4.44,4.44,0,0,0,.49.24l.51.18.39.11a8.12,8.12,0,0,0,1.69.2,10.84,10.84,0,0,0,1.65-.1,2.56,2.56,0,0,1,2.83,2.16,15.09,15.09,0,0,0,1.32,4.15,62.89,62.89,0,0,0,16.76,7.16,25.7,25.7,0,0,0,4.74-.42h0a14.8,14.8,0,0,0,3.45-1.05,7.89,7.89,0,0,1,6.76.15,24.53,24.53,0,0,0,8.1,1.86h0c1.17-.24,2.39-.51,3.68-.84h0a69.5,69.5,0,0,0,21.78-9.44,15.21,15.21,0,0,0,1.25-4.14,2.3,2.3,0,0,1,2.63-2,9,9,0,0,0,3.9-.19c.5-.49,1-1,1.49-1.52a.19.19,0,0,0,.06-.07A51.09,51.09,0,0,0,548.39,703.56Z"/><path class="cls-16" d="M541,716.25l-2.09,3.61a38.24,38.24,0,0,0-5.17,19.21h-69c0-.85,0-1.69-.08-2.53,0-.23,0-.46-.05-.68,0-.55-.09-1.1-.15-1.64,0-.31-.08-.63-.13-.94s0-.34-.07-.51c0-.38-.12-.75-.18-1.13s-.17-.9-.27-1.34c-.05-.24-.1-.47-.16-.7s-.08-.36-.12-.53a41.67,41.67,0,0,0-3.56-9.43l-8.38-16.08a57.93,57.93,0,0,0,7.28,8.6l.24.22,0,0a5.21,5.21,0,0,0,.89.61,4.44,4.44,0,0,0,.49.24l.51.18.39.11a8.12,8.12,0,0,0,1.69.2s2.36,4.68,4.71,8.79c1.55,2.72,3.1,5.18,4,5.9s4.72.61,9.75.47l3.16-.07c2.16,0,4.47,0,6.83.06a51.39,51.39,0,0,1,12.84,1.93c1.68.52,3.09,1,4.3,1.54,4.47,1.85,6.22,3.48,8.49,4.42,1.73.71,3.77,1,7.54.71C534.8,736.67,532.75,718.58,541,716.25Z"/><path class="cls-17" d="M518.59,739.07H464.72a62.36,62.36,0,0,0-1.05-9.47c0-.19-.08-.36-.12-.53a41.67,41.67,0,0,0-3.56-9.43l-8.38-16.08a57.93,57.93,0,0,0,7.28,8.6l.24.22,0,0a94.61,94.61,0,0,1,7.54,9.31c1.34,2,2.2,3.82,1.76,4.61-1.33,2.42,5.09,8.75,13.92,7s16.67-1.91,24.33.92c1.36.5,2.83,1.07,4.32,1.67,1.31.52,2.64,1.07,3.94,1.61Z"/></g></g></g></svg>