<svg xmlns="http://www.w3.org/2000/svg" viewBox="0 0 1000 1000"><defs><style>.cls-1{fill:none;}.cls-15,.cls-2{opacity:0.2;}.cls-3{fill:#010006;}.cls-4{fill:#5b5d69;}.cls-5{fill:#7f8ba1;}.cls-6{fill:#1b212d;}.cls-7{fill:#000004;}.cls-8{fill:#041112;}.cls-9{fill:#e1ba54;}.cls-10{fill:#eaab4d;}.cls-11{fill:#f0c555;}.cls-12{fill:#ef4545;}.cls-13,.cls-15{fill:#ededed;}.cls-13,.cls-16{opacity:0.5;}.cls-14{opacity:0.1;}.cls-16{fill:#eab883;}.cls-17{fill:#ff9d00;}.cls-18{fill:#ffd400;}.cls-19{fill:#efcece;}.cls-20{fill:#c6acac;}.cls-21{fill:#ffdede;}.cls-22{fill:#999;}.cls-23{fill:#7f7f7f;}.cls-24{fill:#666;}</style></defs><g id="Layer_2" data-name="Layer 2"><g id="OutPut"><rect id="BG" class="cls-1" width="1000" height="1000"/></g><g id="Stand"><g id="_0" data-name="0"><path class="cls-2" d="M556.5,971.71c0,4.21-26.3,7.62-58.75,7.62-25,0-46.41-2-54.87-4.89-1,.94-4.73,1.64-9.13,1.64-5.2,0-9.42-1-9.42-2.19s4.22-2.18,9.42-2.18a33.58,33.58,0,0,1,5.33.39,1.09,1.09,0,0,1-.08-.39c0-4.21,26.3-7.63,58.75-7.63S556.5,967.5,556.5,971.71Z"/><path class="cls-3" d="M442.84,747v16.67H395.5s-4.06-.84-5.28-10.59c-.08-.57-.14-1.17-.19-1.8h0c-.1-1.28-.16-2.7-.16-4.27Z"/><path class="cls-4" d="M466.12,770.06v25.51l-15.79-23.9.78-4.22-12.24-1.23s-6-.71-6-10.76a43.93,43.93,0,0,1,.46-8.06c.89-4.32,3.47-3.94,10.54-3.94C453.87,743.46,466.12,770.06,466.12,770.06Z"/><polygon class="cls-5" points="499.62 920.45 499.62 959.83 489.68 959.83 489.68 920.12 492.7 916.97 499.62 920.45"/><path class="cls-6" d="M483.79,903.63v15.3s.91,1.52,15.83,1.52V898.68Z"/><polygon class="cls-7" points="482.2 892.1 482.2 902.75 499.62 912.47 499.62 892.55 485.95 890.51 482.2 892.1"/><polygon class="cls-8" points="480.06 888.05 478.2 889.91 482.2 892.1 499.62 892.55 499.62 890.5 480.06 888.05"/><path class="cls-3" d="M466.71,782.69s-4.8-3.9-9.37-4.15c-6.65-.37-14.33,2.3-18.72-2.81-.69-.8-1.38,1.08-.8,2.17,4.28,8,17.38-.42,22.74,10.34,1.64,3.3,8-.16,8-.16Z"/><polygon class="cls-9" points="499.62 837.07 499.62 881.84 480.87 881.84 480.87 841.49 499.62 837.07"/><path class="cls-10" d="M499.62,881.84v8.66s-1.16,0-2.93,0c-4.34,0-12.33-.39-15.82-2-4.91-2.23,0-9.13,0-8,0,.39,2.1.67,4.89.86C491.32,881.79,499.62,881.84,499.62,881.84Z"/><path class="cls-11" d="M499.62,738.85v108H479.29q0-3.35-.15-6.24c-1.05-20.83-7.47-25-12.27-25.26-5.25-.25-3.75-43.36-8.69-45.2S456.87,768,456.87,743c8.5-2.75,7.84-4.11,7.84-4.11Z"/><path class="cls-3" d="M606.37,747c0,1.57-.06,3-.16,4.28v0c-.92,11.42-5.46,12.36-5.46,12.36H553.4V747Z"/><path class="cls-4" d="M563.35,755.46c0,10-6,10.76-6,10.76l-3.47.35-23.78,29V770.06s12.25-26.6,22.23-26.6c2.21,0,4,0,5.4,0h0C562.73,743.79,563.35,745.54,563.35,755.46Z"/><polygon class="cls-5" points="509.56 920.12 509.56 959.83 499.62 959.83 499.62 920.45 506.54 916.97 507.73 918.21 509.56 920.12"/><path class="cls-6" d="M515.45,903.63v15.3s-.45.75-5.89,1.2c-1.33.11-3,.2-5,.25-1.45,0-3.1.07-5,.07V898.68Z"/><polygon class="cls-7" points="517.04 892.1 517.04 902.75 499.62 912.47 499.62 892.55 513.29 890.51 517.04 892.1"/><polygon class="cls-8" points="519.18 888.05 521.04 889.91 517.04 892.1 499.62 892.55 499.62 890.5 519.18 888.05"/><polygon class="cls-9" points="518.37 841.49 518.37 881.84 499.62 881.84 499.62 837.07 518.37 841.49"/><path class="cls-10" d="M499.62,881.84s18.75-.12,18.75-1.29,4.91,5.74,0,8-18.75,2-18.75,2Z"/><path class="cls-11" d="M541.06,770.12c-4.94,1.84-3.44,45-8.69,45.2a8.26,8.26,0,0,0-3.18.79c-4.56,2.17-9.24,9.51-9.24,30.71H499.62v-108h34.14s.11,1.36,8.61,4.11C542.37,768,546,768.27,541.06,770.12Z"/><path class="cls-12" d="M523.79,766.75a6.83,6.83,0,0,1-6.82,6.82h-34.7a6.82,6.82,0,1,1,0-13.64H517a6.83,6.83,0,0,1,6.82,6.82Z"/><path class="cls-13" d="M512.73,849.5s4.39,20.19,1,29.43Z"/><path class="cls-13" d="M515.45,882.84s1.88,2.45.69,4.56Z"/><path class="cls-14" d="M498.31,846.82h-19c0-26.25-7.17-31.25-12.42-31.5s-3.75-43.36-8.69-45.2S456.87,768,456.87,743c8.5-2.75,7.84-4.11,7.84-4.11h14.77S450.61,800.14,498.31,846.82Z"/><path class="cls-15" d="M541.06,770.12c-4.94,1.84-3.44,45-8.69,45.2a8.26,8.26,0,0,0-3.18.79c14.86-32.72-2.72-77.26-2.72-77.26h7.29s.11,1.36,8.61,4.11C542.37,768,546,768.27,541.06,770.12Z"/><path class="cls-14" d="M501.58,773.57H482.27a6.82,6.82,0,1,1,0-13.64h3.65S476.62,773.57,501.58,773.57Z"/><path class="cls-14" d="M451.11,767.45l-12.24-1.23s-6-.71-6-10.76a43.93,43.93,0,0,1,.46-8.06S434.28,765.45,451.11,767.45Z"/><path class="cls-14" d="M563.35,755.46c0,10-6,10.76-6,10.76l-3.47.35C565.74,762,558,744,557.75,743.51,562.73,743.79,563.35,745.54,563.35,755.46Z"/><path class="cls-15" d="M416.5,763.63h-21s-4.06-.84-5.28-10.59C391.05,756,394.58,761.6,416.5,763.63Z"/><path class="cls-15" d="M606.2,751.27c-.92,11.42-5.46,12.36-5.46,12.36H579.88C602.92,761.9,606,751.89,606.2,751.27Z"/><path class="cls-14" d="M485.76,881.4h0c-2.79-.19-4.89-.47-4.89-.86V846.82h17.44S482.1,855.22,485.76,881.4Z"/><path class="cls-14" d="M496.69,890.49c-4.34,0-12.33-.39-15.82-2-4.91-2.23,0-9.13,0-8,0,.39,2.1.67,4.89.86C485.76,881.41,480.46,889.36,496.69,890.49Z"/><path class="cls-16" d="M515.45,912.9v6s-.45.75-5.89,1.2v39.7H495.75a10.31,10.31,0,0,0,3.87-2.43c9.52-9.35,5-37,5-37l3.14-2.17Z"/><path class="cls-17" d="M517,937.62s-.9,3.85-5,10.46c-.33.54-.68,1.09-1.06,1.67,0-5,5.73-11.77,6-12.11Z"/><path class="cls-17" d="M499,953.36c-.08-.13-.55-.88-1.16-2l0-.08c-1.48-2.77-3.72-7.69-3.14-11.27l0-.17C495.56,935.27,498.86,952.65,499,953.36Z"/><path class="cls-17" d="M506.38,953.39c-.33,1.89-.77,4.12-.86,4.54l.08-.55s-.44-1.61.63-5.35c0-.17.09-.35.15-.53C507,949.38,506.77,951.16,506.38,953.39Z"/><polygon class="cls-17" points="488.54 959.03 488.19 957.5 490.69 958.56 496.78 956.75 503.63 958.69 511.25 956.75 510.26 959.24 508.25 962.88 490.38 963.38 487.25 961.75 488.54 959.03"/><polygon class="cls-18" points="489.54 959.38 489.54 958.71 491.92 959.04 496.78 957.54 504.13 959.25 509.54 958.25 507.88 959.83 505.51 960.96 496.38 961.33 492.13 960.96 489.68 960.06 489.54 959.38"/><polygon class="cls-19" points="496.69 978.17 470.33 972.83 452 975.5 444.67 965 450.67 956.17 463.33 941.5 474.83 949.33 489.68 959.83 498.31 958.5 509.56 959.83 521.04 950.17 531.83 954.33 546 958.67 545 968.17 523.5 974 496.69 978.17"/><polygon class="cls-20" points="463.33 941.5 470.58 962.92 489.68 959.83 463.33 941.5"/><polyline class="cls-20" points="470.33 972.83 444.67 965 470.58 962.92"/><polyline class="cls-20" points="489.68 959.83 496.69 978.17 509.56 959.83 523.5 974 546 958.67"/><polygon class="cls-20" points="530.52 947.4 526.39 948.58 522.27 947.4 526.77 944.69 530.52 947.4"/><polygon class="cls-21" points="527.94 941.5 526.77 944.69 522.27 947.4 527.94 941.5"/><polygon class="cls-19" points="532.56 945.95 530.52 947.4 526.77 944.69 527.94 941.5 532.56 945.95"/><polygon class="cls-20" points="474.53 927.75 476.46 935.55 473.98 943.17 469.22 934.58 474.53 927.75"/><polygon class="cls-21" points="463.33 932.18 469.22 934.58 473.98 943.17 463.33 932.18"/><polygon class="cls-19" points="471.96 923.84 474.53 927.75 469.22 934.58 463.33 932.18 471.96 923.84"/><polygon class="cls-20" points="428 970.39 430.2 966.27 434.24 963.95 432.95 969.51 428 970.39"/><polygon class="cls-21" points="434.56 972.83 432.95 969.51 434.24 963.95 434.56 972.83"/><polygon class="cls-19" points="427.59 973.08 428 970.39 432.95 969.51 434.56 972.83 427.59 973.08"/><polygon class="cls-20" points="438.24 974.65 433.6 975.12 429.41 973.08 434.74 971.03 438.24 974.65"/><polygon class="cls-21" points="436.6 967.84 434.74 971.03 429.41 973.08 436.6 967.84"/><polygon class="cls-19" points="440.7 973.49 438.24 974.65 434.74 971.03 436.6 967.84 440.7 973.49"/><path class="cls-18" d="M497.79,951.27c-1.48-2.77-3.72-7.69-3.14-11.27l0-.17S495.77,947.1,497.79,951.27Z"/><path class="cls-18" d="M517,937.62s-.9,3.85-5,10.46c.24-2,4.69-9.94,5-10.44Z"/><path class="cls-18" d="M506.38,953.39c-.06-.49-.11-.94-.15-1.36,0-.17.09-.35.15-.53C507,949.38,506.77,951.16,506.38,953.39Z"/></g><g id="STD"><path class="cls-22" d="M548.39,703.56,541,716.25h0l-2.09,3.61a38.24,38.24,0,0,0-5.17,19.21h-69c0-.85,0-1.69-.08-2.53,0-.23,0-.46-.05-.68,0-.55-.09-1.1-.15-1.64,0-.31-.08-.63-.13-.94s0-.34-.07-.51c0-.38-.12-.75-.18-1.13s-.17-.9-.27-1.34c-.05-.24-.1-.47-.16-.7s-.08-.36-.12-.53a41.67,41.67,0,0,0-3.56-9.43l-8.38-16.08a57.93,57.93,0,0,0,7.28,8.6l.24.22,0,0a5.21,5.21,0,0,0,.89.61,4.44,4.44,0,0,0,.49.24l.51.18.39.11a8.12,8.12,0,0,0,1.69.2,10.84,10.84,0,0,0,1.65-.1,2.56,2.56,0,0,1,2.83,2.16,15.09,15.09,0,0,0,1.32,4.15,62.89,62.89,0,0,0,16.76,7.16,25.7,25.7,0,0,0,4.74-.42h0a14.8,14.8,0,0,0,3.45-1.05,7.89,7.89,0,0,1,6.76.15,24.53,24.53,0,0,0,8.1,1.86h0c1.17-.24,2.39-.51,3.68-.84h0a69.5,69.5,0,0,0,21.78-9.44,15.21,15.21,0,0,0,1.25-4.14,2.3,2.3,0,0,1,2.63-2,9,9,0,0,0,3.9-.19c.5-.49,1-1,1.49-1.52a.19.19,0,0,0,.06-.07A51.09,51.09,0,0,0,548.39,703.56Z"/><path class="cls-23" d="M541,716.25l-2.09,3.61a38.24,38.24,0,0,0-5.17,19.21h-69c0-.85,0-1.69-.08-2.53,0-.23,0-.46-.05-.68,0-.55-.09-1.1-.15-1.64,0-.31-.08-.63-.13-.94s0-.34-.07-.51c0-.38-.12-.75-.18-1.13s-.17-.9-.27-1.34c-.05-.24-.1-.47-.16-.7s-.08-.36-.12-.53a41.67,41.67,0,0,0-3.56-9.43l-8.38-16.08a57.93,57.93,0,0,0,7.28,8.6l.24.22,0,0a5.21,5.21,0,0,0,.89.61,4.44,4.44,0,0,0,.49.24l.51.18.39.11a8.12,8.12,0,0,0,1.69.2s2.36,4.68,4.71,8.79c1.55,2.72,3.1,5.18,4,5.9s4.72.61,9.75.47l3.16-.07c2.16,0,4.47,0,6.83.06a51.39,51.39,0,0,1,12.84,1.93c1.68.52,3.09,1,4.3,1.54,4.47,1.85,6.22,3.48,8.49,4.42,1.73.71,3.77,1,7.54.71C534.8,736.67,532.75,718.58,541,716.25Z"/><path class="cls-24" d="M518.59,739.07H464.72a62.36,62.36,0,0,0-1.05-9.47c0-.19-.08-.36-.12-.53a41.67,41.67,0,0,0-3.56-9.43l-8.38-16.08a57.93,57.93,0,0,0,7.28,8.6l.24.22,0,0a94.61,94.61,0,0,1,7.54,9.31c1.34,2,2.2,3.82,1.76,4.61-1.33,2.42,5.09,8.75,13.92,7s16.67-1.91,24.33.92c1.36.5,2.83,1.07,4.32,1.67,1.31.52,2.64,1.07,3.94,1.61Z"/></g></g></g></svg>