<svg xmlns="http://www.w3.org/2000/svg" viewBox="0 0 1000 1000"><defs><style>.cls-1{fill:none;}.cls-2,.cls-8,.cls-9{opacity:0.2;}.cls-3{fill:#c8c8c8;}.cls-4{fill:#61dde0;}.cls-4,.cls-5{opacity:0.9;}.cls-5{fill:#3a7e89;}.cls-10,.cls-6,.cls-9{fill:#e9e9e9;}.cls-6{opacity:0.3;}.cls-7{fill:#1e1e1e;}.cls-8{fill:#fff;}.cls-11{fill:#ff4856;}.cls-12{fill:#b5b5b5;}.cls-13,.cls-14{opacity:0.5;}</style></defs><g id="Layer_2" data-name="Layer 2"><g id="OutPut"><rect id="BG" class="cls-1" width="1000" height="1000"/></g><g id="Stand"><g id="_2" data-name="2"><ellipse class="cls-2" cx="500.6" cy="953.83" rx="14.4" ry="2.17"/><ellipse class="cls-2" cx="559.93" cy="940.17" rx="27.14" ry="4.08"/><path class="cls-3" d="M506,844.24a9.5,9.5,0,0,1-.7,3.5,5.41,5.41,0,0,1-5.38,3.51c-3.61,0-5-2.55-5.58-4.7a11.17,11.17,0,0,1-.34-2.92V738.25a9.68,9.68,0,0,1,1.64-5.68,5.16,5.16,0,0,1,4.28-2c6.25,0,6.08,7,6.08,7Z"/><path class="cls-4" d="M527,860.88a16.33,16.33,0,0,0-6.71,1.56c-5.33,2.59-11.4,1.22-17.6-.32l-2.24-.44a28.68,28.68,0,0,0-9.38-.31c-3.32.44-7.26.93-7.82.75l-11.14-1.54s-5.4,59.8,27.1,61.8C531.51,924.37,527.11,861.81,527,860.88Zm-42.81,5.31a1.33,1.33,0,1,1-1.33,1.33A1.32,1.32,0,0,1,484.23,866.19Zm-1.71,41.21a1.34,1.34,0,1,1,1.33,1.33A1.34,1.34,0,0,1,482.52,907.4Zm2.52,3.87a.88.88,0,0,1,0-1.75.88.88,0,1,1,0,1.75Zm.63-39.23a.84.84,0,0,1-.84-.83.85.85,0,0,1,.84-.84.84.84,0,0,1,.83.84A.83.83,0,0,1,485.67,872Zm22.66,14.67a3.21,3.21,0,1,1,3.21,3.21A3.21,3.21,0,0,1,508.33,886.71Zm4.09,10.75a.88.88,0,1,1,.87-.88A.87.87,0,0,1,512.42,897.46Zm1.41-2.79a1.75,1.75,0,1,1,1.75-1.75A1.76,1.76,0,0,1,513.83,894.67Zm.84-12.42a4.75,4.75,0,1,1,4.75-4.75A4.75,4.75,0,0,1,514.67,882.25Z"/><path class="cls-5" d="M483.85,908.73a1.34,1.34,0,1,1,1.34-1.33A1.34,1.34,0,0,1,483.85,908.73Z"/><path class="cls-5" d="M482.9,867.52a1.33,1.33,0,1,1,1.33,1.33A1.32,1.32,0,0,1,482.9,867.52Z"/><path class="cls-5" d="M485.92,910.4a.88.88,0,1,1-.88-.88A.88.88,0,0,1,485.92,910.4Z"/><path class="cls-5" d="M486.5,871.21a.83.83,0,0,1-.83.83.84.84,0,0,1-.84-.83.85.85,0,0,1,.84-.84A.84.84,0,0,1,486.5,871.21Z"/><path class="cls-5" d="M513.29,896.58a.88.88,0,1,1-.87-.87A.87.87,0,0,1,513.29,896.58Z"/><path class="cls-5" d="M511.54,889.92a3.21,3.21,0,1,1,3.21-3.21A3.21,3.21,0,0,1,511.54,889.92Z"/><circle class="cls-5" cx="513.83" cy="892.92" r="1.75"/><circle class="cls-5" cx="514.67" cy="877.5" r="4.75"/><path d="M529.17,850.66a6.63,6.63,0,0,1-.23,1.81,11,11,0,0,1-1.62,3.34,11.82,11.82,0,0,1-9.74,5.07H482.27a11.6,11.6,0,0,1-10.12-5.66,9.5,9.5,0,0,1-1.28-3.75c0-.25,0-.53,0-.81,0-6.25,6.19-6.08,6.19-6.08h46S529.17,844.41,529.17,850.66Z"/><path class="cls-6" d="M518.13,918.73A22.21,22.21,0,0,1,500,927.62c-15.48,0-23.51-13-27.24-31-.13-.62-.25-1.24-.38-1.87-.52-2.78-.94-5.67-1.28-8.63-.07-.62-.14-1.24-.2-1.86-.29-2.82-.5-5.71-.64-8.64,0-.72-.08-1.44-.11-2.16-.1-2.77-.15-5.57-.16-8.38,0-.69,0-1.39,0-2.08,0-2.88.08-5.76.19-8.63q0-1.08.09-2.16c.12-2.85.29-5.68.48-8.47,0-.63.09-1.26.13-1.89.23-3,.49-6,.76-8.82.07-.66.13-1.32.2-2,.31-3.05.64-6,1-8.8.06-.48.11-.95.17-1.42,2-15.74,4.19-26.79,4.19-26.79l15.36,0,30.64.09S541.87,888.9,518.13,918.73Z"/><path class="cls-3" d="M505.81,934a10.84,10.84,0,0,1-5.92,1.44c-8.07,0-9.29-5.47-9.19-9.17,0-.16,0-.31,0-.46a22.63,22.63,0,0,0,9.25,1.85,22.93,22.93,0,0,0,9.32-1.87C509.42,928.22,509,931.93,505.81,934Z"/><path class="cls-7" d="M501.62,935.08l-.36,18.51v.33a23.73,23.73,0,0,0-2.57.38V954l-.29-18.88Z"/><path class="cls-2" d="M505.3,789.07l-11-1.18A11.08,11.08,0,0,1,494,785V734.42a9.59,9.59,0,0,1,1.64-5.65L510,733.62s-26.12-6-6.25,50.51l2.25,1.46A9.4,9.4,0,0,1,505.3,789.07Z"/><path class="cls-3" d="M532.83,788.58a5.14,5.14,0,0,1-1.81,4.18h0c-2.24,1.88-5.75,1.73-5.75,1.73H474.74a10.2,10.2,0,0,1-4.94-1.16h0a5.13,5.13,0,0,1-2.62-4.75c0-6.25,7-6.08,7-6.08h51.72S532.83,782.33,532.83,788.58Z"/><path class="cls-3" d="M533.76,738.85a3.07,3.07,0,0,1-.26,1.27c-1.38,3.06-7.69,2.88-7.69,2.88H472.67s-7.25.21-7.91-3.59a3.36,3.36,0,0,1,0-.56c0-4.39,7.32-4.27,7.32-4.27h54.4S533.76,734.46,533.76,738.85Z"/><path d="M479.36,821.57l-6.55.72c.06-.48.11-.95.17-1.42Z"/><path d="M488,832.07l-16.34,1c.07-.66.13-1.32.2-2Z"/><path d="M479.36,842.82l-8.63.95c0-.63.09-1.26.13-1.89Z"/><path d="M488,853.32l-17.8,1.08q0-1.08.09-2.16Z"/><path d="M479.36,864.07l-9.4,1c0-.69,0-1.39,0-2.08Z"/><path d="M488,874.57l-17.73,1.08c0-.72-.08-1.44-.11-2.16Z"/><path d="M479.36,885.23l-8.29.92c-.07-.62-.14-1.24-.2-1.86Z"/><path d="M488,895.73l-15.23.92c-.13-.62-.25-1.24-.38-1.87Z"/><path class="cls-2" d="M476.73,743h-4.06s-7.25.21-7.91-3.59A39.34,39.34,0,0,0,476.73,743Z"/><path class="cls-2" d="M533.49,740.12c-1.39,3.06-7.78,2.88-7.78,2.88h-6.37C527.11,742.25,531.27,741.17,533.49,740.12Z"/><path class="cls-2" d="M469.79,793.33a5.13,5.13,0,0,1-2.62-4.75c0-6.25,7-6.08,7-6.08h2.48C470.7,784.19,465.5,787.38,469.79,793.33Z"/><path class="cls-2" d="M532.83,788.58a5.14,5.14,0,0,1-1.81,4.18c2.44-5.84-5.47-8.78-14.16-10.26h9S532.83,782.33,532.83,788.58Z"/><path class="cls-2" d="M505.81,934a10.84,10.84,0,0,1-5.92,1.44c-8.07,0-9.29-5.47-9.19-9.17C491.93,929.22,495.53,934.24,505.81,934Z"/><path class="cls-8" d="M518.13,918.73a23.34,23.34,0,0,1-8.84,7,22.93,22.93,0,0,1-9.32,1.87,22.63,22.63,0,0,1-9.25-1.85c-36.71-16-13.55-131.69-13.55-131.69l15.36,0C487.13,820,472.68,906.52,518.13,918.73Z"/><path d="M503.62,953.69l-2.37.23a23.73,23.73,0,0,0-2.57.38,9.44,9.44,0,0,0-2.18.7,5.13,5.13,0,0,1,2.17-1,11.27,11.27,0,0,1,2.59-.36A16.53,16.53,0,0,1,503.62,953.69Z"/><ellipse class="cls-2" cx="431.37" cy="934.67" rx="35.13" ry="2.82"/><path class="cls-4" d="M401.13,877.5s15.46,8,28.29,4.5,30.82-3,30.83-1.33C460.5,934,464,933,431.92,933,396.25,933,401.13,939.17,401.13,877.5Z"/><path class="cls-5" d="M452.33,909a.88.88,0,1,1-1.75,0,.88.88,0,0,1,1.75,0Z"/><path class="cls-5" d="M413.41,909.16a.88.88,0,1,1-.87-.87A.87.87,0,0,1,413.41,909.16Z"/><path class="cls-5" d="M451.13,893.59a3.21,3.21,0,1,1,3.21-3.21A3.21,3.21,0,0,1,451.13,893.59Z"/><path class="cls-5" d="M413,928.42a3.21,3.21,0,1,1,3.21-3.21A3.21,3.21,0,0,1,413,928.42Z"/><circle class="cls-5" cx="454.25" cy="901.42" r="1.75"/><circle class="cls-5" cx="416.58" cy="916.42" r="1.75"/><path class="cls-9" d="M462.07,867.84v55.24a11.8,11.8,0,0,1-11.76,11.76h-39A11.77,11.77,0,0,1,401.18,929a10.84,10.84,0,0,1-.84-1.75,11.51,11.51,0,0,1-.77-4.16V867.84a17.56,17.56,0,0,1,.17-2.42c.08-.63.2-1.25.34-1.86a18.16,18.16,0,0,1,11.54-12.71,2.21,2.21,0,0,0,1.47-2.27c0-.21,0-.41,0-.61v-3.86a10.55,10.55,0,0,1,10.52-10.52h12.7a10.55,10.55,0,0,1,10.53,10.52V848c0,.08,0,.16,0,.24a2.17,2.17,0,0,0,1.66,2.18A18.06,18.06,0,0,1,462.07,867.84Z"/><path d="M415.17,864.48l-15.43.94c.08-.63.2-1.25.34-1.86Z"/><polygon points="406.57 875.23 399.57 876 399.57 874.46 406.57 875.23"/><polygon points="415.17 885.73 399.57 886.68 399.57 884.78 415.17 885.73"/><polygon points="406.57 896.48 399.57 897.25 399.57 895.7 406.57 896.48"/><polygon points="415.17 906.98 399.57 907.93 399.57 906.04 415.17 906.98"/><polygon points="406.57 917.64 399.57 918.42 399.57 916.86 406.57 917.64"/><path d="M415.17,928.14l-14,.85a10.84,10.84,0,0,1-.84-1.75Z"/><path class="cls-8" d="M436.87,934.84H411.33A11.77,11.77,0,0,1,401.18,929a10.84,10.84,0,0,1-.84-1.75,11.51,11.51,0,0,1-.77-4.16V867.84a17.56,17.56,0,0,1,.17-2.42c.08-.63.2-1.25.34-1.86a18.16,18.16,0,0,1,11.54-12.71,2.21,2.21,0,0,0,1.47-2.27c0-.21,0-.41,0-.61v-3.86a10.55,10.55,0,0,1,10.52-10.52h5.35l4.9,1.16S369.54,915.79,436.87,934.84Z"/><path class="cls-3" d="M455.86,833.79v6a8.37,8.37,0,0,1-4.68,7.5,8.23,8.23,0,0,1-3.7.87H414.15a8.4,8.4,0,0,1-8.38-8.37v-6a8.88,8.88,0,0,1,.05-.9,8.41,8.41,0,0,1,8.33-7.47h33.33A8.4,8.4,0,0,1,455.86,833.79Z"/><path class="cls-2" d="M451.18,847.3a8.23,8.23,0,0,1-3.7.87H414.15a8.4,8.4,0,0,1-8.38-8.37v-6a8.88,8.88,0,0,1,.05-.9C410.71,839.19,422.63,846.15,451.18,847.3Z"/><path class="cls-10" d="M545,939.73c0-.25.07-.59.13-1Z"/><path class="cls-11" d="M567.51,914.91c-.33.54-.69,1.17-1.09,1.85-1.86,3.15-4.45,7.58-6.56,11.21l-7.23-3a7.51,7.51,0,0,1-4.48-5.65,7.32,7.32,0,0,1,.47-4.16,7.5,7.5,0,0,1,9.81-4Z"/><path class="cls-10" d="M579.05,927.88a7.53,7.53,0,0,1-9.82,4L559.86,928c2.11-3.63,4.7-8.06,6.56-11.21.4-.68.76-1.31,1.09-1.85l7.52,3.15A7.52,7.52,0,0,1,579.05,927.88Z"/><path class="cls-2" d="M575,918c-2.57-.48-5.53-.95-8.54-1.27-7.35-.77-15-.62-18.27,2.53a7.32,7.32,0,0,1,.47-4.16,7.5,7.5,0,0,1,9.81-4Z"/><path class="cls-11" d="M548.62,923.12c0,.62.1,1.34.15,2.14.25,3.65.64,8.76,1,13l-7.67,1.6A7.5,7.5,0,0,1,539,925.13Z"/><path class="cls-10" d="M565.48,927.25a7.39,7.39,0,0,1-1.07,5.63,7.49,7.49,0,0,1-4.73,3.25l-9.95,2.08c-.32-4.19-.71-9.3-1-13,0-.8-.11-1.52-.15-2.14l8-1.68A7.52,7.52,0,0,1,565.48,927.25Z"/><path class="cls-2" d="M556.53,921.46c-2.39,1.06-5.1,2.35-7.76,3.8-6.48,3.53-12.7,8-13.61,12.44A7.5,7.5,0,0,1,539,925.13Z"/><path class="cls-11" d="M572.27,926.91c-.11.61-.22,1.33-.35,2.12-.61,3.6-1.43,8.67-2.09,12.81l-7.84-.23a7.5,7.5,0,0,1-6.21-3.66,7.27,7.27,0,0,1-1.06-4.05,7.5,7.5,0,0,1,7.71-7.28Z"/><path class="cls-10" d="M587.7,934.86a7.53,7.53,0,0,1-7.71,7.28l-10.16-.3c.66-4.14,1.48-9.21,2.09-12.81.13-.79.24-1.51.35-2.12l8.15.23A7.53,7.53,0,0,1,587.7,934.86Z"/><path class="cls-2" d="M580.34,927.14c-2.57.48-5.5,1.1-8.42,1.89-7.13,1.92-14.22,4.8-16.14,8.92a7.27,7.27,0,0,1-1.06-4.05,7.5,7.5,0,0,1,7.71-7.28Z"/><path class="cls-12" d="M428.06,911.42v0h-.15Z"/><path class="cls-12" d="M427.91,911.44h-.16v0Z"/><path class="cls-13" d="M442.26,892.18a9.55,9.55,0,0,0-1.79-3.65c-1.65-2.08-4.46-3.69-9.24-3.69-5,0-8,1.78-9.8,4a10.69,10.69,0,0,0-1.79,3.39s0,0,0,0a14,14,0,0,0-.67,5.1,1.72,1.72,0,0,0,.1.49,4.28,4.28,0,0,0,2.44,2.4c0,.12,0,.25,0,.37.26,3,1.21,7.62,4.64,7.62v-3.18a5.34,5.34,0,0,0,4.29,3.14l.33,0,.31,0a5.36,5.36,0,0,0,4.29-3.13v3.17c3.48,0,4.41-4.81,4.64-7.74l.1,0c2-.9,2.44-2,2.51-2.6a1,1,0,0,0,0-.34A14.49,14.49,0,0,0,442.26,892.18ZM422.63,896c0-3.48,1.68-5.68,3.41-5.55s4,2.81,3.93,5.55A9,9,0,0,1,422.63,896Zm9.11,0c-.05-2.74,2.18-5.45,3.93-5.55s3.41,2.07,3.41,5.55A9,9,0,0,1,431.74,896Z"/><g class="cls-14"><path d="M421.42,886.27a11.11,11.11,0,0,0-1.79,3.39s0,0,0,.05c-.3.29-2.22-3.08-3.77-6a1,1,0,0,0-1.49-.28c-.82.73-2.08,1.46-3.12.49-1.69-1.57.63-3.22.63-3.22,4.55-3.28,3.64-3.07,5.52-1.42.81.71.46,1.26-.15,1.72a1,1,0,0,0-.08,1.53l4.08,3.48A.67.67,0,0,1,421.42,886.27Z"/><path d="M450.41,883.93c-1.05,1-2.31.24-3.12-.49a1,1,0,0,0-1.49.28,42.69,42.69,0,0,1-3.54,5.9,9.7,9.7,0,0,0-1.79-3.65l4-3.43a1,1,0,0,0-.07-1.53c-.63-.46-1-1-.15-1.72,1.88-1.65,1-1.86,5.5,1.42C449.77,880.71,452.09,882.36,450.41,883.93Z"/></g><g class="cls-14"><path d="M417.16,910.4a1,1,0,0,0,.07,1.54c.62.46.95,1,.15,1.71-1.89,1.66-1,1.87-5.51-1.41,0,0-2.32-1.65-.64-3.22,1-1,2.31-.24,3.13.49a1,1,0,0,0,1.49-.28,57.92,57.92,0,0,1,3.18-5.48,4.32,4.32,0,0,0,2.44,2.4c0,.12,0,.24,0,.37a1,1,0,0,1-.27.39Z"/><path d="M449.77,912.24c-4.55,3.28-3.62,3.07-5.51,1.41-.8-.71-.47-1.25.15-1.71a1,1,0,0,0,.07-1.54l-4.07-3.49a.86.86,0,0,1-.31-.56c2-.9,2.44-2,2.51-2.6a57.92,57.92,0,0,1,3.18,5.48,1,1,0,0,0,1.49.28c.82-.73,2.09-1.48,3.13-.49C452.09,910.59,449.77,912.24,449.77,912.24Z"/></g></g></g></g></svg>