<svg xmlns="http://www.w3.org/2000/svg" viewBox="0 0 1000 1000"><defs><style>.cls-1{fill:none;}.cls-2,.cls-7{opacity:0.2;}.cls-3{fill:#9ab4e5;}.cls-4,.cls-7{fill:#744511;}.cls-5{fill:#769acc;}.cls-6{fill:#c9daf1;}.cls-8{fill:#915407;}.cls-9{fill:#774207;}.cls-10{fill:#a85c09;}</style></defs><g id="Layer_2" data-name="Layer 2"><g id="OutPut"><rect id="BG" class="cls-1" width="1000" height="1000"/></g><g id="Stand"><g id="A"><ellipse class="cls-2" cx="500" cy="936.88" rx="86" ry="13.17"/><path class="cls-3" d="M573,836.21l-5,6-5.85,7-9.39,11.24L500.1,855h-.2l-9.68,1-43,4.48L432,842.21l-5-6s-3.46-7.57,58-8.63q6.93-.12,15-.12c18.94,0,33,.53,43.38,1.32h0C575.27,831.24,573,836.21,573,836.21Z"/><path class="cls-4" d="M568.25,844.83s-.1.81-.26,2.16c-.83,6.63-3.24,26.25-3.24,26.82s-42.88,17.3-64.75,25.84c-21.87-8.54-64.75-25.33-64.75-25.84S432.84,853.62,432,847c-.16-1.35-.26-2.16-.26-2.16h0c.1,0,.82-.17,2.1-.39s2.88-.49,5-.8c7.27-1.07,19.7-2.61,35.47-3.51,7.81-.45,16.43-.74,25.65-.74,39.17,0,67.57,5.24,68.24,5.44Z"/><path class="cls-5" d="M573,890l-16.25,35.25s2,7.25,0,9c-1,.91-4.38,4.32-13.58,7.39C534.69,944.43,521.22,947,500,947c-21.78,0-35.39-2.67-43.83-5.59h0c-8.69-3-11.9-6.27-12.91-7.16-2-1.75,0-9,0-9L427,890V836.21a50,50,0,0,0,4.56,3.49l.2.14a41.35,41.35,0,0,0,7.11,3.79h0a72,72,0,0,0,7.27,2.61c2.79.85,5.78,1.62,8.94,2.3h0a199.39,199.39,0,0,0,30.65,3.86h0c21,1.13,43.56-.28,60.77-4.23h0c1.45-.33,2.85-.68,4.22-1h0a72.21,72.21,0,0,0,13-4.69,36.65,36.65,0,0,0,4.51-2.59,51.07,51.07,0,0,0,4.76-3.63Z"/><path class="cls-2" d="M485.74,852.41c-18.3-1-35.44-3.92-46.86-8.78,7.27-1.07,19.7-2.61,35.47-3.51-1.18.16-43.75,6.06,11.32,12.28Z"/><path class="cls-6" d="M445,900.21s55.09,10.46,109.92,0"/><path class="cls-2" d="M456.17,941.37h0c-8.69-3-11.9-6.27-12.91-7.16-2-1.75,0-9,0-9L427,890V836.21a50,50,0,0,0,4.56,3.49l.2.14c5.4,3.69,13.57,6.59,23.33,8.7h0c-.13,1.12-8.84,79.5,2.74,81.49C459.83,936,456.17,941.37,456.17,941.37Z"/><path class="cls-2" d="M573,890l-16.25,35.25s2,7.25,0,9c-1,.91-4.38,4.32-13.58,7.39,0,0-3.66,1.11,0-10.89,11.66-9,3.36-82.53,3.36-82.53h0c9-2.07,16.61-4.85,21.71-8.33a51.07,51.07,0,0,0,4.76-3.63Z"/><path class="cls-7" d="M474.35,840.12c-15.77.9-28.2,2.44-35.47,3.51h0a41.35,41.35,0,0,1-7.11-3.79l-.2-.14a50,50,0,0,1-4.56-3.49s-3.46-7.57,58-8.63C458.73,832.1,474.35,840.12,474.35,840.12Z"/><path class="cls-2" d="M573,836.21a51.07,51.07,0,0,1-4.76,3.63c-4.28,2.92-10.31,5.35-17.48,7.28,4.11-1.93,1.12-2.29-2.12-5.09,15.52-1.92-5.16-13.23-5.16-13.23h-.05C575.27,831.24,573,836.21,573,836.21Z"/><path class="cls-8" d="M548.39,793.59l-2.74,8.75c-4,12.9-11.21,36-12.64,41.41h0l-.08.47a24.16,24.16,0,0,0-.09,3.37c0,.48-.54-1.11-.51-.56-.17,0-1.12,1.45-1.29,1.48s-1.6.56-1.72.58c-5.12,1-6.73.62-12.22,1.14a4,4,0,0,1-.79-.09l-.9-.12a1.44,1.44,0,0,0-.43,0c-9.72.85-28.56-1.54-29.23.67-1.18-.09-2.4-1-3.56-1.1a13.57,13.57,0,0,0-2.31.3,2.84,2.84,0,0,1-.81,0c-3-.35-4.06-.69-6.94-1.2-.26-.05-.58-.73-.83-.78-1.68-.41-3.22-.92-4.88-1.3.71-12.46-.41-27.68-.5-44.83-.18-31.34-1.19-62.72-1.19-62.72l9.12-5.65,22.66-4.62,1.31.38.19.05,11.15,3.23,24.61,6.61-1.44,13.4-4.11,37L528,791.3l.76-1.61,4.24-9.06Z"/><path class="cls-2" d="M471.56,796.61c-.38,16-.35,33.14-.27,51.31-1.68-.41-3.22-.92-4.88-1.3.71-12.46-.41-27.68-.5-44.83-.18-31.34-1.19-62.72-1.19-62.72l9.12-5.65S472.4,762.11,471.56,796.61Z"/><path class="cls-9" d="M533,780.63s-.31,3.43.62,3.81,3.5,4.86,6,6.39,7.79,4,8.77,2.76-2.08-4.57-3.14-4.38-6.5-7-7.81-7.15-3.32-2.57-3.88-2Z"/><path class="cls-9" d="M532.32,752.47,528,791.3l-6.49,30.19C521.79,819.86,529.09,776.85,532.32,752.47Z"/><path class="cls-9" d="M498,726.26s-5.67,85.88,0,108.24Z"/><path class="cls-9" d="M482.18,849.57a13.57,13.57,0,0,0-2.31.3c.3-6.43.87-13.18,1.8-20.09Z"/><path class="cls-10" d="M509.15,732.46s1.35,43.09-2,58.84Z"/><path class="cls-10" d="M519.5,787s-.39,44.66-3.2,63.18l-.9-.12Z"/><path class="cls-10" d="M483.67,749.38s-4.17,54.88-2.05,64Z"/><path class="cls-10" d="M539.62,806.55s-4,19.05-7.3,26.87Z"/></g></g></g></svg>