<svg xmlns="http://www.w3.org/2000/svg" viewBox="0 0 1000 1000"><defs><style>.cls-1{fill:none;}.cls-2,.cls-5{opacity:0.1;}.cls-3{fill:#686868;}.cls-4{fill:#7a7a7a;}.cls-5{fill:#fff;}.cls-6{fill:#7f2467;}.cls-7{fill:#b75798;}.cls-8{fill:#ffd9be;}.cls-9{fill:#c7daff;}.cls-10{fill:#8ca8ef;}.cls-11{fill:#ffbf76;}.cls-12{fill:#999;}.cls-13{fill:#7f7f7f;}.cls-14{fill:#666;}</style></defs><g id="Layer_2" data-name="Layer 2"><g id="OutPut"><rect id="BG" class="cls-1" width="1000" height="1000"/></g><g id="Stand"><g id="_5" data-name="5"><ellipse class="cls-2" cx="500" cy="931.58" rx="115.25" ry="28"/><path class="cls-3" d="M585,907.29v20c0,5.33-4.18,10.33-11.46,14.62-8.4,4.95-20.93,9-36,11.52a227.64,227.64,0,0,1-37.52,3c-3.8,0-7.54-.09-11.2-.26-40.86-1.85-72.56-13.65-73.71-28.06q0-.4,0-.81v-20h23c15.49-5.66,37.49-9.19,61.9-9.19s46.41,3.53,61.9,9.19Z"/><path class="cls-4" d="M585,907.29c0,5.4-4.27,10.45-11.73,14.78l-.94.54c-15,8.28-41.74,13.81-72.27,13.81-4.71,0-9.33-.14-13.82-.39-40.33-2.26-71.12-14.27-71.12-28.74,0-9.13,12.26-17.29,31.44-22.62l1.36-.38a162.3,162.3,0,0,1,16.63-3.47,229,229,0,0,1,35.51-2.66C547,878.16,585,891.2,585,907.29Z"/><path class="cls-2" d="M585,907.29v20c0,5.33-4.18,10.33-11.46,14.62-.16-4.54-.26-10.9-.27-19.79v-.66c2.92-5.37,2.47-10-.46-14.12-13-18.14-74.92-24.4-108.26-26.47a229,229,0,0,1,35.51-2.66C547,878.16,585,891.2,585,907.29Z"/><path class="cls-5" d="M500.06,956.37c-3.8,0-7.54-.09-11.2-.26-40.86-1.85-72.56-13.65-73.71-28.06q0-.4,0-.81v-20c0-9.13,12.26-17.29,31.44-22.62-7.62,4.39-21.38,13.11-22,22.62-1.5,23.84,74.28,28.89,75.45,29C500,945.65,500.35,952.4,500.06,956.37Z"/><path class="cls-6" d="M514.06,825V842.1l-28-10.58v-17a.19.19,0,0,1,.09,0Z"/><path class="cls-7" d="M514.06,841.1v17.07l-28-10.58v-17a.19.19,0,0,1,.09-.05Z"/><path class="cls-6" d="M514.06,857.18v17.07l-28-10.58v-17a.19.19,0,0,1,.09-.05Z"/><path class="cls-7" d="M514.06,873.25v17.07l-28-10.57v-17a.19.19,0,0,1,.09,0Z"/><path class="cls-6" d="M514.06,889.33V906.4l-28-10.58v-17a.19.19,0,0,1,.09-.05Z"/><path class="cls-8" d="M500.05,879.18v30.61a123.88,123.88,0,0,1-16.11-.93c-2.16-1.36-3.55-4.78-3.55-13.4C497,895.46,499.68,884.4,500.05,879.18Z"/><polygon class="cls-9" points="500.05 733.43 500.05 814.85 464.6 814.85 464.63 811.79 464.72 739.07 500.05 733.43"/><polygon class="cls-10" points="535.5 814.85 500.05 814.85 500.05 733.43 533.76 739.07 535.47 811.8 535.5 814.85"/><path class="cls-8" d="M500.06,828.34c-4.61-.68-8.66-1.21-12.22-1.6l-2.46-.26c-38.48-3.83-14.19,9.26-44.3,8.24,33.5-4.16-14.11-22.15-30.48-27.88,8.15,2.45,25.91,6.56,53,6.56,32.16,0,36.06-7.27,36.47-9.65C500,805.5,500.06,811,500.06,828.34Z"/><path class="cls-11" d="M559,834.72c-30.11,1-5.8-12.08-44.31-8.23-.63.06-1.28.12-2,.2-3.68.4-7.88.94-12.71,1.65,0-17.36-.05-22.84,0-24.59v-.06c.36,2.34,4.07,9.71,36.48,9.71,27.07,0,44.83-4.11,53-6.56C573.15,812.57,525.53,830.56,559,834.72Z"/><path class="cls-11" d="M519.72,895.46c0,8.64-1.4,12-3.57,13.41a124.09,124.09,0,0,1-16.09.92h0V879.18C500.42,884.4,503.14,895.46,519.72,895.46Z"/><path class="cls-4" d="M479.88,912.53s14.5-12.74,42.12-.12S479.88,912.53,479.88,912.53Z"/></g><g id="STD"><path class="cls-12" d="M548.39,703.56,541,716.25h0l-2.09,3.61a38.24,38.24,0,0,0-5.17,19.21h-69c0-.85,0-1.69-.08-2.53,0-.23,0-.46-.05-.68,0-.55-.09-1.1-.15-1.64,0-.31-.08-.63-.13-.94s0-.34-.07-.51c0-.38-.12-.75-.18-1.13s-.17-.9-.27-1.34c-.05-.24-.1-.47-.16-.7s-.08-.36-.12-.53a41.67,41.67,0,0,0-3.56-9.43l-8.38-16.08a57.93,57.93,0,0,0,7.28,8.6l.24.22,0,0a5.21,5.21,0,0,0,.89.61,4.44,4.44,0,0,0,.49.24l.51.18.39.11a8.12,8.12,0,0,0,1.69.2,10.84,10.84,0,0,0,1.65-.1,2.56,2.56,0,0,1,2.83,2.16,15.09,15.09,0,0,0,1.32,4.15,62.89,62.89,0,0,0,16.76,7.16,25.7,25.7,0,0,0,4.74-.42h0a14.8,14.8,0,0,0,3.45-1.05,7.89,7.89,0,0,1,6.76.15,24.53,24.53,0,0,0,8.1,1.86h0c1.17-.24,2.39-.51,3.68-.84h0a69.5,69.5,0,0,0,21.78-9.44,15.21,15.21,0,0,0,1.25-4.14,2.3,2.3,0,0,1,2.63-2,9,9,0,0,0,3.9-.19c.5-.49,1-1,1.49-1.52a.19.19,0,0,0,.06-.07A51.09,51.09,0,0,0,548.39,703.56Z"/><path class="cls-13" d="M541,716.25l-2.09,3.61a38.24,38.24,0,0,0-5.17,19.21h-69c0-.85,0-1.69-.08-2.53,0-.23,0-.46-.05-.68,0-.55-.09-1.1-.15-1.64,0-.31-.08-.63-.13-.94s0-.34-.07-.51c0-.38-.12-.75-.18-1.13s-.17-.9-.27-1.34c-.05-.24-.1-.47-.16-.7s-.08-.36-.12-.53a41.67,41.67,0,0,0-3.56-9.43l-8.38-16.08a57.93,57.93,0,0,0,7.28,8.6l.24.22,0,0a5.21,5.21,0,0,0,.89.61,4.44,4.44,0,0,0,.49.24l.51.18.39.11a8.12,8.12,0,0,0,1.69.2s2.36,4.68,4.71,8.79c1.55,2.72,3.1,5.18,4,5.9s4.72.61,9.75.47l3.16-.07c2.16,0,4.47,0,6.83.06a51.39,51.39,0,0,1,12.84,1.93c1.68.52,3.09,1,4.3,1.54,4.47,1.85,6.22,3.48,8.49,4.42,1.73.71,3.77,1,7.54.71C534.8,736.67,532.75,718.58,541,716.25Z"/><path class="cls-14" d="M518.59,739.07H464.72a62.36,62.36,0,0,0-1.05-9.47c0-.19-.08-.36-.12-.53a41.67,41.67,0,0,0-3.56-9.43l-8.38-16.08a57.93,57.93,0,0,0,7.28,8.6l.24.22,0,0a94.61,94.61,0,0,1,7.54,9.31c1.34,2,2.2,3.82,1.76,4.61-1.33,2.42,5.09,8.75,13.92,7s16.67-1.91,24.33.92c1.36.5,2.83,1.07,4.32,1.67,1.31.52,2.64,1.07,3.94,1.61Z"/></g></g></g></svg>