<svg xmlns="http://www.w3.org/2000/svg" viewBox="0 0 1000 1000"><defs><style>.cls-1{fill:none;}.cls-2{fill:#d69153;}.cls-3,.cls-6,.cls-7{opacity:0.2;}.cls-4{fill:#f4c94e;}.cls-5{fill:#707070;}.cls-6,.cls-9{fill:#fff;}.cls-7{fill:#303030;}.cls-8{fill:#b5b5b5;}.cls-9{opacity:0.1;}.cls-10{fill:#999;}.cls-11{fill:#7f7f7f;}.cls-12{fill:#666;}</style></defs><g id="Layer_2" data-name="Layer 2"><g id="OutPut"><rect id="BG" class="cls-1" width="1000" height="1000"/></g><g id="Stand"><g id="_3" data-name="3"><polygon class="cls-2" points="533.76 739.07 516.88 843.69 483.12 843.4 481.9 822.53 464.72 739.04 481.81 738.16 533.76 739.07"/><path class="cls-3" d="M512.06,833.68,481.9,822.53,464.72,739l17.09-.88c-2,17.28-3,53.4,19.19,70.11C507.34,813,511.74,829.22,512.06,833.68Z"/><polygon class="cls-3" points="507.35 810.13 505.35 815.08 504.35 801.88 505.54 813.43 507.35 810.13"/><polygon class="cls-3" points="511.38 795.89 513.38 800.84 514.38 787.64 513.19 799.19 511.38 795.89"/><polygon class="cls-3" points="497.94 792 495.94 796.95 494.94 783.75 496.13 795.3 497.94 792"/><polygon class="cls-3" points="489.65 802.61 487.65 807.56 486.65 794.36 487.83 805.91 489.65 802.61"/><polygon class="cls-3" points="515.06 754.01 513.06 758.96 512.06 745.75 513.25 757.31 515.06 754.01"/><polygon class="cls-3" points="506.56 779.86 504.56 784.81 503.56 771.61 504.75 783.16 506.56 779.86"/><polygon class="cls-3" points="486.9 750 484.9 754.95 483.9 741.75 485.08 753.3 486.9 750"/><polygon class="cls-3" points="489.19 778.92 487.19 783.87 486.19 770.67 487.38 782.22 489.19 778.92"/><polygon class="cls-3" points="491.85 762.53 493.85 767.48 494.85 754.28 493.67 765.83 491.85 762.53"/><polygon class="cls-3" points="500.02 748.39 502.02 753.34 503.02 740.13 501.83 751.69 500.02 748.39"/><polygon class="cls-3" points="513.44 772.67 515.44 777.62 516.44 764.42 515.25 775.97 513.44 772.67"/><path class="cls-4" d="M503.58,929.53s-25.59,3.59-57.23,5.16c-18.48.9-39,1.13-57.73-.47-6.14-.52-12.09-1.22-17.7-2.17,10-2.52,27.83-49.68,27.83-49.68s3.33,2.28,8.17,5.23c12.76,7.8,36,20.29,36,8a79.6,79.6,0,0,0,7.35,8.41C473.32,927,503.58,929.53,503.58,929.53Z"/><path class="cls-4" d="M647.66,911.11s-19.11,3.11-44.72,5.12c-4,.31-8.21.6-12.51.85-18.48,1-39,1.31-57.73-.54-6.14-.6-12.09-1.41-17.7-2.52,10-2.91,27.83-57.5,27.83-57.5s3.33,2.63,8.17,6.05c10.14,7.17,26.91,17.78,33.36,14.68,1.66-.81,2.64-2.52,2.64-5.45a88.85,88.85,0,0,0,7.35,9.74C617.4,908.16,647.66,911.11,647.66,911.11Z"/><path class="cls-5" d="M557.59,828.44l-.48,0A20.15,20.15,0,0,1,554,828a82.29,82.29,0,0,1-17-5.27c-9.22-4.14-13.2-13.51-12.33-23.6l4.69-28.45c.44-5.24-12.41-8.73-23-9.58a77.34,77.34,0,0,0-9.76-.16h0c-11.65.52-26.49,3.87-26,9.53l3.67,15.1.68,3.31,1.28,12c.37,4.34-2.56,10-7.75,17.33a99.53,99.53,0,0,1-13.68,15.76c-.84.76-1.65,1.43-2.42,2-.38.29-.74.55-1.1.78s-.69.44-1,.62a6.79,6.79,0,0,1-1.74.69.2.2,0,0,1-.13,0l-.07,0c-1.34-.71-4.42-9.59-5.54-9.53l-11.42.58-11.22.55v73.12c0,.77.15,16.59,19.77,35.08a107.18,107.18,0,0,0,9.65,8.05c.86.63,1.75,1.28,2.66,1.92.16.11.32.22.48.35l1.43,1,.93.63,1.43,1,.38.25.89.6c1.88-.47,3.75-.93,5.61-1.36q8.37-2,16.47-3.43c6.69-1.24,13.25-2.26,19.77-3.1l.85-.09.28,0c19.29-2.39,38-3.21,57.51-3.54.74-.61,1.45-1.23,2.13-1.82q2.75-2.42,5-4.8c11-11.59,13.83-22.46,14.56-27.6a22.23,22.23,0,0,0,.25-3.08V829.57Zm-51.37-54.79a6.44,6.44,0,0,1-3.41,4,6.29,6.29,0,0,1-2.77.63,5,5,0,0,1-1.1-.1h0a6.47,6.47,0,0,1-5.35-6.37c0-3.58,2.91-3.68,6.48-3.68s6.46.1,6.46,3.68A6.5,6.5,0,0,1,506.22,773.65Z"/><path class="cls-6" d="M505.48,838.58l-4.57,102-.14,3c-.37.06-.76.11-1.13.15l-.14-3-4.58-102.12a5.53,5.53,0,0,1,1.71-4.22,5.52,5.52,0,0,1,7.14,0A5.53,5.53,0,0,1,505.48,838.58Z"/><path class="cls-3" d="M479.87,946.75c-7.21,1.32-14.55,2.91-22.08,4.8l-3.63-2.46c-.62-.45-1.27-.89-1.91-1.34l-2.66-1.92c-29.23-21.73-29.42-42.26-29.42-43.14V829.58l11.22-.56c-5.95,21.87-9,67.6,45.19,114.92Q478.18,945.35,479.87,946.75Z"/><path class="cls-3" d="M448.45,843.8l.77-2.78-.87-3a.21.21,0,0,0,.2,0c4-.84,13.08-10.14,19.95-19.85C464.34,827.7,448.45,843.8,448.45,843.8Z"/><path class="cls-7" d="M499.07,778.6a24.62,24.62,0,0,1-1.17-4.44,8.81,8.81,0,0,1,.13-4,3.09,3.09,0,0,1,1.08-1.7c0,.1-.2.49-.41,1.19a.85.85,0,0,0-.08.22c0,.1-.05.2-.06.3a2.23,2.23,0,0,0,0,.23,14.49,14.49,0,0,0-.27,3.36c0,.13,0,.27,0,.42s0,.6.06.91a2.27,2.27,0,0,0,.13.61A16,16,0,0,0,499.07,778.6Z"/><path class="cls-8" d="M511.27,790.13l-.12-.19-.9-1.27L507.76,785l-.91-1.35-6.07-9-2.48-.37-.4-.06a9,9,0,0,1,.13-4h.53l5.36.25,7.7,10.72.52.73,3.55,4.94v0l.38.47-.47.27-.31.16Z"/><path class="cls-3" d="M511.15,789.94l-.9-1.27L507.76,785a5.66,5.66,0,0,1,3.86-3.79l.52.73,3.55,4.94v0A28.44,28.44,0,0,1,511.15,789.94Z"/><ellipse class="cls-8" cx="513.63" cy="788.42" rx="9.08" ry="6.04" transform="translate(-402.29 572.74) rotate(-43.67)"/><path class="cls-3" d="M506.43,761.1c-3.57,3.21-26,12.55-31.93,25.46l-3.88-16.1c-.48-5.66,14.36-9,26-9.53h0a79.26,79.26,0,0,1,9.76.16Z"/><path class="cls-4" d="M603.75,957.61a293.39,293.39,0,0,1-32.5,3.45c-30.09,1.68-62.65.1-87.87-1.94-25.81-2.07-43.95-4.61-43.95-4.61a99.42,99.42,0,0,0,18.09-3.81,122.15,122.15,0,0,0,19.23-7.5A109.89,109.89,0,0,0,499.93,928c.89-.76,1.77-1.55,2.65-2.36a99.39,99.39,0,0,0,12-13.18c0,4.6,3.28,8.23,8.39,11.09,10.78,6,29.71,8.66,43.46,9.82,7.4.62,13.3.81,15.62.86l1.07,0S591.36,954.51,603.75,957.61Z"/><path class="cls-3" d="M483.38,959.12c-25.81-2.07-43.95-4.61-43.95-4.61s46.24-3.9,75.14-42.06c0,4.61,3.28,8.24,8.39,11.1C508.79,930.31,469.09,950.58,483.38,959.12Z"/><path class="cls-3" d="M388.62,934.22c-6.14-.52-12.09-1.22-17.7-2.17,10-2.52,27.83-49.68,27.83-49.68s3.33,2.28,8.17,5.23C396.78,900.2,380.6,923.36,388.62,934.22Z"/><path class="cls-3" d="M602.94,916.23c2.84-11.06-11-29.82-18.58-39,1.66-.81,2.64-2.52,2.64-5.45a88.85,88.85,0,0,0,7.35,9.74c23,26.62,53.31,29.57,53.31,29.57S628.55,914.22,602.94,916.23Z"/><path class="cls-9" d="M581,905.77c-4.29-30.12-16.68-62.49-22.87-77.37l.48,0,22.64,1.13v73.12A22.23,22.23,0,0,1,581,905.77Z"/><path class="cls-9" d="M603.75,957.61a293.39,293.39,0,0,1-32.5,3.45c6.44-6.53,9.7-15.93,10.79-26.83l1.07,0S591.36,954.51,603.75,957.61Z"/></g><g id="STD"><path class="cls-10" d="M548.39,703.56,541,716.25h0l-2.09,3.61a38.24,38.24,0,0,0-5.17,19.21h-69c0-.85,0-1.69-.08-2.53,0-.23,0-.46-.05-.68,0-.55-.09-1.1-.15-1.64,0-.31-.08-.63-.13-.94s0-.34-.07-.51c0-.38-.12-.75-.18-1.13s-.17-.9-.27-1.34c-.05-.24-.1-.47-.16-.7s-.08-.36-.12-.53a41.67,41.67,0,0,0-3.56-9.43l-8.38-16.08a57.93,57.93,0,0,0,7.28,8.6l.24.22,0,0a5.21,5.21,0,0,0,.89.61,4.44,4.44,0,0,0,.49.24l.51.18.39.11a8.12,8.12,0,0,0,1.69.2,10.84,10.84,0,0,0,1.65-.1,2.56,2.56,0,0,1,2.83,2.16,15.09,15.09,0,0,0,1.32,4.15,62.89,62.89,0,0,0,16.76,7.16,25.7,25.7,0,0,0,4.74-.42h0a14.8,14.8,0,0,0,3.45-1.05,7.89,7.89,0,0,1,6.76.15,24.53,24.53,0,0,0,8.1,1.86h0c1.17-.24,2.39-.51,3.68-.84h0a69.5,69.5,0,0,0,21.78-9.44,15.21,15.21,0,0,0,1.25-4.14,2.3,2.3,0,0,1,2.63-2,9,9,0,0,0,3.9-.19c.5-.49,1-1,1.49-1.52a.19.19,0,0,0,.06-.07A51.09,51.09,0,0,0,548.39,703.56Z"/><path class="cls-11" d="M541,716.25l-2.09,3.61a38.24,38.24,0,0,0-5.17,19.21h-69c0-.85,0-1.69-.08-2.53,0-.23,0-.46-.05-.68,0-.55-.09-1.1-.15-1.64,0-.31-.08-.63-.13-.94s0-.34-.07-.51c0-.38-.12-.75-.18-1.13s-.17-.9-.27-1.34c-.05-.24-.1-.47-.16-.7s-.08-.36-.12-.53a41.67,41.67,0,0,0-3.56-9.43l-8.38-16.08a57.93,57.93,0,0,0,7.28,8.6l.24.22,0,0a5.21,5.21,0,0,0,.89.61,4.44,4.44,0,0,0,.49.24l.51.18.39.11a8.12,8.12,0,0,0,1.69.2s2.36,4.68,4.71,8.79c1.55,2.72,3.1,5.18,4,5.9s4.72.61,9.75.47l3.16-.07c2.16,0,4.47,0,6.83.06a51.39,51.39,0,0,1,12.84,1.93c1.68.52,3.09,1,4.3,1.54,4.47,1.85,6.22,3.48,8.49,4.42,1.73.71,3.77,1,7.54.71C534.8,736.67,532.75,718.58,541,716.25Z"/><path class="cls-12" d="M518.59,739.07H464.72a62.36,62.36,0,0,0-1.05-9.47c0-.19-.08-.36-.12-.53a41.67,41.67,0,0,0-3.56-9.43l-8.38-16.08a57.93,57.93,0,0,0,7.28,8.6l.24.22,0,0a94.61,94.61,0,0,1,7.54,9.31c1.34,2,2.2,3.82,1.76,4.61-1.33,2.42,5.09,8.75,13.92,7s16.67-1.91,24.33.92c1.36.5,2.83,1.07,4.32,1.67,1.31.52,2.64,1.07,3.94,1.61Z"/></g></g></g></svg>