<svg xmlns="http://www.w3.org/2000/svg" viewBox="0 0 1000 1000"><defs><style>.cls-1{fill:none;}.cls-2{opacity:0.2;}.cls-3{fill:#b9bab7;}.cls-4{fill:#ddd;}.cls-5{fill:#efedec;}.cls-6{opacity:0.1;}.cls-7{fill:#999;}.cls-8{fill:#7f7f7f;}.cls-9{fill:#666;}</style></defs><g id="Layer_2" data-name="Layer 2"><g id="OutPut"><rect id="BG" class="cls-1" width="1000" height="1000"/></g><g id="Stand"><g id="_6" data-name="6"><path class="cls-2" d="M592.94,936.84c5.2,7.35-10.54,14.66-93.68,14.66-74.45,0-94.39-6.36-93.6-13.43-4.85-.4-8.07-1.08-8.07-1.87s4.26-1.67,10.35-2c7.68-7.58,31.9-14.8,31.9-14.8L561,921.92A169,169,0,0,1,580.91,929c2-.08,4-.12,6.13-.12,14.31,0,25.91,1.8,25.91,4C613,934.84,604.41,936.43,592.94,936.84Z"/><path class="cls-2" d="M396.13,927.69c-5.78,0-10.47-.6-10.47-1.33s4.69-1.34,10.47-1.34,10.47.6,10.47,1.34S401.92,927.69,396.13,927.69Z"/><polygon class="cls-3" points="465.03 771.09 466.26 907.6 534.97 907.6 534.97 766.43 465.03 771.09"/><polygon class="cls-4" points="467.08 771.09 467.08 918.05 464.21 918.05 464.21 772.53 465.04 772.11 467.08 771.09"/><polygon class="cls-4" points="473.32 771.09 473.32 918.05 470.46 918.05 470.46 772.53 473.32 771.09"/><polygon class="cls-4" points="479.57 771.09 479.57 918.05 476.7 918.05 476.7 772.53 479.57 771.09"/><polygon class="cls-4" points="485.82 771.09 485.82 918.05 482.95 918.05 482.95 772.53 485.82 771.09"/><polygon class="cls-4" points="492.06 771.09 492.06 918.05 489.2 918.05 489.2 772.53 492.06 771.09"/><polygon class="cls-4" points="498.31 771.09 498.31 918.05 495.44 918.05 495.44 772.53 498.31 771.09"/><polygon class="cls-4" points="501.69 775.57 501.69 918.05 504.56 918.05 504.56 771.09 501.69 772.52 501.69 775.57"/><polygon class="cls-4" points="510.8 771.09 510.8 918.05 507.94 918.05 507.94 772.53 510.8 771.09"/><polygon class="cls-4" points="517.05 771.09 517.05 918.05 514.18 918.05 514.18 772.53 517.05 771.09"/><polygon class="cls-4" points="523.3 771.09 523.3 918.05 520.43 918.05 520.43 772.53 523.3 771.09"/><polygon class="cls-4" points="529.54 771.09 529.54 918.05 526.68 918.05 526.68 772.53 529.54 771.09"/><polygon class="cls-4" points="535.79 771.09 535.79 918.05 532.92 918.05 532.92 772.53 534.97 771.5 535.79 771.09"/><path class="cls-2" d="M492.06,883.33V841.25S493,878.24,492.06,883.33Z"/><path class="cls-2" d="M532.92,792.87v89.3C531.46,860.81,532.92,792.87,532.92,792.87Z"/><path class="cls-2" d="M526.68,783.45V894C523.6,881.61,526.68,783.45,526.68,783.45Z"/><path class="cls-2" d="M520.43,791.58v72.74C518.11,852.15,520.43,791.58,520.43,791.58Z"/><path class="cls-2" d="M514.18,819.39V880C511.87,872.59,514.18,819.39,514.18,819.39Z"/><path class="cls-2" d="M507.94,783.45v71.47C505.07,841.48,507.94,783.45,507.94,783.45Z"/><path class="cls-2" d="M473.32,873.7V791.58S474.9,862.84,473.32,873.7Z"/><path class="cls-2" d="M479.57,880.52V801S481.39,868.93,479.57,880.52Z"/><path class="cls-2" d="M485.82,858.11V790.34S487.13,851.12,485.82,858.11Z"/><path class="cls-2" d="M498.31,846.82V798.69S500.37,836.14,498.31,846.82Z"/><path class="cls-2" d="M467.08,874.58V801S469,856.13,467.08,874.58Z"/><path class="cls-3" d="M552.28,933.31l-18.61,4.94a131.9,131.9,0,0,1-47.61,3.6h0a129.84,129.84,0,0,1-19.38-3.56l-18.92-5c-7-1.83-10.77-8.29-7.91-13.92,2.06-4,5.67-4.17,9.82-4.17H550.34c4.16,0,7.77.12,9.83,4.19C563,925,559.22,931.48,552.28,933.31Z"/><path class="cls-5" d="M549.16,915.22l-7.41,2.16c-1.79.52-3.58,1-5.38,1.45-1.31.34-2.63.65-4,.94s-2.87.62-4.31.89a149,149,0,0,1-48.59,1.26h0a149.24,149.24,0,0,1-20.92-4.46l-7.75-2.24c0-12.92,4.09-12.83,9.24-12.83h79.84c4.29,0,7.85-.06,8.91,7.41A37.59,37.59,0,0,1,549.16,915.22Z"/><path class="cls-3" d="M455.79,785.51l-11.33-4.75L438,769.26l2.34-11.52,6.91-9.23,10.83-1,12.8-.17,19.29.59,26.76-.59,21,.5h14.16s5,5.09,5.26,5.46,4.58,9.46,4.58,9.46l-1.08,11.58-6.42,8.09-11.58,2.66-8.17-4-2.42-5.5L530,773.13l-.92-2.2-8,.66L506,771.26l-11.66-.42-11.5-.41-9.17.58-1.5.58-2.67,3.25-2.5,4-5.75,4.5Z"/><path class="cls-5" d="M564.19,769.39c0,11.28-7.68,17.27-16,18.13a19.9,19.9,0,0,1-12.38-2.67c-.28-.16-.55-.34-.82-.53a16.1,16.1,0,0,1-2.05-1.65,17.21,17.21,0,0,1-1.76-1.95.79.79,0,0,1-.12-.15,16.78,16.78,0,0,1-2.78-5.76c-.15-.55-.28-1.12-.38-1.7a16.81,16.81,0,0,1-.25-2.06c0-.26,0-.52,0-.79s0-.58,0-.87c0-.13,0-.26,0-.39,0-.78,0-1.53.1-2.24a19.33,19.33,0,0,1,1.89-7.18h0a12.13,12.13,0,0,1,1.68-2.5l.07-.07a9.27,9.27,0,0,1,1.78-1.61l.18-.13c7.52-5.11,19.79,1.39,19.79,12.58,0,5.49-2.36,8.41-5.49,9.48l-.32.11-.28.08-.33.08a12.92,12.92,0,0,1-10.85-3.21c-.12-.11-.24-.22-.35-.34s-.32-.32-.47-.49a9.37,9.37,0,0,1-1.87-3c-.05-.14-.09-.27-.13-.41l0-.13a7.58,7.58,0,0,1-.28-2,9,9,0,0,1,.1-1.42c1.24-8.35,13.47-6,13.53,1.79,0,3.8-4.22,5.18-6.57,3.89a2.77,2.77,0,0,1-.7-.52h0a2.91,2.91,0,0,1-.81-2.11c0-2.59,1.42-3.46,2.87-3.14h0a4,4,0,0,1,2.77,2.64c.43-2.12-1.37-5.21-4.1-5.07a3.49,3.49,0,0,0-.76.11c-2.72.71-3.87,2-4,3.49a2.62,2.62,0,0,0,0,.56,4.45,4.45,0,0,0,.45,1.56,4.91,4.91,0,0,0,.37.67l.18.27a9.47,9.47,0,0,0,2.87,2.6,8.12,8.12,0,0,0,3.1,1.09,8.27,8.27,0,0,0,4.16-1c2.49-1.31,4.54-4.07,1.71-9.22a12.51,12.51,0,0,0-1-1.52l-.1-.16,0-.05c-1.73-2.32-4.55-4.89-7.37-5.09-3.56-.25-6.94.38-8.37,5.69a15.06,15.06,0,0,0-.51,3.62,17.57,17.57,0,0,0,.16,2.89,16.41,16.41,0,0,0,1.43,5,11.92,11.92,0,0,0,.9,1.65,10.37,10.37,0,0,0,2.05,2.36c.19.17.39.32.59.47l.23.16A16,16,0,0,0,549.68,781a12.23,12.23,0,0,0,2.55-1.23c7.29-4.62,8.59-10.63,6.62-18.25-1-3.75-1.93-6.38-3.59-8.19v0c-2.54-2.76-6.7-3.6-15-3.6h-80.5c-4.93,0-8.4.3-10.94,1.12A9,9,0,0,0,443,756l-.05.13a31.51,31.51,0,0,0-1.78,5.35c-1.41,5.45-1.14,10.08,1.8,14a18.15,18.15,0,0,0,4.83,4.29,13.74,13.74,0,0,0,7.15,2,16.35,16.35,0,0,0,8.56-2.22c.25-.15.49-.31.73-.47l.23-.16c.25-.18.48-.37.71-.57a10.78,10.78,0,0,0,1.93-2.26l.3-.48.21-.38a16.52,16.52,0,0,0,1.84-5.87,16.73,16.73,0,0,0-.25-5.89c0-.17-.08-.33-.12-.49-1-3.8-3.05-5.21-5.43-5.6a12.55,12.55,0,0,0-2.95-.09,5.23,5.23,0,0,0-.87.13,10.47,10.47,0,0,0-4.54,2.75l0,0h0a18,18,0,0,0-3.06,3.91c-2.58,4.72-1.08,7.43,1.11,8.86h0a8.42,8.42,0,0,0,4.76,1.34,7.78,7.78,0,0,0,2.7-.88,10.37,10.37,0,0,0,.91-.54,9.94,9.94,0,0,0,1.28-1c1.81-1.72,2.76-4,1.54-5.75a5.85,5.85,0,0,0-3.47-2,3.37,3.37,0,0,0-.75-.1h-.1a2.61,2.61,0,0,0-.4,0c-2.46.21-4,3.07-3.62,5.05a3.82,3.82,0,0,1,3.34-2.71h0a2.07,2.07,0,0,1,.82.16l.3.15a1.75,1.75,0,0,1,.33.28h0a3.19,3.19,0,0,1,.82,2.1,4.28,4.28,0,0,1,0,.52,3.1,3.1,0,0,1-.22,1.18,2,2,0,0,1-.24.48,2.51,2.51,0,0,1-.7.75c-2.24,1.66-7,.34-6.93-3.66a7.21,7.21,0,0,1,6.3-7,5.87,5.87,0,0,1,.82-.09,5.81,5.81,0,0,1,5.58,2.82,7.6,7.6,0,0,1,.92,3.86,7.13,7.13,0,0,1-.17,1.54,2.74,2.74,0,0,1-.09.39,8.87,8.87,0,0,1-2,3.6l-.11.12a9.18,9.18,0,0,1-.76.77c-.22.2-.45.4-.69.58a14.48,14.48,0,0,1-1.21.84c-6,3.73-15.37,3-15.37-7.95,0-10.66,11.15-17.07,18.7-13.22a10,10,0,0,1,2.83,2.12,12.25,12.25,0,0,1,2,2.83h0a16.67,16.67,0,0,1,1.43,4.08,26.74,26.74,0,0,1,.57,5.6v.12c0,.18,0,.35,0,.52,0,.56,0,1.11-.1,1.64a13.3,13.3,0,0,1-.21,1.56q-.11.6-.24,1.17a4.77,4.77,0,0,1-.15.54,16.6,16.6,0,0,1-6.51,9.37c-.33.24-.67.46-1,.66a17.6,17.6,0,0,1-2,1h0a20.13,20.13,0,0,1-9.28,1.73,18.75,18.75,0,0,1-10.53-3.74,16.45,16.45,0,0,1-6-9.39v0a21.26,21.26,0,0,1-.58-5.07c0-6.36,1.22-11,3-14.49a17.51,17.51,0,0,1,15.2-9.57h.23l40.17-1.26h11.12l23.15.73,17.1.54H546a17.51,17.51,0,0,1,12.13,5.29,18.66,18.66,0,0,1,3.59,5.35A32.11,32.11,0,0,1,564.19,769.39Z"/><path class="cls-5" d="M504,755.26a4,4,0,1,1-4-4A4,4,0,0,1,504,755.26Z"/><path class="cls-5" d="M495.59,754.93a2.81,2.81,0,0,1-1.65,2.56h0a2.76,2.76,0,0,1-1.15.25,2.82,2.82,0,0,1-2.79-2.45c0-.12,0-.24,0-.36a2.81,2.81,0,0,1,5.62,0Z"/><path class="cls-5" d="M487.86,754.93a1.84,1.84,0,0,1,0,.33,2.29,2.29,0,0,1-4.53,0,2.19,2.19,0,0,1,0-.36,2.3,2.3,0,1,1,4.59,0Z"/><path class="cls-5" d="M480,754.93a1.63,1.63,0,0,1-1.63,1.62,1.57,1.57,0,0,1-.85-.25,1.6,1.6,0,0,1-.77-1.37,1.63,1.63,0,0,1,3.22-.32.79.79,0,0,1,0,.14A.55.55,0,0,1,480,754.93Z"/><path class="cls-5" d="M510,754.93a2.74,2.74,0,0,1-.4,1.44,2.81,2.81,0,0,1-5.22-1.44c0-.11,0-.21,0-.32a2.81,2.81,0,0,1,5.6.32Z"/><path class="cls-5" d="M516.73,754.93a2.3,2.3,0,1,1-2.29-2.3A2.3,2.3,0,0,1,516.73,754.93Z"/><path class="cls-5" d="M523.28,754.93a1.63,1.63,0,0,1-1.62,1.62,1.44,1.44,0,0,1-.51-.09h0a1.61,1.61,0,0,1-1.11-1.53,1.63,1.63,0,0,1,1.63-1.63,1.6,1.6,0,0,1,1.13.47A1.62,1.62,0,0,1,523.28,754.93Z"/><path class="cls-5" d="M529.56,759.57l-1.68,13.54v0H472.12v0l-1.68-13.52h59.12Z"/><path class="cls-3" d="M545.81,745.32H454.19a3.62,3.62,0,0,1-3.06-1.32,3.15,3.15,0,0,1,2.64-4.93h92.46a3.15,3.15,0,0,1,2.64,4.93A3.62,3.62,0,0,1,545.81,745.32Z"/><path class="cls-6" d="M454.92,781.8a13.74,13.74,0,0,1-7.15-2,18.15,18.15,0,0,1-4.83-4.29c-2.94-3.88-3.21-8.51-1.8-14a31.51,31.51,0,0,1,1.78-5.35C442.37,757.76,437.46,773.48,454.92,781.8Z"/><path class="cls-6" d="M552.23,779.76a12.23,12.23,0,0,1-2.55,1.23c12.42-10.78,5.86-27,5.58-27.67,1.66,1.81,2.62,4.44,3.59,8.19C560.82,769.13,559.52,775.14,552.23,779.76Z"/><path class="cls-6" d="M485.5,745.32H454.19a3.62,3.62,0,0,1-3.06-1.32,3.15,3.15,0,0,1,2.64-4.93h3.17S461.82,743.89,485.5,745.32Z"/><path class="cls-6" d="M561.68,756c-8.41-10.05-33.57-10.64-33.57-10.64H546a17.51,17.51,0,0,1,12.13,5.29A18.66,18.66,0,0,1,561.68,756Z"/><path class="cls-6" d="M473.32,765.84c0,8.74-1.56,13.67-6.24,16.82a16.46,16.46,0,0,0,3.38-4.51,17.52,17.52,0,0,0,1.42-3.88q.14-.57.24-1.17a13.3,13.3,0,0,0,.21-1.56c.06-.53.09-1.08.1-1.64,0-.17,0-.34,0-.52v-.12a21.21,21.21,0,0,0-2-9.68h0a12.25,12.25,0,0,0-2-2.83,10,10,0,0,0-2.83-2.12h0A11.76,11.76,0,0,1,473.32,765.84Z"/><path class="cls-6" d="M459.49,766.36a3.82,3.82,0,0,0-3.34,2.71c-.41-2,1.16-4.84,3.62-5.05C459.61,764.12,457.82,765.32,459.49,766.36Z"/><path class="cls-6" d="M453.29,773c-2.19-1.43-3.69-4.14-1.11-8.86a18,18,0,0,1,3.06-3.91C455,760.63,448.81,769.19,453.29,773Z"/><path class="cls-6" d="M462.23,785.88a20.13,20.13,0,0,1-9.28,1.73,18.75,18.75,0,0,1-10.53-3.74,16.45,16.45,0,0,1-6-9.39C436.71,775.28,442.49,789.64,462.23,785.88Z"/><path class="cls-6" d="M529.54,778.16a16.82,16.82,0,0,0,1.5,2.41c-9.29-11.22-3.31-19.9.2-23.5a12.13,12.13,0,0,0-1.68,2.5h0a19.33,19.33,0,0,0-1.89,7.18c-.07.83-.11,1.71-.11,2.63,0,.29,0,.58,0,.87s0,.53,0,.79a16.81,16.81,0,0,0,.25,2.06A17.64,17.64,0,0,0,529.54,778.16Z"/><path class="cls-6" d="M546.64,777.59c-2.68.64-10.45,1.61-13.72-7.5H533c0,.14.08.27.13.41a9.37,9.37,0,0,0,1.87,3c.26.29.53.56.82.83A12.92,12.92,0,0,0,546.64,777.59Z"/><path class="cls-6" d="M543.84,769.07a4,4,0,0,0-2.77-2.64c.22,0,2.62-.6-1.33-2.43C542.47,763.86,544.27,767,543.84,769.07Z"/><path class="cls-6" d="M546.1,773.36a9.34,9.34,0,0,0,.72-10.74,12.51,12.51,0,0,1,1,1.52C550.64,769.29,548.59,772.05,546.1,773.36Z"/><path class="cls-6" d="M480,754.93a1.63,1.63,0,0,1-1.63,1.62,1.57,1.57,0,0,1-.85-.25c2.26,0,2.46-1.14,2.46-1.55A.55.55,0,0,1,480,754.93Z"/><path class="cls-6" d="M487.83,755.26a2.29,2.29,0,0,1-4.53,0C483.6,755.52,486.26,757.51,487.83,755.26Z"/><path class="cls-6" d="M493.93,757.49a2.76,2.76,0,0,1-1.15.25,2.82,2.82,0,0,1-2.79-2.45C490.24,755.54,492.34,757.72,493.93,757.49Z"/><path class="cls-6" d="M502.49,758.35a4,4,0,0,1-6.46-3.09S499.82,759.5,502.49,758.35Z"/><path class="cls-6" d="M509.63,756.37a2.81,2.81,0,0,1-5.22-1.44c0-.11,0-.21,0-.32s2.68,3.61,4.94,1.94Z"/><path class="cls-6" d="M516.73,754.93a2.3,2.3,0,0,1-3.88,1.66C513.5,756.75,516,757.16,516.73,754.93Z"/><path class="cls-6" d="M523.28,754.93a1.63,1.63,0,0,1-1.62,1.62,1.44,1.44,0,0,1-.51-.09,2.06,2.06,0,0,0,1.64-2.69A1.62,1.62,0,0,1,523.28,754.93Z"/><path class="cls-6" d="M528.26,774.81c-39.31,3.07-56.52,0-56.52,0h0a4.77,4.77,0,0,0,.15-.54q.14-.57.24-1.17v0h55.76C528,773.7,528.11,774.27,528.26,774.81Z"/><path class="cls-6" d="M462.12,909.79c0,7.21,16.29,11.82,17.39,12.13a149.24,149.24,0,0,1-20.92-4.46l-7.75-2.24c0-12.92,4.09-12.83,9.24-12.83H503.6l1,.42S462.12,902.34,462.12,909.79Z"/><path class="cls-6" d="M552.28,933.31l-18.61,4.94a131.9,131.9,0,0,1-47.61,3.6c32.3,1.64,59.82-9.94,58.19-16.55-1-4.26-7.41-5.32-11.83-5.53q4.7-1,9.33-2.39l7.41-2.16h1.18c4.16,0,7.77.12,9.83,4.19C563,925,559.22,931.48,552.28,933.31Z"/><path class="cls-3" d="M421.25,919.39,407,926.75l-4,10.06s21.75,3.94,25.75-3.56S421.25,919.39,421.25,919.39Z"/><path class="cls-4" d="M407,926.75l-4,10.06a40.67,40.67,0,0,0,21.28-.22C431.11,934.53,407,926.75,407,926.75Z"/><path class="cls-3" d="M392.59,913.78l10.19,5.27,2.86,7.19s-15.55,2.82-18.41-2.55S392.59,913.78,392.59,913.78Z"/><path class="cls-4" d="M402.78,919.05l2.86,7.19a29.12,29.12,0,0,1-15.22-.16C385.54,924.61,402.78,919.05,402.78,919.05Z"/><path class="cls-3" d="M571.05,927.93l20.28,8.23,14-4.8s-15.24-26-26.56-23.5S571.05,927.93,571.05,927.93Z"/><path class="cls-4" d="M591.33,936.16l14-4.8a55.7,55.7,0,0,0-19.13-21.85C578,904.28,591.33,936.16,591.33,936.16Z"/><path class="cls-6" d="M535.79,891v11.39H464.21V792.87s.12,6,1.15,15h0c.41,3.61,1,7.71,1.72,12.11.18,1.09.38,2.2.59,3.33a0,0,0,0,1,0,0c.75,4,1.67,8.22,2.78,12.5.84,3.23,1.78,6.49,2.86,9.73.23.69.46,1.38.7,2.07.82,2.36,1.71,4.7,2.68,7,.89,2.13,1.85,4.24,2.87,6.29.26.51.51,1,.78,1.51q1.23,2.37,2.6,4.64t2.87,4.41c1.07,1.52,2.2,3,3.38,4.39q1.38,1.64,2.86,3.15a3.83,3.83,0,0,0,.29.28h0c1,1,2,2,3.09,2.87s1.88,1.54,2.87,2.25,2.22,1.53,3.38,2.21c.93.56,1.89,1.08,2.87,1.56s2.23,1,3.38,1.47c.93.36,1.88.68,2.86,1s2.22.62,3.38.86c.94.2,1.89.37,2.87.51s2.23.26,3.38.33c.94.07,1.9.1,2.87.1s2,0,3.08-.09l.3,0c.94,0,1.89-.14,2.86-.25s2.23-.29,3.38-.5c.68-.11,1.36-.24,2.05-.39Z"/><path class="cls-2" d="M548.83,909.8c-4.39,3.41-8.91,6.6-12.46,9-1.31.34-2.63.65-4,.94s-2.87.62-4.31.89a149,149,0,0,1-48.59,1.26h0a149.24,149.24,0,0,1-20.92-4.46l-7.75-2.24c0-12.92,4.09-12.83,9.24-12.83h79.84C544.21,902.39,547.77,902.33,548.83,909.8Z"/></g><g id="STD"><path class="cls-7" d="M548.39,703.56,541,716.25h0l-2.09,3.61a38.24,38.24,0,0,0-5.17,19.21h-69c0-.85,0-1.69-.08-2.53,0-.23,0-.46-.05-.68,0-.55-.09-1.1-.15-1.64,0-.31-.08-.63-.13-.94s0-.34-.07-.51c0-.38-.12-.75-.18-1.13s-.17-.9-.27-1.34c-.05-.24-.1-.47-.16-.7s-.08-.36-.12-.53a41.67,41.67,0,0,0-3.56-9.43l-8.38-16.08a57.93,57.93,0,0,0,7.28,8.6l.24.22,0,0a5.21,5.21,0,0,0,.89.61,4.44,4.44,0,0,0,.49.24l.51.18.39.11a8.12,8.12,0,0,0,1.69.2,10.84,10.84,0,0,0,1.65-.1,2.56,2.56,0,0,1,2.83,2.16,15.09,15.09,0,0,0,1.32,4.15,62.89,62.89,0,0,0,16.76,7.16,25.7,25.7,0,0,0,4.74-.42h0a14.8,14.8,0,0,0,3.45-1.05,7.89,7.89,0,0,1,6.76.15,24.53,24.53,0,0,0,8.1,1.86h0c1.17-.24,2.39-.51,3.68-.84h0a69.5,69.5,0,0,0,21.78-9.44,15.21,15.21,0,0,0,1.25-4.14,2.3,2.3,0,0,1,2.63-2,9,9,0,0,0,3.9-.19c.5-.49,1-1,1.49-1.52a.19.19,0,0,0,.06-.07A51.09,51.09,0,0,0,548.39,703.56Z"/><path class="cls-8" d="M541,716.25l-2.09,3.61a38.24,38.24,0,0,0-5.17,19.21h-69c0-.85,0-1.69-.08-2.53,0-.23,0-.46-.05-.68,0-.55-.09-1.1-.15-1.64,0-.31-.08-.63-.13-.94s0-.34-.07-.51c0-.38-.12-.75-.18-1.13s-.17-.9-.27-1.34c-.05-.24-.1-.47-.16-.7s-.08-.36-.12-.53a41.67,41.67,0,0,0-3.56-9.43l-8.38-16.08a57.93,57.93,0,0,0,7.28,8.6l.24.22,0,0a5.21,5.21,0,0,0,.89.61,4.44,4.44,0,0,0,.49.24l.51.18.39.11a8.12,8.12,0,0,0,1.69.2s2.36,4.68,4.71,8.79c1.55,2.72,3.1,5.18,4,5.9s4.72.61,9.75.47l3.16-.07c2.16,0,4.47,0,6.83.06a51.39,51.39,0,0,1,12.84,1.93c1.68.52,3.09,1,4.3,1.54,4.47,1.85,6.22,3.48,8.49,4.42,1.73.71,3.77,1,7.54.71C534.8,736.67,532.75,718.58,541,716.25Z"/><path class="cls-9" d="M518.59,739.07H464.72a62.36,62.36,0,0,0-1.05-9.47c0-.19-.08-.36-.12-.53a41.67,41.67,0,0,0-3.56-9.43l-8.38-16.08a57.93,57.93,0,0,0,7.28,8.6l.24.22,0,0a94.61,94.61,0,0,1,7.54,9.31c1.34,2,2.2,3.82,1.76,4.61-1.33,2.42,5.09,8.75,13.92,7s16.67-1.91,24.33.92c1.36.5,2.83,1.07,4.32,1.67,1.31.52,2.64,1.07,3.94,1.61Z"/></g></g></g></svg>