<svg xmlns="http://www.w3.org/2000/svg" viewBox="0 0 1000 1000"><defs><style>.cls-1{fill:none;}.cls-2{fill:#993d8c;}.cls-3{opacity:0.2;}.cls-4{fill:#4c1e45;}</style></defs><g id="Layer_2" data-name="Layer 2"><g id="OutPut"><rect id="BG" class="cls-1" width="1000" height="1000"/></g><g id="Mounth_Up"><g id="_8" data-name="8"><path class="cls-2" d="M622.42,601.46c0,19.37-32.86,23.85-64.53,26.68-20.77,1.87-41,3-51.17,7.23a17.77,17.77,0,0,1-4.59,1.2H502l-.33,0-.23,0h-.06l-.47,0h-.22a17.52,17.52,0,0,1-7.43-1.31c-9.43-3.9-27.61-5.18-46.82-6.84-32.93-2.84-68.88-6.81-68.88-27.07,0-8,3.78-16.05,9.79-23.81h0c.68-.88,2.28-2.34,2.75-3.37,2.62-5.66,7.16-14.27,16-18.11h0l1-.39c.47-.18.94-.36,1.42-.56,11.53-4.69,25.7-13.82,37-22.5l.09-.07c2.61-2,5.07-4,7.31-5.88h0c6.54-5.52,11.18-10.31,12.24-12.84,4.34-10.39,23.27-14.3,30.89-15.48a21.72,21.72,0,0,1,6.39,0c.84.12,1.81.27,2.89.46,9.1,1.58,25.64,5.68,29.55,15,3,7.13,34.42,32.18,56.44,41.21l.22.09c.48.2,1,.38,1.42.56l1,.39h0c8.81,3.84,13.35,12.45,16,18.11.47,1,2.07,2.49,2.75,3.37h0c1,1.24,1.87,2.49,2.71,3.75C619.75,588,622.42,594.72,622.42,601.46Z"/><path class="cls-3" d="M446.46,628.53c-32.93-2.84-68.88-6.81-68.88-27.07,0-8,3.78-16.05,9.79-23.81h0c.68-.88,2.28-2.34,2.75-3.37,2.62-5.66,7.16-14.27,16-18.11h0l1-.39c.47-.18.94-.36,1.42-.56,11.53-4.69,25.7-13.82,37-22.5-23.77,19.89-91.86,83.34-7.64,94.63Q442.41,627.94,446.46,628.53Z"/><path class="cls-3" d="M591.3,555.11c-.91-.15-1.9-.36-3-.63-41.27-10.21-83-55.62-83-55.62,9.1,1.58,25.64,5.68,29.55,15C537.84,521,569.28,546.08,591.3,555.11Z"/><path class="cls-3" d="M502,636.58l-1.09.08C501.3,636.65,501.66,636.62,502,636.58Z"/><path class="cls-3" d="M500.71,636.68l.22,0Z"/><path class="cls-3" d="M622.42,601.46c0,19.37-32.86,23.85-64.53,26.68,34-7.65,68.53-21.47,58-45.4-.2-.46-.39-.91-.57-1.34C619.75,588,622.42,594.72,622.42,601.46Z"/><path class="cls-4" d="M448.3,602.83c-59-.23-60.93-25.18-60.93-25.18h0c.68-.88,1.39-1.76,2.12-2.63C396.19,600.93,441.54,602.71,448.3,602.83Z"/><path class="cls-4" d="M423.58,571c-12.75,0-17.49-14.84-17.49-14.84h0l1-.39c.47-.18.94-.36,1.42-.56C407.64,565.48,423.58,571,423.58,571Z"/><path class="cls-4" d="M551.7,602.83c59-.23,60.93-25.18,60.93-25.18h0c-.68-.88-1.39-1.76-2.12-2.63C603.81,600.93,558.46,602.71,551.7,602.83Z"/><path class="cls-4" d="M576.42,571c12.75,0,17.49-14.84,17.49-14.84h0l-1-.39c-.47-.18-.94-.36-1.42-.56C592.36,565.48,576.42,571,576.42,571Z"/><path class="cls-4" d="M544.17,545.83s-19,16.5-64.5,12C479.67,557.83,527.61,557.21,544.17,545.83Z"/><path class="cls-4" d="M448.3,580.61s38.2,14.89,67.53,9.22C494.33,588.92,448.3,580.61,448.3,580.61Z"/><path class="cls-4" d="M545.67,613.5s-25.17,12.83-74,8.83C503.17,621.67,526.33,619.67,545.67,613.5Z"/><path class="cls-4" d="M471.67,528s6.95,2.9,33.64,4.7"/></g></g></g></svg>