<svg xmlns="http://www.w3.org/2000/svg" viewBox="0 0 1000 1000"><defs><style>.cls-1{fill:none;}.cls-2{fill:#90543c;}.cls-3{fill:#b56f4e;}.cls-4{fill:#191919;}.cls-5{fill:#0c0c0c;}.cls-6{fill:#262626;}</style></defs><g id="Layer_2" data-name="Layer 2"><g id="OutPut"><rect id="BG" class="cls-1" width="1000" height="1000"/></g><g id="Mouth_Low"><g id="_3" data-name="3"><path class="cls-2" d="M499.8,599.61l-.33.4c.08-.32.17-.66.29-1s.32-.45.5-.39.24.11.34.14C500.29,599.07,500,599.35,499.8,599.61Z"/><path class="cls-2" d="M500.6,598.75l.26-.25C500.84,598.79,500.74,598.8,500.6,598.75Z"/><path class="cls-2" d="M499.47,600c-.09.37-.16.72-.21,1.06-.21.61-.3,1-.3,1S498.06,601.8,499.47,600Z"/><path class="cls-3" d="M500.83,653.47a2.1,2.1,0,0,1-.18.89C500.36,654.84,500.51,654.35,500.83,653.47Z"/><path class="cls-2" d="M500.83,653.47a2.1,2.1,0,0,1-.18.89C500.36,654.84,500.51,654.35,500.83,653.47Z"/><path class="cls-4" d="M502.21,600.79a18.68,18.68,0,0,1-4.43,8,9.43,9.43,0,0,1-4.51,2.55A65.37,65.37,0,0,1,482.08,613l.36-1.1-6,.78,3-2.55s-8.94-.7-13.27-2.3c-27.05-10-21.49,11.18-21.26,12-1.39-3.9-10.69-7-7.31-16.89C434,607,430.85,607,430.85,607c3.73-3.5,1.53-6.11,4.69-9.71h0c.13-.16.27-.31.42-.47a14.14,14.14,0,0,1,1.52-1.33c5.95-4.6,11-5,16-4.2-2-2.73-3.28-3.35-3.85-3.48,1.58.15,8.22.79,9.54,1.17,1.49.42-.95-3.25-3.93-4.06s13.81,1.9,14.9,3.26-1.77-4.2-4.33-4.88,34.09-2.5,36.31,15.71A14,14,0,0,1,502.21,600.79Z"/><path class="cls-4" d="M562.38,603c3.38,9.86-5.92,13-7.31,16.89.23-.84,5.79-22-21.26-12-4.33,1.6-13.27,2.3-13.27,2.3l3.05,2.55-6-.78.36,1.1a65.37,65.37,0,0,1-11.19-1.73,9.43,9.43,0,0,1-4.51-2.55,14.6,14.6,0,0,1-2.3-3,20.43,20.43,0,0,1-2.13-5,14,14,0,0,1,.11-1.74c2.22-18.21,38.81-16.36,36.31-15.71s-5.41,6.23-4.33,4.88,17.88-4.06,14.9-3.26-5.42,4.48-3.93,4.06c1.32-.38,8-1,9.54-1.17-.57.13-1.89.75-3.85,3.48a18.5,18.5,0,0,1,12.23,1.77h0a24.76,24.76,0,0,1,3.74,2.42,14.14,14.14,0,0,1,1.52,1.33c.15.16.29.31.42.47h0c3.16,3.6,1,6.21,4.69,9.71C569.15,607,566,607,562.38,603Z"/><path class="cls-4" d="M511.33,630.1c-1.13,8.79-5.45,26.58-6.84,25.89-1.81-.9-1.68-7.45-1.68-7.45s-1.34,3.21-2,4.93c.19-3.12-1.58-12.31-1.58-12.31s-1.11,1.26-2.39,9.2a16.44,16.44,0,0,1-4.19-6.66c-3-7.87-3.1-18.31-3.1-18.31s2.27,4.77,4.26,4.82,4.31-9.17,4.31-9.17,1.83,10.57,3.64,10,4.12-7.28,4.12-7.28l1.11,6.36s2-1.08,4.33-4.73C511.71,625.74,511.65,627.54,511.33,630.1Z"/><path class="cls-5" d="M511.33,630.1c-1.13,8.79-5.45,26.58-6.84,25.89-1.81-.9-1.68-7.45-1.68-7.45s-1.34,3.21-2,4.93c.19-3.12-1.58-12.31-1.58-12.31s-1.11,1.26-2.39,9.2a16.44,16.44,0,0,1-4.19-6.66l.2-.49s6.44-.11,5.74-6.31a31,31,0,0,0,6.29,7.48s-.84-4.72,0-7.48l2.7,4.2Z"/><path class="cls-5" d="M502.21,600.79a18.68,18.68,0,0,1-4.43,8,9.43,9.43,0,0,1-4.51,2.55A65.37,65.37,0,0,1,482.08,613l.36-1.1-6,.78,3-2.55s-8.94-.7-13.27-2.3c-27.05-10-21.49,11.18-21.26,12-1.39-3.9-10.69-7-7.31-16.89C434,607,430.85,607,430.85,607c3.73-3.5,1.53-6.11,4.69-9.71h0a47.63,47.63,0,0,0,5.41-1.49c-1.17,3,7.48.48,7.48.48S447,602.07,480,605.7c5,.55,5.73-2.58,5.73-2.58s-.65,3-1.77,4a58.87,58.87,0,0,0,7.59-5.65s-.89,5.07-2.42,5.88c5-1.85,11.95-4.66,12.93-8.25A14,14,0,0,1,502.21,600.79Z"/><path class="cls-5" d="M562.38,603c3.38,9.86-5.92,13-7.31,16.89.23-.84,5.79-22-21.26-12-4.33,1.6-13.27,2.3-13.27,2.3l3.05,2.55-6-.78.36,1.1a65.37,65.37,0,0,1-11.19-1.73,9.43,9.43,0,0,1-4.51-2.55,14.6,14.6,0,0,1-2.3-3l.94-1.44s12.6,4.86,15.21,5c-4.47-2.81-4.74-3.31-4.74-3.31a68.49,68.49,0,0,0,24.92-2.23c12.17-3.56,17.55-1.07,18.09-.79-.44-.3-4-2.72-4.22-4.5,0,0,13.22,2.38,8.65-5.39a24.76,24.76,0,0,1,3.74,2.42,14.14,14.14,0,0,1,1.52,1.33c.15.16.29.31.42.47h0c3.16,3.6,1,6.21,4.69,9.71C569.15,607,566,607,562.38,603Z"/><polygon class="cls-6" points="492.98 639.82 490.78 632.08 492.98 631.38 498.58 635.6 496.15 637.03 494.68 635.6 492.98 639.82"/><path class="cls-6" d="M485.91,591.81c.7.36,1.41.7,2.14,1,2.88,1.2,8.84,4.09,3.59,5.58-6.73,1.91-22.91,2.77-26.07-1,5.73,1.33,2.3-4.16,2.3-4.16,7.87,3.3,12.07-2.58,8.54-4.25C482.11,590.14,484.77,591.23,485.91,591.81Z"/><path class="cls-6" d="M521.42,588.32s-19.29,4.83-14.64,11,29.91-2.64,33.86-1.3c-8.21-2.16-4.11-4.33-2.91-4.59-11.09,1.5-4.75-2.86-4.75-2.86C520.4,595.07,518,590.1,521.42,588.32Z"/></g></g></g></svg>