<svg xmlns="http://www.w3.org/2000/svg" viewBox="0 0 1000 1000"><defs><style>.cls-1{fill:none;}.cls-2{fill:#993d8c;}.cls-3{fill:#4c2d00;}.cls-4{opacity:0.2;}.cls-5{fill:#ff66e2;}</style></defs><g id="Layer_2" data-name="Layer 2"><g id="OutPut"><rect id="BG" class="cls-1" width="1000" height="1000"/></g><g id="Mounth_Up"><g id="_9" data-name="9"><path class="cls-2" d="M592.91,622.79a52.78,52.78,0,0,1-4.6-5.59s-1.58,12.6-32.18,17.21c3.37-5.92-25,14.79-55.77,15.11h-.72c-30.82-.32-59.14-21-55.78-15.11-30.59-4.61-32.17-17.21-32.17-17.21a52.78,52.78,0,0,1-4.6,5.59c-12.39-13.84-10.22-28.48-4.95-39.64s11.9-2.37,11.9-2.37c0,16.14,4.27-.1,13.28.34-5.47,6,5.24,13.09,16.84,18.28l0,0,.13.06h0c1.49.67,3,1.29,4.46,1.89l.17.06.24.09a45.6,45.6,0,0,0,29.93,1.26l7.88-2.35h0l13.3-4h0l22.38,5.14a57.29,57.29,0,0,0,39.56-5l.29-.15c8.49-4.51,14.78-10.15,10.07-15.32,9-.44,13.29,15.8,13.29-.34,0,0,6.63-8.76,11.89,2.37S605.31,609,592.91,622.79Z"/><path class="cls-2" d="M569.67,557.64A67.88,67.88,0,0,1,564.78,573c-3.66,8-9.76,16.53-19.42,18.49-18.23,3.69-30.43-5.69-31.64-6.66,1,.87,8.54,7.71,13,8.37,4.8.71-26.61-1.26-26.74-16.19-.13,14.93-31.54,16.9-26.74,16.19,4.49-.66,12.07-7.5,13-8.37a39.45,39.45,0,0,1-31.64,6.66c-9.67-2-15.76-10.5-19.43-18.49a68.48,68.48,0,0,1-4.89-15.33c.48.4,15.94,13.43,22.51,13.21s5.2-2.56,14.38-6.5,19.38-1.76,19.38-1.76.84,0-7.3-3.63c14.8-1,20.7,5.39,20.7,5.39s5.9-6.35,20.71-5.39c-8.14,3.63-7.3,3.63-7.3,3.63s10.21-2.17,19.38,1.76,7.71,6.27,14.38,6.5S569.19,558,569.67,557.64Z"/><path class="cls-3" d="M500.47,614.49h0Z"/><path class="cls-3" d="M500,649h0Z"/><path class="cls-4" d="M592.91,622.79a52.78,52.78,0,0,1-4.6-5.59s-1.58,12.6-32.18,17.21c3.37-5.92-25,14.79-55.77,15.11h-.72c-30.82-.32-59.14-21-55.78-15.11-30.59-4.61-32.17-17.21-32.17-17.21a52.78,52.78,0,0,1-4.6,5.59c-12.4-13.84-10.22-28.48-4.95-39.64,0,.69-1.58,29,5.81,32.08,2.3-6,5.75-8.4,5.75-8.4s8.07,22.5,28.22,21.62c-1.67-4.18-2.18-5.46-2.31-5.8,0,0,26.49,18.77,59.59,18.77h1.6c33.1,0,59.59-18.77,59.59-18.77-.13.34-.65,1.62-2.31,5.8,20.15.88,28.22-21.62,28.22-21.62s3.45,2.39,5.75,8.4c7.39-3,5.85-31.39,5.81-32.08C603.13,594.31,605.31,609,592.91,622.79Z"/><path class="cls-4" d="M500.47,649h0Z"/><path class="cls-4" d="M564.77,573c-3.66,8-9.76,16.51-19.41,18.47-18.23,3.69-30.43-5.69-31.64-6.66,1,.87,8.54,7.71,13,8.37,4.8.71-26.61-1.26-26.74-16.19-.13,14.93-31.54,16.9-26.74,16.19,4.49-.66,12.07-7.5,13-8.37a39.45,39.45,0,0,1-31.64,6.66C445,589.5,438.9,581,435.23,573c32.48,25,45.46,5.71,45.46,5.71s2.09,2.56-6.95,8.68c7.46-.85,17.47-9.53,22.71-14.57a5.13,5.13,0,0,1,7.11,0c5.24,5,15.25,13.72,22.7,14.57-9-6.12-7-8.68-7-8.68S532.3,598,564.77,573Z"/><path class="cls-3" d="M499.52,649h0Z"/><path class="cls-3" d="M500,614.5h0Z"/><path class="cls-4" d="M500,649h0Z"/><path class="cls-5" d="M507.88,567.5s8.18-.75,7.68-2.06c4.56,1.44,12.25,5,14.32,4.87-8.69,0,3,4.88,8.13,4.63-16.76.52-25.51-2.88-24.45-.32C510.25,571.37,511.19,568,507.88,567.5Z"/><path class="cls-5" d="M492.13,567.5s-8.18-.75-7.68-2.06c-4.57,1.43-12.25,5-14.32,4.87,8.69,0-3,4.88-8.13,4.63,16.76.52,25.51-2.88,24.45-.32C489.76,571.37,488.82,568,492.13,567.5Z"/></g></g></g></svg>