<svg xmlns="http://www.w3.org/2000/svg" viewBox="0 0 1000 1000"><defs><style>.cls-1{fill:none;}.cls-2{opacity:0.1;}.cls-3{fill:#282828;}.cls-4{fill:#bdf6ff;}.cls-5{fill:#ff3636;}.cls-6,.cls-7{opacity:0.2;}.cls-8{fill:#fff;opacity:0.5;}</style></defs><g id="Layer_2" data-name="Layer 2"><g id="OutPut"><rect id="BG" class="cls-1" width="1000" height="1000"/></g><g id="Mouth_Low"><g class="cls-2"><path d="M489.29,620.82s-12.75-5.76-9.5-14.76,14.79-12.29,20.15-12.21,22.57-.54,20.65,14.09S489.29,620.82,489.29,620.82Z"/></g><path class="cls-3" d="M520.59,608.66c0,8.14-9,14.74-20,14.74s-20-6.6-20-14.74a15.24,15.24,0,0,1,1.14-5.85c2.36-5.7,8.44-10,18.86-8.89,18,2,19.83,6.05,20,13.27C520.59,607.66,520.59,608.15,520.59,608.66Z"/><path class="cls-4" d="M519.89,620.4c-.75,1.62-1.87,1.62-2.68.81-.38-.38,0,2.65.06,6,.06,3-.14,6.35-1.4,7.72a1.9,1.9,0,0,1-1.23.64c-4.43.43.32-7.07-1.62-7.38a9.61,9.61,0,0,1-2.94-1.62A13.62,13.62,0,0,0,503,624c-2.75-.13-6,.27-8.55.15s-4.15-.74-3.94-2.8v0c4.42-1,12.42.52,12.42.52l2.54-2.21,6.4-5.54,7.34-2.11,1-.28S520.64,618.77,519.89,620.4Z"/><path class="cls-5" d="M520.16,611.69c-.16.48-.15,1.37-.33,1.84-2.91,7.64-7.2,13.15-11.86,13.62a22.84,22.84,0,0,1-17.49-5.83c1.74-2.17,6.4-7,13.18-5.55C509.52,611,516.26,609.63,520.16,611.69Z"/><g class="cls-6"><path d="M503.66,615.77s.1,3.2,1.38,4.1c-.69-2.53-1.16-4.28-1.16-4.28Z"/></g><path class="cls-7" d="M520.58,607.19l-.71-.38c-20.95-11.43-18.77,0-20.39,0s.59-2-2.28-5-15.47,1-15.47,1c2.36-5.7,8.44-10,18.86-8.89C518.57,595.9,520.42,600,520.58,607.19Z"/><path class="cls-8" d="M515.87,635a.5.5,0,0,1-.3-.16c-.61-.62,1.28-6.32,1.7-7.56C517.33,630.26,517.13,633.58,515.87,635Z"/></g></g></svg>