<svg xmlns="http://www.w3.org/2000/svg" viewBox="0 0 1000 1000"><defs><style>.cls-1{fill:none;}.cls-2{fill:#282828;}.cls-3{fill:#ff3636;}.cls-4{fill:#232323;}.cls-5{opacity:0.2;}</style></defs><g id="Layer_2" data-name="Layer 2"><g id="OutPut"><rect id="BG" class="cls-1" width="1000" height="1000"/></g><g id="Mouth_Low"><g id="_4" data-name="4"><path class="cls-2" d="M519,609.76a18.9,18.9,0,0,1-2.41,9.24c-.12.22-.25.44-.38.65a19,19,0,0,1-31,2.13l0,0a19,19,0,0,1-3.25-5.9c-.06-.14-.1-.29-.15-.43a19,19,0,0,1-.86-5.66c0-.63,0-1.27,0-1.91,0-4.66,0-9.59,1.88-13.14l0-.05h0c2.21-4.13,7-6.33,17.13-3.93,10.48,2.48,15.2,5,17.32,8.65l0,0a9.79,9.79,0,0,1,.78,1.78.06.06,0,0,1,0,.06,22.51,22.51,0,0,1,.85,6.58C519,608.45,519,609.09,519,609.76Z"/><path class="cls-3" d="M515.82,620.31c-.23.42-.47.84-.72,1.25-4,6.67-8.93,11.11-13.37,10.78-4.87-.37-10.44-3.2-15-9l0,0a12.23,12.23,0,0,1,12.8-2.44h0l.07,0,.05,0h0c6.25-3.42,12.84-3.17,16.15-.62Z"/><path class="cls-4" d="M503.43,603a1,1,0,0,0-1,1.31c1,2.83,1.14,5.81-2.43,5.81s-3.4-3-2.44-5.81a1,1,0,0,0-1-1.31c-12.55.67-15.58,4.9-15.58,4.9,0-10.13.14-21.6,19-17.12,16.93,4,18.83,8,19,17.1C518.75,607.51,515.47,603.59,503.43,603Z"/><path class="cls-5" d="M481,609.76a19,19,0,0,0,.86,5.66c-4-12.12,1-20.76,1-20.76-1.89,3.55-1.92,8.51-1.9,13.19C481,608.49,481,609.13,481,609.76Z"/><path class="cls-5" d="M516.62,619h0a18.9,18.9,0,0,0,2.41-9.24c0-.67,0-1.31,0-1.93a22.51,22.51,0,0,0-.85-6.58C522.37,611.72,516.62,619,516.62,619Z"/><path class="cls-5" d="M516.23,619.65S512.15,633.1,502,633.1c-9.82,0-16.35-10.66-16.75-11.32a18,18,0,0,0,1.45,1.58l0,0c4.57,5.75,10.14,8.58,15,9,4.44.33,9.37-4.11,13.37-10.78.25-.41.49-.83.72-1.25h0A6.64,6.64,0,0,0,516.23,619.65Z"/><path class="cls-5" d="M500.75,627a25.75,25.75,0,0,1-1.25-6.1h0l.07,0,.05,0h0C499.88,622.25,500.25,625.1,500.75,627Z"/></g></g></g></svg>