<svg xmlns="http://www.w3.org/2000/svg" viewBox="0 0 1000 1000"><defs><style>.cls-1{fill:none;}.cls-2{fill:#282828;}.cls-3{fill:#ff3636;}.cls-4{fill:#232323;}.cls-5{opacity:0.2;}</style></defs><g id="Layer_2" data-name="Layer 2"><g id="OutPut"><rect id="BG" class="cls-1" width="1000" height="1000"/></g><g id="Mouth_Low"><g id="_5" data-name="5"><path class="cls-2" d="M521.15,609.24a37.53,37.53,0,0,1-4.7,6.28h0l-.72.76-.87.86c-4.79,4.57-10.45,7.41-15.29,6.76a28,28,0,0,1-15.83-8l-.62-.63c-.54-.58-1.05-1.17-1.55-1.8l0,0a29.73,29.73,0,0,1-4.68-8.46,34.91,34.91,0,0,1-1.95-10.27s35.75,7.9,50.4.83A27,27,0,0,1,521.15,609.24Z"/><path class="cls-3" d="M515.73,616.29l-.87.86c-4.79,4.57-10.45,7.41-15.29,6.76a28,28,0,0,1-15.83-8,18.14,18.14,0,0,1,13.93-.65l.23.08.25-.06C505.16,613.33,512.3,614.11,515.73,616.29Z"/><path class="cls-4" d="M521.15,609.24a71.84,71.84,0,0,0-19.25-4.92.41.41,0,0,0-.45.49c.49,2.21.28,4.33-2.44,4.11s-2.57-2.38-1.72-4.49a.41.41,0,0,0-.36-.56A83,83,0,0,0,476.87,605a34.91,34.91,0,0,1-1.95-10.27s35.75,7.9,50.4.83A27,27,0,0,1,521.15,609.24Z"/><path class="cls-4" d="M474.92,594.69l-1.75-.5s1.77.65,1.77,1Z"/><path class="cls-4" d="M525.32,595.52l2-1.2s-1.88,1.24-2,2.26Z"/><path class="cls-5" d="M516.45,615.53c-.18.3-6.25,10-17.26,9.12-10.83-.88-17.23-10.6-17.62-11.2.5.63,1,1.22,1.55,1.8l.62.63a28,28,0,0,0,15.83,8c4.84.65,10.5-2.19,15.29-6.76l.87-.86Z"/><path class="cls-5" d="M499.75,620.59a38.49,38.49,0,0,1-2.08-5.36l.23.08.25-.06A19.5,19.5,0,0,1,499.75,620.59Z"/></g></g></g></svg>