<svg xmlns="http://www.w3.org/2000/svg" viewBox="0 0 1000 1000"><defs><style>.cls-1{fill:none;}.cls-2{fill:#380f13;}.cls-3{fill:#ffeddc;}.cls-4{fill:#260b0b;}.cls-5{fill:#ae312f;}.cls-6{opacity:0.2;}.cls-7{opacity:0.1;}</style></defs><g id="Layer_2" data-name="Layer 2"><g id="OutPut"><rect id="BG" class="cls-1" width="1000" height="1000"/></g><g id="Mouth_Low"><g id="_6" data-name="6"><path class="cls-2" d="M534.81,595.15c0,.09,0,.18,0,.26A22.1,22.1,0,0,1,531,606.54q-.23.35-.48.69a44.9,44.9,0,0,1-11,11.22,29.54,29.54,0,0,1-17.85,5.36,28.75,28.75,0,0,1-3-.23h-.05a29.71,29.71,0,0,1-14.47-6.15c-.84-.66-1.64-1.34-2.41-2.06a47.48,47.48,0,0,1-7.85-9.65c-.46-.73-.86-1.45-1.21-2.15a22,22,0,0,1-2.49-10.28v0a15,15,0,0,1,.11-1.63,11.42,11.42,0,0,1,.38-2.06l.12,0h0c.1,0,.26.06.52.14.42.12.84.24,1.28.34l.18,0,1.45.37c.62.16,1.25.3,1.88.44l1.22.27c1,.22,2.09.43,3.15.63s2.16.38,3.25.55c.53.08,1.06.17,1.59.24h0l1.07.15.28,0,.86.11.25,0,.42,0,1.61.19h0c.35,0,.71.08,1.06.1s.68.07,1,.11l1.3.12h.2l.3,0h.15l.24,0,.39,0c.38,0,.74.06.94.07l.11,0,.34,0h.1l.38,0,.93.06c2.18.14,4.37.22,6.56.27a131.79,131.79,0,0,0,30-2.56l.61-.12h0l0,0a11.33,11.33,0,0,1,.27,2A16.68,16.68,0,0,1,534.81,595.15Z"/><path class="cls-3" d="M519.45,618.45a29.54,29.54,0,0,1-17.85,5.36,28.75,28.75,0,0,1-3-.23h-.05a29.71,29.71,0,0,1-14.47-6.15,5.58,5.58,0,0,1,2.81-1.66,2.88,2.88,0,0,1,.42-.11,20.21,20.21,0,0,1,8.15.17,40.16,40.16,0,0,0,12.71.38,26,26,0,0,1,5.44-.19,13.82,13.82,0,0,1,2.71.49A6,6,0,0,1,519.45,618.45Z"/><path class="cls-4" d="M497.33,593.86c-1,0-1.87,0-2.75.06h0a45.67,45.67,0,0,0-8.52,1c-4.79,1.08-7.7,2.84-9.45,4.62a9.15,9.15,0,0,0-2.42,4.09,6.12,6.12,0,0,0-.23,2l-.12,0c-.46-.73-.86-1.45-1.21-2.15a22,22,0,0,1-2.49-10.28v0a14.44,14.44,0,0,1,.49-3.69l.12,0h0l.27.1a.25.25,0,0,1,.09,0l.15,0c5.16,1.8,7.74,2,14.29,2.88l.83.12.28,0h.09l1.44.19.6.08,1,.11h0l.34,0,.72.07c.33,0,.68.07,1,.11l1,.09h.14l.23,0h.11l.3,0,.78.06c.38,0,.74.06.94.07l.11,0,.34,0,.48,0Z"/><path class="cls-4" d="M534.81,595.24a.88.88,0,0,0,0,.17A22.1,22.1,0,0,1,531,606.54q-.23.35-.48.69a5.28,5.28,0,0,0-.17-.73,11.51,11.51,0,0,0-3.56-5.08c-3.47-3-10.11-6.32-22.85-7.29,12.47.26,20.51.2,30-2.51l.31-.08.11,0,.19-.06h0l0,0A14.34,14.34,0,0,1,534.81,595.24Z"/><path class="cls-3" d="M486.41,592.8c0,.1-.18,1-.36,2.13-.09.61-.18,1.3-.27,2-.08.53-.14,1.06-.2,1.57a3,3,0,0,1-3.53,2.55c-.49-.1-1-.2-1.44-.32h0c-.94-.22-1.86-.46-2.73-.73-7.44-2.26-7.11-7.81-6.57-10.25A113.61,113.61,0,0,0,486.41,592.8Z"/><path class="cls-3" d="M526.68,601.44c-6,1.44-13.78,1.73-19,1.75h-.38c-1.84,0-3.3,0-4.2-.06l-.94,0s-1.34,0-3.47-.12l-1.08,0a3.47,3.47,0,0,1-3.21-4,20.89,20.89,0,0,0,.28-2.64c0-.23,0-.46,0-.69a7.72,7.72,0,0,0-.2-1.85v-.06h0c.38,0,.74.06.94.07.61.06,1.24.09,1.86.13,2.18.14,4.37.22,6.56.27a131.79,131.79,0,0,0,30-2.56C534.24,594,534.26,599.62,526.68,601.44Z"/><path class="cls-5" d="M513.65,616l0,0a26,26,0,0,0-5.44.18,40.09,40.09,0,0,1-12.7-.37,20.27,20.27,0,0,0-8.16-.18s4.69-5.21,13-.69C508.33,610.78,513.65,616,513.65,616Z"/><path class="cls-4" d="M500.7,608.27c-6.24-.18-2.37-5.31-2.37-5.31h.4c2.14.1,3.47.12,3.47.12l.95,0C503.42,603.52,506.7,608.45,500.7,608.27Z"/><path class="cls-4" d="M494.72,596.27c-3.36.12-6.31-1.86-8.66-1.34.17-1.15.31-2,.35-2.13l.38.05,2,.26c.7.09,1.4.16,2.11.23s1.36.14,2,.19c.32,0,1,.09,1.56.14h0A9.24,9.24,0,0,1,494.72,596.27Z"/><path class="cls-4" d="M465.3,587.81a3.75,3.75,0,0,1,.54.17Z"/><path class="cls-4" d="M470.62,589.56l-.27,2.1-.22,1.59v0a6.11,6.11,0,0,0-.47-1.87,6.64,6.64,0,0,0-3.76-3.4Z"/><path class="cls-4" d="M534.52,591.43l4.9-1.56a7.31,7.31,0,0,0-4.16,3.45,5,5,0,0,0-.45,1.83c0,.09,0,.18,0,.26l-.14-2Z"/><path class="cls-4" d="M539.76,589.75l-.33.11Z"/><path class="cls-6" d="M531,606.54s-9.16,18.71-30,18.09-28.36-21.07-28.36-21.07h0c.35.7.75,1.42,1.21,2.15a45,45,0,0,0,10.26,11.71,29.55,29.55,0,0,0,35.36,1,44.9,44.9,0,0,0,11-11.22q.25-.35.48-.69Z"/><path class="cls-7" d="M498.56,623.57a29.71,29.71,0,0,1-14.47-6.15,5.58,5.58,0,0,1,2.81-1.66C486.87,616,486.3,621.16,498.56,623.57Z"/><path class="cls-7" d="M485.78,596.93c-.08.53-.14,1.06-.2,1.57a3,3,0,0,1-3.53,2.55c-.49-.1-1-.2-1.44-.32A5.25,5.25,0,0,0,485.78,596.93Z"/><path class="cls-6" d="M494.52,593.67h0v0Z"/><path class="cls-7" d="M507.34,603.18c-1.84,0-3.3,0-4.2-.06l-.94,0s-1.34,0-3.47-.12l-1.08,0a3.47,3.47,0,0,1-3.21-4,20.89,20.89,0,0,0,.28-2.64c0-.23,0-.46,0-.69C495.35,598.35,497.79,603.14,507.34,603.18Z"/><path d="M465.3,587.81a3.75,3.75,0,0,1,.54.17Z"/><path class="cls-7" d="M534.52,591.43l4.9-1.56a7.31,7.31,0,0,0-4.16,3.45l-.15,0-.32,0-.14,0c-39.38,5.82-60.39-.41-64.3-1.75l-.11,0-.57-.21h0a6.64,6.64,0,0,0-3.76-3.4l4.72,1.55.12,0h0c.1,0,.26.06.52.14.42.12.84.24,1.28.34l.18,0,1.45.37c.62.16,1.25.3,1.88.44l1.22.27c1,.22,2.09.43,3.15.63s2.16.38,3.25.55c.53.08,1.06.17,1.59.24h0l1.07.15.28,0,.86.11.25,0,.42,0,1.61.19h0c.35,0,.71.08,1.06.1s.68.07,1,.11l1.3.12h.2l.3,0h.15l.24,0,.39,0c.38,0,.74.06.94.07l.11,0,.34,0h.1l.38,0,.93.06c2.18.14,4.37.22,6.56.27a131.79,131.79,0,0,0,30-2.56l.61-.12h0Z"/><path d="M539.76,589.75l-.33.11Z"/></g></g></g></svg>