<svg xmlns="http://www.w3.org/2000/svg" viewBox="0 0 1000 1000"><defs><style>.cls-1{fill:none;}.cls-2{fill:#282828;}.cls-3{fill:#827e7d;}.cls-4{fill:#ef7800;}.cls-5{fill:#f7c328;}.cls-6{fill:#f2e975;}.cls-7{fill:#9b9a9a;}.cls-8{opacity:0.2;}.cls-9{opacity:0.6;}.cls-10{opacity:0.42;}</style></defs><g id="Layer_2" data-name="Layer 2"><g id="OutPut"><rect id="BG" class="cls-1" width="1000" height="1000"/></g><g id="Mouth_Low"><g id="_0" data-name="0"><path class="cls-2" d="M525.23,604.79c.19,2.06-4,4.14-9.44,4.65a20.22,20.22,0,0,1-6.85-.42c-1.93-.5-3.2-1.36-3.3-2.42a2.4,2.4,0,0,1,.5-2.08l1-.68h0c1.32-.65,3.71-1.24,7.94-1.88C521.82,600.93,525,602.71,525.23,604.79Z"/><path class="cls-2" d="M529.63,604.84a16.37,16.37,0,0,1-10.51,6.68Z"/><polygon class="cls-3" points="419.84 664.07 419.88 667.56 422.44 668.63 422.63 674.15 426.28 674.62 429.81 680.42 435.78 681.73 438.46 684.38 449.27 652.67 419.84 664.07"/><path class="cls-4" d="M426.28,674.62l3.46,5.28,6,1.83,2.67,1.89h0l1.09-.39,1.55-1.67,2.75-8.66,1-3.1-1-1.23L435,657.18,423,661.91l-2.18,1.51,0,.16,0,.29-.39,3.13,2.11,1.63.75,4.88Z"/><polygon class="cls-5" points="425.4 663.28 422.52 665.96 424.89 670.03 424.51 672.26 428.83 675.13 429.98 677.28 437.47 681.36 443.98 677.94 443.77 662.35 430.42 661.23 425.4 663.28"/><polygon class="cls-6" points="428.88 664.77 427.77 669.97 432.13 674.61 437.91 677.11 447.95 664.66 428.88 664.77"/><path class="cls-3" d="M509.25,608.68c-.09.1-.19.22-.31.34-1.29,1.42-4,4.33-7.61,8.23-16.11,17.29-50.44,53.88-60.22,64.31l-1.55,1.66-1.1,1.16h0v-.76l0-2.79h0v-.35h0l-1.86-1.79v-.75l0-1.37-.05-2.68h0L433,670.45,431.11,667l-2.63,0,0-.09-1.87-3.1-3,1.37-.09-.11-1.13-1.54-1.65.38-.89.19.94-.64,2.19-1.5.67-.48,66.3-45.75,6.88-4.74,9.32-6.43,1-.68h0S510.7,604.83,509.25,608.68Z"/><path class="cls-7" d="M509.25,608.68c-.09.1-.19.22-.31.34-1.29,1.42-4,4.33-7.61,8.23a12.71,12.71,0,0,0-4.51-6.3l9.32-6.43,1-.68h0S510.7,604.83,509.25,608.68Z"/><polygon class="cls-8" points="419.84 664.07 423.41 662.77 422.38 663.48 419.84 664.07"/><polygon class="cls-8" points="423.6 665.14 427.92 662.63 426.57 663.77 423.6 665.14"/><polygon class="cls-8" points="428.48 666.96 432.6 666.42 431.11 666.97 428.48 666.96"/><polygon class="cls-8" points="436.64 678.66 436.95 672.11 436.55 673.86 436.64 678.66"/><polygon class="cls-8" points="438.46 684.38 438.85 679.31 438.5 680.47 438.46 684.38"/><path class="cls-8" d="M509.25,608.68c-.09.1-.19.22-.31.34-1.29,1.42-4,4.33-7.61,8.23-16.11,17.29-50.44,53.88-60.22,64.31l-1.55,1.66-1.1,1.16h0v-.76l0-2.79h0v-.35h0l-1.86-1.79v-.75s0,0,0,0l.58-.54.37-.34,1.68-1.6c1.12-1.06,2.22-2.1,3.29-3.14.44-.41.88-.82,1.3-1.23l.81-.78c37.85-36.41,45.07-49.69,45.24-54.55l6.88-4.74,9.32-6.43,1-.68h0S510.7,604.83,509.25,608.68Z"/><path class="cls-9" d="M436.64,678.66l1.86,1.81c1-1.8-1-2.54-1.91-3.94Z"/><path class="cls-9" d="M400.63,662.79c.46,26.56,37.83,21.59,37.83,21.59a2.23,2.23,0,0,1-.58-1.18l-2.1-1.47-6-1.83-3.45-5.28-3.1-1.11-.74-4.88L420.33,667l.39-3.14,1.66-.38,1.22,1.66,3-1.37,1.91,3.19,2.63,0,1.9,3.47,3.54,3.41c1.68-3.59-5-7.49-5-7.49s-2.11-.66-8.59-5.46,8.94-21.1-14.28-31.53-4.59-30.62-4.59-30.62S354.74,616.11,394,643.31,406.62,676.46,400.63,662.79Z"/><path class="cls-10" d="M438.5,680.47a4.2,4.2,0,0,0-.62,2.73l.59.41Z"/><path class="cls-10" d="M436.59,676.53l0-2.67A2.58,2.58,0,0,0,436.59,676.53Z"/></g></g></g></svg>