<svg xmlns="http://www.w3.org/2000/svg" viewBox="0 0 1000 1000"><defs><style>.cls-1{fill:none;}.cls-2,.cls-6{fill:#f2bfa2;}.cls-3{fill:#e19d7a;}.cls-4{fill:#dfe3e4;}.cls-5{opacity:0.4;}.cls-6{opacity:0.2;}.cls-7{fill:#100f0e;opacity:0.5;}.cls-8{fill:#b3b0ab;}</style></defs><g id="Layer_2" data-name="Layer 2"><g id="OutPut"><rect id="BG" class="cls-1" width="1000" height="1000"/></g><g id="Head"><g id="_1" data-name="1"><ellipse class="cls-2" cx="275.31" cy="445.44" rx="30" ry="35.75"/><path class="cls-3" d="M269.5,414s-11.5,32.82,8,62.79S269.5,414,269.5,414Z"/><ellipse class="cls-2" cx="724.69" cy="445.44" rx="30" ry="35.75"/><path class="cls-3" d="M730.5,414s11.5,32.82-8,62.79S730.5,414,730.5,414Z"/><path class="cls-4" d="M276.83,478a7.33,7.33,0,0,1-7.33,7.33,7.36,7.36,0,0,1-7.33-7.33,7.33,7.33,0,0,1,14.66,0Z"/><path class="cls-2" d="M733.11,419.34c-9.68,94.78-59.39,173-153.22,199.92l-.16,0-2.81.77a241,241,0,0,1-26.25,5.64c-.62.11-1.24.2-1.87.3-1.34.2-2.69.4-4,.58l-1.68.24-2.16.28q-6.67.82-13.6,1.35l-2.34.15q-10.53.72-21.6.71-14.85,0-28.67-1.14l-2.29-.2c-1.91-.17-3.81-.35-5.69-.56-2.73-.28-5.43-.61-8.1-1l-.57-.07c-1-.14-2.06-.28-3.09-.44-1.21-.17-2.42-.36-3.62-.54l-1.89-.31q-10.27-1.68-19.92-4c-2.1-.52-4.18-1.05-6.23-1.61l-1.74-.47-1.17-.33C322.57,591,275.23,512.09,266.58,414q-1.24-14-1.44-28.58c-1-74.65,37.84-138.08,89.62-180.2h0c42.89-34.9,94.65-55.2,140-55.16,47.39,0,102.45,20.18,147.89,55.55h0l.15.11C694.6,246.1,733.85,306.28,734.85,379A348.57,348.57,0,0,1,733.11,419.34Z"/><g class="cls-5"><path class="cls-2" d="M652.61,448.32a61.27,61.27,0,0,1,1.63,75.41,40.14,40.14,0,0,0,9.6-1.25c.38-.81.77-1.58,1.15-2.38,6.08.24,18.6-1.07,20-15.5H669.89c.26-1.23.45-2.46.64-3.68,7.71-1,18.93-4.22,18.93-14.82,0-10.85-12.14-14.16-20-15.15-.26-1.28-.54-2.51-.83-3.68h16.34c-1.46-15.88-16.44-15.88-21.57-15.39-.35-.81-.57-1.24-.57-1.24A41.14,41.14,0,0,0,652.61,448.32Z"/></g><path class="cls-6" d="M465.14,489.61l-123.8-1.44s-5.12,55.46,66.89,55.46c28.76,0,53.8-9.07,56.91-54Z"/><path class="cls-6" d="M538,489.61l120.65-1.44s5,55.46-65.19,55.46c-28,0-52.44-9.07-55.46-54Z"/><path class="cls-7" d="M651.67,523.25s-2.48,14.87-17.73,17.5c.75,8,1.23,9.37,1.23,9.37h-8.62a18.23,18.23,0,0,1-2.5,9.5c3.25-3.37,9.12-4.62,10.62-4.24s-2.19,16.24,3.19,22c.81-2.87,1.44-8.62,3.06-8.12-.5-11.75-.5-14-.5-14s11.25-1,8.13,3.87c2.37-1.12,2.5-8.37,1-9.37s-9.24,0-9.24,0l.36-8.82S650.42,536.25,651.67,523.25Z"/><path class="cls-8" d="M263.73,482.5a7.22,7.22,0,0,1-1.56-4.5,7.33,7.33,0,0,1,7.33-7.33S261.26,475.81,263.73,482.5Z"/><polygon class="cls-8" points="269.5 481.19 269.5 497 265.17 497 269.5 481.19"/><polygon class="cls-4" points="269.5 497 269.5 518.25 265.17 497 269.5 497"/><polygon class="cls-4" points="273.83 497 269.5 497 269.5 481.19 273.83 497"/><polygon class="cls-8" points="273.83 497 269.5 518.25 269.5 497 273.83 497"/></g></g></g></svg>