<svg xmlns="http://www.w3.org/2000/svg" viewBox="0 0 1000 1000"><defs><style>.cls-1{fill:none;}.cls-2{fill:#aa6c43;}.cls-3,.cls-5{fill:#633b22;}.cls-4{fill:#ab6c43;}.cls-5{opacity:0.2;}.cls-6{fill:#9bf8ff;}.cls-7{fill:#68cbc6;}</style></defs><g id="Layer_2" data-name="Layer 2"><g id="OutPut"><rect id="BG" class="cls-1" width="1000" height="1000"/></g><g id="Head"><g id="_2" data-name="2"><ellipse class="cls-2" cx="275.31" cy="445.32" rx="30" ry="41.06"/><path class="cls-3" d="M269.5,409.18s-11.5,37.7,8,72.12S269.5,409.18,269.5,409.18Z"/><ellipse class="cls-2" cx="724.69" cy="445.32" rx="30" ry="41.06"/><path class="cls-3" d="M730.5,409.18s11.5,37.7-8,72.12S730.5,409.18,730.5,409.18Z"/><path class="cls-4" d="M733.11,419.34c-9.68,94.78-59.39,173-153.22,199.92l-.16,0-2.81.77a241,241,0,0,1-26.25,5.64c-.62.11-1.24.2-1.87.3-1.34.2-2.69.4-4,.58l-1.68.24-2.16.28q-6.67.82-13.6,1.35l-2.34.15q-10.53.72-21.6.71-14.85,0-28.67-1.14l-2.29-.2c-1.91-.17-3.81-.35-5.69-.56-2.73-.28-5.43-.61-8.1-1l-.57-.07c-1-.14-2.06-.28-3.09-.44-1.21-.17-2.42-.36-3.62-.54l-1.89-.31q-10.27-1.68-19.92-4c-2.1-.52-4.18-1.05-6.23-1.61l-1.74-.47-1.17-.33C322.57,591,275.23,512.09,266.58,414q-1.24-14-1.44-28.58c-1-74.65,37.84-138.08,89.62-180.2h0c42.89-34.9,94.65-55.2,140-55.16,47.39,0,102.45,20.18,147.89,55.55h0l.15.11C694.6,246.1,733.85,306.28,734.85,379A348.57,348.57,0,0,1,733.11,419.34Z"/><path class="cls-3" d="M652.61,448.32a61.27,61.27,0,0,1,1.63,75.41,40.14,40.14,0,0,0,9.6-1.25c.38-.81.77-1.58,1.15-2.38,6.08.24,18.6-1.07,20-15.5H669.89c.26-1.23.45-2.46.64-3.68,7.71-1,18.93-4.22,18.93-14.82,0-10.85-12.14-14.16-20-15.15-.26-1.28-.54-2.51-.83-3.68h16.34c-1.46-15.88-16.44-15.88-21.57-15.39-.35-.81-.57-1.24-.57-1.24A41.14,41.14,0,0,0,652.61,448.32Z"/><path class="cls-5" d="M465.14,489.61l-123.8-1.44s-5.12,55.46,66.89,55.46c28.76,0,53.8-9.07,56.91-54Z"/><path class="cls-5" d="M538,489.61l120.65-1.44s5,55.46-65.19,55.46c-28,0-52.44-9.07-55.46-54Z"/><polygon class="cls-6" points="276.91 482.95 263.3 496.56 263.3 482.95 276.91 482.95"/><polygon class="cls-7" points="276.91 482.95 263.3 482.95 263.3 469.33 276.91 482.95"/><polygon class="cls-7" points="263.3 482.95 263.3 496.56 249.68 482.95 263.3 482.95"/><polygon class="cls-6" points="263.3 469.33 263.3 482.95 249.68 482.95 263.3 469.33"/></g></g></g></svg>