<svg xmlns="http://www.w3.org/2000/svg" viewBox="0 0 1000 1000"><defs><style>.cls-1{fill:none;}.cls-2{fill:#a08a72;}.cls-3{fill:#d1b693;}.cls-4{opacity:0.6;}.cls-5{opacity:0.2;}</style></defs><g id="Layer_2" data-name="Layer 2"><g id="OutPut"><rect id="BG" class="cls-1" width="1000" height="1000"/></g><g id="Head"><g id="_3" data-name="3"><path class="cls-2" d="M708,494.48l6.29-4.56s26.21-17.94,18-77.19S708,494.48,708,494.48Z"/><path class="cls-2" d="M292,494.48l-6.29-4.56s-26.21-17.94-18-77.19S292,494.48,292,494.48Z"/><path class="cls-3" d="M732.65,424a288.44,288.44,0,0,1-13.19,59.78,246.73,246.73,0,0,1-9.33,23.51q-2.05,4.5-4.29,8.87c-25.1,49.11-66.74,86.52-126,103.53l-.16.05-2.81.77a241,241,0,0,1-26.25,5.64c-.62.11-1.24.2-1.87.3-1.34.2-2.69.4-4,.58q-.84.13-1.68.24l-2.16.28q-6.67.83-13.6,1.35L525,629q-10.53.72-21.6.71-14.85,0-28.67-1.14l-2.29-.2q-7-.61-13.79-1.53l-.57-.07c-1-.14-2.06-.28-3.09-.44-1.21-.17-2.42-.36-3.62-.54l-1.89-.31a257.69,257.69,0,0,1-26.15-5.63l-1.74-.47-1.17-.33C313.23,588.77,266.66,497,265.14,385.82c-1.87-136.48,129.57-235.45,229.58-235.37,101.52.07,238.25,92.46,240.13,229A346.13,346.13,0,0,1,732.65,424Z"/><path class="cls-4" d="M719.46,483.77l.86-9-6.63,4.5,4.25,1.5-6.25-.75-9.75,5.25,15.12-11.63s5-17.87,5-18.5-8.24,5.26-8.24,5.26l-24.88-8.63,24.25,5.87,12.42-10.29-.84-7.83-16.66-7.33L725.77,438l1.17,7.67L732.65,424A288.44,288.44,0,0,1,719.46,483.77Z"/><path class="cls-2" d="M498.83,508c-13.08,0-16.93,19.24-7.7,19.24s7.7-7.69,7.7-7.69Z"/><path class="cls-2" d="M501.17,508c13.08,0,16.93,19.24,7.7,19.24s-7.7-7.69-7.7-7.69Z"/><path class="cls-2" d="M394.54,582.65s-11.75-21.25-49.75-40.5Z"/><path class="cls-2" d="M605.46,582.65s11.75-21.25,49.75-40.5Z"/><ellipse class="cls-5" cx="401.67" cy="493.82" rx="65" ry="62.33"/><ellipse class="cls-5" cx="598.33" cy="493.82" rx="65" ry="62.33"/></g></g></g></svg>