<svg xmlns="http://www.w3.org/2000/svg" viewBox="0 0 1000 1000"><defs><style>.cls-1{fill:none;}.cls-2{fill:#5e5651;}.cls-3{fill:#1c1817;}.cls-4{fill:#443e3c;}.cls-5{fill:#282423;}</style></defs><g id="Layer_2" data-name="Layer 2"><g id="OutPut"><rect id="BG" class="cls-1" width="1000" height="1000"/></g><g id="Head"><g id="_4" data-name="4"><path class="cls-2" d="M289.08,490.45s-44.32-8.33-47.65-173.67C318.76,378.12,289.08,490.45,289.08,490.45Z"/><path class="cls-3" d="M268.85,347.76s-21.76,79.32,16.92,138.93S268.85,347.76,268.85,347.76Z"/><path class="cls-4" d="M272.71,447.08s-4.82,5.83-4.62,8.33c-6.55-10.17,7.9-6.67-4.24-18,8.86.67-4.63-30-7.13-31.5,11.17,0,4.82-32.17,2.89-34,13.68,1.5,18.3-15.67,18.3-15.67L287,450.41Z"/><path class="cls-2" d="M710.92,490.45s44.32-8.33,47.65-173.67C681.24,378.12,710.92,490.45,710.92,490.45Z"/><path class="cls-3" d="M731.15,347.76s21.76,79.32-16.92,138.93S731.15,347.76,731.15,347.76Z"/><path class="cls-4" d="M727.29,447.08s4.82,5.83,4.62,8.33c6.55-10.17-7.9-6.67,4.24-18-8.86.67,4.63-30,7.13-31.5-11.17,0-4.82-32.17-2.89-34-13.68,1.5-18.3-15.67-18.3-15.67L713,450.41Z"/><path class="cls-2" d="M579.89,619.65l-.16.05-2.81.77a241,241,0,0,1-26.25,5.64c-.62.11-1.24.2-1.87.3-1.34.2-2.69.4-4,.58l-1.68.24-2.16.28q-6.67.82-13.6,1.35L525,629q-10.53.72-21.6.71-14.85,0-28.67-1.14l-2.29-.2q-7-.61-13.79-1.53l-.57-.07c-1-.14-2.06-.28-3.09-.44-1.21-.17-2.42-.36-3.62-.54l-1.89-.31a257.69,257.69,0,0,1-26.15-5.63l-1.74-.47-1.17-.33C313.23,588.74,266.66,497,265.14,385.79c-1.87-136.48,129.57-235.45,229.58-235.37,101.52.07,238.25,92.46,240.13,229C736.38,491.8,686.75,589,579.89,619.65Z"/><path class="cls-4" d="M292,512s4.07,23.67,2.37,33.91c9.3-4,9,25.33,9,25.33s14.72-10,22.87,12.58c0,0,12.24-.67,28.83,18.16-1.45-10.62,29.17,3.39,29.17,3.39s-27.69-25.17-7.51-32c0,0-29.59-2.18-19-22.34-18,6.46-32.52-20.42-35.4-34.65C314.76,530.78,305.27,527.79,292,512Z"/><path class="cls-4" d="M708,512s-4.07,23.67-2.37,33.91c-9.3-4-9,25.33-9,25.33s-14.72-10-22.87,12.58c0,0-12.24-.67-28.83,18.16,1.45-10.62-29.2,3.91-29.2,3.91s27.72-25.69,7.54-32.5c0,0,29.59-2.18,19-22.34,18,6.46,32.52-20.42,35.4-34.65C685.24,530.78,694.73,527.79,708,512Z"/><path class="cls-5" d="M337.64,421.15s16.66,103.86,75,145.67"/><path class="cls-5" d="M385.3,405.15S402,509,460.3,550.82"/><path class="cls-5" d="M353,396.82s22.22,131.9,100,185"/><path class="cls-5" d="M344.8,507.48s33.34,85,117.67-7.33C424.14,488.15,344.8,507.48,344.8,507.48Z"/><path class="cls-5" d="M655.2,507.48s-33.34,85-117.67-7.33C575.86,488.15,655.2,507.48,655.2,507.48Z"/></g></g></g></svg>