<svg xmlns="http://www.w3.org/2000/svg" viewBox="0 0 1000 1000"><defs><style>.cls-1{fill:none;}.cls-2{fill:#551112;}.cls-3{fill:#94a384;}.cls-4{fill:#65715b;}</style></defs><g id="Layer_2" data-name="Layer 2"><g id="OutPut"><rect id="BG" class="cls-1" width="1000" height="1000"/></g><g id="Head"><g id="_5" data-name="5"><path class="cls-2" d="M256.14,423.5s4.35,18.24,1.31,25.24,3.42-16.8,10.33-17.84-5.62,23-5.62,23l-10.88-.58Z"/><path class="cls-2" d="M742.08,521.72l-9.17-19.27,1.5-17.88,2-6.62-.33-1.27-1.17-4.49-1.75-41.87,3.45-8.89a29.52,29.52,0,0,1,7.07,7.16,30,30,0,0,0-1.69,6.64c-1.33,9.44,1.52,18.21,2.55,19.72-5.38,5-9.26,31.74-5.5,40.37C747.91,502,742.08,521.72,742.08,521.72Z"/><path class="cls-3" d="M299.87,448.87c0,17.65-12.18,31.95-27.21,31.95s-27.2-14.3-27.2-31.95c0-10.34,4.19-19.54,10.68-25.37l1.52,13.19-1.38,10.88,9.88-15.5,6.33-15.15h.17C287.69,416.92,299.87,431.23,299.87,448.87Z"/><path class="cls-3" d="M739.16,446.24l3.33,8.83-5.67,21.1c-.24.18-.49.35-.74.51a24.06,24.06,0,0,1-13.42,4.14c-15,0-27.2-14.3-27.2-31.95,0-10.34,4.19-19.54,10.68-25.37l1.52,13.19-1.38,10.88,9.88-15.5,6.33-15.15h.17a24.17,24.17,0,0,1,14,4.51,29.52,29.52,0,0,1,7.07,7.16l.06.08c-.6,2.21-1.2,4.45-1.75,6.56C740.41,441.27,739.16,446.24,739.16,446.24Z"/><path class="cls-4" d="M270.65,404.74s-17.33,51.33,18,89S270.65,404.74,270.65,404.74Z"/><path class="cls-4" d="M694.27,489.25l9-.25s34.46-19.6,26.21-78.85S694.27,489.25,694.27,489.25Z"/><path class="cls-3" d="M731.21,503.62c-2.81-11.21-.21-22.3,6-29.66l-.36,21.85,5.38,7.75s0,9.34-.16,18.16A35.37,35.37,0,0,1,731.21,503.62Z"/><path class="cls-3" d="M579.89,619.68l-.16.05-2.81.77a241,241,0,0,1-26.25,5.64c-.62.11-1.24.2-1.87.3-1.34.2-2.69.4-4,.58q-.84.13-1.68.24l-2.16.28q-6.67.83-13.6,1.35L525,629q-10.53.72-21.6.71-14.85,0-28.67-1.14l-2.29-.2q-7-.61-13.79-1.53l-.57-.07c-1-.14-2.06-.28-3.09-.44-1.21-.17-2.42-.36-3.62-.54l-1.89-.31a257.69,257.69,0,0,1-26.15-5.63l-1.74-.47a3.51,3.51,0,0,1-1.17-.33C293.9,526.67,266.66,497,265.14,385.82c-1.87-136.48,129.57-235.45,229.58-235.37,101.52.07,238.25,92.46,240.13,229C736.38,491.83,663.23,547.34,579.89,619.68Z"/><path class="cls-4" d="M319.2,510.57s9,33,41.5,51C344.45,547.07,319.2,510.57,319.2,510.57Z"/><path class="cls-4" d="M353.33,545.82s-10,3.37-11.88,7.87"/><path class="cls-4" d="M325.78,533.49s-1.1-8.37,4.84-14.75"/><path class="cls-4" d="M345.25,540s-9.38-2.5-14.5-.25"/><path class="cls-4" d="M673.74,517.86s-7.43,27.73-63,66.42"/><path class="cls-4" d="M342.15,493.14S322.82,548.2,390.82,551s51.95-.3,65-3.67c19.29-5,12-73.94,5.66-75.87s-77.66-4.37-77.66-4.37Z"/></g></g></g></svg>