<svg xmlns="http://www.w3.org/2000/svg" viewBox="0 0 1000 1000"><defs><style>.cls-1{fill:none;}.cls-2{fill:#b6f1ff;}.cls-3{fill:#c7f4ff;}.cls-4{fill:#c5fbff;}.cls-5{fill:#aef4ff;}</style></defs><g id="Layer_2" data-name="Layer 2"><g id="OutPut"><rect id="BG" class="cls-1" width="1000" height="1000"/></g><g id="Head"><g id="_0" data-name="0"><rect id="BG-2" data-name="BG" class="cls-1" width="1000" height="1000"/><g id="_0-2" data-name="0"><polygon class="cls-2" points="424.23 624.38 416.02 619.55 415.96 619.52 412.58 617.53 412.54 617.5 412.51 617.48 395.98 607.76 393.12 605.58 307.8 540.51 307.69 540.42 307.6 540.35 307.57 540.32 371.67 549.98 413.8 609.62 422.73 622.26 424.23 624.38"/><polygon class="cls-3" points="433.34 549.98 426.05 609.56 426.04 609.56 424.42 622.8 424.23 624.38 422.73 622.26 413.8 609.62 371.67 549.98 433.34 549.98"/><polygon class="cls-2" points="575.77 624.38 583.98 619.55 584.04 619.52 587.42 617.53 587.46 617.5 587.49 617.48 604.02 607.76 606.88 605.58 692.2 540.51 692.31 540.42 692.4 540.35 692.43 540.32 628.33 549.98 586.2 609.62 577.27 622.26 575.77 624.38"/><path class="cls-4" d="M686.89,248.09c.32.39.62.78.92,1.17.59.77,1.18,1.55,1.76,2.33l.38-1.17Z"/><polygon class="cls-3" points="566.66 549.98 573.95 609.56 573.96 609.56 575.58 622.8 575.77 624.38 577.27 622.26 586.2 609.62 628.33 549.98 566.66 549.98"/><polygon class="cls-2" points="334.79 513.1 307.57 540.32 334 454.31 334.79 513.1"/><polygon class="cls-2" points="365.67 422.65 334 454.31 263 396.31 265.45 396.94 365.67 422.65"/><path class="cls-2" d="M423.87,164.92l-58.2,257.73L319.51,287.33,308.3,254.46l1.75-4,.38,1.17c.58-.78,1.17-1.56,1.76-2.33.3-.39.6-.78.92-1.17a266.68,266.68,0,0,1,107-81.67Q422,165.64,423.87,164.92Z"/><polygon class="cls-3" points="334 454.31 307.57 540.32 283.03 461.04 263 396.31 318.64 441.76 334 454.31"/><polygon class="cls-3" points="365.67 422.65 265.45 396.94 263 396.31 265.13 384.46 278.7 308.93 286.63 290.08 295.12 274.16 310.05 250.42 308.3 254.46 319.51 287.33 365.67 422.65"/><polygon class="cls-3" points="436 422.65 365.67 422.65 423.87 164.92 424.3 164.75 436 422.65"/><polygon class="cls-3" points="468 454.65 468 515.31 443 540.32 433.34 549.98 371.67 549.98 334.79 513.1 334 454.31 365.67 422.65 436 422.65 468 454.65"/><polygon class="cls-3" points="371.67 549.98 307.57 540.32 334.79 513.1 371.67 549.98"/><rect class="cls-3" x="468" y="454.65" width="64" height="60.66"/><path class="cls-2" d="M575.7,164.75,564,422.65l-32,32H468l-32-32-11.7-257.9c1.25-.49,2.51-1,3.77-1.44,22.58-8.39,45.33-12.88,66.65-12.86q2.63,0,5.28.09,2.65-.09,5.28-.09c21.32,0,44.07,4.47,66.65,12.86C573.19,163.78,574.45,164.26,575.7,164.75Z"/><polygon class="cls-2" points="575.77 624.38 424.23 624.38 424.42 622.8 426.04 609.56 426.05 609.56 433.34 549.98 443 540.32 468 515.31 532 515.31 557 540.32 566.66 549.98 573.95 609.56 573.96 609.56 575.58 622.8 575.77 624.38"/><polygon class="cls-2" points="665.21 513.1 692.43 540.32 666 454.31 665.21 513.1"/><polygon class="cls-2" points="634.33 422.65 666 454.31 737 396.31 734.55 396.94 634.33 422.65"/><path class="cls-2" d="M576.13,164.92l58.2,257.73,46.16-135.32,11.21-32.87-1.75-4-.38,1.17c-.58-.78-1.17-1.56-1.76-2.33-.3-.39-.6-.78-.92-1.17a266.68,266.68,0,0,0-107-81.67Q578,165.64,576.13,164.92Z"/><polygon class="cls-3" points="634.33 422.65 734.55 396.94 737 396.31 734.87 384.46 723 188 713.37 290.08 704.88 274.16 689.95 250.42 691.7 254.46 680.49 287.33 634.33 422.65"/><polygon class="cls-5" points="666 454.31 692.43 540.32 716.97 461.04 771.62 284.42 681.36 441.76 666 454.31"/><polygon class="cls-3" points="564 422.65 634.33 422.65 576.13 164.92 575.7 164.75 564 422.65"/><polygon class="cls-3" points="532 454.65 532 515.31 557 540.32 566.66 549.98 628.33 549.98 665.21 513.1 666 454.31 634.33 422.65 564 422.65 532 454.65"/><polygon class="cls-3" points="628.33 549.98 692.43 540.32 665.21 513.1 628.33 549.98"/></g></g></g></g></svg>