<svg xmlns="http://www.w3.org/2000/svg" viewBox="0 0 1000 1000"><defs><style>.cls-1{fill:none;}.cls-2{fill:#b6f1ff;}.cls-3{fill:#18989b;}.cls-4{fill:#c5fbff;}.cls-5{fill:#c7f4ff;}.cls-6{fill:#aef4ff;}</style></defs><g id="Layer_2" data-name="Layer 2"><g id="OutPut"><rect id="BG" class="cls-1" width="1000" height="1000"/></g><g id="Head"><g id="_0" data-name="0"><path class="cls-2" d="M771.62,284.42,737,396.31,717,461l-24.54,79.28,0,0-.09.07-.11.09c-.32.26-1,.75-1.84,1.48-6.7,5.38-28.67,23-51.66,41l-.16.12C628.52,591,618.32,599,609.1,606l-1.39,1-2.86,2.17c-14.9,11.27-26.46,14.6-29.08,15.2a22.82,22.82,0,0,1-2.64.32l-1.67.13c-1,.07-2.24.13-3.58.2h0l-1,0c-4,.88-8.53,1.71-13.81,2.49l-.63.09-.36.05-.46.07c-2.19.31-4.5.6-6.93.89L542,629c-4.65.51-9.72,1-15.26,1.4l-1.31.1q-7.2.53-15.46.93c-3.42.16-6.72.29-9.92.37-3.2-.08-6.5-.21-9.92-.37q-8.26-.4-15.46-.93l-1.31-.1c-5.54-.42-10.61-.89-15.26-1.4l-2.68-.31c-2.43-.29-4.74-.58-6.93-.89l-.46-.07-.36-.05-.63-.09c-5.28-.78-9.86-1.61-13.81-2.49l-1.05,0h0c-1.34-.07-2.54-.13-3.58-.2l-1.67-.13a22.82,22.82,0,0,1-2.64-.32c-2.62-.6-14.18-3.93-29.08-15.2L392.29,607l-1.39-1c-9.22-7-19.42-14.94-29.44-22.81l-.16-.12c-23-18-45-35.66-51.66-41-.89-.73-1.52-1.22-1.84-1.48l-.11-.09-.09-.07,0,0L283,461l-20-64.73,2.13-11.85,13.57-75.53,7.93-18.85,8.49-15.92,14.93-23.74,3.06-2.33a266.68,266.68,0,0,1,107-81.67q1.86-.78,3.72-1.5l.43-.17c1.25-.49,2.51-1,3.77-1.44,22.58-8.39,45.33-12.88,66.65-12.86q2.63,0,5.28.09,2.65-.09,5.28-.09c21.32,0,44.07,4.47,66.65,12.86,1.26.47,2.52.95,3.77,1.44l.43.17q1.86.72,3.72,1.5a266.68,266.68,0,0,1,107,81.67l3.06,2.33,14.93,23.74,8.49,15.92L723,188l9.9,163.91Z"/><g id="_0-2" data-name="0"><path class="cls-3" d="M575.77,624.38a22.82,22.82,0,0,1-2.64.32l-1.67.13c-1,.07-2.24.13-3.58.2h0l-1,0c-4,.88-8.53,1.71-13.81,2.49l-.63.09-.36.05-.46.07c-2.19.31-4.5.6-6.93.89L542,629c-4.65.51-9.72,1-15.26,1.4l-1.31.1q-7.2.53-15.46.93c-3.42.16-6.72.29-9.92.37-3.2-.08-6.5-.21-9.92-.37q-8.26-.4-15.46-.93l-1.31-.1c-5.54-.42-10.61-.89-15.26-1.4l-2.68-.31c-2.43-.29-4.74-.58-6.93-.89l-.46-.07-.36-.05-.63-.09c-5.28-.78-9.86-1.61-13.81-2.49l-1.05,0h0c-1.34-.07-2.54-.13-3.58-.2l-1.67-.13a22.82,22.82,0,0,1-2.64-.32Z"/><path class="cls-3" d="M424.23,624.38c-2.62-.6-14.18-3.93-29.08-15.2L392.29,607l-1.39-1c-9.22-7-19.42-14.94-29.44-22.81l-.16-.12c-23-18-45-35.66-51.66-41-.89-.73-1.52-1.22-1.84-1.48l85.32,65.07,2.86,2.18,16.53,9.72,0,0,0,0,3.38,2,.06,0Z"/><polygon class="cls-2" points="424.23 624.38 416.02 619.55 415.96 619.52 412.58 617.53 412.54 617.5 412.51 617.48 395.98 607.76 393.12 605.58 307.8 540.51 307.69 540.42 307.6 540.35 307.57 540.32 371.67 549.98 413.8 609.62 422.73 622.26 424.23 624.38"/><path class="cls-4" d="M313.11,248.09c-.32.39-.62.78-.92,1.17-.59.77-1.18,1.55-1.76,2.33l-.38-1.17Z"/><polygon class="cls-5" points="433.34 549.98 426.05 609.56 426.04 609.56 424.42 622.8 424.23 624.38 422.73 622.26 413.8 609.62 371.67 549.98 433.34 549.98"/><path class="cls-3" d="M692.2,540.51c-.32.26-1,.75-1.84,1.48-6.7,5.38-28.67,23-51.66,41l-.16.12C628.52,591,618.32,599,609.1,606l-1.39,1-2.86,2.17c-14.9,11.27-26.46,14.6-29.08,15.2l8.21-4.83.06,0,3.38-2,0,0,0,0L604,607.76l2.86-2.18Z"/><polygon class="cls-2" points="692.43 540.32 692.4 540.35 692.31 540.42 692.2 540.51 606.88 605.58 604.02 607.76 587.49 617.48 587.46 617.5 587.42 617.53 584.04 619.52 583.98 619.55 575.77 624.38 577.27 622.26 586.2 609.62 628.33 549.98 692.43 540.32"/><path class="cls-4" d="M690,250.42l-.38,1.17c-.58-.78-1.17-1.56-1.76-2.33-.3-.39-.6-.78-.92-1.17Z"/><polygon class="cls-5" points="566.66 549.98 573.95 609.56 573.96 609.56 575.58 622.8 575.77 624.38 577.27 622.26 586.2 609.62 628.33 549.98 566.66 549.98"/><polygon class="cls-2" points="334.79 513.1 307.57 540.32 334 454.31 334.79 513.1"/><polygon class="cls-2" points="365.67 422.65 334 454.31 263 396.31 265.45 396.94 365.67 422.65"/><path class="cls-2" d="M423.87,164.92l-58.2,257.73L319.51,287.33,308.3,254.46l1.75-4,.38,1.17c.58-.78,1.17-1.56,1.76-2.33.3-.39.6-.78.92-1.17a266.68,266.68,0,0,1,107-81.67Q422,165.64,423.87,164.92Z"/><polygon class="cls-5" points="334 454.31 307.57 540.32 283.03 461.04 263 396.31 318.64 441.76 334 454.31"/><polygon class="cls-5" points="365.67 422.65 265.45 396.94 263 396.31 265.13 384.46 278.7 308.93 286.63 290.08 295.12 274.16 310.05 250.42 308.3 254.46 319.51 287.33 365.67 422.65"/><polygon class="cls-5" points="436 422.65 365.67 422.65 423.87 164.92 424.3 164.75 436 422.65"/><polygon class="cls-5" points="468 454.65 468 515.31 443 540.32 433.34 549.98 371.67 549.98 334.79 513.1 334 454.31 365.67 422.65 436 422.65 468 454.65"/><polygon class="cls-5" points="371.67 549.98 307.57 540.32 334.79 513.1 371.67 549.98"/><rect class="cls-5" x="468" y="454.65" width="64" height="60.66"/><path class="cls-2" d="M575.7,164.75,564,422.65l-32,32H468l-32-32-11.7-257.9c1.25-.49,2.51-1,3.77-1.44,22.58-8.39,45.33-12.88,66.65-12.86q2.63,0,5.28.09,2.65-.09,5.28-.09c21.32,0,44.07,4.47,66.65,12.86C573.19,163.78,574.45,164.26,575.7,164.75Z"/><polygon class="cls-2" points="575.77 624.38 424.23 624.38 424.42 622.8 426.04 609.56 426.05 609.56 433.34 549.98 443 540.32 468 515.31 532 515.31 557 540.32 566.66 549.98 573.95 609.56 573.96 609.56 575.58 622.8 575.77 624.38"/><polygon class="cls-2" points="665.21 513.1 692.43 540.32 666 454.31 665.21 513.1"/><polygon class="cls-2" points="634.33 422.65 666 454.31 737 396.31 734.55 396.94 634.33 422.65"/><path class="cls-2" d="M691.7,254.46l-11.21,32.87L634.33,422.65l-58.2-257.73q1.86.72,3.72,1.5a266.68,266.68,0,0,1,107,81.67c.32.39.62.78.92,1.17.59.77,1.18,1.55,1.76,2.33l.38-1.17Z"/><polygon class="cls-5" points="737 396.31 734.55 396.94 702.33 405.21 634.33 422.65 680.49 287.33 691.7 254.46 689.95 250.42 704.88 274.16 713.37 290.08 723 188 732.9 351.91 734.87 384.46 737 396.31"/><polygon class="cls-6" points="771.62 284.42 737 396.31 716.97 461.04 692.43 540.32 666 454.31 681.36 441.76 702.33 405.21 732.9 351.91 771.62 284.42"/><polygon class="cls-5" points="634.33 422.65 564 422.65 575.7 164.75 576.13 164.92 634.33 422.65"/><polygon class="cls-5" points="532 454.65 532 515.31 557 540.32 566.66 549.98 628.33 549.98 665.21 513.1 666 454.31 634.33 422.65 564 422.65 532 454.65"/><polygon class="cls-5" points="628.33 549.98 692.43 540.32 665.21 513.1 628.33 549.98"/></g></g></g></g></svg>