<svg xmlns="http://www.w3.org/2000/svg" viewBox="0 0 1000 1000"><defs><style>.cls-1{fill:none;}.cls-2{fill:#161616;}.cls-3{fill:#fbf3cf;}.cls-4{fill:#ada689;}</style></defs><g id="Layer_2" data-name="Layer 2"><g id="OutPut"><rect id="BG" class="cls-1" width="1000" height="1000"/></g><g id="Head"><g id="_8" data-name="8"><path class="cls-2" d="M368.36,301.49c0,65-32.77,139.66-97.78,139.66S132.92,366.5,132.92,301.49a117.72,117.72,0,0,1,235.44,0Z"/><path class="cls-3" d="M339.51,392.77s-42.65-18.15-90.93-2.29S116,173.42,329.85,265.85,339.51,392.77,339.51,392.77Z"/><path class="cls-2" d="M631.64,301.49c0,65,29.92,139,94.94,139s140.5-74,140.5-139a117.72,117.72,0,0,0-235.44,0Z"/><path class="cls-3" d="M660.49,392.77s46.8-18.15,95.09-2.29S884,173.42,670.15,265.85,660.49,392.77,660.49,392.77Z"/><path class="cls-4" d="M296.88,257.42a5.17,5.17,0,0,1,.26-1c-11.58,14.73,3.36,23.94-23.14,32.78,9.79-.39-7.87,38.29-11.22,40.36,12,.76-9.25,48.36-12.14,51,15.33-1.3,15.18,23.7,15.18,23.7l40.44-151S295.92,263.42,296.88,257.42Z"/><path class="cls-4" d="M747,380.34c2.28-20-10.78-7.67-2.32-34.15-14.55-2.39-18.51-53-16.29-57.25-13.69,9.65-19.48-29.6-18.16-33.85-15.9,13.92-31.26-6.33-31.26-6.33L733,400.33S735.72,374.88,747,380.34Z"/><path class="cls-3" d="M579.89,619.65l-.16.05-2.81.77a241,241,0,0,1-26.25,5.64c-.62.11-1.24.2-1.87.3-1.34.2-2.69.4-4,.58l-1.68.24-2.16.28q-6.67.82-13.6,1.35L525,629q-10.53.72-21.6.71-14.85,0-28.67-1.14l-2.29-.2q-7-.61-13.79-1.53l-.57-.07c-1-.14-2.06-.28-3.09-.44-1.21-.17-2.42-.36-3.62-.54l-1.89-.31a257.69,257.69,0,0,1-26.15-5.63l-1.74-.47-1.17-.33C313.23,588.74,266.66,497,265.14,385.79c-1.87-136.48,129.57-235.45,229.58-235.37,101.52.07,238.25,92.46,240.13,229C736.38,491.8,686.75,589,579.89,619.65Z"/><path class="cls-2" d="M476.46,490.4a73.47,73.47,0,0,1-44.28,67.7,47.54,47.54,0,0,0-12,7.64c-.16.12-.32.26-.47.39a55.78,55.78,0,0,1-82.39-10.61,57.42,57.42,0,0,1-10.32-33,58,58,0,0,1,2.51-16.93,51.05,51.05,0,0,0,2.23-15.13v-.09c0-40.54,32.4-73.42,72.37-73.42S476.46,449.86,476.46,490.4Z"/><path class="cls-2" d="M673,522.54a57.37,57.37,0,0,1-15.72,39.6,55.7,55.7,0,0,1-73,7.09q-2-1.47-3.95-3.11a48.55,48.55,0,0,0-12.51-8,73.47,73.47,0,0,1-44.28-67.7c0-40.54,32.4-73.42,72.38-73.42s72.37,32.88,72.37,73.42v.09a51.71,51.71,0,0,0,2.23,15.13A58,58,0,0,1,673,522.54Z"/><path d="M420.15,565.74c-.16.12-.32.26-.47.39a55.78,55.78,0,0,1-82.39-10.61C363,574.45,399.91,570.16,420.15,565.74Z"/><path d="M657.74,562.15a55.7,55.7,0,0,1-73,7.09C599.42,572.43,623.74,573.62,657.74,562.15Z"/><path class="cls-3" d="M292,512s4.07,23.67,2.37,33.91c9.3-4,9,25.33,9,25.33s14.72-10,22.87,12.58c0,0,12.24-.67,28.83,18.16-1.45-10.62,29.17,3.39,29.17,3.39s-27.69-25.17-7.51-32c0,0-29.59-2.18-19-22.34-18,6.46-32.52-20.42-35.4-34.65C314.76,530.78,305.27,527.79,292,512Z"/><path class="cls-3" d="M708,512s-4.07,23.67-2.37,33.91c-9.3-4-9,25.33-9,25.33s-14.72-10-22.87,12.58c0,0-12.24-.67-28.83,18.16,1.45-10.62-29.2,3.91-29.2,3.91s27.72-25.69,7.54-32.5c0,0,29.59-2.18,19-22.34,18,6.46,32.52-20.42,35.4-34.65C685.24,530.78,694.73,527.79,708,512Z"/><path class="cls-2" d="M520.84,520.16l-1.13,2c-4.78,8-9.42,13.56-14.09,16.13a11.07,11.07,0,0,1-9.71.88c-5.24-2-10.65-8-16.43-18.82-.16-.28-.3-.56-.45-.84a9.07,9.07,0,0,1,6.23-13.12,69,69,0,0,1,29.79.52A9.08,9.08,0,0,1,520.84,520.16Z"/><path d="M495.91,539.14c-5.24-2-10.65-8-16.43-18.82C484,521.46,494,525.58,495.91,539.14Z"/><path d="M519.71,522.13c-4.78,8-9.42,13.56-14.09,16.13C506.67,532.57,509.91,523.12,519.71,522.13Z"/><path d="M341.7,497.48s7.93,49.67,57.59,49.67,64.58-48,64.58-48Z"/><path d="M658.3,497.48s-7.6,49.67-57.27,49.67-65-48-65-48Z"/></g></g></g></svg>