<svg xmlns="http://www.w3.org/2000/svg" viewBox="0 0 1000 1000"><defs><style>.cls-1{fill:none;}.cls-2{fill:#b4894c;}.cls-3,.cls-5{fill:#e7e5e1;}.cls-4{opacity:0.4;}.cls-5{opacity:0.2;}.cls-6{fill:#100f0e;}.cls-7{opacity:0.1;}</style></defs><g id="Layer_2" data-name="Layer 2"><g id="OutPut"><rect id="BG" class="cls-1" width="1000" height="1000"/></g><g id="Head"><g id="_7" data-name="7"><path class="cls-2" d="M350.39,584.49a152.83,152.83,0,0,1-8.58,20.35C327.08,633.35,308.75,641,292.91,641,249.79,641,229,577,229,395S354.76,205.19,354.76,205.19h0C378.57,416.34,370.06,527.46,350.39,584.49Z"/><path class="cls-2" d="M771,395c0,182-20.76,246-63.88,246-17.38,0-38.17-9.13-54-44.86q-2.28-5.13-4.41-11c-20.51-56.78-30-167.82-6.08-379.54C642.61,205.58,771,213,771,395Z"/><path class="cls-3" d="M733.11,419.34c-9.68,94.78-59.39,173-153.22,199.92l-.16,0-2.81.77a241,241,0,0,1-26.25,5.64c-.62.11-1.24.2-1.87.3-1.34.2-2.69.4-4,.58l-1.68.24-2.16.28q-6.67.82-13.6,1.35l-2.34.15q-10.53.72-21.6.71-14.85,0-28.67-1.14l-2.29-.2c-1.91-.17-3.81-.35-5.69-.56-2.73-.28-5.43-.61-8.1-1l-.57-.07c-1-.14-2.06-.28-3.09-.44-1.21-.17-2.42-.36-3.62-.54l-1.89-.31q-10.27-1.68-19.92-4c-2.1-.52-4.18-1.05-6.23-1.61l-1.74-.47-1.17-.33C322.57,591,275.23,512.09,266.58,414q-1.24-14-1.44-28.58c-1-74.65,37.84-138.08,89.62-180.2h0c42.89-34.9,94.65-55.2,140-55.16,47.39,0,102.45,20.18,147.89,55.55h0l.15.11C694.6,246.1,733.85,306.28,734.85,379A348.57,348.57,0,0,1,733.11,419.34Z"/><g class="cls-4"><path class="cls-3" d="M652.61,448.32a61.27,61.27,0,0,1,1.63,75.41,40.14,40.14,0,0,0,9.6-1.25c.38-.81.77-1.58,1.15-2.38,6.08.24,18.6-1.07,20-15.5H669.89c.26-1.23.45-2.46.64-3.68,7.71-1,18.93-4.22,18.93-14.82,0-10.85-12.14-14.16-20-15.15-.26-1.28-.54-2.51-.83-3.68h16.34c-1.46-15.88-16.44-15.88-21.57-15.39-.35-.81-.57-1.24-.57-1.24A41.14,41.14,0,0,0,652.61,448.32Z"/></g><path class="cls-5" d="M465.14,489.61l-123.8-1.44s-5.12,55.46,66.89,55.46c28.76,0,53.8-9.07,56.91-54Z"/><path class="cls-5" d="M538,489.61l120.65-1.44s5,55.46-65.19,55.46c-28,0-52.44-9.07-55.46-54Z"/><path class="cls-2" d="M560.37,368.86s18.28-9.54,50.09,19.88,22.27,29.42,39.76,42.94,43.73,60.43,20.67,89.06-28.62,72.36-110.52,50.89S538.1,454,533.33,429.3,542,368.8,560.37,368.86Z"/><path class="cls-6" d="M525.5,519c0,16.59-17.4,30.35-25.49,30.35S474.5,535.59,474.5,519c0-12.46,14.39-13.51,21.55-13.26,2.64.1,5.28.09,7.91,0C511.12,505.49,525.5,506.54,525.5,519Z"/><path class="cls-7" d="M265.14,385.4c1.14,83,27.39,155.22,85.25,199.09a152.83,152.83,0,0,1-8.58,20.35c-191.17-267.53,12.95-399.65,12.95-399.65h0C303,247.32,264.12,310.75,265.14,385.4Z"/><path class="cls-7" d="M653.1,596.14q-2.28-5.13-4.41-11C708.15,539.64,736,463.64,734.85,379c-1-72.7-40.25-132.88-92.07-173.28C649.74,210.61,868.34,368,653.1,596.14Z"/></g></g></g></svg>