<svg xmlns="http://www.w3.org/2000/svg" viewBox="0 0 1000 1000"><defs><style>.cls-1{fill:none;}.cls-2{fill:#f1e8d9;}.cls-3{fill:#c2baaf;}.cls-4{fill:#fdfffd;}.cls-5{fill:#d8884d;}.cls-6{fill:#fdad8c;}.cls-7{fill:#aa6b3f;}.cls-8{fill:#e59b7e;}.cls-9{fill:#cd8b71;}.cls-10{fill:#d1722e;}.cls-11{fill:#ce804a;}.cls-12{opacity:0.2;}.cls-13{fill:#de9968;}.cls-14{fill:#ffc6ad;}.cls-15{fill:#e49b7e;}.cls-16{fill:#feae8b;}.cls-17{fill:#87544d;}.cls-18{fill:#cd9e8a;}.cls-19{fill:#df756e;}.cls-20{fill:#fff;}.cls-21{fill:#db925f;}.cls-22{fill:#e09e6d;}</style></defs><g id="Layer_2" data-name="Layer 2"><g id="OutPut"><rect id="BG" class="cls-1" width="1000" height="1000"/></g><g id="Head"><g id="_6" data-name="6"><path class="cls-2" d="M394,341.54s-41.66,7-78.79,4.28c-15.31-1.11-29.84-3.85-40.36-9.39-36.07-19-69.69-93.72-72.1-99.49-1.89-4.5-6.24-32.45,6.05-51.76a37.7,37.7,0,0,1,14.72-13.53c29.67-15.32,51.3-3.84,55.42,7.09a18.41,18.41,0,0,1,1.25,5.39c.46,7.65-5.86,12.23-19.1,14.19-10.31,1.54-6.55,13.17-2.52,21.32a78.15,78.15,0,0,0,4.58,8c6.35,9,22.49,21.46,35.56,30.7,10.41,7.37,18.87,12.72,18.87,12.72L357,285.32Z"/><path class="cls-3" d="M315.22,345.82c-15.31-1.11-29.84-3.85-40.36-9.39-36.07-19-69.69-93.72-72.1-99.49-1.89-4.5-6.24-32.45,6.05-51.76C209.14,222.58,223.61,292.25,315.22,345.82Z"/><path class="cls-4" d="M288.94,256.08C260,249.93,238.83,211.39,231.7,195c-7.47-17.15,25.4-14.78,38.71-13.16.47,7.65-5.86,12.22-19.09,14.19-10.32,1.54-6.56,13.16-2.53,21.31a77.7,77.7,0,0,0,4.58,8C259.72,234.41,275.86,246.84,288.94,256.08Z"/><path class="cls-5" d="M297.69,320.79a73.26,73.26,0,0,1-2,12c-4.22,17.23-17,49-55.08,68.14-54.26,27.28-95.22,22.42-103.75,7.92-3.13-5.32.81-16.66,8.94-29.46a165.81,165.81,0,0,1,20.69-25.94h0l.07-.08c10.91-11.25,23.57-21.31,36-27.06l.05,0,.9-.4c1.14-.5,2.25-1,3.38-1.38q.79-.32,1.53-.57l.73-.25.88-.3,1.45-.45.55-.16.61-.17c6.42-1.72,18.3-3.51,29.84-4.89h0c1.48-.1,2.95-.18,4.42-.23,5.09-.22,10.07-.24,14.79-.13A248.49,248.49,0,0,1,297.69,320.79Z"/><path class="cls-6" d="M301.61,340.19c-.29.74-.63,1.49-1,2.23a42,42,0,0,1-9.36,11.68c-20.19,18.57-61.86,33.88-88.51,41.09-23,6.2-35.39,3.09-23.29-8.85,3.85-3.81,10.19-8.5,19.47-14.07h0q5.39-3.22,12.11-6.87C263.64,337.07,301.61,340.19,301.61,340.19Z"/><path class="cls-7" d="M240.57,400.92c-54.26,27.28-95.22,22.42-103.75,7.92-3.13-5.32.81-16.66,8.94-29.46C145.43,398.82,155.32,434,240.57,400.92Z"/><path class="cls-8" d="M301.61,340.19c-1.86,4.79-5.48,9.45-10.36,13.91-76.8,38.93-102.92,37.64-111.8,32.24,4.1-4,11-9.1,21.28-15.15q4.68-2.76,10.3-5.8c22.49-12.11,42.31-18.47,57.63-21.78h0C289.17,339.17,301.61,340.19,301.61,340.19Z"/><path class="cls-9" d="M268.66,343.61c-49,26.4-63.58,28.59-67.93,27.58q4.68-2.76,10.3-5.8C233.52,353.28,253.34,346.92,268.66,343.61Z"/><path class="cls-2" d="M606,341.54s41.66,7,78.79,4.28c15.31-1.11,29.84-3.85,40.36-9.39,36.07-19,69.69-93.72,72.1-99.49,1.89-4.5,6.24-32.45-6-51.76a37.7,37.7,0,0,0-14.72-13.53c-29.67-15.32-51.3-3.84-55.42,7.09a18.41,18.41,0,0,0-1.25,5.39c-.46,7.65,5.86,12.23,19.1,14.19,10.31,1.54,6.55,13.17,2.52,21.32a78.15,78.15,0,0,1-4.58,8c-6.35,9-22.49,21.46-35.56,30.7-10.41,7.37-18.87,12.72-18.87,12.72L643,285.32Z"/><path class="cls-3" d="M684.78,345.82c15.31-1.11,29.84-3.85,40.36-9.39,36.07-19,69.69-93.72,72.1-99.49,1.89-4.5,6.24-32.45-6-51.76C790.86,222.58,776.39,292.25,684.78,345.82Z"/><path class="cls-4" d="M711.06,256.08C740,249.93,761.17,211.39,768.3,195c7.47-17.15-25.4-14.78-38.71-13.16-.47,7.65,5.86,12.22,19.09,14.19,10.32,1.54,6.56,13.16,2.53,21.31a77.7,77.7,0,0,1-4.58,8C740.28,234.41,724.14,246.84,711.06,256.08Z"/><path class="cls-5" d="M702.31,320.79a73.26,73.26,0,0,0,2,12c4.22,17.23,17,49,55.08,68.14,54.26,27.28,95.22,22.42,103.75,7.92,3.13-5.32-.81-16.66-8.94-29.46a165.81,165.81,0,0,0-20.69-25.94h0l-.07-.08c-10.91-11.25-23.57-21.31-36-27.06l-.05,0-.9-.4c-1.14-.5-2.25-1-3.38-1.38q-.79-.32-1.53-.57l-.73-.25-.88-.3-1.45-.45-.55-.16-.61-.17c-6.42-1.72-18.3-3.51-29.84-4.89h0c-1.48-.1-2.95-.18-4.42-.23-5.09-.22-10.07-.24-14.79-.13A248.49,248.49,0,0,0,702.31,320.79Z"/><path class="cls-6" d="M698.39,340.19c.29.74.63,1.49,1,2.23a42,42,0,0,0,9.36,11.68c20.19,18.57,61.86,33.88,88.51,41.09,23,6.2,35.39,3.09,23.29-8.85-3.85-3.81-10.19-8.5-19.47-14.07h0Q795.7,369,789,365.39C736.36,337.07,698.39,340.19,698.39,340.19Z"/><path class="cls-7" d="M759.43,400.92c54.26,27.28,95.22,22.42,103.75,7.92,3.13-5.32-.81-16.66-8.94-29.46C854.57,398.82,844.68,434,759.43,400.92Z"/><path class="cls-8" d="M820.55,386.34c-8.88,5.4-35,6.69-111.8-32.24-4.88-4.46-8.5-9.12-10.36-13.91,0,0,12.44-1,32.94,3.41h0c15.32,3.31,35.14,9.67,57.63,21.78q5.63,3,10.3,5.8C809.54,377.24,816.45,382.29,820.55,386.34Z"/><path class="cls-9" d="M799.27,371.19c-4.35,1-18.94-1.18-67.93-27.58,15.32,3.31,35.14,9.67,57.63,21.78Q794.6,368.44,799.27,371.19Z"/><path class="cls-10" d="M403.5,173.62l-.37.18.38-.2Z"/><path class="cls-11" d="M729.82,442.83s0,.05,0,.07c-11.91,66.43-45,122.64-100.81,155.46a204,204,0,0,1-20,10.3,220.36,220.36,0,0,1-29.13,10.6l-.16,0-2.81.77a241,241,0,0,1-26.25,5.64c-.62.11-1.24.2-1.87.3-1.34.2-2.69.4-4,.58l-1.68.24-2.16.28q-6.67.82-13.6,1.35l-2.34.15q-10.53.72-21.6.71-14.85,0-28.67-1.14l-2.29-.2q-7-.62-13.79-1.53l-.57-.07c-1-.14-2.06-.28-3.09-.44-1.21-.17-2.42-.36-3.62-.54l-1.89-.31a257.69,257.69,0,0,1-26.15-5.63l-1.74-.47-1.17-.33a221.34,221.34,0,0,1-42.95-17q-2.11-1.11-4.17-2.26l-.07,0A190.11,190.11,0,0,1,324,560.2h0a205.6,205.6,0,0,1-34.1-52.73c-9.58-21.08-16.26-44.22-20.24-68.84q-1.44-8.81-2.4-17.86a1.3,1.3,0,0,0,0-.17h0q-1.85-17.19-2.08-35.17c-.74-53.93,19.33-102,50.07-140.41v0a267.71,267.71,0,0,1,86.65-70.51C389.47,181.08,310.06,228.71,322,356c13,138-23,187.44,72,202.72,94.18,15.15,230.93,30.44,250,6.64.17-.2.32-.41.47-.62l.09-.13c17.35-25.22,83.26-219.7,44.87-275.61-20.29-29.55-47.1-68.29-67.89-98.29,42.17,27,78.9,66.33,98.4,114.68A202.84,202.84,0,0,1,734.85,379,336,336,0,0,1,729.82,442.83Z"/><path class="cls-10" d="M402.78,174l-.65.34Z"/><path class="cls-12" d="M465.14,489.61l-123.8-1.44s-5.12,55.46,66.89,55.46c28.76,0,53.8-9.07,56.91-54"/><path class="cls-12" d="M538,489.61l120.65-1.44s5,55.46-65.19,55.46c-28,0-52.44-9.07-55.46-54"/><path class="cls-5" d="M644.5,564.74C627.28,589.42,489,574,394,558.72S335,494,322,356,403.5,173.62,403.5,173.62v0A241.71,241.71,0,0,1,438,159.46h0c19.28-6.17,38.51-9.43,56.7-9.42,32,0,67.62,9.25,101.34,26.17a277,277,0,0,1,25.51,14.51c20.79,30,47.6,68.74,67.89,98.29C727.91,345,661.72,540.05,644.5,564.74Z"/><path class="cls-13" d="M428.2,543.15s-23.7,2.38-24.7,8.36c6.95,0,10.41,2.7,10.41,2.7s-3,11.73-3.46,16.51,9,4.3,9,4.3L412,588.56l14.09-1.1Z"/><path class="cls-13" d="M570.48,544.19s19,1.34,20,7.32c-7,0-4.41,2.7-4.41,2.7s4,3.14,4.41,7.91-10,12.9-10,12.9l7.37,5.86L574,587.46Z"/><path class="cls-14" d="M584.19,580.71a73.74,73.74,0,0,1-10.71,25A61.77,61.77,0,0,1,560.82,620c-8.19,6.5-22.59,11.28-40.65,13.39l-.47.06a208.54,208.54,0,0,1-50.14-.82c-40.78-5.38-44.83-28.78-51.5-43.57-.15-.33-.3-.68-.44-1a38.42,38.42,0,0,1-2.19-8,2.93,2.93,0,0,1-.05-.29c-1.18-7.31-.75-15.74,1.86-22.65a24.62,24.62,0,0,1,4.42-7.65h0a17.68,17.68,0,0,1,13.61-6.17c1.49,0,3,0,4.64,0A339.86,339.86,0,0,1,477.7,546a159.59,159.59,0,0,0,57.94-2.81c.21,0,.41-.09.62-.15,20.61-4.93,39.87-3.35,47.1,16.48C585.7,565.94,585.73,573.29,584.19,580.71Z"/><path class="cls-15" d="M519.7,633.43a208.54,208.54,0,0,1-50.14-.82c-40.78-5.38-44.83-28.78-51.5-43.57-.15-.33-.3-.68-.44-1a43.93,43.93,0,0,1-2.19-8,2.93,2.93,0,0,1-.05-.29c-1.18-7.31-.75-15.74,1.86-22.65a24.62,24.62,0,0,1,4.42-7.65C421.18,551.07,396.12,641.73,519.7,633.43Z"/><path class="cls-16" d="M584.19,580.71a73.74,73.74,0,0,1-10.71,25A61.77,61.77,0,0,1,560.82,620c-8.19,6.5-22.59,11.28-40.65,13.39l-.47.06c-123.58,8.3-98.52-82.36-98-84.07h0a17.68,17.68,0,0,1,13.61-6.17c1.49,0,3,0,4.64,0l.46.14S416.12,614,584.19,580.71Z"/><path class="cls-17" d="M453.15,576.45a19.53,19.53,0,0,1-.29,3.71c-.84,4.45-3.83,6.13-12,6.36-7.61.22-12.63-7.15-13.2-18.77a55.9,55.9,0,0,1,.95-12.77c-.1.93-1,12.27,18.47,13.08C447.08,568.06,453.15,569.18,453.15,576.45Z"/><path class="cls-17" d="M568.13,569.25c-.08,1-.2,1.94-.35,2.86-1.49,9.07-6.14,14.59-12.75,14.41a32.11,32.11,0,0,1-5.62-.55c-2.71-.55-4.39-1.52-5.38-3.09s-1.29-3.63-1.29-6.43c0-7.27,6.06-8.39,6.06-8.39,20.32-.84,18.47-13.14,18.47-13.14A54.82,54.82,0,0,1,568.13,569.25Z"/><ellipse class="cls-18" cx="463.3" cy="560.22" rx="4.26" ry="4.51"/><ellipse class="cls-18" cx="477.37" cy="556.52" rx="4.26" ry="4.51"/><ellipse class="cls-18" cx="501.72" cy="564.74" rx="4.26" ry="4.51"/><ellipse class="cls-18" cx="521.43" cy="563.23" rx="4.26" ry="4.51"/><ellipse class="cls-18" cx="542.15" cy="554.32" rx="4.26" ry="4.51"/><ellipse class="cls-18" cx="535.27" cy="562.53" rx="2.08" ry="2.2"/><ellipse class="cls-18" cx="527.77" cy="554.91" rx="2.08" ry="2.2"/><ellipse class="cls-18" cx="511" cy="556.52" rx="2.08" ry="2.2"/><ellipse class="cls-18" cx="490.93" cy="561.03" rx="2.08" ry="2.2"/><ellipse class="cls-18" cx="454.4" cy="552.01" rx="2.08" ry="2.2"/><path class="cls-19" d="M452.86,580.16a6.38,6.38,0,0,1-2.61,4.38l-.06,0a6.24,6.24,0,0,1-1.31.69h0a23,23,0,0,1-8,1.25c-6.48.18-11.08-5.13-12.66-13.89a38.12,38.12,0,0,1-.54-4.88,24.41,24.41,0,0,0,2.78,5.12c2.89,4.14,8.2,9.19,16.71,8.51A23.84,23.84,0,0,0,452.86,580.16Z"/><path class="cls-19" d="M567.78,572.11c-1.49,9.07-6.14,14.59-12.75,14.41a32.11,32.11,0,0,1-5.62-.55c-2.71-.55-4.39-1.52-5.38-3.09l.73.11C557.22,585,564.2,578,567.78,572.11Z"/><path class="cls-20" d="M448.86,585.27c-19.3,9.69-20.66-12.64-20.66-12.64,1.58,8.76,6.18,14.07,12.66,13.89A23,23,0,0,0,448.86,585.27Z"/><path class="cls-20" d="M549.45,586h0a32.11,32.11,0,0,0,5.62.55c6.61.18,11.26-5.34,12.75-14.41.15-.92.27-1.87.35-2.86C568.13,569.25,568.39,593.62,549.45,586Z"/><path class="cls-20" d="M446,544.42s61,12.86,107.7-1.12C528.45,549.82,509.11,557.41,446,544.42Z"/><path class="cls-7" d="M377.45,601.67q-2.11-1.11-4.17-2.26l-.07,0c-16.37-8.13-22.42,1.62-22.42,1.62L324,560.2h0c-.54-.38-22.44-15.89-27.65-7.85-10-9.33-4.5-40.71-6.45-44.88s-8.21-2.45-14.88,0c1.82-9.23-2.45-46.21-5.36-68.84q-1.44-8.81-2.4-17.86a1.3,1.3,0,0,0,0-.17h0q-1.85-17.19-2.08-35.17c-.74-53.93,19.33-102,50.07-140.41-.44,2.23-36.25,182.82-17.12,227.49a22.72,22.72,0,0,0,3.52,5.92h0c6,7,9.22,12.93,10.73,18,5.2,17.52-9.36,25.48,2.87,35.55s46.6,50.86,61,68.14C376.63,600.67,377.05,601.18,377.45,601.67Z"/><path class="cls-7" d="M729.82,442.83s0,.05,0,.07c-2.86,22.75-6.52,55.89-4.81,64.55-6.67-2.45-12.94-4.16-14.88,0s3.55,35.55-6.45,44.88c-5.28-8.14-27.66,7.86-27.66,7.86L649.21,601s-5.5-8.87-20.21-2.64a204,204,0,0,1-20,10.3,2.5,2.5,0,0,1,0-.69c.73-3.61,11.47-14.78,24.29-27.65,21.08-21.17,47.76-47,44.63-51.32-5-7,25-43,33.09-52.08,1.89-2.12,3.38-12.64,4.56-27.5,3.82-48.27,4.34-142.42,4.35-144A202.84,202.84,0,0,1,734.85,379,336,336,0,0,1,729.82,442.83Z"/><path class="cls-21" d="M574,327c-45.22,51.9-71.53,155-73.5,162.87,1-5.07,7-49.94-78.66-158.87-71-90.27-13-149.63,16.21-171.54h0q8.34-2.67,16.64-4.59,5.93-1.4,11.8-2.38A169,169,0,0,1,494.72,150a202.22,202.22,0,0,1,51.34,7.09q6,1.57,11.94,3.49a264.35,264.35,0,0,1,38.06,15.59C612.41,224.71,603.79,292.75,574,327Z"/><path class="cls-22" d="M497.86,304.39c-21.35,0-64.63-111.28-43.2-149.53q5.93-1.4,11.8-2.38A169,169,0,0,1,494.72,150a202.22,202.22,0,0,1,51.34,7.09q6,1.57,11.94,3.49C572.34,210,519.64,304.39,497.86,304.39Z"/></g></g></g></svg>