<svg xmlns="http://www.w3.org/2000/svg" viewBox="0 0 1000 1000"><defs><style>.cls-1{fill:none;}.cls-2{fill:#a87854;}.cls-3{fill:#dbdbdb;}.cls-4{fill:#c69062;}.cls-5{fill:#c49674;}.cls-6{fill:#b7835f;}.cls-7{opacity:0.1;}.cls-8{fill:#ffc6ad;}.cls-9{fill:#e49b7e;}.cls-10{fill:#feae8b;}.cls-11{fill:#87544d;}.cls-12{fill:#cd9e8a;}.cls-13{fill:#df756e;}.cls-14{fill:#fff;}</style></defs><g id="Layer_2" data-name="Layer 2"><g id="OutPut"><rect id="BG" class="cls-1" width="1000" height="1000"/></g><g id="Head"><g id="_9" data-name="9"><g id="_9-2" data-name="9"><path class="cls-2" d="M389.33,181.29,341.26,401l-76.14-11.32s-5.83-31.86-9.9-75.18a.41.41,0,0,0,0-.11c-6.72-71.73-8.6-174.81,28.78-216.88a0,0,0,0,0,0,0C379,150,389.33,181.29,389.33,181.29Z"/><path class="cls-2" d="M744.89,315.45v0c-4.1,44.28-10.11,77.06-10.11,77.06l-76,11.33L610.65,184.07S621,152.9,716,100.37v0C753.08,142.11,751.5,243.82,744.89,315.45Z"/><path class="cls-3" d="M282.17,299.88S277.49,166,293.5,150s82,56.47,82,56.47l-26,108Z"/><path class="cls-3" d="M717.83,299.88S722.51,166,706.5,150s-82,56.47-82,56.47l26,108Z"/><path class="cls-4" d="M734.85,389V389c-1,74.9-25.25,142.2-74.47,186.39q-5.32,4.79-11,9.18-7.56,5.85-15.8,11l-.45.28a210.51,210.51,0,0,1-53.21,23.38l-.16,0-2.81.77a241,241,0,0,1-26.25,5.64c-.62.11-1.24.2-1.87.3-1.34.2-2.69.4-4,.58l-1.68.24-2.16.28q-6.67.82-13.6,1.35l-2.34.15q-10.53.72-21.6.71-14.85,0-28.67-1.14l-2.29-.2q-7-.62-13.79-1.53l-.57-.07c-1-.14-2.06-.28-3.09-.44-1.21-.17-2.42-.36-3.62-.54l-1.89-.31a257.69,257.69,0,0,1-26.15-5.63l-1.74-.47-1.17-.33a214.88,214.88,0,0,1-54.79-23.76l-.42-.26q-4-2.49-7.87-5.17A185.41,185.41,0,0,1,338.85,575h0c-19.35-17.25-34.62-38.05-46.13-61.56l-.19-.4c-.15-.29-.29-.58-.43-.88l-.26-.54c-17.15-35.84-25.67-77.88-26.62-123.22,0-1-.05-2-.06-3A207.25,207.25,0,0,1,269,342.63s0-.05,0-.07a.28.28,0,0,0,0-.06,217.92,217.92,0,0,1,25.13-66.65c25.71-44.8,65.74-80.19,108.62-101.87,30.59-15.48,62.63-24,92-23.95,36.72,0,78,12.13,115.93,34,43,24.83,81.53,62.28,103.9,109l0,0,.57,1.19.06.12c.13.29.26.57.4.86s.13.3.2.46A203.7,203.7,0,0,1,734.85,379C734.9,382.32,734.9,385.66,734.85,389Z"/><path class="cls-4" d="M338.85,575h0c-8.1-6.78-15.33,14.52-15.33,14.52s-24-61.4-30.8-76.08l-.19-.4c-.15-.32-.29-.61-.43-.88l-.26-.54C286.56,501.3,272,491,265.12,498c-6.19-7.2-3.1-66.4.08-109.62,1.83-25,3.69-44.64,3.8-45.82a.28.28,0,0,0,0-.06l10.49,25,5.87,18.11L325.5,509.5s10.72,36.12,14.14,54.9C341.06,572.19,341.22,577,338.85,575Z"/><path class="cls-4" d="M734.88,498c-6.88-7-21.44,3.3-26.7,13.6s-31.68,77.9-31.68,77.9-7.24-21.34-15.35-14.51a1.73,1.73,0,0,1-.77.43c-1,.21-1.22-1.48-1-4.44,1.25-14.83,15.09-61.48,15.09-61.48l46-142,.85-2,9.64-23s2,20.41,3.86,46.47V389C738,432.19,741,490.83,734.88,498Z"/><path class="cls-2" d="M465.14,489.61l-123.8-1.44s-5.12,55.46,66.89,55.46c28.76,0,53.8-9.07,56.91-54"/><path class="cls-2" d="M538,489.61l120.65-1.44s5,55.46-65.19,55.46c-28,0-52.44-9.07-55.46-54"/><path class="cls-5" d="M610.65,184.07C609.23,324.32,500,380.53,500,380.53S389.33,323.58,389.33,181.29L402.76,174c30.59-15.48,62.63-24,92-23.95C531.44,150.05,572.77,162.16,610.65,184.07Z"/><path class="cls-3" d="M633.1,595.88a210.51,210.51,0,0,1-53.21,23.38l-.16,0-2.81.77a241,241,0,0,1-26.25,5.64c-.62.11-1.24.2-1.87.3-1.34.2-2.69.4-4,.58l-1.68.24-2.16.28q-6.67.82-13.6,1.35l-2.34.15q-10.53.72-21.6.71-14.85,0-28.67-1.14l-2.29-.2q-7-.62-13.79-1.53l-.57-.07c-1-.14-2.06-.28-3.09-.44-1.21-.17-2.42-.36-3.62-.54l-1.89-.31a257.69,257.69,0,0,1-26.15-5.63l-1.74-.47-1.17-.33a214.88,214.88,0,0,1-54.79-23.76C387.64,514.71,612.7,515,633.1,595.88Z"/><path class="cls-6" d="M357.32,589.48A185.41,185.41,0,0,1,338.85,575h0c-8.1-6.78-15.33,14.52-15.33,14.52s-24-61.4-30.8-76.08l-.19-.4c-.15-.29-.29-.58-.43-.88l-.26-.54C286.56,501.3,272,491,265.12,498c-6.19-7.2-3.1-66.4.08-109.62,0-1-.05-2-.06-3A207.24,207.24,0,0,1,269,342.56a.28.28,0,0,0,0-.06,217.92,217.92,0,0,1,25.13-66.65h0s-5.41,58.79-8.78,109.76c-2.51,38-3.92,71.76-1,73.39,16.78,9.5,40.67,84.63,40.67,84.63l14.64,20.77Z"/><path class="cls-6" d="M715,294a8.38,8.38,0,0,1-.43-.92l.57,1.19Z"/><path class="cls-6" d="M734.88,498c-6.88-7-21.44,3.3-26.7,13.6s-31.68,77.9-31.68,77.9-7.24-21.34-15.35-14.51a1.73,1.73,0,0,1-.77.43q-5.32,4.79-11,9.18L659.41,571l20.21-27.35s10-65.24,26-76.6c9.29-6.6,14.91-56.57,15.68-101.56.52-30.67-1.2-59-5.55-69.73A203.7,203.7,0,0,1,734.85,379c0,3.34,0,6.68,0,10V389C738,432.19,741,490.83,734.88,498Z"/><path class="cls-7" d="M744.89,315.45C743.77,198.63,716.43,101.89,716,100.39,753.08,142.11,751.5,243.82,744.89,315.45Z"/><path class="cls-7" d="M255.21,314.39c-6.72-71.73-8.6-174.81,28.78-216.88C283.49,98.91,248,198.29,255.21,314.39Z"/><path class="cls-4" d="M389.33,181.29S397,231.52,403.25,239c-7-2-.75,30.74,11.75,47.24-6,0,85,94.28,85,94.28L400.33,377l-71.82-93.33Z"/><path class="cls-4" d="M610.67,181.29S603,231.52,596.75,239c7-2,.75,30.74-11.75,47.24,6,0-85,94.28-85,94.28L599.67,377l71.82-93.33Z"/><path class="cls-8" d="M584.19,580.25a73.91,73.91,0,0,1-10.71,25,62,62,0,0,1-12.66,14.29c-8.19,6.5-22.59,11.28-40.65,13.39l-.47.05a208.5,208.5,0,0,1-50.14-.81c-40.78-5.39-44.83-28.79-51.5-43.58-.15-.33-.3-.68-.44-1a38.25,38.25,0,0,1-2.19-8,2.74,2.74,0,0,1-.05-.28c-1.18-7.32-.75-15.75,1.86-22.66a24.57,24.57,0,0,1,4.42-7.64h0a17.65,17.65,0,0,1,13.61-6.17c1.49,0,3,0,4.64,0a337.45,337.45,0,0,1,37.78,2.86,160,160,0,0,0,57.94-2.81l.62-.15c20.61-4.93,39.87-3.35,47.1,16.47C585.7,565.48,585.73,572.83,584.19,580.25Z"/><path class="cls-9" d="M519.7,633a208.5,208.5,0,0,1-50.14-.81c-40.78-5.39-44.83-28.79-51.5-43.58-.15-.33-.3-.68-.44-1a43.7,43.7,0,0,1-2.19-8,2.74,2.74,0,0,1-.05-.28c-1.18-7.32-.75-15.75,1.86-22.66a24.57,24.57,0,0,1,4.42-7.64C421.18,550.6,396.12,641.26,519.7,633Z"/><path class="cls-10" d="M584.19,580.25a73.91,73.91,0,0,1-10.71,25,62,62,0,0,1-12.66,14.29c-8.19,6.5-22.59,11.28-40.65,13.39l-.47.05c-123.58,8.3-98.52-82.36-98-84.06h0a17.65,17.65,0,0,1,13.61-6.17c1.49,0,3,0,4.64,0l.46.14S416.12,613.51,584.19,580.25Z"/><path class="cls-11" d="M453.15,576a19.53,19.53,0,0,1-.29,3.71c-.84,4.45-3.83,6.12-12,6.36-7.61.21-12.63-7.16-13.2-18.78a55.81,55.81,0,0,1,.95-12.76c-.1.93-1,12.26,18.47,13.08C447.08,567.6,453.15,568.71,453.15,576Z"/><path class="cls-11" d="M568.13,568.79c-.08,1-.2,1.94-.35,2.86-1.49,9.06-6.14,14.59-12.75,14.41a34.17,34.17,0,0,1-5.62-.55C546.7,585,545,584,544,582.41s-1.29-3.63-1.29-6.42c0-7.28,6.06-8.39,6.06-8.39,20.32-.85,18.47-13.15,18.47-13.15A54.89,54.89,0,0,1,568.13,568.79Z"/><ellipse class="cls-12" cx="463.3" cy="559.76" rx="4.26" ry="4.51"/><ellipse class="cls-12" cx="477.37" cy="556.05" rx="4.26" ry="4.51"/><ellipse class="cls-12" cx="501.72" cy="564.27" rx="4.26" ry="4.51"/><ellipse class="cls-12" cx="521.43" cy="562.77" rx="4.26" ry="4.51"/><ellipse class="cls-12" cx="542.15" cy="553.85" rx="4.26" ry="4.51"/><ellipse class="cls-12" cx="535.27" cy="562.07" rx="2.08" ry="2.2"/><ellipse class="cls-12" cx="527.77" cy="554.45" rx="2.08" ry="2.2"/><ellipse class="cls-12" cx="511" cy="556.05" rx="2.08" ry="2.2"/><ellipse class="cls-12" cx="490.93" cy="560.57" rx="2.08" ry="2.2"/><ellipse class="cls-12" cx="454.4" cy="551.54" rx="2.08" ry="2.2"/><path class="cls-13" d="M452.86,579.7a6.38,6.38,0,0,1-2.61,4.38l-.06,0a6.75,6.75,0,0,1-1.31.69h0a23.43,23.43,0,0,1-8,1.25c-6.48.18-11.08-5.13-12.66-13.89a38.28,38.28,0,0,1-.54-4.89,24.14,24.14,0,0,0,2.78,5.12c2.89,4.15,8.2,9.19,16.71,8.52A23.84,23.84,0,0,0,452.86,579.7Z"/><path class="cls-13" d="M567.78,571.65c-1.49,9.06-6.14,14.59-12.75,14.41a34.17,34.17,0,0,1-5.62-.55C546.7,585,545,584,544,582.41l.73.12C557.22,584.52,564.2,577.54,567.78,571.65Z"/><path class="cls-14" d="M448.86,584.81c-19.3,9.69-20.66-12.64-20.66-12.64,1.58,8.76,6.18,14.07,12.66,13.89A23.43,23.43,0,0,0,448.86,584.81Z"/><path class="cls-14" d="M549.45,585.52h0a34.17,34.17,0,0,0,5.62.55c6.61.18,11.26-5.35,12.75-14.41.15-.92.27-1.88.35-2.86C568.13,568.79,568.39,593.15,549.45,585.52Z"/><path class="cls-14" d="M446,544s61,12.86,107.7-1.13C528.45,549.35,509.11,556.94,446,544Z"/></g><path class="cls-3" d="M373.63,555.94a7.38,7.38,0,0,1-5.89,5.78l-.69.09a26.28,26.28,0,0,0-9.21,2.29,8.92,8.92,0,1,1-2.14-16.79,24.16,24.16,0,0,0,9.28-.12,8,8,0,0,1,1.41-.13A7.4,7.4,0,0,1,373.63,555.94Z"/><path class="cls-3" d="M626.37,555.94a7.38,7.38,0,0,0,5.89,5.78l.69.09a26.28,26.28,0,0,1,9.21,2.29,8.92,8.92,0,1,0,2.14-16.79,24.16,24.16,0,0,1-9.28-.12,8,8,0,0,0-1.41-.13A7.4,7.4,0,0,0,626.37,555.94Z"/></g></g></g></svg>