<svg xmlns="http://www.w3.org/2000/svg" viewBox="0 0 1000 1000"><defs><style>.cls-1{fill:none;}.cls-2{fill:#4c1e45;}.cls-3{fill:#ff66e2;}.cls-4{fill:#993d8c;opacity:0.2;}</style></defs><g id="Layer_2" data-name="Layer 2"><g id="OutPut"><rect id="BG" class="cls-1" width="1000" height="1000"/></g><g id="Pink_Hair" data-name="Pink Hair"><g id="_4" data-name="4"><path class="cls-2" d="M614.51,363.58c-1.54,3.59-7.73,17.64-12.74,23.48,1.22.08,2.44.15,3.67.21l3,.14c28,1.17,57.21-1.26,64.22-2.61q-6.89-3.56-13.43-6.49l-1.13-.5A211.4,211.4,0,0,0,614.51,363.58Z"/><path class="cls-2" d="M424.78,373c-9.9,5.17-25.17,8.64-41.2,10.9l-3,.4c-27.82,3.67-57.09,3.86-64.2,3.14,4.36-2.77,8.63-5.34,12.8-7.67l1.08-.6c43.61-24.23,76.44-25.68,93.21-24.08C435,356.15,435.85,367.17,424.78,373Z"/><path class="cls-2" d="M426.3,168.53c87.07,150.47,24,169.56,24,169.56,16.69-.68,52.91-14.41,63.73-27.38a92.26,92.26,0,0,0,7.27-10c30.53-48.47,8.61-114.91-47-135.83-14.29-5.38-26.51-8.18-37.4-9.16l-.48,0c-2.83.84-5.34,1.65-7.5,2.38a6.58,6.58,0,0,0-1.84,1,0,0,0,0,1,0,0,12.46,12.46,0,0,0-1.84,2.26s0,0,0,0C425.5,168.62,423,162.8,426.3,168.53Z"/><path class="cls-3" d="M605.43,387.27l3,.14c28,1.17,57.21-1.26,64.22-2.61q-6.89-3.56-13.43-6.49l-1.13-.5C640.28,380.78,621.44,384.24,605.43,387.27Z"/><path class="cls-3" d="M383.58,383.85l-3,.4c-27.82,3.67-57.09,3.86-64.2,3.14,4.36-2.77,8.63-5.34,12.8-7.67l1.08-.6C348.29,380.49,367.36,382.26,383.58,383.85Z"/><path class="cls-3" d="M632,366.16c.62-5.38.67-12.86-.54-23.21a62.41,62.41,0,0,1-1,12.69,56.31,56.31,0,0,1-6.56,18.23l0,0a149.64,149.64,0,0,1-21.51,15.41q-4.63,2.76-9.71,5.39a236.52,236.52,0,0,1-32.94,13.82q-6.87,2.33-14.3,4.46l-3.75,1c28.89-44.84,14.78-94.08-6.49-128.14-40.56-65-91.25-98.65-108.8-117.36a6.39,6.39,0,0,1-1.09-7.2s0,0,0,0a6.26,6.26,0,0,1,1.84-2.26,0,0,0,0,0,0,0,6.58,6.58,0,0,1,1.84-1c2.16-.73,4.67-1.54,7.5-2.38,21-6.21,59.41-14.1,102.62-6.25a150.09,150.09,0,0,1,47.7,17.39h0c4.3,2.45,8.46,5.12,12.48,8h0a148.65,148.65,0,0,1,39,41,144.5,144.5,0,0,1,22,62.61C663.45,307.79,657.69,339.35,632,366.16Z"/><path class="cls-4" d="M632,366.16c.62-5.38.67-12.86-.54-23.21,0,0,31.88-72.67,6.86-127.14a144.5,144.5,0,0,1,22,62.61C663.45,307.79,657.69,339.35,632,366.16Z"/></g></g></g></svg>