<svg xmlns="http://www.w3.org/2000/svg" viewBox="0 0 1000 1000"><defs><style>.cls-1{fill:none;}.cls-2{fill:#993d8c;}.cls-3{fill:#ff66e2;}.cls-4{fill:#4c1e45;}</style></defs><g id="Layer_2" data-name="Layer 2"><g id="OutPut"><rect id="BG" class="cls-1" width="1000" height="1000"/></g><g id="Pink_Hair" data-name="Pink Hair"><g id="_2" data-name="2"><path class="cls-2" d="M407.34,376.59c-7.06,7.84-20.9,13.12-36,16.56-24.5,5.61-52.26,6.39-59.4,5.51q4-5.91,8.07-10.91c9.73-12,19.7-20.22,29.29-25.79h0c18.72-10.88,36-11.62,47.19-10.33,6,.69,10.66,5.17,12.74,10.47C411.22,367,410.92,372.62,407.34,376.59Z"/><path class="cls-2" d="M685.46,388.1c-7,1.73-34.63,4.33-59.63,1.72-15.37-1.59-29.75-5.16-37.71-12.09-4.14-3.6-5.06-9.36-3.56-14.58h0v0c1.53-5.33,5.58-10.1,11.26-11.48a74.2,74.2,0,0,1,33.08-.29c14.13,3.06,30.43,10.69,47.22,26.9Q680.78,382.71,685.46,388.1Z"/><path class="cls-3" d="M371.37,393.15c-24.5,5.61-52.26,6.39-59.4,5.51q4-5.91,8.07-10.91C337.12,389.2,356,391.31,371.37,393.15Z"/><path class="cls-3" d="M625.83,389.82c25,2.61,52.65,0,59.63-1.72q-4.68-5.39-9.33-9.85C659.35,381.75,640.83,386.14,625.83,389.82Z"/><path class="cls-4" d="M338.46,166.12c-34.62-7.84-69,108.35-38.62,128.43S378.22,175.13,338.46,166.12Z"/><path class="cls-4" d="M399.32,139.78c-32.9-13.34-85.62,95.76-58.88,120.49S437.1,155.1,399.32,139.78Z"/><path class="cls-4" d="M608.68,132.14c-34-10.21-76.29,103.34-47.35,125.46S647.73,143.86,608.68,132.14Z"/><path class="cls-4" d="M445.05,116.1c-35.5-.67-45.64,120.08-11.82,133.59S485.81,116.88,445.05,116.1Z"/><path class="cls-4" d="M520.71,115.77c-35.49-.67-45.64,120.08-11.81,133.59S561.48,116.54,520.71,115.77Z"/><path class="cls-4" d="M676.18,174.8c-34-10.21-76.29,103.35-47.35,125.47S715.23,186.53,676.18,174.8Z"/><path class="cls-2" d="M704.78,346a18.52,18.52,0,0,1-6.56-1.18c-7.12-2.52-14.72-9-22-17.94a144.17,144.17,0,0,1-14.12-21.39c-.42-.76-.83-1.53-1.24-2.31C639,261.65,629.24,203.25,668,191.24l1.28-.38c.43-.11.87-.23,1.31-.33A55.54,55.54,0,0,1,682.94,189c10.73-.17,20.16,10.94,27.43,27.32v0C730.31,261.23,734.16,345.53,704.78,346Z"/><path class="cls-2" d="M296.22,330.3a13.5,13.5,0,0,1-8.31-2.59c-12.72-9.17-14.21-40.54-7.05-71.45,10.54-45.5,39.82-90,79.62-61.33C389.4,215.78,330.36,329.74,296.22,330.3Z"/><path class="cls-3" d="M349.76,304.2a22,22,0,0,1-6.07-4.22h0c-19.77-19-25.9-80.42-10.56-118.8,10.23-25.61,30-40.94,61.66-26.55C434.16,172.53,389.14,322.11,349.76,304.2Z"/><path class="cls-3" d="M656.81,312.15c-5.68,5.7-12.62,8.5-20.82,7.25-54.36-8.29-116.55-187.51-1-169.88,14.92,2.27,25.83,16.73,32.67,36.33h0C682,226.89,678.48,290.47,656.81,312.15Z"/><path class="cls-2" d="M402.78,289.69h0c-.66-.16-1.33-.35-2-.56-17.55-5.4-17.44-52.19-8.56-96.5,9-44.75,26.9-87,44.63-81.53C471.8,121.84,475.66,308.76,402.78,289.69Z"/><path class="cls-3" d="M475.54,293.44c-6.34-2-12.16-7.5-17.22-15.38,0,0,0,0,0,0-19.57-30.45-28-96.75-13.12-139.34,10.07-28.79,30.81-46.75,66-35.47C558.6,118.4,523,308.64,475.54,293.44Z"/><path class="cls-2" d="M572.92,292.91h0c-8.64,9.24-18,13.4-27.33,9.71-6.72-2.65-12.63-9-17.54-18-17.78-32.31-22.54-97.89-5.79-140h0c11.94-30,34.83-48.06,71.73-33.51,12.46,4.92,18.51,21.24,19.8,42.45h0C616.54,199,597.56,266.58,572.92,292.91Z"/><path class="cls-4" d="M458.3,278c-19.57-30.45-28-96.75-13.12-139.34C445.05,140.6,439.12,232.86,458.3,278Z"/><path class="cls-4" d="M528.05,284.67c-17.78-32.31-22.54-97.89-5.79-140C522.19,145.89,516.84,243.93,528.05,284.67Z"/><path class="cls-4" d="M572.92,292.91c18.51-29.31,40.7-138.41,40.87-139.26C616.54,199,597.56,266.58,572.92,292.91Z"/><path class="cls-4" d="M656.81,312.15a41.31,41.31,0,0,1,2.86-6.46c14.57-27.14,8-118.7,8-119.83C682,226.89,678.48,290.47,656.81,312.15Z"/><path class="cls-4" d="M343.68,300c-19.77-19-25.9-80.42-10.56-118.8C333.12,181.17,318.05,262.62,343.68,300Z"/><path class="cls-4" d="M296.22,330.3a13.5,13.5,0,0,1-8.31-2.59c-12.72-9.17-14.21-40.54-7.05-71.45l.47.39S275.69,312.23,296.22,330.3Z"/><path class="cls-4" d="M704.78,346a18.52,18.52,0,0,1-6.56-1.18l.17-.14c30.55-25.81,12.3-126.55,12-128.28C730.31,261.23,734.16,345.53,704.78,346Z"/><path class="cls-4" d="M402.77,289.68c-.66-.16-1.33-.35-2-.56-17.55-5.4-17.44-52.19-8.56-96.5C392.21,192.62,388.56,283.33,402.77,289.68Z"/><path class="cls-4" d="M409.27,362.09l-.14-.13c-16.1-15.32-58.9-.32-59.79,0,18.72-10.88,36-11.62,47.19-10.33C402.5,352.31,407.19,356.79,409.27,362.09Z"/><path class="cls-4" d="M628.91,351.35h-.07c-38.47-.87-44,11-44.27,11.77,1.53-5.33,5.58-10.1,11.26-11.48A74.2,74.2,0,0,1,628.91,351.35Z"/></g></g></g></svg>