<svg xmlns="http://www.w3.org/2000/svg" viewBox="0 0 1000 1000"><defs><style>.cls-1{fill:none;}.cls-2{fill:#7f4800;}.cls-3{fill:#4c2d00;}.cls-4{opacity:0.2;}.cls-5{fill:#e57d00;}</style></defs><g id="Layer_2" data-name="Layer 2"><g id="OutPut"><rect id="BG" class="cls-1" width="1000" height="1000"/></g><g id="Mouth_Low"><g id="_9" data-name="9"><path class="cls-2" d="M597.75,578.44a101.71,101.71,0,0,1-6.86,22.33c-5.13,11.64-13.69,24.07-27.25,26.92-25.58,5.39-42.69-8.27-44.39-9.69,1.34,1.27,12,11.23,18.27,12.18,6.73,1-37.33-1.82-37.51-23.56-.2,21.74-44.26,24.6-37.53,23.56,6.3-.95,16.94-10.91,18.29-12.18-1.71,1.42-18.82,15.08-44.4,9.69-13.57-2.85-22.12-15.28-27.26-26.92a102.35,102.35,0,0,1-6.86-22.33c.67.59,22.36,19.57,31.58,19.24s7.3-3.72,20.18-9.46,27.19-2.56,27.19-2.56,1.17,0-10.24-5.29C491.73,579,500,588.22,500,588.22s8.28-9.24,29-7.85c-11.41,5.29-10.24,5.29-10.24,5.29s14.34-3.17,27.2,2.56,10.82,9.13,20.17,9.46S597.08,579,597.75,578.44Z"/><path class="cls-3" d="M500.66,661.24h0Z"/><path class="cls-4" d="M590.88,600.8c-5.13,11.63-13.7,24-27.24,26.89-25.58,5.39-42.69-8.27-44.39-9.69,1.34,1.27,12,11.23,18.27,12.18,6.73,1-37.33-1.82-37.51-23.56-.2,21.74-44.26,24.6-37.53,23.56,6.3-.95,16.94-10.91,18.29-12.18-1.71,1.42-18.82,15.08-44.4,9.69-13.57-2.85-22.1-15.26-27.25-26.91,45.58,36.37,63.79,8.32,63.79,8.32s2.93,3.73-9.75,12.64c10.46-1.23,24.5-13.88,31.86-21.22a7,7,0,0,1,10,0c7.36,7.34,21.4,20,31.85,21.22-12.66-8.91-9.75-12.64-9.75-12.64S545.31,637.15,590.88,600.8Z"/><path class="cls-3" d="M500,661.25h0Z"/><path class="cls-5" d="M511.05,592.81s11.49-1.09,10.79-3c6.4,2.1,17.18,7.29,20.08,7.1-12.19,0,4.24,7.1,11.41,6.74-23.51.76-35.79-4.19-34.3-.46C514.38,598.44,515.7,593.54,511.05,592.81Z"/><path class="cls-5" d="M489,592.81s-11.48-1.09-10.78-3c-6.4,2.1-17.19,7.29-20.08,7.1,12.19,0-4.25,7.1-11.42,6.74,23.52.76,35.79-4.19,34.3-.46C485.63,598.44,484.32,593.54,489,592.81Z"/></g></g></g></svg>