<svg xmlns="http://www.w3.org/2000/svg" viewBox="0 0 1000 1000"><defs><style>.cls-1{fill:none;}.cls-2{fill:#00617f;}.cls-3{fill:#00afe5;}.cls-4{fill:#00384c;}</style></defs><g id="Layer_2" data-name="Layer 2"><g id="OutPut"><rect id="BG" class="cls-1" width="1000" height="1000"/></g><g id="Blue_Hair" data-name="Blue Hair"><g id="_8" data-name="8"><g id="_10" data-name="10"><path class="cls-2" d="M454.07,288.91s-47.35-17.65-93.94-22.39c-14.28-1.45-28.47-1.69-41.23.16a71.21,71.21,0,0,0-23.78,7.48S313.31,241.39,338.2,212c13-15.37,27.64-29.81,42-38.15.7-.41,1.4-.8,2.13-1.2C424.83,149.85,454.07,288.91,454.07,288.91Z"/><path class="cls-3" d="M756.47,130.08c-18.25,126.15-89.93,171.15-173.75,184.51-26.72,4.26-54.69,5.3-82.54,4.73-60.78-1.25-101.56-18-127.12-39.05-22.9-18.81-33.58-41-35.52-58.47-1.13-10.23,1.18-21.24,7.2-31.77.47-.8.94-1.61,1.45-2.41,16.71-26.49,57.36-49.33,126.21-48.18,98.08,1.64,130.76,56.4,186.53,51.25,18.25-1.68,35-8.77,49.28-17.52C737.56,155.17,756.47,130.08,756.47,130.08Z"/><path class="cls-2" d="M756.47,130.08c-18.25,126.15-89.93,171.15-173.75,184.51,0,0,0,0,0,0,149.61-60.24,125.44-141.4,125.44-141.4C737.56,155.17,756.47,130.08,756.47,130.08Z"/><path class="cls-4" d="M318.9,266.68a71.21,71.21,0,0,0-23.78,7.48S313.31,241.39,338.2,212C338.2,212,301.44,263.79,318.9,266.68Z"/></g><path class="cls-2" d="M413.64,367.8A148.65,148.65,0,0,1,370.81,388h0c-34.25,9.78-60.14,3.3-60.14,3.3A163.88,163.88,0,0,1,329.78,383h0A244.6,244.6,0,0,1,413.64,367.8Z"/><path class="cls-4" d="M370.78,388c-34.25,9.78-60.14,3.3-60.14,3.3A163.88,163.88,0,0,1,329.78,383C329.3,383.45,317.92,394.06,370.78,388Z"/><path class="cls-2" d="M586.36,367.8A148.65,148.65,0,0,0,629.19,388h0c34.25,9.78,60.14,3.3,60.14,3.3A163.88,163.88,0,0,0,670.22,383h0A244.6,244.6,0,0,0,586.36,367.8Z"/><path class="cls-4" d="M629.22,388c34.25,9.78,60.14,3.3,60.14,3.3A163.88,163.88,0,0,0,670.22,383C670.7,383.45,682.08,394.06,629.22,388Z"/></g></g></g></svg>