<svg xmlns="http://www.w3.org/2000/svg" viewBox="0 0 1000 1000"><defs><style>.cls-1{fill:none;}.cls-2{fill:#aaa;}.cls-3{fill:#161819;}.cls-4{opacity:0.2;}.cls-5,.cls-6{opacity:0.75;}.cls-5{font-size:35.29px;fill:#fff;font-family:Bauhaus93, "Bauhaus 93";}</style></defs><g id="Layer_2" data-name="Layer 2"><g id="OutPut"><rect id="BG" class="cls-1" width="1000" height="1000"/></g><g id="Cloth"><g id="_1" data-name="1"><path class="cls-2" d="M562.3,681.5c-.32,9.49-9.71,45.56-17.1,46.07l-8.82.61h0l-36.7,2.52L473,728.91l-20.25-1.36c-7.4-.49-14.41-36.11-14.73-45.6l18.22-.07,100.8-.36Z"/><path class="cls-3" d="M562.64,653.53c0,2.26,0,6.94-.07,12.12-.05,5.48-.13,11.52-.27,15.85l-5.23,0-100.8.36-18.22.07c-.32-9.73-.58-19.21-.66-26.26,0-.91,0-1.79,0-2.61a2.65,2.65,0,0,1,1.09-2.21c8.81-6.21,9.24-42.29,9.37-42.29a17.12,17.12,0,0,1,17.7-3.08c2.18.82,3.07,12.62,3.41,19.74a8.66,8.66,0,0,0,2.37,5.58A8.21,8.21,0,0,0,475,633.1c12.46,3.7,35.31,3.71,47.84,0h0q1.56-.46,2.88-1h0c9.07-2.71,7-26.32,10.19-26.61,5.34-.48,9.51-.42,14.53,1.43-.22,6,2,30.74,8,41l.07.1a10.69,10.69,0,0,0,3.14,3.58A2.2,2.2,0,0,1,562.64,653.53Z"/><path class="cls-4" d="M473,728.91l-20.25-1.36c-7.4-.49-14.41-36.11-14.73-45.6-.32-9.73-.58-19.21-.66-26.26,0-.91,0-1.79,0-2.61a2.65,2.65,0,0,1,1.09-2.21c8.81-6.21,9.24-42.29,9.37-42.29a17.12,17.12,0,0,1,17.7-3.08c2.18.82,3.07,12.62,3.41,19.74a8.66,8.66,0,0,0,2.37,5.58s-25.31,30.68-15,50.68l-.06.38C453.26,700.86,448.38,721.54,473,728.91Z"/><path class="cls-4" d="M562.57,665.65c-.05,5.48-.13,11.52-.27,15.85-.32,9.49-9.71,45.56-17.1,46.07l-8.82.61c15.71-3.81,23-43.4,20.69-46.66l-.07-.09c6-2.81,5-15.43,5-15.43Z"/><path class="cls-4" d="M558.46,648c-1.05-1.4-13.63-17.46-35.61-14.84q1.56-.46,2.88-1h0c9.07-2.71,7-26.32,10.19-26.61,5.34-.48,9.51-.42,14.53,1.43C550.24,613,552.43,637.71,558.46,648Z"/><text class="cls-5" transform="translate(465.9 670.99)">ABC</text><g class="cls-6"><path d="M464.82,690.58H467v4.86a3.29,3.29,0,0,1-.7,2.19,3,3,0,0,1-1,.77,3.13,3.13,0,0,1-3.49-.59,2.9,2.9,0,0,1-.89-2.15,3,3,0,0,1,.89-2.14,2.88,2.88,0,0,1,2.11-.91l.58,0v2.41a.88.88,0,0,0-.53-.21.82.82,0,0,0-.59.25.85.85,0,0,0-.24.6.79.79,0,0,0,.25.59.85.85,0,0,0,.6.24c.57,0,.85-.39.85-1.17Z"/><path d="M473.91,696h-3.33a1.67,1.67,0,0,1-.07-.47,1.63,1.63,0,0,1,.1-.57h1.12a.7.7,0,0,0-.74-.65.79.79,0,0,0-.66.35,1.4,1.4,0,0,0-.26.89,1.52,1.52,0,0,0,.25.92.74.74,0,0,0,.65.35.86.86,0,0,0,.63-.33l1.25,1.5a3.05,3.05,0,0,1-1.94.69,3,3,0,0,1-2.18-.87,3.07,3.07,0,0,1,0-4.33,3,3,0,0,1,2.19-.89,3,3,0,0,1,3,3C473.93,695.68,473.92,695.82,473.91,696Z"/><path d="M478,694v2.29h-1v2.25h-2.2v-5a3.28,3.28,0,0,1,.29-1.43,3,3,0,0,1,1.11-1.23,2.77,2.77,0,0,1,1.54-.48H478v2.29h-.11a.8.8,0,0,0-.64.27,1.24,1.24,0,0,0-.22.79v.2Z"/><path d="M482.06,696.17v2a2.54,2.54,0,0,1-.91.18,2.36,2.36,0,0,1-1.79-.8,3,3,0,0,1,.15-4.08,3,3,0,0,1,2.17-.86,3.23,3.23,0,0,1,1.31.27,2.53,2.53,0,0,1,1,.74,3.57,3.57,0,0,1,.6,2.23v1.92a3.64,3.64,0,0,1-.89,2.54,3,3,0,0,1-2.31,1,3.86,3.86,0,0,1-1.1-.22v-2a1.89,1.89,0,0,0,.87.23,1.11,1.11,0,0,0,.91-.39,1.67,1.67,0,0,0,.32-1.11v-2.2c0-.61-.24-.92-.74-.92a.75.75,0,0,0-.55.24.77.77,0,0,0-.24.56.77.77,0,0,0,.78.78A.91.91,0,0,0,482.06,696.17Z"/><path d="M488.06,690.58V693a1.88,1.88,0,0,1,1.11-.41,1.66,1.66,0,0,1,1.34.61,2.55,2.55,0,0,1,.49,1.65v3.7h-2.19v-3.08a1,1,0,0,0-.08-.51.33.33,0,0,0-.3-.13c-.25,0-.37.18-.37.55v3.17h-2.19v-8Z"/><path d="M494.47,692.73v5.84h-2.19v-5.84Zm-1.09-2.61a1.06,1.06,0,0,1,.77.32,1,1,0,0,1,0,1.49,1.11,1.11,0,0,1-.79.29,1.13,1.13,0,0,1-.79-.29,1,1,0,0,1-.3-.75,1,1,0,0,1,.32-.74A1.09,1.09,0,0,1,493.38,690.12Z"/><path d="M496.55,692.73h2.19v4.94a3.81,3.81,0,0,1-.73,2.46,3.11,3.11,0,0,1-2.56,1.16,3.59,3.59,0,0,1-1.13-.21V699a2.31,2.31,0,0,0,.93.25c.87,0,1.3-.63,1.3-1.91Zm1-2.61a1.06,1.06,0,0,1,.77.32,1,1,0,0,1,0,1.49,1.11,1.11,0,0,1-.79.29,1.09,1.09,0,0,1-.78-.29,1,1,0,0,1-.31-.75,1,1,0,0,1,.32-.74A1.09,1.09,0,0,1,497.58,690.12Z"/><path d="M502.22,690.58v8H500v-8Zm3.36,2.15-1.08,2.13,1.6,3.71h-2.43l-1.37-3.81,1-2Z"/><path d="M508.69,690.58v8H506.5v-8Z"/><path d="M518,698.57h-2.2v-3.15a1.17,1.17,0,0,0-.07-.5.27.27,0,0,0-.28-.14c-.24,0-.37.21-.37.65v3.14h-2.19v-3.15a1,1,0,0,0-.08-.5.27.27,0,0,0-.27-.14c-.25,0-.37.21-.37.65v3.14H510V695a2.34,2.34,0,0,1,.66-1.68,2.15,2.15,0,0,1,1.61-.69,2.35,2.35,0,0,1,1.74.82,2.58,2.58,0,0,1,1.73-.82,2.16,2.16,0,0,1,1.75.8,2.75,2.75,0,0,1,.53,1.81Z"/><path d="M524.48,698.57h-2.19v-3.3c0-.33-.14-.5-.42-.5s-.41.17-.41.5v3.3h-2.19v-3.25a2.64,2.64,0,0,1,.76-1.93,2.63,2.63,0,0,1,3.86.13,3,3,0,0,1,.59,2Z"/><path d="M528.53,692.61a3,3,0,0,1,2.12,5.19,3.1,3.1,0,0,1-4.35,0,3,3,0,0,1-.9-2.16,2.91,2.91,0,0,1,.9-2.16A3.08,3.08,0,0,1,528.53,692.61Zm-.06,2.16a.81.81,0,0,0-.6.26.87.87,0,0,0-.25.62.89.89,0,0,0,.25.62.82.82,0,0,0,1.2,0,.84.84,0,0,0,.25-.62.83.83,0,0,0-.25-.62A.79.79,0,0,0,528.47,694.77Z"/><path d="M534.52,700.74h-2.19v-4.88a3.33,3.33,0,0,1,.7-2.19,3,3,0,0,1,1-.77,3.11,3.11,0,0,1,3.48.59,2.91,2.91,0,0,1,.9,2.16,3,3,0,0,1-.89,2.14,2.84,2.84,0,0,1-2.11.91l-.58,0v-2.42a.79.79,0,0,0,1.12,0,.85.85,0,0,0,.24-.6A.78.78,0,0,0,536,695a.85.85,0,0,0-.6-.24c-.57,0-.85.39-.85,1.16Z"/><path d="M474.76,715.14v-4.8c0-.77-.28-1.16-.85-1.16a.85.85,0,0,0-.6.24.78.78,0,0,0-.25.59.85.85,0,0,0,.24.6.82.82,0,0,0,.59.25.83.83,0,0,0,.53-.22v2.42l-.58,0a2.84,2.84,0,0,1-2.11-.91,3,3,0,0,1-.89-2.14,2.91,2.91,0,0,1,.9-2.16,3.11,3.11,0,0,1,3.48-.59,2.87,2.87,0,0,1,1,.78,3.28,3.28,0,0,1,.7,2.18v4.88Z"/><path d="M481.31,707.07v2.35a.82.82,0,0,0-.42-.13c-.39,0-.59.3-.59.91V713h-2.2v-3.19a2.84,2.84,0,0,1,.7-2,2.37,2.37,0,0,1,1.84-.75A4.82,4.82,0,0,1,481.31,707.07Z"/><path d="M485.62,707.21v2.31a.89.89,0,0,0-.64.18,1.14,1.14,0,0,0-.22.68,2.89,2.89,0,0,1-1.31,2.39,3.49,3.49,0,0,1-1.75.36h-.3v-2.32h.1a1,1,0,0,0,.75-.22,1.13,1.13,0,0,0,.26-.77,5.3,5.3,0,0,1,.17-1.26,1.81,1.81,0,0,1,.49-.72,2.43,2.43,0,0,1,1.78-.63Z"/><path d="M488.28,705v2.23h1v2.32h-1a1.61,1.61,0,0,0,.22,1,1,1,0,0,0,.81.26v2.31h-.25a3,3,0,0,1-1.41-.34,2.92,2.92,0,0,1-1.06-.94,3.62,3.62,0,0,1-.5-2V705Z"/><path d="M490.34,707.21h2.2v3.3c0,.33.13.5.41.5s.41-.17.41-.5v-3.3h2.19v3.26a2.66,2.66,0,0,1-.75,1.92,2.63,2.63,0,0,1-3.86-.13,2.93,2.93,0,0,1-.6-2Z"/><path d="M501.22,707.13l-2.73,6.07-2.7-6.07h2.1l.62,1.58.68-1.58Z"/><path d="M501.45,707.21h2.2v3.15a1.19,1.19,0,0,0,.07.51.28.28,0,0,0,.28.15c.24,0,.37-.22.37-.66v-3.15h2.19v3.15a1,1,0,0,0,.08.51.28.28,0,0,0,.28.15q.36,0,.36-.66v-3.15h2.19v3.6a2.3,2.3,0,0,1-.66,1.67,2.15,2.15,0,0,1-1.61.69,2.31,2.31,0,0,1-1.74-.82,2.51,2.51,0,0,1-1.73.82,2.15,2.15,0,0,1-1.75-.79,2.77,2.77,0,0,1-.53-1.81Z"/><path d="M513.7,707.13h2.19v1.29a2,2,0,0,1-.16.88,1.49,1.49,0,0,1-.55.6,1.52,1.52,0,0,1,.55.59,1.85,1.85,0,0,1,.16.84V713H513.7v-1.76q0-.6-.42-.6c-.28,0-.41.17-.41.52V713h-2.19v-1.55a1.74,1.74,0,0,1,.19-.88,1.88,1.88,0,0,1,.69-.64,2,2,0,0,1-.69-.67,1.82,1.82,0,0,1-.19-.9v-1.2h2.19v1.48a.55.55,0,0,0,.12.37.34.34,0,0,0,.29.15c.28,0,.42-.17.42-.52Z"/><path d="M517.84,715.53v-1.9a2.2,2.2,0,0,0,.78.19,1.37,1.37,0,0,0,1.38-1.2,2.23,2.23,0,0,1-1.12.34,1.71,1.71,0,0,1-1.34-.61,2.27,2.27,0,0,1-.53-1.54v-3.68h2.19v3.14c0,.35.15.52.44.52s.41-.19.41-.57v-3.09h2.19v5.22a3.33,3.33,0,0,1-.82,2.35,3.09,3.09,0,0,1-2.36,1.07A3.31,3.31,0,0,1,517.84,715.53Z"/><path d="M528.4,707.13l-1.8,3.55h2.07V713H523l1.79-3.55H523v-2.29Z"/></g></g></g></g></svg>