<svg xmlns="http://www.w3.org/2000/svg" viewBox="0 0 1000 1000"><defs><style>.cls-1{fill:none;}.cls-2{fill:#5a634d;}.cls-3{fill:#434938;}.cls-4{fill:#6e775e;}.cls-5{fill:#383d30;}</style></defs><g id="Layer_2" data-name="Layer 2"><g id="OutPut"><rect id="BG" class="cls-1" width="1000" height="1000"/></g><g id="Cloth"><g id="_2" data-name="2"><path class="cls-2" d="M563.07,674.86c0,.31,0,.61,0,.92h0c.14,11.83-3.47,24.19-5.82,33-5.23,19.5-80,40.43-92.78,40.43-4.81,0-9.29-4-13.22-10.31-9.2-14.75-15.43-42.17-16.06-60.78q-.06-1.58-.06-3.06l-.33-11c4.58-10.16,9.32-50.07,12.41-61.38,7,1,15.16,1.93,24.8,2.69l2.83.22c3.73,4.6,8.67,33.66,13.17,36.26a22.1,22.1,0,0,1,10.68,14.39.49.49,0,0,1,0,.12.62.62,0,0,1-.09.32l-2.73,4.61-3.58,6.06,10.81-10.9a8.51,8.51,0,0,0,2.42-7.06,8.24,8.24,0,0,1-.05-.85,7,7,0,0,1,3.62-6.14c4.35-2.42,9.25-31.26,13.11-35.6l2.37-.1a205.92,205.92,0,0,0,26.62-2.82c3.08,11,7.6,50.11,12,59.9Z"/><path class="cls-3" d="M498.71,656.33a.62.62,0,0,1-.09.32l-2.73,4.61c-2.86-2.76-17.12-12.83-30.83-11.76-11.38.89-24.29,19.61-29.86,28.59q-.06-1.58-.06-3.06l-.33-11c4.58-10.16,9.32-50.07,12.41-61.38,7.63,1.12,16.75,2.11,27.63,2.91,3.73,4.6,8.67,33.66,13.17,36.26,5.44,3.13,10.22,5.67,11.54,11.74C499.57,653.6,498.71,656.29,498.71,656.33Z"/><path class="cls-4" d="M563.08,675.79c.14,11.83-3.47,24.19-5.82,33-5.23,19.5-80,40.43-92.78,40.43-4.81,0-9.29-4-13.22-10.31C520.87,729.61,556.09,686,563.08,675.79Z"/><path class="cls-5" d="M524.59,606.67c-1.71,1.43-12.92,36.25-15.53,37.33-2.83,1.17.08,6.83-3.83,13.33s-18,14.42-18.41,14.66l11.89-17.61s-3.73-8.21-9.57-9c-4.36-.56-12.91-34.73-17.12-40.08l2.83.22c3.73,4.6,8.67,33.66,13.17,36.26,5.44,3.13,10.73,3.94,12.05,10,0,0,1.51,1.46,1.51,1.5s-2.5,3.41-2.56,3.51l-.72,3.1-6,7.38,10.81-10.9a8.51,8.51,0,0,0,2.42-7.06,8.24,8.24,0,0,1-.05-.85,7,7,0,0,1,3.62-6.14c4.35-2.42,9.25-31.26,13.11-35.6Z"/></g></g></g></svg>