<svg xmlns="http://www.w3.org/2000/svg" viewBox="0 0 1000 1000"><defs><style>.cls-1{fill:none;}.cls-2{fill:#272624;}.cls-3{opacity:0.2;}.cls-4{fill:#fff;}.cls-5{fill:#191919;}.cls-6{fill:#adadad;}.cls-7{fill:#0a0a0a;}.cls-8{fill:#931616;}</style></defs><g id="Layer_2" data-name="Layer 2"><g id="OutPut"><rect id="BG" class="cls-1" width="1000" height="1000"/></g><g id="Cloth"><g id="_4" data-name="4"><path class="cls-2" d="M436.56,656.94l-7.64-6.45-9.81,2.56L407,635.81l-1.62.29-1-3.61-4.07,2-5.89-8.55L391,632.87l-4.29-6.06-.71.3s-1-42.79,50.75-25.37a55.31,55.31,0,0,1,3.9,16.5v0C442.41,637.57,436.56,656.94,436.56,656.94Z"/><path class="cls-2" d="M615,626.81l-1.68.15.26,8.85-15.49-4.08-7.41,3.56-1.51-7L585,636.05l1.06,7.39-12.41,1.09-4.35,6V647l-7,8.65s-7.86-28-6.3-46.41c.72-8.51,3.46-15,9.94-15.61C618,588.43,615,626.81,615,626.81Z"/><path class="cls-3" d="M436.56,656.94l-7.64-6.45s7.9-8.23,11.69-32.23C442.41,637.57,436.56,656.94,436.56,656.94Z"/><path class="cls-3" d="M569.25,650.49V647l-7,8.65s-7.86-28-6.3-46.41a12.8,12.8,0,0,1,.94,5c.42,18.83,16.69,30.28,16.69,30.28Z"/><path class="cls-2" d="M498.68,730.56l-.14.19-6-13.43-1.08,1.9.95-2.21L462,648.29l-3.83-8.64-4.7-10.59q5.64.69,12.26,1.3l.62.06,13.82,43,1.76,5.48,6.59,20.52,1.77,5.49,3.16,9.84h0v0l.21.66h0l1.61,5,.34,1.06,3,9.25Z"/><path class="cls-4" d="M552.56,613.9l-5,11.3-17.65,39.45h0l-29.63,66.21-.06.13,0-.18,0,.17-.56-1.22-7.66-17.12h0l-.35-.78,0,0h0l-19.15-42.75,0-.07-2.86-6.36L447,612.52c2.15.14,4.36.29,6.62.42l3.79.22c.57,0,1.17.07,1.76.09a1.63,1.63,0,0,0,.31,0c2.33.13,4.73.24,7.17.36l1.26.06c5.14.25,10.48.46,16.07.67,3,.11,5.92.2,8.79.27l2.09.06.76,0h0l3.85.08,3.07.05h2.76c9.16.13,17.71.07,25.68-.11l1.27,0c.76,0,1.52,0,2.26-.06l2.16-.07,4-.14c1.3,0,2.6-.09,3.86-.15h0l2.55-.13c.13,0,.27,0,.4,0l.52,0,1.49-.08Z"/><ellipse class="cls-5" cx="500.13" cy="661.75" rx="4.72" ry="4.81"/><path class="cls-2" d="M553.83,721.56l-52.26,13.17L500,731l-.76-2-5-12.71-.18-.46L491.19,707l-1.45-4.47L482,678.77l0,0,.39-.38,14-13.62,6.79-6.62,27-26.31.94-.07,1.92-.15c3.49-.28,6-.76,9.07-1.17.22,0,10.92-16.15,11.13-16.18a65.18,65.18,0,0,0,7.51-1.73l.65,30.92,1.72,25.88Z"/><polygon class="cls-5" points="479.69 680.61 480.76 679.77 488.5 699.39 489.74 702.53 494.56 714.72 491.19 707 490.27 704.88 479.69 680.61"/><path class="cls-5" d="M553.3,614.25l-10.38,16.31-38.15,30.36-6.62,5.2-15.68,12.31-.41.32,0,0-.13.1-1.15.9-2.05-5.18,1.44-1.2.5-.42,14.91-12.45,4.27-3.57s16.41-14.57,31.36-26.52C542.39,621.48,553.21,614.26,553.3,614.25Z"/><path class="cls-2" d="M500.12,731l-.1,0h0l-1.39-.24h0l-53.11-8.1-8.49-53.37-1-24.53L435,616c.24,0,12.65,4,12.84,4,1.72.25,10.27,19.67,10.27,19.67L493.67,717l.14.31,1.45,3.17,3.95,8.6.42.92.43.93Z"/><path class="cls-5" d="M500,731l-4.37-9.49-1.92-4.19-.13-.31L462,648.29,447.88,620l16,.58L480.65,673l1.8,5.4,0,.06,12.09,36.29h0v0l.22.66h0L499.63,730l.35,1Z"/><ellipse class="cls-5" cx="490.86" cy="680.83" rx="4.72" ry="4.81"/><path class="cls-6" d="M525.71,625.94l-5.28,5.43-.16.15-1,1.06,0,0-8.57,8.77-7.22-12.08h0l-.37-.63,0,0-.28-.46-1.06-1.8.42,0h1.32c5.78.15,11.18.09,16.21-.12.27,0,.54,0,.8,0l1.43-.06,1.35-.09Z"/><path class="cls-6" d="M499.74,626.31l-1.13,1.89v0l0,0-.61,1-7.19,12.08-8.83-9,0,0-2.09-2.16-.16-.15-5.36-5.5a.69.69,0,0,0,.2,0c1.47.15,3,.29,4.52.42l.8.07c3.24.29,6.61.53,10.14.78,1.88.12,3.74.23,5.55.31l1.32.07.48,0h0Z"/><path class="cls-2" d="M520.43,626.25v6.62l-1.07-.26-.12,0-15.82-3.86-.22-.06-.18,0-1.69-.42-1.21-.3-1.22.3-.15,0-.18,0-1.75.44-14.76,3.6-.12,0-2.13.52V625c3.24.29,6.61.53,10.14.78,1.88.12,3.74.23,5.55.31l1.32.07.48,0h0l2.43.1,1.94.05.42,0h1.32c5.78.15,11.18.09,16.21-.12C519.9,626.27,520.17,626.27,520.43,626.25Z"/><path class="cls-7" d="M503.42,626.4v2.9h-6.6v-3.11l.48,0h0l2.43.1,1.94.05.42,0h1.32Z"/><ellipse class="cls-5" cx="500.13" cy="648.25" rx="4.72" ry="4.81"/><g id="_1" data-name="1"><polygon class="cls-8" points="504.4 677 503.42 679.77 505.39 681.67 501.73 686.24 500.32 687.98 500.31 687.99 499.38 686.68 488.51 671.53 496.36 635.64 496.58 634.62 497.32 631.23 498.19 627.26 500.31 626.42 501.73 626.42 503.85 627.26 505.11 633.02 505.46 634.62 512.44 666.56 509.57 674.31 504.4 672.21 504.4 677"/><polygon class="cls-8" points="500.32 687.98 500.32 688 500.31 687.99 500.32 687.98"/><polygon class="cls-8" points="501.73 686.24 500.32 688 500.32 687.98 501.73 686.24"/><polygon class="cls-3" points="499.38 686.68 488.51 671.53 496.36 635.64 493.11 672.99 499.38 686.68"/><path class="cls-8" d="M511.86,622.3l-1.39,3.78-.78,2.15-.69,1.89-1,2.62-.13.35a2.19,2.19,0,0,1-2,1.53h-9.53a3.46,3.46,0,0,1-3.17-2.42h0l-.77-2.11-.09-.25h0l-1-2.69-2-5.48c.88.06,1.78.13,2.69.18h.14l1.67.1c2.06.12,4.08.2,6,.27l1.33,0C505,622.35,508.53,622.36,511.86,622.3Z"/><path class="cls-3" d="M508,632.74l-.13.35a2.19,2.19,0,0,1-2,1.53h-9.53a3.46,3.46,0,0,1-3.17-2.42h0l-.77-2.11-.09-.25h0l-1-2.69-2-5.48c.88.06,1.78.13,2.69.18a15.81,15.81,0,0,0,1.88,5.81c.07.13.14.25.22.37a12.15,12.15,0,0,0,.87,1.2,10.1,10.1,0,0,0,2.31,2l.41.24a10.75,10.75,0,0,0,2.34,1s0,0,0,0a9.37,9.37,0,0,0,1.34.33.1.1,0,0,1,.07,0A17.89,17.89,0,0,0,504,633c.35,0,.7,0,1.07,0a19.32,19.32,0,0,0,2.62-.24h0A1.65,1.65,0,0,0,508,632.74Z"/></g></g></g></g></svg>