<svg xmlns="http://www.w3.org/2000/svg" viewBox="0 0 1000 1000"><defs><style>.cls-1{fill:none;}.cls-2{fill:#00a551;}.cls-3{fill:#c0172c;}.cls-4{opacity:0.1;}.cls-5{fill:#00662e;}.cls-6{fill:#c7ad63;}.cls-7{fill:#fff;}.cls-7,.cls-8{opacity:0.2;}.cls-9{fill:#af936b;}.cls-10{fill:#ca1605;}.cls-11{fill:#8c653c;}.cls-12{fill:#990820;}.cls-13{fill:#8affb9;}</style></defs><g id="Layer_2" data-name="Layer 2"><g id="OutPut"><rect id="BG" class="cls-1" width="1000" height="1000"/></g><g id="Cloth"><g id="_9" data-name="9"><path class="cls-2" d="M434.25,702.92c-2.46,1.3-.15,5.15-4.76,6h0c.12-1.6.22-4.32-.43-5.72l-1.07,0h0s1.15,4.9.44,5.86c-1.54.26-4.83,1.53-8.05,2.62a28.58,28.58,0,0,1-6.41,1.62h0c-.07-.36-.15-.77-.22-1.22-.37-2.16-.73-5-.17-5.92l-2.28-.19a48,48,0,0,1-.17,6.12,5.28,5.28,0,0,1-.3,1.33c-1.08,0-5.72.18-6.88.18a69.52,69.52,0,0,1-8.14-.45,20.29,20.29,0,0,0,0-3.66c-.05-1.88.08-3.93,1.22-5-.67-.13-1.34-.27-2-.42a17.39,17.39,0,0,0-1.33,4.47c-.22,1.65-.08,3.37,1,4.45a37.87,37.87,0,0,1-11.36-3.22c-1.67-3.49.44-7.11,1.51-8.61-1-.36-1.92-.74-2.8-1.14-2,1.81-.6,8.74-.6,8.74-2.23-1.31-2.57-5.42-2.28-10v0s0-.09,0-.13c.1-1.64.29-3.35.49-5a.08.08,0,0,0,0-.07c1-5.81,2.74-14.57,2.41-15.17q-.21-.39-.39-.81a17,17,0,0,1-1.3-4.76l47.93,20.13v0c0,.11,5.92,2.43,5.58,2.87a2.38,2.38,0,0,1-.39.45c-.8.83,0,1.12.73,1.93a26.36,26.36,0,0,1,.26,2.75A3.41,3.41,0,0,1,434.25,702.92Z"/><path class="cls-3" d="M442.05,647.81c-2.53,5.07-5.06,9.59-6.94,13.13a0,0,0,0,0,0,0c-.86,1.63,7.52,4.17,7,5.34-.07.16-.14.33-.23.51s-.2.62-.29.92h0c-3.21,10.62-8.94,11.18-8.67,19.73h0a39.35,39.35,0,0,1-.15,4.82s1.49,3,1.15,3.47a2.38,2.38,0,0,1-.39.45c-.8.83,0,1.12.73,1.93a2.81,2.81,0,0,1,.38.55l.1.21c.06.14-.31.09-.47.14-2.93.84-1,4-5.2,4.13l-1.08,0a1.77,1.77,0,0,0-.41,0,2.2,2.2,0,0,0-1.17.75c-1.42,1.64-10.34,2.37-12.84,2.17l-2.28-.19h0c-3.63-.36-10.8-.76-14.3-1.45-.67-.13-1.34-.27-2-.42a73.87,73.87,0,0,1-10.14-2.91c-1-.36-1.92-.74-2.8-1.14-2.75-1.25-1.39.59-2.8-.92-.22-.23,0-2.85.42-5.58a.08.08,0,0,0,0-.07,146,146,0,0,0,1.4-15.82,3.22,3.22,0,0,0,0-.54c-.65-1.44-3.74-12-3-12,.75-2.67,1.36-4.46,1.74-6a13.92,13.92,0,0,0,.42-3.06c0-.06.16-1.57.42-3.85.53-4.5,1.48-12,2.5-17.35h0c.33-1.71.67-3.21,1-4.31a232,232,0,0,1,12.43-31.23s27.62-9.29,43.83-4.4h0c5.05,1.52,9,4.42,10.65,9.41C455.39,617.53,448.68,634.56,442.05,647.81Z"/><path class="cls-4" d="M442.05,647.81c-2.53,5.07-5.06,9.59-6.94,13.13a0,0,0,0,0,0,0c-.86,1.63,7.52,4.17,7,5.34-.07.16-.14.33-.23.51s-.2.62-.29.92c0,0-8-31.46-9.82-38.91C432.68,631.59,439.65,640.84,442.05,647.81Z"/><path class="cls-3" d="M565.91,631.73c.93,2.64.47,11.62-.69,22.89-.39,3.78-.86,7.81-1.39,12-.09.73-.18,1.46-.28,2.19-2.79,21.46-6.9,44.94-8.8,49.52-1.49,3.6-5,5.07-9.2,5.79-5.43.94-11.92.61-16.37,2-7.85,2.55-25-7-39.17-2.31s-35.76-4.92-40.95-5.53c-3.72-.43-6.92-21.49-9.17-33.51a.28.28,0,0,0,0-.09.06.06,0,0,0,0,0c-.87-4.61-1.59-7.86-2.14-8h0c-2-.27-3.61-36.43-3.61-36.43.75-4.85-13-31.37-13-31.37l4.05-.63,44.94-7L450.17,623s50,21,100.66-.5c16.4-7,15.1-13.15,5.84-18.34l4.14.14s18.24,6.1,24.71,8.74a6.9,6.9,0,0,1,2.24,1.13C587.69,615,577.4,624.38,565.91,631.73Z"/><path class="cls-5" d="M383.32,709.82c-.67-.32-1.29-.65-1.88-1h0s-1.38-6.93.6-8.74c.88.4,1.82.78,2.8,1.14C383.76,702.71,381.65,706.33,383.32,709.82Z"/><path class="cls-5" d="M395.75,709.52a20.29,20.29,0,0,1,0,3.66l-1.1-.14c-1.12-1.08-1.26-2.8-1-4.45a17.39,17.39,0,0,1,1.33-4.47c.66.15,1.33.29,2,.42C395.83,705.59,395.7,707.64,395.75,709.52Z"/><path class="cls-5" d="M413.94,713.33c-1,.06-2.05.09-3.14.12a5.28,5.28,0,0,0,.3-1.33,48,48,0,0,0,.17-6.12l2.28.19c-.56.88-.2,3.76.17,5.92C413.79,712.56,413.87,713,413.94,713.33Z"/><path class="cls-5" d="M429.49,708.91c-.35.06-.7.13-1.07.18.71-1-.44-5.86-.44-5.86h0l1.08,0C429.71,704.59,429.61,707.31,429.49,708.91Z"/><path class="cls-5" d="M435.47,701.88a4.83,4.83,0,0,1-1.22,1,3.41,3.41,0,0,0,.25-2,15.45,15.45,0,0,0-.28-1.84h0l.46-.16A13.91,13.91,0,0,1,435.47,701.88Z"/><path class="cls-6" d="M497.08,665.78c-.34-.15-.69-.28-1.05-.4a16.84,16.84,0,0,0-6.72-.48,111.32,111.32,0,0,0-11,2.09h0c-3.89.77-6.89,1-7.61-1.21-.55-1.66-.14-2.69.77-3.33,2.07-1.46,6.69-.92,8.47-1.25.2,0,.38-.07.54-.11l.06,0h.06l.09,0,.32-.12.11-.06.09-.05.08,0,0,0,.11-.09a.7.7,0,0,0,.22-.35.19.19,0,0,0,0-.08,1.37,1.37,0,0,0-.12-.8v0a0,0,0,0,0,0,0,19.7,19.7,0,0,0-3.3-4.38,6.14,6.14,0,0,0-5.69-2h0c-2.61.23-4.92,1-5.87-1.91-.44-1.38,0-2.06.9-2.35h0c1.59-.52,4.55.22,6,.45h0l.35,0h.1c.38,0,.54,0,.34-.26-1.09-1.22-2.9-7.79.87-8.37a4.58,4.58,0,0,1,1,0c2.63.24,2.63,3.44,2.75,5.37h0c0,.19,0,.37.05.53a2.36,2.36,0,0,0,0,.28h0c.11.67.35.89,1,.23l0,0,.17-.19h0a19.52,19.52,0,0,0,1.53-2.07c1.71-2.54,2.86-3.36,3.59-3.21,1.49.32,1.17,4.74.1,6.78-.2.38-.38.75-.54,1.09v0a9.19,9.19,0,0,0-.78,2.39h0l0,.34a3,3,0,0,0,1.36,2.83,4.31,4.31,0,0,1,1,1c.09.11.15.16.25.13h0l.12-.07h0c.38-.28,1.2-1.31,3.8-3.6,2-1.79,3.22-2.11,3.77-1.66.95.76,0,3.73-1.91,5.54l-.2.19a7.12,7.12,0,0,0-1.28,1.58h0a3,3,0,0,0-.31.79,1.44,1.44,0,0,0,.4,1.55l2.2,2,2.68,2.43Z"/><path class="cls-7" d="M485.54,648.31c-.2.38-.38.75-.54,1.09a17.74,17.74,0,0,0,.44-7.87C486.93,641.85,486.61,646.27,485.54,648.31Z"/><path class="cls-7" d="M492.57,656.31l-.2.19a16.29,16.29,0,0,0,2.11-5.73h0C495.43,651.53,494.53,654.5,492.57,656.31Z"/><path class="cls-7" d="M478.28,667c-3.89.77-6.89,1-7.61-1.21-.55-1.66-.14-2.69.77-3.33C471.44,662.45,469.76,668,478.28,667Z"/><path class="cls-7" d="M472.5,653c-2.61.23-4.92,1-5.87-1.91-.44-1.38,0-2.06.9-2.35C467.45,648.89,465.76,651.87,472.5,653Z"/><path class="cls-7" d="M479,646c-.5-4.57-3.74-5.35-3.74-5.35a4.58,4.58,0,0,1,1,0C478.89,640.86,478.89,644.06,479,646Z"/><path class="cls-7" d="M496.12,665.05l-.09.33a16.84,16.84,0,0,0-6.72-.48,15.25,15.25,0,0,1,4.06-2.48l2.68,2.43Z"/><path class="cls-7" d="M484,652.27c.06-.15.12-.3.17-.45l0,.34Z"/><path class="cls-7" d="M491.08,658.09a3,3,0,0,0-.31.79C490.61,658.72,490.69,658.47,491.08,658.09Z"/><path class="cls-8" d="M480.11,647a4.66,4.66,0,0,0-.61,2.36l-.4-2.59C479.21,647.48,479.45,647.7,480.11,647Z"/><path class="cls-8" d="M473.61,649.21l.35,0h-.12Z"/><path class="cls-8" d="M475.54,649.79a4,4,0,0,0-1.48-.52c.38,0,.54,0,.34-.26Z"/><path class="cls-8" d="M486.78,656.11a1.4,1.4,0,0,0-.34.84l.09-1C486.62,656.09,486.68,656.14,486.78,656.11Z"/><path class="cls-8" d="M483.69,659.72a8.57,8.57,0,0,1-3.18,1.35c1-.27,1.39-.7,1-1.65C481.61,659.63,482,660.3,483.69,659.72Z"/><path class="cls-6" d="M505.7,665.78a10.68,10.68,0,0,1,1-.4,16.84,16.84,0,0,1,6.72-.48,111.32,111.32,0,0,1,11,2.09h0c3.89.77,6.9,1,7.61-1.21.55-1.66.14-2.69-.77-3.33-2.07-1.46-6.69-.92-8.47-1.25-.2,0-.38-.07-.54-.11l-.06,0h-.06l-.09,0-.31-.12-.12-.06-.09-.05-.08,0,0,0-.11-.09a.77.77,0,0,1-.22-.35.19.19,0,0,1,0-.08,1.37,1.37,0,0,1,.12-.8v0a0,0,0,0,1,0,0,19.7,19.7,0,0,1,3.3-4.38,6.14,6.14,0,0,1,5.69-2h0c2.61.23,4.92,1,5.87-1.91.44-1.38,0-2.06-.9-2.35h0c-1.58-.52-4.55.22-6,.45h0l-.35,0h-.09c-.39,0-.55,0-.34-.26,1.08-1.22,2.89-7.79-.88-8.37a4.56,4.56,0,0,0-1,0c-2.63.24-2.63,3.44-2.75,5.37h0c0,.19,0,.37,0,.53a2.36,2.36,0,0,1,0,.28h0c-.11.67-.35.89-1,.23l0,0-.17-.19h0a19.52,19.52,0,0,1-1.53-2.07c-1.71-2.54-2.86-3.36-3.59-3.21-1.49.32-1.17,4.74-.1,6.78.2.38.38.75.54,1.09v0a9.19,9.19,0,0,1,.78,2.39h0c0,.12,0,.23,0,.34a3,3,0,0,1-1.36,2.83,4.31,4.31,0,0,0-1,1c-.09.11-.15.16-.25.13h0l-.12-.07h0c-.38-.28-1.2-1.31-3.79-3.6-2-1.79-3.22-2.11-3.78-1.66-1,.76-.05,3.73,1.91,5.54l.2.19a7.12,7.12,0,0,1,1.28,1.58h0a3.44,3.44,0,0,1,.32.79,1.45,1.45,0,0,1-.41,1.55l-2.2,2-2.67,2.43Z"/><path class="cls-7" d="M517.23,648.31c.2.38.38.75.54,1.09a17.74,17.74,0,0,1-.44-7.87C515.84,641.85,516.16,646.27,517.23,648.31Z"/><path class="cls-7" d="M510.2,656.31l.2.19a16.29,16.29,0,0,1-2.11-5.73h0C507.34,651.53,508.24,654.5,510.2,656.31Z"/><path class="cls-7" d="M524.49,667c3.89.77,6.9,1,7.61-1.21.55-1.66.14-2.69-.77-3.33C531.33,662.45,533,668,524.49,667Z"/><path class="cls-7" d="M530.27,653c2.61.23,4.92,1,5.87-1.91.44-1.38,0-2.06-.9-2.35C535.32,648.89,537,651.87,530.27,653Z"/><path class="cls-7" d="M523.76,646c.51-4.57,3.74-5.35,3.74-5.35a4.56,4.56,0,0,0-1,0C523.88,640.86,523.88,644.06,523.76,646Z"/><path class="cls-7" d="M506.65,665.05l.09.33a16.84,16.84,0,0,1,6.72-.48,15.25,15.25,0,0,0-4.06-2.48l-2.67,2.43Z"/><path class="cls-7" d="M518.73,652.27c-.06-.15-.12-.3-.17-.45,0,.12,0,.23,0,.34Z"/><path class="cls-7" d="M511.69,658.09a3.44,3.44,0,0,1,.32.79C512.16,658.72,512.08,658.47,511.69,658.09Z"/><path class="cls-8" d="M522.66,647a4.66,4.66,0,0,1,.61,2.36l.4-2.59C523.56,647.48,523.32,647.7,522.66,647Z"/><path class="cls-8" d="M529.16,649.21l-.35,0h.12Z"/><path class="cls-8" d="M527.23,649.79a4,4,0,0,1,1.49-.52c-.39,0-.55,0-.34-.26Z"/><path class="cls-8" d="M516,656.11a1.4,1.4,0,0,1,.34.84l-.09-1C516.15,656.09,516.09,656.14,516,656.11Z"/><path class="cls-8" d="M519.08,659.72a8.57,8.57,0,0,0,3.18,1.35c-1-.27-1.39-.7-1-1.65C521.16,659.63,520.73,660.3,519.08,659.72Z"/><path class="cls-9" d="M518.73,681a41.13,41.13,0,0,1-2.42,14.78h0c-3.23,8.39-8.92,11.86-12.25,13.22a13.58,13.58,0,0,1-2.66.82,8.17,8.17,0,0,1-.88-.21C497,708.59,484,703.45,484,681a24.32,24.32,0,0,1,1-7.11c.12-.4.25-.78.39-1.15a17.51,17.51,0,0,1,1.45-3.05,16.94,16.94,0,0,1,28.35-1,18.8,18.8,0,0,1,2.66,5.75h0A24.89,24.89,0,0,1,518.73,681Z"/><circle cx="494.06" cy="690.23" r="1.81"/><circle cx="508.71" cy="690.23" r="1.81"/><path class="cls-8" d="M504.05,709a13.58,13.58,0,0,1-2.66.82,8.17,8.17,0,0,1-.88-.21C497,708.59,484,703.45,484,681a24.32,24.32,0,0,1,1-7.11c.12-.4.25-.78.39-1.15a17.51,17.51,0,0,1,1.45-3.05l4.2,2.45s-2.07.74-4.3,1.33c0,0-5.36,26.93,12.42,33.18a26.07,26.07,0,0,1,2.69,1.1A13,13,0,0,1,504.05,709Z"/><path class="cls-8" d="M517.89,674.36c-2-1.63-6-2.2-6-2.2l3.34-3.55A18.8,18.8,0,0,1,517.89,674.36Z"/><path class="cls-8" d="M516.3,695.74c-3.23,8.39-8.92,11.86-12.25,13.22a13.58,13.58,0,0,1-2.66.82,8.17,8.17,0,0,1-.88-.21l1.38-1.87,2.93-4S506.85,711,516.3,695.74Z"/><path class="cls-10" d="M506,706.8a3.78,3.78,0,0,1-2.37,3.74l-.34.13a5.84,5.84,0,0,1-1.92.35s-4.64.07-4.64-4.22a4.92,4.92,0,0,1,.14-1.19c.76-3.15,4.5-3.44,4.5-3.44S506,702.52,506,706.8Z"/><path class="cls-11" d="M513.31,672.39a5.2,5.2,0,0,1-1.42-.23h0c-3.84-1.23-2.07-7.07-2.07-7.07s4-3,7.58-.39a7.49,7.49,0,0,1,1.74,1.86C522.94,672.15,519,672.54,513.31,672.39Z"/><path class="cls-11" d="M489.47,672.39c-.79,0-1.54,0-2.25,0h-.07c-4.33-.09-6.77-1.06-3.51-5.85,3.8-5.59,9.32-1.47,9.32-1.47S495.13,672.23,489.47,672.39Z"/><path class="cls-8" d="M487.15,672.41c-4.33-.09-6.77-1.06-3.51-5.85C483.64,666.56,481,672.14,487.15,672.41Z"/><path class="cls-8" d="M513.31,672.39a5.2,5.2,0,0,1-1.42-.23c9.76-1,5.5-7.46,5.5-7.46a7.49,7.49,0,0,1,1.74,1.86C522.94,672.15,519,672.54,513.31,672.39Z"/><path class="cls-8" d="M503.31,710.67a5.84,5.84,0,0,1-1.92.35s-4.64.07-4.64-4.22a4.92,4.92,0,0,1,.14-1.19l.07,0S499.44,711.84,503.31,710.67Z"/><path class="cls-3" d="M456.26,716.36c-.22.78-.58,2-1,3.58-1.1,4.23-2.55,10.45-2.59,13.88-2.24-.48-3.72-1-4.25-1.52-5.13-5.13.62-14,.62-14C449.27,717.45,451.92,716.82,456.26,716.36Z"/><path class="cls-3" d="M475.72,736.39c-2.43-.15-4.76-.32-7-.51-5.7-.47-10.57-1-14.14-1.68.95-3,2-8.6,2.92-13.57.29-1.6.59-3.13.87-4.48,4.64-.4,10.72-.66,17.57-.82-.15,1.85-.42,5.51-.57,9.39,0,.79,0,1.59-.07,2.38A50.85,50.85,0,0,0,475.72,736.39Z"/><path class="cls-3" d="M498.73,737.23c-7.37-.08-14.61-.34-21.22-.73a94.44,94.44,0,0,0,.47-10.3c0-.41,0-.83,0-1.24,0-3.35,0-6.8.06-9.68,6.5-.13,13.62-.17,20.81-.16-.11,1.41-.31,4.21-.46,7.4l0,.59C498.14,728.27,498.06,734.29,498.73,737.23Z"/><path class="cls-3" d="M522.48,736.88c-7.08.32-14.62.43-22.08.37.44-2.81.48-8.61.48-14.29v-.39c0-2.63,0-5.21,0-7.44,5.15,0,10.32,0,15.3.11l6.24.09-.31.46s0,.07,0,.2c0,.71-.17,3.3-.25,6.5,0,1.17,0,2.43,0,3.71A62.55,62.55,0,0,0,522.48,736.88Z"/><path class="cls-3" d="M524.41,736.77c.27-3.18.08-9-.08-14.32-.09-2.58-.16-5.06-.18-7.1,5.89.09,11.32.2,15.93.3.16,1.42.43,3.77.81,6.41a83,83,0,0,0,2.54,12.84A179.82,179.82,0,0,1,524.41,736.77Z"/><path class="cls-3" d="M558.43,729.36c-1.61,2.27-6.34,4-13,5.19-.27-3-1.16-7.86-2.05-12.56-.42-2.2-.83-4.36-1.18-6.3,7.66.18,12.53.32,12.53.32s1.72.49,2.82,5.2A41.25,41.25,0,0,1,558.43,729.36Z"/><path class="cls-12" d="M458.4,716.15c-.28,1.35-.58,2.88-.87,4.48-.94,5-2,10.62-2.92,13.57-.69-.12-1.33-.25-1.92-.38,0-3.43,1.49-9.65,2.59-13.88.4-1.53.76-2.8,1-3.58C456.93,716.28,457.65,716.21,458.4,716.15Z"/><path class="cls-12" d="M478.05,715.28c0,2.88,0,6.33-.06,9.68,0,.41,0,.83,0,1.24a94.44,94.44,0,0,1-.47,10.3l-1.79-.11a50.85,50.85,0,0,1-.39-9.29c0-.79,0-1.59.07-2.38.15-3.88.42-7.54.57-9.39Z"/><path class="cls-12" d="M500.92,715.13c0,2.23,0,4.81,0,7.44V723c0,5.68,0,11.48-.48,14.29l-1.67,0c-.67-2.94-.59-9-.36-14.12l0-.59c.15-3.19.35-6,.46-7.4Z"/><path class="cls-12" d="M545.45,734.55l-2,.35a83,83,0,0,1-2.54-12.84c-.38-2.64-.65-5-.81-6.41l2.14,0c.35,1.94.76,4.1,1.18,6.3C544.29,726.69,545.18,731.53,545.45,734.55Z"/><path class="cls-12" d="M524.41,736.77l-1.93.11c-.68-3.35-.7-9.57-.59-14.39.09-3.78.26-6.7.26-6.7l.31-.46,1.69,0c0,2,.09,4.52.18,7.1C524.49,727.81,524.68,733.59,524.41,736.77Z"/><path class="cls-4" d="M557.57,721.21c-2.59.25-6.88.52-14,.77h-.19l-2.51.07c-4.48.14-9.93.27-16.56.39l-2.44,0-9.78.12q-4.39,0-8.22.2l-3,.15c-.86,0-1.7.09-2.51.15-3.26.22-6.17.49-8.77.82s-4.91.7-6.93,1.11c-1.76.36-3.32.75-4.69,1.16-1,.29-1.86.59-2.65.9-9.75,3.75-6.75,8.53-6.58,8.78-5.7-.47-10.57-1-14.14-1.68-.69-.12-1.33-.25-1.92-.38-2.24-.48-3.72-1-4.25-1.52-5.13-5.13.62-14,.62-14,.16-.61,1.65-1.12,4.18-1.52l.09,0c.87-.14,1.85-.26,2.93-.38.67-.08,1.39-.15,2.14-.21,4.64-.4,10.72-.66,17.57-.82l2.08-.05c6.5-.13,13.62-.17,20.81-.16h2.06c5.15,0,10.32,0,15.3.11l6.24.09,1.69,0c5.89.09,11.32.2,15.93.3l2.14,0,12.31.31h.22S556.47,716.5,557.57,721.21Z"/><path class="cls-4" d="M439.87,684.64c-.87-4.61-1.59-7.86-2.14-8,.59.07,9.13,1.17,13.56-.76C442.52,680.49,438.86,679,439.87,684.64Z"/><path class="cls-4" d="M423.75,638.33s-16.24,23.93-13.33,30C414.35,657.76,423.75,638.33,423.75,638.33Z"/><path class="cls-2" d="M567.53,699l.07,0-.13.17a.08.08,0,0,1,0,0A.22.22,0,0,1,567.53,699Z"/><path class="cls-4" d="M440.35,594.89c-38.91-.22-55.34,35.45-57.26,39.94.33-1.71.67-3.21,1-4.31a232,232,0,0,1,12.43-31.23S424.14,590,440.35,594.89Z"/><path class="cls-2" d="M621.35,708.81s1.38-6.93-.6-8.74c-.88.4-1.82.78-2.8,1.14,1.07,1.5,3.18,5.12,1.51,8.61A37.87,37.87,0,0,1,608.1,713c2.7-2.59-.29-8.92-.29-8.92-.66.15-1.33.29-2,.42,2.09,1.94.8,7.25,1.19,8.64a69.52,69.52,0,0,1-8.14.45c-1.16,0-2.28,0-3.36,0-.65-1.52-.48-7.13-.47-7.45l-2.28.19c.61,1,.12,4.36-.28,6.55,0,.21-.07.41-.11.59h0c-3.59-.17-7.73-3.33-10.44-3.78a2.85,2.85,0,0,1-.22-1.62,28.8,28.8,0,0,1,.66-4.24h0l-1.08,0a9.54,9.54,0,0,0-.52,3.69c0,.75,0,1.46.09,2-4.61-.83-9.83-5.29-12.3-6.59h0a1,1,0,0,1-.15-.29,3.76,3.76,0,0,1-.13-.4v0a6.08,6.08,0,0,1-.13-.8,17,17,0,0,1,0-2.29l-.47-.14h0l.1-.2a2.59,2.59,0,0,0,.38-.55c.69-.81,2-1.15,1.19-2a2.38,2.38,0,0,1-.39-.45c-.34-.44,5.56-2.76,5.58-2.87v0l47.93-20.13a17,17,0,0,1-1.3,4.76q-.18.42-.39.81c-.33.6,1.44,9.36,2.41,15.17a.08.08,0,0,0,0,.07c.2,1.67.45,3.18.55,4.82C624,703.09,623.61,707.48,621.35,708.81Z"/><path class="cls-3" d="M623.13,693.57c.44,2.73.71,4.79.49,5-1.41,1.51-.12.23-2.87,1.48-.88.4-1.82.78-2.8,1.14a73.87,73.87,0,0,1-10.14,2.91c-.66.15-1.33.29-2,.42-3.5.69-7.15,1.23-10.78,1.59h0l-2.28.19c-2.88.23-7.46-1.22-9.53-2.29h0a1.94,1.94,0,0,0-.85-.21l-1.08,0c-2.31-.07-2-3.52-5.89-3.79a47.45,47.45,0,0,1-7.31-.89c-.16-.05-.53,0-.47-.14l.1-.21c-.53-.59-.27-5.25-.26-5.26-.72-8.06.75-10.48,1.79-14.74a0,0,0,0,0,0,0,0,0,0,0,1,0,0c.69-2.82-5.37-4.93-5.79-11.48-.09-.18-.16-.35-.23-.51-.36-.79-.81-1.71-1.33-2.72-.25-.48,2.35-5.82,3.16-7.89h0c-5.06-9.37-11.95-22.62-14-35.24-1-5.79-.93-11.45.76-16.55,4.1-12.39,22.35-11.9,36.61-9.41a135.59,135.59,0,0,1,17.88,4.4,232,232,0,0,1,12.43,31.23,89,89,0,0,1,2,10.45c1.08,7.22,1.9,14.93,1.9,15.07a12.13,12.13,0,0,0,.2,2h0a38.46,38.46,0,0,0,1.15,4.3v0c.24.8.51,1.7.8,2.74.7,0-2.39,10.57-3,12a136,136,0,0,0,1.39,16.36A.08.08,0,0,0,623.13,693.57Z"/><path class="cls-4" d="M558.58,618.25c-6.59,2.89,6.46,37.13,6.48,37.84-5.06-9.37-11.95-22.62-14-35.24C560.89,619.14,563,616.31,558.58,618.25Z"/><path class="cls-4" d="M620.71,641c-6.67-20.66-28.58-41.09-28.58-41.09L586,601l2.37-6.11a135.59,135.59,0,0,1,17.88,4.4,232,232,0,0,1,12.43,31.23A89,89,0,0,1,620.71,641Z"/><path class="cls-5" d="M619.46,709.82c.67-.32,1.29-.65,1.88-1h0s1.38-6.93-.6-8.74c-.88.4-1.82.78-2.8,1.14C619,702.71,621.13,706.33,619.46,709.82Z"/><path class="cls-5" d="M607,713.18l1.1-.14c2.7-2.59-.29-8.92-.29-8.92-.66.15-1.33.29-2,.42C607.9,706.48,606.61,711.79,607,713.18Z"/><path class="cls-5" d="M595.5,713.59l-1,0c-.71,0-1.41,0-2.09-.09,0-.18.07-.38.11-.59.4-2.19.89-5.58.28-6.55l2.28-.19C595,706.46,594.85,712.07,595.5,713.59Z"/><path class="cls-5" d="M581.69,708.07a2.85,2.85,0,0,0,.22,1.62c-.37-.05-.72-.12-1.07-.18-.05-.57-.09-1.28-.09-2a9.54,9.54,0,0,1,.52-3.69l1.08,0h0A28.8,28.8,0,0,0,581.69,708.07Z"/><path class="cls-5" d="M568.54,702.92h0c-.44-.24-.86-.47-1.23-.72.07-.68,0-1.44.05-2.05a3.06,3.06,0,0,1,.12-1,.05.05,0,0,1,0,0,.22.22,0,0,1,0-.08.13.13,0,0,1,.07-.06l.47.14h0a17,17,0,0,0,0,2.29,6.08,6.08,0,0,0,.13.8v0a3.76,3.76,0,0,0,.13.4A1.39,1.39,0,0,0,568.54,702.92Z"/><path class="cls-2" d="M591.37,586.75l-101.28-14.5L433.21,590.7a34.81,34.81,0,0,0-3.45,4.76h0a29.64,29.64,0,0,0-4.58,12.69C424,621.5,435.8,637.63,499.5,637.63c26.41,0,45.41-3,59-7.56s22.06-10.78,27-17C595.74,600,591.37,586.75,591.37,586.75ZM550.83,622.5c-50.66,21.5-100.66.5-100.66.5l19.94-21.86h0l13.05-14.31s54.13,6.48,73.5,17.33C565.93,609.35,567.23,615.54,550.83,622.5Z"/><path class="cls-4" d="M558.54,630.07c-13.63,4.55-32.63,7.56-59,7.56-87.2,0-77.12-30.24-69.75-42.17h0s-11.23,58.71,128.67,34.63Z"/><path class="cls-4" d="M426.39,704c-1.42,1.64-10.34,2.37-12.84,2.17l-2.28-.19h0c-3.63-.36-10.8-.76-14.3-1.45-.67-.13-1.34-.27-2-.42a78.21,78.21,0,0,1-9-2.49h0c-.39-.13-.77-.27-1.14-.41-1-.36-1.92-.74-2.8-1.14-2.75-1.25-1.39.59-2.8-.92-.22-.23,0-2.85.42-5.58a.08.08,0,0,0,0-.07,146,146,0,0,0,1.4-15.82h.07C383.69,681.31,414.36,711.09,426.39,704Z"/><path class="cls-4" d="M385.79,646.76l-5.88,12.35h-.16a13.92,13.92,0,0,0,.42-3.06c0-.06.16-1.57.42-3.85C380.92,655.62,385.33,647.61,385.79,646.76Z"/><path class="cls-4" d="M432.75,692.31,429,682.8c.51,1.09,3.77,8,3.92,4.69A39.35,39.35,0,0,1,432.75,692.31Z"/><path class="cls-4" d="M436.15,630.52a4,4,0,0,1,.16.55c-.17-.51-.29-.87-.35-1.07Z"/><path class="cls-4" d="M623.62,698.59c-1.41,1.51-.12.23-2.87,1.48-.88.4-1.82.78-2.8,1.14a73.87,73.87,0,0,1-10.14,2.91c-.66.15-1.33.29-2,.42-3.5.69-7.15,1.23-10.78,1.59h0l-2.28.19c-2.88.23-7.46-1.22-9.53-2.29.71.22,24.18,2.6,38.51-26.9a136,136,0,0,0,1.39,16.36.08.08,0,0,0,0,.07C623.57,696.3,623.84,698.36,623.62,698.59Z"/><path class="cls-4" d="M575.38,700a47.45,47.45,0,0,1-7.31-.89c-.16-.05-.53,0-.47-.14l.1-.21a7.8,7.8,0,0,1-.33-3.09c0-1.15.07-2.17.07-2.17-.72-8.06.75-10.48,1.79-14.74a23.49,23.49,0,0,0,2.51,16.41A20.39,20.39,0,0,0,575.38,700Z"/><path class="cls-4" d="M565,656.77l-1.53,10.45c-.09-.18-.16-.35-.23-.51-.36-.79-.81-1.71-1.33-2.72C563.4,665.46,564.53,659.62,565,656.77Z"/><path class="cls-4" d="M614.1,672.41c.45-.28.87-.56,1.27-.86A4.53,4.53,0,0,1,614.1,672.41Z"/><path class="cls-4" d="M624,662.37c-1.81-3.45-1.22,3.83-8.58,9.18,3.8-3.36,7.43-13.48,7.43-13.48A38.46,38.46,0,0,0,624,662.37Z"/><path class="cls-4" d="M606.18,642.8S591.31,658.11,583,662A49.67,49.67,0,0,0,606.18,642.8Z"/><path class="cls-4" d="M587.11,626.52s-2.61,15.78-5.61,20.94C588.3,636.1,587.11,626.52,587.11,626.52Z"/><path class="cls-4" d="M575.88,681.9s16.33,11.68,27.35,7.83C589.55,691.09,575.88,681.9,575.88,681.9Z"/><path class="cls-4" d="M385.15,673.66s.12.24.34.65c1.61,3,8.57,15,15.72,15C391.81,683.1,385.15,673.66,385.15,673.66Z"/><path class="cls-4" d="M403.11,625.12s-10.05,14.47-6.33,23C395.38,639.58,403.11,625.12,403.11,625.12Z"/><path class="cls-4" d="M442.5,693.5s7.26,18.48,17.88,19.68C453.85,709.86,442.5,693.5,442.5,693.5Z"/><path class="cls-4" d="M554.75,685.23s-4.59,24-43.76,24C532.43,705.09,542.66,705.93,554.75,685.23Z"/><path class="cls-4" d="M451.61,682.24s15.45,6.64,30.43,3.82C459.37,685.23,451.61,682.24,451.61,682.24Z"/><path class="cls-4" d="M420.36,711.71a28.58,28.58,0,0,1-6.41,1.62h0c-1,.06-2.05.09-3.14.12s-5.72.18-6.88.18a69.52,69.52,0,0,1-8.14-.45l-1.1-.14a37.87,37.87,0,0,1-11.36-3.22c-.67-.32-1.29-.65-1.88-1h0c-2.23-1.31-2.57-5.42-2.28-10a.77.77,0,0,0,.08.39c1.41,1.51,0-.33,2.8.92.88.4,1.82.78,2.8,1.14.37.14.75.28,1.14.41h0c.1.25,1.67,4,7.67,7,.65.32,1.35.63,2.11.93a44.21,44.21,0,0,0,15.35,2.6c.84,0,1.72,0,2.62,0,1.9,0,3.93-.15,6.09-.35Z"/><path class="cls-4" d="M594.45,713.56c-.71,0-1.41,0-2.09-.09h0c-3.59-.17-7.73-3.33-10.44-3.78-.37-.05-.72-.12-1.07-.18-4.61-.83-9.83-5.29-12.3-6.59h0c-.44-.24-.86-.47-1.23-.72.07-.68,0-1.44.05-2.05a3.06,3.06,0,0,1,.12-1,.05.05,0,0,1,0,0,.22.22,0,0,1,0-.08.13.13,0,0,1,.07-.06h0c-.06.14.31.09.47.14a47.45,47.45,0,0,0,7.31.89s-1.27,3.16,5.37,7.48l.94.59a58.06,58.06,0,0,0,10.78,4.81C593.1,713.11,593.76,713.33,594.45,713.56Z"/><path class="cls-4" d="M516.22,715.24c-5-.06-10.15-.1-15.3-.11h-2.06c-7.19,0-14.31,0-20.81.16l-2.08.05c-6.85.16-12.93.42-17.57.82-.75.06-1.47.13-2.14.21-4.34.46-7,1.09-7.2,1.92-3.51-.41-6.56-19.18-8.78-31.39-.13-.73-.26-1.44-.39-2.12a.28.28,0,0,0,0-.09.06.06,0,0,0,0,0c-.36-1.92-.7-3.61-1-4.93-.44-1.86-.82-3-1.14-3.12h0c-2-.27-3.61-36.43-3.61-36.43.75-4.85-13-31.37-13-31.37l49-7.64,17.31.6,0,3.2L451,632.78s-.45,1.37-1,3.76l16-4.35s28.25,7.56,14.11,9.34-17.93,51.85-18,52.69h0c9.56,10.13,25.12,18.15,50,20.58C513.53,715,514.9,715.09,516.22,715.24Z"/><path class="cls-4" d="M554.53,716l-12.31-.31-2.14,0c-4.61-.1-10-.21-15.93-.3l-1.69,0-6.24-.09c-5-.06-10.15-.1-15.3-.11h-2.06c-7.19,0-14.31,0-20.81.16l-2.08.05c-6.85.16-12.93.42-17.57.82-.75.06-1.47.13-2.14.21-1.08.12-2.06.24-2.93.38C461.84,714.65,486.41,711.67,554.53,716Z"/><path class="cls-4" d="M440.28,686.89l-1.77-2.25.36-4.93c.3,1.32.64,3,1,4.93a.06.06,0,0,1,0,0,.28.28,0,0,1,0,.09C440,685.45,440.15,686.16,440.28,686.89Z"/><path class="cls-13" d="M603.23,598.36s-3.73,47.11-102.72,47.11c-5.55,0-10.75-.16-15.64-.45q-4.87-.3-9.33-.76c-28.12-3-44.28-10.87-53.51-19.48-14.59-13.57-12-28.83-12-28.83s4.43-30,5.09-31.45,62.35-6,62.35-6L574,562l24.82,30.83Z"/><path class="cls-13" d="M479,638.33c-3.69-.43-6.49,1.68-8.7,5.31a34.44,34.44,0,0,0-3.14,7.12h0c-3.73,11.21-5.23,27.29-7.82,36.53-1,3.53-2.14,6.07-3.64,6.93,1.5-1.19-1-8.27-1.09-8.61h0a6.26,6.26,0,0,0-3.32,2.43,5.51,5.51,0,0,0-.45.75s0,0,0,0a9.72,9.72,0,0,0-.65,6.18c-2.46-1.15-6.44-10.57-7.43-13l-.24-.57-.15,0a.45.45,0,0,1-.16,0h0c-1,.23-3.82,1.44-7.63,7.8,1.12-3.17.24-14.69-1.3-27.94,0,0,0-.05,0-.07-.41-3.53-.87-7.2-1.37-10.85l0-.27s0-.08,0-.11,0-.2,0-.2c-.57-4.27-1.17-8.53-1.75-12.57-.36-2.45-.71-4.83-1.05-7.08-1.62-10.85-2.94-18.8-2.94-18.8l25.24-1.88S496.33,640.33,479,638.33Z"/><path class="cls-4" d="M470.31,643.64a34.44,34.44,0,0,0-3.14,7.12C465.65,640,430,637.27,430,637.27c-.36-2.45-.71-4.83-1.05-7.08C438,636.05,451.1,641.07,470.31,643.64Z"/><path class="cls-4" d="M442.16,681.48c-1,.23-3.82,1.44-7.63,7.8,1.12-3.17.24-14.69-1.3-27.94C434.74,670.58,437.54,682,442.16,681.48Z"/><path class="cls-4" d="M459.35,687.3c-1,3.53-2.14,6.07-3.64,6.93,1.5-1.19-1-8.27-1.09-8.61A4.18,4.18,0,0,0,459.35,687.3Z"/><path class="cls-4" d="M450.17,695c-2.46-1.15-6.44-10.57-7.43-13,1,2.33,5.12,10.85,8.08,6.82A9.72,9.72,0,0,0,450.17,695Z"/><path class="cls-4" d="M441.32,672.05s-4.32-23.34-2.25-27.92C440.64,668.13,441.32,672.05,441.32,672.05Z"/><path class="cls-4" d="M460.65,659.65s-3.37,21-4.5,23.67A132.11,132.11,0,0,1,460.65,659.65Z"/><path class="cls-4" d="M448.52,649.06s-.63,16.77.93,19.64C449.45,652.2,448.52,649.06,448.52,649.06Z"/><path class="cls-4" d="M603.23,598.36s-3.73,47.11-102.72,47.11c-5.55,0-10.75-.16-15.64-.45q-4.87-.3-9.33-.76s113.79,8.68,123.13-50.79c0-.22.07-.43.1-.64Z"/><path class="cls-4" d="M412,601.08s5.76,23.56,25.73,30C422.83,622.5,417.25,613.15,412,601.08Z"/><path class="cls-4" d="M441.32,628.83s23.88,19.43,88.95,8.8C497.08,641,477.8,643.67,441.32,628.83Z"/><path class="cls-4" d="M597.83,602s-2,18.51-26.27,27.35C571.56,629.33,589.5,623.3,597.83,602Z"/><path class="cls-4" d="M571.56,602s-15,34.71-92,34.86c20.8-4.65-29.31-2.77-37.75-21.18s87.49-25.91,87.49-25.91Z"/></g></g></g></svg>