<svg xmlns="http://www.w3.org/2000/svg" viewBox="0 0 1000 1000"><defs><style>.cls-1{fill:none;}.cls-2{fill:#c1c1c1;}.cls-3,.cls-7{opacity:0.2;}.cls-4{fill:#ffbb01;}.cls-5{fill:#fbd06b;}.cls-6{fill:#ecad3d;}.cls-7{fill:#fff;}</style></defs><g id="Layer_2" data-name="Layer 2"><g id="OutPut"><rect id="BG" class="cls-1" width="1000" height="1000"/></g><g id="Cloth"><g id="_7" data-name="7"><path class="cls-2" d="M440.8,655.84s-6.39-1.74-14.91-4.43C408.73,646,382.9,636.69,383,630c.21-10,22.84-56.58,58.53-34.48,10.84,6.71,15,14.9,15.59,23.07C458.48,637.31,440.8,655.84,440.8,655.84Z"/><path class="cls-2" d="M621.07,632.72c-.35,5.43-18,11.12-34,15.17h0c-13.42,3.4-25.69,5.65-25.69,5.65s-22.24-27.69-9.59-48.13c2.77-4.48,7.23-8.62,14-12C603.12,574.4,621.71,622.73,621.07,632.72Z"/><path class="cls-3" d="M457.16,618.6c1.32,18.71-16.36,37.24-16.36,37.24s-6.39-1.74-14.91-4.43C427.51,650.2,446,636.27,457.16,618.6Z"/><path class="cls-3" d="M587,647.9c-13.42,3.4-25.69,5.65-25.69,5.65s-22.24-27.69-9.59-48.13C555.55,627.27,564.78,652,587,647.9Z"/><path class="cls-3" d="M526,625.6c-6.13,4.12-18.73,11.62-29.36,11.62-14.67,0-26.41-11.8-26.41-11.8,0-1.09.05-2.17.08-3.22,1,2,7.16,12.37,25.57,12.37,20.34,0,30.32-8.41,29.75-13.56C525.8,622.52,525.93,624.05,526,625.6Z"/><path class="cls-2" d="M517.91,729s-11.68-.2-32.73-.2c-14.62,0-15.36-64.21-14.45-103.42,0-1.09,0-2.17.08-3.22,1,2,7.16,12.37,25.57,12.37,20.34,0,30.32-8.41,29.75-13.56.14,1.51.27,3,.37,4.59C529.5,670,517.91,729,517.91,729Z"/><path class="cls-4" d="M498.5,665.5l-.42,5.21-4.65,57.79s-4.26-.26-10.61-.28c-1.66,0-3.45,0-5.36,0-10.14.2-23.22,1.14-33.32,4.22-4-11.69-6.54-32.61-7.1-54-.18-6.21-.18-12.46,0-18.54.72-23.72,4.2-44.92,11.35-51.12a6.66,6.66,0,0,1,6-1.51c6.76,1.35,15.16,10.93,22.83,21.94,5.69,8.18,10.95,17.14,14.83,24.1C496,660.45,498.5,665.5,498.5,665.5Z"/><path class="cls-4" d="M562.94,679.17c-.6,21.19-3.17,41.76-7.08,53.32a83.17,83.17,0,0,0-11.92-2.58,184.09,184.09,0,0,0-25.87-1.69c-6.83,0-11.5.28-11.5.28l-4.65-57.77-.42-5.23s2.51-5,6.48-12.18a264.73,264.73,0,0,1,18.42-29.06c9.17-12.19,18.85-21,25.2-15.48C558.75,615,562.24,636.22,563,660c.06,1.92.1,3.85.12,5.8v0C563.12,670.22,563.08,674.71,562.94,679.17Z"/><path class="cls-3" d="M477.46,728.27c-10.14.2-23.22,1.14-33.32,4.22-9.58-28.27-11.05-110.43,4.26-123.71a6.66,6.66,0,0,1,6-1.51l-8.93,18.66s-13.19,66.63,11.94,67.85c.61,22,3.33,24.94,3.33,24.94S465.09,727.54,477.46,728.27Z"/><path class="cls-3" d="M440.55,625.31s61,13,118.4,1.8,4.71-68.78,4.71-68.78L447.17,547s-40.65,6.33-43.25,19.67S418.1,621,418.1,621Z"/><path class="cls-5" d="M483.9,714.83l-.1.12a14.06,14.06,0,0,1-1.76,1.54l0,0c-.27.2-.56.39-.87.58-2.73,1.7-6.56,2.84-11.92,2.84l-1.19,0C448,719.25,449.2,702,449.2,702l2.16-1.48.05,0,2.62-1.8,32.13,3.18h0l1.45.14h.1s0,0,0,0,.06.47.08,1a.28.28,0,0,1,0,.13C487.92,705.53,487.68,710.83,483.9,714.83Z"/><path class="cls-6" d="M451.36,702s2,1.59,16.71,1.59,19.15-2.09,19.15-2.09l-29.15-3.23-6.71.17Z"/><path class="cls-5" d="M488.24,702H448s-1.75-8.2.71-8.2h40S489.8,702,488.24,702Z"/><path class="cls-5" d="M549.69,711.54l-.09.2-.17.32-.06.1a.53.53,0,0,0-.09.19c-2.3,4-7,7.58-16.54,7.58-14.86,0-18.73-8.75-19.71-14v0a17.22,17.22,0,0,1-.31-3.89l2.16-1.48,2.67-1.84,32.13,3.18h0l.94.09.51.05h.1A17.72,17.72,0,0,1,549.69,711.54Z"/><path class="cls-6" d="M514.88,702s2,1.59,16.71,1.59,19.15-2.09,19.15-2.09l-29.15-3.23-6.71.17Z"/><path class="cls-5" d="M551.76,702H511.53s-1.75-8.2.71-8.2h40S553.32,702,551.76,702Z"/><path class="cls-3" d="M468,719.91C448,719.25,449.2,702,449.2,702H448s-1.75-8.2.71-8.2h8.65s-9.66,1.87-7.16,6.65a12.84,12.84,0,0,0,1.15,1.55,2.83,2.83,0,0,0-.19.39c-1.49,3.4-.41,14.08,16.44,17.45Z"/><path class="cls-3" d="M532.74,719.93c-14.86,0-18.73-8.75-19.71-14C514.19,709.34,518.85,719.77,532.74,719.93Z"/><path class="cls-3" d="M481.14,717.09a4.19,4.19,0,0,1,.87-.58C481.74,716.71,481.45,716.9,481.14,717.09Z"/><path class="cls-3" d="M487.81,703.19c.11,2.34-.13,7.64-3.91,11.64C486.43,711.66,487.72,705.84,487.81,703.19Z"/><path class="cls-3" d="M488.24,702h-.45c1.66-.16,0-6.51-.45-8.2h1.35S489.8,702,488.24,702Z"/><path class="cls-3" d="M551.76,702h-.52a17.72,17.72,0,0,1-1.55,9.55c1.06-2.49,1.55-8.53.85-9.56l.09-.05c1.36-.89.24-8.15.24-8.15h1.34S553.32,702,551.76,702Z"/><path class="cls-3" d="M555.86,732.49a83.17,83.17,0,0,0-11.92-2.58c13.76-5,18.7-59.07,19.13-64.13C563.36,691.29,560.6,718.5,555.86,732.49Z"/><path class="cls-7" d="M498.5,665.5l-.42,5.21a249,249,0,0,0-61,7.73c-.18-6.21-.18-12.46,0-18.54,1.43-.36,23.09-5.79,55-6.59C496,660.45,498.5,665.5,498.5,665.5Z"/><path class="cls-7" d="M562.94,679.17c-2.06-.66-26.05-8-61-8.44l-.42-5.23s2.51-5,6.48-12.18a289.82,289.82,0,0,1,54.78,6.6l.19,0c.06,1.92.1,3.85.12,5.8v0C563.12,670.22,563.08,674.71,562.94,679.17Z"/></g></g></g></svg>