<svg xmlns="http://www.w3.org/2000/svg" viewBox="0 0 1000 1000"><defs><style>.cls-1{fill:none;}.cls-2,.cls-8{opacity:0.2;}.cls-3{fill:#47c4a6;}.cls-4{opacity:0.5;}.cls-5{fill:#e4e4e4;}.cls-6,.cls-8{fill:#474e54;}.cls-7{fill:#4d5d65;}</style></defs><g id="Layer_2" data-name="Layer 2"><g id="OutPut"><rect id="BG" class="cls-1" width="1000" height="1000"/></g><g id="Cloth"><g id="_6" data-name="6"><path class="cls-2" d="M392.35,636.1s22.77,11.29,39.24,9.52-32.84-20.54-32.84-20.54Z"/><path class="cls-2" d="M571.77,645.43s20.42.53,37.58-10.14S573,632.75,573,632.75Z"/><path class="cls-3" d="M444.1,645.29a97.85,97.85,0,0,1-25-.95c-22.18-3.68-36.68-13.63-36.68-13.63,7.34-41.24,41.88-57.26,66.63-63.46a128.67,128.67,0,0,1,26-3.92S479.72,642,444.1,645.29Z"/><path class="cls-3" d="M617.57,630.71s-11.38,7.8-29.38,12.14a98.91,98.91,0,0,1-32.29,2.44c-35.62-3.29-31-82-31-82a128,128,0,0,1,24.38,3.52l1.38.34.72.18C576.14,573.66,610.28,589.73,617.57,630.71Z"/><path class="cls-2" d="M475.06,563.33s4.66,78.67-31,82a97.85,97.85,0,0,1-25-.95s36.25-49.09,29.95-77.09A128.67,128.67,0,0,1,475.06,563.33Z"/><path class="cls-2" d="M588.19,642.85a98.91,98.91,0,0,1-32.29,2.44c-35.62-3.29-31-82-31-82a128,128,0,0,1,24.38,3.52l1.38.34.72.18.14,0S554.94,635.37,588.19,642.85Z"/><path class="cls-3" d="M557,728.12c-.82,2.75-37.87,3.92-69.52,3.5-23.41-.3-43.86-1.47-44.46-3.5-.84-2.84-4.4-36.55-5.12-69.54-.5-22.68.34-45,4.34-56.76,4.34-12.73,16.37-21.59,28.45-27.52,1.73-.84,3.45-1.63,5.16-2.35.8,24-9.74,35.75,20.81,66.3,31.63-31.63,19.21-43.1,20.93-68.9,1.26.45,2.56.95,3.88,1.48,14.31,5.71,31,15.48,36.31,31C567.58,630.63,558.41,723.33,557,728.12Z"/><path class="cls-2" d="M487.47,731.62c-23.41-.3-43.86-1.47-44.46-3.5-.84-2.84-4.4-36.55-5.12-69.54l.08,0S441.32,720.41,487.47,731.62Z"/><path class="cls-4" d="M523.47,602.89a.06.06,0,0,1,0,0c-5.8,23.74-26.05,38.34-26.79,38.87h0s-38.09-26.77-26-67.51a68.09,68.09,0,0,1,4.38-11,76.55,76.55,0,0,1,.78,8.62c.79,23.67-9.45,35.42,19.55,65l1.26,1.27c27.31-27.31,21.78-39.59,20.87-59a85.86,85.86,0,0,1,.06-9.86c.13-1.92.34-3.92.65-6a69.78,69.78,0,0,1,3.23,7.5A54.63,54.63,0,0,1,523.47,602.89Z"/><path class="cls-2" d="M550.1,586.67s-11.83,32.7-8.13,49.7,5.95,12.28,5.95,12.28-.3,12.28-10.8,12.28-13.66-10.55-13.66-10.55l9.29-10.32,6.53-12.95L542,602.57l2.25-17.82,3.7-7.5,4.8,1.72Z"/><path class="cls-2" d="M466.07,593.55s-11.54,31.61-8.24,39.34,10.62,12.7,10.62,12.7,7.95,6.17,6.81,19.91-8,8.81-8,8.81l6.24-6.56.38-6.35-3.76-10.58-4.05-7.77-5.92-7.68-7.36-.31,1-5.62,5.58-26.13,3.88-8.81Z"/><path class="cls-2" d="M453.06,638.81s-4.29,1.94-4.92,13,.09,17.17,4.65,21,5.77,0,5.77,0,1.2,4.4-1,5.42a2.84,2.84,0,0,1-3.53-.93l-5.29-6.91-1-4-1.42-7.22,1-8.94.24-6.41,2.29-4.31,2.37-2.31Z"/><path class="cls-5" d="M455.31,671.14v7a21.55,21.55,0,0,1-8-10.12,25.82,25.82,0,0,1-1.45-12.77c.11-.9.22-1.75.32-2.55s.19-1.48.29-2.16c0,0,0,0,0,0,.59-4.34,1-7,1.39-8.74.57-2.76.84-2.81.84-2.81s-.06.47-.14,1.29c-.24,2.3-.71,7.4-.82,12.85C447.51,663.57,448.65,675.32,455.31,671.14Z"/><path class="cls-6" d="M458.81,674.76a4.58,4.58,0,0,1-1.12,2.8h0a2.19,2.19,0,0,1-1.72.77c-1.43-.1-2.48-1.85-2.34-3.92s1.4-3.67,2.83-3.58h.05C457.91,671,458.94,672.72,458.81,674.76Z"/><path class="cls-5" d="M471.13,675.11l-2.68-6.5a4.66,4.66,0,0,0,2.82-.23c7-3.41-8.53-31.29-8.93-32,.11,0,1.29.59,8.82,14a27.94,27.94,0,0,1,2.93,7.43.36.36,0,0,1,0,.1c.06.26.11.52.16.78s.05.28.08.41A22,22,0,0,1,471.13,675.11Z"/><path class="cls-6" d="M471.48,674.59l0,0-.24.37-.09.12a1.9,1.9,0,0,1-.54.4,2.33,2.33,0,0,1-2.27-.25h0a4.67,4.67,0,0,1-1.71-2c-.92-1.86-.62-3.88.67-4.52l.13,0a2,2,0,0,1,1.05-.1,4.13,4.13,0,0,1,2.81,2.38A4.22,4.22,0,0,1,471.48,674.59Z"/><path class="cls-7" d="M469.84,648.54c-.12.55-.36.9-.88.69-1.43-.59-1.68-1.8-2.31-3.33-5-12.1-18.33-9.46-18.34,3.56,0,1.52.2,2.66-.6,3.67a3.32,3.32,0,0,1-.26.28.76.76,0,0,1-.29.19c-.29.08-.55-.14-.79-.49-.08-.12-.15-.25-.22-.38a3.31,3.31,0,0,1-.3-1.17c-.24-3.39-.68-17.18,7.94-18.67a7.59,7.59,0,0,1,1.08-.13c8.79-2.38,13.77,10.86,14.86,14.14A3.16,3.16,0,0,1,469.84,648.54Z"/><path class="cls-7" d="M450.46,637.63l-1.12-2.19a81.73,81.73,0,0,0,7.83-32.13c.5-18.14,13-18,13-18s-14.92,35.57-15,45.38c0,1.44.3,2.32,1,2.46C461.86,634.23,450.46,637.63,450.46,637.63Z"/><path class="cls-7" d="M533.94,635.16s10.11-27.89,6.59-41.52S549,579.75,549,579.75s-12.57,55.43-7.53,57.72S530,639.58,530,639.58Z"/><path class="cls-5" d="M547.92,647.46a12.38,12.38,0,0,1-6,10.59h0a12.38,12.38,0,0,1-17.76-5.59l0,0a12.26,12.26,0,0,1-1-5,12.41,12.41,0,0,1,24.81,0Z"/><path class="cls-7" d="M547.1,648A10.57,10.57,0,0,1,538,658.52h0a9.9,9.9,0,0,1-1.45.1A10.58,10.58,0,0,1,526,648a10.42,10.42,0,0,1,1-4.56A10.57,10.57,0,0,1,547.1,648Z"/><path class="cls-5" d="M544.22,648a7.68,7.68,0,0,1-7.69,7.7,7.62,7.62,0,0,1-5.25-2.08h0a7.69,7.69,0,0,1,5.26-13.31l.54,0a7.53,7.53,0,0,1,4.88,2.22h0A7.58,7.58,0,0,1,544.22,648Z"/><path class="cls-2" d="M453.79,632.89a30.24,30.24,0,0,0-5.26,7.39c-.25.49-.48,1-.7,1.52a17.21,17.21,0,0,0-1.39,8.74s0,0,0,0a14.16,14.16,0,0,0,.72,3v0c-1.25,1.9-1.65,8.71.11,14.43a25.82,25.82,0,0,1-1.45-12.77c.11-.9.22-1.75.32-2.55a3.31,3.31,0,0,1-.3-1.17C445.61,648.17,445.17,634.38,453.79,632.89Z"/><path class="cls-2" d="M470.19,585.33s-14.92,35.57-15,45.38c-1.76-2.38,2.13-13.67,1.59-13.92s-1.42.93-1.42.93a77.36,77.36,0,0,0,1.8-14.41C457.67,585.17,470.19,585.33,470.19,585.33Z"/><path class="cls-2" d="M458.81,674.76a4.58,4.58,0,0,1-1.12,2.8c1.37-5.88-.82-6.63-1.18-6.71C457.91,671,458.94,672.72,458.81,674.76Z"/><path class="cls-2" d="M456.46,670.84h0Z"/><path class="cls-2" d="M468.31,675.25a4.67,4.67,0,0,1-1.71-2c-.92-1.86-.62-3.88.67-4.52l.13,0C465.52,670.39,468.31,675.25,468.31,675.25Z"/><path class="cls-8" d="M471.48,674.59a4.22,4.22,0,0,0-.22-3.59,4.13,4.13,0,0,0-2.81-2.38h0a4.66,4.66,0,0,0,2.82-.23s-.64,1.37.52,1.9,3.44-4.12,2.68-10.39A22.29,22.29,0,0,1,471.48,674.59Z"/><path class="cls-2" d="M541.94,658.06a12.38,12.38,0,0,1-17.76-5.59C524.64,653.13,531.77,662.93,541.94,658.06Z"/><path class="cls-2" d="M538,658.52a9.9,9.9,0,0,1-1.45.1A10.58,10.58,0,0,1,526,648a10.42,10.42,0,0,1,1-4.56s.17,15.4,9.89,15.07Z"/><path class="cls-2" d="M544.22,648a7.71,7.71,0,0,1-4.5,7c5.32-4,2.43-11.92,2.23-12.45A7.58,7.58,0,0,1,544.22,648Z"/><path class="cls-2" d="M523.46,602.93c-5.85,29.76-26.1,38.58-26.79,38.87C497.41,641.27,517.66,626.67,523.46,602.93Z"/></g></g></g></svg>