<svg xmlns="http://www.w3.org/2000/svg" viewBox="0 0 1000 1000"><defs><style>.cls-1{fill:none;}.cls-2{fill:#edddd6;}.cls-3{fill:#957c70;}.cls-4{opacity:0.1;}.cls-5{fill:#cb7d3d;}.cls-6{fill:#efab60;}</style></defs><g id="Layer_2" data-name="Layer 2"><g id="OutPut"><rect id="BG" class="cls-1" width="1000" height="1000"/></g><g id="Cloth"><g id="_5" data-name="5"><path class="cls-2" d="M564.68,758.74,550,760.41h0l-23.52,2.68a218.35,218.35,0,0,1-39.93.87q-4.8-.33-9.59-.87l-38.23-4.35s2.48-19.46,4.52-39.2c2.08-20.19,3.7-40.66,1.72-40.9-3.68-.46-5.89-.95-6.19-1.61-1.75-3.83-.88-9.79-1.05-13.73a72.49,72.49,0,0,0,19.94-12.81h0c13.11-12.22,15.43-26.22,14.76-36.54a47.43,47.43,0,0,0-3.33-15s-3-3.47,8.24,0a123.07,123.07,0,0,0,1,16.43,62.37,62.37,0,0,0,4.47,17,33.29,33.29,0,0,0,4.19,7.13h29.4a29.84,29.84,0,0,0,2.4-3.59c3.27-5.68,6-14.17,6.91-26.82.23-3.13.36-6.51.36-10.17,11.27-3.47,8.24,0,8.24,0A46.61,46.61,0,0,0,530.52,610c-3,14-2.11,37.92,31.75,53.17,0,.4,0,.84,0,1.3,0,4.35.41,10.83-1,13.57-.55,1.05-1.61.61-2.77.58-1.32,0-1.05,9-.1,21.06v.07C560.21,723.5,564.68,758.74,564.68,758.74Z"/><path class="cls-3" d="M539.14,710.68s-.36,15-9.89,25.93C523.76,743,515.2,748,501.87,748c-36.37,0-36.41-37.27-36.41-37.27Z"/><path class="cls-3" d="M449,678.22c-3.5.82-3.5,1.44-3.5,1.44l-.59-1S447.27,678.51,449,678.22Z"/><path class="cls-3" d="M558.44,678.64l-5.56-.8s5.11.7,4.94,1.87"/><path class="cls-4" d="M486.52,764q-4.8-.33-9.59-.87l-38.23-4.35s2.48-19.46,4.52-39.2l.45-1.32S438.46,760.43,486.52,764Z"/><path class="cls-4" d="M564.68,758.74,550,760.41c11-5.22,8.47-58.38,8.36-60.64C560.21,723.5,564.68,758.74,564.68,758.74Z"/><path class="cls-4" d="M529.25,736.61C523.76,743,515.2,748,501.87,748c-36.37,0-36.41-37.27-36.41-37.27H484.7C485.31,714.33,493.92,761.48,529.25,736.61Z"/><path class="cls-4" d="M476.21,710.68s23.13-3.2,54.71,0"/><path class="cls-4" d="M562.27,663.19c0,.4,0,.84,0,1.3-4.76-1-20.34-5.46-27.44-19.2-8.44-16.34-16-9.39-16-9.39h0c3.27-5.68,6-14.17,6.91-26.82l4.82.94C527.53,624,528.41,647.94,562.27,663.19Z"/><path class="cls-4" d="M482.8,632.36a11.47,11.47,0,0,0-7.11-1.86c-3.69.5-13.14,19.79-18,20,13.11-12.22,15.43-26.22,14.76-36.54l5.92,1.39A62.37,62.37,0,0,0,482.8,632.36Z"/><path class="cls-5" d="M556.27,720.64a11.15,11.15,0,0,1-3.79-2.4c-10.44-9.53-1-25.12,8.06-35.85a101,101,0,0,1,12-12l1.29,24.84S567.87,724.68,556.27,720.64Z"/><path class="cls-4" d="M556.27,720.64c10.42-25.95,4.43-37.93,4.27-38.25a101,101,0,0,1,12-12l1.29,24.84S567.87,724.68,556.27,720.64Z"/><path class="cls-6" d="M619.55,722c-3.47,18.53-11.76,27.94-20.72,32.46h0a38.26,38.26,0,0,1-18.64,3.74c-.28,0-.54,0-.8,0h-.09c-.92,0-1.79-.13-2.63-.23l-.84-.1c-.31,0-.62-.07-.92-.12a45.36,45.36,0,0,1-4.81-1c-.26-.06-.52-.14-.78-.22l-.66-.2-.51-.17h0c-9.86-3.62-12.72-12.7-8.81-35.16,2.16-12.32,7-28.87,13.25-50.53,12.75-3.32,30.93,4.08,41.12,8.7,1,.44,1.9.87,2.71,1.26l.1.05.47.22c1.91.92,3.21,1.6,3.68,1.86l.2.1s0,.71.07,2c0,.16,0,.34,0,.51,0,.47,0,1,0,1.53v.15c0,1.2-.11,2.58,0,4.13,0,.49.06,1,.08,1.47h0C621.67,704.21,621.07,713.94,619.55,722Z"/><path class="cls-4" d="M619.55,722c-3.47,18.53-11.76,27.94-20.72,32.46h0a47.72,47.72,0,0,1-18.64,3.74c-.28,0-.54,0-.8,0h-.09c-.91-.07-1.78-.14-2.63-.23l-.84-.1c-.31,0-.62-.07-.92-.12-.58-.09-1.11-.18-1.63-.28s-1.22-.23-1.81-.37-1-.22-1.37-.33-.52-.14-.78-.22l-.66-.2-.51-.17s48.17-1.12,45.55-77c1,.44,1.9.87,2.71,1.26l.1.05.47.22c1.91.92,3.21,1.6,3.68,1.86l.2.1s0,.71.07,2c0,.16,0,.34,0,.51,0,.47,0,1,0,1.53v.15c0,1.2,0,2.58,0,4.13a10.35,10.35,0,0,0,.08,1.47h0C621.67,704.21,621.07,713.94,619.55,722Z"/></g></g></g></svg>