<svg xmlns="http://www.w3.org/2000/svg" viewBox="0 0 1000 1000"><defs><style>.cls-1{fill:none;}.cls-2{fill:#689298;}.cls-3{fill:#396b6f;}.cls-4{fill:#7da9b1;}.cls-5{fill:#678f96;}.cls-6{fill:#6e9aa1;}.cls-7{fill:#88abb5;}.cls-8{fill:#5f888f;}.cls-9{opacity:0.1;}.cls-10{fill:#80a8b1;}.cls-11{fill:#94bbc4;}.cls-12{fill:#88aeb8;}.cls-13{fill:#fff;opacity:0.2;}</style></defs><g id="Layer_2" data-name="Layer 2"><g id="OutPut"><rect id="BG" class="cls-1" width="1000" height="1000"/></g><g id="Cloth"><g id="_3" data-name="3"><path class="cls-2" d="M565.75,654.6,564,675.36l-.67,7.85h0c-5.89-1.82-23.29-2.53-36.42-2.82h2.35a42.42,42.42,0,0,0,7.46-.65h0a40.26,40.26,0,0,0,13.24-4.79C557.92,670.3,563.74,663.05,565.75,654.6Z"/><path class="cls-3" d="M567.76,593l-1.54,51.3-.18,6,0,1.42-.12,1.4-.13,1.5c-2,8.45-7.83,15.7-15.82,20.34a40.26,40.26,0,0,1-13.24,4.79h0a42.42,42.42,0,0,1-7.46.65h-2.35c13.13.29,30.53,1,36.42,2.82h0l-1.6,18.71v0l-1,12c-.49,5.77-6.43,10.34-13.87,10.84l-10,.12-1.87,1.34a35.94,35.94,0,0,1-20.76,6.27H484.1a35.94,35.94,0,0,1-20.76-6.27l-1.87-1.34-7.42-.08-2.61,0c-7.45-.5-13.39-5.08-13.88-10.85l-.5-5.83a.28.28,0,0,0,0-.09l-2.11-24.77-.25-2.94-2.31-27.17-.12-1.4,0-1.42L430.5,593l13,5.3h0l35.63,14.57L489.26,617a69.15,69.15,0,0,1,9.87,23.85A69.15,69.15,0,0,1,509,617l10.16-4.16,35.63-14.57h0Z"/><path class="cls-4" d="M536.26,724.77h.53v.09Z"/><path class="cls-4" d="M546.83,717.3v7.44l-10,.12c0-.6,0-1.28,0-1.86-.56-15.09-8-23-16.09-27.06l0,0c-10.21-5.14-21.48-4.29-21.48-4.29a46,46,0,0,0-10.84.79c-9.75,1.83-23,7.49-26.14,24.56a42.41,42.41,0,0,0-.64,6c0,.58,0,1.26,0,1.86l-7.42-.08-2.61,0V696.19a10.91,10.91,0,0,1,1.73-5.8h0a19.49,19.49,0,0,1,8.3-6.92,34.64,34.64,0,0,1,12-3.12h0c1.1-.09,2.21-.14,3.35-.14h44.6c7.48,0,14.2,2,18.85,5.28,4.06,2.83,6.54,6.59,6.54,10.71Z"/><path class="cls-2" d="M487.33,680.2H485.9c-7.48,0-42.11.27-50.93,3h0l-.25-2.94-.79-9.34-1.52-17.83.17-.79,26.06,13.27Z"/><path class="cls-5" d="M432.22,650.28,430.5,593l13,5.3h0s3.08,5,7,11.63c6.13,10.29,14.4,24.63,16.75,31,.07.18.13.36.19.53C469.53,647.54,445,649.83,432.22,650.28Z"/><path class="cls-6" d="M507.82,628.56l19.3.44,11.29-24-11.49-1.39-.48.54A222.94,222.94,0,0,0,507.82,628.56Z"/><path class="cls-4" d="M499.13,646.45V670c0,5.66-5.28,10.25-11.8,10.25H469.57a43.65,43.65,0,0,1-5.76-.38c-.59-.08-1.18-.17-1.76-.28l-.91-.17-.9-.19c-.59-.13-1.18-.28-1.77-.43l-1-.29-.94-.29-.93-.31-.92-.34-.9-.35c-12.72-5.16-21.53-16.36-21.53-29.35v-1.37a9.38,9.38,0,0,1,2.85-6.66,12.56,12.56,0,0,1,8.95-3.58h43.27C493.85,636.21,499.13,640.8,499.13,646.45Z"/><path class="cls-6" d="M490.44,628.56l-19.3.44-11.29-24,11.49-1.39.48.54A222.94,222.94,0,0,1,490.44,628.56Z"/><path class="cls-5" d="M530.8,641.48c-2.07,6.06,22.48,8.35,35.24,8.8L567.76,593l-13,5.3h0S534.17,631.57,530.8,641.48Z"/><path class="cls-4" d="M566,646.63V648a28.32,28.32,0,0,1-.78,6.6c-2,8.45-7.83,15.7-15.82,20.34a40.26,40.26,0,0,1-13.24,4.79h0a42.42,42.42,0,0,1-7.46.65H510.93c-6.52,0-11.8-4.59-11.8-10.25v-23.5c0-5.34,4.71-9.73,10.73-10.2.35,0,.71,0,1.07,0H554.2c5.6,0,10.28,3.38,11.49,7.91A9,9,0,0,1,566,646.63Z"/><path class="cls-7" d="M526.92,603.62l-.48.54c-1.08,1.23-3.86,4.44-7.28,8.72s-7.71,10-11.34,15.68c-4.83,7.56-8.69,15.32-8.69,20.84,0-5.52-3.86-13.28-8.69-20.84-3.63-5.68-7.82-11.25-11.34-15.68s-6.2-7.49-7.28-8.72l-.48-.54s-13.18-13.39,5.28,0A51.12,51.12,0,0,1,489.26,617,69.93,69.93,0,0,1,498,636.21a1.26,1.26,0,0,0,2.26,0A69.93,69.93,0,0,1,509,617a51.12,51.12,0,0,1,12.64-13.42C540.1,590.23,526.92,603.62,526.92,603.62Z"/><path class="cls-8" d="M379.22,654.14s-9.63,12.42,16.14,17.08,31.46,10.92,33.83-8.84S378.71,648.12,379.22,654.14Z"/><path class="cls-9" d="M477.44,680.2h-7.87a41.84,41.84,0,0,1-15.78-3c-12.72-5.16-21.53-16.36-21.53-29.35v-1.37a9.38,9.38,0,0,1,2.85-6.66c-.86,15.75,9.28,25.76,19.85,31.88A79.64,79.64,0,0,0,477.44,680.2Z"/><path class="cls-2" d="M455.7,612a50.19,50.19,0,0,1-1,5.11c-1.84,7.59-5.71,16.85-12.11,28.23-20.44,36.37-30,25-37.29,22.69-3.88-1.21-27.69-4.12-27.84-8.2-1.08-30.1,46.49-81.47,57.36-77.47C448.23,587.25,458.06,594.58,455.7,612Z"/><path class="cls-10" d="M386.14,651.14c-7.93-23,22.2-62.67,24.85-64.71,16.7-12.86,40.52-2.63,33.16,17.11s-28.14,22.73-29,41.75C413.79,676.42,390.48,663.72,386.14,651.14Z"/><path class="cls-11" d="M386.14,651.14s-10.73-19.74-6.4-25.9c4.07-5.78,16-28.45,31.25-38.81C409.36,608.88,389.08,627.35,386.14,651.14Z"/><path d="M411,586.44c-.09.45-6.41,29.68-31.23,38.79.23-.51,8.62-18.71,6.83-28.42a31.16,31.16,0,0,0,8.78-2.09h0A81.28,81.28,0,0,0,411,586.44Z"/><path class="cls-12" d="M377.52,660.35s-1.59,7.2,1.65,10.35c2.06,2,39.19,8.67,48.75,5.28,2.55-.91,1.69-2-.63-4.76C379.84,673.45,377.52,660.35,377.52,660.35Z"/><path class="cls-8" d="M620.78,654.14s9.63,12.42-16.14,17.08-31.46,10.92-33.83-8.84S621.29,648.13,620.78,654.14Z"/><path class="cls-2" d="M594.69,668c3.88-1.21,27.69-4.12,27.84-8.2,1.08-30.1-46.49-81.47-57.36-77.47-19.91,7.34-31.95,20-7.77,63C577.84,681.66,587.42,670.24,594.69,668Z"/><path class="cls-10" d="M613.86,651.14c7.93-23-22.2-62.67-24.85-64.71-16.7-12.86-40.52-2.63-33.16,17.11s28.14,22.73,29,41.75C586.21,676.42,609.52,663.72,613.86,651.14Z"/><path class="cls-11" d="M613.86,651.14s10.73-19.74,6.4-25.9c-4.07-5.78-16-28.45-31.25-38.81C590.64,608.88,610.92,627.35,613.86,651.14Z"/><path d="M620.25,625.23a44.88,44.88,0,0,1-20.47-15.75,65.57,65.57,0,0,1-10.76-23c.43.29,14.1,9.75,24.4,10.37-.8,4.33.42,10.34,2.05,15.72l0,.1A107.15,107.15,0,0,0,620.25,625.23Z"/><path class="cls-12" d="M622.43,660.65s1.64,6.9-1.6,10.05c-2.21,2.15-50.21,6.78-50.09,5.88a10.29,10.29,0,0,1,2-5.36C620.16,673.45,622.43,660.65,622.43,660.65Z"/><path class="cls-13" d="M379.75,625.23c.23-.51,8.62-18.71,6.83-28.42a31.16,31.16,0,0,0,8.78-2.09C397.94,608.85,380.27,624.77,379.75,625.23Z"/><path class="cls-13" d="M620.25,625.23a44.88,44.88,0,0,1-20.47-15.75c3.76,3.47,19.5,17.4,15.72,3.15A107.15,107.15,0,0,0,620.25,625.23Z"/><path class="cls-9" d="M536.15,679.55a42.42,42.42,0,0,1-7.46.65H510.93c-6.52,0-11.8-4.59-11.8-10.25v-23.5c0-5.34,4.71-9.73,10.73-10.2h0S488.19,681.71,536.15,679.55Z"/><path class="cls-9" d="M462.15,717a42.41,42.41,0,0,0-.64,6c0,.58,0,1.26,0,1.86l-10-.11V696.19a10.91,10.91,0,0,1,1.73-5.8C449.09,730.89,462.15,717,462.15,717Z"/><path class="cls-9" d="M546.83,717.3v7.44l-10,.12c0-.6,0-1.28,0-1.86-.56-15.09-8-23-16.09-27.06,1.11.36,18.78,6.32,20.59,17.4C542.93,723.55,546.16,718.5,546.83,717.3Z"/><path d="M512,680.2l-6.15,5,0,0-7.17,5.86c-10.79-10.48-13-10.91-13.32-10.91a11.12,11.12,0,0,0,4-.71c7.13-2.63,9.87-11.73,9.87-11.73S501.86,680.2,512,680.2Z"/><path class="cls-13" d="M505.8,685.25l-7.17,5.86c-10.79-10.48-13-10.91-13.32-10.91a11.12,11.12,0,0,0,4-.71C494.36,690.94,505.12,685.6,505.8,685.25Z"/><path class="cls-9" d="M487.15,680.2c-3,0-42.65.06-52.18,3h0l-1-12.28c.06.17.13.34.19.53,3.78,11.14,19.7,5.71,19.7,5.71l.9.35.92.34.93.31.94.29,1,.29c.59.15,1.18.3,1.77.43l.9.19.91.17c.58.11,1.17.2,1.76.28a43.65,43.65,0,0,0,5.76.38Z"/><path class="cls-9" d="M564.6,668.11l-1.28,15.1h0c-7.44-2.3-33.25-2.84-45.63-3v0h11a42.42,42.42,0,0,0,7.46-.65h0a40.26,40.26,0,0,0,13.24-4.79S562.24,686.6,564.6,668.11Z"/><path class="cls-9" d="M477.73,636.21H465.19c-2.57-5.29-6.59-12.47-10.48-19.15a50.19,50.19,0,0,0,1-5.11c.28.68,9.42,22.66,21,24.1C477.08,636.1,477.43,636.15,477.73,636.21Z"/><path class="cls-9" d="M509.87,732.47H484.1a35.94,35.94,0,0,1-20.76-6.27l-1.87-1.34c0-.6,0-1.28,0-1.86a42.41,42.41,0,0,1,.64-6c3.11-17.07,16.39-22.73,26.14-24.56C488.29,692.42,452.5,732,509.87,732.47Z"/><path class="cls-9" d="M473.44,680.34a34.64,34.64,0,0,0-12,3.12s-26.38-5.89-24.42,24.52l-2.11-24.77h0C441.17,681.29,460.13,680.59,473.44,680.34Z"/><path class="cls-9" d="M563.32,683.21l-1.6,18.71c-.9-22.51-21.44-16.44-21.44-16.44a31.84,31.84,0,0,0-15.13-5.1l-.41,0,2.13,0c13.13.29,30.53,1,36.42,2.82Z"/></g></g></g></svg>