<svg xmlns="http://www.w3.org/2000/svg" viewBox="0 0 1000 1000"><defs><style>.cls-1{fill:none;}.cls-2{fill:#5ca0cf;}.cls-3,.cls-4{opacity:0.2;}.cls-5{fill:#e2e2e2;}.cls-6{fill:#fdf075;}.cls-7{fill:#228abd;}.cls-8{fill:#eddebc;}.cls-9{fill:#605138;}</style></defs><g id="Layer_2" data-name="Layer 2"><g id="OutPut"><rect id="BG" class="cls-1" width="1000" height="1000"/></g><g id="Cloth"><g id="_2" data-name="2"><path class="cls-2" d="M452.18,633.91s-11.28,16.21-18.43,28.29c-1.24.52-4.13-.51-8-2.49-3.58-1.84-8-4.52-12.63-7.53l-.52-.34c-5.68-3.71-11.69-7.89-17-11.67l-.66-.48c-8.5-6.08-15-11-15-11s-2.44,2.84,7.86-13l1.72-2.64,1-1.57.86-1.31c.54-.81,1.1-1.6,1.69-2.35,4.88-6.26,11.53-10.49,18.31-13.36,1-.43,2.08-.84,3.12-1.21,2.21-.81,4.41-1.48,6.54-2l1.08-.28c2.2-.54,4.31-1,6.28-1.29l1.51-.24h0a77.76,77.76,0,0,1,11.07-.94l.1.41.2.84.87,3.53.1.43,1.88,7.69.26,1.06Z"/><path class="cls-3" d="M452.18,633.91s-11.28,16.21-18.43,28.29c-1.24.52-4.13-.51-8-2.49,0,0,19.87-22.6,15.29-71.28Z"/><path class="cls-2" d="M496.35,593.64s-38-2.94-22.46,45.94a2.74,2.74,0,0,1-.18,2.23c-1.7,3.17-9.32,4.8-8.73,13.9,0,.46.06.93.1,1.39.7,9.9,2.13,21,3.71,31.39.08.44.14.89.21,1.33,1.36,8.75,2.81,16.89,4,23.21l0,.18c1.45,7.66,2.49,12.59,2.49,12.59s3,1.27-7.95,2.11h-.06c-2,.15-4.39.29-7.36.4-2.65.1-4.95.09-6.95,0h0c-12.73-.6-13.28-4.59-13.28-4.59l-1.82-51-1.75-49.13,4.74-35.21Z"/><path class="cls-3" d="M453.19,728.31c-12.73-.6-13.28-4.59-13.28-4.59l-1.82-51,.17-.21S439.88,722.12,453.19,728.31Z"/><g class="cls-4"><path d="M447.34,599.7a7.09,7.09,0,0,1-2.85,2.69c-2.87,1.29-5.76-1-7.44-3.23-.28-.37-.73-1-.61-.51,1.16,4.44,2.32,12.37-5.48,9.21-10.6-4.3,1.48-9.13-1.37-10.16-3.3-1.2-6.44,17.29-15.78,4.55-3.28-4.48-3.5-6.66-2.34-7.82a5.94,5.94,0,0,1,3.12-1.21c2.5-.44,5.5-.49,6.54-2l1.08-.28c2.2-.54,4.31-1,6.28-1.29l1.51-.24h0a77.76,77.76,0,0,1,11.07-.94l.1.41.2.84a10.15,10.15,0,0,1-3.21,2.4c-.44.22-.76.87-.28.87a34.59,34.59,0,0,1,4.36.26C446.34,593.75,450.2,595.34,447.34,599.7Z"/></g><path class="cls-5" d="M446,599.43a6.84,6.84,0,0,1-1.76,1.9c-2.87,2-5.86-.94-7.57-3.19a.38.38,0,0,0-.68.33c1.06,4.07,2.12,11.35-5,8.45-9.74-3.94,3.53-9.09-.64-10.35s-6.53,16.9-15.11,5.2,5.58-6.35,7-10.66a1.94,1.94,0,0,0,0-.2c2.2-.54,4.31-1,6.28-1.29a1.36,1.36,0,0,0,1.51-.24h0a77.76,77.76,0,0,1,11.07-.94l.1.41a9,9,0,0,1-4.07,3.6.42.42,0,0,0,.2.8,28.7,28.7,0,0,1,5,.4C445.67,594.26,448.36,595.8,446,599.43Z"/><g class="cls-4"><path d="M469,689.82a19,19,0,0,1-3.31.31c-15.8.27-2.11-9-5.11-12.89-2-2.58-11.66,4.94-10.59-4,.95-7.8,7.08-3,12.36-2.87,1.07,0,1.95-.62,1.5-1.59-1.8-3.89-8.23-13.23.14-13.12.34,0,.67,0,1,.05,0,.46.06.93.1,1.39.7,9.9,2.13,21,3.71,31.39C468.87,688.93,468.93,689.38,469,689.82Z"/></g><path class="cls-5" d="M468.79,688.49a18.38,18.38,0,0,1-2.69.23c-14.5.25-2-8.23-4.68-11.83s-10.71,4.53-9.72-3.67c.86-7.17,6.64-2.33,11.49-2.21a1.33,1.33,0,0,0,1.23-1.89c-1.66-3.57-7.56-12.14.13-12l.53,0C465.78,667,467.21,678.12,468.79,688.49Z"/><g class="cls-4"><path d="M420.67,650.22c-9.63,6.18-6.6-6.47-9.09-4.74-1.21.84.44,3.68,1.58,6.7l-.52-.34c-5.68-3.71-11.69-7.89-17-11.67l-.66-.48c2.32.22,5.2,1.48,7.86,1.54,1.07,0,1.95-.63,1.5-1.6-1.8-3.88-8.23-13.22.14-13.11,7.45.1,8,5.32,7.46,8.71-.07.48.27,1.12.55.73,2.66-3.77,8.33-10.49,11-3.83,2.44,6.19-2.67,8-6.38,8.1-.47,0-1.2,0-.76.2C420.61,642,427.75,645.68,420.67,650.22Z"/></g><path class="cls-5" d="M419.9,649.69c-8.84,5.67-5.39-8.13-8.83-5.45-1.56,1.21.36,4.43,1.57,7.6-5.68-3.71-11.69-7.89-17-11.67,2.27.06,5.3,1.62,8,1.69a1.33,1.33,0,0,0,1.23-1.89c-1.66-3.56-7.56-12.14.13-12,6.84.09,7.07,5.26,6.58,8.37a.43.43,0,0,0,.77.3c2.44-3.46,7.65-9.63,10.06-3.51,2.24,5.67-3,6.74-6.43,6.87a.39.39,0,0,0-.13.75C419.84,642.19,426.4,645.52,419.9,649.69Z"/><path class="cls-5" d="M455,709.49s.67-7.79,3.86-5.58S455,709.49,455,709.49Z"/><path class="cls-5" d="M455,709.49s-7.79-.66-5.59-3.85S455,709.49,455,709.49Z"/><path class="cls-5" d="M455,709.49s-.67,7.8-3.86,5.59S455,709.49,455,709.49Z"/><path class="cls-5" d="M455,709.49s7.79.67,5.59,3.86S455,709.49,455,709.49Z"/><circle class="cls-6" cx="455.03" cy="709.49" r="1.72"/><path class="cls-5" d="M452.9,612.35s-3.87-6.79,0-6.79S452.9,612.35,452.9,612.35Z"/><path class="cls-5" d="M452.9,612.35s-6.79,3.88-6.79,0S452.9,612.35,452.9,612.35Z"/><path class="cls-5" d="M452.9,612.35s3.88,6.79,0,6.79S452.9,612.35,452.9,612.35Z"/><path class="cls-5" d="M452.9,612.35s6.8-3.87,6.8,0S452.9,612.35,452.9,612.35Z"/><circle class="cls-6" cx="452.9" cy="612.35" r="1.72"/><path class="cls-5" d="M392.57,612.53a16.55,16.55,0,0,1-.76,1.54s-.36-.64-.76-1.53c-.15-.33-.3-.7-.44-1.09l.86-1.31c.54-.81,1.1-1.6,1.69-2.35C394,608.79,393.25,611,392.57,612.53Z"/><path class="cls-5" d="M391.81,614.07s-.64.36-1.53.76a13.5,13.5,0,0,1-2.42.83l1.72-2.64.7.29C391.17,613.71,391.81,614.07,391.81,614.07Z"/><path class="cls-5" d="M391.81,614.07s3.88,6.8,0,6.8S391.81,614.07,391.81,614.07Z"/><path class="cls-5" d="M391.81,614.07s6.8-3.87,6.8,0S391.81,614.07,391.81,614.07Z"/><circle class="cls-6" cx="391.81" cy="614.07" r="1.72"/><path class="cls-7" d="M471.45,619.14a75.38,75.38,0,0,0,2.44,20.44c-4.21-6.44-4.55-6.22-13.54-2.91-2.9,1.07-6.7,2.45-11.81,4.05l-.92.28c0-28.31,10.38-40.57,21.56-45.58,13-5.83,27.17-1.78,27.17-1.78C477.48,594.88,472,606.74,471.45,619.14Z"/><g class="cls-4"><path d="M469.18,595.42l0,0c-29,20.82-8.79,41.22-8.79,41.22-3.07,1.13-7.15,2.62-12.73,4.33C447.62,612.69,458,600.43,469.18,595.42Z"/></g><path class="cls-2" d="M620.7,628.68s-1.38,1.05-3.72,2.79c-.15.1-.3.22-.46.34l-1,.77-.3.22c-2.55,1.89-5.83,4.28-9.47,6.89l-.66.48-.74.53-1.54,1.09c-4.7,3.33-9.83,6.86-14.71,10.05l-.52.34c-4.65,3-9,5.69-12.63,7.53-3.83,2-6.72,3-8,2.49-1.16-2-2.43-4-3.74-6.14-6.78-10.79-14.69-22.15-14.69-22.15L556.07,603l.11-.45,0-.13.26-1.06,1.88-7.69.1-.43,0-.09.08-.3.13-.55.08-.33.56-2.26.2-.84.1-.41s1.31,0,3.53.13l.33,0,.36,0,.44,0c1.76.13,4,.36,6.41.73h0l1.51.24,2,.36.84.17c1.11.22,2.26.47,3.43.76l1.08.28c2.13.55,4.33,1.22,6.54,2,1,.37,2.08.78,3.12,1.21,6.78,2.87,13.43,7.1,18.31,13.36a4.61,4.61,0,0,1,.28.38c.37.47.71,1,1,1.44l.36.53.86,1.31,1,1.57,1.72,2.64c.58.89,1.11,1.72,1.62,2.49h0a.24.24,0,0,0,.06.09C622.86,631.2,620.7,628.68,620.7,628.68Z"/><path class="cls-3" d="M548.52,633.91S559.8,650.12,567,662.2c1.24.52,4.13-.51,8-2.49,0,0-19.87-22.6-15.29-71.28Z"/><path class="cls-2" d="M564.36,623.64l-1.15,32.42-.6,16.71-.2,5.47,0,.91-.34,9.53v.41l0,1.32,0,.72-.64,18-.06,1.77-.46,12.82s-.55,4-13.28,4.59h0c-2,.1-4.3.11-7,0l-2.21-.09h-.1l-1.46-.08c-15.18-.82-11.6-2.35-11.6-2.35a79.35,79.35,0,0,0,1.63-24.57c-.06-.66-.13-1.32-.22-2q-.06-.6-.15-1.2s0,0,0-.08c-.08-.66-.18-1.32-.28-2,0-.32-.09-.64-.15-1-.1-.67-.21-1.33-.33-2-.06-.39-.13-.78-.21-1.16,0-.12,0-.24-.07-.35s0-.3-.08-.44-.09-.5-.14-.74,0-.22-.07-.33a1.11,1.11,0,0,0-.05-.25c-.1-.55-.21-1.1-.33-1.64s-.23-1.07-.35-1.6c-.07-.33-.14-.66-.22-1s-.21-.94-.32-1.4c-1.91-8.06-3.94-14.24-3.94-14.42.71-11,5.32-25.12,6.92-30.16,15.49-48.88-22.46-45.94-22.46-45.94l50.93-4.8.51-.05,3.83-.36,1.64,12.15,0,.36.72,5.29.07.58.8,5.89.26,1.92Z"/><path class="cls-7" d="M553.08,641c-5.58-1.71-9.66-3.2-12.73-4.33-6-2.19-8.12-3-10.12-1.47a18.76,18.76,0,0,0-3.42,4.38c3.7-15.2,7.53-44-22.46-45.94,0,0,14.13-4,27.17,1.78C542.7,600.43,553.08,612.69,553.08,641Z"/><g class="cls-4"><path d="M531.52,595.42l0,0c29,20.82,8.79,41.22,8.79,41.22,3.07,1.13,7.15,2.62,12.73,4.33C553.08,612.69,542.7,600.43,531.52,595.42Z"/></g><path class="cls-3" d="M473,713l0,.18Z"/><path class="cls-3" d="M467.57,727.91c7.22-1.84,5.71-13.12,5.46-14.7,1.45,7.66,2.49,12.59,2.49,12.59S478.49,727.07,467.57,727.91Z"/><path class="cls-3" d="M473.71,641.81c-2.93-7.18-20.88-2.36-25.17-1.09,5.11-1.6,8.91-3,11.81-4.05,9-3.31,9.33-3.53,13.54,2.91A2.74,2.74,0,0,1,473.71,641.81Z"/><path class="cls-3" d="M553.08,641c-4.79.63-22.85-5.8-22.85-5.8,2-1.56,4.16-.72,10.12,1.47C543.42,637.8,547.5,639.29,553.08,641Z"/><g class="cls-4"><path d="M562.41,678.24l0,.91-.34,9.53v.41c-.55.14-.79.4-.5.92a.84.84,0,0,0,.45.4l0,.72-.64,18-.06,1.77a5.91,5.91,0,0,1-3.22,0c-7.67-1.73-2.27-7.34-1.61-12.58.14-1.07-.42-2-1.43-1.66-4,1.4-14,6.86-13-1.47.85-7.4,6.1-7.4,9.41-6.54.48.13,1.15-.15.78-.47-3.48-3-9.59-9.35-2.69-11.29,6.39-1.81,7.64,3.46,7.4,7.17,0,.46-.07,1.19.13.78C558.19,682.37,560.19,679,562.41,678.24Z"/></g><path class="cls-5" d="M560.25,690.39a1.8,1.8,0,0,0,1.7.74l-.64,18a4.72,4.72,0,0,1-3.13,0c-7-1.58-1.65-6.85-1-11.66a1.33,1.33,0,0,0-1.76-1.41c-3.71,1.29-12.84,6.29-12-1.35.78-6.79,5.94-6.5,9-5.7a.42.42,0,0,0,.38-.73c-3.19-2.78-8.81-8.58-2.47-10.37,5.87-1.66,6.4,3.69,6.18,7.1a.39.39,0,0,0,.73.2c1.14-2.29,3-5.48,5.16-6.08l-.34,9.53C560.5,688.86,559.45,689.13,560.25,690.39Z"/><g class="cls-4"><path d="M583.05,601.16c-1.33,15.75-9.16,1.19-13.34,3.78-2.76,1.71,3.73,12.1-5.05,10.13a10.55,10.55,0,0,1-1.51-.45c-4-1.57-2.44-4.83-1.13-8.39a17.66,17.66,0,0,0,1-3.74c.14-1.06-.42-2-1.43-1.66l-.32.11c-1.37.51-3.29,1.37-5.23,2-4,1.38-8.11,1.87-7.48-3.6.85-7.41,6.1-7.41,9.41-6.54a1.13,1.13,0,0,0,.55,0c.29-.08.46-.26.23-.46l-.1-.09a31.56,31.56,0,0,1-3.4-3.43l.51-.05,3.83-.36s1.31,0,3.53.13l.33,0c0,.4,0,.75.15.43l.21-.41.44,0c1.76.13,4,.36,6.41.73h0l1.51.24,2,.36.84.17c-.36,4.31-8.08,2-6.9,4.08C569.86,597.3,584.38,585.42,583.05,601.16Z"/></g><path class="cls-5" d="M581.69,600.61c-1.22,14.45-8.39,1.13-12.25,3.47s3.43,11.11-4.63,9.29a7.61,7.61,0,0,1-1.92-.67c-2.39-1.25-1.78-3.43-.8-5.89a21.86,21.86,0,0,0,1.68-5.09A1.33,1.33,0,0,0,562,600.3l-.75.28c-1.4.55-3.27,1.38-5.08,1.94-3.43,1.05-6.66,1.13-6.13-3.56.73-6.4,5.34-6.51,8.42-5.84l.56.13a.42.42,0,0,0,.38-.73l-.65-.58a26.4,26.4,0,0,1-3-3.15l3.83-.36s1.31,0,3.53.13l0,.69a.39.39,0,0,0,.74.2l.42-.81c1.76.13,4,.36,6.41.73h0l1.51.24,2,.36c-.29,4.4-9.27,1.55-7.34,4.63C569.2,598.31,582.91,586.15,581.69,600.61Z"/><g class="cls-4"><path d="M620.7,628.68s-1.38,1.05-3.72,2.79c-.15.1-.3.22-.46.34-1.07-2.22-.76-5.67-2.14-4.71-1,.73,0,2.94,1.1,5.48l-.3.22c-2.55,1.89-5.83,4.28-9.47,6.89l-.66.48-.74.53-1.54,1.09c-4.87-2.32,3.52-8.93,1.11-12.07-2-2.57-11.66,4.94-10.59-4,1-7.81,7.08-3,12.36-2.88,1.07,0,2-.62,1.5-1.59-1.8-3.89-8.23-13.22.14-13.11l.53,0c.37.47.71,1,1,1.44l.36.53.86,1.31,1,1.57,1.72,2.64c.58.89,1.11,1.72,1.62,2.49h0a.24.24,0,0,0,.06.09C622.86,631.2,620.7,628.68,620.7,628.68Z"/></g><path class="cls-5" d="M620.7,628.68s-1.38,1.05-3.72,2.79c-1.52-2.39-.93-7.3-3.11-5.6-1.45,1.13.11,4,1.31,6.93-2.55,1.89-5.83,4.28-9.47,6.89l-.66.48-.74.53c-5.76-1.86,2.68-8.3.41-11.33C602,625.76,594,633.9,595,625.7c.86-7.16,6.64-2.33,11.49-2.21a1.33,1.33,0,0,0,1.23-1.89c-1.66-3.57-7.56-12.14.13-12,.36,0,.7,0,1,.05l.36.53.86,1.31,1,1.57,1.72,2.64c.58.89,1.11,1.72,1.62,2.49h0a.24.24,0,0,0,.06.09C622.86,631.2,620.7,628.68,620.7,628.68Z"/><path class="cls-5" d="M579.67,645.29s-3.87-6.8,0-6.8S579.67,645.29,579.67,645.29Z"/><path class="cls-5" d="M579.67,645.29s-6.79,3.87-6.79,0S579.67,645.29,579.67,645.29Z"/><path class="cls-5" d="M579.67,645.29s3.88,6.79,0,6.79S579.67,645.29,579.67,645.29Z"/><path class="cls-5" d="M579.67,645.29s6.79-3.88,6.79,0S579.67,645.29,579.67,645.29Z"/><circle class="cls-6" cx="579.67" cy="645.29" r="1.72"/><path class="cls-5" d="M536.16,652.51s-3.88-6.79,0-6.79S536.16,652.51,536.16,652.51Z"/><path class="cls-5" d="M536.16,652.51s-6.8,3.88-6.8,0S536.16,652.51,536.16,652.51Z"/><path class="cls-5" d="M536.16,652.51s3.87,6.8,0,6.8S536.16,652.51,536.16,652.51Z"/><path class="cls-5" d="M536.16,652.51s6.79-3.87,6.79,0S536.16,652.51,536.16,652.51Z"/><circle class="cls-6" cx="536.16" cy="652.51" r="1.72"/><path class="cls-5" d="M526.52,689.82q-.15.34-.3.63c-.26.55-.46.9-.46.9s-.31-.54-.65-1.3h0l-.1-.22a.05.05,0,0,1,0,0c-.1-.55-.21-1.1-.33-1.64s-.23-1.07-.35-1.6c-.07-.33-.14-.66-.22-1a1.39,1.39,0,0,1,.16-.35,1.57,1.57,0,0,1,1.45-.65C528.45,684.56,527.41,687.82,526.52,689.82Z"/><path class="cls-5" d="M525.76,691.35l-.37.2c0-.15,0-.3-.08-.44Z"/><path class="cls-5" d="M526.44,698.05c-.21-1.66-.47-3.33-.77-5-.06-.39-.13-.78-.21-1.16.18-.34.3-.55.3-.55s.36.64.76,1.53C527.32,694.68,528.25,697.52,526.44,698.05Z"/><path class="cls-5" d="M525.76,691.35s6.79-3.87,6.79,0S525.76,691.35,525.76,691.35Z"/><path class="cls-6" d="M527.49,691.35a1.65,1.65,0,0,1-.19.76,1.6,1.6,0,0,1-.36.49,1.47,1.47,0,0,1-.42.28,1.53,1.53,0,0,1-.76.19h-.09c-.06-.39-.13-.78-.21-1.16,0-.12,0-.24-.07-.35s0-.3-.08-.44-.09-.5-.14-.74,0-.22-.07-.33l-.1-.22a.05.05,0,0,1,0,0,1.57,1.57,0,0,1,.71-.16h.18a1.46,1.46,0,0,1,.58.18,1.58,1.58,0,0,1,.78.77A1.65,1.65,0,0,1,527.49,691.35Z"/><path class="cls-3" d="M547.51,728.31c12.73-.6,13.28-4.59,13.28-4.59l1.82-51-.17-.21S560.82,722.12,547.51,728.31Z"/><path class="cls-3" d="M536.78,728.15c-15.18-.82-11.6-2.35-11.6-2.35a79.35,79.35,0,0,0,1.63-24.57c-.06-.66-.13-1.32-.22-2q-.06-.6-.15-1.2s0,0,0-.08c-.08-.66-.17-1.31-.28-2,0-.32-.09-.63-.15-1-.1-.67-.21-1.33-.33-2-.06-.39-.13-.78-.21-1.16,0-.12,0-.24-.07-.35s0-.3-.08-.44-.09-.5-.14-.74l-.06-.32h0a1.11,1.11,0,0,0-.05-.25c-.1-.55-.21-1.1-.33-1.64s-.23-1.07-.35-1.6c-.07-.33-.14-.66-.22-1s-.21-.94-.32-1.4l.06,0s.16.39.42,1.09c.37.95,1,2.5,1.63,4.43l.28.81c.06.18.12.37.19.56s.18.54.28.82.17.51.25.77c2.84,8.59,6.31,21.41,4,27C528.13,726.37,533.86,727.83,536.78,728.15Z"/><ellipse class="cls-8" cx="530.31" cy="644.8" rx="3.21" ry="2.91"/><path class="cls-3" d="M533.12,644.8a2.63,2.63,0,0,1-2.11,2.48h0a3.08,3.08,0,0,1-.68.08,2.7,2.7,0,0,1-2.82-2.56,2.51,2.51,0,0,1,1.55-2.27h0a3.1,3.1,0,0,1,1.27-.27A2.69,2.69,0,0,1,533.12,644.8Z"/><path class="cls-9" d="M529.65,643.36s-.89,2.21-.21,2.89C529.65,645.36,530.2,643.67,529.65,643.36Z"/><path class="cls-9" d="M531.18,643.36s-.89,2.21-.21,2.89C531.18,645.36,531.73,643.67,531.18,643.36Z"/><path class="cls-9" d="M531.75,644.3s-2.21-.9-2.89-.22C529.74,644.3,531.44,644.85,531.75,644.3Z"/><path class="cls-9" d="M531.6,645.27s-2.21-.89-2.89-.21C529.6,645.27,531.29,645.82,531.6,645.27Z"/><path class="cls-3" d="M531,647.28a3.08,3.08,0,0,1-.68.08,2.7,2.7,0,0,1-2.82-2.56,2.51,2.51,0,0,1,1.55-2.27C528.92,642.87,527.39,647.36,531,647.28Z"/><ellipse class="cls-8" cx="524.56" cy="668.8" rx="3.21" ry="2.91" transform="translate(-151.26 1184.28) rotate(-89.23)"/><path class="cls-3" d="M524.59,666a2.61,2.61,0,0,1,2.45,2.14v0a2.58,2.58,0,0,1,.07.68,2.69,2.69,0,0,1-2.59,2.78,2.5,2.5,0,0,1-2.25-1.58h0a3.1,3.1,0,0,1-.26-1.27A2.69,2.69,0,0,1,524.59,666Z"/><path class="cls-9" d="M523.1,669.43s2.2.93,2.89.26C525.11,669.46,523.42,668.89,523.1,669.43Z"/><path class="cls-9" d="M523.12,667.9s2.2.93,2.89.26C525.13,667.93,523.44,667.36,523.12,667.9Z"/><path class="cls-9" d="M524.07,667.35s-.92,2.2-.25,2.89C524.05,669.36,524.62,667.67,524.07,667.35Z"/><path class="cls-9" d="M525.05,667.51s-.93,2.2-.26,2.89C525,669.51,525.59,667.83,525.05,667.51Z"/><path class="cls-3" d="M527,668.15a2.58,2.58,0,0,1,.07.68,2.69,2.69,0,0,1-2.59,2.78,2.5,2.5,0,0,1-2.25-1.58C522.61,670.16,527.08,671.75,527,668.15Z"/><ellipse class="cls-8" cx="530.31" cy="693.07" rx="3.21" ry="2.91" transform="translate(-167.3 1217.4) rotate(-89.51)"/><path class="cls-3" d="M530.33,690.26a2.62,2.62,0,0,1,2.46,2.13v0a3.08,3.08,0,0,1,.07.68,2.68,2.68,0,0,1-2.58,2.79,2.5,2.5,0,0,1-2.26-1.56h0a3.18,3.18,0,0,1-.26-1.28A2.69,2.69,0,0,1,530.33,690.26Z"/><path class="cls-9" d="M528.85,693.71s2.21.91,2.89.24C530.86,693.73,529.17,693.16,528.85,693.71Z"/><path class="cls-9" d="M528.87,692.18s2.2.91,2.89.24C530.87,692.2,529.18,691.63,528.87,692.18Z"/><path class="cls-9" d="M529.81,691.62s-.91,2.21-.24,2.89C529.8,693.63,530.36,691.94,529.81,691.62Z"/><path class="cls-9" d="M530.79,691.78s-.92,2.2-.24,2.88C530.77,693.78,531.33,692.09,530.79,691.78Z"/><path class="cls-3" d="M532.79,692.41a3.08,3.08,0,0,1,.07.68,2.68,2.68,0,0,1-2.58,2.79,2.5,2.5,0,0,1-2.26-1.56C528.36,694.44,532.84,696,532.79,692.41Z"/><ellipse class="cls-8" cx="530.14" cy="719.9" rx="2.91" ry="3.21" transform="translate(-361.88 780.02) rotate(-57.49)"/><path class="cls-3" d="M527.76,718.39a2.63,2.63,0,0,1,3.11-.95h0a2.84,2.84,0,0,1,1.62,4A2.52,2.52,0,0,1,530,722.5h0a3,3,0,0,1-1.22-.46A2.68,2.68,0,0,1,527.76,718.39Z"/><path class="cls-9" d="M529.91,721.47s1.94-1.38,1.73-2.32C531,719.78,529.61,720.92,529.91,721.47Z"/><path class="cls-9" d="M528.62,720.65s1.94-1.38,1.73-2.32C529.7,719,528.32,720.09,528.62,720.65Z"/><path class="cls-9" d="M528.65,719.55s1.38,2,2.32,1.74C530.34,720.63,529.21,719.26,528.65,719.55Z"/><path class="cls-9" d="M529.29,718.81s1.39,1.94,2.33,1.73C531,719.89,529.85,718.51,529.29,718.81Z"/><path class="cls-3" d="M530.89,717.45a2.84,2.84,0,0,1,1.62,4A2.52,2.52,0,0,1,530,722.5C530.26,722.28,534,719.31,530.89,717.45Z"/><path class="cls-9" d="M463.25,643.83a8.4,8.4,0,0,1,5.75,0A28.73,28.73,0,0,1,463.25,643.83Z"/><path class="cls-9" d="M459,670a8.47,8.47,0,0,1,5.75,0A28.75,28.75,0,0,1,459,670Z"/><path class="cls-9" d="M461.91,697a8.4,8.4,0,0,1,5.75,0A28.73,28.73,0,0,1,461.91,697Z"/><path class="cls-9" d="M468.51,721.47a8.4,8.4,0,0,1,5.75,0A28.75,28.75,0,0,1,468.51,721.47Z"/></g></g></g></svg>