<svg xmlns="http://www.w3.org/2000/svg" viewBox="0 0 1000 1000"><defs><style>.cls-1{fill:none;}.cls-2,.cls-5,.cls-8{fill:#f5fefd;}.cls-3,.cls-8{opacity:0.2;}.cls-4{fill:#fcd459;}.cls-5{opacity:0.4;}.cls-6{fill:#e93138;}.cls-7{fill:#fdd458;}</style></defs><g id="Layer_2" data-name="Layer 2"><g id="OutPut"><rect id="BG" class="cls-1" width="1000" height="1000"/></g><g id="Cloth"><g id="_8" data-name="8"><path class="cls-2" d="M576.45,606c-.14,10.55-6.66,29.9-10.11,43.1h0a65.1,65.1,0,0,0-2,10l-.09,1.1v0a52.58,52.58,0,0,0,.12,9q.18,1.86.39,3.6s0,.05,0,.07c.06.44.11.87.16,1.29l.15,1.23h0a31.53,31.53,0,0,1,.15,9.61v0c-3.62,18.69-8.65,24.08-12.87,25.75h0c-2.55,1-4.81.66-6.28,1.07l-.23.07-.29.12a3.52,3.52,0,0,0-.26.53c-.17.39-.35.84-.35.84l-.69.1L500,719.78l-43.76-6.26s-.54-1.33-.61-1.37c-4-2,15-2.7-11.82-43.38-2.4-3.63-5.14-7.45-8.26-11.46-2.7-3.48-5-9-6.83-15.31a143.68,143.68,0,0,1-5.17-36c0-.93,10.54-3.77,10.54-4.71,0-94.43,60.08-2.17,65.91,5.86,5.83-8,65.91-88.56,65.91,5.87C565.91,616.44,576.49,602.8,576.45,606Z"/><path class="cls-2" d="M530.25,732.4a28.18,28.18,0,0,1-3.44.05c-8.52-.34-4.14-12.67-15.82-13.1-5.9-.22-6.34,4.23-7.28,8.82s-2.28,9.11-9.69,9.61l-.59,0c-14.29.6-10.85-13-17.22-13s-3.88,10-16.37,10c-6.16,0-5.42-8.23-3.09-16.58.63-2.26,1.38-4.52,2.14-6.64.16-.46.33-.91.49-1.35a.07.07,0,0,1,0-.05c2-5.28.83,9.62.83,9.62s62.56-30.07,73.66,0c.73,2,5.55-15.06,6.1-13.31,0,0,0,.08.07.22a2.76,2.76,0,0,1,.08.27,1.09,1.09,0,0,0,0,.17C546.62,727.7,536.91,731.82,530.25,732.4Z"/><path class="cls-3" d="M558.44,621.88s-24.06,21.79-83.58,10.62,15.23-23.08,15.23-23.08l37.43-.64Z"/><path class="cls-4" d="M576.45,606S561.82,634.28,500,634.28c-17.55,0-31.3-2.28-42-5.55h0C431.05,620.49,423.55,606,423.55,606L500,588.67l68.92,15.63Z"/><path class="cls-5" d="M576.45,606S561.82,634.28,500,634.28c-17.55,0-31.3-2.28-42-5.55,96,16.55,110.91-24.43,110.91-24.43Z"/><path class="cls-3" d="M443.81,668.77c-2.4-3.63-5.14-7.45-8.26-11.46-2.7-3.48-5-9-6.83-15.31l.2-.19s13.68,26.41,14.75-1.89C444.49,618.39,444.06,651.63,443.81,668.77Z"/><path class="cls-3" d="M494.87,658.71s35.58,3.58,53.52-4.57C521.32,668,494.87,658.71,494.87,658.71Z"/><path class="cls-3" d="M469.86,684.74c9.42,1.89,59.9,9.81,73.67-5.54-12.71,19.8-60.74,15.08-71,13.77Z"/><path class="cls-3" d="M481,676.58s12.35,8.18,38.86,3.93C485.1,688.52,481,676.58,481,676.58Z"/><path class="cls-3" d="M560.35,668.09s-4.11,11.46-14,18.43C553.23,682.22,557.85,678.53,560.35,668.09Z"/><path class="cls-3" d="M503.71,728.17c-.9,4.49-2.28,9.11-9.69,9.61l-.59,0-.22-.2s9.25-2.24,9.21-7.81C502.41,728.47,502.92,728.05,503.71,728.17Z"/><path class="cls-6" d="M518.59,738.78c-1.8.08-4.4-1.74-7.11-3.56l0,0-.53-.35-.09-.06c-2.71-1.8-5.49-3.44-7.66-3.08a17.42,17.42,0,0,0-5,2.15l-.05,0c-1.58.9-3.27,2-4.91,3-3.09,1.86-6,3.48-7.77,3.37-2.21-.14-3.69-2.72-5.51-4.88l0,0c-1.33-1.58-2.85-2.93-5-2.93-2.36,0-5.2,2-7.85,3.57l-.06,0c-3,1.73-5.69,2.82-7.17-.35.42-2.38.84-4.64,1.24-6.8,0-.24.07-.38.07-.38,2.87-15.61,1.55-7-5.52-16.28-2.43,2-4.6,3-6.57,3.15-11,.81-15.2-25.49-16.56-52.73a1.23,1.23,0,0,0,0-.18c-1.42-28.74.26-58.47.26-58.47s7.77,0,13.11-2.92c49.25,29.28,70.34,103.8,71.7,113.21.19,1.28.37,2.58.54,3.87,0,0,0,.08,0,.12.3,2.21.57,4.41.8,6.51a.28.28,0,0,1,0,.09C519.77,732.48,520,738.71,518.59,738.78Z"/><path class="cls-3" d="M530.25,732.4c10.36-6.33,10.87-21.87,9.93-25.27C546.62,727.7,536.91,731.82,530.25,732.4Z"/><path class="cls-3" d="M519.89,718.2s5.1,1.61,4.27,5.61c2.41-6.16-3.08-6.69-3.08-6.69Z"/><polygon class="cls-3" points="477.15 708.65 475.76 715.43 477.38 715.32 477.15 708.65"/><path class="cls-3" d="M441.29,609.42s4.92,79.56,14.08,92.64C449.2,671.46,441.29,609.42,441.29,609.42Z"/><path class="cls-3" d="M498.65,725.33c.15-2.31.32-5.66.49-10.46-5.75-1.46-13.37-30.83-13.67-32,10.65,32,15.82,30.8,15.82,30.8Z"/><path class="cls-3" d="M476.22,717.61c-.22,2.17,3.5,8.88,4.81,12.19-1.49-13.13-3.22-11.37-3.22-11.37Z"/><path class="cls-7" d="M545.51,712.15c0,7-4.59,7.63-4.59,7.63h-80.7s-4.59-.59-4.59-7.63c0,0,4.07,1,29.47,1.3,4.25,0,9.18.08,14.9.08C539.92,713.53,545.51,712.15,545.51,712.15Z"/><path class="cls-8" d="M458,621.88s7,54.22,15.18,61.52C465.9,637.61,458,621.88,458,621.88Z"/><path class="cls-8" d="M486.9,666.93s7,28.68,15.93,32.7C495.11,662.7,486.9,666.93,486.9,666.93Z"/><path class="cls-3" d="M566.33,649.12a65.1,65.1,0,0,0-2,10l-.09,1.1-1.43-25.18C563,637.3,564.43,652.87,566.33,649.12Z"/><path class="cls-5" d="M507.66,719.78H460.22s-4.59-.59-4.59-7.63c0,0,4.07,1,29.47,1.3C485.1,713.45,456.61,717.73,507.66,719.78Z"/><path class="cls-3" d="M459.84,734.78c-6.16,0-5.42-8.23-3.09-16.58A24.62,24.62,0,0,0,459.84,734.78Z"/><path class="cls-3" d="M459.38,710.21a5.8,5.8,0,0,1-.49,1.35C459.05,711.1,459.22,710.65,459.38,710.21Z"/><path class="cls-3" d="M467,736c-3,1.73-5.69,2.82-7.17-.35.42-2.38.84-4.64,1.24-6.8C460.76,730.73,459.76,739,467,736Z"/><path class="cls-3" d="M493.21,736.83c-3.09,1.86-6,3.48-7.77,3.37-2.21-.14-3.69-2.72-5.51-4.88A13,13,0,0,0,493.21,736.83Z"/><path class="cls-3" d="M498.16,733.85h0l-.05,0Z"/><path class="cls-3" d="M518.59,738.78c-1.8.08-4.4-1.74-7.11-3.56,2.1,1.26,8.47,3.95,7.45-10.42C519.77,732.48,520,738.71,518.59,738.78Z"/><path class="cls-3" d="M449.06,715.3c-11,.81-15.2-25.49-16.56-52.73C432.81,665.87,437.41,713.3,449.06,715.3Z"/><path class="cls-3" d="M451.61,713.05s4.13-6,6.44-2.24C458.05,710.81,455.18,709.39,451.61,713.05Z"/><path class="cls-3" d="M564.72,672.9a25.16,25.16,0,0,1-.39-3.6Q564.51,671.16,564.72,672.9Z"/><path class="cls-3" d="M565.19,685.11v0c-3.62,18.69-8.65,24.08-12.87,25.75A57.28,57.28,0,0,0,565,675.5,31.53,31.53,0,0,1,565.19,685.11Z"/></g></g></g></svg>