<svg xmlns="http://www.w3.org/2000/svg" viewBox="0 0 1000 1000"><defs><style>.cls-1{fill:none;}.cls-2{fill:#e57d00;}.cls-3{fill:#7f4800;}.cls-4{fill:#4c2d00;}</style></defs><g id="Layer_2" data-name="Layer 2"><g id="OutPut"><rect id="BG" class="cls-1" width="1000" height="1000"/></g><g id="Orenge_Hair" data-name="Orenge Hair"><g id="_1" data-name="1"><path class="cls-2" d="M412.6,354.47C402.76,358.26,388,356.72,373,353c-24.39-6.08-49.5-17.94-55.48-22q6.24-3.46,12.14-6.08c21.35-9.53,39.29-11.14,53.63-9.17a74.26,74.26,0,0,1,30.93,11.53,15.26,15.26,0,0,1,6.42,10.16v0C421.92,344.36,419.13,351.94,412.6,354.47Z"/><path class="cls-2" d="M673,331c-6,4-31.09,15.87-55.48,22-15,3.74-29.72,5.28-39.57,1.49-7.93-3.07-10.35-13.59-6.71-21.24a14.39,14.39,0,0,1,5.07-5.92,74.39,74.39,0,0,1,35.54-12c13.51-1.05,29.9,1.13,49,9.66Q666.72,327.56,673,331Z"/><path class="cls-2" d="M581.63,241.15c-1.74,1.42-3.57,2.8-5.51,4.12l-11.52,7.86-45.89,31.34-20.48,14-.22.15-.23-.15-13.23-9-39.34-26.85-25.33-17.29c-1.07-.74-2.13-1.49-3.14-2.26-28.11-21.21-33.19-54.18-11.71-79.66l62-56.16h62l62,56.16C611.82,188.09,607.65,219.91,581.63,241.15Z"/><path class="cls-2" d="M533.93,79.84a.06.06,0,0,1,0,.06c-1,6.28-3,12.53-5.64,15.62a.73.73,0,0,0,.51,1.21,3.42,3.42,0,0,0,2-1.07,8,8,0,0,0,1.53-2.1,21.33,21.33,0,0,1-.67,8,23.29,23.29,0,0,1-2.67,6.18L467,108.87c.19,0,1.42-.15,2-4.16.51-3.32-9.45-3.26-10.5-10.45-.34-2.23.19-5.17,2.17-9.13.11.36.21.67.31.94,1.41,3.83,1.82-.94,3.21-6.22h0c.89-3.41,2.18-7,4.4-8.67a13,13,0,0,0-.21,2.66h0c.14,5.42,4,7.58,8-12.27,0-.25.1-.49.16-.73a0,0,0,0,0,0,0C481.67,38.69,512,41.17,512,41.17s-.19,1-.41,2.47c-.75,5.47-1.69,17.9,6,15.23a12.83,12.83,0,0,0,2.3-1.11c-1.92,2.43-2.28,4.69-1.69,6.58,1.59,5.06,10,7.55,13.68,4.26A5.28,5.28,0,0,0,533.57,65C534.81,68.25,534.82,74,533.93,79.84Z"/><path class="cls-3" d="M373,353c-24.39-6.08-49.5-17.94-55.48-22q6.24-3.46,12.14-6.08C344.27,334,360.19,344.4,373,353Z"/><path class="cls-3" d="M617.49,353C641.88,346.9,667,335,673,331q-6.24-3.46-12.14-6.08C646.25,334,630.34,344.4,617.49,353Z"/><path class="cls-3" d="M479.24,107.19a305.51,305.51,0,0,0-18.09,42.41.08.08,0,0,1,0,0c-11.91,34.9-17,69.49-17.18,97.31h0a191.39,191.39,0,0,0,1.25,23.92l-25.33-19.36c-.67-.52-1.34-1-2-1.59-.39-.3-.77-.62-1.14-.94-6.08-17.83-6.07-38.15,3-61.35v0a.16.16,0,0,0,0,0C429.09,163.9,447.85,137.24,479.24,107.19Z"/><path class="cls-3" d="M584,226h0a127.48,127.48,0,0,1-2.37,21.32c-1.74,1.61-3.57,3.16-5.51,4.65l-15.68,12.54h0L556.07,268c.83-24.78,3.24-59.66-5.05-93.08-4.94-19.91-13.66-39.3-28.78-55.74,28.2,15.84,44.54,36.76,53.26,58.23h0A120.34,120.34,0,0,1,584,226Z"/><path class="cls-3" d="M525.67,276.53a.5.5,0,0,1,0,.12c-.59,4.08-1.29,7.9-2,11.46l-23.42,15.06-.25.16-.26-.16-12.13-8.29-7.3-5c11.11-26.13,25.8-70,27.65-107.58a1.85,1.85,0,0,0,0-.23c0-.22,0-.39,0-.52s0-.31,0-.31c.55-12.75-.41-24.77-3.52-35.1a224.43,224.43,0,0,1,19.93,60.52.22.22,0,0,1,0,.09A219.94,219.94,0,0,1,525.67,276.53Z"/><path class="cls-3" d="M458.57,94.26c-.34-2.23.19-5.17,2.17-9.13.11.36.21.67.31.94A83.45,83.45,0,0,0,458.57,94.26Z"/><path class="cls-3" d="M468.66,71.17a13,13,0,0,0-.21,2.66h0a52,52,0,0,0-4.19,6C465.15,76.43,466.44,72.84,468.66,71.17Z"/><path class="cls-3" d="M512,41.17s-.19,1-.41,2.47c-5.33.18-25.37,1.87-35,17.17C481.67,38.69,512,41.17,512,41.17Z"/><path class="cls-3" d="M518.22,64.34c-1.24-.69-2.66-2.23-.61-5.47a12.83,12.83,0,0,0,2.3-1.11C518,60.19,517.63,62.45,518.22,64.34Z"/><path class="cls-3" d="M533.93,79.84c-.17-4.16-.69-8.77-2-11.24A5.28,5.28,0,0,0,533.57,65C534.81,68.25,534.82,74,533.93,79.84Z"/><path class="cls-3" d="M531.65,101.61a18.25,18.25,0,0,0-.86-6,8,8,0,0,0,1.53-2.1A21.33,21.33,0,0,1,531.65,101.61Z"/><path class="cls-3" d="M506.78,130.21h0a26.61,26.61,0,0,1-2.67,4.39c1.56-11.63-24-32.94-18.55-40.91,5.32-7.71,15.07-17.77,15.67-18.39-.62.79-12.49,16.14-7.48,26.35,2.36,4.82,7.28,8.75,10.73,13.16S509.79,123.79,506.78,130.21Z"/><path class="cls-3" d="M431.87,139a204.25,204.25,0,0,0-13.2,17.45,0,0,0,0,1,0,0l0,0c-7.24,10.66-15.51,24.9-19.42,38.94v0c-3,10.86-4.11,23.33.61,32.22C382.14,204.08,383.4,165.55,431.87,139Z"/><path class="cls-3" d="M598.88,221.75a50.21,50.21,0,0,0,0-21.67c-2.75-11.52-8.88-23.74-14.82-33.73v0c-7.39-12.42-14.32-22.23-14.32-22.23C616.83,180.92,612.73,202.9,598.88,221.75Z"/><path class="cls-3" d="M420.67,337.47c-3.56-9.88-37.84-21.38-37.84-21.38l.49-.31a74.26,74.26,0,0,1,30.93,11.53A15.26,15.26,0,0,1,420.67,337.47Z"/><path class="cls-3" d="M611.82,315.29c-13,2.19-40.61,17.94-40.61,17.94a14.39,14.39,0,0,1,5.07-5.92A74.39,74.39,0,0,1,611.82,315.29Z"/><path class="cls-4" d="M417.88,249.92c-.39-.3-.77-.62-1.14-.94-6.08-17.83-6.07-38.15,3-61.35C419.56,189.28,415,224.12,417.88,249.92Z"/><path class="cls-4" d="M461.14,149.63c-11.91,34.9-17,69.49-17.18,97.31C433.07,214.57,460.42,151.28,461.14,149.63Z"/><path class="cls-4" d="M507.9,182.09c-.28,9.18-3.28,92.33-20.36,112.79l-7.3-5C491.37,263.72,506.1,219.76,507.9,182.09Z"/><path class="cls-4" d="M525.67,276.53c2.15-23.65-1.08-66.72-1.32-69.76A219.94,219.94,0,0,1,525.67,276.53Z"/><path class="cls-4" d="M560.44,264.47h0L556.07,268c.83-24.78,3.24-59.66-5.05-93.08.07-.25.1-.39.1-.39S564.12,233.44,560.44,264.47Z"/><path class="cls-4" d="M584,226c-3.36-9.86-8.39-47.73-8.5-48.56A120.34,120.34,0,0,1,584,226Z"/><path class="cls-4" d="M418.64,156.49c-7.24,10.66-15.51,24.9-19.42,38.94C397.72,181.85,417.79,157.51,418.64,156.49Z"/><path class="cls-4" d="M598.88,200v0c-2.75-11.52-8.88-23.74-14.82-33.73C584.51,167,598.88,186.88,598.88,200Z"/><path class="cls-4" d="M506.78,130.21c.66-4.42-2.74-15.33-2.74-15.33l.44-.06C507.82,119.08,509.79,123.79,506.78,130.21Z"/><path d="M529,108.88H467s-4.07-2.54-.67-6.17c2.67-2.86,18.53-2.95,26.92-1.39a25.88,25.88,0,0,0,9.45,0c8.39-1.56,24.26-1.47,26.94,1.39C533.05,106.34,529,108.88,529,108.88Z"/></g></g></g></svg>