<svg xmlns="http://www.w3.org/2000/svg" viewBox="0 0 1000 1000"><defs><style>.cls-1{fill:none;}.cls-2{fill:#bd1f2b;}.cls-3{fill:#e93138;}.cls-4{opacity:0.2;}</style></defs><g id="Layer_2" data-name="Layer 2"><g id="OutPut"><rect id="BG" class="cls-1" width="1000" height="1000"/></g><g id="BackCloth"><path class="cls-2" d="M481,798.5c-13,.13-13.08-4.63-21-7h0a.2.2,0,0,0-.11,0,34.54,34.54,0,0,0-8.23-1.25c-9.83-.48-11.51,5.13-13.32,10-1.36,3.69-2.78,7-7.79,7-8.21,0-8.09-4-12-6.82l-.2-.14-.06-.05h0a16.13,16.13,0,0,0-7.72-2.49c-4.62-.52-6.43-.46-7.68-.16-1.83.42-2.5,1.36-9,1.78-2,.13-4.62.21-8,.21q-1.35-8.47-2.5-16.49h0c-.15-1-.29-2.1-.44-3.14-19.25-138.08,6.93-173.75,16.76-182a13.71,13.71,0,0,1,3.46-2.3l52.26.15S493.83,743.33,498.46,772c.31,1.89.57,3.64.78,5.27C502.3,800.28,496.41,798.34,481,798.5Z"/><path class="cls-3" d="M393.82,799.29c-2,.13-4.62.21-8,.21-24.62-154.39,3.54-193,13.82-201.67C398.72,599.55,356.06,679.23,393.82,799.29Z"/><path class="cls-4" d="M402.85,797.5h0c-1.83.42-2.5,1.36-9,1.78-2,.13-4.62.21-8,.21q-1.35-8.47-2.5-16.49C384.49,788.76,388.6,800.15,402.85,797.5Z"/><path class="cls-4" d="M438.28,800.22v0c-1.36,3.69-2.78,7-7.79,7-8.21,0-8.09-4-12-6.82C420.38,801.63,431.55,808.79,438.28,800.22Z"/><path class="cls-4" d="M481,798.5c-13,.13-13.08-4.63-21-7,2.71.72,41.14,10.54,39.25-14.24C502.3,800.28,496.41,798.34,481,798.5Z"/><path class="cls-4" d="M398.11,719.93s-4.18,55.69,3.1,70.32C396.94,756.33,398.11,719.93,398.11,719.93Z"/><path class="cls-4" d="M439.19,785.12S441.11,694,428.72,642C446.36,705.55,439.19,785.12,439.19,785.12Z"/><path class="cls-4" d="M411.89,711.76s.72,49.86,3.16,54.24C413.92,740.34,411.89,711.76,411.89,711.76Z"/><path class="cls-4" d="M467.67,785.12s9.87-53.15,4.85-68.82C477.23,743.36,467.67,785.12,467.67,785.12Z"/><rect id="BG-2" data-name="BG" class="cls-1" width="1000" height="1000"/></g></g></svg>