<svg xmlns="http://www.w3.org/2000/svg" viewBox="0 0 1000 1000"><defs><style>.cls-1{fill:none;}.cls-2{fill:#00454c;}.cls-3{fill:#00677f;}.cls-4{fill:#005866;}.cls-5{fill:#0088b2;}.cls-6{fill:#00c5e5;}</style></defs><g id="Layer_2" data-name="Layer 2"><g id="OutPut"><rect id="BG" class="cls-1" width="1000" height="1000"/></g><g id="Blue_Hair" data-name="Blue Hair"><g id="eyes"><path class="cls-2" d="M460.81,470.72l-1.18.29a51,51,0,0,1-7.17,51q-1.29,1.63-2.7,3.15A50.92,50.92,0,0,1,428.07,539c-.2.06-.4.13-.61.18a49.76,49.76,0,0,1-14.68,2.18c-1.13,0-2.25,0-3.36-.11a50.09,50.09,0,0,1-26.76-9.88L379,536.8a58.27,58.27,0,0,0,18.54,6.52,61.37,61.37,0,0,0,6.43.75c1.24.08,2.5.12,3.77.12a59.58,59.58,0,0,0,17.18-2.5,58.07,58.07,0,0,0,12.64-5.5,56.53,56.53,0,0,0,11.56-8.93,52.44,52.44,0,0,0,15.53-37.1A51.33,51.33,0,0,0,460.81,470.72Z"/><path class="cls-2" d="M535.39,490.16a52.44,52.44,0,0,0,15.53,37.1,56.53,56.53,0,0,0,11.56,8.93,58.07,58.07,0,0,0,12.64,5.5,59.58,59.58,0,0,0,17.18,2.5c1.27,0,2.53,0,3.77-.12a61.37,61.37,0,0,0,6.43-.75A58.27,58.27,0,0,0,621,536.8l-3.7-5.48a50.09,50.09,0,0,1-26.76,9.88c-1.11.07-2.23.11-3.36.11a49.76,49.76,0,0,1-14.68-2.18c-.21,0-.41-.12-.61-.18a50.92,50.92,0,0,1-21.69-13.78q-1.41-1.51-2.7-3.15a51.24,51.24,0,0,1-7.17-51l-1.18-.29A51.33,51.33,0,0,0,535.39,490.16Z"/><path class="cls-3" d="M460.81,470.72l-1.18.29a50.64,50.64,0,0,0-46.85-31.59,50.26,50.26,0,0,0-33.4,12.67,12,12,0,0,0-1.48-.09,12.46,12.46,0,0,0-11.36,17.56,51.47,51.47,0,0,0-2.44,6.74l-10.44-3.09a54.76,54.76,0,0,1,24.67-29.32A58.24,58.24,0,0,1,394,437.73a59,59,0,0,1,13.66-1.58C431.91,436.15,452.59,450.5,460.81,470.72Z"/><path class="cls-3" d="M539.19,470.72l1.18.29a50.64,50.64,0,0,1,46.85-31.59,50.26,50.26,0,0,1,33.4,12.67,12,12,0,0,1,1.48-.09,12.46,12.46,0,0,1,11.36,17.56,51.47,51.47,0,0,1,2.44,6.74l10.44-3.09a54.76,54.76,0,0,0-24.67-29.32A58.24,58.24,0,0,0,606,437.73a59,59,0,0,0-13.66-1.58C568.09,436.15,547.41,450.5,539.19,470.72Z"/><path class="cls-4" d="M382.66,531.32,379,536.8c-16.86-9.37-28.17-26.75-28.17-46.64a51.34,51.34,0,0,1,2.87-17l10.44,3.09a51.27,51.27,0,0,0,7.39,43.56,2.16,2.16,0,0,0,1.79,3.39,2,2,0,0,0,.72-.13A50.58,50.58,0,0,0,382.66,531.32Z"/><path class="cls-4" d="M617.34,531.32l3.7,5.48c16.86-9.37,28.17-26.75,28.17-46.64a51.34,51.34,0,0,0-2.87-17L635.9,476.3a51.27,51.27,0,0,1-7.39,43.56,2.16,2.16,0,0,1-1.79,3.39,2,2,0,0,1-.72-.13A50.58,50.58,0,0,1,617.34,531.32Z"/><path class="cls-5" d="M398,548.15c-.57,0-1.13-.11-1.67-.17-1.27-.14-2.45-.31-3.58-.48A42.43,42.43,0,0,1,398,548.15Z"/><path class="cls-5" d="M441.09,537.46l-.27.48c-6.35,10.29-32,10.78-33,10.75l-2.49-.08-1.4-.06-1.26-.08-2-.12-2.53-.18-.16,0a42.43,42.43,0,0,0-5.25-.65h-.16a16.37,16.37,0,0,0-5.64.51h0c-8.45,2.65-1.16,13.88-8.51,13.88h-.24c-7-.12-6.9-5.48-6.59-10.8.08-1.62.2-3.24.14-4.7-.15-3.74-7-10.15-12.08-15.23-2.41-2.43-4.4-4.55-5-5.94a2.87,2.87,0,0,1,.88-3.56,2.87,2.87,0,0,1,3.55,0c11.08,8.49,35.39,20.4,78.88,11.59a2.94,2.94,0,0,1,2.5.64,3,3,0,0,1,.91,1.32A2.79,2.79,0,0,1,441.09,537.46Z"/><path class="cls-5" d="M403.93,548.55c-1.89-.09-3.83-.21-5.84-.37l-.14,0,.16,0,2.53.18,2,.12Z"/><path class="cls-6" d="M396,539.8a1,1,0,0,0-.28-1.82c-3.82-.81-13.43-2.63-13.29-.26S392.46,541.65,396,539.8Z"/><path class="cls-3" d="M378.14,561.88c-7-.12-6.9-5.48-6.59-10.8C372.92,554.17,375.47,559.35,378.14,561.88Z"/><path class="cls-5" d="M608.64,547.49c-1.17.18-2.4.35-3.72.5-.59.07-1.2.14-1.83.19A42.84,42.84,0,0,1,608.64,547.49Z"/><path class="cls-5" d="M646.63,525.22c-1.72,3.76-13.4,12.92-16.43,18.85h0a5.74,5.74,0,0,0-.71,2.3c-.06,1.46.06,3.08.14,4.7.14,2.35.23,11.62-.32,21.24-.69,12.12-2.39,24.78-6.27,24.85h-.24c-1.73,0-2.65-2-3.15-5.32-2-13,2.51-45.06-11-44.36a42.84,42.84,0,0,0-5.55.69l-2.53.18a130.32,130.32,0,0,1-13.46-.78c-10.39-1.11-23.56-3.78-27-10.11a2.76,2.76,0,0,1-.14-2.4,2.91,2.91,0,0,1,.85-1.18,2.94,2.94,0,0,1,2.5-.64c43.49,8.81,67.8-3.1,78.88-11.59a2.88,2.88,0,0,1,3.55,0A2.87,2.87,0,0,1,646.63,525.22Z"/><path class="cls-6" d="M605.15,539.8a1,1,0,0,1,.29-1.82c3.81-.81,13.42-2.63,13.29-.26S608.72,541.65,605.15,539.8Z"/><path class="cls-3" d="M629.31,572.32c-.69,12.12-2.39,24.78-6.27,24.85h-.24c-1.73,0-2.65-2-3.15-5.32C625.34,594.44,628.06,581.94,629.31,572.32Z"/><path class="cls-3" d="M587.1,547.58c-10.39-1.11-23.56-3.78-27-10.11a2.76,2.76,0,0,1-.14-2.4C562.5,537.38,570.88,544,587.1,547.58Z"/><path class="cls-3" d="M646.63,525.22c-1.72,3.76-13.4,12.92-16.43,18.85h0c-2.74.69-4.6,1.12-4.8,1.16,7.4-3.12,16.32-18.15,19.58-24a2.77,2.77,0,0,1,.77.43A2.87,2.87,0,0,1,646.63,525.22Z"/><path class="cls-3" d="M359.61,531.15c-2.41-2.43-4.4-4.55-5-5.94a2.87,2.87,0,0,1,.88-3.56,2.82,2.82,0,0,1,2.91-.38C357.63,523.06,357,526.5,359.61,531.15Z"/><path class="cls-3" d="M440.82,537.94c-6.35,10.29-32,10.78-33,10.75l-2.49-.08-1.4-.06-1.26-.08-2-.12-2.53-.18-.16,0a42.43,42.43,0,0,0-5.25-.65h-.16a16.37,16.37,0,0,0-5.64.51h0a14.63,14.63,0,0,1-3.9-2.25C401.51,550.15,426,543.25,440.82,537.94Z"/></g></g></g></svg>