<svg xmlns="http://www.w3.org/2000/svg" viewBox="0 0 1000 1000"><defs><style>.cls-1{fill:none;}.cls-2{fill:#ff9f9f;}.cls-3{fill:#004c00;}.cls-4{fill:#007f00;}.cls-5{fill:#060;}</style></defs><g id="Layer_2" data-name="Layer 2"><g id="OutPut"><rect id="BG" class="cls-1" width="1000" height="1000"/></g><g id="Green_Hair" data-name="Green Hair"><path class="cls-2" d="M659.23,488.78c0,28.61-24.89,52.1-56.64,54.57,26.54-4.57,46.66-26.63,46.66-53.14,0-19.63-11-36.82-27.54-46.27A57.93,57.93,0,0,0,606,437.77a59,59,0,0,0-13.66-1.58c-31.43,0-56.9,24.18-56.9,54a51.61,51.61,0,0,0,2,14.18,48.39,48.39,0,0,1-2.57-15.61c0-30.27,27.85-54.8,62.19-54.8S659.23,458.51,659.23,488.78Z"/><path class="cls-2" d="M462.7,504.27a51.56,51.56,0,0,0,1.95-14.06c0-29.84-25.48-54-56.91-54a59,59,0,0,0-13.66,1.58,57.93,57.93,0,0,0-15.71,6.17c-16.5,9.45-27.54,26.64-27.54,46.27,0,26.52,20.13,48.57,46.68,53.14-31.75-2.46-56.66-26-56.66-54.57,0-30.27,27.85-54.8,62.19-54.8s62.19,24.53,62.19,54.8A48.5,48.5,0,0,1,462.7,504.27Z"/><path class="cls-3" d="M460.81,470.72l-1.18.29a51,51,0,0,1-7.17,51q-1.29,1.63-2.7,3.15A50.92,50.92,0,0,1,428.07,539c-.2.06-.4.13-.61.18a49.76,49.76,0,0,1-14.68,2.18c-1.13,0-2.25,0-3.36-.11a50.09,50.09,0,0,1-26.76-9.88L379,536.8a58.27,58.27,0,0,0,18.54,6.52,61.37,61.37,0,0,0,6.43.75c1.24.08,2.5.12,3.77.12a59.58,59.58,0,0,0,17.18-2.5,58.07,58.07,0,0,0,12.64-5.5,56.53,56.53,0,0,0,11.56-8.93,52.44,52.44,0,0,0,15.53-37.1A51.33,51.33,0,0,0,460.81,470.72Z"/><path class="cls-4" d="M460.81,470.72l-1.18.29a50.64,50.64,0,0,0-46.85-31.59,50.26,50.26,0,0,0-33.4,12.67,12,12,0,0,0-1.48-.09,12.46,12.46,0,0,0-11.36,17.56,51.47,51.47,0,0,0-2.44,6.74l-10.44-3.09a54.76,54.76,0,0,1,24.67-29.32A58.24,58.24,0,0,1,394,437.73a59,59,0,0,1,13.66-1.58C431.91,436.15,452.59,450.5,460.81,470.72Z"/><path class="cls-5" d="M382.66,531.32,379,536.8c-16.86-9.37-28.17-26.75-28.17-46.64a51.34,51.34,0,0,1,2.87-17l10.44,3.09a51.27,51.27,0,0,0,7.39,43.56,2.16,2.16,0,0,0,1.79,3.39,2,2,0,0,0,.72-.13A50.58,50.58,0,0,0,382.66,531.32Z"/><path class="cls-3" d="M535.39,490.16a52.44,52.44,0,0,0,15.53,37.1,56.53,56.53,0,0,0,11.56,8.93,58.07,58.07,0,0,0,12.64,5.5,59.58,59.58,0,0,0,17.18,2.5c1.27,0,2.53,0,3.77-.12a61.37,61.37,0,0,0,6.43-.75A58.27,58.27,0,0,0,621,536.8l-3.7-5.48a50.09,50.09,0,0,1-26.76,9.88c-1.11.07-2.23.11-3.36.11a49.76,49.76,0,0,1-14.68-2.18c-.21,0-.41-.12-.61-.18a50.92,50.92,0,0,1-21.69-13.78q-1.41-1.51-2.7-3.15a51.24,51.24,0,0,1-7.17-51l-1.18-.29A51.33,51.33,0,0,0,535.39,490.16Z"/><path class="cls-4" d="M539.19,470.72l1.18.29a50.64,50.64,0,0,1,46.85-31.59,50.26,50.26,0,0,1,33.4,12.67,12,12,0,0,1,1.48-.09,12.46,12.46,0,0,1,11.36,17.56,51.47,51.47,0,0,1,2.44,6.74l10.44-3.09a54.76,54.76,0,0,0-24.67-29.32A58.24,58.24,0,0,0,606,437.73a59,59,0,0,0-13.66-1.58C568.09,436.15,547.41,450.5,539.19,470.72Z"/><path class="cls-5" d="M617.34,531.32l3.7,5.48c16.86-9.37,28.17-26.75,28.17-46.64a51.34,51.34,0,0,0-2.87-17L635.9,476.3a51.27,51.27,0,0,1-7.39,43.56,2.16,2.16,0,0,1-1.79,3.39,2,2,0,0,1-.72-.13A50.58,50.58,0,0,1,617.34,531.32Z"/></g></g></svg>