<svg xmlns="http://www.w3.org/2000/svg" viewBox="0 0 1000 1000"><defs><style>.cls-1{fill:none;}.cls-2{fill:#4c1f4a;}.cls-3{fill:#7f3378;}.cls-4{fill:#662a63;}.cls-5{fill:#4c1e45;}.cls-6{fill:#993d8c;}.cls-7{fill:#ff66e2;}</style></defs><g id="Layer_2" data-name="Layer 2"><g id="OutPut"><rect id="BG" class="cls-1" width="1000" height="1000"/></g><g id="Pink_Hair" data-name="Pink Hair"><g id="eyes"><g id="eyes-2" data-name="eyes"><path class="cls-2" d="M460.81,470.72l-1.18.29a51,51,0,0,1-7.17,51q-1.29,1.63-2.7,3.15A50.92,50.92,0,0,1,428.07,539c-.2.06-.4.13-.61.18a49.76,49.76,0,0,1-14.68,2.18c-1.13,0-2.25,0-3.36-.11a50.09,50.09,0,0,1-26.76-9.88L379,536.8a58.27,58.27,0,0,0,18.54,6.52,61.37,61.37,0,0,0,6.43.75c1.24.08,2.5.12,3.77.12a59.58,59.58,0,0,0,17.18-2.5,58.07,58.07,0,0,0,12.64-5.5,56.53,56.53,0,0,0,11.56-8.93,52.44,52.44,0,0,0,15.53-37.1A51.33,51.33,0,0,0,460.81,470.72Z"/><path class="cls-2" d="M535.39,490.16a52.44,52.44,0,0,0,15.53,37.1,56.53,56.53,0,0,0,11.56,8.93,58.07,58.07,0,0,0,12.64,5.5,59.58,59.58,0,0,0,17.18,2.5c1.27,0,2.53,0,3.77-.12a61.37,61.37,0,0,0,6.43-.75A58.27,58.27,0,0,0,621,536.8l-3.7-5.48a50.09,50.09,0,0,1-26.76,9.88c-1.11.07-2.23.11-3.36.11a49.76,49.76,0,0,1-14.68-2.18c-.21,0-.41-.12-.61-.18a50.92,50.92,0,0,1-21.69-13.78q-1.41-1.51-2.7-3.15a51.24,51.24,0,0,1-7.17-51l-1.18-.29A51.33,51.33,0,0,0,535.39,490.16Z"/><path class="cls-3" d="M460.81,470.72l-1.18.29a50.64,50.64,0,0,0-46.85-31.59,50.26,50.26,0,0,0-33.4,12.67,12,12,0,0,0-1.48-.09,12.46,12.46,0,0,0-11.36,17.56,51.47,51.47,0,0,0-2.44,6.74l-10.44-3.09a54.76,54.76,0,0,1,24.67-29.32A58.24,58.24,0,0,1,394,437.73a59,59,0,0,1,13.66-1.58C431.91,436.15,452.59,450.5,460.81,470.72Z"/><path class="cls-3" d="M539.19,470.72l1.18.29a50.64,50.64,0,0,1,46.85-31.59,50.26,50.26,0,0,1,33.4,12.67,12,12,0,0,1,1.48-.09,12.46,12.46,0,0,1,11.36,17.56,51.47,51.47,0,0,1,2.44,6.74l10.44-3.09a54.76,54.76,0,0,0-24.67-29.32A58.24,58.24,0,0,0,606,437.73a59,59,0,0,0-13.66-1.58C568.09,436.15,547.41,450.5,539.19,470.72Z"/><path class="cls-4" d="M382.66,531.32,379,536.8c-16.86-9.37-28.17-26.75-28.17-46.64a51.34,51.34,0,0,1,2.87-17l10.44,3.09a51.27,51.27,0,0,0,7.39,43.56,2.16,2.16,0,0,0,1.79,3.39,2,2,0,0,0,.72-.13A50.58,50.58,0,0,0,382.66,531.32Z"/><path class="cls-4" d="M617.34,531.32l3.7,5.48c16.86-9.37,28.17-26.75,28.17-46.64a51.34,51.34,0,0,0-2.87-17L635.9,476.3a51.27,51.27,0,0,1-7.39,43.56,2.16,2.16,0,0,1-1.79,3.39,2,2,0,0,1-.72-.13A50.58,50.58,0,0,1,617.34,531.32Z"/></g><path class="cls-5" d="M369,438.09A57,57,0,0,0,351.5,452c-6-6.92-13.48-21.12-3.17-43.31.6,10,7.18,17.17,14.25,22h0A69.46,69.46,0,0,0,369,438.09Z"/><path class="cls-6" d="M384.38,432.12a73.76,73.76,0,0,0-11.52,4.09h0c-1.3.59-2.57,1.21-3.81,1.88a69.46,69.46,0,0,1-6.46-7.43h0c-7.21-9.6-13.39-23.51-6.08-38.48,1.32,9.5,9.94,18.21,19.82,25.24A50.36,50.36,0,0,0,384.38,432.12Z"/><path class="cls-7" d="M412.56,430.64a65.61,65.61,0,0,0-14.65-.71,72.21,72.21,0,0,0-13.53,2.19,50.36,50.36,0,0,1-8.06-14.71,30,30,0,0,1,.35-20.91C379.25,407.75,399.6,422.34,412.56,430.64Z"/><path class="cls-5" d="M631,438.09A57,57,0,0,1,648.53,452c6-6.92,13.48-21.12,3.17-43.31-.6,10-7.18,17.17-14.25,22h0A69.46,69.46,0,0,1,631,438.09Z"/><path class="cls-6" d="M615.65,432.12a73.76,73.76,0,0,1,11.52,4.09h0c1.3.59,2.57,1.21,3.81,1.88a69.46,69.46,0,0,0,6.46-7.43h0c7.21-9.6,13.39-23.51,6.08-38.48-1.32,9.5-9.94,18.21-19.82,25.24A50.36,50.36,0,0,1,615.65,432.12Z"/><path class="cls-7" d="M587.47,430.64a65.61,65.61,0,0,1,14.65-.71,72.21,72.21,0,0,1,13.53,2.19,50.36,50.36,0,0,0,8.06-14.71,30,30,0,0,0-.35-20.91C620.78,407.75,600.43,422.34,587.47,430.64Z"/></g></g></g></svg>