<svg xmlns="http://www.w3.org/2000/svg" viewBox="0 0 1000 1000"><defs><style>.cls-1{fill:none;}.cls-2{fill:#7f0000;}.cls-3{fill:#b20000;}.cls-4{fill:#490000;}.cls-5{fill:#600;}</style></defs><g id="Layer_2" data-name="Layer 2"><g id="OutPut"><rect id="BG" class="cls-1" width="1000" height="1000"/></g><g id="Red_Hair" data-name="Red Hair"><g id="eyes"><path class="cls-2" d="M437.52,536.19a56.53,56.53,0,0,0,11.56-8.93c-1.72,4.65-5.5,10.4-13.75,11.74a10.41,10.41,0,0,0-1.75.43c-11,3.62-7.26,22.52-17.84,25.63h0a11.44,11.44,0,0,1-3.4.44c-10.81-.12-10.11-9.07-12.32-15.73v0c-.95-2.87-2.45-5.32-5.67-6.42-9.85-3.38-11.88,6.46-20.15,2.72a15.91,15.91,0,0,1-2.18-1.22c-7-4.59-9.9-11.71-11-15.69a61.18,61.18,0,0,0,6,4.25,67,67,0,0,0,30.55,9.93,61.37,61.37,0,0,0,6.43.75c1.24.08,2.5.12,3.77.12a59.58,59.58,0,0,0,17.18-2.5A58.07,58.07,0,0,0,437.52,536.19Z"/><path class="cls-2" d="M654.33,510c-.66,7.36-2.13,15.19-5.2,20.82v0c-2.46,4.51-6,7.6-10.87,7.91-20.25,1.25-24.5,7.5-35.75,7.5-5.75,0-7.45,2.29-9.08,4.49s-3,4.13-7.92,4c-5.56-.14-7-2.6-8.93-5-1.58-1.89-3.55-3.73-8.32-4.28l-.73-.11c-6.57-1.26-10.18-8.77-11.92-13.93a56.54,56.54,0,0,0,5.81,4.08,57.9,57.9,0,0,0,13.71,6.15,59.58,59.58,0,0,0,17.18,2.5c1.27,0,2.53,0,3.77-.12a57.87,57.87,0,0,0,6.51-.77c21.41-1.66,39.7-12.9,49.33-28.82Q653.23,512.29,654.33,510Z"/><path class="cls-3" d="M374.18,546.05a15.91,15.91,0,0,1-2.18-1.22c-7-4.59-9.9-11.71-11-15.69a61.18,61.18,0,0,0,6,4.25A26.38,26.38,0,0,0,374.18,546.05Z"/><path class="cls-3" d="M415.73,565.06a11.44,11.44,0,0,1-3.4.44c-10.81-.12-10.11-9.07-12.32-15.73C402.48,553.68,407.67,560.61,415.73,565.06Z"/><path class="cls-3" d="M449.08,527.26c-1.72,4.65-5.5,10.4-13.75,11.74a10.41,10.41,0,0,0-1.75.43c1.06-.82,2.43-1.93,3.94-3.24A56.53,56.53,0,0,0,449.08,527.26Z"/><path class="cls-3" d="M567.52,545.39c-6.57-1.26-10.18-8.77-11.92-13.93a56.54,56.54,0,0,0,5.81,4.08A52.31,52.31,0,0,0,567.52,545.39Z"/><path class="cls-3" d="M577.73,553l-.4-.3-.05-.09A1.65,1.65,0,0,1,577.73,553Z"/><path class="cls-3" d="M577.73,553l-.4-.3-.05-.09A1.65,1.65,0,0,1,577.73,553Z"/><path class="cls-3" d="M593.42,550.74c-1.55,2.11-3,4.13-7.92,4-5.56-.14-7-2.6-8.93-5C578.94,551.05,583.9,552.44,593.42,550.74Z"/><path class="cls-3" d="M654.33,510c-.66,7.36-2.13,15.19-5.2,20.82a67.81,67.81,0,0,0,2.78-16.34Q653.23,512.29,654.33,510Z"/><path class="cls-4" d="M460.81,470.72l-1.18.29a51,51,0,0,1-7.17,51q-1.29,1.63-2.7,3.15A50.92,50.92,0,0,1,428.07,539c-.2.06-.4.13-.61.18a49.76,49.76,0,0,1-14.68,2.18c-1.13,0-2.25,0-3.36-.11a50.09,50.09,0,0,1-26.76-9.88L379,536.8a58.27,58.27,0,0,0,18.54,6.52,61.37,61.37,0,0,0,6.43.75c1.24.08,2.5.12,3.77.12a59.58,59.58,0,0,0,17.18-2.5,58.07,58.07,0,0,0,12.64-5.5,56.53,56.53,0,0,0,11.56-8.93,52.44,52.44,0,0,0,15.53-37.1A51.33,51.33,0,0,0,460.81,470.72Z"/><path class="cls-2" d="M460.81,470.72l-1.18.29a50.64,50.64,0,0,0-46.85-31.59,50.26,50.26,0,0,0-33.4,12.67,12,12,0,0,0-1.48-.09,12.46,12.46,0,0,0-11.36,17.56,51.47,51.47,0,0,0-2.44,6.74l-10.44-3.09a54.76,54.76,0,0,1,24.67-29.32A58.24,58.24,0,0,1,394,437.73a59,59,0,0,1,13.66-1.58C431.91,436.15,452.59,450.5,460.81,470.72Z"/><path class="cls-5" d="M382.66,531.32,379,536.8c-16.86-9.37-28.17-26.75-28.17-46.64a51.34,51.34,0,0,1,2.87-17l10.44,3.09a51.27,51.27,0,0,0,7.39,43.56,2.16,2.16,0,0,0,1.79,3.39,2,2,0,0,0,.72-.13A50.58,50.58,0,0,0,382.66,531.32Z"/><path class="cls-4" d="M535.39,490.16a52.44,52.44,0,0,0,15.53,37.1,56.53,56.53,0,0,0,11.56,8.93,58.07,58.07,0,0,0,12.64,5.5,59.58,59.58,0,0,0,17.18,2.5c1.27,0,2.53,0,3.77-.12a61.37,61.37,0,0,0,6.43-.75A58.27,58.27,0,0,0,621,536.8l-3.7-5.48a50.09,50.09,0,0,1-26.76,9.88c-1.11.07-2.23.11-3.36.11a49.76,49.76,0,0,1-14.68-2.18c-.21,0-.41-.12-.61-.18a50.92,50.92,0,0,1-21.69-13.78q-1.41-1.51-2.7-3.15a51.24,51.24,0,0,1-7.17-51l-1.18-.29A51.33,51.33,0,0,0,535.39,490.16Z"/><path class="cls-2" d="M539.19,470.72l1.18.29a50.64,50.64,0,0,1,46.85-31.59,50.26,50.26,0,0,1,33.4,12.67,12,12,0,0,1,1.48-.09,12.46,12.46,0,0,1,11.36,17.56,51.47,51.47,0,0,1,2.44,6.74l10.44-3.09a54.76,54.76,0,0,0-24.67-29.32A58.24,58.24,0,0,0,606,437.73a59,59,0,0,0-13.66-1.58C568.09,436.15,547.41,450.5,539.19,470.72Z"/><path class="cls-5" d="M617.34,531.32l3.7,5.48c16.86-9.37,28.17-26.75,28.17-46.64a51.34,51.34,0,0,0-2.87-17L635.9,476.3a51.27,51.27,0,0,1-7.39,43.56,2.16,2.16,0,0,1-1.79,3.39,2,2,0,0,1-.72-.13A50.58,50.58,0,0,1,617.34,531.32Z"/></g></g></g></svg>