<svg xmlns="http://www.w3.org/2000/svg" viewBox="0 0 1000 1000"><defs><style>.cls-1{fill:none;}.cls-2{fill:#993d8c;}.cls-3{opacity:0.2;}.cls-4{fill:#4c1e45;}</style></defs><g id="Layer_2" data-name="Layer 2"><g id="OutPut"><rect id="BG" class="cls-1" width="1000" height="1000"/></g><g id="Mouth_Low"><g id="_8" data-name="8"><path class="cls-2" d="M640.58,603.42c0,19.39-37.73,23.88-74.1,26.71-23.85,1.87-47.12,3-58.76,7.24a22.87,22.87,0,0,1-5.27,1.2h-.13l-.38,0-.26,0h-.07l-.54,0h-.25a22.82,22.82,0,0,1-8.54-1.31c-10.83-3.91-31.7-5.19-53.76-6.85-37.82-2.84-79.1-6.82-79.1-27.1,0-8,4.34-16.07,11.24-23.84h0c.78-.89,2.62-2.35,3.16-3.38,3-5.67,8.22-14.29,18.34-18.13h0l1.11-.39c.54-.18,1.08-.36,1.63-.56,13.24-4.7,29.52-13.84,42.5-22.53l.11-.07c3-2,5.82-4,8.39-5.89h0c7.51-5.52,12.84-10.32,14.06-12.85,5-10.41,26.72-14.32,35.47-15.5a28.62,28.62,0,0,1,7.34,0c1,.12,2.08.27,3.32.46,10.45,1.58,29.44,5.68,33.93,15.06,3.42,7.14,39.53,32.22,64.81,41.26l.26.09c.55.2,1.09.38,1.63.56l1.11.39h0c10.12,3.84,15.33,12.46,18.34,18.13.54,1,2.38,2.49,3.16,3.38h0c1.1,1.24,2.15,2.49,3.11,3.75C637.51,589.92,640.58,596.67,640.58,603.42Z"/><path class="cls-3" d="M438.52,630.52c-37.82-2.84-79.1-6.82-79.1-27.1,0-8,4.34-16.07,11.24-23.84h0c.78-.89,2.62-2.35,3.16-3.38,3-5.67,8.22-14.29,18.34-18.13h0l1.11-.39c.54-.18,1.08-.36,1.63-.56,13.24-4.7,29.52-13.84,42.5-22.53-27.29,19.91-105.48,83.44-8.77,94.75Q433.87,629.93,438.52,630.52Z"/><path class="cls-3" d="M604.84,557c-1-.15-2.18-.36-3.44-.63-47.39-10.23-95.3-55.69-95.3-55.69,10.45,1.58,29.44,5.68,33.93,15.06C543.45,522.89,579.56,548,604.84,557Z"/><path class="cls-3" d="M502.32,638.58l-1.25.08C501.49,638.65,501.9,638.62,502.32,638.58Z"/><path class="cls-3" d="M500.82,638.68l.25,0Z"/><path class="cls-3" d="M640.58,603.42c0,19.39-37.73,23.88-74.1,26.71,39-7.66,78.69-21.5,66.62-45.46-.23-.46-.44-.91-.65-1.34C637.51,589.92,640.58,596.67,640.58,603.42Z"/><path class="cls-4" d="M440.63,604.79c-67.76-.23-70-25.21-70-25.21h0c.78-.89,1.6-1.77,2.44-2.64C380.79,602.89,432.87,604.67,440.63,604.79Z"/><path class="cls-4" d="M412.24,572.92c-14.64,0-20.08-14.86-20.08-14.86h0l1.11-.39c.54-.18,1.08-.36,1.63-.56C393.94,567.39,412.24,572.92,412.24,572.92Z"/><path class="cls-4" d="M559.37,604.79c67.76-.23,70-25.21,70-25.21h0c-.78-.89-1.6-1.77-2.44-2.64C619.21,602.89,567.13,604.67,559.37,604.79Z"/><path class="cls-4" d="M587.76,572.92c14.64,0,20.08-14.86,20.08-14.86h0l-1.11-.39c-.54-.18-1.08-.36-1.63-.56C606.06,567.39,587.76,572.92,587.76,572.92Z"/><path class="cls-4" d="M550.72,547.72s-21.82,16.52-74.07,12C476.65,559.73,531.71,559.11,550.72,547.72Z"/><path class="cls-4" d="M440.63,582.54s43.87,14.91,77.55,9.23C493.49,590.86,440.63,582.54,440.63,582.54Z"/><path class="cls-4" d="M552.44,615.47s-28.9,12.85-85,8.85C503.64,623.65,530.24,621.65,552.44,615.47Z"/><path class="cls-4" d="M467.46,529.86s8,2.91,38.64,4.71"/></g></g></g></svg>