<svg xmlns="http://www.w3.org/2000/svg" xmlns:xlink="http://www.w3.org/1999/xlink" viewBox="0 0 1000 1000"><defs><style>.cls-1{fill:none;}.cls-2{fill:url(#linear-gradient);}.cls-3{fill:#053500;}.cls-11,.cls-4{opacity:0.1;}.cls-5{fill:url(#radial-gradient);}.cls-6{fill:#fff;}.cls-7{fill:url(#radial-gradient-2);}.cls-8{fill:#874a21;}.cls-9{opacity:0.2;}.cls-10{fill:#a5673c;}.cls-11{fill:#fcfcfc;}.cls-12{fill:#0c4700;}.cls-13{fill:#177700;}.cls-14{fill:#239e00;}</style><linearGradient id="linear-gradient" x1="500" y1="-27.87" x2="500" y2="1258.85" gradientUnits="userSpaceOnUse"><stop offset="0" stop-color="#00cbd4"/><stop offset="1" stop-color="#00a8d4"/></linearGradient><radialGradient id="radial-gradient" cx="941" cy="81" r="857.02" gradientUnits="userSpaceOnUse"><stop offset="0" stop-color="#fff"/><stop offset="1" stop-color="#ffca3f" stop-opacity="0"/></radialGradient><radialGradient id="radial-gradient-2" cx="965" cy="41" r="209.62" gradientUnits="userSpaceOnUse"><stop offset="0" stop-color="#ff7300"/><stop offset="0.22" stop-color="#ff7c03"/><stop offset="0.6" stop-color="#ff960b"/><stop offset="0.99" stop-color="#ffb815"/></radialGradient></defs><g id="Layer_2" data-name="Layer 2"><g id="OutPut"><rect id="BG" class="cls-1" width="1000" height="1000"/></g><g id="Bachground"><g id="_10" data-name="10"><path class="cls-2" d="M996.91,558.71h0c2.79,14.8,3.55,30.25.5,44.11q-1.81,8.22-3.69,16.42h0l-.93,17.7-1.27,24,1.36-.13-1.8,8.64-1.78,33.64,0,.43-3,57-.6,11.39-.26,5-1.35,25.62-.43,8.27-.89,16.85-1.39,26.38-.51,9.77-.34,6.46v.13l-.35,6.68-1.23,23.29-2.23,42.37-.15,2.94a32.58,32.58,0,0,1-30.83,30.83l-9.47.5L716.85,988.59l-1.4.07h0L516,999.16l-14.33.75a32.51,32.51,0,0,1-3.42,0l-10.68-.56L282.67,988.56,143,981.2,63.28,977l-9-.47a32.58,32.58,0,0,1-30.83-30.83l-.75-14.31-.93-17.53-.16-3-1.53-29.09-.6-11.32h0l-.71-13.55L18,841.16l-.58-11-.12-2.31-2.18-41.32L14.31,772,14,766.44l-1-19.67L9.8,686.27,8.63,664.13h0l-.92-17.54L.09,501.71a32.51,32.51,0,0,1,0-3.42l2.2-41.75,10-189.15.32-6.06.37-6.88h0l2.44-46.39.56-10.72L17,177.45h0L18.32,152l.81-15.41.42-8,1.32-25.06c0-.2-.06-.39-.08-.59l.12-.09,1.94-36.92-.34-.29.35.15.6-11.48A32.58,32.58,0,0,1,54.29,23.46L498.29.09a32.51,32.51,0,0,1,3.42,0l254.1,13.37,189.9,10a32.58,32.58,0,0,1,30.83,30.83l8,151.41,1,18.83h0l.17,3.17.1,0-.1.09.14,2.6,1.36,25.77h0l.81,15.35.42,8.07.49,9.33v.24L990,310.43l8.07,153.27,1.82,34.59a32.51,32.51,0,0,1,0,3.42Z"/><path class="cls-3" d="M992.88,660.88l-1.8,8.64-1.78,33.64,0,.43-3,57-.6,11.39-.26,5-1.35,25.62-.43,8.27-.89,16.85-1.39,26.38-.51,9.77-.34,6.46v.13l-.35,6.68-1.23,23.29-2.23,42.37-.15,2.94a32.58,32.58,0,0,1-30.83,30.83l-9.47.5L716.85,988.59l-1.4.07h0L516,999.16l-14.33.75a32.51,32.51,0,0,1-3.42,0l-10.68-.56L282.67,988.56,143,981.2,63.28,977l-9-.47a32.58,32.58,0,0,1-30.83-30.83l-.75-14.31-.93-17.53-.16-3-1.53-29.09-.6-11.32h0l-.71-13.55L18,841.16l-.58-11-.12-2.31-2.18-41.32L14.31,772,14,766.44l-1-19.67L9.8,686.27,8.63,664.13h0L19.28,649l5.35-7.63,4.58,1.92,18,7.53,13.26,5.56,5.06,2.12,39.38-17.13,28.06,10,1.23.44L145,655.6s26.08-24,35.65-24.85c4.83-.41,14.14,5.76,22.18,12,2.76,2.13,5.35,4.25,7.57,6.14h0c4.15,3.5,7,6.1,7,6.1l6-2,10.18-3.31,3.3-1.08L248,645l7,6.36L279,673l20.27-9.64,6.34-3,2.34-1.12h0l19.29-9.17,6.85,15.38L345,690,359,681.68l12.4-7.39h0l1.55-.93,6.34-3.77,5-3,12.35,8.29,1.74,1.17L409,683.22h0l28.87-14.78.53-.28,36-18.41,2.64-1.35,13.84-7.08s17.52,28.65,28.45,38.76c3,2.79,5.54,4.17,7,3.14,1.22-.84,3.3-2.49,5.9-4.66l.9-.75c3.82-3.2,8.6-7.33,13.39-11.52,3.65-3.2,7.31-6.43,10.56-9.31l1.91-1.7c5.42-4.82,9.29-8.29,9.29-8.29l25.74,24.94,14.68,14.23,1.29-15.42,2.92-35,18.27,3.59,10.08,2,32.23-9L689,645l26.4-2.23,1.58-.14,13.52-1.14,13.25,6.22,2.62,1.23L767.81,659l33.37-17.51,11.75,5.83,6.57,3.27,4.19,2.08,47.09-16.15,10.1,7,7.31,5.08,5.85,4.06,8.33-2.68h0l3.74-1.2c9.41-3,22.43-7.11,31.85-9.91h0l2.73-.8c5-1.45,8.53-2.38,9.25-2.32C953,636,976.69,647,976.69,647l4-2.51,8.36-5.21,3.72-2.32-1.27,24Z"/><path class="cls-4" d="M989.28,703.59l-3,57-.6,11.39-.26,5-1.35,25.62-.43,8.27-.89,16.85-1.39,26.38-.51,9.77-.34,6.46v.13l-.35,6.68-1.23,23.29-2.23,42.37-.15,2.94a32.58,32.58,0,0,1-30.83,30.83l-9.47.5L716.85,988.59l-1.4.07h0L516,999.16l-14.33.75a32.51,32.51,0,0,1-3.42,0l-10.68-.56L282.67,988.56,143,981.2,63.28,977l-9-.47a32.58,32.58,0,0,1-30.83-30.83l-.75-14.31-.93-17.53-.16-3-1.53-29.09-.6-11.32h0l-.71-13.55L18,841.16l-.58-11-.12-2.31-2.18-41.32L14.31,772,14,766.44q12.15-1.62,25-3.22l1.44-.17q9.89-1.23,20.17-2.46l7.26-.86,5.25-.6h0l2-.23q14.57-1.68,29.9-3.33l1.4-.15q15.38-1.67,31.53-3.3,26.44-2.67,55.06-5.28,16.41-1.5,33.56-3,20.87-1.8,42.84-3.56l2.89-.23q10.77-.87,21.82-1.72,17.75-1.36,36.19-2.72,21.49-1.56,44-3.1l11.87-.81Q410,730.13,435,728.55l1.49-.09q18.9-1.19,38.44-2.35,33.66-2,69.26-3.93l17.44-.94,15.15-.79,3.93-.2h0q32.26-1.68,66.09-3.29,33.38-1.59,68.31-3.12l11.63-.51,16.24-.69,1.74-.08q20.36-.85,41.22-1.69l3.33-.14L817,709.64q24.69-1,50.1-1.89l13.78-.5q16-.57,32.25-1.13l2.19-.08h.28q28.2-1,57.24-1.91h0Z"/><path class="cls-5" d="M996.91,558.71h0c2.79,14.8,3.55,30.25.5,44.11q-1.81,8.22-3.69,16.42h0l-.93,17.7-1.27,24,1.36-.13-1.8,8.64-1.78,33.64,0,.43-3,57-.6,11.39-.26,5-1.35,25.62-.43,8.27-.89,16.85-1.39,26.38-.51,9.77-.34,6.46v.13l-.35,6.68-1.23,23.29-2.23,42.37-.15,2.94a32.58,32.58,0,0,1-30.83,30.83l-9.47.5L716.85,988.59l-1.4.07h0A1098.24,1098.24,0,0,1,584.12,927.4q-6.3-3.46-12.53-7h0Q544.31,904.94,518,888c-.53-.33-1-.66-1.57-1q-17.73-11.46-35-23.58-7.51-5.26-14.93-10.68-3.18-2.31-6.35-4.65c-1-.72-2-1.45-3-2.2q-6.32-4.68-12.56-9.47c-1.16-.88-2.3-1.75-3.44-2.65h0l-1-.74q-4.94-3.82-9.83-7.69l-.24-.19q-4.41-3.5-8.78-7-13.06-10.56-25.8-21.53-9.54-8.19-18.89-16.62-4-3.56-7.88-7.16-19.72-18.12-38.54-37.15-15.71-15.87-30.74-32.37l-1-1.08q-4.12-4.53-8.2-9.11-5.62-6.32-11.15-12.73l-1.08-1.25Q266.37,665.43,255,651.36l-4.62-5.78h0q-6.21-7.82-12.26-15.73c-.83-1.07-1.64-2.14-2.46-3.22q-5.74-7.54-11.35-15.21-7.44-10.14-14.64-20.47A1098,1098,0,0,1,56,270.75q-2.92-9.94-5.65-20-2.43-8.89-4.71-17.87h0c-.66-2.59-1.31-5.18-1.95-7.79q-3.06-12.39-5.83-24.91s0,0,0,0h0s0,0,0,0h0q-1.38-6.21-2.68-12.44-1.55-7.36-3-14.77h0q-.78-3.9-1.5-7.83-2.91-15.41-5.37-31c-.23-1.42-.45-2.84-.66-4.25q-2-13.14-3.75-26.38c0-.2-.06-.39-.08-.59l.12-.09,1.94-36.92-.34-.29.35.15.6-11.48A32.58,32.58,0,0,1,54.29,23.46L498.29.09a32.51,32.51,0,0,1,3.42,0l254.1,13.37,189.9,10a32.58,32.58,0,0,1,30.83,30.83l8,151.41,1,18.83h0l.17,3.17.1,0-.1.09.14,2.6,1.36,25.77h0l.81,15.35.42,8.07.49,9.33v.24L990,310.43l8.07,153.27,1.82,34.59a32.51,32.51,0,0,1,0,3.42Z"/><path class="cls-6" d="M988.89,289l-.24.12h0A33.2,33.2,0,0,1,941.33,259c0-.3,0-.6,0-.9a34.3,34.3,0,0,1,.38-4.21c.12-.74.26-1.48.42-2.21s.42-1.68.67-2.51h0a33.17,33.17,0,0,1,5.44-10.45c.26-.35.54-.69.83-1a33.12,33.12,0,0,1,17.45-10.92,32.52,32.52,0,0,1,7.16-1h.85a33.29,33.29,0,0,1,7.72.9c.7.17,1.4.36,2.08.57.45.14.89.29,1.33.45l.1,0-.1.09.14,2.6,1.36,25.77h0l.81,15.35.42,8.07Z"/><circle class="cls-6" cx="949.06" cy="225.79" r="33.21"/><circle class="cls-6" cx="936.32" cy="259.01" r="33.21"/><circle class="cls-6" cx="915.85" cy="231.4" r="33.21"/><circle class="cls-6" cx="903.11" cy="252.64" r="33.21"/><circle class="cls-6" cx="869.89" cy="253.91" r="33.21"/><circle class="cls-6" cx="910.24" cy="255.67" r="33.21"/><circle class="cls-6" cx="893.6" cy="253.91" r="33.21"/><circle class="cls-6" cx="953.77" cy="257.44" r="33.21"/><path class="cls-6" d="M988.89,289v.24l-.25-.12h0a33.23,33.23,0,0,1-18.18-37.89h0A33,33,0,0,1,979,235.82l.35-.36c.65-.64,1.32-1.26,2-1.84.51-.44,1-.86,1.57-1.26a33.17,33.17,0,0,1,2.9-1.93l1.36,25.77h0l.81,15.35.42,8.07Z"/><circle class="cls-6" cx="869.89" cy="231.4" r="33.21"/><circle class="cls-6" cx="897.04" cy="198.19" r="33.21"/><path class="cls-6" d="M988.4,279.63a33,33,0,0,1-5.93-5.46c-.59-.69-1.15-1.41-1.68-2.15h0a33.1,33.1,0,0,1-6.24-19.38,32.64,32.64,0,0,1,.6-6.29,33,33,0,0,1,3.91-10.44l.27-.45a31.82,31.82,0,0,1,2.35-3.38q.86-1.1,1.8-2.1c.7-.75,1.43-1.47,2.2-2.15l.14,2.6,1.36,25.77h0l.81,15.35Z"/><path class="cls-6" d="M988,271.56a33.18,33.18,0,0,1-4.37.46c-.45,0-.89,0-1.34,0s-1,0-1.48,0h0a32.83,32.83,0,0,1-9.29-1.77,28.49,28.49,0,0,1-3.44-1.4,33.18,33.18,0,0,1-19-30c0-.38,0-.76,0-1.14a33.29,33.29,0,0,1,1.46-8.7,32.39,32.39,0,0,1,1.89-4.73,33.22,33.22,0,0,1,18.91-16.79,30.33,30.33,0,0,1,4.56-1.23,32.61,32.61,0,0,1,6.37-.62c.75,0,1.5,0,2.24.08l1,18.83h0l.17,3.17.1,0-.1.09.14,2.6,1.36,25.77h0Z"/><path class="cls-6" d="M986.94,255.83a33,33,0,0,1-4.63-15.37h0c0-.54,0-1.08,0-1.62a32.86,32.86,0,0,1,.64-6.47c.15-.81.34-1.6.56-2.38s.54-1.83.87-2.72.73-1.83,1.16-2.72l.17,3.17.1,0-.1.09.14,2.6,1.36,25.77-.23-.35Z"/><circle class="cls-6" cx="834.2" cy="259.01" r="23.71"/><circle class="cls-6" cx="843.76" cy="246.17" r="23.71"/><circle class="cls-6" cx="829.25" cy="255.67" r="23.71"/><circle class="cls-6" cx="852.96" cy="262.14" r="23.71"/><circle class="cls-6" cx="940.87" cy="220.69" r="33.21"/><path class="cls-7" d="M990,310.43a371.62,371.62,0,0,1-42.65-20.1c-.29-.15-.55-.31-.83-.46h0q-7.59-4.19-14.95-8.74c-.9-.54-1.74-1.09-2.63-1.62h0c-1.17-.73-2.34-1.47-3.5-2.22q-2.62-1.68-5.22-3.42-8.23-5.47-16.16-11.38l-.78-.58-.93-.7q-4.34-3.27-8.56-6.65-2.65-2.11-5.28-4.3-4.47-3.69-8.81-7.54-3-2.66-6-5.41c-1.78-1.62-3.55-3.28-5.29-5q-5-4.74-9.74-9.66-6.66-6.84-12.93-14A375.1,375.1,0,0,1,755.81,13.46l189.9,10a32.58,32.58,0,0,1,30.83,30.83l8,151.41,1,18.83h0l.17,3.17.1,0-.1.09.14,2.6,1.36,25.77h0l.81,15.35.42,8.07.49,9.33v.24Z"/><path class="cls-8" d="M992.88,660.88l-1.8,8.64-1.78,33.64-5.32.31-11.1.65h0L924,707l-8.4-.93-.26,0h0l-2.08-.23-31.84-3.51-12.92-1.43L851.61,699l-8.84-1-25-2.76-26.23-2.9-2.74-.3-21-2.31-22.6,2.74-2.86.35L724,695.09h0l-9,1.1-10.64,1.29-35.92,4.37-23.92,2.9L593,711l-15.1,1.06-3.9.28-14.83,1-17,1.19-12.9.91-41.52,2.92-12.62.89L436.77,722h-.17l-1.31-.26-51.59-10.2-10.16-2-11.85-2.34-44.63-8.83-16.31-3.23-1.81-.35-8.58-1.7-11.69-2.32-2.15-.42L242,683.5l-7.6.88-3.07.36-7.8.91-25.68,3-7.77.9-43.23,5-10.59,1.23-30.76,3.57-.5.06L82.71,702l-13.32-2.87-6.85-1.48L51.67,695.3l-18.78-4-3.12-.67-20-4.31L8.63,664.13h0l-.92-17.54L19.28,649l5.35,1.1,5.12,1.05,17.79,3.66,13,2.66,5,1L82.71,662l51.19-5.26h0l.53-.06L145,655.6l48.77-5,8.24-.85,8.39-.86h0l13.05-1.34,10.39-1.07h0l3.2-.33L248,645l2.42.57h0l48.65,11.54,6.76,1.61,2.12.5h0L323.84,663l10.26,2.44,23.72,5.63,13.54,3.22h0l1.57.37,7,1.66,16.74,4h0l1.68.4L409,683.22h0l27.55,6.54.27,0,1.26-.15,38.17-4.47,12.48-1.46,28.09-3.28,2.49-.29,12.94-1.52,1.05-.12,15.8-1.85,13.3-1.56,3.06-.36L579.88,673l14.21-1.06,16-1.19,27.32-2,28.47-2.12,38-2.83,11.25-.84,4.42-.33,23.58-1.76,3-.22L767.81,659l47.53,2.55,3.78.2,27.15,1.46,8.81.47,21,1.13,9.78.52,12.92.7,1.74.09L924,667.38l3.57-.34,3.28-.31,48-4.53,4.79-.45,7.88-.74Z"/><polygon class="cls-8" points="986.28 760.61 985.68 772 985.42 776.95 984.07 802.57 963 803.81 944.48 804.9 944.47 804.9 939.01 805.22 924.01 806.1 916.77 805.3 911.35 804.7 910.19 804.57 875.75 800.77 852.05 798.16 842 797.05 833.01 796.06 811.43 793.68 800.6 792.49 789.71 791.28 775.67 789.74 773.92 789.54 767.81 788.87 740.73 792.16 717.99 794.92 705.58 796.43 675.39 800.1 661.21 801.82 605.22 808.62 599.25 809.35 598.81 809.4 593.04 810.1 569.98 811.72 565.45 812.04 563.55 812.17 545.97 813.41 501.55 816.53 484.89 817.7 478.13 818.18 469.5 818.78 436.6 821.1 430.79 819.95 430.44 819.88 421.4 818.09 398.73 813.61 379.24 809.75 372.53 808.42 320.13 798.05 315.56 797.15 298.77 793.83 285.11 791.13 285.1 791.13 264.07 786.96 264.06 786.96 262.76 786.71 242 782.6 232 783.76 190.88 788.54 180.63 789.73 179 789.92 175.72 790.3 151.58 793.1 138.46 794.62 106.63 798.32 105 798.51 82.71 801.1 79.05 800.31 75.65 799.58 67.64 797.85 44.54 792.87 42.7 792.47 15.07 786.51 14.31 772 14.02 766.44 12.98 746.77 37.54 751.82 39.09 752.14 59.93 756.42 67.65 758.01 73.11 759.13 73.12 759.13 75.16 759.55 82.71 761.1 105 758.81 106.44 758.66 137.99 755.42 149.72 754.21 184.32 750.65 192.8 749.78 226.78 746.28 248 744.1 268.16 748.89 270.74 749.5 291.48 754.42 305.67 757.79 368.71 772.75 368.83 772.78 376.35 774.56 392.62 778.43 432.02 787.78 432.93 788 436.6 788.87 471.86 784.74 485.9 783.1 550.57 775.53 558.47 774.61 579.67 772.12 579.88 772.1 655.53 766.46 672.91 765.17 705.17 762.77 716.24 761.94 734.57 760.58 734.58 760.58 767.81 758.1 778.62 758.68 781.38 758.83 813.93 760.57 836.4 761.78 845.41 762.27 857.1 762.9 876.48 763.94 917.03 766.12 917.32 766.13 924.01 766.49 956.64 763.41 971.75 761.98 986.28 760.61"/><polygon class="cls-9" points="82.71 702 29.77 690.58 24.63 650.06 82.71 662 144.98 655.6 146.85 694.55 82.71 702"/><polygon class="cls-9" points="151.58 793.1 82.71 801.1 42.7 792.47 37.54 751.82 82.71 761.1 149.72 754.21 151.58 793.1"/><polygon class="cls-9" points="305.67 757.79 298.77 793.83 242 782.6 180.63 789.73 184.32 750.65 248 744.1 305.67 757.79"/><polygon class="cls-9" points="323.84 663 317.06 698.35 242 683.5 190.08 689.53 193.75 650.58 248 645 323.84 663"/><polygon class="cls-9" points="485.9 783.1 484.89 817.7 436.6 821.1 372.53 808.42 368.71 772.75 436.6 788.87 485.9 783.1"/><polygon class="cls-9" points="488.78 683.66 487.78 718.4 436.6 722 361.69 707.18 357.82 671.07 436.6 689.77 488.78 683.66"/><path class="cls-9" d="M593,711l-63.74,4.48-12.43-35.1,63-7.38,86-6.4c.85,11.7,1.7,23.48,2.54,35.25Z"/><path class="cls-9" d="M675.39,800.1,593,810.1l-29.49,2.07-13-36.64,29.31-3.43,93-6.93C673.75,777.07,674.58,788.75,675.39,800.1Z"/><path class="cls-9" d="M836.4,761.78c-1.14,11.51-2.28,23-3.39,34.28l-65.2-7.19-62.23,7.56c-.12-10.89-.26-22.14-.41-33.66l62.64-4.67Z"/><path class="cls-9" d="M846.27,663.21c-1.15,11.4-2.32,23-3.5,34.83l-75-8.27-63.5,7.71c-.16-11.16-.32-22.42-.47-33.71l64-4.77Z"/><polygon class="cls-9" points="971.75 761.98 963 803.81 924.01 806.1 842 797.05 845.41 762.27 924.01 766.49 971.75 761.98"/><path class="cls-9" d="M992.88,660.88l-1.8,8.64-7.1,34-11.1.65h0L924,707l-8.4-.93-.26,0h0l-2.08-.23-31.84-3.51-12.92-1.43L851.61,699l3.47-35.33,21,1.13,9.78.52,12.92.7,1.74.09L924,667.38l3.57-.34,3.28-.31,48-4.53,4.79-.45,7.88-.74Z"/><path class="cls-10" d="M135.05,884.6c-2.33,2.78-9.32,3.21-20.22,3.45h0c-9.42.2-21.75.26-36.51,1.57C46.4,892.43,30,672.45,27.07,605.45c-1.12-26,5-49.14,12.81-67.75a188.5,188.5,0,0,1,14.1-27A150.56,150.56,0,0,1,69.11,490.3c10-.88,56.86,49.19,60.59,95,2.09,25.66,3.74,51.48,5,76.62a.09.09,0,0,0,0,0C140.66,778.46,138.63,880.33,135.05,884.6Z"/><path class="cls-10" d="M313.46,595.36c-4.42,41.34-10,82.87-15.92,121.18-8,52.31-16.57,98.63-23.25,130.28-5.49,26-9.74,42.16-11.43,43.54-5.24,4.29-24.88-2.48-56.72-5.67S199.23,662.33,208.88,596a153.5,153.5,0,0,1,19.65-55.22h0a185.75,185.75,0,0,1,25.83-34.25,145.72,145.72,0,0,1,17.3-15.79C281.61,491.68,318.35,549.62,313.46,595.36Z"/><path class="cls-10" d="M476.51,677v.1c-2.78,111.67-11.62,206.67-15.37,210.54-3.3,3.41-14.26,2.24-31.55,1.42-7.36-.36-15.88-.65-25.44-.49-32,.52-32.61-220.07-30.7-287.11.93-32.7,12.89-60.11,24.91-79.6,12.6-20.48,25.26-32.23,25.26-32.23,10-.17,53.2,53.13,53.63,99.13C477.53,618.42,477.22,648.26,476.51,677Z"/><path class="cls-10" d="M820.69,589.6c-.21,30.86-1.07,61.88-2.33,91.65v0c-4.68,110.15-14.91,203.13-18.67,206.89-2.45,2.45-8.92,2.39-18.93,1.76h-.09c-9.57-.61-22.38-1.75-38-1.75-28.08,0-29.21-169.85-27-256.73v-.07c.31-12.09.67-22.58,1-30.77a153.56,153.56,0,0,1,13.8-56.34h0c15.44-34.22,38.19-54.65,38.19-54.65C778.69,489.6,821,543.6,820.69,589.6Z"/><path class="cls-10" d="M669.09,874.71c-3.49,5.8-24.27,6-55.33,13.7S532.63,681.26,519.45,615.5c-5.32-26.53-2.47-51.22,2.82-71.24A188.58,188.58,0,0,1,535.06,510a130.88,130.88,0,0,1,8.2-14.69c9.71-2.4,63.76,39.85,74.5,84.58,4.2,17.49,8.2,35.09,12,52.52q1.37,6.33,2.71,12.64a.5.5,0,0,1,0,.12q1,4.77,2,9.5C648,719.4,658.23,780,664,821.1,668.48,852.53,670.34,872.65,669.09,874.71Z"/><path class="cls-10" d="M997.41,602.83q-1.81,8.22-3.69,16.42h0q-2.28,10-4.65,20-2.69,11.29-5.43,22.47c-3.5,14.2-7.07,28.2-10.65,41.86h0c0,.17-.09.33-.13.5-5.44,20.73-10.92,40.67-16.22,59.29-4.19,14.74-8.28,28.66-12.16,41.49h0q-1.54,5.16-3.07,10.09h0c-9.66,31.44-17.77,55.29-22.59,67.16-2,4.94-3.44,7.82-4.19,8.3-2.2,1.43-6.37,1-12.48-.52-2-.48-4.16-1.08-6.55-1.75l-4.79-1.36h0c-6.44-1.84-14.08-4.05-22.9-6.18h0c-2.88-.69-5.89-1.38-9-2a6.45,6.45,0,0,1-1.55-.53h0c-5.05-2.42-7.65-11.17-8.42-24.26v0c-.3-4.83-.33-10.25-.15-16.17.35-11.52,1.53-24.91,3.3-39.43,1.37-11.19,3.09-23.06,5.05-35.26,2.91-18,6.36-36.76,10-55.15.45-2.3.91-4.6,1.38-6.88,2.49-12.36,5.06-24.49,7.6-36.06,1.62-7.35,3.22-14.47,4.78-21.28,4.82-21.06,9.27-39.12,12.52-51.62a145.22,145.22,0,0,1,7.93-22.6v0c13.16-29.54,33.88-50.41,48.61-62.54h0a141.21,141.21,0,0,1,17.44-12.55c6.76,1.44,23.25,31.35,29.51,64.52h0C999.7,573.52,1000.46,589,997.41,602.83Z"/><path class="cls-9" d="M114.78,888.05c-9.42.2-21.75.26-36.51,1.57C46.4,892.43,30,672.45,27.07,605.45c-1.12-26,5-49.14,12.81-67.75C39.88,537.7,51.65,885.92,114.78,888.05Z"/><path class="cls-9" d="M274.29,846.82c-5.49,26-9.74,42.16-11.43,43.54-5.24,4.29-24.88-2.48-56.72-5.67S199.23,662.33,208.88,596a153.5,153.5,0,0,1,19.65-55.22C228.33,543,200.85,852.62,274.29,846.82Z"/><path class="cls-9" d="M429.59,889.05c-7.36-.36-15.88-.65-25.44-.49-32,.52-32.61-220.07-30.7-287.11,0,0,19.37,284.62,56,287.58Z"/><path class="cls-9" d="M664,821.1c4.44,31.43,6.3,51.55,5.05,53.61-3.49,5.8-24.27,6-55.33,13.7S532.63,681.26,519.45,615.5c-5.32-26.53-2.47-51.22,2.82-71.24C522.27,544.26,578.08,918.21,664,821.1Z"/><path class="cls-9" d="M706.33,808.08c-.22-.79-.45-1.67-.69-2.62C705.9,806.28,706.13,807.16,706.33,808.08Z"/><path class="cls-9" d="M705.64,805.46c.26.82.49,1.7.69,2.62C706.11,807.29,705.88,806.41,705.64,805.46Z"/><path class="cls-9" d="M780.67,889.92c-9.57-.61-22.38-1.75-38-1.75-28.08,0-29.21-169.85-27-256.73C720.32,671.68,746.84,887.13,780.67,889.92Z"/><path class="cls-9" d="M902.14,889.94c-9.64-2.35-24.1-7.28-43.27-11.36-31.3-6.67,17.62-221.77,34.53-286.67a145.22,145.22,0,0,1,7.93-22.6c-.68,3.46-57.8,295.69.76,320.61Z"/><path class="cls-11" d="M134.72,662C120.45,562.93,54,510.73,54,510.73h0A150.56,150.56,0,0,1,69.11,490.3c10-.88,56.86,49.19,60.59,95C131.79,611,133.44,636.82,134.72,662Z"/><path class="cls-11" d="M313.46,595.36c-4.42,41.34-10,82.87-15.92,121.18,0,0,0-.07,0-.1,12.56-148.57-43.19-210-43.19-210a145.72,145.72,0,0,1,17.3-15.79C281.61,491.68,318.35,549.62,313.46,595.36Z"/><path class="cls-11" d="M476.51,677c-1.42-106-77-154.39-78.15-155.14,12.6-20.48,25.26-32.23,25.26-32.23,10-.17,53.2,53.13,53.63,99.13C477.53,618.42,477.22,648.26,476.51,677Z"/><path class="cls-11" d="M617.76,579.84c4.2,17.49,8.2,35.09,12,52.52C604.83,528.13,535.06,510,535.06,510a130.88,130.88,0,0,1,8.2-14.69C553,492.86,607,535.11,617.76,579.84Z"/><path class="cls-11" d="M634.48,654.62c-.67-2.9-1.34-6.06-2-9.5Q633.48,649.89,634.48,654.62Z"/><path class="cls-11" d="M820.69,589.6c-.21,30.86-1.07,61.88-2.33,91.65C818,678.88,798.79,540.9,774,529s-43,14.57-43.5,15.25c15.44-34.22,38.19-54.65,38.19-54.65C778.69,489.6,821,543.6,820.69,589.6Z"/><path class="cls-11" d="M997.41,602.83q-1.81,8.22-3.69,16.42h0q-2.28,10-4.65,20-2.69,11.29-5.43,22.47c-3.5,14.2-7.07,28.2-10.65,41.86q3.66-22.35,5.86-41.41,1.1-9.23,1.86-17.71C993.12,509.25,950.79,506.78,950,506.74a141.21,141.21,0,0,1,17.44-12.55c6.76,1.44,23.25,31.35,29.51,64.52h0C999.7,573.52,1000.46,589,997.41,602.83Z"/><path class="cls-9" d="M58.33,583.3S61,789.21,79.67,806.77Z"/><path class="cls-11" d="M105,677s3.69,145.77,0,175.34Z"/><path class="cls-11" d="M242.33,569.31s-15.66,117.69-10,144.36Z"/><path class="cls-9" d="M259,813s22.67-111,20-140Z"/><path class="cls-9" d="M398.36,588.33s-4,101.34,0,119.34Z"/><path class="cls-11" d="M429.59,837.07S440.15,691.59,438.24,662Z"/><path class="cls-11" d="M543.66,609S582.41,752.57,593,757.45Z"/><path class="cls-9" d="M600.33,654.62c0-12.12-37-90.86-37-90.86Z"/><path class="cls-11" d="M747.8,595s-9.47,94-3.47,130.67Z"/><path class="cls-9" d="M767.81,829.67S797,687.67,791.67,673Z"/><path class="cls-9" d="M935.67,557S897,651,898.33,673Z"/><path class="cls-11" d="M893,760.68s51.33-119.68,51.33-139Z"/><path class="cls-9" d="M918.67,757.43c-.34,1.57-18.06,96-16.53,106.79Z"/><path class="cls-12" d="M983.64,810.84l-.89,16.85L980.4,805.8l-.51,9.77L978,830.66l1.15-1.82L978,852.13l-2.23,42.37-.15,2.94c-.87,16.65-13.22,78.23-29.87,79.1l-9.47.5L716.85,988.59l-1.4.07h0L516,999.16l-14.33.75a32.51,32.51,0,0,1-3.42,0l-10.68-.56L282.67,988.56,143,981.2,63.28,977l-9-.47c-16.65-.87-30.92-62.45-31.79-79.1l-.75-14.31-.93-17.53-.16-3-1.53-29.09-.6-11.32h0l-.71-13.55L18,841.16l9-11.49-1-13.83,10.93-10.59,3.69-3.58L53,838.89l19.87-19.26L79.67,813l-4.29,15.82h0l-3.92,14.43L68,804.06l11.33,40.07.7-.56L87,838.12l5.91-4.67,11-8.7,1.14-.9,1.42-1.12,4.34-3.44,4-3.18,19-14.88,4.33,41.38h0v0L151,816.11l4.48-14.6,1.56,9.67,4.79,33.32,13.89-54.2L179,777.48v52.19l3.55-7.76,2.4-5.26,5.57-12.17.48-3.31v.06l3.17-3,8.89,40.89L231.12,813l10.25-14.45,8.84,35.54,27.49-44.42,4.89,15.15L293,837.07l22.56-39.92,2.44-4.32,2.13,5.22,18.91.5,33.79,22.55-8.78,20.48v.09l8.13-7.14,16.3-14.31,1.31-1.15,13.45-11.82,3.63-3.19v40.22l2.65-4,7-10.73h0l26.27,9.71,1.84-2.81,10.92-16.63.68-22.17.4,6.46,2.56-4.26,9,34.92,9.93-16.54,7.09-11.81,6.49-10.8,9.84,21,15.86-12.47L546,813.41l12-16.94h0l.63-.89L565.45,812l13.47-13.49,2.61,45.08L599,809.75l.21-.4,7.12-13.78-1.15,13-.76,8.71L599.37,816l5.87,8.78s23.75,16.06,28.42,12.39c.57-.46.87-.48.82,0-.22,2.25-2.11-36.17-3-26.28-1.08,11.32-2.14,22.68-2.14,22.68l16.8-25.08,19.11,21.18-1,7.18,8-13.62L698,829.67l.43-25.37L700,830.66s12.38,30.42,23.21,13.73h0c3.27-5,6.48-9.93,9.31-14.23,6-9,10.22-15.31,9.78-14-1,2.8-5.44-12.22-7.35,6.26v.06c-.74,7.19-1.24,12.14-1.24,12.14l16.13-26.85,4.32-7.19,14,26.55h0l.2-.33,21.3-35.46,8.29-13.8,2.6,15,7.16,41.41v0L809,798.55v12.63l33,9.92s-38,42.63-6,.63q5.16-6.78,9.19-12.44c.95-1.31,1.85-2.56,2.71-3.78v0c.88-1.26,1.71-2.47,2.51-3.63C867.44,777,867.37,820.65,869,828c1.34,6,2.78-30.21,4.23-22.9.72,3.62,1.2,6.08,1.2,6.08s1.9-2.74,5-7.13l1.09-1.52c6.38-8.91,17.8,25.05,27.85,12.68l1.64-2h0c2.29-2.79,4.56-5.46,6.73-7.91,9.55-10.76,17.38-17.42,18.9-12.47.91,3,2.08,7.36,3.34,12.39.77,3.06,1.58,6.37,2.39,9.77h0c4.21,17.52,7.6-10.94,7.6-10.94Z"/><path class="cls-13" d="M978,852.13l-2.23,42.37-.15,2.94c-.87,16.65-13.22,78.23-29.87,79.1l-9.47.5L716.85,988.59l-1.4.07h0L516,999.16l-14.33.75a32.51,32.51,0,0,1-3.42,0l-10.68-.56L282.67,988.56,143,981.2,63.28,977l-9-.47c-16.65-.87-30.92-62.45-31.79-79.1l-.75-14.31-.93-17.53-.16-3-1.53-29.09-.6-11.32h0l-.71-13.55L26,830.67l10.93-25.42,2.8-6.52s.33,1.15.89,2.94c2.35,7.54,8.69,26.52,11.11,20.06,1-2.79,2.82-8.06,4.69-13.73,3.49-10.59,8.27,25.67,8.27,25.67L62,808.06l9.42,35.2,5.64-8.71.57-.88.88,5.42.82,5,2.38-27.66,1.61-10.05h0L87,838.12l2-12.79s1.58,3.38,3.87,8.12c5.56,11.53,14.32-17.2,15.5-19.07.73-1.15-.09,35.39-2.33,22.49v-.06c-.34-1.93-.69-3.86-1-5.81s-.76-4.2-1.14-6.25c-2.3-12.61-4.45-23.48-4.45-23.48l5.59,8.88,1.56,2.47,4.2,6.67L127,798.4l3.67,15.38,6.18-10.57L143,842.67l-1-28,13.44-13.15,6.35,43,.17-.17,7-27.86,13.51,5.44,2.12-7.24.28,2,4.55-9.92,1.75-3.17,2.92-5.29,7.16,37.06,1.73,3.83,8.31-27.76s3.3,26.6,6.63,31.27,13.42-21.61,13.42-21.61l14.29-15.66L258,827.06l7.68-29.1,3.39,39,3.39-38.4.55,1.26,7.32,16.61L296,798.06l6.67,22,15.66,9.67,16-13.26,10.34,43.72,19.34-18.61,7.82-7.52.3.47,8.87,14L389,821.79l.81-2.72,4.93-16.67,8.52,4.85,3.63,2.06,1.95,1.11,1.86,1.06L416.5,829l10.13-15.63L440.25,833l.45-1,.51,1.75h0l1.6,5.46,7.33-20.15,15-12.46-8.5,22.13,6.53-3.73,17.31-9.87,20.12-11.47,5.19,22.56,34.86,13.45L545,826.22l23.31,8.11-1-10.92,23.32,16L585,873.31l21.89-34.16,3.11-4.86,12.33-30.63s.67,32.07,3,24.4c.94-3.07,3.43-10,6.08-17.17,3.95-10.73,9.22,26.22,9.22,26.22l5.44-28.62,2.6,8,15.55-19.74L667.37,807v0l4.93,16.25.06.18s22.3,13.92,23,17.92c.27,1.64,1.09-42,3.1-37,2.89,7.1,6.25,14.76,6.25,14.76l16.42,9.79h0l9.4-23.38,2.06,24.69,2.43-7.78v.06l14-23.7.84,9,2.49,26.57L763,823.36l3.85-4,12.95,22.26,22-14.79,10.6-7.14,22.67,75,10.19-85.44,3.41,27.78.11.52,1.7-35.73,5.91,27.91h0l5.35,25.28,5.23-22.69h0l6.29-27.26,4.72,32,2.59-34.54,6.17,23.88v0l3.13,12.12h0l2.2,8.5,2.59-7.14.69-1.92,11.39-31.43,11.14,27.32L921,841.7l39.33-29.57,4,52.6Z"/><path class="cls-14" d="M975.73,894.5l-.15,2.94c-.87,16.65-13.22,78.23-29.87,79.1l-9.47.5L716.85,988.59l-1.4.07h0L516,999.16l-14.33.75a32.51,32.51,0,0,1-3.42,0l-10.68-.56L282.67,988.56,143,981.2,63.28,977l-9-.47c-16.65-.87-30.92-62.45-31.79-79.1l-.75-14.31-.93-17.53-.16-3L26,853.22l2.54,3.6L34,864.63l10.31-9.35h0l0,0,13-11.79,2.86,4.79h0l7.8,13,15.74-16.6h0l3.88-4.1,5.71-6v30.06l40.17-12.88.06,0,1.62-.52.49-.15L180,836.85l7.55,25.69v0L199,901.48l21.6-23.64h0l0,0,15.08-16.51,3,7.78.53,1.35,1,2.51,1,2.64,3.61-3.41h0l2.64-2.49,0,0,.09-.08,5.64-5.34v15.28l19.91-7.6h.05l.24-.09h0l.19-.07L301,861.3,304.79,874v0l8.14-25.6,11.43-21.74s17.5,21.64,17.52,21.63l8.81-26.17L366,842.05l14.27-14.67,25.65,11,5.75,22.92,0,0,5.35-50.12,13.16,38.31L458,835.27s-6.22,20.17,1.49,15.15h0c6.2-4,12.16-7.5,13.5-6.94,1.16.48,3.92,2,6.88,3.75h0C484.67,850,490.52,827,490.52,827S496,848.31,504,843.88c.59-.33,1.2-.66,1.81-1l.94-.49,1-.52.89-.43,1.09-.5,1.29-.57c.44-.2.89-.39,1.34-.55l1.05-.42.93-.34c.37-.14.74-.26,1.11-.38s.58-.19.87-.27a7.76,7.76,0,0,1,.82-.25c.44-.13.89-.25,1.34-.36s.64-.16,1-.22l.87-.18c.32-.07.64-.12,1-.17s.64-.1,1-.13l.4,0c.38-.05.75-.08,1.12-.1s.86,0,1.28,0a18.26,18.26,0,0,1,3.07.25c.39.07.78.15,1.17.25a12.9,12.9,0,0,1,4.78,2.33c.37.29.75.58,1.12.84l.45.31s6.71-5.9,6.75-5.87c3.25,2.23-.14,9.46,2.9,10.14,9.49,2.1,28.67-6.08,28.67-6.08l-10.55,9.66L571,850l13.59-11.58,8.82,6.25,4.07,9.74,4.84,2.67,7-2.67s-8.26,16.5-5.86,14.8c5-3.55,12.84-8.87,13.52-7.9a8.69,8.69,0,0,1,.43,3.34c.09,4.26-.43,10.94-.43,10.94l8.61-29.48,0,0,2.74-9.39.9-3.09.23,2.86.54,6.82,1.44,18,8.85-11.94,0,0,12.71-17.17,7.42,8.18h0l.28.3L696,879.48l6.35-10.29L714,850.41l4.32,9.3.1.2,11.15,24,7.75-11.73,0,0,9.53-14.41,3.66,5.75,5.54,8.7,3.45-3.48h0l7.34-7.39,3.11,2.87,21.4,19.74,11.68,2.4,1.5-4.17.05-.12L812,861.3v26.79l20,27.58,15.64-18v-29l1.89,11.57L852,895.41l6.35-11.3L867,868.7l2.78,7.79,4.61,12.92,8.58-7.76h0l14.32-12.95c1.92,2,3.85,4,5.79,5.94a328.08,328.08,0,0,0,40.24,33.84v-36.3l11.46,8.61.21.15v15.48a62.54,62.54,0,0,1,5.27-11.35c2.36-3.68,5.11-5.89,7.34-1.91.14.23.26.48.39.75C969.43,886.92,972.29,890.68,975.73,894.5Z"/><path class="cls-9" d="M28.52,856.82c-1.51.57-4.35,4-7.7,8.78l-.16-3L26,853.22Z"/><path class="cls-9" d="M57.37,843.47l2.86,4.79c-2.82-2-15.87,7-15.87,7h0Z"/><path class="cls-9" d="M83.8,844.69l9.59-10.12v7.91C93.39,838.09,84.22,844.39,83.8,844.69Z"/><path class="cls-9" d="M180,836.85l7.55,25.69c-9.26-22.45-43-14.13-51.86-11.48Z"/><path class="cls-9" d="M235.77,861.29l3,7.78c-3.11-3.92-17.29,8-18.13,8.73Z"/><path class="cls-9" d="M239.35,870.42l1,2.51A4.82,4.82,0,0,1,239.35,870.42Z"/><path class="cls-9" d="M245,872.15l2.64-2.49A18.86,18.86,0,0,1,245,872.15Z"/><path class="cls-9" d="M247.76,869.54l5.64-5.34v7C253.4,865.22,248.5,869,247.76,869.54Z"/><path class="cls-9" d="M301,861.3,304.79,874c-3.49-11.68-28.15-3.27-31.16-2.2Z"/><polygon class="cls-9" points="629.3 833.57 630.08 843.25 625.66 846.05 629.3 833.57"/><path class="cls-9" d="M653.11,832.15l7.42,8.18c-5.54-6.06-20.16,9-20.16,9Z"/><path class="cls-9" d="M714,850.41l4.32,9.3c-1.92-4.15-15.9,9.48-15.9,9.48Z"/><path class="cls-9" d="M746.84,857.73l3.66,5.75c-4.13-2.41-12.59,7.93-13.19,8.66Z"/><path class="cls-9" d="M766.85,861.3l3.11,2.87c-3.36.48-10,4.27-10.45,4.52Z"/><path class="cls-9" d="M804.59,882,812,861.3v10.88C809.92,869.77,805.13,880.77,804.59,882Z"/><path class="cls-9" d="M847.68,868.7l1.89,11.57c-1.48-1.72-1.89,11.29-1.89,11.29Z"/><path class="cls-9" d="M867,868.7l2.78,7.79c-3.47-2.25-11.43,7.62-11.43,7.62Z"/><path class="cls-9" d="M897.34,868.7c1.92,2,3.85,4,5.79,5.94-2.6-2.55-19.63,6.74-20.11,7Z"/><path class="cls-9" d="M943.37,872.18l11.46,8.61c-5.23-3.52-11.46,13.69-11.46,13.69Z"/><path class="cls-9" d="M967.65,883.16a14.69,14.69,0,0,0-7.34,1.91C962.67,881.39,965.42,879.18,967.65,883.16Z"/><path class="cls-11" d="M143,981.2,63.28,977l-9-.47c-16.65-.87-30.92-62.45-31.79-79.1l-.75-14.31C33.22,895.32,64.73,965.42,143,981.2Z"/><path class="cls-11" d="M516,999.16l-14.33.75a32.51,32.51,0,0,1-3.42,0l-10.68-.56Z"/><path class="cls-6" d="M118.9,200.69c0,.82,0,1.64,0,2.46A70.45,70.45,0,0,1,56,270.75a72,72,0,0,1-7.53.4,70.16,70.16,0,0,1-35.89-9.82l.37-6.88h0l2.44-46.39.56-10.72L17,177.45h0L18.32,152l.81-15.41q3-1.38,6.15-2.47t6.15-1.83h0a70.48,70.48,0,0,1,15.2-2.05l1.81,0a70.21,70.21,0,0,1,16.38,1.92c1.49.35,3,.75,4.42,1.2,1,.31,2,.65,3,1a65,65,0,0,1,6.09,2.52A70.44,70.44,0,0,1,118.9,200.69Z"/><path class="cls-6" d="M64.85,130.24c0,.64,0,1.28,0,1.92a70.78,70.78,0,0,1-1.24,11.37c-.2,1.1-.44,2.19-.7,3.27a68.74,68.74,0,0,1-2.42,7.94,70.4,70.4,0,0,1-10.76,19.15v0a70.68,70.68,0,0,1-9.9,10.19,0,0,0,0,0,0,0c-1.09.93-2.2,1.82-3.34,2.66-.44.33-.87.65-1.31.95a69.75,69.75,0,0,1-19.21,9.61L17,177.45h0L18.32,152l.81-15.41.42-8,1.32-25.06c0-.2-.06-.39-.08-.59l.12-.09,1.94-36.92-.34-.29.35.15h0a70.54,70.54,0,0,1,28.48,23A70.1,70.1,0,0,1,64.85,130.24Z"/><path class="cls-6" d="M37.83,200.69a70.33,70.33,0,0,1-3.15,20.89,70.48,70.48,0,0,1-21.75,32.86l2.44-46.39.56-10.72L17,177.45h0L18.32,152A70.84,70.84,0,0,1,29.16,166.8c1.09,2,2.09,4,3,6.14h0a69.34,69.34,0,0,1,4.3,13.82,70.29,70.29,0,0,1,1.37,13.39v0C37.83,200.35,37.83,200.52,37.83,200.69Z"/><path class="cls-6" d="M74.84,197.38a70.11,70.11,0,0,1-7.13,30.92c-.76,1.55-1.57,3.07-2.45,4.55a70.32,70.32,0,0,1-10.44,13.72q-2.15,2.2-4.49,4.22a70.23,70.23,0,0,1-28.94,15,68.9,68.9,0,0,1-9.15,1.63l.32-6.06.37-6.88h0l2.44-46.39.56-10.72L17,177.45h0L18.32,152l.81-15.41.42-8q2.58.56,5.07,1.32a69.63,69.63,0,0,1,6.81,2.42h0a69.28,69.28,0,0,1,13.12,7.2,70.47,70.47,0,0,1,13.29,12c.06.07.12.13.17.2.85,1,1.66,2,2.45,3a68.89,68.89,0,0,1,4.46,6.61v0a69.78,69.78,0,0,1,9.83,32.56s0,0,0,0C74.81,195.08,74.84,196.22,74.84,197.38Z"/><circle class="cls-6" cx="108.28" cy="200.69" r="70.45"/><circle class="cls-6" cx="118.9" cy="187.18" r="70.45"/><circle class="cls-6" cx="189.36" cy="200.69" r="70.45"/><path class="cls-6" d="M135.31,157.9a70.16,70.16,0,0,1-16.37,45.15l-.08.1A70.36,70.36,0,0,1,67.71,228.3c-.95,0-1.9.06-2.86.06s-2.12,0-3.17-.07a70.45,70.45,0,0,1-18-3.17c-.56-.18-1.12-.36-1.68-.56h0a67.26,67.26,0,0,1-7.3-3,70.25,70.25,0,0,1-19.31-13.53l.56-10.72L17,177.45h0L18.32,152l.81-15.41.42-8,1.32-25.06c0-.2-.06-.39-.08-.59l.12-.09A70.23,70.23,0,0,1,41.66,91.36a69.32,69.32,0,0,1,9.68-2.61A70.48,70.48,0,0,1,131.16,134a69.94,69.94,0,0,1,4.11,21.5C135.3,156.32,135.31,157.11,135.31,157.9Z"/><circle class="cls-6" cx="135.31" cy="157.9" r="70.45"/><path class="cls-6" d="M47.47,119.42a70.38,70.38,0,0,1-.83,10.84,68.94,68.94,0,0,1-2.08,9.25,70.18,70.18,0,0,1-13.91,25.6c-.49.57-1,1.14-1.49,1.69A70.18,70.18,0,0,1,17,177.44L18.32,152l.81-15.41.42-8,1.32-25.06c0-.2-.06-.39-.08-.59l.12-.09,1.94-36.92A70.58,70.58,0,0,1,41.66,91.36,70.19,70.19,0,0,1,47.47,119.42Z"/></g><rect id="BG-2" data-name="BG" class="cls-1" width="1000" height="1000"/></g></g></svg>