<svg xmlns="http://www.w3.org/2000/svg" xmlns:xlink="http://www.w3.org/1999/xlink" viewBox="0 0 1000 1000"><defs><style>.cls-1{fill:none;}.cls-2{fill:url(#linear-gradient);}.cls-3{fill:#fff;}.cls-4{fill:#f6e61f;}.cls-5{fill:#d8c50e;}.cls-6{fill:#a1bbc8;}.cls-7{fill:#c3d5df;}.cls-8{fill:#dce8f4;}</style><linearGradient id="linear-gradient" x1="500" y1="3.1" x2="500" y2="998.09" gradientUnits="userSpaceOnUse"><stop offset="0" stop-color="#003455"/><stop offset="1" stop-color="#94cbff"/></linearGradient></defs><g id="Layer_2" data-name="Layer 2"><g id="OutPut"><rect id="BG" class="cls-1" width="1000" height="1000"/></g><g id="Bachground"><g id="_9" data-name="9"><g id="_9-2" data-name="9"><path class="cls-2" d="M999.91,501.71l-.73,13.79-2.34,44.42-.06,1.09h0c.67.62,1.32,1.26,2,1.93-.69.1-1.38.22-2.07.35L996,575.72l0,.67-.2,3.81-1.12,21.36-1.15,21.71-.11,2.09-2.74,52.19-.12,2.28-.1,1.79-1,18.45-.38,7.13-.74,14.13-.09,1.71-.07,1.21h0l-.13,2.47-.45,8.53-1.27,24.15-.08,1.48h0l-.23,4.43-.15,2.94-.52,10,0,.29,0,.69-.09,1.8h0l-.69,13.05-.08,1.4v.06l-.11,2.22-2,38.38-1,19.18-.86,16.29-1.39,26.29-.44,8.38,0,.77-.26,4.93-.14,2.71-.2,3.72-.14,2.64-1.29,24.64c0,.53-.07,1.06-.12,1.58s-.1.88-.17,1.31a3.85,3.85,0,0,1-.07.49c0,.35-.11.7-.18,1s-.17.88-.28,1.32c-.06.25-.12.5-.19.75a8.48,8.48,0,0,1-.22.83c-.14.49-.3,1-.46,1.47-.25.74-.53,1.46-.83,2.17s-.62,1.41-1,2.09c-.18.38-.38.75-.59,1.11-.09.17-.19.34-.29.51l-.32.52c-.17.28-.34.56-.52.83-.35.56-.73,1.11-1.13,1.64l-.51.67-.21.27q-.36.47-.75.9c-.22.26-.45.52-.68.77s-.67.72-1,1.06-.7.68-1.06,1-.73.65-1.1,1c-.75.62-1.52,1.22-2.33,1.77q-.6.42-1.23.81t-1.05.63l-.21.13c-.43.24-.86.47-1.3.69s-.88.44-1.33.65-1,.44-1.53.64l-1.24.46c-.45.15-.91.3-1.37.43a31,31,0,0,1-3,.75c-.49.09-1,.18-1.48.25s-1,.14-1.53.19-1,.09-1.55.12l-18.12,1-3.8.2-7.42.39L901,978.9l-5.84.31-1.79.09-3.1.16-6,.31-6.63.35-19.49,1-15.09.79h0l-4.07.22-13.4.71L804.64,984l-4.59.24-7.4.39-7.94.41-8.66.46h0l-4.07.21-9.84.52-1.65.09-3,.16h0L734,987.68l-38.29,2-1.65.08-18.66,1h0l-4.87.25-15.66.83-11.3.6h0l-7.5.39-5.33.28-2.44.13-26.87,1.41-42.18,2.22-6.73.36-21.94,1.15-28.64,1.51h-.22c-.73,0-1.45.05-2.18,0h-.59l-.65,0-1,0-10.52-.55L480.6,999h-.15l-5.62-.3-6.59-.34c-.77.26-1.54.51-2.32.75l1.14-.81-18.23-1-.88,0-4.46-.23h0l-7.31-.39L414,995.48,404,995l-28.34-1.49-5.42-.29-1.92-.1-2.4-.13-7.32-.39-31.84-1.67v0l-10.17-.54-7-.36h0l-14.13-.75h0l-2.56-.13-1.13-.06h0l-31.55-1.66-23.52-1.24-4-.21-19.41-1-9.94-.52h0l-4-.21-13.92-.73-6.31-.33h0l-12.21-.64-2.58-.14-39.65-2.09-7.53-.39-44.26-2.33-7-.37L62.5,977l-.92-.05-6.72-.35-.57,0c-.52,0-1-.07-1.55-.12s-1-.11-1.53-.19-1-.16-1.51-.26-.88-.18-1.32-.29l-.79-.2-.8-.22-.18-.06c-.4-.11-.8-.24-1.19-.37l-.41-.15-1-.36c-.35-.14-.7-.28-1-.43l-.23-.1c-.23-.1-.47-.21-.7-.33l-.77-.37a2.49,2.49,0,0,1-.28-.15c-.3-.15-.59-.3-.87-.47s-.35-.19-.52-.29c-.33-.18-.65-.38-1-.58s-.83-.53-1.23-.81-.7-.5-1.05-.76l-.28-.21c-.34-.26-.67-.53-1-.8s-.74-.64-1.1-1-.71-.66-1.06-1-.68-.7-1-1.06-.52-.57-.76-.87a5.07,5.07,0,0,1-.37-.44l-.25-.3-.25-.32a4.4,4.4,0,0,1-.38-.5c-.19-.24-.37-.49-.54-.74a3.13,3.13,0,0,1-.29-.42c-.2-.28-.39-.56-.56-.84a3,3,0,0,1-.21-.33c-.16-.25-.31-.5-.46-.76s-.23-.38-.34-.58l-.14-.25c-.13-.24-.26-.49-.38-.74a.76.76,0,0,1-.09-.18q-.16-.3-.3-.6c-.16-.32-.31-.65-.45-1s-.36-.83-.53-1.26c0-.12-.1-.25-.14-.38-.13-.34-.26-.69-.38-1a.07.07,0,0,1,0-.05q-.23-.66-.42-1.35c-.14-.46-.26-.93-.38-1.41a31.17,31.17,0,0,1-.78-4.86h0c0-.35-.06-.7-.08-1.06l-.5-9.5-.28-5.32-.94-18-.21-.06.2-.09-.3-5.68L20.1,881.77l-1.28-24.35,0-.3-.42-8-.54-10.33,0-.34-.13-2.54-.06-1.09v-.22l-.34-6.53-.17-3.33-.28-5.24-.15-2.78-.21-4-.2-3.73-.11-2-.42-7.79-.15-2.82-.09-1.82,0-.52-.68-13-.26-4.91L13.4,754.64l-.58-10.94-.17-3.26-.09-1.7-.28-5.43-.43-8.14-.95-18-.16-3.1-.28-5.39,0-.68-1.09-20.7-.16-3.07L9,670.07l0-.91-.19-3.7-1.26-24-.17-3.22-.37-6.91-.12-2.24V629l-.7-13.25-1.27-24.2-.6-11.35L1.61,530.67l-1.52-29a32.51,32.51,0,0,1,0-3.42l1-19,.85-16.14.8-15.24L6.26,381l2.17-41.22L16.1,194.13,23.46,54.29A32.58,32.58,0,0,1,54.29,23.46l136.59-7.19,48-2.53h0L496.2.2l2.09-.11a32.51,32.51,0,0,1,3.42,0l2.35.12h0L945.71,23.46a32.58,32.58,0,0,1,30.83,30.83l7.38,140.29,5,94.6L990,309.94l4.32,81.93,3.52,66.85.22,4.21.21,4,0,.8,1.61,30.53A32.51,32.51,0,0,1,999.91,501.71Z"/><circle class="cls-3" cx="403.45" cy="129.37" r="2.75"/><circle class="cls-3" cx="206.09" cy="360.49" r="2.75"/><circle class="cls-3" cx="28.34" cy="210.03" r="2.75"/><circle class="cls-3" cx="24.73" cy="107.29" r="2.75"/><circle class="cls-3" cx="63.06" cy="96.12" r="2.75"/><circle class="cls-3" cx="162.4" cy="61.45" r="2.75"/><circle class="cls-3" cx="52.06" cy="34.12" r="2.75"/><circle class="cls-3" cx="259.23" cy="36.87" r="2.75"/><circle class="cls-3" cx="296.4" cy="88.04" r="2.75"/><circle class="cls-3" cx="357.06" cy="120.04" r="2.75"/><circle class="cls-3" cx="391.9" cy="17.87" r="2.75"/><circle class="cls-3" cx="444.23" cy="61.04" r="2.75"/><circle class="cls-3" cx="487.06" cy="22.37" r="2.75"/><circle class="cls-3" cx="516.4" cy="60.37" r="2.75"/><circle class="cls-3" cx="556.06" cy="110.04" r="2.75"/><circle class="cls-3" cx="478.2" cy="120.04" r="2.75"/><circle class="cls-3" cx="573.9" cy="50.04" r="2.75"/><circle class="cls-3" cx="617.9" cy="66.54" r="2.75"/><circle class="cls-3" cx="617.9" cy="145.04" r="2.75"/><circle class="cls-3" cx="689.4" cy="161.04" r="2.75"/><circle class="cls-3" cx="667.4" cy="202.87" r="2.75"/><circle class="cls-3" cx="141.63" cy="507.87" r="2.75"/><circle class="cls-3" cx="672.9" cy="89.54" r="2.75"/><circle class="cls-3" cx="786.4" cy="134.2" r="2.75"/><circle class="cls-3" cx="825.73" cy="88.37" r="2.75"/><circle class="cls-3" cx="774.65" cy="51.37" r="2.75"/><circle class="cls-3" cx="848.98" cy="31.37" r="2.75"/><circle class="cls-3" cx="937.31" cy="51.37" r="2.75"/><circle class="cls-3" cx="888.81" cy="124.54" r="2.75"/><circle class="cls-3" cx="977.4" cy="151.7" r="2.75"/><circle class="cls-3" cx="895.9" cy="162.2" r="2.75"/><circle class="cls-3" cx="931.9" cy="211.7" r="2.75"/><circle class="cls-3" cx="919.56" cy="252.7" r="2.75"/><circle class="cls-3" cx="856.9" cy="276.7" r="2.75"/><circle class="cls-3" cx="802.96" cy="219.85" r="2.75"/><ellipse class="cls-3" cx="811.97" cy="308.12" rx="2.74" ry="2.51"/><circle class="cls-3" cx="746.72" cy="333.06" r="2.75"/><ellipse class="cls-3" cx="685.31" cy="276.7" rx="2.74" ry="2.51"/><circle class="cls-3" cx="655.89" cy="330.31" r="2.75"/><circle class="cls-3" cx="722.22" cy="403.46" r="2.75"/><circle class="cls-3" cx="664.47" cy="432.46" r="2.75"/><circle class="cls-3" cx="545.07" cy="431.08" r="2.75"/><circle class="cls-3" cx="689.34" cy="505.28" r="2.75"/><circle class="cls-3" cx="635.93" cy="592.89" r="2.75"/><circle class="cls-3" cx="771.72" cy="431.08" r="2.75"/><circle class="cls-3" cx="824.72" cy="391.33" r="2.75"/><circle class="cls-3" cx="889.85" cy="487.08" r="2.75"/><circle class="cls-3" cx="936.73" cy="612.42" r="2.75"/><circle class="cls-3" cx="863.51" cy="542.03" r="2.75"/><circle class="cls-3" cx="882.23" cy="617.9" r="2.75"/><circle class="cls-3" cx="811.97" cy="507.32" r="2.75"/><circle class="cls-3" cx="712.48" cy="566.9" r="2.75"/><circle class="cls-3" cx="947.1" cy="462.21" r="2.75"/><circle class="cls-3" cx="957.57" cy="497.56" r="2.75"/><circle class="cls-3" cx="954.82" cy="532.9" r="2.75"/><circle class="cls-3" cx="927.04" cy="394.55" r="2.75"/><circle class="cls-3" cx="865.93" cy="373.38" r="2.75"/><circle class="cls-3" cx="960.05" cy="356.26" r="2.75"/><circle class="cls-3" cx="800.35" cy="458.58" r="2.75"/><circle class="cls-3" cx="452.2" cy="711.65" r="2.75"/><circle class="cls-3" cx="378.42" cy="615.22" r="2.75"/><circle class="cls-3" cx="501.05" cy="617.26" r="2.75"/><circle class="cls-3" cx="489.43" cy="568.52" r="2.75"/><circle class="cls-3" cx="510.26" cy="306.37" r="2.75"/><circle class="cls-3" cx="606.37" cy="394.55" r="2.75"/><circle class="cls-3" cx="361.76" cy="494.81" r="2.75"/><circle class="cls-3" cx="350.14" cy="446.07" r="2.75"/><circle class="cls-3" cx="418.14" cy="418.75" r="2.75"/><circle class="cls-3" cx="366.68" cy="184.74" r="2.75"/><circle class="cls-3" cx="452" cy="206.79" r="2.75"/><circle class="cls-3" cx="281.76" cy="367.53" r="2.75"/><circle class="cls-3" cx="270.14" cy="318.79" r="2.75"/><circle class="cls-3" cx="486.91" cy="443.65" r="2.75"/><circle class="cls-3" cx="529.48" cy="209.2" r="2.75"/><circle class="cls-3" cx="110.63" cy="307.74" r="2.75"/><circle class="cls-3" cx="99.01" cy="259" r="2.75"/><circle class="cls-3" cx="65.48" cy="308.12" r="2.75"/><circle class="cls-3" cx="31.09" cy="321.3" r="2.75"/><circle class="cls-3" cx="99.01" cy="164.95" r="2.75"/><circle class="cls-3" cx="310.67" cy="161.65" r="2.75"/><circle class="cls-3" cx="393.31" cy="284.13" r="2.75"/><circle class="cls-3" cx="381.69" cy="235.38" r="2.75"/><circle class="cls-3" cx="431.84" cy="534.85" r="2.75"/><circle class="cls-3" cx="515.45" cy="505.28" r="2.75"/><circle class="cls-3" cx="159.48" cy="677.71" r="2.75"/><circle class="cls-3" cx="191.96" cy="702.66" r="2.75"/><circle class="cls-3" cx="314.59" cy="704.7" r="2.75"/><circle class="cls-3" cx="302.97" cy="655.96" r="2.75"/><circle class="cls-3" cx="300.45" cy="531.09" r="2.75"/><circle class="cls-3" cx="266.26" cy="608.56" r="2.75"/><circle class="cls-3" cx="620.13" cy="531.64" r="2.75"/><circle class="cls-3" cx="608.51" cy="482.9" r="2.75"/><circle class="cls-3" cx="574.98" cy="532.01" r="2.75"/><circle class="cls-3" cx="359.24" cy="369.94" r="2.75"/><circle class="cls-3" cx="347.63" cy="321.2" r="2.75"/><circle class="cls-3" cx="306.8" cy="252.7" r="2.75"/><circle class="cls-3" cx="267.63" cy="193.92" r="2.75"/><circle class="cls-3" cx="17.39" cy="481.71" r="2.75"/><circle class="cls-3" cx="39.13" cy="509.41" r="2.75"/><circle class="cls-3" cx="443.01" cy="304.01" r="2.75"/><circle class="cls-3" cx="800.35" cy="547.42" r="2.75"/><circle class="cls-3" cx="756.1" cy="609.67" r="2.75"/><circle class="cls-3" cx="933.96" cy="294.02" r="2.75"/><circle class="cls-3" cx="960.84" cy="322.53" r="2.75"/><ellipse class="cls-3" cx="760.24" cy="259.35" rx="2.74" ry="2.51"/><ellipse class="cls-3" cx="603.11" cy="308.87" rx="2.74" ry="2.51"/><ellipse class="cls-3" cx="145.73" cy="318.79" rx="2.74" ry="2.51"/><ellipse class="cls-3" cx="504.9" cy="256.83" rx="2.74" ry="2.51"/><circle class="cls-3" cx="60.31" cy="580.86" r="2.75"/><circle class="cls-3" cx="502.15" cy="363.24" r="2.75"/><circle class="cls-3" cx="216.37" cy="559.6" r="2.75"/><circle class="cls-3" cx="123.43" cy="617.25" r="2.75"/><circle class="cls-3" cx="80.81" cy="655.1" r="2.75"/><circle class="cls-3" cx="152.76" cy="129.37" r="2.75"/><circle class="cls-3" cx="206.09" cy="148.37" r="2.75"/><circle class="cls-3" cx="200.59" cy="235.78" r="2.75"/><path class="cls-4" d="M309,422.47c-.51.24-1,.47-1.56.7l-.83.37-.68.29-.41.17c-.49.22-1,.43-1.49.63l-1.76.71-1.8.7-1.26.48-1.28.46-1.15.41c-.69.25-1.38.49-2.09.72q-1.32.45-2.67.87l-2.57.79-2.52.73a4.27,4.27,0,0,1,.25,1.46c0,4.39-6.49,8-14.5,8-5.56,0-10.38-1.71-12.81-4.23l-2,.2-2,.18c-.39,0-.77.07-1.17.09l-.88.06a1.1,1.1,0,0,1-.26,0c-.57,0-1.14.08-1.71.1h-.12l-2.09.1-2.06.07-1.77,0a141.86,141.86,0,0,1-38.3-4.52c-25.79-6.79-51.45-21.94-72.66-50.12a92.26,92.26,0,0,1-14.34-27.53c-6.3-.86-11-4-11-7.71,0-3,3.07-5.64,7.59-7-9.28-63.78,47.58-128.19,47.58-128.19-36.35,7.93-63.52,28.68-81.66,55,2.24.75,3.74,2.1,3.74,3.64,0,2.35-3.47,4.25-7.75,4.25-.35,0-.7,0-1,0C58,307.59,51.4,348,58,382.42c4.32,1.38,7.23,3.94,7.23,6.88,0,2.18-1.6,4.15-4.2,5.59a112.2,112.2,0,0,0,4.19,11.64h0c.21.52.44,1,.67,1.54s.35.79.53,1.18c.27.6.55,1.19.84,1.78s.47,1,.72,1.47c.12.26.25.52.39.77l.4.77q.42.81.87,1.62c.28.51.55,1,.84,1.5a1,1,0,0,0,.1.17c.29.51.59,1,.89,1.51s.63,1,1,1.56c.91,1.45,1.86,2.86,2.85,4.25,71.53,100.31,214.41,29.8,240-5.28C313.31,420.43,311.21,421.46,309,422.47ZM139.48,437c-3.45,0-6.25-2-6.25-4.38s2.8-4.37,6.25-4.37,6.25,2,6.25,4.37S142.93,437,139.48,437Z"/><path class="cls-5" d="M315.28,419.38c-25.62,35.08-168.5,105.59-240,5.28-1-1.39-1.94-2.8-2.85-4.25-.32-.52-.64-1-1-1.56s-.6-1-.89-1.51a1,1,0,0,1-.1-.17c-.29-.5-.56-1-.84-1.5s-.59-1.08-.87-1.62l-.4-.77c-.14-.25-.27-.51-.39-.77q-.37-.72-.72-1.47c-.29-.59-.57-1.18-.84-1.78-.18-.39-.36-.79-.53-1.18s-.46-1-.67-1.54c1.57.88,135,75.58,142.25,25.49a141.86,141.86,0,0,0,38.3,4.52l1.77,0c.69,0,1.38,0,2.06-.07s1.39-.06,2.09-.1h.12c.57,0,1.14-.06,1.71-.1a1.1,1.1,0,0,0,.26,0c.3,0,.59,0,.88-.06s.78,0,1.17-.09c.69-.05,1.36-.1,2-.18s1.36-.12,2-.2c2.43,2.52,7.25,4.23,12.81,4.23,8,0,14.5-3.56,14.5-8a4.27,4.27,0,0,0-.25-1.46l2.52-.73L292,429q1.35-.42,2.67-.87c.7-.23,1.4-.47,2.09-.72l1.15-.41,1.28-.46,1.26-.48c.61-.23,1.21-.46,1.8-.7l1.76-.71c.51-.2,1-.41,1.49-.63l.41-.17.68-.29.83-.37c.53-.23,1.05-.46,1.56-.7C311.21,421.46,313.31,420.43,315.28,419.38Z"/><path class="cls-6" d="M180.61,695.08A88.61,88.61,0,0,1,179.52,709c0,.27-.08.53-.13.8-.27,1.62-.58,3.22-.95,4.81a88.14,88.14,0,0,1-17.82,36.5h0l-.46.55a89,89,0,0,1-14.86,14.16,87.3,87.3,0,0,1-7.33,5,88.81,88.81,0,0,1-18.35,8.43c-1.05.35-2.12.67-3.19,1-.9.27-1.81.51-2.73.73a85.11,85.11,0,0,1-9.77,1.87h0a86,86,0,0,1-10.1.77H92.11c-1,0-1.89,0-2.83-.05-.61,0-1.2,0-1.8-.08-1.26-.05-2.52-.15-3.77-.27h0c-2.06-.19-4.08-.45-6.1-.79-1-.16-2-.35-3-.55a84.79,84.79,0,0,1-8.61-2.2h0a88.6,88.6,0,0,1-51.11-41.42h0c-.91-1.61-1.76-3.23-2.56-4.9l-.43-8.14-.95-18-.16-3.1-.28-5.39,0-.68-1.09-20.7-.16-3.07L9,670.07l0-.91-.19-3.7A87.7,87.7,0,0,1,19,645.19c1.61-2.35,3.32-4.61,5.15-6.79A88.38,88.38,0,0,1,40.75,623c.87-.63,1.76-1.23,2.65-1.82a88.09,88.09,0,0,1,48.71-14.61c.52,0,1,0,1.56,0a88,88,0,0,1,28.13,5.09h0a88.69,88.69,0,0,1,53.67,53.65,86.57,86.57,0,0,1,4.79,22.08Q180.62,691.21,180.61,695.08Z"/><path class="cls-6" d="M44.61,606.59c0,.81,0,1.61,0,2.41h0A85.76,85.76,0,0,1,43.4,621.2,84.25,84.25,0,0,1,40.88,632v0a85.54,85.54,0,0,1-5.26,13.42h0q-1.45,3-3.16,5.87A88.41,88.41,0,0,1,9.33,677.29l-.16-3.07L9,670.07l0-.91-.19-3.7-1.26-24-.17-3.22-.37-6.91-.12-2.24V629l-.7-13.25-1.27-24.2-.6-11.35L1.61,530.67a88.8,88.8,0,0,1,34,37A88.1,88.1,0,0,1,44.61,606.59Z"/><circle class="cls-6" cx="248.78" cy="743.45" r="88.5"/><circle class="cls-6" cx="395.29" cy="757.45" r="88.5"/><circle class="cls-6" cx="551.83" cy="763.63" r="88.5"/><circle class="cls-6" cx="716.63" cy="746.96" r="88.5"/><circle class="cls-6" cx="866.63" cy="722.29" r="88.5"/><path class="cls-6" d="M996.66,563.3,996,575.72l0,.67-.2,3.81-1.12,21.36-1.15,21.71-.11,2.09-2.74,52.19-.12,2.28-.1,1.79-1,18.45-.38,7.13-.74,14.13-.09,1.71-.07,1.21h0l-.13,2.47-.45,8.53A88,88,0,0,1,955,717.5h0a88.36,88.36,0,0,1-29.4-51.11c-.09-.48-.17-1-.25-1.45a87.48,87.48,0,0,1-1.06-9.79c-.1-1.59-.14-3.19-.14-4.8a88.54,88.54,0,0,1,72.53-87.05Z"/><path class="cls-7" d="M92.11,751.27a114.05,114.05,0,0,1-.88,14.16h0A109.27,109.27,0,0,1,88.92,778c-.16.71-.33,1.41-.52,2.1l0,.12c-.28,1.07-.58,2.14-.89,3.19a112.62,112.62,0,0,1-7.61,19.16,112.15,112.15,0,0,1-5.75,10q-1.7,2.63-3.52,5.15l0,0c-.14.2-.29.4-.44.59q-1.5,2.07-3.12,4.06l-.82,1h0c-1.32,1.59-2.67,3.15-4.08,4.66a112.21,112.21,0,0,1-12.49,11.68A113,113,0,0,1,32,851.44a110.41,110.41,0,0,1-13.19,6l0-.3-.42-8-.54-10.33,0-.34-.13-2.54-.06-1.09v-.22l-.34-6.53-.17-3.33-.28-5.24-.15-2.78-.21-4-.2-3.73-.11-2-.42-7.79-.15-2.82-.09-1.82,0-.52-.68-13-.26-4.91L13.4,754.64l-.58-10.94-.17-3.26-.09-1.7-.28-5.43-.43-8.14-.95-18-.16-3.1-.28-5.39,0-.68-1.09-20.7-.16-3.07L9,670.07l0-.91-.19-3.7-1.26-24A108.09,108.09,0,0,1,19,645.19a109,109,0,0,1,13.45,6.15,114,114,0,0,1,32.67,26.47,113.07,113.07,0,0,1,23.11,44A113.12,113.12,0,0,1,92.11,751.27Z"/><circle class="cls-7" cx="141.63" cy="821.98" r="113.49"/><circle class="cls-7" cx="302.87" cy="859.45" r="113.49"/><circle class="cls-7" cx="488.91" cy="864.76" r="113.49"/><circle class="cls-7" cx="657.14" cy="859.45" r="113.49"/><circle class="cls-7" cx="805.12" cy="828.01" r="113.49"/><path class="cls-7" d="M990.54,679.83l-.1,1.79-1,18.45-.38,7.13-.74,14.13-.09,1.71-.07,1.21h0l-.13,2.47-.45,8.53-1.27,24.15-.08,1.48h0l-.23,4.43-.15,2.94-.52,10,0,.29,0,.69-.09,1.8h0l-.69,13.05-.08,1.4v.06l-.11,2.22-2,38.38-1,19.18-.86,16.29-1.39,26.29-.44,8.38c-1.33,0-2.66,0-4-.12a112.92,112.92,0,0,1-68.18-27q-4.11-3.51-7.85-7.38a113.33,113.33,0,0,1-32-79c0-.26,0-.53,0-.79a113,113,0,0,1,18-60.65,111.4,111.4,0,0,1,9-12.07,113.59,113.59,0,0,1,39.56-29.86,112.76,112.76,0,0,1,27.89-8.52,113.3,113.3,0,0,1,19-1.59Q985.39,679.35,990.54,679.83Z"/><path class="cls-8" d="M978.57,907.07l-.26,4.93-.14,2.71-.2,3.72-.14,2.64-1.29,24.64c0,.53-.07,1.06-.12,1.58s-.1.88-.17,1.31a3.85,3.85,0,0,1-.07.49c0,.35-.11.7-.18,1s-.17.88-.28,1.32c-.06.25-.12.5-.19.75a8.48,8.48,0,0,1-.22.83c-.14.49-.3,1-.46,1.47-.25.74-.53,1.46-.83,2.17s-.62,1.41-1,2.09c-.18.38-.38.75-.59,1.11-.09.17-.19.34-.29.51l-.32.52c-.17.28-.34.56-.52.83-.35.56-.73,1.11-1.13,1.64l-.51.67-.21.27q-.36.47-.75.9c-.22.26-.45.52-.68.77s-.67.72-1,1.06-.7.68-1.06,1-.73.65-1.1,1c-.75.62-1.52,1.22-2.33,1.77q-.6.42-1.23.81t-1.05.63l-.21.13c-.43.24-.86.47-1.3.69s-.88.44-1.33.65-1,.44-1.53.64l-1.24.46c-.45.15-.91.3-1.37.43a31,31,0,0,1-3,.75c-.49.09-1,.18-1.48.25s-1,.14-1.53.19-1,.09-1.55.12l-18.12,1-3.8.2-7.42.39L901,978.9l-5.84.31a72.63,72.63,0,0,1,13.1-41.6c.87-1.26,1.79-2.5,2.75-3.7a72.87,72.87,0,0,1,57.16-27.59q3.2,0,6.33.28C975.84,906.71,977.21,906.87,978.57,907.07Z"/><path class="cls-8" d="M960.27,972.23l-.21.13c-.43.24-.86.47-1.3.69s-.88.44-1.33.65-1,.44-1.53.64l-1.24.46c-.45.15-.91.3-1.37.43a31,31,0,0,1-3,.75c-.49.09-1,.18-1.48.25s-1,.14-1.53.19-1,.09-1.55.12l-18.12,1-3.8.2-7.42.39L901,978.9l-5.84.31-1.79.09-3.1.16-6,.31-6.63.35-19.49,1-15.09.79h0l-4.07.22-13.4.71a73.06,73.06,0,0,1,79.92-50q2.76.39,5.46,1A73.11,73.11,0,0,1,960.27,972.23Z"/><path class="cls-8" d="M890.22,979.46l-6,.31-6.63.35-19.49,1-15.09.79h0l-4.07.22-13.4.71L804.64,984l-4.59.24-7.4.39-7.94.41-8.66.46h0l-4.07.21-9.84.52-1.65.09a73.24,73.24,0,0,1,22.63-28.37c.92-.7,1.85-1.37,2.81-2a73,73,0,0,1,104.3,23.56Z"/><path class="cls-8" d="M804.64,984l-4.59.24-7.4.39-7.94.41-8.66.46h0l-4.07.21-9.84.52-1.65.09-3,.16h0L734,987.68l-38.29,2-1.65.08-18.66,1h0l-4.87.25a69.32,69.32,0,0,1,3-7,71.48,71.48,0,0,1,8-12.7c.31-.41.63-.81,1-1.21a73,73,0,0,1,42.15-25.49,74.44,74.44,0,0,1,8.9-1.22c1.84-.14,3.7-.21,5.57-.21a72.69,72.69,0,0,1,44,14.75c.78.59,1.55,1.19,2.3,1.82A73,73,0,0,1,804.64,984Z"/><path class="cls-8" d="M786.34,948.08a72.2,72.2,0,0,1-.42,7.82q-.2,1.94-.51,3.84a72.45,72.45,0,0,1-9.36,25.73h0l-4.07.21-9.84.52-1.65.09-3,.16h0L734,987.68l-38.29,2-1.65.08-18.66,1h0l-4.87.25-15.66.83a72.85,72.85,0,0,1-4.29-6.4,71.23,71.23,0,0,1-6.18-13.23,72.16,72.16,0,0,1-4.06-21.74q0-.69,0-1.38c0-.34,0-.68,0-1a73,73,0,0,1,61.89-72.17,74.3,74.3,0,0,1,10.72-.84h.4A73.08,73.08,0,0,1,784,929.61a70.86,70.86,0,0,1,1.89,10.26A69.5,69.5,0,0,1,786.34,948.08Z"/><path class="cls-8" d="M728.74,920.45a72.63,72.63,0,0,1-4.1,24.15,69.17,69.17,0,0,1-3.71,8.72h0a73.2,73.2,0,0,1-29.74,30.95h0q-2.12,1.19-4.32,2.21a72.12,72.12,0,0,1-11.43,4.27h0l-4.87.25-15.66.83-11.3.6h0a73.1,73.1,0,0,1-50.89-35.19,72.26,72.26,0,0,1-3.61-7h0c-.67-1.51-1.29-3-1.87-4.58h0a72.52,72.52,0,0,1-4.07-17.61,70.69,70.69,0,0,1-.4-7.6,73.76,73.76,0,0,1,.84-11.09v0A73,73,0,0,1,696.08,859.6h0a73,73,0,0,1,32.65,60.85Z"/><circle class="cls-8" cx="579.88" cy="909.57" r="73.01"/><path class="cls-8" d="M588,934.58a73.63,73.63,0,0,1-.84,11.08h0c-.14.93-.3,1.86-.48,2.77a71.89,71.89,0,0,1-5.3,16.55,67.8,67.8,0,0,1-3.23,6.22A71.52,71.52,0,0,1,570.55,982a73.12,73.12,0,0,1-8.81,8.7,72.07,72.07,0,0,1-9.23,6.56l-21.94,1.15-28.64,1.51h-.22c-.73,0-1.45.05-2.18,0h-.59l-.65,0-1,0-10.52-.55L480.6,999q-2.3-1.23-4.48-2.61c-.38-.24-.76-.48-1.13-.73q-1.26-.82-2.49-1.71a73.69,73.69,0,0,1-20-21.66h0A73,73,0,0,1,544,867.53a73.29,73.29,0,0,1,39.61,41.8v0A73.17,73.17,0,0,1,588,934.58Z"/><path class="cls-8" d="M517.68,929.21a72.9,72.9,0,0,1-10.91,38.41c-.68,1.1-1.39,2.19-2.14,3.25a72.34,72.34,0,0,1-5.44,6.9,73.18,73.18,0,0,1-22,16.82c-.73.37-1.46.72-2.2,1a70.25,70.25,0,0,1-6.75,2.69c-.77.26-1.54.51-2.32.75l1.14-.81-18.23-1-.88,0-4.46-.23h0l-7.31-.39L414,995.48a71.7,71.7,0,0,1-7.68-4.14A73.08,73.08,0,0,1,375.11,907a71.41,71.41,0,0,1,4.62-11.16h0a73,73,0,0,1,128.84-2h0A72.61,72.61,0,0,1,517.68,929.21Z"/><path class="cls-8" d="M497.34,939.07a72.87,72.87,0,0,1-24.84,54.86,68.49,68.49,0,0,1-5.44,4.34l-18.23-1-.88,0-4.46-.23h0l-7.31-.39L414,995.48,404,995l-28.34-1.49a73.12,73.12,0,0,1-17.47-23.54,71.78,71.78,0,0,1-5.73-18.19A72.94,72.94,0,0,1,377,883.5c.56-.49,1.13-1,1.71-1.42a72.7,72.7,0,0,1,37.44-15.56,71.66,71.66,0,0,1,8.2-.46,73,73,0,0,1,73,73Z"/><path class="cls-8" d="M462.88,954.24c0,2-.08,3.91-.23,5.83A71.93,71.93,0,0,1,460,974.53q-.84,2.93-1.93,5.75a72.49,72.49,0,0,1-9.26,17l-.88,0-4.46-.23h0l-7.31-.39L414,995.48,404,995l-28.34-1.49-5.42-.29-1.92-.1-2.4-.13-7.32-.39-31.84-1.67v0A72.15,72.15,0,0,1,319,971.79c-.27-1.07-.51-2.16-.73-3.26A73.22,73.22,0,0,1,325,920.71c.62-1.22,1.28-2.41,2-3.58A73,73,0,0,1,376.8,882.4c.63-.12,1.26-.22,1.89-.32a73.07,73.07,0,0,1,10.94-.85h.24a73,73,0,0,1,73,73Z"/><path class="cls-8" d="M438.24,979.33a72.66,72.66,0,0,1-2.07,17.31L414,995.48,404,995l-28.34-1.49-5.42-.29-1.92-.1-2.4-.13-7.32-.39-31.84-1.67v0l-10.17-.54-7-.36h0l-14.13-.75h0l-2.56-.13a73.32,73.32,0,0,1-.65-9.77q0-3.47.32-6.86a72.34,72.34,0,0,1,7.07-25.17,73.2,73.2,0,0,1,23.6-27.68c1.23-.87,2.49-1.71,3.78-2.49a72.45,72.45,0,0,1,31.94-10.54q3.12-.27,6.3-.27a73.19,73.19,0,0,1,9.88.67,70.18,70.18,0,0,1,9.21,1.86,71.9,71.9,0,0,1,17,7h0A73.08,73.08,0,0,1,437,965.68c0,.13.06.26.08.4A73.13,73.13,0,0,1,438.24,979.33Z"/><path class="cls-8" d="M359.24,982.57a72.94,72.94,0,0,1-.68,10l-31.84-1.67v0l-10.17-.54-7-.36h0l-14.13-.75h0l-2.56-.13-1.13-.06h0l-31.55-1.66-23.52-1.24-4-.21-19.41-1c0-.78,0-1.55,0-2.33a72.65,72.65,0,0,1,12.1-40.27q1.86-2.81,4-5.42a73.47,73.47,0,0,1,15.78-14.6,73,73,0,0,1,78.15-2.66c.61.35,1.21.72,1.8,1.09a73.27,73.27,0,0,1,27.41,31,70.37,70.37,0,0,1,3.24,8.21,71.73,71.73,0,0,1,2.49,10A73.21,73.21,0,0,1,359.24,982.57Z"/><path class="cls-8" d="M326.72,990.88v0l-10.17-.54-7-.36h0l-14.13-.75h0l-2.56-.13-1.13-.06h0l-31.55-1.66-23.52-1.24-4-.21-19.41-1-9.94-.52h0l-4-.21-13.92-.73a73.23,73.23,0,0,1,37.29-43.68h0a70.23,70.23,0,0,1,6.59-2.88,72.75,72.75,0,0,1,22.89-4.64q1.46-.06,2.94-.06a72.72,72.72,0,0,1,44.5,15.12,73.53,73.53,0,0,1,18.65,21.23q.9,1.53,1.71,3.12h0A72.29,72.29,0,0,1,326.72,990.88Z"/><path class="cls-8" d="M262.39,969.51a72.66,72.66,0,0,1-2.21,17.87l-23.52-1.24-4-.21-19.41-1-9.94-.52h0l-4-.21-13.92-.73-6.31-.33h0l-12.21-.64-2.58-.14-39.65-2.09-7.53-.39a73.39,73.39,0,0,1,1.72-29.13,72.12,72.12,0,0,1,6.59-16.42q1.25-2.26,2.64-4.41a72.92,72.92,0,0,1,61.33-33.39q3.18,0,6.29.27a72.36,72.36,0,0,1,24.9,6.71,73,73,0,0,1,41.71,62C262.35,966.8,262.39,968.15,262.39,969.51Z"/><path class="cls-8" d="M180.61,939.83a72.59,72.59,0,0,1-13.75,42.64l-2.58-.14-39.65-2.09-7.53-.39-44.26-2.33-7-.37L62.5,977l-.92-.05-6.72-.35-.57,0c-.52,0-1-.07-1.55-.12s-1-.11-1.53-.19-1-.16-1.51-.26-.88-.18-1.32-.29l-.79-.2-.8-.22-.18-.06c-.4-.11-.8-.24-1.19-.37l-.41-.15-1-.36c-.35-.14-.7-.28-1-.43a73.09,73.09,0,0,1-8.42-34.06,72.77,72.77,0,0,1,2.77-20h0a73.16,73.16,0,0,1,15-27.76,73,73,0,0,1,116.12,7.46,72.39,72.39,0,0,1,11.3,29.33A73.45,73.45,0,0,1,180.61,939.83Z"/><path class="cls-8" d="M76.62,896.5a72.44,72.44,0,0,1-1.3,13.75c-.2,1.11-.44,2.21-.71,3.3a71.35,71.35,0,0,1-3.1,9.85A72.81,72.81,0,0,1,60.7,942a73,73,0,0,1-23,19.06,69.43,69.43,0,0,1-7.16,3.31l-.25-.32a4.4,4.4,0,0,1-.38-.5c-.19-.24-.37-.49-.54-.74a3.13,3.13,0,0,1-.29-.42c-.2-.28-.39-.56-.56-.84a3,3,0,0,1-.21-.33c-.16-.25-.31-.5-.46-.76s-.23-.38-.34-.58l-.14-.25c-.13-.24-.26-.49-.38-.74a.76.76,0,0,1-.09-.18q-.16-.3-.3-.6c-.16-.32-.31-.65-.45-1s-.36-.83-.53-1.26c0-.12-.1-.25-.14-.38-.13-.34-.26-.69-.38-1a.07.07,0,0,1,0-.05q-.23-.66-.42-1.35c-.14-.46-.26-.93-.38-1.41a31.17,31.17,0,0,1-.78-4.86h0c0-.35-.06-.7-.08-1.06l-.5-9.5-.28-5.32-.94-18-.21-.06.2-.09-.3-5.68L20.1,881.77l-1.28-24.35,0-.3-.42-8-.54-10.33,0-.34-.13-2.54-.06-1.09v-.22l-.34-6.53-.17-3.33a70.57,70.57,0,0,1,11.18,3,72.58,72.58,0,0,1,21.33,12,72.87,72.87,0,0,1,27,56.69Z"/><path class="cls-8" d="M124.64,979.33c0,.3,0,.61,0,.91l-7.53-.39-44.26-2.33-7-.37L62.5,977l-.92-.05-6.72-.35-.57,0c-.52,0-1-.07-1.55-.12s-1-.11-1.53-.19-1-.16-1.51-.26-.88-.18-1.32-.29l-.79-.2-.8-.22-.18-.06c-.4-.11-.8-.24-1.19-.37l-.41-.15-1-.36c-.35-.14-.7-.28-1-.43l-.23-.1c-.23-.1-.47-.21-.7-.33l-.77-.37a2.49,2.49,0,0,1-.28-.15c-.3-.15-.59-.3-.87-.47s-.35-.19-.52-.29c-.33-.18-.65-.38-1-.58s-.83-.53-1.23-.81-.7-.5-1.05-.76l-.28-.21c-.34-.26-.67-.53-1-.8s-.74-.64-1.1-1-.71-.66-1.06-1-.68-.7-1-1.06-.52-.57-.76-.87a5.07,5.07,0,0,1-.37-.44l-.25-.3-.25-.32a4.4,4.4,0,0,1-.38-.5c-.19-.24-.37-.49-.54-.74a3.13,3.13,0,0,1-.29-.42c-.2-.28-.39-.56-.56-.84a3,3,0,0,1-.21-.33c-.16-.25-.31-.5-.46-.76s-.23-.38-.34-.58l-.14-.25c-.13-.24-.26-.49-.38-.74a.76.76,0,0,1-.09-.18q-.16-.3-.3-.6c-.16-.32-.31-.65-.45-1s-.36-.83-.53-1.26c0-.12-.1-.25-.14-.38-.13-.34-.26-.69-.38-1a.07.07,0,0,1,0-.05q-.23-.66-.42-1.35c-.14-.46-.26-.93-.38-1.41a31.17,31.17,0,0,1-.78-4.86h0c0-.35-.06-.7-.08-1.06l-.5-9.5-.28-5.32-.94-18-.21-.06.2-.09a72,72,0,0,1,20.7-5.81,73.54,73.54,0,0,1,25.3,1.2,71,71,0,0,1,7.59,2.15A72.44,72.44,0,0,1,94.88,920.5a73.33,73.33,0,0,1,23.94,30.22A72.73,72.73,0,0,1,124.64,979.33Z"/><path class="cls-8" d="M72.84,977.52l-7-.37L62.5,977l-.92-.05-6.72-.35-.57,0c-.52,0-1-.07-1.55-.12s-1-.11-1.53-.19-1-.16-1.51-.26-.88-.18-1.32-.29l-.79-.2-.8-.22-.18-.06c-.4-.11-.8-.24-1.19-.37l-.41-.15-1-.36c-.35-.14-.7-.28-1-.43l-.23-.1c-.23-.1-.47-.21-.7-.33l-.77-.37a2.49,2.49,0,0,1-.28-.15c-.3-.15-.59-.3-.87-.47s-.35-.19-.52-.29c-.33-.18-.65-.38-1-.58s-.83-.53-1.23-.81-.7-.5-1.05-.76l-.28-.21c-.34-.26-.67-.53-1-.8s-.74-.64-1.1-1-.71-.66-1.06-1-.68-.7-1-1.06-.52-.57-.76-.87a5.07,5.07,0,0,1-.37-.44l-.25-.3-.25-.32a4.4,4.4,0,0,1-.38-.5c-.19-.24-.37-.49-.54-.74a3.13,3.13,0,0,1-.29-.42c-.2-.28-.39-.56-.56-.84a3,3,0,0,1-.21-.33c-.16-.25-.31-.5-.46-.76s-.23-.38-.34-.58l-.14-.25c-.13-.24-.26-.49-.38-.74a.76.76,0,0,1-.09-.18q-.16-.3-.3-.6c-.16-.32-.31-.65-.45-1s-.36-.83-.53-1.26c0-.12-.1-.25-.14-.38-.13-.34-.26-.69-.38-1a.07.07,0,0,1,0-.05q-.23-.66-.42-1.35c-.14-.46-.26-.93-.38-1.41a31.17,31.17,0,0,1-.78-4.86h0c0-.35-.06-.7-.08-1.06l-.5-9.5-.28-5.32-.94-18a72.93,72.93,0,0,1,15.62,7h0A72.46,72.46,0,0,1,52.66,932a72.12,72.12,0,0,1,8,10A72.57,72.57,0,0,1,72.84,977.52Z"/><path class="cls-8" d="M164.28,982.33l-39.65-2.09-7.53-.39-44.26-2.33-7-.37L62.5,977l-.92-.05-6.72-.35-.57,0c-.52,0-1-.07-1.55-.12s-1-.11-1.53-.19-1-.16-1.51-.26-.88-.18-1.32-.29l-.79-.2-.8-.22-.18-.06c-.4-.11-.8-.24-1.19-.37l-.41-.15-1-.36c-.35-.14-.7-.28-1-.43l-.23-.1c-.23-.1-.47-.21-.7-.33l-.77-.37a2.49,2.49,0,0,1-.28-.15c-.3-.15-.59-.3-.87-.47s-.35-.19-.52-.29c-.33-.18-.65-.38-1-.58s-.83-.53-1.23-.81-.7-.5-1.05-.76l-.28-.21c-.34-.26-.67-.53-1-.8s-.74-.64-1.1-1-.71-.66-1.06-1-.68-.7-1-1.06-.52-.57-.76-.87a5.07,5.07,0,0,1-.37-.44l-.25-.3-.25-.32a4.4,4.4,0,0,1-.38-.5c-.19-.24-.37-.49-.54-.74a3.13,3.13,0,0,1-.29-.42c-.2-.28-.39-.56-.56-.84a3,3,0,0,1-.21-.33c-.16-.25-.31-.5-.46-.76s-.23-.38-.34-.58l-.14-.25A72.17,72.17,0,0,1,35,947.93,73.06,73.06,0,0,1,71.51,923.4a72.12,72.12,0,0,1,14.17-2.67h0c2.11-.19,4.26-.28,6.42-.28.93,0,1.85,0,2.77,0a73.05,73.05,0,0,1,69.4,61.83Z"/><path class="cls-8" d="M695.75,989.7l-1.65.08-18.66,1h0l-4.87.25-15.66.83-11.3.6h0l-7.5.39-5.33.28q2.35-1.33,4.81-2.49a72.77,72.77,0,0,1,31.14-7q3.48,0,6.89.33a72.16,72.16,0,0,1,13.3,2.5q3.45,1,6.75,2.3C694.34,989.09,695.05,989.38,695.75,989.7Z"/><path class="cls-8" d="M694.1,989.78l-18.66,1h0l-4.87.25-15.66.83-11.3.6h0l-7.5.39-5.33.28-2.44.13-26.87,1.41-42.18,2.22c.73-2.11,1.57-4.18,2.5-6.2a71.25,71.25,0,0,1,5.1-9.27,73,73,0,0,1,9.21-11.49,73.8,73.8,0,0,1,16.62-12.66c1.22-.68,2.46-1.33,3.72-1.94a73.27,73.27,0,0,1,43.94-6.22l.85.14a73,73,0,0,1,39.57,21.23l.78.83a72.35,72.35,0,0,1,9.66,13h0q1.3,2.21,2.43,4.51C693.79,989.12,694,989.45,694.1,989.78Z"/><path class="cls-8" d="M601.42,994.66l-42.18,2.22-6.73.36-21.94,1.15-28.64,1.51h-.22c-.73,0-1.45.05-2.18,0h-.59l-.65,0-1,0-10.52-.55L480.6,999h-.15l-5.62-.3c.42-.78.84-1.54,1.29-2.3.34-.6.7-1.2,1.07-1.78a73.72,73.72,0,0,1,25.59-24.83q2-1.14,4-2.14a71.82,71.82,0,0,1,21.17-6.75h0a73,73,0,0,1,11.33-.88,73,73,0,0,1,36.77,9.93q1.08.63,2.13,1.29a72.11,72.11,0,0,1,13,10.49A72.87,72.87,0,0,1,601.42,994.66Z"/><path class="cls-8" d="M530.57,998.39l-28.64,1.51h-.22c-.73,0-1.45.05-2.18,0h-.59l-.65,0-1,0-10.52-.55L480.6,999h-.15l-5.62-.3-6.59-.34c-.77.26-1.54.51-2.32.75l1.14-.81-18.23-1-.88,0-4.46-.23h0l-7.31-.39L414,995.48,404,995c.74-1.23,1.53-2.43,2.35-3.61A73.3,73.3,0,0,1,437,966.08l.38-.16h0a69.76,69.76,0,0,1,10.08-3.49,72.67,72.67,0,0,1,15.14-2.36c1.2-.05,2.41-.08,3.62-.08a72.73,72.73,0,0,1,36.51,9.77c.62.36,1.24.73,1.85,1.11a70.63,70.63,0,0,1,7.17,5.06A73.2,73.2,0,0,1,530.57,998.39Z"/><path class="cls-8" d="M916.65,971.7q0,3.22-.28,6.38L901,978.9l-5.84.31-1.79.09-3.1.16-6,.31-6.63.35-19.49,1-15.09.79h0l-4.07.22-13.4.71L804.64,984l-4.59.24-7.4.39-7.94.41-8.66.46h0l-4.07.21a73.23,73.23,0,0,1-1.34-14c0-.61,0-1.21,0-1.81a73,73,0,0,1,101.43-65.44,72.25,72.25,0,0,1,11.14,5.9,73.15,73.15,0,0,1,22.28,22.57c1,1.52,1.87,3.09,2.71,4.69A72.57,72.57,0,0,1,916.65,971.7Z"/><path class="cls-8" d="M980.44,871.63l-1.39,26.29-.44,8.38,0,.77-.26,4.93-.14,2.71-.2,3.72-.14,2.64-1.29,24.64c0,.53-.07,1.06-.12,1.58s-.1.88-.17,1.31a3.85,3.85,0,0,1-.07.49c0,.35-.11.7-.18,1s-.17.88-.28,1.32c-.06.25-.12.5-.19.75a8.48,8.48,0,0,1-.22.83c-.14.49-.3,1-.46,1.47-.25.74-.53,1.46-.83,2.17s-.62,1.41-1,2.09c-.18.38-.38.75-.59,1.11-.09.17-.19.34-.29.51l-.32.52c-.17.28-.34.56-.52.83-.35.56-.73,1.11-1.13,1.64l-.51.67-.21.27q-.36.47-.75.9c-.22.26-.45.52-.68.77s-.67.72-1,1.06-.7.68-1.06,1-.73.65-1.1,1c-.75.62-1.52,1.22-2.33,1.77q-.6.42-1.23.81t-1.05.63l-.21.13c-.43.24-.86.47-1.3.69s-.88.44-1.33.65-1,.44-1.53.64l-1.24.46c-.45.15-.91.3-1.37.43a31,31,0,0,1-3,.75c-.49.09-1,.18-1.48.25s-1,.14-1.53.19-1,.09-1.55.12l-18.12,1-3.8.2-7.42.39L901,978.9l-5.84.31-1.79.09-3.1.16-6,.31a72.72,72.72,0,0,1-17.43-41.91c-.15-1.88-.22-3.77-.22-5.68a73,73,0,0,1,113.82-60.55Z"/><path class="cls-8" d="M979.05,897.92l-.44,8.38,0,.77-.26,4.93-.14,2.71-.2,3.72-.14,2.64-1.29,24.64c0,.53-.07,1.06-.12,1.58s-.1.88-.17,1.31a3.85,3.85,0,0,1-.07.49c0,.35-.11.7-.18,1s-.17.88-.28,1.32c-.06.25-.12.5-.19.75a8.48,8.48,0,0,1-.22.83c-.14.49-.3,1-.46,1.47-.25.74-.53,1.46-.83,2.17s-.62,1.41-1,2.09c-.18.38-.38.75-.59,1.11-.09.17-.19.34-.29.51a73.18,73.18,0,0,1,2.28-53.78l.18-.42A72.56,72.56,0,0,1,979.05,897.92Z"/><circle class="cls-7" cx="87.27" cy="747.4" r="73.01"/><circle class="cls-7" cx="395.29" cy="811.58" r="51.65"/><circle class="cls-7" cx="240.99" cy="816.11" r="73.01"/><circle class="cls-7" cx="753.47" cy="795.57" r="73.01"/><path class="cls-7" d="M988.19,724.25h0l-.13,2.47-.45,8.53-1.27,24.15-.08,1.48h0a73,73,0,0,1-68.8,51h-.81a72.78,72.78,0,0,1-25.41-4.54h0a73.12,73.12,0,0,1-46.93-58.63c-.17-1.22-.3-2.45-.4-3.69q-.25-3-.26-6.15a74.33,74.33,0,0,1,2-16.88,73.24,73.24,0,0,1,2.79-9.07,72.4,72.4,0,0,1,9.44-17.31,73,73,0,0,1,58.82-29.75,71.25,71.25,0,0,1,8.93.55,70.49,70.49,0,0,1,11.49,2.35h0a73.11,73.11,0,0,1,51.11,55.51Z"/><circle class="cls-6" cx="51.63" cy="606.59" r="42.04"/><circle class="cls-6" cx="189.38" cy="668.95" r="42.04"/><circle class="cls-6" cx="328.12" cy="700.5" r="42.04"/><circle class="cls-6" cx="478.2" cy="703.8" r="42.04"/><circle class="cls-6" cx="628.13" cy="703.8" r="42.04"/><circle class="cls-6" cx="782.23" cy="670.82" r="42.04"/><circle class="cls-6" cx="916.65" cy="623.8" r="42.04"/><path class="cls-6" d="M998.73,563c-.69.1-1.38.22-2.07.35L996,575.72l0,.67-.2,3.81-1.12,21.36-1.15,21.71-.11,2.09a42,42,0,0,1-67.32-33.6A42,42,0,0,1,996.78,561h0C997.45,561.64,998.1,562.28,998.73,563Z"/><circle class="cls-6" cx="797.15" cy="658.46" r="42.04"/><circle class="cls-6" cx="673.28" cy="700.5" r="42.04"/><circle class="cls-6" cx="515.45" cy="708.49" r="42.04"/><circle class="cls-6" cx="213.22" cy="683.86" r="42.04"/><circle class="cls-6" cx="82.61" cy="626.92" r="42.04"/><circle class="cls-3" cx="76.62" cy="804.88" r="27.4"/><circle class="cls-3" cx="104.03" cy="789.67" r="27.4"/><circle class="cls-3" cx="110.01" cy="804.88" r="27.4"/><circle class="cls-3" cx="141.63" cy="800.97" r="27.4"/><circle class="cls-3" cx="140.75" cy="792.83" r="27.4"/><circle class="cls-3" cx="116.37" cy="787.64" r="27.4"/><circle class="cls-3" cx="154.7" cy="810.79" r="27.4"/><circle class="cls-3" cx="122.3" cy="808.66" r="27.4"/><circle class="cls-3" cx="100.41" cy="804.88" r="27.4"/><circle class="cls-3" cx="768.4" cy="722.29" r="27.4"/><circle class="cls-3" cx="795.8" cy="722.56" r="27.4"/><circle class="cls-3" cx="786.34" cy="708.49" r="27.4"/><circle class="cls-3" cx="824.26" cy="725.9" r="27.4"/><circle class="cls-3" cx="819.72" cy="700.5" r="27.4"/><circle class="cls-3" cx="851.67" cy="722.29" r="27.4"/><circle class="cls-3" cx="851.67" cy="703.8" r="27.4"/><circle class="cls-3" cx="874.61" cy="714.53" r="19.64"/><circle class="cls-3" cx="746.72" cy="727.9" r="19.64"/><circle class="cls-3" cx="88.49" cy="805.43" r="27.4"/><circle class="cls-3" cx="56.28" cy="811.28" r="15.71"/><circle class="cls-3" cx="40.57" cy="808.66" r="15.71"/><circle class="cls-3" cx="51.63" cy="800.97" r="15.71"/><circle class="cls-3" cx="171.19" cy="819.75" r="15.71"/></g></g></g></g></svg>