<svg xmlns="http://www.w3.org/2000/svg" xmlns:xlink="http://www.w3.org/1999/xlink" viewBox="0 0 1000 1000"><defs><style>.cls-1{fill:none;}.cls-2{fill:url(#radial-gradient);}.cls-3{fill:#f9f8db;}.cls-4{fill:#7bddd6;}.cls-5{fill:#048aa1;}.cls-6{fill:#00c3ce;}.cls-7{fill:#4d544e;}.cls-8{fill:#627210;}.cls-9{fill:#4f7c17;}.cls-10{fill:#4b6c09;}.cls-11{fill:#5b7725;}.cls-12{fill:#3d6403;}.cls-13{opacity:0.2;fill:url(#linear-gradient);}.cls-14{fill:#c7904e;}.cls-15{fill:#32382d;}.cls-16{fill:#834e56;}.cls-17{fill:#5b280f;}.cls-18{fill:#682b13;}.cls-19{fill:url(#linear-gradient-2);}.cls-20{fill:url(#linear-gradient-3);}.cls-21{fill:url(#linear-gradient-4);}.cls-22{opacity:0.1;}.cls-23{fill:#fff;}</style><radialGradient id="radial-gradient" cx="500" cy="459.78" r="480.27" gradientUnits="userSpaceOnUse"><stop offset="0" stop-color="#2ac0ff"/><stop offset="1" stop-color="#0066d4"/></radialGradient><linearGradient id="linear-gradient" x1="162.34" y1="835.46" x2="823.69" y2="835.46" gradientUnits="userSpaceOnUse"><stop offset="0" stop-color="#fff"/><stop offset="1" stop-color="#fff" stop-opacity="0.5"/></linearGradient><linearGradient id="linear-gradient-2" x1="83.3" y1="128.77" x2="316.48" y2="128.77" gradientUnits="userSpaceOnUse"><stop offset="0" stop-color="#2ac0ff" stop-opacity="0"/><stop offset="1" stop-color="#fff" stop-opacity="0.6"/></linearGradient><linearGradient id="linear-gradient-3" x1="511.24" y1="31.32" x2="767.69" y2="179.38" xlink:href="#linear-gradient-2"/><linearGradient id="linear-gradient-4" x1="765.58" y1="288.85" x2="948.57" y2="288.85" xlink:href="#linear-gradient-2"/></defs><g id="Layer_2" data-name="Layer 2"><g id="OutPut"><rect id="BG" class="cls-1" width="1000" height="1000"/></g><g id="Bachground"><g id="_0" data-name="0"><path class="cls-2" d="M999.91,501.71l-.25,4.69-.48,9.1-.09,1.66,0,.88h0l-1.62,30.71h0l-.18,3.41-.41,7.74-.06,1.1-.12,2.28,0,.4h0l-.37,7.1,0,.66-.22,4.25,0,.67-.2,3.81,0,.85-1.16,21.87-.18,3.38-.1,2-.15,2.86-.26,5-.38,7.1-.11,2.09-.59,11.16-.38,7.34-.56,10.57-.13,2.43-.07,1.37-.13,2.47-.88,16.85-.12,2.28-.1,1.79-.29,5.59-.68,12.86-.38,7.13-.74,14.13-.09,1.71h0l-.14,2.63-.07,1.35-.44,8.23-1.27,24.15-.08,1.49-.23,4.43-.15,2.94-.06,1.08-.34,6.48v.25l-.11,2.18,0,.29,0,.69-.09,1.8h0l-.69,13.05-.08,1.4v.06l-.11,2.22L983.74,809l-.82,15.47-.61,11.61v.08l-1,19.18v.09l-.36,6.8h0l-.49,9.39-.73,13.81L979,899.37l-.37,6.93,0,.77-.26,4.93-.14,2.71-.25,4.8H22.08l-.35-6.74v-.06l-.3-5.68-.72-13.69-.61-11.57-1.28-24.35,0-.3-.42-8-.54-10.26v-.07l0-.34-.07-1.29-.06-1.25-.06-1.09v-.22l-.34-6.53-.45-8.57-.15-2.78-.21-4-.2-3.73-.11-2-.42-7.79-.15-2.82-.09-1.82,0-.52-.68-13-.15-2.72-.08-1.56,0-.63-.44-8.3-.69-13.14-.58-10.94-.17-3.26-.09-1.7,0-.4-.5-9.48-.19-3.69L11.63,721,11,709.12l-.1-2L10.42,698l-1.09-20.7-.16-3.07-.16-3L9,670.07l0-.91-.19-3.7-1.26-24-.17-3.22-.13-2.5-.24-4.41L6.79,629l-.7-13.25L5.79,610l-1-18.47-.18-3.39-.42-8L4,575.74,2.42,546l-.81-15.3-1.52-29a32.51,32.51,0,0,1,0-3.42l1-19,.85-16.14.8-15.24.38-7.18.34-6.42L4.69,411l.25-4.83L6.26,381l2.17-41.22L9,328.4l1.52-28.86L16.1,194.13l.63-11.91v0l5.6-106.46.39-7.3.74-14.14A32.58,32.58,0,0,1,54.29,23.46L97,21.21l93.93-4.94,5.91-.31,42.1-2.22h0l5.73-.3L496.2.2l2.09-.11a32.51,32.51,0,0,1,3.42,0l2.35.12h0l35.57,1.87,73.23,3.86,88.78,4.67L945.71,23.46a32.58,32.58,0,0,1,30.83,30.83l2.87,54.53,1.7,32.42h0l2.81,53.33L986,233.74h0l2.92,55.43.65,12.37.44,8.39,1.26,23.94h0l1,19h0l1,18.77,1.07,20.24.51,9.65,3,57.2.22,4.21.21,4,0,.8.75,14.12.06,1.24.8,15.17A32.51,32.51,0,0,1,999.91,501.71Z"/><path class="cls-3" d="M996.27,570.81l-.26,4.91,0,.67v.07l-.15,2.8-1.25,23.66-.18,3.38-.1,2-.41,7.9-1,19.42-.05.93-.16,3.08-.78,14.83-.13,2.43-.07,1.37-.13,2.47-1.15,21.92-.24,4.59-.26,4.85-.42,8-.38,7.13-.43,8.25,0,.71-.2,3.86-.3,5.66-.07,1.35-.46,8.67h0l-.42,8L986.1,764l-.28,5.32-.34,6.48v.25l-1,18-.08,1.46-.11,2.22L983.74,809l-.82,15.47-291,6.6-9.47.21-211.32,4.79L328.89,823.66l-6.42-.56L15.59,796.34,15.47,794l-.94-17.92L13.4,754.64l-.58-10.94-.17-3.26L12,728.86l-.19-3.69L11.63,721l-.53-10-.1-1.87-1.05-20-.1-1.9-.45-8.56L9,671.27,9,670.07l-.69-13.21,0-.5-.11-2.1-1-18.5L6.79,629l-.48-9.12L5.79,610a178.26,178.26,0,0,0,30.82-1.93c36-6,82.51-17.64,139-27.2l3.59-.61a1059.23,1059.23,0,0,1,117.36-13.22c1.45-.08,2.91-.16,4.37-.22,23.3-1.16,47.68-1.51,73.12-.75,18.06.54,36.54,1.56,55.22,2.93h0c127.57,9.31,264.16,34.36,336.32,26.66h0a150.45,150.45,0,0,0,16.49-2.59C824.73,583.71,915.91,574.81,996.27,570.81Z"/><path class="cls-4" d="M992.81,636.52l-.16,3.08-.78,14.83-.13,2.43-.07,1.37-.13,2.47-1.15,21.92-.24,4.59-.26,4.85-.42,8-.38,7.13-.43,8.25,0,.71-.2,3.86-.3,5.66-.07,1.35-.46,8.67h0l-.42,8L986.1,764l-.28,5.32-.34,6.48v.25l-1,18-.08,1.46-.11,2.22L983.74,809l-.82,15.47-.61,11.61-2.6,49.36L979,899.37,978.31,912l0,.77-.1,1.94-.25,4.8-1.38,26.2c0,.32,0,.64-.07,1l-181.74,9.25-14.88.75-529.3,26.94-12.9.66-2.4.12-16.16.82-1.73.09.1-.17-14.14-.75h0l-4-.21L176.92,983l-22.11-1.16-81.55-4.29-7.4-.39L62.5,977l-.92-.05-6.72-.35-.57,0a32.58,32.58,0,0,1-30.71-29.28s0-.06,0-.09c-.05-.48-.08-1-.11-1.46l-.5-9.5-.28-5.32,0-.83-.56-10.55-.35-6.74-1-19.43-1.87-35.48,0-.74-.42-8-.54-10.33-.15-2.88-.86-16.41-.15-2.78L16.27,809l-.68-12.66L15.47,794l-.94-17.92L13.4,754.64l-.58-10.94-.17-3.26L12,728.86l-.19-3.69L11.63,721l-.53-10-.1-1.87-1.05-20-.1-1.9-.45-8.56L9,671.27q7.15-.43,14.1-.94c156-11.25,289.8,14.74,372.89,13l1.62,0c8.48-.21,17.87-.8,28-1.66,27.05-2.32,59.17-6.65,92.45-11.34,11.77-1.66,23.69-3.36,35.58-5l1.69-.24c65.16-9.15,129.24-17.32,163.77-12.39,66,9.41,46.5,26.61,189-1.49C936.67,645.54,965.16,640.67,992.81,636.52Z"/><path class="cls-5" d="M990.15,687.21l-.26,4.85-.42,8-.38,7.13-.43,8.25,0,.71-.2,3.86-.3,5.66-.07,1.35-.46,8.67h0l-.42,8L986.1,764l-.28,5.32-.34,6.48v.25l-1,18-.08,1.46-.11,2.22L983.74,809l-.82,15.47-.61,11.61-1,19.35-.36,6.8h0l-1.22,23.2L979,899.37,978.31,912l0,.77-.1,1.94-.25,4.8-1.38,26.2c0,.32,0,.64-.07,1A32.26,32.26,0,0,1,973,958.81a22.66,22.66,0,0,1-1.17,2.09,32.52,32.52,0,0,1-26.14,15.64l-18.12,1-3.8.2L901,978.9l-7.63.4-50.26,2.64h0l-4.07.22-8.51.45-7.07.37-6.13.32-15.6.82-.49,0-8.53.45-7.94.41-22.58,1.19-4.63.25h0L655.7,991.81l-19.64,1-7.77.41-99.7,5.25h0l-26.65,1.4h-.22c-.73,0-1.45.05-2.18,0-.41,0-.83,0-1.24,0l-1,0-10.52-.55-6.37-.34L448,997.26l-4.46-.23h0l-73.28-3.86-2.92-.16-1.4-.07-49.34-2.6-7-.36h0l-14.13-.75h0l-3.69-.19h0L249,986.79l-12.33-.65-1.41-.07-2.58-.14-13.58-.72-1.73.09.1-.17-14.14-.75h0l-4-.21L176.92,983l-14.58-.77-7.53-.39-81.55-4.29-7.4-.39L62.5,977l-.92-.05-6.72-.35-.57,0a32.58,32.58,0,0,1-30.71-29.28s0-.06,0-.09c-.05-.48-.08-1-.11-1.46l-.5-9.5,0-.4-.26-4.92,0-.83-.56-10.55-.35-6.74-1-19.43-1.87-35.48,0-.74-.42-8-.54-10.33-.15-2.88-.86-16.41-.15-2.78L16.27,809l-.68-12.66L15.47,794l-.83-15.73h0l-.11-2.18-.44-8.3-.69-13.14-.58-10.94-.17-3.26L12,728.86l-.19-3.69L11.63,721c63-1.14,132.35,1.84,201.87,5.35,35.85,1.81,81.4,2.59,130.48,2.36q14-.06,28.28-.24l3.26,0c64.23-.84,132.09-3.33,190.72-7.45,9.92-.7,19.58-1.44,28.9-2.23l4.09-.35q5.12-.45,10.09-.91c35.41-3.31,65.24-7.33,85.68-12.08,88-20.43,200,2.9,280-14.76Q982.13,689.1,990.15,687.21Z"/><path class="cls-6" d="M991.67,658.23l-.13,2.47-1.15,21.92-.24,4.59q-8,1.88-15.15,3.46c-80,17.66-192-5.67-280,14.76-22.35,5.19-55.94,9.52-95.77,13l-4.09.35c-9.32.79-19,1.53-28.9,2.23-58.63,4.12-126.49,6.61-190.72,7.45l-3.26,0c-59.72.73-116.11,0-158.76-2.12C144,722.86,74.59,719.88,11.63,721l-.53-10-.1-1.87q21-1.44,43-3.45c145.61-13.34,251.16-11.5,334.56-8.15l2.06.09h0c77.52,3.15,135.87,7.52,189.62,2,1.07-.1,2.14-.21,3.21-.34q3.28-.35,6.54-.77C704,684,675,664,803,677,862.73,683.07,927.69,671.49,991.67,658.23Z"/><path class="cls-7" d="M194.12,641.33s-52-143.34-34-218.34-24,86,41,214Z"/><path class="cls-7" d="M281.12,630.75s58.22-160.48,38.06-244.44,26.87,96.28-45.9,239.58Z"/><path class="cls-8" d="M161.9,406.94s38.6,24.78,34.54,70.48C165.92,460.1,154.81,440.39,161.9,406.94Z"/><path class="cls-9" d="M176.14,411.79s-25.66,38-71.25,32.9C122.91,414.58,142.87,403.93,176.14,411.79Z"/><path class="cls-10" d="M235.78,437.77s-45.07,8.52-73.52-27.48C196.33,401.91,217.94,408.6,235.78,437.77Z"/><path class="cls-11" d="M155.7,411.57s17.41-42.44,63.09-46.69C207.26,398,189.88,412.51,155.7,411.57Z"/><path class="cls-12" d="M178.29,410.44s-44.21,12.23-75.55-21.27C136,378,158.09,382.85,178.29,410.44Z"/><path class="cls-8" d="M320.29,399.52S277,371.71,281.53,320.43C315.78,339.86,328.24,362,320.29,399.52Z"/><path class="cls-9" d="M304.31,394.08s28.79-42.66,80-36.92C364.05,391,341.65,402.9,304.31,394.08Z"/><path class="cls-10" d="M237.38,364.93s50.58-9.57,82.51,30.83C281.65,405.17,257.4,397.66,237.38,364.93Z"/><path class="cls-11" d="M327.25,394.33s-19.53,47.62-70.8,52.39C269.38,409.53,288.89,393.28,327.25,394.33Z"/><path class="cls-12" d="M301.9,395.59s49.61-13.72,84.78,23.88C349.36,432,324.56,426.56,301.9,395.59Z"/><path class="cls-13" d="M823.67,975.67c-.14,1.45-.22,4.06-.27,7.31l-6.13.32-15.6.82-.49,0-8.53.45-7.94.41-22.58,1.19-4.63.25h0L655.7,991.81l-19.64,1-7.77.41-99.7,5.25h0l-26.65,1.4h-.22c-.73,0-1.45.05-2.18,0-.41,0-.83,0-1.24,0l-1,0-10.52-.55-6.37-.34L448,997.26l-4.46-.23h0l-73.28-3.86-2.92-.16-1.4-.07-49.34-2.6-7-.36h0l-14.13-.75h0l-3.69-.19h0L249,986.79l-12.33-.65-1.41-.07-2.58-.14-13.58-.72-1.73.09.1-.17-14.14-.75h0l-4-.21L176.92,983l-14.58-.77s6-6.92,4-13.4,15.34-9.82,26-20.49,23.28,6,34,0S249.65,964,249,952.5s8-7.5,11.34-32.83,6.48,0,19.91-43.34,15.43-17.86,26.09-40.26,10.19-13.14,21.09-39.11,2.91-19.29,17.58-36,14.93-28,6.8-28.67c-3.86-.31-6.49-1.68-7.82-3.6-1.49-2.12-1.4-4.93.35-7.73,3.34-5.33-7.93-22,2-23.31s18.66-5.35,25.33-7,.47,12,8.68,9.43S549.8,681.67,553.67,676s17.3-7.67,19.65,0,13,31.67,19.68,29.67c4.9-1.47,10.51,4.21,16.32,11.84,2.1,2.76,4.23,5.77,6.35,8.79,8,11.37,14,26.7,22,30s16.66-14,22-7.67,34,5,32.66,14-4.57,20.45,0,20.39-6,5.28-3.38,14-10.67,11.15-5.33,13.91S711,821.67,709,831.67s7.33,25.33,20.67,32S761,879,761,891.67s2.67,24.66,16,26.66,18.67,12,18.67,22-3,7,5.51,12.17S824.37,968.33,823.67,975.67Z"/><polygon class="cls-14" points="235.25 954.25 217.46 985.13 203.32 984.38 203.31 984.38 199.31 984.17 176.92 982.99 197.25 952.5 235.25 954.25"/><polygon class="cls-15" points="235.25 954.25 235.25 986.07 232.67 985.93 219.09 985.21 217.36 985.3 217.46 985.13 235.25 954.25"/><polygon class="cls-14" points="658.9 761.71 646.75 779.95 667.68 783.05 679.43 762.66 658.9 761.71"/><polygon class="cls-15" points="667.68 783.05 667.68 796.96 646.75 795.75 646.75 779.95 667.68 783.05"/><polygon class="cls-15" points="667.68 796.96 679.43 794.94 679.43 762.66 667.68 783.05 667.68 796.96"/><polygon class="cls-14" points="367.97 697.69 379.06 711.13 362.75 715.29 351.8 700.1 367.97 697.69"/><polygon class="cls-15" points="362.75 715.29 363.88 726.3 380.34 723.64 379.06 711.13 362.75 715.29"/><polygon class="cls-15" points="363.88 726.3 354.41 725.64 351.8 700.1 362.75 715.29 363.88 726.3"/><polygon class="cls-16" points="418.19 641.33 412.63 652.67 408.06 662 403.98 670.33 398.43 681.67 397.62 683.33 394.02 690.67 390.63 697.61 386.68 705.67 379.91 719.46 379.91 719.48 379.17 721 377.66 724.07 375.52 728.45 371.66 736.33 359.58 761 341.95 797 328.89 823.66 316.48 849 281.95 919.51 280.24 923 250.55 983.61 248.99 986.79 236.66 986.14 237.65 984.27 269.89 923 271.73 919.51 308.84 849 322.47 823.1 336.2 797 355.15 761 368.13 736.33 372.26 728.49 374.3 724.62 376.2 721 379.44 714.84 384.27 705.67 388.56 697.52 392.16 690.67 396 683.37 396.9 681.67 402.86 670.33 407.25 662 412.16 652.67 418.13 641.33 418.19 641.33"/><polygon class="cls-17" points="543.81 652.67 412.63 652.67 418.19 641.33 535.01 641.33 543.81 652.67"/><path class="cls-17" d="M801.18,984.15l-8.53.45-7.94.41-22.58,1.19-4.63.25h0L655.7,991.81l-19.64,1-7.77.41-99.7,5.25h0l-26.65,1.4h-.22c-.73,0-1.45.05-2.18,0-.41,0-.83,0-1.24,0l-1,0-10.52-.55-6.37-.34L448,997.26l-4.46-.23h0l-73.28-3.86-2.92-.16-1.4-.07-49.34-2.6-7-.36h0l-14.13-.75h0l-3.69-.19h0L249,986.79l1.56-3.18L280.24,923H753.71l26.14,33.67Z"/><polygon class="cls-18" points="753.71 923 280.24 923 316.48 849 696.25 849 753.71 923"/><polygon class="cls-17" points="696.25 849 316.48 849 341.95 797 655.88 797 696.25 849"/><polygon class="cls-18" points="655.88 797 341.95 797 359.58 761 627.92 761 655.88 797"/><polygon class="cls-17" points="627.92 761 359.58 761 371.66 736.33 608.77 736.33 627.92 761"/><polygon class="cls-18" points="608.77 736.33 371.66 736.33 379.17 721 596.87 721 608.77 736.33"/><polygon class="cls-17" points="596.87 721 379.17 721 386.68 705.67 584.96 705.67 596.87 721"/><polygon class="cls-18" points="584.96 705.67 386.68 705.67 394.02 690.67 573.32 690.67 584.96 705.67"/><polygon class="cls-18" points="566.33 681.67 398.43 681.67 403.98 670.33 557.53 670.33 566.33 681.67"/><polygon class="cls-17" points="557.53 670.33 403.98 670.33 408.06 662 551.06 662 557.53 670.33"/><polygon class="cls-17" points="573.32 690.67 394.02 690.67 398.43 681.67 566.33 681.67 573.32 690.67"/><polygon class="cls-18" points="551.06 662 408.06 662 412.63 652.67 543.81 652.67 551.06 662"/><polygon class="cls-16" points="817.27 983.3 801.67 984.12 801.18 984.15 779.85 956.67 753.71 923 751 919.51 696.25 849 682.49 831.28 655.88 797 655.29 796.24 646.75 785.24 627.92 761 608.77 736.33 596.87 721 595.14 718.77 584.96 705.67 580.25 699.6 573.32 690.67 566.33 681.67 557.53 670.33 553.62 665.3 551.06 662 543.81 652.67 535.01 641.33 535.77 641.33 545.11 652.67 552.79 662 555.31 665.06 559.64 670.33 568.98 681.67 576.39 690.67 583.46 699.26 588.73 705.67 599.23 718.42 601.35 721 613.97 736.33 634.28 761 648.15 777.85 650.31 780.48 663.69 796.73 663.91 797 691.96 831.07 706.72 849 764.76 919.51 767.63 923 794.73 955.92 817.27 983.3"/><path class="cls-19" d="M316.48,140.11A60.06,60.06,0,0,1,275.77,197a77.86,77.86,0,0,0-30,19.06,94.73,94.73,0,0,1-68.64,28.07c-51.16-.63-93-42.37-93.77-93.52A95,95,0,0,1,134.8,64.64a100.6,100.6,0,0,0,32-26.48,74.1,74.1,0,0,1,30-22.2l42.1-2.22h0l5.73-.3a74,74,0,0,1,53.72,71.17v.12a32.56,32.56,0,0,0,6.28,19.56A59.79,59.79,0,0,1,316.48,140.11Z"/><path class="cls-20" d="M817.46,80.08a48.66,48.66,0,0,1-12.24,32.34,99.72,99.72,0,0,0-13.16,19.41c-13.48,25.41-46.45,78.77-85,78.77q-1.27,0-2.55,0a87,87,0,0,0-37.8,7.22,125,125,0,0,1-39.42,10.27c-76.39,7.05-141.91-56.2-137.51-132.79A125.79,125.79,0,0,1,539.64,2.08l162,8.53Q705,13.69,708,17a46.11,46.11,0,0,0,22.11,13.54l.84.23a68,68,0,0,0,29.27,1.14,48.93,48.93,0,0,1,57.23,48.18Z"/><path class="cls-21" d="M918.49,307.19c0,.24,0,.48,0,.72-2.27,41-37.1,73.09-78.12,72.17a76.5,76.5,0,0,1,1.74-153h.67A27.67,27.67,0,0,0,865,216a46.5,46.5,0,1,1,66.88,63.78A37.92,37.92,0,0,0,918.49,307.19Z"/><path class="cls-22" d="M280.24,788.46c-95.59,28.9-225.68,0-265.6-10.19h0l-.11-2.18-.44-8.3C47.35,772.81,234.05,800.24,280.24,788.46Z"/><path class="cls-22" d="M226.3,857s-100.63-8-136,0C187.67,860.33,226.3,857,226.3,857Z"/><path class="cls-22" d="M156.33,928c-23.87-7-89.31,1.06-133.39,7.81l-.26-4.92,0-.83-.56-10.55-.35-6.74-1-19.43S150.66,901,156.33,928Z"/><path class="cls-22" d="M765.58,779S878.26,767.91,931,788.46C823.69,797,765.58,779,765.58,779Z"/><path class="cls-22" d="M981.29,855.43l-.36,6.8h0c-44.79,11.28-123.7,28.84-163.66,23.76C827.71,868.45,928.11,859.15,981.29,855.43Z"/><path class="cls-23" d="M60.5,681.67s-17-5.33-24.5,0S60.5,681.67,60.5,681.67Z"/><path class="cls-23" d="M709.07,657.33s-17-5.33-24.5,0S709.07,657.33,709.07,657.33Z"/><path class="cls-22" d="M429.22,569C249.43,565,7.15,635.76,7.15,635.76L6.79,629l-.48-9.12L5.79,610a178.26,178.26,0,0,0,30.82-1.93c36-6,82.51-17.64,139-27.2l3.59-.61a1059.23,1059.23,0,0,1,117.36-13.22c1.45-.08,2.91-.16,4.37-.22,23.3-1.16,47.68-1.51,73.12-.75C392.06,566.63,410.54,567.65,429.22,569Z"/><path class="cls-22" d="M996.27,570.81l-.26,4.91,0,.67v.07l-.15,2.8-1.25,23.66-.18,3.38L765.58,595.69h0a150.45,150.45,0,0,0,16.49-2.59C824.73,583.71,915.91,574.81,996.27,570.81Z"/></g></g></g></svg>