<svg xmlns="http://www.w3.org/2000/svg" xmlns:xlink="http://www.w3.org/1999/xlink" viewBox="0 0 1000 1000"><defs><style>.cls-1{fill:none;}.cls-2{fill:url(#linear-gradient);}.cls-3{fill:#eda04e;}.cls-4{fill:#bc6b34;}.cls-5{fill:#e6883e;}.cls-6{opacity:0.1;}.cls-7{fill:#f6c773;}.cls-8{fill:#e09240;}.cls-9{fill:#fcd77e;}.cls-10{fill:#ffcd5f;}</style><linearGradient id="linear-gradient" x1="500" y1="104.38" x2="500" y2="529.44" gradientUnits="userSpaceOnUse"><stop offset="0" stop-color="#29abe2"/><stop offset="1" stop-color="#fff"/></linearGradient></defs><g id="Layer_2" data-name="Layer 2"><g id="OutPut"><rect id="BG" class="cls-1" width="1000" height="1000"/></g><g id="Bachground"><g id="_8" data-name="8"><path class="cls-2" d="M999.91,501.71l-.73,13.79-2.34,44.42-.83,15.8,0,.67-.2,3.81H4.22L.09,501.71a32.51,32.51,0,0,1,0-3.42l1-19,.85-16.14.8-15.24L6.26,381l2.17-41.22L16.1,194.13,23.46,54.29A32.58,32.58,0,0,1,54.29,23.46l136.59-7.19,48-2.53h0L496.2.2l2.09-.11a32.51,32.51,0,0,1,3.42,0l2.35.12h0L945.71,23.46a32.58,32.58,0,0,1,30.83,30.83l7.38,140.29,5,94.6L990,309.94l4.32,81.93,3.52,66.85.22,4.21.21,4,0,.8,1.61,30.53A32.51,32.51,0,0,1,999.91,501.71Z"/><path class="cls-3" d="M999.91,501.71l-.73,13.79-2.34,44.42L605.69,580.2,185.91,602,4.82,591.55l-.6-11.35L.09,501.71a32.51,32.51,0,0,1,0-3.42l1-19,.85-16.14.8-15.24c30.56,6.9,75.9,13.88,143.16,19.43,27.47,2.27,58.61,4.3,93.88,6,23.34,1.11,48.5,2.09,75.62,2.88,34.21,1,71.54,1.73,112.27,2.11h0q17.1.17,35,.24c71.38.31,152.5-.39,244.69-2.37q13.74-.29,27.8-.62,36.52-.87,75.31-2,84.07-2.44,179.19-6.24h0l8.57-.36,0,.8,1.61,30.53A32.51,32.51,0,0,1,999.91,501.71Z"/><polygon class="cls-4" points="871.62 319.85 846.24 383.67 804.5 488.61 702.38 480.94 805.96 382.34 871.62 319.85"/><polygon class="cls-5" points="998.67 478.54 804.5 488.61 846.24 383.67 871.62 319.85 919.37 379.5 998.67 478.54"/><path class="cls-6" d="M919.37,379.5c-8.5,1.63-8.78-11-23.46-9.95s-16.62,15.67-28.13,19.18c-8.06,2.46-15-2-21.54-5.06a23.79,23.79,0,0,0-8.18-2.61c-8.95-.68-10.55,5.43-17.58,5.43S806,382.34,806,382.34l65.66-62.49Z"/><polygon class="cls-4" points="553.92 249.16 514.61 348.02 449.96 510.56 291.78 498.68 452.23 345.96 553.92 249.16"/><polygon class="cls-5" points="750.72 494.97 449.96 510.56 514.61 348.02 553.92 249.16 627.89 341.56 750.72 494.97"/><path class="cls-6" d="M627.89,341.56c-13.16,2.53-13.59-17-36.35-15.42S565.8,350.41,548,355.85c-12.49,3.82-23.27-3-33.37-7.83-4.32-2.06-8.53-3.74-12.67-4-13.86-1-16.34,8.42-27.22,8.42S452.23,346,452.23,346l101.69-96.8Z"/><polygon class="cls-4" points="300.81 319.85 265.16 409.51 206.53 556.92 63.07 546.15 208.59 407.64 300.81 319.85"/><polygon class="cls-5" points="479.29 542.78 206.53 556.92 265.16 409.51 300.81 319.85 367.9 403.65 479.29 542.78"/><path class="cls-6" d="M367.9,403.65c-11.94,2.29-12.33-15.4-33-14s-23.35,22-39.51,26.94c-11.33,3.46-21.11-2.75-30.27-7.1-3.92-1.87-7.73-3.4-11.49-3.68-12.57-.94-14.82,7.64-24.69,7.64s-20.39-5.83-20.39-5.83l92.23-87.79Z"/><path class="cls-7" d="M999.91,501.71l-.73,13.79-2.34,44.42-.83,15.8,0,.67-.2,3.81-1.12,21.36-1.15,21.71-984.34,51L9,670.07l0-.91-1.62-30.9-.37-6.91-.12-2.24V629l-.7-13.25-1.27-24.2-.6-11.35L.09,501.71a32.51,32.51,0,0,1,0-3.42l1-19,.85-16.14c21.24,15.79,52.36,34.4,95.57,50.25,31.62,11.6,69.71,21.72,115.14,28.17,69.37,9.85,155.85,11.15,262.54-3.88q23.87-3.37,49.11-7.85c79.84-14.22,149.61-25.33,210.3-34h0l15-2.13q22.77-3.17,43.78-5.89,6.06-.79,12-1.54c80.09-10.15,140.63-15.41,185-18l7.9-.45,1.61,30.53A32.51,32.51,0,0,1,999.91,501.71Z"/><path class="cls-8" d="M994.66,601.56l-1.15,21.71-2.85,54.28-.22,4.07-1,18.45-.38,7.13-.74,14.13-.09,1.71-.2,3.69-1.72,32.68-.31,5.92-.15,2.94-.52,10-14.36,1c-247,16.62-724.14,45-954.53,33.5l-.2-3.73-.11-2-.42-7.79-.15-2.82-.09-1.82,0-.52-.68-13-.26-4.91L13.4,754.64l-.58-10.94-.17-3.26-.09-1.7-.71-13.57-.95-18-.16-3.1-.28-5.39,0-.68L9.17,674.22,9,670.07l0-.91-1.62-30.9-.37-6.91-.12-2.24V629l-.7-13.25C144.26,632.93,308.18,648.67,383,638.24,485,624,809.25,598,994.66,601.56Z"/><path class="cls-9" d="M990.44,681.62l-1,18.45-.38,7.13-.74,14.13-.09,1.71-.2,3.69-1.72,32.68-.31,5.92-.15,2.94-.52,10,0,.29,0,.69-.09,1.8h0l-.69,13.05-.08,1.4v.06l-.11,2.22-2,38.38-1,19.18-3,56.66-.14,2.71-.2,3.72-.14,2.64c-57.4,22.69-136.59,45.19-243.79,66.61l-98,5.16-7.77.41L501.93,999.9h-.22c-.73,0-1.45.05-2.18,0h-.59l-.65,0-1,0-10.52-.55-6.37-.34L448,997.26l-4.46-.23h0l-73.28-3.86-1.92-.1-2.4-.13-49.34-2.6-7-.36h0l-14.13-.75h0l-3.69-.19h0l-55.07-2.9-4-.21-29.35-1.55h0l-4-.21-20.23-1.06h0l-113.21-6L62.5,977l-.92-.05-6.72-.35-.57,0c-.52,0-1-.07-1.55-.12s-1-.11-1.53-.19-1-.16-1.51-.26-.88-.18-1.32-.29l-.79-.2-.8-.22-.18-.06c-.4-.11-.8-.24-1.19-.37l-.41-.15-1-.36c-.43-.17-.85-.35-1.26-.53-.23-.1-.47-.21-.7-.33l-.77-.37a2.49,2.49,0,0,1-.28-.15c-.3-.15-.59-.3-.87-.47s-.35-.19-.52-.29c-.33-.18-.65-.38-1-.58s-.83-.53-1.23-.81-.7-.5-1.05-.76l-.28-.21c-.34-.26-.67-.53-1-.8s-.74-.64-1.1-1-.71-.66-1.06-1-.68-.7-1-1.06-.52-.57-.76-.87a5.07,5.07,0,0,1-.37-.44c-.18-.2-.34-.41-.5-.62a4.4,4.4,0,0,1-.38-.5c-.19-.24-.37-.49-.54-.74a3.13,3.13,0,0,1-.29-.42c-.2-.28-.39-.56-.56-.84a3,3,0,0,1-.21-.33c-.16-.25-.31-.5-.46-.76s-.23-.38-.34-.58-.36-.65-.52-1a.76.76,0,0,1-.09-.18q-.16-.3-.3-.6c-.16-.32-.31-.65-.45-1s-.36-.83-.53-1.26c0-.12-.1-.25-.14-.38-.13-.34-.26-.69-.38-1a.07.07,0,0,1,0-.05q-.23-.66-.42-1.35c-.14-.46-.26-.93-.38-1.41a31.17,31.17,0,0,1-.78-4.86h0c0-.35-.06-.7-.08-1.06l-.5-9.5-.28-5.32L21.43,907,20.1,881.77l-1.3-24.65-.42-8-.54-10.33,0-.34-.13-2.54-.06-1.09v-.22l-.34-6.53-.45-8.57-.15-2.78-.21-4-.2-3.73-.11-2-.42-7.79-.15-2.82-.09-1.82,0-.52-.68-13-.26-4.91L13.4,754.64l-.58-10.94-.17-3.26-.09-1.7-.71-13.57-.95-18-.16-3.1-.28-5.39c66.27,35.39,160.3,73,267.53,78.63,209.61,11,531.12-94.56,699.75-101.92h0C977.83,675.61,982.66,677.77,990.44,681.62Z"/><path class="cls-10" d="M990.66,677.55l-.22,4.07-1,18.45-.38,7.13-.74,14.13-.09,1.71-.2,3.69-1.72,32.68-.31,5.92-.15,2.94-.52,10,0,.29,0,.69-.09,1.8h0l-.69,13.05-.08,1.4v.06l-.11,2.22-2,38.38-1,19.18-3,56.66-.14,2.71-.2,3.72-.14,2.64-1.29,24.64c0,.53-.07,1.06-.12,1.58s-.1.88-.17,1.31a3.85,3.85,0,0,1-.07.49c0,.35-.11.7-.18,1s-.17.88-.28,1.32c-.06.25-.12.5-.19.75a8.48,8.48,0,0,1-.22.83c-.14.49-.3,1-.46,1.47-.25.74-.53,1.46-.83,2.17s-.62,1.41-1,2.09c-.18.38-.38.75-.59,1.11s-.4.69-.61,1-.34.56-.52.83c-.35.56-.73,1.11-1.13,1.64l-.51.67-.21.27q-.36.47-.75.9c-.22.26-.45.52-.68.77s-.67.72-1,1.06-.7.68-1.06,1-.73.65-1.1,1c-.75.62-1.52,1.22-2.33,1.77q-.6.42-1.23.81c-.41.26-.83.51-1.26.76s-.86.47-1.3.69-.88.44-1.33.65-1,.44-1.53.64l-1.24.46c-.45.15-.91.3-1.37.43a31,31,0,0,1-3,.75c-.49.09-1,.18-1.48.25s-1,.14-1.53.19-1,.09-1.55.12l-18.12,1-3.8.2L901,978.9l-7.63.4-15.68.82-19.49,1-15.09.79h0l-4.07.22-38.93,2.05-7.4.39-7.94.41-22.58,1.19-4.63.25h0L734,987.68l-98,5.16-7.77.41L501.93,999.9h-.22c-.73,0-1.45.05-2.18,0h-.59l-.65,0-1,0-10.52-.55-6.37-.34L448,997.26l-4.46-.23h0l-73.28-3.86-1.92-.1-2.4-.13-49.34-2.6-7-.36h0l-14.13-.75h0l-3.69-.19h0l-55.07-2.9-4-.21-29.35-1.55h0l-4-.21-20.23-1.06h0l-113.21-6L62.5,977l-.92-.05-6.72-.35-.57,0c-.52,0-1-.07-1.55-.12s-1-.11-1.53-.19-1-.16-1.51-.26-.88-.18-1.32-.29l-.79-.2-.8-.22-.18-.06c-.4-.11-.8-.24-1.19-.37l-.41-.15-1-.36c-.43-.17-.85-.35-1.26-.53-.23-.1-.47-.21-.7-.33l-.77-.37a2.49,2.49,0,0,1-.28-.15c-.3-.15-.59-.3-.87-.47s-.35-.19-.52-.29c-.33-.18-.65-.38-1-.58s-.83-.53-1.23-.81-.7-.5-1.05-.76l-.28-.21c-.34-.26-.67-.53-1-.8s-.74-.64-1.1-1-.71-.66-1.06-1-.68-.7-1-1.06-.52-.57-.76-.87a5.07,5.07,0,0,1-.37-.44c-.18-.2-.34-.41-.5-.62a4.4,4.4,0,0,1-.38-.5c-.19-.24-.37-.49-.54-.74a3.13,3.13,0,0,1-.29-.42c-.2-.28-.39-.56-.56-.84a3,3,0,0,1-.21-.33c-.16-.25-.31-.5-.46-.76s-.23-.38-.34-.58-.36-.65-.52-1a.76.76,0,0,1-.09-.18q-.16-.3-.3-.6c-.16-.32-.31-.65-.45-1s-.36-.83-.53-1.26c0-.12-.1-.25-.14-.38-.13-.34-.26-.69-.38-1a.07.07,0,0,1,0-.05q-.23-.66-.42-1.35c-.14-.46-.26-.93-.38-1.41a31.17,31.17,0,0,1-.78-4.86h0c0-.35-.06-.7-.08-1.06l-.5-9.5-.28-5.32L21.43,907c731.46,161.65,910-5.53,949.57-127.8,18.26-56.36,7-103.18,6.75-103.84h0Q984.15,676.3,990.66,677.55Z"/></g></g></g></svg>