<svg xmlns="http://www.w3.org/2000/svg" viewBox="0 0 1000 1000"><defs><style>.cls-1{fill:none;}.cls-2{fill:#5d4038;}.cls-3{fill:#c0e9ef;}.cls-4{fill:#dcf4f9;}.cls-5{fill:#aadee9;}.cls-6{fill:#7bbcc1;}.cls-7{fill:#df9c96;}.cls-8{fill:#6c546c;}.cls-9{fill:#af767b;}.cls-10{fill:#895e6d;}.cls-11{fill:#c42f1a;}.cls-12{fill:#ef782e;}.cls-13{fill:#f7d541;}.cls-14{fill:#7a810c;}.cls-15{fill:#919c0f;}.cls-16{fill:#6d4b3f;}.cls-17{fill:#8a685c;}.cls-18{fill:#7f890e;}.cls-19{fill:#cc9612;}.cls-20{fill:#33381c;}.cls-21{fill:#272a15;}.cls-22{fill:#353e23;}.cls-23{fill:#3d4227;}.cls-24{fill:#8595ae;}.cls-25{fill:#78688f;}.cls-26{fill:#eefbfd;}</style></defs><g id="Layer_2" data-name="Layer 2"><g id="OutPut"><rect id="BG" class="cls-1" width="1000" height="1000"/></g><g id="Bachground"><g id="_7" data-name="7"><path class="cls-2" d="M990,689.2l-.12,2.37-.45,8.5,0,.83-.34,6.3-.74,14.13-.09,1.71-19.44,3.13h0L873.17,741.6l-23.74,3.83h0l-11.89,1.91h0L768,758.56l-7.27,1.17-14.88,2.4L636.41,779.79,531.86,796.65l-42.53,6.87h0l-3.39.54-76.44,12.33L251.33,841.9l-84.22,13.59-55.61,9-30.65-20.9-8-5.47-17.54-12-39.55-27-.15-2.82-.09-1.82,0-.52-.68-13-.26-4.91L13.4,754.64l-.58-10.94-.17-3.26-.09-1.7-.71-13.57-.95-18-.16-3.1a217.62,217.62,0,0,0,25.67,4.24c36.49,4.07,98.79,4.49,204.3-8q19.1-2.26,40.1-5.13h.07L289.5,694c6.05.8,11,1.55,15,2.26h0c1.29.23,2.48.45,3.58.67,32,6.37-10.38,9.48,12.37,14C346.5,716,456.86,720,504.68,694a128.36,128.36,0,0,1,15-7.14,54.34,54.34,0,0,1,5.34-1.77c6.35-1.72,10.19-1.16,13.13.36A15.84,15.84,0,0,1,541,687.3h0c3.54,2.84,6.43,6.64,13.16,7.64,3.33.5,7.59.32,13.33-1a66.84,66.84,0,0,0,15.72-5.69c1-.51,2-1,2.91-1.55h0c4-2.21,7.55-4.58,11.45-6.84h0c9.56-5.51,20.87-10.35,43.46-10.66,1.9,0,3.89,0,6,0A293.85,293.85,0,0,1,679.5,672c28.53,3.78,41.58,8.86,49.71,13.66a73.5,73.5,0,0,1,6.59,4.43l1.53,1.12q.43.33.87.63h.06a37.08,37.08,0,0,0,8,4.64c7.67,3.14,19.72,4.58,47.1,2.67l2.16-.16c14.85-1.1,26.59-2.54,36.38-4.14H832c1.58-.25,3.11-.51,4.59-.77h.07c5.69-1,10.6-2.1,15.12-3.17,3.16-.76,6.1-1.51,8.9-2.26,7.74-2.06,14.42-4,21.87-5.6,12.56-2.66,27.3-4.18,53-3.06l1.55.08h0A214.62,214.62,0,0,1,990,689.2Z"/><path class="cls-3" d="M993,367.42,790.76,416.74l-41.31,10.07L740.34,429l-9.25,2.26-6.37,1.55-1.24.3-3.87.95-42,10.23-22.3,5.44-97.6,23.8-28,6.83-18.49,4.51L462.3,496.83l-39.94,9.74-58,14.14h0l-24.67,6-81.45,19.86L223.75,535.8l-30.5-9.54-35.72-11.18L61.92,485.16h0L1.77,466.34,6.26,381l6.25-118.77,2-37.75.15-2.79h0L23.46,54.29A32.58,32.58,0,0,1,54.29,23.46l136.59-7.19,48-2.53h0L496.2.2l2.09-.11a32.51,32.51,0,0,1,3.42,0l2.35.12h0L945.71,23.46a32.58,32.58,0,0,1,30.83,30.83L986.84,250l2.06,39.2.56,10.61,2.72,51.71Z"/><path class="cls-4" d="M999.91,501.71l-3.9,74,0,.67-1.57,29.81.08.09-.08,0-.18,3.4-.62,11.79-9.14-.81-8.14-.73-1.18-.1-8-.71-15.49-1.37-.85-.08-57.13-5.06h0l-12.42-1.1-13.79-1.22-18.65-1.65h0l-32.26-2.86-1-.09-57.35-5.08-30-2.65-106.14-9.41-22.3-2-10.86-1-24.47-2.16-108.9-9.65-.3,0-14.89-1.32-22.68-2h0l-42.4-3.76-23-2-25.57-2.26L185.39,549.84l-46.27-4.1L1.77,533.57l-.34-6.42L.31,505.92h0l-.22-4.2a32.51,32.51,0,0,1,0-3.42l1.68-32L6.26,381l6.25-118.77,2-37.75c42-4.91,105.23-7.16,112.5,22.38,1.62,6.59,1.46,11.73,0,15.81-8.13,23.64-58,12.05-46,40.85C95,337.35,307,289.39,322,333s-74,5.85-58,40c7.65,16.32,145.15,21.62,286.58,18.88h0q10.53-.19,21.08-.46,9.83-.24,19.62-.54l1.84-.05.77,0,1.22,0,4.55-.14,1.73,0h0l8.28-.29h0q9.79-.35,19.46-.73,10.19-.42,20.23-.88l12.54-.61c21.36-1.08,42-2.34,61.35-3.77l2.51-.19,1.85-.14,5.11-.39c11.81-.93,23.1-1.92,33.74-3,58.33-5.77,97.5-13.42,97.5-22.46a20.65,20.65,0,0,0-1.2-7.1c-5.43-15-28.35-20.11-47.76-27h0c-15.17-5.36-28.2-11.83-29-25-1.38-22.28,122.75-40.05,200.83-49l2.06,39.2.56,10.61,2.72,51.71.84,15.92,4.81,91.3.22,4.21.08,1.54,1.1,20.9.68,12.92A32.51,32.51,0,0,1,999.91,501.71Z"/><polygon class="cls-5" points="196 518 565.19 433 544.78 544 326 617 180 566 196 518"/><path class="cls-6" d="M471.39,566.33l-16.13,7.41-1,.46h-.39L402.61,598h0l-45,20.69-4,1.85h0l-45.07,20.73s0,0,0,0l-5,2.29L293,648.33l-19.28-1.15h0l-41.84-2.48L116,637.82,6.91,631.35l-.13-2.46L2.43,546.26l-.66-12.69-.34-6.42L.31,505.92h0l61.6-20.75h0L127.67,463,260.9,503.06h0l78.76,23.67,15.13,4.55,21.62,6.5L400,544.86,437,556l19.16,5.76Z"/><polygon class="cls-7" points="792.43 693.3 747.18 691.55 708.04 690.04 366.57 680.73 155.34 675.26 264 631.87 375.33 508.54 403.33 508.54 424 457.88 450 467.87 461.33 446.54 491.33 446.54 510.69 405.21 554.51 390.54 595.34 323.87 622.66 341.21 644.87 335.55 652.63 333.57 660.47 381.89 674.47 439.89 692.47 465.05 713.47 512.87 737.47 534.39 757.47 561.97 758.47 612.89 786.01 652.12 792.43 693.3"/><path class="cls-8" d="M994.49,606.29l-.08,0-.18,3.4-.62,11.79-1,18.42-.58,10.91h0l-.79,15-.82,15.69-.41,7.7-.12,2.37-.45,8.5,0,.83-101-3.9-36.21-1.39L832,694.82h-.08l-39.44-1.52,0-.26-.94-6-2-13.06-2.74-17.56-.67-4.3-10.54-15-8.05-11.46-9-12.76-.18-9.25-.06-3.06L757.46,562l-20-27.58-24-21.52-21-47.82-14.83-20.73-3.17-4.43L661.94,388l-1.48-6.14L655,348.09l-.25-1.57h0l0-.15v-.06h0l-2.06-12.72,4-1,26.66,6,14.53-11.41,4.15-3.26,3.54,4.55,19.81,25.43h0l6.35,8.15h0l3.6,4.64h0l2,2.55,3.39.1,4.53.14,14.08.42,7.17,10.69,24.26,36.18,9.25,13.8,30,27.34,21.33,5.33,16,4,17,18.6L994.41,606.2Z"/><path class="cls-9" d="M637.57,337.41l-.93,5.76-1.95,12.14-6.23,38.58-22.79,28-9.21,22-58,14-14,36-35,19,2,25-103,69.62L344.1,680.15l-10.64,17.39-25.11-1.14-59.91-2.74-44-2,25.61-14.46h0l32.39-18.31,79-82.17,38-42.33,38-11.5,11-36.61,17,5.61,27-26.84h26l12-40.16,47-8,45.22-81.11,1.13-2,1.86-3.33,7.72-2.43h.06l9.34-2.94,1.36-.43c.64.43,1.21.94,1.93,1.44a12.2,12.2,0,0,0,3.5,1.64h0L634,333.1Z"/><path class="cls-10" d="M626.08,326l-.75,4.27-1.63,9.23-.25,1.47-.56,3.21-1.27,7.21-4.83,27.46-19.33,31L585,434.67l-15.55,4.22-38,9.14-21,38.25-36,14.61-8,27.27h-13l-20,33.81-54,28.92-25,28.17-38.7,60.35-.3.48-7.11,16.51-12.89,29.88-63,3.12-3-19.51,19-16.23,18.14-15.52,10.88-9.31s42-36.94,44-39.94,34-43,34-43l41-39.79,33-11.71,8-28.83,17,7.31,13-26.59,33-7.18,25-44.43,44-6.78,23-39,18.23-38.37h0l2-4.27h0l3.73-7.82.32-.67.1-.22.88-1.86,3.61-7.6,1.44-3,.47-1a6.06,6.06,0,0,1,.89.55C624.79,325,625.36,325.54,626.08,326Z"/><path class="cls-9" d="M747.19,691.55l5.29-27.44-23-45.43-3-50.79-43-62.33-29-57.53-8-93.43-.32-3.69-.2-2.32-1.11-13,1.83-13,.13-.94,1.32-9.35a4.27,4.27,0,0,1,2.29.09l.8,7.75.21,2,1.19,11.47,2.06,12.72,0,.22.25,1.58,5.47,33.8,14,58,18,25.16,21,47.82,24,21.52,20,27.58,1,50.92L786,652.12l6.43,41.18,1,6.6-49,5.73Z"/><polygon class="cls-9" points="852.47 697.55 844.47 623.65 808.15 601.04 786.01 549.89 786.01 529.89 810.33 585.89 857.47 613.72 874.47 664.11 888.47 697.01 888.47 715.19 852.47 697.55"/><polygon class="cls-9" points="719.17 395.89 747.47 423.89 775.47 465.05 837.24 490.89 841.47 512.88 888.47 534.39 892.47 590.9 875.8 546.1 805.82 529.89 818.47 498.89 782.47 486.28 752.47 448.03 719.17 395.89"/><polygon class="cls-9" points="607.47 486.28 564.47 534.39 564.47 590.9 532.47 585.89 553.47 647.4 554.47 714.72 648.47 714.26 633.47 622.54 617.47 607.46 632.47 546.1 607.47 486.28"/><polygon class="cls-8" points="597.47 537.89 585 607.52 572.47 618.69 590.47 683.19 607.47 628.89 600.47 600.5 597.47 537.89"/><path class="cls-11" d="M734.83,378.54c-7.5-3.5,1.56,9.26-2.62,9.6s-.32,1.83,1.18,8c1,4-2.32,5.68-7.25,6.64h0c-.74.15-1.51.27-2.31.39-2.12.31-4.43.55-6.77.8-9.16,1,27.66,38,16.84,41.17s-17.63-20.63-23.81-27.46-1.37-23,7.47-22.54,6.16-2.17,4.66-8.17,3.25,2.63.75-10-15.28-10.25-19.13-12.25-9.78-18.63-17.12-19.63,6.5,19.75-3.32,24.42-7-20.17-19-23a11.53,11.53,0,0,0-9.4,1.62c-3,1.88-5.47,4.68-8.49,6.51a11.67,11.67,0,0,1-8.29,1.7,14.42,14.42,0,0,1-3.52-1c-7.24-3.09-6-10.49-13.07-3.88-.29.26-.58.55-.91.87-9.16,9.17-20.16,48.34-26,45.67s-.16-12.83,9.84-20.5c5.9-4.53,7.51-16.86,6.14-27h0c-.94-7-3.3-12.87-6.64-14.37a4.42,4.42,0,0,0-1.37-.36c-7.79-.61-16.22,21.65-23.29,23.86a12,12,0,0,1-6,.14h0c-5.61-1.28-9.41-5.92-.64-8.64,11.36-3.52,16.28-20.56,22.42-26.93a2.65,2.65,0,0,1,.29-.29c.15-.16.31-.31.47-.45,4.12-3.59,8.78-2.23,11.63-.74a15.3,15.3,0,0,1,2.69,1.74c8.12-1.69,11.12-1.4,13-.42a6.06,6.06,0,0,1,.89.55c.64.43,1.21.94,1.93,1.44a12.2,12.2,0,0,0,3.5,1.64h0c.35.1.72.2,1.11.29,7.1,1.61,11-14.22,17.44-15.75a4.27,4.27,0,0,1,2.29.09,7.72,7.72,0,0,1,2.95,1.83c16.57,15.41,19.54,5.5,25.69,8.66s15.31-.5,24.81-.83c5.3-.18,4.57,2.95,1.66,6.45a35.66,35.66,0,0,1-9.16,7.55c-7.18,4,6.5,18,22,17.33a27.9,27.9,0,0,1,7,.55c10.24,2.13,16.37,9.82,19.88,15.6.29.47.55.92.8,1.35C750.05,377.8,742.33,382,734.83,378.54Z"/><path class="cls-12" d="M627.16,339.79C623.38,344.12,616.3,350,613.22,355c1.5-7-2.93-19.28-10.18-21.53s-14.57,13-17.32,17.28-18.05,7.3-15,5.5c2.2-1.3,4.17-2.6,6-3.9h0c14.68-10.61,16.41-20.48,19.53-23.6,3.5-3.5,7-1.23,14.25,0,1-.32,2-.58,2.92-.77,10.32-2.16,13.07,3.76,15.83,6.53C630.27,335.57,629.2,337.46,627.16,339.79Z"/><path class="cls-12" d="M604,378.76s-2.18,10.16-6.57,15.17a8.29,8.29,0,0,1-3.16,2.38c-2.72-1.36-1-5.08,1.74-8.75v0A74.88,74.88,0,0,1,604,378.76Z"/><path class="cls-12" d="M734.93,375.53c-2.9.15-5.88,0-7.21,0-3.25,0,.5,9.75,1.5,14a13.55,13.55,0,0,1-3,11.25c-2,2-10-.5-12.5,4.5a28.28,28.28,0,0,0,1.92,12c4,10.72,12.45,19.18,12.08,19.73-.5.75-13-12.75-15-20s-2.75-20.75,5.75-19.75,9.25-2,7.41-3-2.16-5.25-.66-6.25,0-6.75,0-9.25c0-2.17-4.35-10.4-7.62-14.28a11.65,11.65,0,0,0-1.38-1.41,5.15,5.15,0,0,0-1.71-.94h0c-3.12-1.07-7.1.43-10-.62a8,8,0,0,1-2.53-2.35c-4.9-5.9-13.79-20.55-20-18.9-7.5,2,2.25,21.5-2.5,22.75a1.8,1.8,0,0,1-1.83-.62c-3.22-3.26-4.56-17.28-11.61-18.77a10.94,10.94,0,0,0-5,.45,35.2,35.2,0,0,0-4.33,1.56h0c-9,3.83-19.29,11.12-18.22,7.37a9.14,9.14,0,0,0,0-4.07c-1-5.44-5-12.18-5-12.18.32-7.62,5.17-11.46,10-13.76h0c2.6-1.24,5.18-2,7-2.74,2.16-.82,5,.81,8.54,2.74h0c5.07,2.77,11.61,6.16,19.7,3.88,13.75-3.86,14.5-2.38,18.75,0s-2.75,3.12-5.5,8.37,1.5,6.25,7.25,13,20.75,13.75,26,12.5c2.4-.57,5.69.58,8.75,2.48,3.62,2.26,6.92,5.56,8,8.27C743.15,374.46,739.11,375.32,734.93,375.53Z"/><path class="cls-13" d="M585.72,350.76c-2.75,4.25-18.05,7.3-15,5.5,2.2-1.3,4.17-2.6,6-3.9h0A12.33,12.33,0,0,0,585.72,350.76Z"/><path class="cls-13" d="M597.4,393.93a8.29,8.29,0,0,1-3.16,2.38c-2.72-1.36-1-5.08,1.74-8.75C595.81,387.92,593.44,393,597.4,393.93Z"/><path class="cls-13" d="M627.16,339.79c-9.81,1-13.77-11.8-13.77-11.8,10.32-2.16,13.07,3.76,15.83,6.53C630.27,335.57,629.2,337.46,627.16,339.79Z"/><path class="cls-13" d="M616.21,337.56a11.87,11.87,0,0,1,4,2.28c2,1.72,1,4.13-1,3.3S616.21,337.56,616.21,337.56Z"/><path class="cls-13" d="M659,323c-4-2.05-15.15-.07-15.56,0,2.6-1.24,5.18-2,7-2.74C652.63,319.44,655.46,321.07,659,323Z"/><path class="cls-13" d="M656.69,345.64c-9,3.83-19.29,11.12-18.22,7.37a9.14,9.14,0,0,0,0-4.07S642.34,350.53,656.69,345.64Z"/><path class="cls-13" d="M677.64,362.39c-3.22-3.26-4.56-17.28-11.61-18.77a10.94,10.94,0,0,0-5,.45C679,337.31,677.64,362.39,677.64,362.39Z"/><path class="cls-13" d="M714.5,362.13c-3.12-1.07-7.1.43-10-.62a8,8,0,0,1-2.53-2.35A27.94,27.94,0,0,1,714.5,362.13Z"/><path class="cls-12" d="M717.6,364.48a11.65,11.65,0,0,0-1.38-1.41A3.57,3.57,0,0,1,717.6,364.48Z"/><path class="cls-13" d="M727.72,437c-.5.75-13-12.75-15-20l2.92.27C719.6,428,728.09,436.46,727.72,437Z"/><path class="cls-13" d="M734.93,375.53c3.07-4.76-1-12.28-1-12.28h0c3.62,2.26,6.92,5.56,8,8.27C743.15,374.46,739.11,375.32,734.93,375.53Z"/><path class="cls-14" d="M994.23,609.65l-.62,11.79-1,18.42-.58,10.91h0l-.79,15-.82,15.69-.41,7.7-.12,2.37-71.48-1.63-33.31-.76-24.49-.56-9.17-.21-60-1.37-43.21-1-10.62-.25-8.42-.19-55.7-1.27-.91,0-29.32-1.74-45.65-2.71h0l-6-.35-2.21-.13-35.5-2.11L501,674.15l-83.28-4.94-39.49-15.37-2.79-1.09h0l-11.75-4.58-1.3-.5,2.6-1.64h0L409,618.33a13.3,13.3,0,0,1,.84-5.89C411,609.68,413.48,607,419,607c7.5,0,11.21,5,12.85,8.32a17.33,17.33,0,0,1,1.11,2.84,14.46,14.46,0,0,1-.23-2.7c0-4.79,2.24-14,18.94-14.46,21.53-.64,25.62,15.58,26,17.2-.16-1.26-.32-11.05,34-8.54a89.37,89.37,0,0,1,16.53,2.58c10.49,2.81,14.94,7.07,16.81,10.41a10.15,10.15,0,0,1,1.28,3.74,23.62,23.62,0,0,1,.45-4.27c1.58-8,8.33-21.62,36.26-21.14,1.07,0,2.12.06,3.14.14h0a49.18,49.18,0,0,1,15.3,3.41,43.27,43.27,0,0,1,21.89,20.06,52.17,52.17,0,0,1,4.39,10.92A17.25,17.25,0,0,1,631.82,621c6.06-6.63,20-11.68,51.18-7.32,7,1,13.25,2,18.74,3a208.34,208.34,0,0,1,20.37,4.73,85.35,85.35,0,0,1,10.68,3.82c9.88,4.41,10.06,8.06,9.76,9.3.83-2.07,5.1-10.55,19.45-9.77a23.54,23.54,0,0,1,5.42.87c4,1.17,6.23,3.32,7.42,5.51C774.19,623.07,776,611,793,612.33h0c12.82,1,16.17,7.65,16.36,13.92,0,.29,0,.57,0,.85q.12-.24.27-.48a21,21,0,0,1,2.32-3.13c3.32-3.74,8.73-7.24,17.49-9.16h0a82.47,82.47,0,0,1,22-1.33c1.92.11,3.73.25,5.44.43h0c10.4,1.07,17.18,3.4,21.5,6.27l0,0a17.76,17.76,0,0,1,3.81,3.37,13.51,13.51,0,0,1,2.21,3.74,32.5,32.5,0,0,1,9.16-14.25h0c6.13-5.4,15.54-9.12,30-8.25a88.51,88.51,0,0,1,26.7,5.56l.51.2a68.61,68.61,0,0,1,16.27,9C977.65,627,981.67,635,981.67,635a29.88,29.88,0,0,1,2.8-14.37A26.34,26.34,0,0,1,994.23,609.65Z"/><path class="cls-15" d="M994.41,606.25l-.18,3.4-.62,11.79-1,18.42-.58,10.91h0l-16.12,8.57-14.17,7.54L937.06,680h0l-18.61,9.9-10.77,5.73-20-.46h0l-35.57-.81-15.5-.35h-.07l-44.15-1-16.21-.37h-.07l-29-.66-8.84-.2h-.06l-2.75-.06-50.67-1.15h0l-40.32-.92-61.22-1.39-29.16-.67-13-.29h0l-21.32-.48-60.48-1.38h-.05l-26.23-.6-22.32-.51-66.64-4-6.85-.41H337l-7.3-.43h0l-13.48-.8-47.05-2.79-8.8-.52h-.05L235.8,674l-67.22-4h0l-12.9-.76-19.5-7.59-32.26-12.56h0l-3.56-1.39L116,637.82l20.69-13L147,618.33S145.67,607,157,607c10.91,0,13.79,10.5,14,11.28-.22-1-3.25-16.63,18.68-17.28,21.53-.64,25.62,15.58,26,17.2-.16-1.26-.32-11.05,34-8.54,14.41,1.05,22.85,4.06,27.78,7.32,5.4,3.58,6.6,7.46,6.84,9.41a23.54,23.54,0,0,1,11.47-19.95c5-3.07,12.15-5.27,22.38-5.46.93,0,1.88,0,2.86,0a50.43,50.43,0,0,1,19.3,3.9,41.11,41.11,0,0,1,8.11,4.64,42.15,42.15,0,0,1,7.87,7.49c.45.54.88,1.09,1.28,1.64a51.33,51.33,0,0,1,8.17,16.86c-.85-5.46-.44-17.88,19.1-22.06,6.21-1.34,14.36-1.83,25-1,3.45.27,7.16.67,11.16,1.23s7.47,1.09,10.85,1.65l.88.14c47.45,7.9,48.32,17,47.82,19.09.83-2.07,5.1-10.55,19.45-9.77,7.63.42,11.2,3.36,12.84,6.38-.61-7.63,1-18.79,15.36-18.92a27,27,0,0,1,2.8.09c5.55.44,9.32,1.92,11.84,4a11.82,11.82,0,0,1,3.9,5.82,16,16,0,0,1,.67,5c3.62-6.38,12.05-13.3,31.53-14.18a104.9,104.9,0,0,1,10.58.08A90.49,90.49,0,0,1,604,614.85c11.66,2.58,16.7,7.25,18.51,12,.25-.74.52-1.49.83-2.24a33.5,33.5,0,0,1,4.25-7.59c5.73-7.61,15.94-13.77,34.08-12.67s31,6.43,40.07,12.37c13,8.54,17.93,18.3,17.93,18.3a29.82,29.82,0,0,1,2.44-13.57,26,26,0,0,1,7-9.43c5.69-4.9,14.76-8.57,29.21-8.36l1.39,0c14.31.44,25.2,4,33.37,8.66a56,56,0,0,1,16.36,13.92l.28.37a41.56,41.56,0,0,1,5.25,8.51A50.13,50.13,0,0,1,812,623.49c-.72-5.91-.24-12.78,4.22-17.42l.32-.32c3.56-3.48,9.48-5.61,19-5,.68,0,1.39.11,2.11.18,13.32,1.39,22.93,5.06,29.79,9.29a44.46,44.46,0,0,1,11,9.44l0,0a30.39,30.39,0,0,1,5.07,8.29c-.22-.7-.75-2.48-1.26-4.92a48.34,48.34,0,0,1-1-11.61c.5-11.69,6.72-24.39,33.08-19.81,24.12,4.19,33,11.87,36,18.22.17.35.32.7.45,1l.06-.84c.61-8.36,3.37-18.32,13.45-15.09,7.71,2.46,10.72,9,11.71,15.36C977.8,604.42,982.56,600.2,994.41,606.25Z"/><path class="cls-16" d="M992.64,639.86l-.58,10.91h0l-.79,15-.82,15.69-.41,7.7-.12,2.37-.45,8.5,0,.83-.34,6.3-.74,14.13-70.08,3.38-16,.77h0l-24.51,1.18L850,728l-49.21-1-10-.21-3.1-.06-330-6.73-158.48-2.33-68.67-1L50.82,714,36.41,708.3,10.42,698,9,670.07l0-.91-1.62-30.9-.37-6.91-.13-2.46c33.4-1.68,83.82-3.81,129.91-4.08C180.47,624.55,220.34,626,238,631c4.76,1.36,10.75,2.77,17.66,4.2h0c7.4,1.54,15.87,3.1,25.07,4.67h0c7.18,1.22,14.79,2.44,22.69,3.66l2.11.32c9.78,1.49,19.95,2.95,30.21,4.37,8.57,1.2,17.2,2.36,25.72,3.47l10.9,1.41h0l5.78.74c46.87,5.93,86.37,10.16,86.37,10.16s35.58-4.25,89-9.55c8.9-.89,18.3-1.8,28.12-2.73,6.23-.59,12.64-1.19,19.19-1.78l5.33-.49h0c10.09-.91,20.51-1.82,31.19-2.73,32.51-2.75,67.35-5.4,102.42-7.58,11.88-.74,23.79-1.42,35.64-2l.31,0,.38,0c10.26-.53,20.49-1,30.62-1.42l1,0,7.22-.28q15.51-.58,30.61-1,9.45-.23,18.69-.36,9.39-.13,18.51-.16h2.39c35.47-.05,67.4,1.2,92.79,4.29Q985.62,639.07,992.64,639.86Z"/><path class="cls-17" d="M991.27,665.81l-.82,15.69-.41,7.7-.12,2.37-.45,8.5,0,.83-.34,6.3-.74,14.13-.09,1.71-.2,3.69-1.72,32.68-36.31,5L822.56,782.07h0l-54.65,7.57-10.4,1.44L743.55,793l-15.86,2.19h0L614.55,810.86l-60-10.31-22.7-3.9-99.34-17.06-146.11-25.1L50.82,714,10.9,707.16l-.16-3.1L10.42,698,9,670.07l0-.91-1.62-30.9c22.21-.44,44.24.16,55.27,3.43,7.06,2.09,21.68,4.75,41.34,7.37h0c25.26,3.37,58.82,6.68,95.35,8.66h0c20.08,1.08,41,1.76,62,1.83,9,0,18,0,27-.26,14.18-.34,28.18-1,41.73-2.06h0l4.56-.38q13.35-1.14,25.24-2.39,6.49-.68,12.59-1.36h0l3-.35h0c76.07-8.76,107.85-18.66,155.16-10.06,5.29,1,12.84,1.9,22.26,2.82h0c8,.79,17.34,1.55,27.76,2.29,6.45.46,13.32.91,20.54,1.35l5.08.3h0c10.06.59,20.76,1.17,31.92,1.72,33.83,1.66,72,3.1,109.92,4.21,13,.39,25.88.74,38.62,1,21.3.51,42.06.9,61.45,1.16,8.35.12,16.44.2,24.22.27,36.15.28,65.42,0,81.2-1a64.86,64.86,0,0,1,22.39,2.5A74.35,74.35,0,0,1,991.27,665.81Z"/><path class="cls-16" d="M990.45,681.5l-.41,7.7-.12,2.37-.45,8.5,0,.83-.34,6.3-.74,14.13-.09,1.71-.2,3.69-1.72,32.68-.31,5.92-.69,13.22,0,.69-76.07,22.12h0L847,819.43H847l-10.78,3.15h0l-10.86,3.16-52.87,15.37-1.88.54h0l-6.82,2-4,1.15h0l-1.64.48-12.56,3.65h0l-.22.07-494-7.1-142.33-2s-14.92-.62-36.17-1.77c-16-.87-35.66-2-55.21-3.49l-.34-6.53-.45-8.57-.15-2.78L16.27,809l-.11-2-.42-7.79-.15-2.82-.09-1.82,0-.52-.68-13-.26-4.91L13.4,754.64l-.58-10.94-.17-3.26-.09-1.7-.71-13.57-.95-18-.16-3.1L10.42,698,9,670.07l0-.91C15.17,663.25,24.49,657.43,36,659c22,3,17,20,34,21s14-15,30-17c4.17-.52,18-1.06,36.17-1.38,15.75-.27,34.81-.39,53.8-.19,23.42.25,46.74,1,63.66,2.45,12.27,1.07,21.17,2.54,24.31,4.52a2.93,2.93,0,0,1,1.06,1c2.87,5.07-2.25,5.23-8.27,5.2-3.68,0-7.65-.1-10.38.83h-.05a4.58,4.58,0,0,0-3,2.48A4.53,4.53,0,0,0,257,680c.11,1.17,1.68,2,4.43,2.51,8.8,1.7,29.72.44,53.6-1.67q6.18-.54,12.55-1.16h.06l2-.19h0c5.22-.5,10.5-1,15.73-1.54,29.73-2.92,58.25-5.81,69.7-5,15.65,1.12,16.21,5.71,17.06,9.52a9.4,9.4,0,0,0,.74,2.32c.95,1.85,3.05,3.16,9.08,3.16a73.29,73.29,0,0,0,17.15-2.56h.05c2.4-.59,4.85-1.26,7.46-2,9.76-2.73,21-6.24,34.29-9.31a270.7,270.7,0,0,1,27.52-4.94c8.8-1.1,17.22-2.68,25.25-4.39,10.6-2.25,20.53-4.73,29.77-6.6,5.43-1.11,10.63-2,15.58-2.53,10.39-1.12,19.71-.61,27.93,3,3.79,1.69,8.38,4.06,13.5,6.87,2.1,1.14,4.29,2.36,6.55,3.64,8.17,4.6,17.27,9.92,26.46,15.1,3,1.68,6,3.36,9,5h.08c.76.41,1.44.82,2.2,1.23h0C702,699.9,718.24,707.56,728,708c10.39.47,6.06-7.76,7.45-16.26,0-.21.07-.43.11-.64s.15-.7.24-1.05a14.93,14.93,0,0,1,1.83-4.24c2-3.21,5.73-6.15,12.27-8.31,8.05-2.67,20.45-4.16,39.52-3.52l.58,0a581.19,581.19,0,0,0,59.78-1.16c9.53-.65,18.69-1.44,27.43-2.26,36.24-3.42,65.35-7.41,84.56-3.69a46.25,46.25,0,0,1,8.23,2.32C997.74,680.11,971.61,681.09,990.45,681.5Z"/><polygon class="cls-18" points="988.06 726.73 986.34 759.41 986.03 765.33 985.34 778.55 985.3 779.24 985.21 781.04 985.21 781.05 934 813.76 925.41 814.32 847.04 819.43 846.97 819.44 831.42 820.45 823.36 820.98 790.89 823.09 790.88 823.09 772.1 824.32 762.21 824.96 748.82 825.84 748.81 825.84 730.24 827.05 646.35 832.52 646.29 832.52 570 837.5 541.21 825.37 541.19 825.37 490.12 803.85 489.33 803.52 489.32 803.52 432.52 779.59 424 776 433.12 761 512.47 753.57 512.51 753.57 698 736.21 807 736.21 877.27 728.3 902.29 725.48 902.3 725.48 911 724.5 918.27 724.71 968.8 726.17 968.82 726.17 988.06 726.73"/><path class="cls-19" d="M986,765.33l-.69,13.22,0,.69-.09,1.8h0l-.69,13.05-.08,1.4v.06l-.11,2.22-2,38.38-31,5.15-43.72,7.28-7.4,1.23-6.43,1.07-1,.17h0L548.81,908.27,365.33,938.8,17.82,838.45l-.13-2.54-.06-1.09-3.32-.46,3.31.24-.34-6.53-.45-8.57-.15-2.78L16.27,809l-.11-2-.42-7.79-.15-2.82-.09-1.82,0-.52-.68-13-.26-4.91L13.4,754.64l-.58-10.94-.17-3.26-.09-1.7L240,761.54l46.41-7,36.92-5.61,189.14,4.69h0l158.89,3.95,72.6,1.8,16.75.41,7.83.2L866,762.35h0l84,2.08Z"/><path class="cls-20" d="M985.34,778.55l0,.69-.09,1.8h0l-.69,13.05-.08,1.4v.06l-.11,2.22-2,38.38-1,19.18-3,56.66-.14,2.71-.2,3.72L959,965,548.81,908.27l-381.7-52.78L80.85,843.56l-63.22-8.74-3.32-.46,3.31.24-.34-6.53c10.59-.53,23.35-1.19,38-1.94L339,811.6l146.89-7.54,4.19-.21,64.44-3.3,165.55-8.46,24-1.24,13.16-.66,10.63-.55,43.54-2.22L838.69,786l38.08-2h0C920.8,781.83,958,779.93,985.34,778.55Z"/><path class="cls-21" d="M742.18,842.85c.23-1-19.56-25.21-19.56-25.21l-1.09-11.14s16.82-6.15,16.39-7.11-17.76-6.8-17.76-6.8l-1.84-18.74-19.19,9.2-11-9.92,1.66,16.92-23.72.65-2.82-15.13-9.69,17.36-27.88-21.38S708.89,742.62,731.29,749s36.24,69,29,94.12S742.18,842.85,742.18,842.85Z"/><path class="cls-21" d="M760.7,850.68l16.92-39.11,17.54-8.42s2.69-21,54.71-23.29,101.5,61.54,101.5,61.54l-43.7,8.65-1.29-20-13,21.37-23.73-13.08,4.07-13.21-23.23,2.28-13.15-4.32-16.11-7.23L827,829.75l-11.35,10.58L798.4,839l-10.23,11.71Z"/><path class="cls-22" d="M760.7,850.68l-20.65-43.16,7.62-31.6s10.53-8.7,23.5-9.63c-3.53-8.7-6.6-16.1-6.6-16.1l25.88-26.32L793,749.41,802.9,721s53.66-16.32,80.82-12.62c-6.47,19.39-11.25,35.6-11.25,35.6l-39.6,2.55,42.64,7.87-22.59,19L797.06,781l44.74,1.9S823.54,801.67,816.51,805s-38.15-6.49-38.15-6.49L801.88,813Z"/><path class="cls-23" d="M981.3,855.34l-3,56.66-.14,2.71-.2,3.72-1.43,27.28c0,.53-.07,1.06-.12,1.58s-.1.88-.17,1.31a3.85,3.85,0,0,1-.07.49c0,.35-.11.7-.18,1s-.17.88-.28,1.32c-.06.25-.12.5-.19.75a8.48,8.48,0,0,1-.22.83c-.14.49-.3,1-.46,1.47-.25.74-.53,1.46-.83,2.17s-.62,1.41-1,2.09c-.18.38-.38.75-.59,1.11s-.4.69-.61,1-.34.56-.52.83c-.35.56-.73,1.11-1.13,1.64l-.51.67-.21.27q-.36.47-.75.9c-.22.26-.45.52-.68.77s-.67.72-1,1.06-.7.68-1.06,1-.73.65-1.1,1c-.75.62-1.52,1.22-2.33,1.77q-.6.42-1.23.81c-.41.26-.83.51-1.26.76s-.86.47-1.3.69-.88.44-1.33.65-1,.44-1.53.64l-1.24.46c-.45.15-.91.3-1.37.43a31,31,0,0,1-3,.75c-.49.09-1,.18-1.48.25s-1,.14-1.53.19-1,.09-1.55.12l-18.12,1-3.8.2L901,978.9l-7.63.4-15.68.82-19.49,1-15.09.79h0l-4.07.22-46.33,2.44-7.94.41-22.58,1.19-4.63.25h0l-72.15,3.8h0l-49.27,2.59-7.77.41L501.93,999.9h-.22c-.73,0-1.45.05-2.18,0h-.59l-.65,0-1,0-10.52-.55-6.37-.34L448,997.26l-4.46-.23h0l-73.28-3.86-4.32-.23-49.34-2.6-7-.36h0l-14.13-.75h0l-3.69-.19h0l-55.07-2.9-1.41-.07-2.58-.14-29.35-1.55h0l-4-.21-133.45-7L62.5,977l-.92-.05-6.72-.35-.57,0c-.52,0-1-.07-1.55-.12s-1-.11-1.53-.19-1-.16-1.51-.26-.88-.18-1.32-.29l-.79-.2-.8-.22-.18-.06c-.4-.11-.8-.24-1.19-.37l-.41-.15-1-.36c-.43-.17-.85-.35-1.26-.53-.23-.1-.47-.21-.7-.33l-.77-.37a2.49,2.49,0,0,1-.28-.15c-.3-.15-.59-.3-.87-.47s-.35-.19-.52-.29c-.33-.18-.65-.38-1-.58s-.83-.53-1.23-.81-.7-.5-1.05-.76l-.28-.21c-.34-.26-.67-.53-1-.8s-.74-.64-1.1-1-.71-.66-1.06-1-.68-.7-1-1.06-.52-.57-.76-.87a5.07,5.07,0,0,1-.37-.44c-.18-.2-.34-.41-.5-.62a4.4,4.4,0,0,1-.38-.5c-.19-.24-.37-.49-.54-.74a3.13,3.13,0,0,1-.29-.42c-.2-.28-.39-.56-.56-.84a3,3,0,0,1-.21-.33c-.16-.25-.31-.5-.46-.76s-.23-.38-.34-.58-.36-.65-.52-1a.76.76,0,0,1-.09-.18q-.16-.3-.3-.6c-.16-.32-.31-.65-.45-1s-.36-.83-.53-1.26c0-.12-.1-.25-.14-.38-.13-.34-.26-.69-.38-1a.07.07,0,0,1,0-.05q-.23-.66-.42-1.35c-.14-.46-.26-.93-.38-1.41a31.17,31.17,0,0,1-.78-4.86h0c0-.35-.06-.7-.08-1.06l-.5-9.5-.28-5.32L18.8,857.12l-.42-8-.54-10.33,0-.34-.13-2.54-.06-1.09-3.32-.46,3.31.24-.34-6.53-.45-8.57-.15-2.78L16.27,809l-.11-2-.42-7.79-.15-2.82-.09-1.82,23.38-3.37L339,811.6l70.45,4.79,131.7,9h0l105.08,7.15h.06l93.16,6.35h0l16.05,1.1h0l5.38.36,4.09.28h0l6.19.43,1.2.08,22.74,1.55h0l93.87,6.39h0l11.1.76Z"/><path class="cls-24" d="M713.85,228.75l0,0a26.61,26.61,0,0,0-3.45,2.77l0,0a10.32,10.32,0,0,0-3.53,5.87c-1.24,9.21-18.42-2-26-3.79h0c-1.47-.35-2.58-.34-3.14.23h0a1.83,1.83,0,0,0-.43,1.55c.67,8.67-2.67,20.67,12.67,17.33a8.36,8.36,0,0,1,4.48,0c7.91,2.67-2.47,22.58-11.82,22a9.19,9.19,0,0,1-4.91-1.8c-6.31-4.56-7.85-15.78-11.71-10.86v0a8.13,8.13,0,0,0-1.53,3.67h0c-1.17,6.5,2.16,16.18-6.87,25-1.37,1.34-17.11-3-21.74-13.36h0a14.55,14.55,0,0,1-1.26-6c0-14.67,4.43-18.67,15.23-15.33s21.56-14,16.18-18a27,27,0,0,0-4.8-2.45l-.08,0-.1,0c-10.14-4.3-29.73-10.56-26.43-15.48a5.79,5.79,0,0,1,3-2.1c6.85-2.44,21,.68,24-3.24,3.64-4.66,17-10.66,21-8s18.67-4.66,16.67-10.66-26-21.34-16.67-28,14.38,2,16.86-2.67,6.18-22,0-23.33-6.77,11.33-33.48,14-26.77,6-31.41-4-11.35,8.66-25.66,6.66,1.17-17.33-6.57-22a11.8,11.8,0,0,0-4.67-1.28h0a51.91,51.91,0,0,0-5.35-.22h0c-11.27,0-26.51,1.6-27-10.5a9.42,9.42,0,0,1,1-4.83c5.41-10.52,30.95-6.23,24.4-14.5-7.39-9.33,6.73-5.33,0-12.67s-28.67-27.33-7.7-27.33,17.24,8,29.44,10,13.47,0,22.17,9.33,2.3-10,18.83-10.66c13.49-.55,16.64,7.33,29.19,6.64h0a42.71,42.71,0,0,0,10.17-2c18.22-5.56,25.5-15.3,25.62-21.09,5,23.19-16.63,24.48-21.12,25.76-4.67,1.33-17.35,9.33-35,21.33s-8.23,29.34,3.72,23.34,12.62-15.34,19.29-8.67a23.39,23.39,0,0,0,4,3.11c7.64,4.88,19.38,7.67,23.92,4.89,5.44-3.33-1.11,13.33,4.5,19.33a11.41,11.41,0,0,0,2.5,2,0,0,0,0,0,0,0c6,3.69,14.88,3.49,12.5,13.33-2.73,11.33-7.93,10.66,0,16.66s.39,5.34-7.5,12.67c-4,3.74-10.05,7.48-13.46,11.31l-.22.26c-3.1,3.59-3.8,7.27,1.67,11.1,11.44,8,14.32-7.34,22.88-2C742.27,216,724.38,221.4,713.85,228.75Z"/><path class="cls-25" d="M697.2,83.44c-4.67,1.33-17.35,9.33-35,21.33s-8.23,29.34,3.72,23.34,12.62-15.34,19.29-8.67a23.39,23.39,0,0,0,4,3.11c-.42.3-.86.59-1.3.89-34.67,23.33-33.34,13.33-46,0s39.7-42.16,40.65-42.69h0a42.71,42.71,0,0,0,10.17-2c18.22-5.56,25.5-15.3,25.62-21.09C723.33,80.87,701.69,82.16,697.2,83.44Z"/><path class="cls-25" d="M725.1,191.44c-4,3.74-10.05,7.48-13.46,11.31,2-2.43,17.13-20.74,11.06-19.81-6.5,1-8.5-14-2.61-18s.24-15.68,0-16.16c6,3.69,14.88,3.49,12.5,13.33-2.73,11.33-7.93,10.66,0,16.66S733,184.11,725.1,191.44Z"/><path class="cls-25" d="M677.62,233.88h0Z"/><path class="cls-25" d="M710.34,231.57a10.32,10.32,0,0,0-3.53,5.87c-1.24,9.21-18.42-2-26-3.79,4.63-.26,13.17-.43,17.42,1.46C701.9,236.75,707,234,710.34,231.57Z"/><path class="cls-25" d="M657.5,290.77c-1.37,1.34-17.11-3-21.74-13.36h0s14.43,7.05,21.43,6.05-4-14.67,0-11.33c2.58,2.15,5.45-2.63,7.17-6.3C663.2,272.31,666.53,282,657.5,290.77Z"/><path class="cls-25" d="M682.53,274.77a9.19,9.19,0,0,1-4.91-1.8c13.88-3.09,16.65-19.7,16.73-20.19C702.26,255.45,691.88,275.36,682.53,274.77Z"/><path class="cls-25" d="M660.93,235.59c-10.14-4.3-29.73-10.56-26.43-15.48a5.79,5.79,0,0,1,3-2.1S644.71,228.45,660.93,235.59Z"/><path class="cls-25" d="M592.2,135.27c-11.27,0-26.51,1.6-27-10.5a9.42,9.42,0,0,1,1-4.83S566.9,133.36,592.2,135.27Z"/><path class="cls-26" d="M259,263.22l-132-.51-114.53-.44,2-37.75.15-2.79h0c3.66-3.22,8.74-6.71,17-10.11,32.17-13.26,45,14.33,67.56,8.25S121.73,243.1,141,238.81s8.58,11.79,30,10.72S259,263.22,259,263.22Z"/><path class="cls-26" d="M992.18,351.5,862.8,351,786,350.71s3.22-22.89,25.74-26.11c1.16-.17,2.25-.36,3.28-.58h0c19.09-4,18.58-16.5,46-15.14,29,1.43,1.08,9.29,40.76,14.41s23.59-9.41,55.76-22.67c13.2-5.44,23.16-4,31.86-.83Z"/><path class="cls-26" d="M999.23,485.37l-114.9.44-58.71.22-43.23.16-22.82.09s8.75-1.94,19.72-4c8.64-1.65,18.65-3.39,26.86-4.35h0a78.8,78.8,0,0,1,12-.73c14.29.72,7.14-10,20-7.14,6.46,1.44,9.67-2.77,13.18-6.81s7.22-7.83,14.69-5.81c15,4.05,23.58-14.34,45-5.5s10.72,18.52,37.16,15.1,7.85-8.65,27.15-9.6c13.49-.67,16.85,3.67,22.78,7.07Z"/><path class="cls-26" d="M227.41,545.4l-40.59.15-47.7.19-136.69.52-.66-12.69-.34-6.42a15.27,15.27,0,0,1,6.46.37C23,530.87,23,508,40.57,512.72s27.65-16.81,52.78-6.45S105.92,528,136.92,524c21.16-2.73,17.73-6.46,20.61-8.9,1.34-1.14,4.05-2,11.23-2.36,15.51-.77,19.6,4.11,26.31,8.06A31.56,31.56,0,0,0,207.3,525a22.33,22.33,0,0,1,16.45,10.8A28,28,0,0,1,227.41,545.4Z"/></g></g></g></svg>