<svg xmlns="http://www.w3.org/2000/svg" xmlns:xlink="http://www.w3.org/1999/xlink" viewBox="0 0 1000 1000"><defs><style>.cls-1{isolation:isolate;}.cls-2{fill:none;}.cls-3{fill:url(#linear-gradient);}.cls-4{mix-blend-mode:hard-light;opacity:0.05;fill:url(#radial-gradient);}.cls-5{fill:#fff;}.cls-6{fill:#054075;}.cls-7{fill:#02274f;}</style><linearGradient id="linear-gradient" x1="505.83" y1="307.23" x2="470.03" y2="1490.62" gradientUnits="userSpaceOnUse"><stop offset="0" stop-color="#003455"/><stop offset="1" stop-color="#94cbff"/></linearGradient><radialGradient id="radial-gradient" cx="475.57" cy="500" r="487.89" gradientUnits="userSpaceOnUse"><stop offset="0" stop-color="#fff"/><stop offset="1" stop-color="#fff" stop-opacity="0"/></radialGradient></defs><g class="cls-1"><g id="Layer_2" data-name="Layer 2"><g id="OutPut"><rect id="BG" class="cls-2" width="1000" height="1000"/></g><g id="Bachground"><g id="_6" data-name="6"><path class="cls-3" d="M999.91,501.71l-.25,4.69-.48,9.1-.09,1.61v0c0,.41.06.64.06.64a2.44,2.44,0,0,1-.1.24h0l-1.62,30.71h0c.13.43.31,1,.55,1.8-.25.54-.49,1.07-.73,1.61l-.41,7.74-.06,1.09h0l-.12,2.28,0,.4h0l0,.51-.38,7.24h0l-.22,4.25,0,.67-.2,3.81-1.12,21.36-1.07,20.14-.08,1.57-.11,2.09-1,18.5-1.77,33.69-.12,2.28-.1,1.79-1,18.45-.38,7.13-.74,14.13-.09,1.71-.07,1.21h0l-.13,2.47-.45,8.53-1.27,24.15-.08,1.48h0l-.23,4.43-.15,2.94-.52,10,0,.29,0,.69-.09,1.8h0l-.69,13.05-.08,1.4v.06l-.11,2.22-1,18.7-1,19.68-.14,2.7H17.84v-.07l0-.34-.07-1.29-.06-1.25-.06-1.09v-.22l-.34-6.53-.17-3.33-.28-5.24-.15-2.78-.21-4-.2-3.73-.11-2-.42-7.79-.15-2.82-.09-1.82,0-.52-.68-13-.23-4.28,0-.63L13.4,754.64l-.58-10.94-.17-3.26-.09-1.7-.28-5.43-.43-8.14-.95-18-.16-3.1-.28-5.39,0-.68-1.09-20.7-.16-3.07L9,670.07l0-.91-.19-3.7-1.26-24-.17-3.22-.37-6.91-.12-2.24V629l-.7-13.25-1.27-24.2-.18-3.39-.42-8L4,575.74l-.58-11L1.61,530.67l-1.52-29a32.51,32.51,0,0,1,0-3.42l1-19,.85-16.14.8-15.24.38-7.18L4,423.5,4.84,408l.1-1.84L6.26,381l2.17-41.22L9,328.4l1.52-28.86L16.1,194.13l.63-11.91v0l5.6-106.46.39-7.3.74-14.14A32.58,32.58,0,0,1,54.29,23.46L97,21.21l93.93-4.94,48-2.53h0L496.2.2l2.09-.11a32.51,32.51,0,0,1,3.42,0l2.35.12h0l108.8,5.73L945.71,23.46a32.58,32.58,0,0,1,30.83,30.83l2.87,54.53,1.7,32.42h0l2.81,53.33L986,233.74h0l2.92,55.43.65,12.37.44,8.39,1.26,23.94h0l1,19h0l1,18.77,1.07,20.24.51,9.65,3,57.2.22,4.21.21,4,0,.8,1.61,30.53A32.51,32.51,0,0,1,999.91,501.71Z"/><path class="cls-4" d="M951.1,533.82a583.9,583.9,0,0,1-11.27,114.45q-1.8,9-3.87,17.88-1,4.33-2.09,8.64h0q-6.51,26.13-15.35,51.27s0,0,0,0v0a574.6,574.6,0,0,1-34.28,78.51q-9.21,17.48-19.6,34.24a583.35,583.35,0,0,1-132,148.89l-36.9,2-1.65.08-18.66,1h0l-4.87.25-15.66.83-11.3.6h0l-7.5.39-5.33.28-2.44.13-26.87,1.41-42.18,2.22-6.73.36-21.94,1.15-28.64,1.51h-.22c-.73,0-1.45.05-2.18,0h-.59l-.65,0-1,0-10.52-.55L480.6,999h-.15l-5.62-.3-6.59-.34-1.18-.06-18.23-1-.88,0-4.46-.23h0l-7.31-.39L414,995.48,404,995l-28.34-1.49-5.42-.29-1.92-.1-2.4-.13-7.32-.39-31.84-1.67h0l-10.17-.54-7-.36h0l-14.13-.75h0l-2.56-.13-1.13-.06h0l-31.55-1.66-23.52-1.24-4-.21-19.41-1-9.94-.52h0l-4-.21-13.92-.73-6.31-.33h0l-12.21-.64-2.58-.14-39.65-2.09-7.53-.39-44.26-2.33-7-.37L62.5,977l-.92-.05-6.72-.35-.57,0c-.52,0-1-.07-1.55-.12s-1-.11-1.53-.19-1-.16-1.51-.26-.88-.18-1.32-.29l-.79-.2-.8-.22-.18-.06c-.4-.11-.8-.24-1.19-.37l-.41-.15-1-.36c-.35-.14-.7-.28-1-.43l-.23-.1c-.23-.1-.47-.21-.7-.33l-.77-.37a2.49,2.49,0,0,1-.28-.15c-.3-.15-.59-.3-.87-.47s-.35-.19-.52-.29c-.33-.18-.65-.38-1-.58s-.83-.53-1.23-.81-.7-.5-1.05-.76l-.28-.21c-.34-.26-.67-.53-1-.8s-.74-.64-1.1-1-.71-.66-1.06-1-.68-.7-1-1.06-.52-.57-.76-.87a5.07,5.07,0,0,1-.37-.44l-.25-.3-.25-.32a4.4,4.4,0,0,1-.38-.5c-.19-.24-.37-.49-.54-.74a3.13,3.13,0,0,1-.29-.42c-.2-.28-.39-.56-.56-.84a3,3,0,0,1-.21-.33c-.16-.25-.31-.5-.46-.76s-.23-.38-.34-.58l-.14-.25c-.13-.24-.26-.49-.38-.74a.76.76,0,0,1-.09-.18q-.16-.3-.3-.6c-.16-.32-.31-.65-.45-1s-.36-.83-.53-1.26c0-.12-.1-.25-.14-.38-.13-.34-.26-.69-.38-1a.07.07,0,0,1,0-.05q-.23-.66-.42-1.35c-.14-.46-.26-.93-.38-1.41a31.17,31.17,0,0,1-.78-4.86h0c0-.35-.06-.7-.08-1.06l-.5-9.5-.28-5.32-.94-18v-.15l-.3-5.68L20.1,881.77l-1.28-24.35,0-.3-.42-8-.54-10.26v-.07l0-.34-.07-1.29-.06-1.25-.06-1.09v-.22l-.34-6.53-.17-3.33-.28-5.24-.15-2.78-.21-4-.2-3.73-.11-2-.42-7.79-.15-2.82-.09-1.82,0-.52-.68-13-.23-4.28,0-.63L13.4,754.64l-.58-10.94-.17-3.26-.09-1.7-.28-5.43-.43-8.14-.95-18-.16-3.1-.28-5.39,0-.68-1.09-20.7-.16-3.07L9,670.07l0-.91-.19-3.7-1.26-24-.17-3.22-.37-6.91-.12-2.24V629l-.7-13.25-1.27-24.2-.18-3.39-.42-8L4,575.74l-.58-11L1.61,530.67l-1.52-29a32.51,32.51,0,0,1,0-3.42l1-19,.85-16.14.8-15.24.38-7.18L4,423.5,4.84,408l.1-1.84L6.26,381l2.17-41.22L9,328.4l1.52-28.86L16.1,194.13l.63-11.91v0l5.6-106.46.39-7.3A577.93,577.93,0,0,1,97,21.21l93.93-4.94,48-2.53h0L496.2.2l2.09-.11a32.51,32.51,0,0,1,3.42,0l2.35.12h0l108.8,5.73A583.12,583.12,0,0,1,858.81,219.56q6.86,10.62,13.24,21.55A578.5,578.5,0,0,1,912,323.8l1.43,3.71c0,.13.09.25.14.37.55,1.47,1.11,2.94,1.65,4.42q1.93,5.22,3.76,10.49c.18.49.35,1,.52,1.49q5.4,15.64,9.92,31.68a577.05,577.05,0,0,1,13.47,59.79,581.7,581.7,0,0,1,7.24,63.8q.54,9.19.79,18.47Q951.1,525.9,951.1,533.82Z"/><circle class="cls-5" cx="375.27" cy="540.37" r="64.66"/><path class="cls-6" d="M451.7,584.07c.54,1,.95,18.14,1.8,33.84s14.28,29,10.51,55.81-1.57,131.94,17.49,156.43-18.84,30.94-18.84,30.94S434.61,745.86,440,718.41s13.82-57.57,9.24-72.56-11-20.84-10.31-62.2,5.75-46.18,5.75-46.18Z"/><path class="cls-6" d="M450.58,687.88s-40.44-15.4-42.78-32.82-25.06-43.2-13.67-57.57c-9.51,16.83-5.42,16.53,2.36,41.38s-.11,33.26,17.51,36.64,32.46,25.13,32.46,25.13Z"/><path class="cls-6" d="M459.93,688.63s49.73-33.09,43.89-52.83S520.77,595,520.77,595s-34.07,28.43-24.31,50.33c-18.66,9.31-38.71,35.63-38.71,35.63Z"/><path class="cls-6" d="M461,656.58s9.94-62.91,22.26-79.8-10.32-32.35-10.32-32.35,14.48,17,.17,33.32S465.06,655.7,455,646,461,656.58,461,656.58Z"/><path class="cls-6" d="M507.18,635.53l-.67.33a13.63,13.63,0,0,1-3.83,1.3l.46-1.6a40,40,0,0,0,4.64-1.44l.64-.26a22.26,22.26,0,0,0,4.28-2.22A27.31,27.31,0,0,1,507.18,635.53Z"/><path class="cls-6" d="M511.68,629.33s-4.27,3.91-3.9,4.78S511.68,629.33,511.68,629.33Z"/><polygon class="cls-6" points="506.75 635.3 510.43 637.25 505.66 635.56 506.75 635.3"/><path class="cls-6" d="M487.64,564.43c-.23.12-.45.24-.67.34a13.63,13.63,0,0,1-3.83,1.3l.46-1.6a39,39,0,0,0,4.64-1.45l.64-.25a21.75,21.75,0,0,0,4.28-2.23A26.53,26.53,0,0,1,487.64,564.43Z"/><path class="cls-6" d="M492.14,558.24s-4.27,3.91-3.9,4.78S492.14,558.24,492.14,558.24Z"/><polygon class="cls-6" points="487.21 564.2 490.89 566.16 486.12 564.46 487.21 564.2"/><path class="cls-6" d="M396,620l-.67.33a13.74,13.74,0,0,1-3.83,1.3L392,620a37.75,37.75,0,0,0,4.64-1.44l.64-.25a22.87,22.87,0,0,0,4.28-2.23A27.31,27.31,0,0,1,396,620Z"/><path class="cls-6" d="M400.54,613.77s-4.27,3.91-3.9,4.79S400.54,613.77,400.54,613.77Z"/><polygon class="cls-6" points="395.61 619.74 399.29 621.69 394.51 620 395.61 619.74"/><path class="cls-6" d="M433.67,672c-.31.48-.62.93-.92,1.36a30.07,30.07,0,0,1-6,6.6l-.83-3.56a84.05,84.05,0,0,0,7.34-7.74l1-1.17a49.06,49.06,0,0,0,5.82-8.86A59.1,59.1,0,0,1,433.67,672Z"/><path class="cls-6" d="M435.65,655.27s-4,12.06-2.35,13.35S435.65,655.27,435.65,655.27Z"/><polygon class="cls-6" points="432.59 671.99 441.74 671.79 430.78 673.65 432.59 671.99"/><path class="cls-6" d="M502.94,612.21c.13.22.25.44.36.65a13.74,13.74,0,0,1,1.45,3.78l-1.61-.39a39.61,39.61,0,0,0-1.64-4.58l-.27-.63a23.1,23.1,0,0,0-2.4-4.19A27,27,0,0,1,502.94,612.21Z"/><path class="cls-6" d="M496.56,608s4.08,4.1,4.94,3.7S496.56,608,496.56,608Z"/><polygon class="cls-6" points="502.73 612.65 504.53 608.89 503.03 613.73 502.73 612.65"/><path class="cls-6" d="M426.07,586.59c1.56.65,3.05,1.31,4.46,1.95,15.31,7,22.46,13.72,22.46,13.72l-9.9,4.37a252.13,252.13,0,0,0-26.56-17.14c-1.27-.73-2.6-1.44-3.92-2.16-9.05-4.82-19.14-9.4-28.95-12.09A175.71,175.71,0,0,1,426.07,586.59Z"/><path class="cls-6" d="M376.42,590s37.26,5,40.11-.47S376.42,590,376.42,590Z"/><polygon class="cls-6" points="426.73 589.72 421.16 563.2 432.57 594.08 426.73 589.72"/><path class="cls-6" d="M465.64,589.17c.2.35.38.67.55,1a21,21,0,0,1,2.19,5.69l-2.43-.6a59.06,59.06,0,0,0-2.47-6.89l-.41-1a33.83,33.83,0,0,0-3.61-6.3A40.6,40.6,0,0,1,465.64,589.17Z"/><path class="cls-6" d="M456.05,582.79s6.14,6.18,7.43,5.57S456.05,582.79,456.05,582.79Z"/><polygon class="cls-6" points="465.32 589.84 468.04 584.19 465.78 591.47 465.32 589.84"/><path class="cls-6" d="M471.28,626.67c-.52-.61-1-1.2-1.47-1.76-5-6.18-6.58-10.52-6.58-10.52l5.09.24a118.15,118.15,0,0,0,7.59,12.82q.58.87,1.2,1.74a68.56,68.56,0,0,0,9.67,11.19A82.77,82.77,0,0,1,471.28,626.67Z"/><path class="cls-6" d="M492.93,635.7s-14.66-10-17-8.25S492.93,635.7,492.93,635.7Z"/><polygon class="cls-6" points="471.66 625.21 468.43 637.56 470.12 622.14 471.66 625.21"/><path class="cls-6" d="M399.67,679.39c.09-.79.19-1.55.3-2.27,1.18-7.85,3.29-12,3.29-12l3.27,3.91a118.58,118.58,0,0,0-4.31,14.26c-.16.68-.31,1.37-.47,2.06a69,69,0,0,0-1.7,14.69A82.08,82.08,0,0,1,399.67,679.39Z"/><path class="cls-6" d="M407.65,701.44s-2.57-17.53-5.43-18.1S407.65,701.44,407.65,701.44Z"/><polygon class="cls-6" points="401 678.68 389.71 684.66 402.21 675.47 401 678.68"/><path class="cls-6" d="M181.18,615.35c0,1.09-7.53,16.53-14,30.85s-.71,32.34-16.4,54.37S88.52,816.92,94.14,847.45s-31,18.76-31,18.76S91.4,751,108.85,729.16s38.81-44.71,41.66-60.13-.13-23.55,19.53-59.94,26.4-38.33,26.4-38.33Z"/><path class="cls-6" d="M132.31,706.94s-28.78-32.32-22.83-48.85-2.31-49.89,14.42-57.38c-16.2,10.54-12.43,12.17-17,37.8S91.48,668,105.55,679.09s17.21,37.27,17.21,37.27Z"/><path class="cls-6" d="M140.26,711.92s59.38-6.43,63.31-26.64,33.87-28.42,33.87-28.42-43.34,9.51-44.78,33.45c-20.85-.35-50.79,13.76-50.79,13.76Z"/><path class="cls-6" d="M156,684s37.83-51.25,56.55-60.55S218.3,590,218.3,590s5,21.77-15.22,29.65S160,685.06,155.5,671.81,156,684,156,684Z"/><path class="cls-6" d="M206.67,686.59h-.74a14.2,14.2,0,0,1-4-.61l1.15-1.21a38.27,38.27,0,0,0,4.79.85l.68.08a22.93,22.93,0,0,0,4.83,0A26.7,26.7,0,0,1,206.67,686.59Z"/><path class="cls-6" d="M213.52,683.17s-5.59,1.49-5.66,2.44S213.52,683.17,213.52,683.17Z"/><polygon class="cls-6" points="206.4 686.18 208.76 689.62 205.31 685.91 206.4 686.18"/><path class="cls-6" d="M222.12,614.5l-.75,0a13.63,13.63,0,0,1-4-.61l1.15-1.21a38.89,38.89,0,0,0,4.78.86l.69.07a22.19,22.19,0,0,0,4.82,0A27.59,27.59,0,0,1,222.12,614.5Z"/><path class="cls-6" d="M229,611.07s-5.59,1.5-5.67,2.45S229,611.07,229,611.07Z"/><polygon class="cls-6" points="221.84 614.09 224.21 617.52 220.75 613.82 221.84 614.09"/><path class="cls-6" d="M115.23,621.53h-.75a14.07,14.07,0,0,1-4-.61l1.14-1.21a38.27,38.27,0,0,0,4.79.85l.69.08a22.84,22.84,0,0,0,4.82,0A26.63,26.63,0,0,1,115.23,621.53Z"/><path class="cls-6" d="M122.08,618.11s-5.59,1.5-5.67,2.44S122.08,618.11,122.08,618.11Z"/><polygon class="cls-6" points="114.95 621.13 117.31 624.56 113.86 620.85 114.95 621.13"/><path class="cls-6" d="M124.64,685l-1.44.78a30.35,30.35,0,0,1-8.33,3.11l.9-3.54a83.77,83.77,0,0,0,10.09-3.49l1.39-.59a49,49,0,0,0,9.25-5.18A59.38,59.38,0,0,1,124.64,685Z"/><path class="cls-6" d="M134.09,671.12S125,680,125.86,681.88,134.09,671.12,134.09,671.12Z"/><polygon class="cls-6" points="123.67 684.54 131.88 688.59 121.3 685.19 123.67 684.54"/><path class="cls-6" d="M213.66,663.94c0,.26,0,.51,0,.75a13.77,13.77,0,0,1-.45,4L212,667.62a39.58,39.58,0,0,0,.66-4.82c0-.23,0-.46,0-.69a21.56,21.56,0,0,0-.2-4.82A26.47,26.47,0,0,1,213.66,663.94Z"/><path class="cls-6" d="M210,657.24s1.73,5.52,2.68,5.56S210,657.24,210,657.24Z"/><polygon class="cls-6" points="213.27 664.24 216.6 661.73 213.04 665.33 213.27 664.24"/><path class="cls-6" d="M157.27,605.76c1.08,1.3,2.1,2.57,3,3.79,10.36,13.27,13.61,22.53,13.61,22.53l-10.8-.69a251.79,251.79,0,0,0-15.66-27.46c-.8-1.23-1.64-2.47-2.48-3.72-5.81-8.45-12.66-17.16-20.12-24.08A176.07,176.07,0,0,1,157.27,605.76Z"/><path class="cls-6" d="M111.66,585.85s30.75,21.64,35.81,18.08S111.66,585.85,111.66,585.85Z"/><polygon class="cls-6" points="156.41 608.84 163.7 582.75 159.58 615.41 156.41 608.84"/><path class="cls-6" d="M191.19,626.31c0,.39,0,.76,0,1.12a20.76,20.76,0,0,1-.68,6.06l-1.89-1.65a58.47,58.47,0,0,0,1-7.25c0-.34,0-.69.07-1a34.52,34.52,0,0,0-.3-7.26A40.66,40.66,0,0,1,191.19,626.31Z"/><path class="cls-6" d="M185.62,616.22s2.6,8.31,4,8.37S185.62,616.22,185.62,616.22Z"/><polygon class="cls-6" points="190.6 626.75 195.62 622.99 190.26 628.4 190.6 626.75"/><path class="cls-6" d="M178.9,662.17c-.18-.78-.34-1.52-.49-2.24-1.57-7.78-1-12.36-1-12.36l4.41,2.56a118.3,118.3,0,0,0,.82,14.87c.08.69.17,1.39.26,2.1a69,69,0,0,0,3.42,14.39A82.79,82.79,0,0,1,178.9,662.17Z"/><path class="cls-6" d="M193.94,680.17s-8.41-15.6-11.29-15.16S193.94,680.17,193.94,680.17Z"/><polygon class="cls-6" points="179.91 661.05 171.35 670.52 179.96 657.62 179.91 661.05"/><path class="cls-6" d="M91.05,675.93c.44-.66.89-1.29,1.31-1.88C97,667.63,100.8,665,100.8,665l1.09,5a118.77,118.77,0,0,0-10.4,10.67c-.45.52-.9,1.06-1.36,1.61a68.52,68.52,0,0,0-8.29,12.25A82.72,82.72,0,0,1,91.05,675.93Z"/><path class="cls-6" d="M88,699.18s5.8-16.74,3.53-18.57S88,699.18,88,699.18Z"/><polygon class="cls-6" points="92.55 675.92 79.78 676.01 95.11 673.63 92.55 675.92"/><path class="cls-6" d="M811.15,594.93c0,1.1-7.52,16.54-14,30.86s-.72,32.34-16.41,54.37S718.49,796.5,724.11,827s-31,18.76-31,18.76,28.25-115.18,45.7-137,38.81-44.72,41.65-60.14-.12-23.55,19.54-59.93,26.39-38.34,26.39-38.34Z"/><path class="cls-6" d="M762.29,686.53s-28.79-32.32-22.83-48.85-2.31-49.89,14.42-57.38c-16.21,10.54-12.43,12.16-17,37.79s-15.43,29.47-1.36,40.59S752.74,696,752.74,696Z"/><path class="cls-6" d="M770.23,691.51s59.38-6.43,63.32-26.65,33.86-28.41,33.86-28.41-43.33,9.51-44.78,33.44c-20.85-.35-50.78,13.77-50.78,13.77Z"/><path class="cls-6" d="M786,663.56s37.83-51.24,56.56-60.54,5.76-33.47,5.76-33.47,5,21.77-15.22,29.65S790,664.65,785.48,651.4,786,663.56,786,663.56Z"/><path class="cls-6" d="M836.65,666.18l-.75,0a13.63,13.63,0,0,1-4-.61l1.15-1.21a38.89,38.89,0,0,0,4.78.86l.69.07a22.19,22.19,0,0,0,4.82,0A27.53,27.53,0,0,1,836.65,666.18Z"/><path class="cls-6" d="M843.5,662.75s-5.59,1.5-5.67,2.45S843.5,662.75,843.5,662.75Z"/><polygon class="cls-6" points="836.37 665.77 838.74 669.2 835.28 665.5 836.37 665.77"/><path class="cls-6" d="M852.1,594.08h-.75a13.63,13.63,0,0,1-4-.61l1.14-1.21a38.27,38.27,0,0,0,4.79.85l.68.08a22.93,22.93,0,0,0,4.83,0A26.69,26.69,0,0,1,852.1,594.08Z"/><path class="cls-6" d="M858.94,590.66s-5.58,1.5-5.66,2.44S858.94,590.66,858.94,590.66Z"/><polygon class="cls-6" points="851.82 593.68 854.18 597.11 850.73 593.4 851.82 593.68"/><path class="cls-6" d="M745.21,601.12l-.75,0a13.63,13.63,0,0,1-4-.61l1.14-1.21a39.3,39.3,0,0,0,4.79.86l.68.07a22.28,22.28,0,0,0,4.83,0A27.65,27.65,0,0,1,745.21,601.12Z"/><path class="cls-6" d="M752.05,597.69s-5.58,1.5-5.66,2.45S752.05,597.69,752.05,597.69Z"/><polygon class="cls-6" points="744.93 600.71 747.29 604.14 743.84 600.44 744.93 600.71"/><path class="cls-6" d="M754.62,664.61c-.5.28-1,.53-1.45.78a30.24,30.24,0,0,1-8.32,3.11l.9-3.54a86.65,86.65,0,0,0,10.09-3.49l1.39-.59a49.76,49.76,0,0,0,9.24-5.18A59.35,59.35,0,0,1,754.62,664.61Z"/><path class="cls-6" d="M764.07,650.71s-9.1,8.86-8.23,10.76S764.07,650.71,764.07,650.71Z"/><polygon class="cls-6" points="753.65 664.13 761.86 668.17 751.27 664.77 753.65 664.13"/><path class="cls-6" d="M843.64,643.53c0,.26,0,.51,0,.74a13.89,13.89,0,0,1-.45,4L842,647.2a37.36,37.36,0,0,0,.66-4.82c0-.22,0-.45,0-.68a22.91,22.91,0,0,0-.2-4.83A27.4,27.4,0,0,1,843.64,643.53Z"/><path class="cls-6" d="M839.94,636.82s1.72,5.52,2.67,5.56S839.94,636.82,839.94,636.82Z"/><polygon class="cls-6" points="843.24 643.82 846.58 641.32 843.02 644.92 843.24 643.82"/><path class="cls-6" d="M787.24,585.35c1.09,1.3,2.1,2.56,3.06,3.78,10.35,13.28,13.6,22.53,13.6,22.53L793.1,611a252.25,252.25,0,0,0-15.66-27.45c-.79-1.23-1.64-2.48-2.48-3.72-5.8-8.45-12.65-17.17-20.12-24.08A175.4,175.4,0,0,1,787.24,585.35Z"/><path class="cls-6" d="M741.64,565.43s30.75,21.64,35.8,18.08S741.64,565.43,741.64,565.43Z"/><polygon class="cls-6" points="786.38 588.43 793.67 562.33 789.56 594.99 786.38 588.43"/><path class="cls-6" d="M821.17,605.89c0,.39,0,.77,0,1.13a20.64,20.64,0,0,1-.68,6.05l-1.89-1.65a58.1,58.1,0,0,0,1-7.25l.06-1a33.84,33.84,0,0,0-.29-7.26A41.07,41.07,0,0,1,821.17,605.89Z"/><path class="cls-6" d="M815.6,595.8s2.6,8.31,4,8.37S815.6,595.8,815.6,595.8Z"/><polygon class="cls-6" points="820.58 606.34 825.59 602.57 820.23 607.99 820.58 606.34"/><path class="cls-6" d="M808.88,641.76c-.18-.78-.35-1.53-.49-2.24-1.58-7.78-1-12.37-1-12.37l4.41,2.56a119.77,119.77,0,0,0,.83,14.88c.07.69.17,1.39.26,2.09a68.71,68.71,0,0,0,3.41,14.39A83.1,83.1,0,0,1,808.88,641.76Z"/><path class="cls-6" d="M823.92,659.76s-8.41-15.6-11.29-15.17S823.92,659.76,823.92,659.76Z"/><polygon class="cls-6" points="809.89 640.64 801.32 650.11 809.93 637.2 809.89 640.64"/><path class="cls-6" d="M721,655.52c.45-.66.89-1.29,1.32-1.88,4.67-6.42,8.43-9.1,8.43-9.1l1.1,5a118.81,118.81,0,0,0-10.4,10.67c-.45.52-.91,1.07-1.36,1.61a68.35,68.35,0,0,0-8.29,12.25A82.22,82.22,0,0,1,721,655.52Z"/><path class="cls-6" d="M717.94,678.77s5.8-16.75,3.53-18.58S717.94,678.77,717.94,678.77Z"/><polygon class="cls-6" points="722.53 655.5 709.76 655.6 725.09 653.21 722.53 655.5"/><path class="cls-7" d="M28.29,782.66c-.85,31.73-2.07,55-2.07,55a78.79,78.79,0,0,1-8.47-.45l-.06-1.25-.06-1.09v-.22l-.34-6.53-.17-3.33-.28-5.24-.15-2.78-.21-4-.2-3.73-.11-2-.42-7.79-.15-2.82-.09-1.82,0-.52-.68-13-.23-4.28,0-.63L13.4,754.64l-.58-10.94-.17-3.26-.09-1.7-.28-5.43-.43-8.14-.95-18-.16-3.1-.28-5.39,0-.68-1.09-20.7-.16-3.07L9,670.07l0-.91-.19-3.7-1.26-24-.17-3.22-.37-6.91-.12-2.24V629l-.7-13.25-1.27-24.2-.18-3.39-.42-8L4,575.74q1.64,3.93,3.3,7.9h0c4.2,10,8.51,20.18,12.5,30.15C30.15,639.74,29.83,725.17,28.29,782.66Z"/><path class="cls-7" d="M59.83,422.48c-1.41-1.83-3-3.82-4.87-6A21.87,21.87,0,0,1,59.83,422.48Z"/><path class="cls-7" d="M63.25,480.16c-2.72,23.18,1,36.48-.47,45.55a14.8,14.8,0,0,1-3.52,7.85A21.27,21.27,0,0,1,54,537.72,48.7,48.7,0,0,1,47.09,541C27,548.89,12.71,573.14,7.28,583.64h0c-1.58,3-2.41,4.93-2.41,4.93l-.23-.42-.42-8L4,575.74l-.58-11a238.42,238.42,0,0,0,20.94-16.21c1.27-1.11,2.55-2.25,3.8-3.41,10-9.3,19.11-20,21.77-30.22a22.31,22.31,0,0,0,.76-6.81c-.81-15.47,7.63-36.95,11.11-56q.21-1.07.36-2.1c1.73-10.47,1.76-20.11-2.31-27.47C73.09,439.87,67.51,443.91,63.25,480.16Z"/><path class="cls-7" d="M58.51,451.24c.39.12.76.23,1.12.32a21.42,21.42,0,0,0,6.21.88l-1.16-2.3a59,59,0,0,1-7.49-.88l-1-.19A35.35,35.35,0,0,1,49,446.9,41.57,41.57,0,0,0,58.51,451.24Z"/><path class="cls-7" d="M49.88,443.1s7.62,4.72,7.31,6.16S49.88,443.1,49.88,443.1Z"/><polygon class="cls-7" points="59.1 450.77 54.06 454.8 60.84 450.85 59.1 450.77"/><path class="cls-7" d="M16.11,541.24q.93.94,1.8,1.8c6.33,6.14,11,8.35,11,8.35l.25-5.66A131.85,131.85,0,0,1,15.71,536l-1.8-1.51a76.27,76.27,0,0,1-11.4-11.82A92.08,92.08,0,0,0,16.11,541.24Z"/><path class="cls-7" d="M8.31,516.38s9.54,17.22,7.4,19.65S8.31,516.38,8.31,516.38Z"/><polygon class="cls-7" points="17.77 540.96 3.77 543.29 21 542.98 17.77 540.96"/><path class="cls-7" d="M64.54,379.56c-2.28,1.12-4.57,2.31-6.84,3.58a244.33,244.33,0,0,0-33.8,23.14l-.27.22h0c-1.71,1.39-3.42,2.79-5.07,4.18h0l-3.37,2.85c-4,3.43-7.75,6.79-11.16,9.95L4.84,408c.47-.3.94-.61,1.42-.9,4.75-3,10-6.08,15.69-9.13a282.76,282.76,0,0,1,35.5-15.85C59.76,381.23,62.13,380.39,64.54,379.56Z"/><path class="cls-7" d="M79.78,399.89s-55.32,18.35-61.22,10.8S79.78,399.89,79.78,399.89Z"/><path class="cls-7" d="M70,542.79c-.36-1.18-.74-2.31-1.11-3.38-4-11.61-8.44-17.27-8.44-17.27L56.62,529a184.55,184.55,0,0,1,10.66,20.49c.44,1,.87,2,1.3,3a107,107,0,0,1,6.82,21.89A128.64,128.64,0,0,0,70,542.79Z"/><path class="cls-7" d="M64.2,578.67s-1.11-27.44,3.08-29.14S64.2,578.67,64.2,578.67Z"/><polygon class="cls-7" points="67.8 542.1 86.71 547.96 65.03 537.55 67.8 542.1"/><path class="cls-7" d="M317.23,458.36c.54,1.61-3.76,27.91-7,52.06s13.42,48.3,0,88S270,798.94,292,841.72s-37.57,41.71-37.57,41.71-9.66-183.55,6.44-223.81,37.57-83.72,34.88-107.88-10.73-34.88,2.15-97.68,22-68.7,22-68.7Z"/><path class="cls-7" d="M285.74,616.15S228.56,581.08,230,553.89s-25.76-73-4.29-91.61c-19.33,22.91-13,23.62-8.29,63.7s-9.71,50.63,16.16,60.83,42.22,47.59,42.22,47.59Z"/><path class="cls-7" d="M299.76,620s85.23-36.13,82-67.88,37.54-57.33,37.54-57.33-60.05,33.51-51.47,69.67c-31.1,8.82-69.2,43.17-69.2,43.17Z"/><path class="cls-7" d="M310.59,571.47s33.19-93,56.8-115.16S361,404.07,361,404.07s17.18,30.06-9.3,50.81S317,571.28,304.42,553.64,310.59,571.47,310.59,571.47Z"/><path class="cls-7" d="M387,552.65l-1.12.32a21.46,21.46,0,0,1-6.21.88l1.16-2.3a61.07,61.07,0,0,0,7.48-.88l1.05-.19a35.07,35.07,0,0,0,7.16-2.17A41.52,41.52,0,0,1,387,552.65Z"/><path class="cls-7" d="M395.59,544.5s-7.61,4.73-7.3,6.17S395.59,544.5,395.59,544.5Z"/><polygon class="cls-7" points="386.37 552.18 391.42 556.21 384.64 552.26 386.37 552.18"/><path class="cls-7" d="M377.61,438.76l-1.12.32a21.46,21.46,0,0,1-6.21.88l1.16-2.3a61.29,61.29,0,0,0,7.48-.88l1.05-.19a35.26,35.26,0,0,0,7.16-2.17A41.52,41.52,0,0,1,377.61,438.76Z"/><path class="cls-7" d="M386.23,430.61s-7.62,4.73-7.31,6.17S386.23,430.61,386.23,430.61Z"/><polygon class="cls-7" points="377.01 438.29 382.06 442.32 375.27 438.37 377.01 438.29"/><path class="cls-7" d="M222.15,497.06l-1.12.32a21.46,21.46,0,0,1-6.21.88L216,496a58.8,58.8,0,0,0,7.48-.88l1-.19a35.07,35.07,0,0,0,7.16-2.17A41.52,41.52,0,0,1,222.15,497.06Z"/><path class="cls-7" d="M230.77,488.92s-7.61,4.72-7.3,6.16S230.77,488.92,230.77,488.92Z"/><polygon class="cls-7" points="221.55 496.59 226.6 500.62 219.82 496.67 221.55 496.59"/><path class="cls-7" d="M264.55,587.06q-.93.95-1.8,1.8c-6.33,6.14-11,8.35-11,8.35l-.25-5.66a131.1,131.1,0,0,0,13.41-9.7c.59-.48,1.19-1,1.79-1.5a76.33,76.33,0,0,0,11.41-11.82A92.47,92.47,0,0,1,264.55,587.06Z"/><path class="cls-7" d="M272.35,562.2s-9.54,17.22-7.4,19.65S272.35,562.2,272.35,562.2Z"/><polygon class="cls-7" points="262.89 586.78 276.88 589.11 259.66 588.8 262.89 586.78"/><path class="cls-7" d="M387.19,515.92c.14.38.26.74.37,1.1a21.25,21.25,0,0,1,1.13,6.17l-2.35-1.07a60,60,0,0,0-1.18-7.44c-.07-.34-.15-.69-.24-1a35,35,0,0,0-2.45-7.07A41.9,41.9,0,0,1,387.19,515.92Z"/><path class="cls-7" d="M378.7,507.63s5,7.42,6.46,7S378.7,507.63,378.7,507.63Z"/><polygon class="cls-7" points="386.74 516.53 390.57 511.32 386.9 518.26 386.74 516.53"/><path class="cls-7" d="M277.46,454.84q3.29,2.18,6.23,4.25C305,474.15,314,486.43,314,486.43l-16.34,3.81a389.68,389.68,0,0,0-35.52-33.72c-1.74-1.47-3.55-2.94-5.36-4.42-12.39-9.93-26.46-19.8-40.63-26.72C242.27,434.33,262.43,445,277.46,454.84Z"/><path class="cls-7" d="M200.88,445.71s55.31,18.34,61.22,10.8S200.88,445.71,200.88,445.71Z"/><polygon class="cls-7" points="277.57 459.8 276.7 417.81 285.21 468.12 277.57 459.8"/><path class="cls-7" d="M337,470.13c.2.58.38,1.13.55,1.66a32,32,0,0,1,1.7,9.29l-3.54-1.6a89.07,89.07,0,0,0-1.77-11.2c-.11-.52-.23-1-.36-1.57a51.94,51.94,0,0,0-3.69-10.64A63.17,63.17,0,0,1,337,470.13Z"/><path class="cls-7" d="M324.22,457.66s7.58,11.17,9.72,10.61S324.22,457.66,324.22,457.66Z"/><polygon class="cls-7" points="336.32 471.06 342.08 463.23 336.55 473.66 336.32 471.06"/><path class="cls-7" d="M334.83,528.85c-.62-1.07-1.2-2.1-1.74-3.1-5.81-10.84-7-17.9-7-17.9l7.69,1.83a183.29,183.29,0,0,0,7.89,21.7c.42,1,.87,2,1.32,3a106.73,106.73,0,0,0,11.51,19.82A128,128,0,0,1,334.83,528.85Z"/><path class="cls-7" d="M365.2,548.83s-19.46-19.38-23.54-17.45S365.2,548.83,365.2,548.83Z"/><polygon class="cls-7" points="335.82 526.74 327.35 544.63 334.35 521.62 335.82 526.74"/><path class="cls-7" d="M210.62,588.61c.37-1.18.75-2.31,1.12-3.38,4-11.61,8.44-17.27,8.44-17.27l3.86,6.9a184.55,184.55,0,0,0-10.66,20.49c-.44,1-.87,2-1.3,3a106.35,106.35,0,0,0-6.82,21.89A128.61,128.61,0,0,1,210.62,588.61Z"/><path class="cls-7" d="M216.46,624.49s1.11-27.44-3.08-29.14S216.46,624.49,216.46,624.49Z"/><polygon class="cls-7" points="212.85 587.92 193.95 593.78 215.63 583.37 212.85 587.92"/><path class="cls-7" d="M624.07,367.25c-.53,1.61,3.76,27.91,7,52.06s-13.42,48.3,0,88,40.25,200.5,18.25,243.29,37.57,41.7,37.57,41.7,9.66-183.55-6.44-223.81-37.57-83.72-34.89-107.87,10.74-34.89-2.14-97.69-22-68.7-22-68.7Z"/><path class="cls-7" d="M655.57,525s57.18-35.07,55.75-62.26,25.76-73,4.29-91.6c19.32,22.9,13,23.61,8.29,63.69s9.7,50.63-16.16,60.83-42.23,47.59-42.23,47.59Z"/><path class="cls-7" d="M641.55,528.87s-85.24-36.13-82-67.88S522,403.66,522,403.66s60,33.51,51.47,69.68c31.1,8.81,69.19,43.16,69.19,43.16Z"/><path class="cls-7" d="M630.72,480.36s-33.19-93-56.81-115.16S580.35,313,580.35,313s-17.17,30.06,9.31,50.81,34.63,116.41,47.23,98.76S630.72,480.36,630.72,480.36Z"/><path class="cls-7" d="M554.34,461.54c.38.12.76.22,1.11.32a21.46,21.46,0,0,0,6.21.88l-1.15-2.3a59,59,0,0,1-7.49-.88l-1-.19a35.45,35.45,0,0,1-7.16-2.17A41.57,41.57,0,0,0,554.34,461.54Z"/><path class="cls-7" d="M545.71,453.4s7.62,4.72,7.31,6.16S545.71,453.4,545.71,453.4Z"/><polygon class="cls-7" points="554.93 461.07 549.89 465.1 556.67 461.15 554.93 461.07"/><path class="cls-7" d="M563.7,347.65l1.12.32a21.42,21.42,0,0,0,6.21.88l-1.16-2.3a59,59,0,0,1-7.49-.88l-1-.19a35.35,35.35,0,0,1-7.17-2.17A41.57,41.57,0,0,0,563.7,347.65Z"/><path class="cls-7" d="M555.07,339.51s7.62,4.72,7.31,6.16S555.07,339.51,555.07,339.51Z"/><polygon class="cls-7" points="564.3 347.18 559.25 351.21 566.03 347.26 564.3 347.18"/><path class="cls-7" d="M719.16,406c.38.12.76.23,1.11.32a21.46,21.46,0,0,0,6.21.88l-1.15-2.3a59,59,0,0,1-7.49-.88l-1.05-.19a35.45,35.45,0,0,1-7.16-2.17A41.57,41.57,0,0,0,719.16,406Z"/><path class="cls-7" d="M710.53,397.81s7.62,4.72,7.31,6.16S710.53,397.81,710.53,397.81Z"/><polygon class="cls-7" points="719.75 405.48 714.71 409.51 721.49 405.56 719.75 405.48"/><path class="cls-7" d="M676.76,496l1.8,1.8c6.33,6.14,11,8.35,11,8.35l.25-5.66a131.85,131.85,0,0,1-13.41-9.69c-.6-.49-1.2-1-1.8-1.51a76.27,76.27,0,0,1-11.4-11.82A92.08,92.08,0,0,0,676.76,496Z"/><path class="cls-7" d="M669,471.09s9.53,17.22,7.4,19.65S669,471.09,669,471.09Z"/><polygon class="cls-7" points="678.41 495.67 664.42 498 681.65 497.69 678.41 495.67"/><path class="cls-7" d="M554.11,424.81c-.13.38-.25.75-.36,1.1a21.25,21.25,0,0,0-1.13,6.17L555,431a61,61,0,0,1,1.17-7.45l.24-1a35,35,0,0,1,2.46-7.07A41.78,41.78,0,0,0,554.11,424.81Z"/><path class="cls-7" d="M562.6,416.52s-5,7.42-6.46,7.05S562.6,416.52,562.6,416.52Z"/><polygon class="cls-7" points="554.56 425.42 550.74 420.22 554.41 427.15 554.56 425.42"/><path class="cls-7" d="M663.84,363.73c-2.19,1.45-4.26,2.87-6.23,4.25-21.31,15.06-30.27,27.34-30.27,27.34l16.33,3.81a390.69,390.69,0,0,1,35.53-33.72c1.73-1.47,3.54-2.94,5.35-4.42,12.4-9.93,26.46-19.8,40.63-26.72C699,343.22,678.88,353.88,663.84,363.73Z"/><path class="cls-7" d="M740.43,354.6S685.11,373,679.2,365.4,740.43,354.6,740.43,354.6Z"/><polygon class="cls-7" points="663.74 368.69 664.61 326.7 656.09 377.01 663.74 368.69"/><path class="cls-7" d="M604.3,379c-.19.58-.38,1.13-.54,1.66a32.33,32.33,0,0,0-1.71,9.29l3.54-1.6a91.33,91.33,0,0,1,1.77-11.2c.11-.52.24-1,.36-1.57a52.57,52.57,0,0,1,3.7-10.64A63.7,63.7,0,0,0,604.3,379Z"/><path class="cls-7" d="M617.08,366.55s-7.57,11.17-9.72,10.61S617.08,366.55,617.08,366.55Z"/><polygon class="cls-7" points="604.98 379.95 599.22 372.12 604.75 382.56 604.98 379.95"/><path class="cls-7" d="M606.48,437.74c.62-1.07,1.19-2.1,1.73-3.1,5.82-10.84,7-17.9,7-17.9l-7.69,1.83a184.21,184.21,0,0,1-7.88,21.7c-.42,1-.87,2-1.33,3a106.18,106.18,0,0,1-11.51,19.82A128.05,128.05,0,0,0,606.48,437.74Z"/><path class="cls-7" d="M576.1,457.72s19.47-19.38,23.55-17.44S576.1,457.72,576.1,457.72Z"/><polygon class="cls-7" points="605.48 435.63 613.95 453.52 606.95 430.51 605.48 435.63"/><path class="cls-7" d="M730.68,497.5c-.37-1.18-.74-2.31-1.11-3.38-4.05-11.61-8.44-17.27-8.44-17.27l-3.86,6.9a183.57,183.57,0,0,1,10.65,20.49c.44,1,.87,2,1.31,3A106.93,106.93,0,0,1,736,529.13,128.23,128.23,0,0,0,730.68,497.5Z"/><path class="cls-7" d="M724.85,533.38s-1.11-27.44,3.08-29.14S724.85,533.38,724.85,533.38Z"/><polygon class="cls-7" points="728.45 496.81 747.36 502.67 725.68 492.26 728.45 496.81"/><path class="cls-7" d="M980.66,496.68c.54,1.61-3.75,27.91-7,52.06s13.42,48.31,0,88-40.26,200.51-18.25,243.29-37.57,41.71-37.57,41.71S908.21,738.2,924.31,698s37.57-83.73,34.89-107.88-10.74-34.89,2.14-97.68,22-68.7,22-68.7Z"/><path class="cls-7" d="M949.17,654.47S892,619.41,893.42,592.21s-25.76-73-4.29-91.6c-19.32,22.9-13,23.62-8.29,63.69s-9.7,50.64,16.16,60.83,42.22,47.59,42.22,47.59Z"/><path class="cls-7" d="M993.59,621.7l-.08,1.57-.11,2.09-1,18.5c-9.88,5.46-18.76,9.7-24.07,12.14-3.25,1.49-5.17,2.3-5.17,2.3l-1.11-12.36s4.57-4.12,11.84-9.88C979.27,631.83,986.07,626.71,993.59,621.7Z"/><path class="cls-7" d="M997.43,548.77c.13.43.31,1,.55,1.8-.25.54-.49,1.07-.73,1.61-1.06,2.37-2.11,4.74-3.13,7.09-6.36,14.62-11.81,28.48-15.43,38C975.75,605,974,609.8,974,609.8s-18.77-35.48-6.17-17.84c3.33,4.67,6.35,1.41,9.48-6.27h0c5.91-14.51,12.2-44.85,21.72-67.63l-1.62,30.71Z"/><path class="cls-7" d="M885.58,535.39l-1.11.31a21.35,21.35,0,0,1-6.22.89l1.16-2.31a60,60,0,0,0,7.49-.87l1.05-.2a34.82,34.82,0,0,0,7.16-2.17A42.1,42.1,0,0,1,885.58,535.39Z"/><path class="cls-7" d="M894.21,527.24s-7.62,4.73-7.31,6.17S894.21,527.24,894.21,527.24Z"/><polygon class="cls-7" points="884.99 534.91 890.03 538.95 883.25 535 884.99 534.91"/><path class="cls-7" d="M928,625.38q-.93,1-1.8,1.8c-6.33,6.14-11,8.35-11,8.35l-.25-5.66a131.85,131.85,0,0,0,13.41-9.69q.9-.73,1.8-1.5a76.33,76.33,0,0,0,11.4-11.83A91.8,91.8,0,0,1,928,625.38Z"/><path class="cls-7" d="M935.78,600.53s-9.53,17.22-7.4,19.65S935.78,600.53,935.78,600.53Z"/><polygon class="cls-7" points="926.33 625.11 940.32 627.43 923.09 627.13 926.33 625.11"/><path class="cls-7" d="M940.9,493.17c2.19,1.44,4.26,2.86,6.23,4.24,21.31,15.07,30.27,27.34,30.27,27.34l-16.33,3.82a389.9,389.9,0,0,0-35.53-33.73c-1.74-1.47-3.54-2.94-5.35-4.41-12.4-9.94-26.46-19.8-40.64-26.73C905.71,472.66,925.86,483.31,940.9,493.17Z"/><path class="cls-7" d="M864.31,484s55.32,18.35,61.22,10.8S864.31,484,864.31,484Z"/><polygon class="cls-7" points="941 498.12 940.13 456.14 948.65 506.44 941 498.12"/><path class="cls-7" d="M999.66,506.4l-.48,9.1-.09,1.61a95.55,95.55,0,0,0-1.71-10.51c-.11-.51-.24-1-.36-1.56h0a52.48,52.48,0,0,0-3.7-10.63A64.68,64.68,0,0,1,999.66,506.4Z"/><path class="cls-7" d="M987.66,496s7.57,11.17,9.72,10.62S987.66,496,987.66,496Z"/><path class="cls-7" d="M998,550.57c-.25.54-.49,1.07-.73,1.61l-.41,7.74-.06,1.09h0l-.12,2.28,0,.4h0l0,.51-.08-.15c-.91-1.69-1.71-3.3-2.41-4.8-3.76-8.07-4.61-13.1-4.61-13.1l7.7,1.83s.07.26.22.76h0C997.56,549.2,997.74,549.81,998,550.57Z"/><polygon class="cls-7" points="996.64 563.71 996.61 564.22 996.23 571.46 996.23 571.47 990.79 582.96 996.53 564.07 996.64 563.71"/><path class="cls-7" d="M874.06,626.93c.37-1.18.74-2.3,1.11-3.37,4.05-11.62,8.44-17.28,8.44-17.28l3.86,6.91a183.79,183.79,0,0,0-10.66,20.48c-.44,1-.87,2-1.3,3a106.51,106.51,0,0,0-6.81,21.89A128.31,128.31,0,0,1,874.06,626.93Z"/><path class="cls-7" d="M879.89,662.82s1.11-27.45-3.08-29.14S879.89,662.82,879.89,662.82Z"/><polygon class="cls-7" points="876.29 626.24 857.38 632.1 879.06 621.69 876.29 626.24"/><path d="M983.35,816.48l-1,19.68-.14,2.7-.87,16.48-.86,16.29-1.39,26.29-.44,8.38,0,.77-.26,4.93-.14,2.71-.2,3.72-.14,2.64-1.29,24.64c0,.53-.07,1.06-.12,1.58s-.1.88-.17,1.31a3.85,3.85,0,0,1-.07.49c0,.35-.11.7-.18,1s-.17.88-.28,1.32c-.06.25-.12.5-.19.75a8.48,8.48,0,0,1-.22.83c-.14.49-.3,1-.46,1.47-.25.74-.53,1.46-.83,2.17s-.62,1.41-1,2.09c-.18.38-.38.75-.59,1.11-.09.17-.19.34-.29.51l-.32.52c-.17.28-.34.56-.52.83-.35.56-.73,1.11-1.13,1.64l-.51.67-.21.27q-.36.47-.75.9c-.22.26-.45.52-.68.77s-.67.72-1,1.06-.7.68-1.06,1-.73.65-1.1,1c-.75.62-1.52,1.22-2.33,1.77q-.6.42-1.23.81t-1.05.63l-.21.13c-.43.24-.86.47-1.3.69s-.88.44-1.33.65-1,.44-1.53.64l-1.24.46c-.45.15-.91.3-1.37.43a31,31,0,0,1-3,.75c-.49.09-1,.18-1.48.25s-1,.14-1.53.19-1,.09-1.55.12l-18.12,1-3.8.2-7.42.39L901,978.9l-5.84.31-1.79.09-3.1.16-6,.31-6.63.35-19.49,1-15.09.79h0l-4.07.22-13.4.71L804.64,984l-4.59.24-7.4.39-7.94.41-8.66.46h0l-4.07.21-9.84.52-1.65.09-3,.16h0L734,987.68l-1.39.07-36.9,2-1.65.08-18.66,1h0l-4.87.25-15.66.83-11.3.6h0l-7.5.39-5.33.28-2.44.13-26.87,1.41-42.18,2.22-6.73.36-21.94,1.15-28.64,1.51h-.22c-.73,0-1.45.05-2.18,0h-.59l-.65,0-1,0-10.52-.55L480.6,999h-.15l-5.62-.3-6.59-.34-1.18-.06-18.23-1-.88,0-4.46-.23h0l-7.31-.39L414,995.48,404,995l-28.34-1.49-5.42-.29-1.92-.1-2.4-.13-7.32-.39-31.84-1.67h0l-10.17-.54-7-.36h0l-14.13-.75h0l-2.56-.13-1.13-.06h0l-31.55-1.66-23.52-1.24-4-.21-19.41-1-9.94-.52h0l-4-.21-13.92-.73-6.31-.33h0l-12.21-.64-2.58-.14-39.65-2.09-7.53-.39-44.26-2.33-7-.37L62.5,977l-.92-.05-6.72-.35-.57,0c-.52,0-1-.07-1.55-.12s-1-.11-1.53-.19-1-.16-1.51-.26-.88-.18-1.32-.29l-.79-.2-.8-.22-.18-.06c-.4-.11-.8-.24-1.19-.37l-.41-.15-1-.36c-.35-.14-.7-.28-1-.43l-.23-.1c-.23-.1-.47-.21-.7-.33l-.77-.37a2.49,2.49,0,0,1-.28-.15c-.3-.15-.59-.3-.87-.47s-.35-.19-.52-.29c-.33-.18-.65-.38-1-.58s-.83-.53-1.23-.81-.7-.5-1.05-.76l-.28-.21c-.34-.26-.67-.53-1-.8s-.74-.64-1.1-1-.71-.66-1.06-1-.68-.7-1-1.06-.52-.57-.76-.87a5.07,5.07,0,0,1-.37-.44l-.25-.3-.25-.32a4.4,4.4,0,0,1-.38-.5c-.19-.24-.37-.49-.54-.74a3.13,3.13,0,0,1-.29-.42c-.2-.28-.39-.56-.56-.84a3,3,0,0,1-.21-.33c-.16-.25-.31-.5-.46-.76s-.23-.38-.34-.58l-.14-.25c-.13-.24-.26-.49-.38-.74a.76.76,0,0,1-.09-.18q-.16-.3-.3-.6c-.16-.32-.31-.65-.45-1s-.36-.83-.53-1.26c0-.12-.1-.25-.14-.38-.13-.34-.26-.69-.38-1a.07.07,0,0,1,0-.05q-.23-.66-.42-1.35c-.14-.46-.26-.93-.38-1.41a31.17,31.17,0,0,1-.78-4.86h0c0-.35-.06-.7-.08-1.06l-.5-9.5-.28-5.32-.94-18v-.15l-.3-5.68L20.1,881.77l-1.28-24.35,0-.3-.42-8-.54-10.26v-.07l0-.34-.07-1.29-.06-1.25-.06-1.09v-.22l-.34-6.53-.17-3.33-.28-5.24-.15-2.78-.21-4-.2-3.73-.11-2-.42-7.79-.15-2.82-.09-1.82,0-.52-.68-13-.23-4.28q6.74,3,13.73,5.95c13.93,5.93,28.52,11.87,43.38,17.53,2.83,1.07,5.67,2.14,8.52,3.19q9.72,3.6,19.5,7c9.61,3.3,19.23,6.42,28.75,9.27,47.28,14.12,92.25,21.62,122.34,13.16l1.7-.49c10.22-3,21.41-7,33.45-11.67,43-16.85,97-42.67,156.24-61.71q10.88-3.49,22-6.65c60-17,124.59-25.43,188.38-9.89a270.44,270.44,0,0,1,35.91,11.42l1.95.78q12.52,5.08,25.51,9.65,10,3.54,20.23,6.78,9.12,2.91,18.37,5.59c23.85,6.92,48.24,12.79,72.45,17.77,19.32,4,38.54,7.36,57.27,10.26,10.43,1.63,20.71,3.1,30.77,4.43,11,1.45,21.79,2.75,32.21,3.89C959.8,814.32,971.89,815.49,983.35,816.48Z"/><path d="M129.77,737.78c-.13,28.69-.66,56.78-1.33,81.84-.17,6.64-.36,13.07-.54,19.24-1.4,45.12-3.05,76.47-3.05,76.47S22.33,917.18,60.2,843.56c.76-1.49,1.49-3,2.19-4.7,4.29-10.15,7.32-23.3,9.28-38.67,8.59-67.11-3-176.5-17.69-262.47-1.33-7.83-2.69-15.46-4.07-22.84-4-21.4-8.06-40.75-11.93-56.86-3.27-13.59-6.39-24.87-9.18-33.11l-.41-1.22c-1.26-3.81-2.35-7.54-3.31-11.18q-.79-3-1.45-6h0l0-.13c-.64-2.86-1.19-5.68-1.65-8.44a167.38,167.38,0,0,1-1.76-41c.51-6.89,1.36-13.48,2.35-19.84h0c3.59-23.24,9-43.41,6.26-63.59C27,259.57,24.9,245.28,23,232.3c0-.26-.07-.52-.11-.78h0c-3.71-25.53-6.72-45.82-6.11-47.65l-.06-1.64v0l5.6-106.46C29.05,91.5,38.7,121.17,50,176.47c1.74,8.47,3.25,16.39,4.57,23.82,1.91,10.75,3.4,20.46,4.53,29.29,8.09,62.89-1.67,81.4-5.4,115-1.17,10.57.34,23.29,3.71,37.52.08.35.16.7.25,1.06,1.38,5.73,3.06,11.7,5,17.87.39,1.24.78,2.48,1.19,3.74,4.52,14.05,10.21,29.07,16.45,44.59,3.82,9.49,7.84,19.18,11.92,28.94,7.23,17.25,14.66,34.76,21.53,51.92,5.16,12.9,8.78,34.35,11.26,60.72l.36,3.93c2.13,24.14,3.35,52.12,4,81.3,0,.8,0,1.6,0,2.41h0l0,1.72c0,.56,0,1.11,0,1.67l.09,5.47v.41c.08,5.24.14,10.52.17,15.8a.89.89,0,0,1,0,.23c0,1.86,0,3.72,0,5.59C129.81,718.91,129.81,728.38,129.77,737.78Z"/><path d="M71,455.39s98.39-60.34,95.93-107.14,44.33-125.61,7.39-157.63c33.25,39.41,22.36,40.64,14.26,109.6s16.7,87.14-27.81,104.68S88.1,486.79,88.1,486.79Z"/><path d="M48.78,440.7,46.86,462s-3.29-1.4-8.88-4C30,454.38,17.45,448.38,3.12,440.7L4,423.5,4.84,408l.1-1.84,1.32.94c3.09,2.19,6.07,4.37,8.92,6.49,4.81,3.57,9.24,7,13.21,10.14C40.91,433.6,48.78,440.7,48.78,440.7Z"/><path d="M28.23,378.51s-3-8.32-8-21.62c-3-7.95-6.81-17.69-11.16-28.49l1.52-28.86c4.26,14.92,8.17,28.13,12,37.5h0c5.38,13.21,10.57,18.79,16.3,10.77C60.52,317.46,28.23,378.51,28.23,378.51Z"/><path d="M180.41,250.47q1,.3,1.92.54A36.78,36.78,0,0,0,193,252.53l-2-4a102,102,0,0,1-12.88-1.5c-.6-.1-1.2-.22-1.81-.34A60,60,0,0,1,164,243,72.44,72.44,0,0,0,180.41,250.47Z"/><path d="M165.57,236.45s13.11,8.13,12.58,10.61S165.57,236.45,165.57,236.45Z"/><polygon points="181.44 249.65 172.75 256.59 184.42 249.79 181.44 249.65"/><path d="M107.46,405.33c1.05,1.09,2.09,2.13,3.09,3.1,10.89,10.56,18.86,14.36,18.86,14.36l.43-9.74a224.44,224.44,0,0,1-23.07-16.68c-1-.83-2.06-1.7-3.1-2.58-7-6-14.15-13-19.62-20.35A158.33,158.33,0,0,0,107.46,405.33Z"/><path d="M94,362.56s16.41,29.63,12.73,33.81S94,362.56,94,362.56Z"/><polygon points="110.3 404.86 86.22 408.86 115.87 408.33 110.3 404.86"/><path d="M85.23,177.81q-5.66,3.74-10.73,7.31c-36.66,25.92-52.09,47-52.09,47l28.11,6.57a671.87,671.87,0,0,1,61.13-58c3-2.52,6.1-5.06,9.21-7.59,21.34-17.1,45.54-34.07,69.92-46C145.78,142.52,111.1,160.85,85.23,177.81Z"/><path d="M217,162.1s-95.18,31.57-105.35,18.58S217,162.1,217,162.1Z"/><polygon points="85.05 186.34 86.54 114.09 71.89 200.65 85.05 186.34"/><path d="M200.24,408q-.94-3-1.91-5.81c-7-20-14.53-29.72-14.53-29.72l-6.63,11.87A317.93,317.93,0,0,1,195.5,419.6c.76,1.68,1.5,3.42,2.24,5.16,5,11.89,9.51,25.06,11.73,37.66A220.62,220.62,0,0,0,200.24,408Z"/><path d="M190.21,469.75s-1.91-47.23,5.29-50.15S190.21,469.75,190.21,469.75Z"/><polygon points="196.4 406.81 228.94 416.89 191.63 398.98 196.4 406.81"/><path d="M992.25,352.85h0a173.76,173.76,0,0,1-14.51,24.64l-.74,1.05c-5,7.09-11.29,17-18.33,29h0c-4.91,8.41-10.23,17.87-15.8,28.17-7.4,13.68-15.27,28.84-23.28,45-1.09,2.2-2.19,4.41-3.28,6.64l-.94,1.9L912,496.15c-8.72,18-17.51,37-26,56.25q-2.62,6-5.19,12h0c-11.19,26.07-21.65,52.46-30.43,77.64l-.88,2.52q-3.19,9.24-6.06,18.23h0c-.28.86-.55,1.7-.81,2.56a.49.49,0,0,0,0,.11c-13.64,43.34-21,81.23-16.64,104.83,1.75,9.49,2,17.44,1,24.09-7.41,50.44-83.6,25.94-83.6,25.94s4.17-17,11.15-43.71c6-23,14.08-53.27,23.4-86.14q1.47-5.22,3-10.54h0l0-.11h0q2.4-8.37,4.89-16.9,1.44-5,2.92-9.94,3.18-10.74,6.45-21.53v-.07h0c.3-1,.61-2,.88-2.93v0l0-.06v0q2.58-8.41,5.2-16.8c.34-1.12.69-2.22,1-3.33h0c5.4-17.19,10.93-34.1,16.49-50.13h0c16.17-46.65,32.53-85.9,46.35-103.22,11.53-14.45,23.7-29.05,35.6-43.48,6.74-8.17,13.39-16.28,19.79-24.27q4.47-5.6,8.77-11.09c23.89-30.66,42.8-59.06,47-81.54,3.88-21.08,3.7-37.05,9.64-60.67l2.92,55.43.65,12.37.44,8.39,1.26,23.94h0Z"/><path d="M927.8,395.54S851,309.34,866.91,265.25s-6.15-133.06,38.47-153c-43.22,28.12-33.15,32.44-45.32,100.81s-41.16,78.59-3.62,108.24,45.9,99.4,45.9,99.4Z"/><path d="M994.82,401.52c-15,3-27.89,4.93-36.15,6.06h0c-6.1.84-9.66,1.23-9.66,1.23l4.31-20.92s9.59-4.52,24.43-10.39c4.69-1.86,9.9-3.85,15.5-5.87l1.07,20.24Z"/><path d="M991.25,333.88h0l-.3.4s-13.21-67.4-1.4-32.74l.44,8.39Z"/><path d="M882.25,167.74c-.7,0-1.36,0-2,0a36.83,36.83,0,0,1-10.67-1.64l3-3.22a102.53,102.53,0,0,0,12.77,2.28l1.82.2a60.28,60.28,0,0,0,12.88,0A72,72,0,0,1,882.25,167.74Z"/><path d="M900.51,158.6s-14.9,4-15.11,6.53S900.51,158.6,900.51,158.6Z"/><polygon points="881.5 166.66 887.81 175.81 878.6 165.93 881.5 166.66"/><path d="M907.35,337.07c-1.33.75-2.62,1.44-3.86,2.08-13.47,7-22.2,8.3-22.2,8.3l2.4-9.45a225.52,225.52,0,0,0,26.91-9.3c1.22-.5,2.46-1,3.71-1.58A132,132,0,0,0,939,313.31,158.16,158.16,0,0,1,907.35,337.07Z"/><path d="M932.56,300s-24.27,23.62-22,28.69S932.56,300,932.56,300Z"/><polygon points="904.77 335.8 926.66 346.59 898.43 337.52 904.77 335.8"/><path d="M979.41,108.82l1.7,32.42c-4-6.55-8.27-13.42-12.88-20.44h0c-2.12-3.27-4.37-6.59-6.6-9.91h0C946.12,88.34,927.86,65.1,908,46.65A485.64,485.64,0,0,1,979.41,108.82Z"/><path d="M872.74,72.56s82,57.72,95.48,48.23S872.74,72.56,872.74,72.56Z"/><path d="M817.75,312.82c1.19-1.76,2.37-3.43,3.51-5,12.44-17.12,22.5-24.26,22.5-24.26l2.92,13.28a316.37,316.37,0,0,0-27.74,28.46c-1.21,1.39-2.42,2.84-3.64,4.29-8.19,10-16.34,21.25-22.11,32.67A221,221,0,0,1,817.75,312.82Z"/><path d="M809.52,374.84s15.47-44.67,9.41-49.54S809.52,374.84,809.52,374.84Z"/><polygon points="821.77 312.79 787.71 313.05 828.6 306.68 821.77 312.79"/></g></g></g></g></svg>