<svg xmlns="http://www.w3.org/2000/svg" xmlns:xlink="http://www.w3.org/1999/xlink" viewBox="0 0 1000 1000"><defs><style>.cls-1{fill:none;}.cls-2{fill:url(#linear-gradient);}.cls-3{fill:#85a0bf;}.cls-4{fill:#537893;}.cls-5{fill:#255269;}.cls-6{fill:#174541;}.cls-7{fill:#132b2b;}.cls-8{fill:#0e260b;}.cls-9{fill:#175a1c;}.cls-10{fill:#5e891b;}.cls-11{fill:#7ba12d;}.cls-12{opacity:0.1;}</style><linearGradient id="linear-gradient" x1="509.23" y1="-127.84" x2="495.65" y2="795.8" gradientUnits="userSpaceOnUse"><stop offset="0" stop-color="#0071bc"/><stop offset="1" stop-color="#fff"/></linearGradient></defs><g id="Layer_2" data-name="Layer 2"><g id="OutPut"><rect id="BG" class="cls-1" width="1000" height="1000"/></g><g id="Bachground"><g id="_5" data-name="5"><path class="cls-2" d="M999.91,501.71l-.73,13.79-.93,17.67L996,575.72l0,.67v.07l-.15,2.8-1.25,23.66-.28,5.35-.41,7.9-1,19.42-.21,4-.78,14.83-.13,2.43H8.26l0-.5-.11-2.1-1-18.5L6.79,629l-.48-9.12-1-19.37L4.16,579l-.08-1.44L2.42,546,1,518.83l-.9-17.12a32.51,32.51,0,0,1,0-3.42l.7-13.38.3-5.65L2.37,455l1-19.42.07-1.3L4.69,411l.73-14L6.26,381l1.9-36.11.27-5.11.37-7.08.9-17,6.4-121.59L23.46,54.29A32.58,32.58,0,0,1,54.29,23.46l136.59-7.19,48-2.53h0L496.2.2l2.09-.11a32.51,32.51,0,0,1,3.42,0l2.35.12h0L945.71,23.46a32.58,32.58,0,0,1,30.83,30.83l7.38,140.29,1.8,34.26,2.47,46.77.71,13.57.35,6.67.74,14.09,4,75.54.09,1.74,0,.21.23,4.44L997.63,455l.2,3.72.15,2.81.07,1.4,1,18.95.06,1.24.45,8.55.35,6.62A32.51,32.51,0,0,1,999.91,501.71Z"/><path class="cls-3" d="M998.25,533.17,996,575.72l0,.67v.07l-.15,2.8-1.25,23.66-.28,5.35-.41,7.9-1,19.42-.21,4-.78,14.83-.13,2.43-.2,3.84-1.15,21.92-.5,9.44-.42,8-.38,7.13-.43,8.25,0,.71-.2,3.86-.3,5.66-.07,1.35-.46,8.67h0l-.42,8L986.1,764l-.28,5.32-.34,6.48v.25l-1,18-.08,1.46-.11,2.22L983.74,809l-1.43,27.08-2.6,49.36L979,899.37,978.31,912l0,.77-.1,1.94-1.63,31a32.4,32.4,0,0,1-3.52,13.1l-97.95-1.2-39-.48-492.51-6-320-3.92c-.05-.48-.08-1-.11-1.46l-.5-9.5-.28-5.32,0-.83-.91-17.29-1-19.43-1.87-35.48,0-.74-.42-8-.54-10.33-.15-2.88-.86-16.41-.15-2.78L16.27,809l-.8-15-.94-17.92L13.4,754.64l-.58-10.94-.17-3.26L12,728.86l-.19-3.69L11.1,711,10,689.14l-.1-1.9-.45-8.56L9,670.07l-.69-13.21,0-.5-.11-2.1-1-18.5L6.79,629l-.48-9.12-1-19.37L4.16,579l-.08-1.44L2.42,546,1,518.83l-.9-17.12a32.51,32.51,0,0,1,0-3.42l.7-13.38c7.36-1.66,14.5-2.34,20.66-1.32,27.16,4.5,41.24,24,50,24s143.7-46.5,217.2-42,45,43.5,72,42-9-30,43.5-28.5,126,69.32,205.48,71.41S746.1,440.09,776.09,444.59s9,64.5,33,64.5,6-30,22.5-30,16.86,54,45.93,54C901.16,533.09,935.38,516.41,998.25,533.17Z"/><path class="cls-4" d="M993.89,616.17l-1,19.42-.21,4-.78,14.83-.13,2.43-.2,3.84-1.15,21.92-.5,9.44-.42,8-.38,7.13-.43,8.25,0,.71-.2,3.86-.3,5.66-.07,1.35-.46,8.67h0l-.42,8L986.1,764l-.28,5.32-.34,6.48v.25l-1,18-.08,1.46-.11,2.22L983.74,809l-1.43,27.08-2.6,49.36L979,899.37,978.31,912l0,.77-.1,1.94-1.63,31a32.4,32.4,0,0,1-3.52,13.1,22.66,22.66,0,0,1-1.17,2.09l-100.09-1.44-37.93-.54-487.78-7L23.58,947.26s0-.06,0-.09c-.05-.48-.08-1-.11-1.46l-.5-9.5-.28-5.32,0-.83-.91-17.29-1-19.43-1.87-35.48,0-.74-.42-8-.54-10.33-.15-2.88-.86-16.41-.15-2.78L16.27,809l-.8-15-.94-17.92L13.4,754.64l-.58-10.94-.17-3.26L12,728.86l-.19-3.69L11.1,711,10,689.14l-.1-1.9-.45-8.56L9,670.07l-.69-13.21,0-.5-.11-2.1-1-18.5L6.79,629l-.48-9.12-1-19.37L4.16,579l-.08-1.44L2.42,546C49.54,534.74,120.88,519.21,148,521.09,190,524,169,551,270,557s59-21.07,112-18,62,54,167,64,193-53.07,283-41c19.86,2.66,49.2,11.43,82.88,23.5h0c20,7.14,41.43,15.44,63.36,24.31l.55.22h0Q986.33,613,993.89,616.17Z"/><path class="cls-5" d="M994.58,602.92l-.28,5.35-.41,7.9-1,19.42-.21,4-.78,14.83-.13,2.43-.2,3.84-1.15,21.92-.5,9.44-.42,8-.38,7.13-.43,8.25,0,.71-.2,3.86-.3,5.66-.07,1.35L943.32,762.3l-16.49,13-72.17,56.91L789,884,79.1,859.91h0l-60.25-2,0-.74-.42-8-.54-10.33-.15-2.88-.86-16.41-.15-2.78L16.27,809l-.8-15-.94-17.92L13.4,754.64l-.58-10.94-.17-3.26L12,728.86l-.19-3.69L11.1,711,10,689.14l-.1-1.9-.45-8.56L9,670.07l-.69-13.21,0-.5-.11-2.1-1-18.5L6.79,629l-.48-9.12-1-19.37c8.92-2.14,18.62-4.32,28.63-6.32l6.71-1.31h0l2.7-.5,1.25-.23q3.23-.58,6.47-1.14c22.71-3.87,45.69-6.3,63.9-5,56,4,42.34,31.54,88,32.25s38.42-19.35,57.71-16.3S317,628,344,629s59-8,101,0,89,25,108,20,63-32.5,91-30.75S708,602,741,595s76-7,103,0c26.26,6.81,5.8-11.18,70.88-9.53h0q2.73.06,5.67.18c21.76.87,45.58,7,68.23,15.14Q991.7,601.84,994.58,602.92Z"/><path class="cls-6" d="M994.3,608.27l-.41,7.9-1,19.42-.21,4-.78,14.83-.13,2.43-.2,3.84-1.15,21.92-.5,9.44-.42,8-.38,7.13-.43,8.25,0,.71-.2,3.86-.3,5.66L866.3,752.22h0L858,754h0l-34.35,7.48-484.17,42,2.22-44.31,1.68-33.3.1-2,2-39.88s11.45-.85,29.93-2.45h0c46.88-4,139-12.89,204.13-24.69,20.33-3.68,38-7.65,50.93-11.86,70.5-23,38.5,1.5,134,0a396.19,396.19,0,0,0,39.73-2.78c1.68-.19,3.35-.4,5-.61h0c25.56-3.23,51.55-8.35,76.8-13.65l4.27-.9.08,0,4.41-.94c29.71-6.31,58.19-12.6,83.52-16l.45-.07h0l3-.39,2.18-.27Q989.25,608.71,994.3,608.27Z"/><path class="cls-7" d="M991.54,660.7l-1.15,21.92-.5,9.44-.42,8-.38,7.13-.43,8.25,0,.71-.2,3.86-.3,5.66-.07,1.35-.46,8.67h0l-32.51,28.44h0L935,781.72,877.5,832l-22.84.22L260.71,838l54.74-75.46,26.6-36.67h0l1.44-2L363,697s23.5-3.72,55.49-8.1h0c45.77-6.28,108.9-13.9,145.43-13.9C626,675,602,682,651,681s78-15,112-16c6.56-.19,22.19-.53,43.15-.94l31-.6h.94l3.5-.07,34.79-.64h0l46.06-.83h0l43.61-.78Z"/><path class="cls-8" d="M33.5,611.17l.09.06C32.94,612.21,31.66,610.07,33.5,611.17Z"/><path class="cls-8" d="M56.94,675.52,56,678.17l5,4.5,3,9c-3.58,5.58-6.85,9.89-7,10.14l.52-.64c2-2.5,6.54-3.57,3.5.65L58,706s2.87-.62,2.54,0-5.5,4.63-5.5,4.63L39.5,706,10,689.14l-.1-1.9-.45-8.56L9,670.07l-.69-13.21,0-.5-.11-2.1-1-18.5a10.52,10.52,0,0,1,1.35,3.91c.5,4.5,1,7.5,1,7.5l3-19.5,1,18-1,8.25,1,2.75,3-12.5-.33,8-.17,4s3.5-1,4-4a14.17,14.17,0,0,0-.5-6c1.5-4-.22-13.5.64-10.5s1.86,12.5,3.36,5.5,6-5,6.5-7l.5-2-5-17.5s10.24-1.95,8.09-3.44a4.43,4.43,0,0,0,.29-2.56c-.38-5.5-6.38-10.33-4.88-10.42s4.92,0,4.92,0v-8.08l3.08-6.5s2.74.46,3.42,6.17c-.36-6.26-.2-10.56,1-6.17.72,2.72,1.43,6,2,8.7.67,3.31,1.12,5.88,1.12,5.88l.13-6.11.37-17s1.5,8.5,2.5,11,0-6.5,0-6.5,2.5,1.5,3.5,8c.38,2.45.26,3.13.1,3.33s-.66-.56.9,3.17c2.5,6,6,6.48,4,10-4.5,8-6,11-2.5,11.5s3.08,3,3.08,3v7s7.92-5.5,5.92-2.75a85.67,85.67,0,0,0-4.5,7.62c-.82,1.52-1.4,2.63-1.4,2.63s2.4,11.5,3.4,8,5-9,5-9v12.5L68.31,640l1.31-1.83c-4.62,6.71-4.62,11.4-4.62,9s-2.37,4.14-2.49,4.49c.32-.29,5.91-5.32,3,.51s5.53-6.46,5.89-7c-.14.31-3,6.15-5.66,11.68-2,4-3.9,7.86-4.73,9.31l-2,3.5Z"/><path class="cls-8" d="M147.19,711.17l7.1-19s7,7.5,6,3-.3,2.5.1-3-.4-15.5,0-10.5l.4,5s-4.3-24-.4-19l3.9,5v-12.5s14,10,9-.5-14.5-18.5-9-14a35.19,35.19,0,0,1,8,9s-1-2.56,0-10.28,4.5-3.72,4.5-3.72c1.5-3,3.57-12.5,3.57-12.5a48.3,48.3,0,0,1,4.6,8.25c.67,1.82.73,3.22-.67,3.22-4,0,.26,3.53,1.13,3.78s.87-2.25.87.25v4.5s4.5-11.5,3.5-4.75a43.15,43.15,0,0,1-3.5,11.75s6-13,5.5-6,0,10,0,10c1.47,9.5,8.47-13.5,5-2a96.37,96.37,0,0,1-10,21.5l9-9s-9.5,16-5.5,11.5,5.5-11,4-4.5l-1.5,6.5,1,4,4-5.5c-4,5.5-8,12.5-8,12.5l6.5-1s-5,13-.5,12,11-12,10.5-8l-.5,4,.29-7,.24-6,2.47,3v-6l4,6s.25-1.78.57-3.76c.48-2.91,1.14-6.23,1.43-4.74l-.5-2.5s3-6.55,3,3.5c0,6-2,15,0,3.5s1.5-6.5,3.5-2l2,4.5s2-2,3,1.5,5.5-7,5.5-7-7,13.5-5.5,15.5,6,2,6,2l9.5-5-2.5,12,2.5,2.5v9h-26.5l-74-6,9-3Z"/><path class="cls-8" d="M988.78,633c0,.7-1.17-1.59,0,0Z"/><path class="cls-8" d="M995.83,579.26l-1.25,23.66-.28,5.35-.41,7.9-1,19.42-.21,4-.78,14.83-8,2.43-5.74,1.73,2.07-1.73,5.22-4.35-2.43,1-.22-13.53-.11-6.75s9.26,4.42,6.69.6c-.21-.31-.38-.55-.52-.74a8.25,8.25,0,0,0-.49-2.09c-.65-2.11-1.75-4.82-2.69-7l0,0c-2-3.28-6-10.23-7.23-13.82,0-.1-.07-.2-.1-.29-.52-1.67-.35-2.48,1.09-1.63l2.48,1.46,3,1.75-.79-2-3.77-9.6s5.48,1.38,8.56,1c2.3-.23,3.27-1.41-.36-4.8-8.49-8-20.26-11.93-13.49-9.75a35.37,35.37,0,0,1,10.71,5.44c-.21-.25-2-2.47-3.73-9.55-1.89-7.56,2.83-5.11,2.83-5.11.3-3.34-1.25-12.94-1.25-12.94a48.52,48.52,0,0,1,7.3,6c1.29,1.45,1.85,2.74.55,3.25-3.72,1.46,1.53,3.19,2.43,3.11s0-2.41.91-.09C995.13,577.48,995.54,578.51,995.83,579.26Z"/><path class="cls-8" d="M872.33,679.61s-.36-3.21,0-3.28l3.28-.58v-2.39l-3.44-5.25,1.72,1.25,1.72-3.25.47-2.25h1.25s-4.25-4.75-1.25-3.25l3,1.5v-3.75h2s-.75-5,0-4.25a4.48,4.48,0,0,0,2,1v-7.75l-.43-.76c-.61-1.09-1.6-2.88-1.07-2,.75,1.25-1-5-1-5l2.5,1.25,1.75.75-1.75-4.25s2,1.25,1.75,0a27.79,27.79,0,0,0-1.25-3.25c.5,1,2.5,5,2.5,3v-5.5s-1-3.5,0-2.5-1-2.75,0-3.75,1.25,3.25,1-1a38.6,38.6,0,0,1,.09-6.75l3.41,6.75s-.25,5.25-.25,2,.25-6.5.25-6.5l1.75,2.25v3c1.5-3.5,2.5-.5,2.5-.5v7.75l2.75-4.75v6.25l2.25,1.75c1,1.25,0,3,0,3l2.5-3a9,9,0,0,0-.25,3v2.5l4,2.5s2.5-2.75,2.5-1c0,.91-.13,3-.26,4.73s-.24,3-.24,3l3-8.5c.75-2.25,1-.25.75-2.25s-2.75-6.5-1.5-5.75,1.69,0,1.59-2.25.41-1.75,1.41.25,0-4,0-4l1.95,5.45.55,1.55h2.5s.75,1.75,1.5,3.25-1.75,3.5,0,3.5,4.25-7.75,4.5-8.5.5,4.25.5,4.25l3.25,6.5,3.5-7.75s-.75,2,0,3.25a26.91,26.91,0,0,0,2,2.75l4.5,3.75,6.5-3s1.25,7.25,2,7.25h.75l5.75,2.5,1.25.75,2.25-4.75,3.66,9.15,7.09-5.65v8l-5.75,4.75-10.25,4.5a223,223,0,0,1-23,7.25c-10.5,2.5-38.75,8-38.75,8Z"/><path class="cls-8" d="M877,673.28l-13.37-1.09c-1.46,0-4.71-2.85-4.71-2.85s-6.08-2-6.8-3.73.2,3.53.2,3.53-7-5.39-6.58-4.57,2.18.74-.39-.82-1.94,3.21-1.94,3.21L841,662.28l-3.48,1.4-4.19-2.25s-5.63-8.08-5.43-5c0,0,2.35,2.88-2.06.51l-4.4-2.38a7.18,7.18,0,0,0-2.14-1.29c-1.2-.44-1.12,1.36-1.12,1.36l-3.94-1.21L808,644.9l1.94-3.2c-1.63.76-5.24-7.27-5.24-7.27l-.53,3.77.07,4.72a8.33,8.33,0,0,1,.2,3l-1.51.55L807,649l-5.66-.79,3.25,2.84,2.23.18,1.82,3.74-4.67,1s9.07,2.86,5.77,3.49a6.58,6.58,0,0,0-4.56,3.67l6.83,7.06,3.26-.07c-6.82-.33-8.92.73-8.92.73l6.76,2.35-1.25,1.58s-3,1.1-2.75,2.13,2.14,1.3,2.14,1.3l-1.17,1.92s-1.06-2.1-1.49-.91,2.8,5.5,2.8,5.5-5.48-1.56-3.47,0,6.2,3.75,5,3.88a55.75,55.75,0,0,1-6.13-.5l6.42,8.72,1,1.3,1.93,1.17L809,700.73l6.4,8.26a29.22,29.22,0,0,0,1.53,3.27c.59.94-7.33-2.39-7.33-2.39l1.71,2.49,2.48,1.21-1.33,1.24s-2.19,1.68-1.4,1.83a4.31,4.31,0,0,1,1.71,1l-3.85,2s4.58,1.61,2.6,2.46-3.77-2.2-1.72,1.88,5.58,5,1.86,6.09-4.38,1.58-4.38,1.58l5.31,2.2,11.14.9a124.56,124.56,0,0,0,27.6-16.6A294.65,294.65,0,0,0,879.75,691C881.6,688.9,877,673.28,877,673.28Z"/><path class="cls-8" d="M73.22,690.75l11.28-7.27c1.28-.7,2.8-4.74,2.8-4.74s4.4-4.66,4.23-6.5S93,675.45,93,675.45s3.6-8,3.64-7.14-1.57,1.68,0-.9,3.22,1.91,3.22,1.91L99.77,664l3.73-.4,2.63-4s1.14-9.78,2.4-7c0,0-.71,3.65,2-.53l2.76-4.17a7.27,7.27,0,0,1,1.28-2.15c.85-1,1.63.67,1.63.67l2.9-2.93,1.52-10.43-3.23-1.91c1.8-.1,1.19-8.88,1.19-8.88l2.25,3.07,2.17,4.19a8.4,8.4,0,0,0,1.26,2.78l1.58-.23-2.41,4.09,4.61-3.37-1.52,4-1.88,1.21.15,4.16,4.58-1.36s-6.64,6.82-3.43,5.81a6.56,6.56,0,0,1,5.75,1.08l-2.69,9.45-2.9,1.48c5.85-3.51,8.21-3.57,8.21-3.57l-4.86,5.26,1.85.8s3.17-.45,3.43.58-1.27,2.15-1.27,2.15l1.94,1.15s-.06-2.36.89-1.51.12,6.18.12,6.18,4.09-4,3-1.7-3.7,6.24-2.54,5.77a55.94,55.94,0,0,0,5.17-3.34l-1.54,10.72-.23,1.6-1.15,1.93,7-2-1.74,10.3a29,29,0,0,1,.2,3.6c-.08,1.12,5.32-5.56,5.32-5.56l-.32,3L148,696.37l1.76.46s2.73.45,2.1.95a4.34,4.34,0,0,0-1,1.72l4.34,0s-3.28,3.58-1.14,3.39,2.3-3.72,2.41.84-2.54,7.08,1.24,6.26,4.61-.69,4.61-.69l-3.64,4.45-9.4,6.06a124.2,124.2,0,0,1-32.16-1.6A295.24,295.24,0,0,1,79.2,707.65C76.58,706.68,73.22,690.75,73.22,690.75Z"/><path class="cls-9" d="M992.86,635.59l-.21,4-.78,14.83-.13,2.43-.2,3.84-.51,9.8-.64,12.12-.5,9.44-.42,8-.38,7.13-.43,8.25,0,.71-.2,3.86-.3,5.66-.07,1.35-.46,8.67h0l-.42,8L986.1,764l-.28,5.32-.34,6.48v.25l-1,18-.08,1.46-.11,2.22L983.74,809l-1.43,27.08-2.6,49.36L979,899.37,875.07,957.61l-3.31,1.85-41.29,23.15-28.8,1.51-9,.48-7.94.41-22.58,1.19-4.63.25h0L655.7,991.81l-19.64,1-7.77.41-99.7,5.25h0l-26.65,1.4h-.22c-.73,0-1.45.05-2.18,0-47.09-14.36-99.47-30.67-153.48-48.05l-2.52-.81c-89.46-28.81-183.18-60.52-264.43-91.18h0c-21.44-8.1-42-16.12-61.4-24l-.86-16.41-.15-2.78L16.27,809l-.8-15-.94-17.92L13.4,754.64l-.58-10.94-.17-3.26L12,728.86l-.19-3.69L11.1,711c27.38.69,58.73,2.2,94.37,4.57h0l7.61.52q19.27,1.33,38.07,2.47,102.44,6.24,190.87,7.32h0l1.34,0c80,1.06,151.72-.67,216.09-4.52q55.32-3.32,103.51-8.55h0c55-5.91,103.4-13.45,145.84-22q36.18-7.27,66.76-15.37l1.9-.5q24.11-6.37,45-13.05h0c5.28-1.68,10.39-3.37,15.37-5.06q7.13-2.42,13.85-4.85h0l4-1.46,1.48-.54q13.62-5.06,25.58-10.08Q987.94,637.76,992.86,635.59Z"/><path class="cls-10" d="M836,957.13l-2.21,1.79c-10.44,8.49-21.22,16.92-32.16,25.2l-9,.48-7.94.41-22.58,1.19-4.63.25h0L655.7,991.81l-19.64,1-7.77.41-99.7,5.25h0l-26.65,1.4h-.22c-.73,0-1.45.05-2.18,0-.41,0-.83,0-1.24,0l-1,0-10.52-.55-6.37-.34L448,997.26l-4.46-.23h0l-73.28-3.86-2.92-.16-1.4-.07-49.34-2.6-7-.36h0l-14.13-.75h0l-3.69-.19h0l-59.06-3.11-29.35-1.55h0l-4-.21-44.5-2.34-81.55-4.29-7.4-.39L62.5,977l-.92-.05-6.72-.35-.57,0a32.58,32.58,0,0,1-30.71-29.28s0-.06,0-.09c-.05-.48-.08-1-.11-1.46l-.5-9.5-.28-5.32,0-.83-.91-17.29-1-19.43-1.87-35.48,0-.74-.42-8-.54-10.33-.15-2.88-.86-16.41-.15-2.78L16.27,809l-.8-15-.94-17.92L13.4,754.64l-.58-10.94-.17-3.26L12,728.86l-.19-3.69L11.1,711,10,689.14l-.1-1.9-.45-8.56L9,670.07l-.69-13.21,0-.5,1,.5a379.88,379.88,0,0,0,47.66,18.66c9.08,2.86,18.41,5.41,28,7.59h0a346.46,346.46,0,0,0,59.78,8.3c1.61.09,3.22.16,4.84.21a2,2,0,0,0,.35,0q5.21.2,10.49.22,15.42.09,31.47-1.22,7.14-.58,14.4-1.49l.78-.09,1.73-.23,2.24-.29h0l2.19-.31,2.46-.36,1.39-.21.13,0,.39-.06,4-.61c3-.46,6-.89,8.95-1.31h.08c62.32-8.85,105.72-8.94,144.81-4.1h0c14.71,1.82,28.79,4.34,43.05,7.35h0c40,8.45,81.26,20.77,141,32.47,2.83.56,5.71,1.11,8.63,1.67l.79.14,1.43.27,1.73.32.9.17.65.12.5.09h0c32.75,6.05,70.9,11.83,116.88,16.7,37.14,3.94,79.4,7.29,128,9.72,14.31.71,27.26,1.87,38.95,3.44h0c31.82,4.27,54.22,11.59,68.8,21.29a60.46,60.46,0,0,1,8.15,6.41C977,821.08,917.05,890.89,836,957.13Z"/><path class="cls-11" d="M985.82,769.35l-.34,6.48v.25l-1,18-.08,1.46-.11,2.22L983.74,809l-1.43,27.08-2.6,49.36L979,899.37,978.31,912l0,.77-.1,1.94-1.63,31a32.4,32.4,0,0,1-3.52,13.1,22.66,22.66,0,0,1-1.17,2.09,32.52,32.52,0,0,1-26.14,15.64l-18.12,1-3.8.2L901,978.9l-7.63.4-50.26,2.64h0l-4.07.22-8.51.45-28.8,1.51-9,.48-7.94.41-22.58,1.19-4.63.25h0L655.7,991.81l-19.64,1-7.77.41-99.7,5.25h0l-26.65,1.4h-.22c-.73,0-1.45.05-2.18,0-.41,0-.83,0-1.24,0l-1,0-10.52-.55-6.37-.34L448,997.26l-4.46-.23h0l-73.28-3.86-2.92-.16-1.4-.07-49.34-2.6-7-.36h0l-14.13-.75h0l-3.69-.19h0l-59.06-3.11-29.35-1.55h0l-4-.21-44.5-2.34-81.55-4.29-7.4-.39L62.5,977l-.92-.05-6.72-.35-.57,0a32.58,32.58,0,0,1-30.71-29.28s0-.06,0-.09c-.05-.48-.08-1-.11-1.46l-.5-9.5-.28-5.32,0-.83-.91-17.29-1-19.43-.2-3.85-1.67-31.63,0-.74-.42-8-.54-10.33-.15-2.88-.86-16.41a2646.8,2646.8,0,0,1,298.62-57q13-1.72,26.27-3.35c97-11.89,206.12-19.85,321.28-18.76q13.95.12,28,.43c57.31,1.27,116,4.85,175.26,11.36h0q38.37,4.2,77,10.08,5.88.91,11.75,1.85h0Q970.44,766.6,985.82,769.35Z"/><path class="cls-12" d="M663,740.43C315.25,764.18,115.08,841.07,20.51,889.49l-1.67-31.63,0-.74-.42-8-.54-10.33-.15-2.88-.86-16.41a2646.8,2646.8,0,0,1,298.62-57q13-1.72,26.27-3.35C438.72,747.3,547.84,739.34,663,740.43Z"/><path class="cls-12" d="M568.12,723c-35.24-6.5-217.6-38.7-352.43-35.17l1.39-.21.13,0,.39-.06,4-.61c3-.46,6-.89,8.95-1.31h.08c62.32-8.85,105.72-8.94,144.81-4.1h0c14.71,1.82,28.79,4.34,43.05,7.35h0c40,8.45,81.26,20.77,141,32.47C562.32,721.93,565.2,722.48,568.12,723Z"/><path class="cls-12" d="M992.86,635.59l-.21,4-.78,14.83-.13,2.43-.2,3.84-.51,9.8c-121,47.68-326.33,42.36-328,42.32,55-5.91,103.4-13.45,145.84-22q36.18-7.27,66.76-15.37l1.9-.5q24.11-6.37,45-13.05h0c5.28-1.68,10.39-3.37,15.37-5.06q7.13-2.42,13.85-4.85h0l4-1.46,1.48-.54q13.62-5.06,25.58-10.08Q987.94,637.76,992.86,635.59Z"/></g></g></g></svg>