<svg xmlns="http://www.w3.org/2000/svg" viewBox="0 0 1000.09 1000"><defs><style>.cls-1{fill:none;}.cls-2{fill:#dae5dd;}.cls-3{fill:#c6d9d3;}.cls-4{fill:#b2cccd;}.cls-5{fill:#496a7b;}.cls-6{fill:#294149;}.cls-7{fill:#1d343a;}.cls-8{opacity:0.1;}</style></defs><g id="Layer_2" data-name="Layer 2"><g id="OutPut"><rect id="BG" class="cls-1" width="1000" height="1000"/></g><g id="Bachground"><g id="_4" data-name="4"><path class="cls-2" d="M997.63,455H2.37l1-19.42.07-1.3L4.69,411l.73-14L6.26,381l1.9-36.11.27-5.11.37-7.08.9-17,6.4-121.59,4.77-90.65,2.59-49.19A32.61,32.61,0,0,1,54.29,23.46l136.59-7.19,48-2.53h0L496.2.2l2.09-.11a32.51,32.51,0,0,1,3.42,0l2.35.12h0L945.71,23.46a32.58,32.58,0,0,1,30.83,30.83l7.38,140.29,1.8,34.26,2.47,46.77.71,13.57.35,6.67.74,14.09,4,75.54c.64.93,1,1.52,1,1.52s-.57.11-.94.22l0,.21.23,4.44Z"/><path class="cls-3" d="M999.91,498.29a32.51,32.51,0,0,1,0,3.42l-.73,13.79L996,575.72l0,.67v.07l-376.31,39-16.51,1.71L590,618.52l-9,.93-19.46,2-31.62,3.28-70.44,7.3L266.89,652l-205,21.24L9.4,678.68,9,670.07l-.83-15.81L6.79,629l-.48-9.12L4.16,579l-.08-1.44L1,518.83l-.9-17.12a32.51,32.51,0,0,1,0-3.42l1-19L2.37,455l1-19.42.07-1.3L4.69,411l.73-14L6.26,381l1.9-36.11.27-5.11.37-7.08.9-17L104,295s24.82-21.76,45.9-36c13-8.83,24.66-14.79,28.1-11,9,10,28,45.82,33,37.41,2.7-4.54,12.38-23.79,20.72-40.57C238.85,230.52,245,218,245,218l62,28.82L366,248l16.16,17.7L387,271l10.2-4.57L416,258l22,22,27.5-33L488,235l33,23,17.34-4.88L553,249l15.56,10.7L585,271l12.21-14.92L612,238l65-53,8,30,20,19,1.89,2.21L735,269l12-22,17,20,23-30,18.84-26.48L824,185s36,3,37,6,24-13,24-13l4.82,5.29L916,212s29-16,32-13,26,34,26,34l11.72-4.16,2.47,46.77.71,13.57.35,6.67.74,14.09,4,75.54c.64.93,1,1.52,1,1.52s-.57.11-.94.22l0,.21.23,4.44L997.63,455l.2,3.72.07,1.22.08,1.59.07,1.4,1,18.95a10.7,10.7,0,0,0,1-1.88,2.21,2.21,0,0,1,.09-.24c0,.2-.42,1.5-1,3.36l.45,8.55Z"/><path class="cls-4" d="M999.91,498.29a32.51,32.51,0,0,1,0,3.42l-.73,13.79L996,575.72l0,.67v.07l-3.33,63.14-2.26,43-.5,9.44-.42,8-.38,7.13-.43,8.25,0,.71-.2,3.86-17.16,2.1L574.51,770.67,75.6,831.72l-57.76,7.07-1.16-22.07L16.27,809l-.8-15-.94-17.92L13.4,754.64l-.58-10.94-.17-3.26L12,728.86l-.19-3.69-2-37.93-.45-8.56L9,670.07l-.83-15.81L6.79,629l-.48-9.12L4.16,579l-.08-1.44L1,518.83l-.9-17.12a32.51,32.51,0,0,1,0-3.42l1-19L2.37,455l1-19.42.07-1.3L4.69,411l.73-14L6.26,381l1.9-36.11.27-5.11.37-7.08L19,328l28,17H86l22,6,50-6,31,8s32,19.07,35,21.53c1.37,1.13,9.41-1.59,17.74-4.88C251.66,365.73,262,361,262,361l27,3,34,16h50l21.42,22.89L402,411l19,7,25.5-3L471,430l9,11,29,9s.71,2.13,2,5c3.18,7.33,9.85,19.47,17,13a73,73,0,0,0,11-13,96.41,96.41,0,0,0,6-10l6,2,17-9,17-6,25,8,31-8,17-11s18,16,23,13,16-15,16-15l25,6,37-2,14-24.08L788,387l14.14-6.53,9.46-4.37,3.4-1.57L846,368l27-22s29-20,35-18,14-7,14-7l7-23s13,3,21,0,5-11,34-21c1.36-.47,2.76-.93,4.19-1.39l.71,13.57.35,6.67.74,14.09,4,75.54c.64.93,1,1.52,1,1.52s-.57.11-.94.22l0,.21.23,4.44L997.63,455l.2,3.72.07,1.22.08,1.59.07,1.4,1,18.95a10.7,10.7,0,0,0,1-1.88,2.21,2.21,0,0,1,.09-.24c0,.2-.42,1.5-1,3.36l.45,8.55Z"/><path class="cls-5" d="M999.91,498.29a32.51,32.51,0,0,1,0,3.42l-.73,13.79L996,575.72l0,.67v.07l-3.33,63.14-2.26,43-.5,9.44-.42,8-.38,7.13-.43,8.25-17.4,6.67L639.69,849.22,485,908.5,442,925l-48.11-12.25-318.29-81-58.92-15L16.27,809l-.8-15-.94-17.92L13.4,754.64l-.58-10.94-.17-3.26L12,728.86l-.19-3.69-2-37.93-.45-8.56L9,670.07l-.83-15.81L6.79,629l-.48-9.12L4.16,579l-.08-1.44L1,518.83l-.9-17.12a32.51,32.51,0,0,1,0-3.42l1-19L2.37,455l1-19.42.07-1.3L4.69,411l.73-14C9.93,403.79,15,413,15,413s20-15,25-9,13,9,13,9H78l6-11.62h5A39.31,39.31,0,0,1,99,413l11-11.62L122,413h13l36,14s0,5,6-5l6-10,7,21h6s5-20,6-12l1,8,6,4h6l10,9s5-10,8-3,11,16,11,16,7-7,7-4c0,.74.12,2.21.3,4,.56,5.48,1.7,14,1.7,14l8-7a41.32,41.32,0,0,1,3.78-7c.92-1.16,1.73-1.54,2.06,0a10,10,0,0,1,.16,2v22.73c6-1.73,15-7.73,15-7.73l5,7.73L296,500c7-9,11-6,11-6l2,6h15c4,0,5-1,8,0s-3,12,3,1,7-2,7-1-8,12,0,1l4.08-5.61L350,490s4,8,6,5l2-3,10,3s13,9.71,18,10.85S396,512,399,500s6-14,10-8a22,22,0,0,0,9,8l10-7,10-6,3-7.27h11L465.5,484l16.5-4.27h5L507,471s6-11,9-4l3,7,12,5.73L547,469l13,10.73L577,470l10,9.73h27s9-.27,16,0S643,484,646,484s13-4.27,13-4.27h9l8,8.27,10,2,7,1,4-11.27V475l10-9s6,4,10,3a37.46,37.46,0,0,1,8-1l10,3s8-15,11-12l3,3,9-6,.7-1,4.3-6.19a42.68,42.68,0,0,0,2,6.19c1.25,2.94,3,5.51,5,4a17.24,17.24,0,0,0,3.61-4,39.24,39.24,0,0,0,3.39-6.19s6,3.19,10,5.19a3.55,3.55,0,0,1,1.26,1c1.77,2.22-.69,5.29,2.74,1,.25-.32.51-.65.76-1A86.16,86.16,0,0,0,799,442l13-1s3-4,6-9,2-5,8-6,14-2,14-2l7-1,10-11,9-9s3.9,6.83,5.92.25A1.83,1.83,0,0,0,872,403c2-7-3-18,2-7,3,6.6,4.2,9.24,4.69,10.29l.31.71a4.68,4.68,0,0,0,1.38.06c1.51-.12,4.06-.86,6.62-4.06a6.91,6.91,0,0,1,9-2s6,8,10,3l4-5,11-4,7-5.24s6,2.76,7,0,3-.24,6,0,9,11.19,11-1.28S947,373,954,376a21.26,21.26,0,0,1,10,9l7,3s12-16.15,15-13.08c2.23,2.29,6.12,7.86,8,10.56.64.93,1,1.52,1,1.52s-.57.11-.94.22-.5.2,0,.21l.23,4.44L997.63,455l.2,3.72.07,1.22.08,1.59.07,1.4,1,18.95a10.7,10.7,0,0,0,1-1.88,2.21,2.21,0,0,1,.09-.24c0,.2-.42,1.5-1,3.36l.45,8.55Z"/><path class="cls-5" d="M1000.09,479.76c0,.2-.42,1.5-1,3.36l-1.87,6.2c-1.35-2.57.5-5.26,1.81-7.44a10.7,10.7,0,0,0,1-1.88A2.21,2.21,0,0,1,1000.09,479.76Z"/><path class="cls-5" d="M999.91,501.71l-.73,13.79L996,575.72l0,.67v.07l-3.33,63.14-2.26,43-.5,9.44-.42,8-.38,7.13-.43,8.25,0,.71-.2,3.86-1.25,23.68L986.1,764l-.62,11.8v.25l-1,18-.08,1.46-.11,2.22L983.74,809l-1.43,27.08-2.6,49.36L681.29,899.35,485,908.5l-91.14,4.25L22.64,930.06l-.91-17.29-1-19.43L18.8,857.12l-.42-8-.54-10.33-1.16-22.07L16.27,809l-.8-15-.94-17.92L13.4,754.64l-.58-10.94-.17-3.26L12,728.86l-.19-3.69-2-37.93-.45-8.56L9,670.07l-.83-15.81L6.79,629l-.48-9.12L4.16,579l-.08-1.44L1,518.83C2.9,522.19,7.23,529,11,529c5,0,11-6,11-6a50.18,50.18,0,0,1,8,6c3,3,16-6,16-6l7,19,12-19,6,6.5h7L88,517l7,17,4-12,8,7.5,7-12.5,6,8h9c3,0,9,4.5,9,4.5h37L185,542l11-7,10-1,8,8s11-6,18-5,32,15,32,15h8l8-13,11,5,17,8,23,8,8-1s-6-6,0-5,15,6,15,6l7,12,23,19,13-4,9-6,9,1,10,17a16.87,16.87,0,0,0,4,7c3,3,12,7,12,7l2.25-.52L454,610l5-4,16,15,13,5,12-5s2-4,8-4,9,0,13,3a48.4,48.4,0,0,0,8.92,4.75c1.8.77,3.08,1.25,3.08,1.25h23l5.54-4.53L567,617a41.3,41.3,0,0,1,9-4c4-1,5-6,5-6v13s2,17,6,6c1-2.83,2.06-5.33,3-7.48a70.51,70.51,0,0,1,5-9.52l14,14,10-6a7.59,7.59,0,0,1,.67-1.55A19,19,0,0,1,626,609a87.57,87.57,0,0,1,12-7c4-2,8,0,10-5s5-11,5-11l18,4a179.78,179.78,0,0,0,9-16.65,8.52,8.52,0,0,1,7,0c4,1.65,9-1.35,9-1.35h11l10-8,8-13,7-3,6-4,2-8s4-1,7,0,9,1,9-6a32.55,32.55,0,0,1,3-13l9,10a36.55,36.55,0,0,0,10-17c1.18-4.32,1.58-7.4,2.07-9.31.73-2.92,1.65-3.11,5.72-.81l.21.12c7,4,16,10,16,10l16,7s12-12,16-12,23,16,23,16l11-4,8-7,8-10h11l5-1.69,8,1.69,5-6,7,6h14s4-9,8-6,12,0,12,0v-5h8c1,0,2-2,4,0s3,11,9,11h19s1.66-5.44,3.24-10.68a6.5,6.5,0,0,0,2.32,2.35l.35,6.62A32.51,32.51,0,0,1,999.91,501.71Z"/><path class="cls-6" d="M992.65,639.6l-2.26,43-.5,9.44-.42,8-.38,7.13-.43,8.25,0,.71-.2,3.86-1.25,23.68L986.1,764l-.62,11.8v.25l-.8,15.21-.15,2.81-.08,1.46-.11,2.22L983.74,809l-1.43,27.08-2.6,49.36L978.31,912l0,.77-.1,1.94-1.63,31a32.58,32.58,0,0,1-30.83,30.83l-18.12,1-3.8.2L901,978.9l-7.63.4-50.26,2.64h0l-4.07.22-46.33,2.44-7.94.41-22.58,1.19-4.63.25h0l-3.75.2-98,5.16-19.64,1-7.77.41-99.7,5.25h0l-26.65,1.4h-.22a32.51,32.51,0,0,1-3.42,0l-1,0-10.52-.55-6.37-.34L448,997.26l-4.46-.23h0l-73.28-3.86-2.92-.16-1.4-.07-49.34-2.6-7-.36h0l-14.13-.75h0l-3.69-.19h0l-59.06-3.11-29.35-1.55h0l-4-.21-44.5-2.34-81.55-4.29-7.4-.39L62.5,977l-.92-.05-6.72-.35-.57,0a32.58,32.58,0,0,1-30.83-30.83l-.5-9.5-.28-5.32,0-.83-.91-17.29-1-19.43L18.8,857.12l-.42-8-.54-10.33-1.16-22.07L16.27,809l-.8-15-.94-17.92L13.4,754.64l-.58-10.94-.17-3.26L12,728.86l-.19-3.69-2-37.93-.45-8.56L9,670.07l-.83-15.81L6.79,629l-.48-9.12L4.16,579H12l12,9H39V572h0l14,16H64l9,12,19-8v8l13-14v10l11,4h12l9-5,7,5v7h13l9-17.5,6-17.5v22l7-11v12l6,7,5-2,4,7h6l6,14,14-10v15h11l6,9,8,9h8l9-7v15h16l14,18h11l11-11,12,1,6,10h15l4-5,13,11,21-11,19,11h14l17-5,16,15,18-10,8-5,8-1,22-11,6,18,10,2,7-12v-9l13,2v9l23-4,9-8,8,1h5l7-10,14,8,11-12s6-2,7,1,8,5,8,5V639l4-10h9v18l16-1,10-17v8l15,1,10,1,13-10,2,15,7-4s18,9,19,5l1-4,10-3,7-9h12l7,11,17-4,7,4,5-3,7-13,8,11,13-6,7,8,6-8v-7l5-5,5-3v15l10-6a44.32,44.32,0,0,0,5,6c3,3,16,0,16,0l10-16,7,16h9l9-9,4,9,14-5v14l19-17,6,8,7,7h11A24.41,24.41,0,0,1,992.65,639.6Z"/><path class="cls-7" d="M984.67,791.29l-.15,2.81-.08,1.46-.11,2.22L983.74,809l-1.43,27.08-2.6,49.36-.6,11.44v0l-.8,15.1,0,.77-.1,1.94-1.63,31a32.58,32.58,0,0,1-30.83,30.83l-18.12,1-3.8.2L901,978.9l-7.63.4-50.26,2.64h0l-4.07.22-46.33,2.44-7.94.41-22.58,1.19-4.63.25h0l-3.75.2-98,5.16-19.64,1-7.77.41-99.7,5.25h0l-26.65,1.4h-.22a32.51,32.51,0,0,1-3.42,0l-1,0-10.52-.55-6.37-.34L448,997.26l-4.46-.23h0l-73.28-3.86-2.92-.16-1.4-.07-49.34-2.6-7-.36h0l-14.13-.75h0l-3.69-.19h0l-59.06-3.11-29.35-1.55h0l-4-.21-44.5-2.34-81.55-4.29-7.4-.39L62.5,977l-.92-.05-6.72-.35-.57,0a32.58,32.58,0,0,1-30.83-30.83l-.5-9.5-.28-5.32,0-.83-.91-17.29-1-19.43-1.12-21.16v0l-.79-15-.42-8-.54-10.33-1.16-22.07L16.27,809l-.8-15s113.62-8.23,249.56,1.58h.05c59.47,4.29,123.21,12,183.57,25.42,96.27,21.36,206.59,6,302.65-11.79h.08C853.21,790.4,939,769,975,786A102.63,102.63,0,0,1,984.67,791.29Z"/><path class="cls-8" d="M265,795.58C25.41,794.18,19.7,870,19.59,872.14l-.79-15-.42-8-.54-10.33-1.16-22.07L16.27,809l-.8-15S129.09,785.77,265,795.58Z"/><path class="cls-8" d="M984.67,791.29l-.15,2.81-.08,1.46-.11,2.22L983.74,809l-1.43,27.08-2.6,49.36-.6,11.44C972,844,964.58,792.45,751.38,809.2,853.21,790.4,939,769,975,786A102.63,102.63,0,0,1,984.67,791.29Z"/></g></g></g></svg>