<svg xmlns="http://www.w3.org/2000/svg" xmlns:xlink="http://www.w3.org/1999/xlink" viewBox="0 0 1000 1000"><defs><style>.cls-1{fill:none;}.cls-2{fill:#f4730d;}.cls-3{fill:url(#linear-gradient);}.cls-4{fill:#fa990e;}.cls-5{opacity:0.1;}.cls-6{fill:#f33e0f;}.cls-7{fill:#651516;}.cls-8{fill:#f8870d;}.cls-9{fill:#f5cf0a;}</style><linearGradient id="linear-gradient" x1="624.65" y1="-416.08" x2="474.08" y2="611.68" gradientUnits="userSpaceOnUse"><stop offset="0" stop-color="#22b573"/><stop offset="1" stop-color="#e9ffb6"/></linearGradient></defs><g id="Layer_2" data-name="Layer 2"><g id="OutPut"><rect id="BG" class="cls-1" width="1000" height="1000"/></g><g id="Bachground"><g id="_3" data-name="3"><g id="_3-2" data-name="3"><path class="cls-2" d="M528.58,998.5l-26.65,1.4h-.22a32.51,32.51,0,0,1-3.42,0l-1,0-10.52-.55-6.37-.34L448,997.26l-4.46-.23h0l-73.28-3.86-2.92-.16-1.4-.07-49.34-2.6-7-.36h0l-14.13-.75h0l-3.69-.19h0l-59.06-3.11-29.35-1.55h0l-4-.21-44.5-2.34-81.55-4.29-7.4-.39L62.5,977l-.92-.05-6.72-.35-.57,0a32.58,32.58,0,0,1-30.83-30.83l-.5-9.5-.28-5.32-.95-18.12-1-19.43H361l6.55,4.11L419,929.74l13.81,8.66Z"/><path class="cls-3" d="M999.91,501.71l-.73,13.79L996,575.72l0,.67-6.09,115.67-.42,8-.38,7.13-.47,9-1.45,27.54H12.82l-.17-3.26L12,728.86l-.19-3.69-2-37.93L9,670.07l-.83-15.81L6.79,629,.09,501.71a32.51,32.51,0,0,1,0-3.42l1-19,2.3-43.68.07-1.3L6.26,381l2.17-41.22L16.1,194.13,23.46,54.29A32.58,32.58,0,0,1,54.29,23.46l136.59-7.19,48-2.53h0L496.2.2l2.09-.11a32.51,32.51,0,0,1,3.42,0l2.35.12h0L945.71,23.46a32.58,32.58,0,0,1,30.83,30.83l7.38,140.29,5,94.6L990,309.94l4.32,81.93,3.52,66.85.22,4.21,1.86,35.36A32.51,32.51,0,0,1,999.91,501.71Z"/><path class="cls-4" d="M989.89,692.06l-.42,8-.38,7.13-.47,9-1.45,27.54L986.1,764l-.62,11.8v.25l-1,18-.08,1.46-.11,2.22L983.74,809l-1.43,27.08-4,75.92,0,.77a33.6,33.6,0,0,1-15.69,4.81l-18.8,1-3.95.2L916.13,920l-7.92.42-52.16,2.74h0l-4.23.22L803.73,926l-8.24.42-23.44,1.24-4.8.26h0l-105.65,5.56-20.38,1.07-8.06.42L502,941.83h-.23a34.83,34.83,0,0,1-3.54,0l-1-.06-10.92-.57-6.61-.35L446,939.09l-4.63-.24h0l-8.53-.45-67.52-3.56-3-.16-1.46-.08-51.21-2.7-7.22-.37h0l-14.66-.78h0l-3.82-.2h0l-61.29-3.22-10.94-.58-19.52-1h0l-4.15-.22-30.72-1.62h0L49.42,918.21,45.94,918l-1,0-7-.37-.59,0c-.47,0-.94-.06-1.4-.1l-.47-.05c-.37,0-.73-.08-1.1-.14l-.47-.07c-.44-.06-.88-.14-1.32-.23s-.84-.17-1.25-.27l-1-.26-.94-.26c-.45-.13-.89-.28-1.32-.43s-1-.34-1.44-.53c-1-.38-1.9-.81-2.82-1.28-.43-.21-.85-.44-1.26-.67l-.88-.52-1-19.43L18.8,857.12l-.42-8L16.27,809l-.8-15-.94-17.92L13.4,754.64l-.58-10.94-.17-3.26L12,728.86l-.19-3.69-2-37.93L9,670.07l-.83-15.81c38.61-6.22,96.05-14.47,166.15-21.52h0q11.72-1.17,23.89-2.3h0c30.35-2.81,62.78-5.35,96.84-7.37h0q9.63-.59,19.41-1.1h0c3.41-.18,6.82-.36,10.26-.52q11-.54,22.15-1h0q22.77-.93,46.23-1.52h0q29-.7,59-.78h0c65-.13,132.92,2.23,201.5,8.26h0q24.4,2.16,48.89,4.94h0q13.28,1.51,26.53,3.23h0l.34,0,6.84.89c5,.68,10,1.36,15,2.09h0c2.44.34,4.89.69,7.32,1.06h0c1.18.16,2.35.34,3.51.51h0c37,5.52,73.81,12.27,110.13,20.45,6.47,1.45,12.9,3,19.34,4.51h0l.29.07C925.14,672.19,957.9,681.43,989.89,692.06Z"/><path class="cls-2" d="M274.27,711.87s-5.19-9.69,11.93-17.47c-25.95,3.11-48.26,7.47-58.12-7.16-3.84,11.22-24.43,9.17-24.43,9.17l5.23,22.9,42.55,9.86Z"/><path class="cls-2" d="M661.59,933.43l-20.38,1.07-8.06.42L502,941.83h-.23a34.83,34.83,0,0,1-3.54,0l-1-.06-10.92-.57-6.61-.35L446,939.09l-4.63-.24h0l-8.53-.45-67.52-3.56-3-.16-1.46-.08-51.21-2.7-7.22-.37h0l-14.66-.78h0l-3.82-.2h0l-61.29-3.22-10.94-.58-19.52-1h0l-4.15-.22-30.72-1.62h0L49.42,918.21,45.94,918l-1,0-7-.37-.59,0c-.47,0-.94-.06-1.4-.1l-.47-.05c-.37,0-.73-.08-1.1-.14l-.47-.07c-.44-.06-.88-.14-1.32-.23s-.84-.17-1.25-.27l-1-.26-.94-.26c-.45-.13-.89-.28-1.32-.43s-1-.34-1.44-.53c-1-.38-1.9-.81-2.82-1.28-.43-.21-.85-.44-1.26-.67l-.88-.52-1-19.43L18.8,857.12l-.42-8L16.27,809l-.8-15-.94-17.92L13.4,754.64l-.58-10.94-.17-3.26L12,728.86l-.19-3.69-2-37.93c4.65,0,9.67,0,15,.08l3,0,7.48.1,2,0,3.08,0,2.28,0,9.07.18,4.28.09q9.7.24,20.24.58l3.16.11,6.41.23,4.54.17c9,.36,18.35.78,28,1.29l2.83.15,8.61.48,5.83.34,9.36.58,5.48.37,6.21.42,5.92.43c13.3,1,27,2.11,41,3.42l.27,0h.14l.21,0h.17l5.91.58h0c20.87,2,42.31,4.49,64,7.44,62,8.42,125.78,20.87,183.27,39.2q10.23,3.27,20.19,6.78c1.21.42,2.43.86,3.63,1.3l2.05.74c1.69.61,3.38,1.23,5,1.86q7,2.61,13.8,5.36c1.14.46,2.28.92,3.41,1.4,2,.83,4.09,1.69,6.12,2.56.71.3,1.43.6,2.13.91l2.45,1.07c1.48.64,2.94,1.29,4.4,2l4.55,2.08,3.79,1.78c.37.16.73.33,1.09.51l4.06,2h0l2.1,1,3.32,1.67,1.94,1,2.6,1.35,2.19,1.16Q551.82,783,557,786h0l.67.39q5.9,3.38,11.52,6.92c1.26.79,2.5,1.59,3.74,2.39q3.93,2.54,7.72,5.18c1.07.74,2.14,1.49,3.19,2.24l.65.46c.95.69,1.9,1.37,2.83,2.06,2.2,1.62,4.36,3.26,6.47,4.94.54.41,1.06.82,1.58,1.25q1.24,1,2.46,2c25,20.51,44,44.34,54.57,72A141.83,141.83,0,0,1,659.83,913,122.64,122.64,0,0,1,661.59,933.43Z"/><path class="cls-5" d="M652.38,885.75c-80.16,21.23-174.78,42-233.38,44-19.6.65-35.17-.79-44.82-5-11.25-4.93-14.46-13.65-6.63-27.26,3.73-6.51,10-14.13,19.08-23,20.3-19.73,25.72-36.85,20.1-51.7-.24-.63-.49-1.25-.77-1.87a39.46,39.46,0,0,0-4.52-7.62c-26.62-35.89-121.53-57.11-218.16-69.58C121,735.65,57.94,731.23,12,728.86l-.19-3.69-2-37.93c4.65,0,9.67,0,15,.08l3,0,7.48.1,2,0,3.08,0,2.28,0,9.07.18,4.28.09q9.7.24,20.24.58l3.16.11,6.41.23,4.54.17c9,.36,18.35.78,28,1.29l2.83.15,8.61.48,5.83.34,9.36.58,5.48.37,6.21.42,5.92.43c13.3,1,27,2.11,41,3.42l.27,0h.14l.21,0h.17l5.91.58h0c20.87,2,42.31,4.49,64,7.44,62,8.42,125.78,20.87,183.27,39.2q10.23,3.27,20.19,6.78c1.21.42,2.43.86,3.63,1.3l2.05.74c1.69.61,3.38,1.23,5,1.86q7,2.61,13.8,5.36c1.14.46,2.28.92,3.41,1.4,2,.83,4.09,1.69,6.12,2.56.71.3,1.43.6,2.13.91l2.45,1.07c1.48.64,2.94,1.29,4.4,2l4.55,2.08,3.79,1.78c.37.16.73.33,1.09.51l4.06,2h0l2.1,1,3.32,1.67,1.94,1,2.6,1.35,2.19,1.16Q551.82,783,557,786h0l.67.39q5.9,3.38,11.52,6.92c1.26.79,2.5,1.59,3.74,2.39q3.93,2.54,7.72,5.18c1.07.74,2.14,1.49,3.19,2.24l.65.46c.95.69,1.9,1.37,2.83,2.06,2.2,1.62,4.36,3.26,6.47,4.94.54.41,1.06.82,1.58,1.25q1.24,1,2.46,2C622.83,834.27,641.79,858.1,652.38,885.75Z"/><path class="cls-6" d="M728,737s-15.2-10,0-25.17c-19.4,20.76-38.08,23.53-38.08,0,0,0-4.15,24.22-24.22,17.3,11.95,15,15.22,9.67,0,16.94s55.35,29.42,55.35,29.42Z"/><path class="cls-6" d="M988.62,716.16l-1.45,27.54L986.1,764l-.62,11.8v.25l-1,18-.08,1.46-.11,2.22L983.74,809l-1.43,27.08-4,75.92,0,.77-.1,1.94-1.63,31a32.58,32.58,0,0,1-30.83,30.83l-18.12,1-3.8.2L901,978.9l-7.63.4-50.26,2.64h0l-4.07.22-46.33,2.44-7.94.41-22.58,1.19-4.63.25h0L655.7,991.81l-19.64,1-7.77.41-99.7,5.25h0l-26.65,1.4h-.22a32.51,32.51,0,0,1-3.42,0l-1,0-10.52-.55-6.37-.34L448,997.26l-4.46-.23h0l-73.28-3.86-2.92-.16-1.4-.07-49.34-2.6-7-.36h0l-14.13-.75h0l-3.69-.19h0l-59.06-3.11-29.35-1.55h0l-4-.21-44.5-2.34-81.55-4.29q41.16-28.86,83.94-53.66h0q27.6-16.07,55.68-30.54,42.5-21.95,85.76-40.46,51.19-22,102.79-39.6,43.08-14.81,85.94-26.81,23.56-6.65,46.94-12.5h0c44.55-11.18,88.46-20.32,131.17-27.75q4.49-.79,8.94-1.54l5.84-1c5.18-.86,10.35-1.7,15.48-2.51q15.88-2.51,31.5-4.71,18.86-2.68,37.27-4.93A2133.26,2133.26,0,0,1,988.62,716.16Z"/><path class="cls-4" d="M421.12,524.19s-9.86,40.48-17.64,47.22c10.81-4,13-6,13-6s-14.1,26.81-22.23,31.48c11.16-3.12,17-6.66,17-6.66s-9.16,26.46-23,31.31,65.64-2.25,65.64-2.25-20.67-13-20-22.66c12.2,8,22.4,9.17,22.4,9.17S430.46,586.46,434.18,566c10.29,13.41,14.62,11.85,14.62,11.85S421.38,549,421.12,524.19Z"/><path class="cls-4" d="M743.47,594.77s-5.43,22.28-9.71,26c6-2.19,7.14-3.29,7.14-3.29s-7.76,14.77-12.24,17.34a41.26,41.26,0,0,0,9.38-3.67s-5,14.57-12.66,17.24,36.14-1.24,36.14-1.24-11.38-7.14-11-12.47a31.86,31.86,0,0,0,12.34,5s-14.24-10.66-12.2-22c5.67,7.38,8.05,6.52,8.05,6.52S743.62,608.43,743.47,594.77Z"/><path class="cls-4" d="M646.34,631.09s8-2.08,17.22-17.12c-17.22,6.74-17.22,4.16-17.22,4.16s27-21.29,28-34.26c-8.3,6.74-20.24,14.53-20.24,14.53s30.62-48.26,32.18-61.75c6.74,31.13,12.45,56,23.87,61.23-24.91-9.86-21.28-14-21.28-14S693,615,710.17,618.13c-25.43,0-22.32-5.2-22.32-5.2s14,22.83,28.54,28-38.92,11.94-38.92,11.94Z"/><path class="cls-4" d="M323.15,620.35s3.37-.88,7.28-7.24c-7.28,2.85-7.28,1.76-7.28,1.76s11.4-9,11.84-14.48c-3.51,2.85-8.55,6.14-8.55,6.14s12.94-20.4,13.6-26.1c2.85,13.16,5.26,23.69,10.09,25.88-10.53-4.17-9-5.92-9-5.92s1.75,13.17,9,14.48c-10.75,0-9.43-2.2-9.43-2.2s5.92,9.66,12.06,11.85-16.45,5.05-16.45,5.05Z"/><path class="cls-4" d="M318.18,630.68s-3.37-.88-7.28-7.24c7.28,2.85,7.28,1.76,7.28,1.76s-11.4-9-11.84-14.48c3.51,2.85,8.55,6.14,8.55,6.14s-12.94-20.4-13.6-26.11c-2.85,13.16-5.26,23.69-10.09,25.89,10.53-4.17,9-5.92,9-5.92s-1.76,13.17-9,14.48c10.75,0,9.43-2.2,9.43-2.2s-5.92,9.65-12.06,11.85,16.45,5,16.45,5Z"/><path class="cls-7" d="M162.31,693.81s28.15-57.67.19-87.25S114,489.31,114,489.31s31,101.92,61.22,98.58c-7.79-50.51-14.54-188.73-14.54-188.73l22.66,151.42s49.66-25.09,39.45-79c6.24,59.7-33.2,93-24.17,163s20.17,84.22,20.17,84.22l-57.48-4.73Z"/><path class="cls-8" d="M321.87,476.53a28.94,28.94,0,0,1,.51,3.25,29.57,29.57,0,0,1-26.51,32.35,29.06,29.06,0,0,1-9.44-.58c-.57-.12-1.13-.27-1.68-.43a29.57,29.57,0,0,1-58.68,0,29.44,29.44,0,0,1-7.21,7.88,28,28,0,0,1-5.22,3.18,29.28,29.28,0,0,1-9.74,2.7,29.8,29.8,0,0,1-4.52.11,28.41,28.41,0,0,1,.51,3.24,29.48,29.48,0,0,1-1.06,11.29h0a29.29,29.29,0,0,1-6,10.91c-.52.61-1.07,1.2-1.64,1.76a29.41,29.41,0,0,1-17.86,8.38c-.49,0-1,.09-1.46.11a29.46,29.46,0,0,1-22.08-8.35,29.24,29.24,0,0,1-13.25,8.37,30.23,30.23,0,0,1-5.68,1.13,29.43,29.43,0,0,1-22.58-7.35,29.58,29.58,0,0,1-54,6.3c-.85.16-1.72.29-2.59.38a29.59,29.59,0,0,1-29.66-42.1,29.58,29.58,0,0,1-.58-55.3A29.59,29.59,0,0,1,3.39,435.58l.07-1.3A29.57,29.57,0,0,1,30,407.08a29.19,29.19,0,0,1,9.51.6,29.58,29.58,0,0,1,24.82-19.14,4.73,4.73,0,0,1,.53,0,29.59,29.59,0,0,1,26.54-26.71,28,28,0,0,1,4.57-.1,29.56,29.56,0,0,1,43-18.49,29.51,29.51,0,0,1,14.42-12.6,29,29,0,0,1,8.26-2,29.38,29.38,0,0,1,20.75,5.84,29.52,29.52,0,0,1,42.37-1.91A29.55,29.55,0,0,1,259.66,335h0A29.49,29.49,0,0,1,270,354.63c0,.18,0,.35,0,.53a27.46,27.46,0,0,1,0,5,28.16,28.16,0,0,1,4.06,1.28h0a29.53,29.53,0,0,1,17.65,19.66c.14,0,.28,0,.43-.06a29.58,29.58,0,0,1,28.16,44.85,29.57,29.57,0,0,1,1.56,50.59Z"/><path class="cls-9" d="M141.07,501.73a26.47,26.47,0,0,1-38,26.38,26.46,26.46,0,0,1-49.88-.73,26.45,26.45,0,0,1-5.33-52.2A26.47,26.47,0,1,1,86.62,448a26.72,26.72,0,0,1,5.5-1.15,27.91,27.91,0,0,1,5.25,0,26.47,26.47,0,1,1,34.49,37.32A26.39,26.39,0,0,1,141.07,501.73Z"/><path class="cls-9" d="M276.38,373.71A26.46,26.46,0,1,1,247,416.3l-.26-.28a26.77,26.77,0,0,1-3,3.34A26.46,26.46,0,0,1,201.12,390a26.46,26.46,0,0,1,6.78-52.44,26.46,26.46,0,1,1,51.87,10.27,26.47,26.47,0,0,1,16.61,25.88Z"/><path class="cls-9" d="M152,397a20.1,20.1,0,0,1-18.13-8,20.72,20.72,0,0,1-2.87.49A20.07,20.07,0,0,1,116,384.85,20.17,20.17,0,1,1,93.72,356a19.25,19.25,0,0,1-.62-3.35,20.16,20.16,0,0,1,33.56-17,20.17,20.17,0,0,1,32.83,23.41A20.17,20.17,0,0,1,152,397Z"/><path class="cls-9" d="M308.37,483.05a34.07,34.07,0,0,1-21.69,25.66,34.6,34.6,0,0,1-.59,4.91,33.92,33.92,0,0,1-14.64,22.06,34.2,34.2,0,1,1-57.57,22.49,33.06,33.06,0,0,1-5.73-.59,34.17,34.17,0,0,1-11.53-62.71,34.18,34.18,0,0,1,53.78-42.18,34.19,34.19,0,0,1,58,30.36Z"/><path class="cls-7" d="M892.89,668.81s-9.89-29.94,5.68-42.5,31.36-53.87,31.36-53.87S908.11,620,893.6,616.38c7.13-24.07,19.56-90.91,19.56-90.91l-21,72.21s-22.51-15.5-14-41.07c-7,28.65,10,47.46,1,81s-15.39,39.66-15.39,39.66l28.29,1.5Z"/><path class="cls-8" d="M829.59,552.47a13.24,13.24,0,0,0-.47,1.55,14.53,14.53,0,0,0,10.77,17.5,14.34,14.34,0,0,0,5.48.24,14.53,14.53,0,0,0,28.57,3.9,14.46,14.46,0,0,0,9.88,8.16,13.86,13.86,0,0,0,2.19.35,15.44,15.44,0,0,0-.46,1.55,14.53,14.53,0,0,0,22.78,15,14.5,14.5,0,0,0,20.06,3.79,14.54,14.54,0,0,0,25.87,6.64,12.41,12.41,0,0,0,1.23.35A14.52,14.52,0,0,0,972.71,593a14.53,14.53,0,0,0,3.94-26.88,14.53,14.53,0,0,0-5.06-28.51,14.52,14.52,0,0,0-10.81-11l-.26-.06a14.53,14.53,0,0,0-11.15-14.76,15.74,15.74,0,0,0-2.22-.35,14.54,14.54,0,0,0-19.73-11.85,14.52,14.52,0,0,0-20.56-7.15,14.52,14.52,0,0,0-20.5-3.73,14.53,14.53,0,0,0-23.45,7.79,14.86,14.86,0,0,0-.38,2.71A14.51,14.51,0,0,0,850.58,508l-.21-.06a14.54,14.54,0,0,0-16.68,20,14.53,14.53,0,0,0-4.1,24.53Z"/><path class="cls-9" d="M968.24,581.4a13,13,0,0,1-14,9.91,13,13,0,0,1-24.33-2.95,13,13,0,0,1-11.09-23.29A13,13,0,1,1,938,549.19a13.36,13.36,0,0,1,2.55.35,11.79,11.79,0,0,1,2.6.92,13,13,0,1,1,17.06,15.77A13,13,0,0,1,968.24,581.4Z"/><path class="cls-9" d="M897,528.47a13,13,0,0,1-15.66,9.63,14.21,14.21,0,0,1-2.09-.69c0,.07,0,.12,0,.18a13,13,0,1,1-23-11,13,13,0,0,1,.73-15.09,13,13,0,1,1,19.6-17.06,13,13,0,0,1,15.72,20.67A13,13,0,0,1,897,528.47Z"/><path class="cls-9" d="M954.86,520.5a9.92,9.92,0,0,1-19,1,9.88,9.88,0,0,1-7.57,1.26,10.42,10.42,0,0,1-1.37-.44,9.9,9.9,0,1,1-10.5-16.23,9.8,9.8,0,0,1-.79-6.73,9.92,9.92,0,0,1,18.32-2.5,9.9,9.9,0,0,1,15.2,10.48,11.94,11.94,0,0,1-.51,1.6A9.9,9.9,0,0,1,954.86,520.5Z"/><path class="cls-5" d="M891.93,664.19l-.28,0h0q-10.14-1.2-20.18-2.33Q802.12,654,737.11,649H737l-11-.84h0L710.49,647h0q-23.13-1.65-45.67-3h0C477.56,633,320.92,637.7,200.41,647.36h0q-13.22,1.07-25.84,2.2C106,655.71,50.42,663.31,9,670.07l-.83-15.81c38.61-6.22,96.05-14.47,166.15-21.52h0q11.72-1.17,23.89-2.3h0c30.35-2.81,62.78-5.35,96.84-7.37h0q9.63-.59,19.41-1.1h0c3.41-.18,6.82-.36,10.26-.52q11-.54,22.15-1h0q22.77-.93,46.23-1.52h0q29-.7,59-.78h0c65-.13,132.92,2.23,201.5,8.26h0q24.4,2.16,48.89,4.94h0q13.28,1.51,26.53,3.23h0l.34,0,6.84.89c5,.68,10,1.36,15,2.09h0c2.44.34,4.89.69,7.32,1.06h0c1.18.16,2.35.34,3.51.51h0c37,5.52,73.81,12.27,110.13,20.45,6.47,1.45,12.9,3,19.34,4.51h0Z"/><path class="cls-5" d="M988.62,716.16l-1.45,27.54L986.1,764l-.62,11.8c-75.34-6.87-167-11.27-263.23-6.87q-8.94.39-17.94.91A1365.19,1365.19,0,0,0,557,786h0c-51.2,8.56-101.84,20.53-150.24,36.82-53.23,17.9-103.73,41-149.27,70.57a514,514,0,0,0-45.85,33.41,459.42,459.42,0,0,0-56.8,55.08l-81.55-4.29q41.16-28.86,83.94-53.66h0q27.6-16.07,55.68-30.54,42.5-21.95,85.76-40.46,51.19-22,102.79-39.6,43.08-14.81,85.94-26.81,23.56-6.65,46.94-12.5h0c44.55-11.18,88.46-20.32,131.17-27.75q4.49-.79,8.94-1.54l5.84-1c5.18-.86,10.35-1.7,15.48-2.51q15.88-2.51,31.5-4.71,18.86-2.68,37.27-4.93A2133.26,2133.26,0,0,1,988.62,716.16Z"/></g></g></g></g></svg>