<svg xmlns="http://www.w3.org/2000/svg" xmlns:xlink="http://www.w3.org/1999/xlink" viewBox="0 0 1000 1000"><defs><style>.cls-1{fill:none;}.cls-2{fill:url(#linear-gradient);}.cls-3{fill:url(#linear-gradient-2);}.cls-4{fill:url(#linear-gradient-3);}.cls-5{fill:url(#linear-gradient-4);}.cls-6{fill:url(#linear-gradient-5);}.cls-7{fill:url(#linear-gradient-6);}.cls-8{fill:#686868;}.cls-9{fill:#9b9b9b;}</style><linearGradient id="linear-gradient" x1="506.68" y1="76.72" x2="493.28" y2="925.8" gradientUnits="userSpaceOnUse"><stop offset="0" stop-color="#fff"/><stop offset="1" stop-color="#ff7d15"/></linearGradient><linearGradient id="linear-gradient-2" x1="502.99" y1="950.01" x2="502.99" y2="543.1" gradientUnits="userSpaceOnUse"><stop offset="0"/><stop offset="1" stop-color="#333"/></linearGradient><linearGradient id="linear-gradient-3" x1="500.01" y1="318.62" x2="500.01" y2="68.96" gradientUnits="userSpaceOnUse"><stop offset="0" stop-color="#fff"/><stop offset="1" stop-color="#fff" stop-opacity="0"/></linearGradient><linearGradient id="linear-gradient-4" x1="813.29" y1="337.59" x2="994.31" y2="337.59" xlink:href="#linear-gradient-3"/><linearGradient id="linear-gradient-5" x1="521.46" y1="405.39" x2="674.18" y2="405.39" xlink:href="#linear-gradient-3"/><linearGradient id="linear-gradient-6" x1="1.09" y1="408.68" x2="115.17" y2="408.68" xlink:href="#linear-gradient-3"/></defs><g id="Layer_2" data-name="Layer 2"><g id="OutPut"><rect id="BG" class="cls-1" width="1000" height="1000"/></g><g id="Bachground"><g id="_2" data-name="2"><path class="cls-2" d="M999.91,501.71l-.73,13.79L996,575.72l0,.67-6.51,123.68-.38,7.13-.74,14.13-.09,1.71-.2,3.69-1.72,32.68-.31,5.92-.15,2.94-.54,10.28,0,.69-.09,1.8h0l-.69,13.05-.08,1.4v.06l-.11,2.22-2,38.38-1,19.18-3,56.66-.14,2.71-.2,3.72-1.43,27.28c0,.53-.07,1.06-.12,1.58s-.1.88-.17,1.31a3.85,3.85,0,0,1-.07.49c0,.35-.11.7-.18,1s-.17.88-.28,1.32c-.06.25-.12.5-.19.75a8.48,8.48,0,0,1-.22.83c-.14.49-.3,1-.46,1.47-.25.74-.53,1.46-.83,2.17s-.62,1.41-1,2.09c-.18.38-.38.75-.59,1.11s-.4.69-.61,1-.34.56-.52.83c-.35.56-.73,1.11-1.13,1.64l-.51.67-.21.27q-.36.47-.75.9c-.22.26-.45.52-.68.77s-.67.72-1,1.06-.7.68-1.06,1-.73.65-1.1,1c-.75.62-1.52,1.22-2.33,1.77q-.6.42-1.23.81c-.41.26-.83.51-1.26.76s-.86.47-1.3.69-.88.44-1.33.65-1,.44-1.53.64l-1.24.46c-.45.15-.91.3-1.37.43a31,31,0,0,1-3,.75c-.49.09-1,.18-1.48.25s-1,.14-1.53.19-1,.09-1.55.12l-18.12,1-3.8.2L901,978.9l-7.63.4-15.68.82-19.49,1-15.09.79h0l-4.07.22-38.93,2.05-7.4.39-7.94.41-22.58,1.19-4.63.25h0l-121.43,6.39-7.77.41L501.93,999.9h-.22c-.73,0-1.45.05-2.18,0h-.59l-.65,0-1,0-10.52-.55-6.37-.34L448,997.26l-4.46-.23h0l-73.28-3.86-1.92-.1-2.4-.13-49.34-2.6-7-.36h0l-14.13-.75h0l-3.69-.19h0l-55.07-2.9-4-.21-29.35-1.55h0l-4-.21-20.23-1.06h0l-113.21-6L62.5,977l-.92-.05-6.72-.35-.57,0c-.52,0-1-.07-1.55-.12s-1-.11-1.53-.19-1-.16-1.51-.26-.88-.18-1.32-.29l-.79-.2-.8-.22-.18-.06c-.4-.11-.8-.24-1.19-.37l-.41-.15-1-.36c-.43-.17-.85-.35-1.26-.53-.23-.1-.47-.21-.7-.33l-.77-.37a2.49,2.49,0,0,1-.28-.15c-.3-.15-.59-.3-.87-.47s-.35-.19-.52-.29c-.33-.18-.65-.38-1-.58s-.83-.53-1.23-.81-.7-.5-1.05-.76l-.28-.21c-.34-.26-.67-.53-1-.8s-.74-.64-1.1-1-.71-.66-1.06-1-.68-.7-1-1.06-.52-.57-.76-.87a5.07,5.07,0,0,1-.37-.44c-.18-.2-.34-.41-.5-.62a4.4,4.4,0,0,1-.38-.5c-.19-.24-.37-.49-.54-.74a3.13,3.13,0,0,1-.29-.42c-.2-.28-.39-.56-.56-.84a3,3,0,0,1-.21-.33c-.16-.25-.31-.5-.46-.76s-.23-.38-.34-.58-.36-.65-.52-1a.76.76,0,0,1-.09-.18q-.16-.3-.3-.6c-.16-.32-.31-.65-.45-1s-.36-.83-.53-1.26c0-.12-.1-.25-.14-.38-.13-.34-.26-.69-.38-1a.07.07,0,0,1,0-.05q-.23-.66-.42-1.35c-.14-.46-.26-.93-.38-1.41a31.17,31.17,0,0,1-.78-4.86h0c0-.35-.06-.7-.08-1.06l-.5-9.5-.28-5.32L20.1,881.77l-1.3-24.65-.42-8-.54-10.33,0-.34-.13-2.54-.06-1.09v-.22l-.34-6.53-.45-8.57-.15-2.78L16.27,809l-.11-2-.42-7.79-.15-2.82-.09-1.82,0-.52-.68-13-.26-4.91L13.4,754.64l-.58-10.94-.17-3.26-.09-1.7-.71-13.57-.95-18-.16-3.1L10.42,698,9,670.07l0-.91-1.62-30.9-.37-6.91-.12-2.24V629L.09,501.71a32.51,32.51,0,0,1,0-3.42l1-19L6.26,381l2.17-41.22L16.1,194.13,23.46,54.29A32.58,32.58,0,0,1,54.29,23.46l136.59-7.19,48-2.53h0L496.2.2l2.09-.11a32.51,32.51,0,0,1,3.42,0l2.35.12h0L945.71,23.46a32.58,32.58,0,0,1,30.83,30.83l7.38,140.29,5,94.6L990,309.94l4.32,81.93,3.52,66.85.22,4.21,1.86,35.36A32.51,32.51,0,0,1,999.91,501.71Z"/><path class="cls-3" d="M985.88,768.27l-.54,10.28,0,.69-.09,1.8h0l-.69,13.05-.08,1.4v.06l-.11,2.22-2,38.38-1,19.18-3,56.66-.14,2.71-.2,3.72-1.43,27.28c0,.53-.07,1.06-.12,1.58s-.1.88-.17,1.31a3.85,3.85,0,0,1-.07.49c0,.35-.11.7-.18,1s-.17.88-.28,1.32c-.06.25-.12.5-.19.75a8.48,8.48,0,0,1-.22.83c-.14.49-.3,1-.46,1.47-.25.74-.53,1.46-.83,2.17s-.62,1.41-1,2.09c-.18.38-.38.75-.59,1.11s-.4.69-.61,1-.34.56-.52.83c-.35.56-.73,1.11-1.13,1.64l-.51.67-.21.27q-.36.47-.75.9c-.22.26-.45.52-.68.77s-.67.72-1,1.06-.7.68-1.06,1-.73.65-1.1,1c-.75.62-1.52,1.22-2.33,1.77q-.6.42-1.23.81c-.41.26-.83.51-1.26.76s-.86.47-1.3.69-.88.44-1.33.65-1,.44-1.53.64l-1.24.46c-.45.15-.91.3-1.37.43a31,31,0,0,1-3,.75c-.49.09-1,.18-1.48.25s-1,.14-1.53.19-1,.09-1.55.12l-18.12,1-3.8.2L901,978.9l-7.63.4-15.68.82-19.49,1-15.09.79h0l-4.07.22-38.93,2.05-7.4.39-7.94.41-22.58,1.19-4.63.25h0l-121.43,6.39-7.77.41L501.93,999.9h-.22c-.73,0-1.45.05-2.18,0h-.59l-.65,0-1,0-10.52-.55-6.37-.34L448,997.26l-4.46-.23h0l-73.28-3.86-1.92-.1-2.4-.13-49.34-2.6-7-.36h0l-14.13-.75h0l-3.69-.19h0l-55.07-2.9-4-.21-29.35-1.55h0l-4-.21-20.23-1.06h0l-113.21-6L62.5,977l-.92-.05-6.72-.35-.57,0c-.52,0-1-.07-1.55-.12s-1-.11-1.53-.19-1-.16-1.51-.26-.88-.18-1.32-.29l-.79-.2-.8-.22-.18-.06c-.4-.11-.8-.24-1.19-.37l-.41-.15-1-.36c-.43-.17-.85-.35-1.26-.53-.23-.1-.47-.21-.7-.33l-.77-.37a2.49,2.49,0,0,1-.28-.15c-.3-.15-.59-.3-.87-.47s-.35-.19-.52-.29c-.33-.18-.65-.38-1-.58s-.83-.53-1.23-.81-.7-.5-1.05-.76l-.28-.21c-.34-.26-.67-.53-1-.8s-.74-.64-1.1-1-.71-.66-1.06-1-.68-.7-1-1.06-.52-.57-.76-.87a5.07,5.07,0,0,1-.37-.44c-.18-.2-.34-.41-.5-.62a4.4,4.4,0,0,1-.38-.5c-.19-.24-.37-.49-.54-.74a3.13,3.13,0,0,1-.29-.42c-.2-.28-.39-.56-.56-.84a3,3,0,0,1-.21-.33c-.16-.25-.31-.5-.46-.76s-.23-.38-.34-.58-.36-.65-.52-1a.76.76,0,0,1-.09-.18q-.16-.3-.3-.6c-.16-.32-.31-.65-.45-1s-.36-.83-.53-1.26c0-.12-.1-.25-.14-.38-.13-.34-.26-.69-.38-1a.07.07,0,0,1,0-.05q-.23-.66-.42-1.35c-.14-.46-.26-.93-.38-1.41a31.17,31.17,0,0,1-.78-4.86h0c0-.35-.06-.7-.08-1.06l-.5-9.5-.28-5.32L20.1,881.77H109V768.27h77v15h10v133h17V760.77h11v-104l36-71h37v30h14v18h19v127h10v155.5h54V615.77h16v-35h63v65h27v115h87v155.5h1.61c.76-14.16,1.84-31.83,3.29-51.39,3.29-44.45,8.51-98.61,16.45-143.33,8.32-46.88,19.63-83.38,34.84-87.4a10.29,10.29,0,0,1,2.81-.38c5.93,0,11.34,4.84,16.27,13.32,4.32,7.43,8.28,17.67,11.88,29.9a0,0,0,0,1,0,0c16.1,54.58,25.35,148.88,30,211.29.77,10.3,1.41,19.73,1.93,28h1.49l-.32-24.88L703,567.77h18v12h7v-60h18S799.06,814,816.51,916.27H861v-118h69v-30Z"/><path class="cls-4" d="M983.92,194.58a108.88,108.88,0,0,1-136.08-83.33,108.91,108.91,0,0,1-94.68,8.17,108.8,108.8,0,0,1-155.72,44.51,108.76,108.76,0,0,1-213.73-14.54,108.26,108.26,0,0,1-58.36,17,110.06,110.06,0,0,1-14.26-.93c0,.31,0,.62,0,.93A108.75,108.75,0,0,1,95.61,187.19a109,109,0,0,1-79.51,6.94L23.46,54.29A32.58,32.58,0,0,1,54.29,23.46l136.59-7.19,48-2.53h0L496.2.2l2.09-.11a32.51,32.51,0,0,1,3.42,0l2.35.12h0L945.71,23.46a32.58,32.58,0,0,1,30.83,30.83Z"/><path class="cls-5" d="M994.31,391.87a47.12,47.12,0,0,1-51-.35,47.07,47.07,0,0,1-82.29-22.31h-.7A47.06,47.06,0,1,1,877,278.14a47.07,47.07,0,0,1,77,29.38,47.25,47.25,0,0,1,36,2.42Z"/><path class="cls-6" d="M674.18,425.62a47.06,47.06,0,0,1-86.25,26.06,47.08,47.08,0,0,1-54.25-74.54,47.07,47.07,0,0,1,93,1.43h.46A47.06,47.06,0,0,1,674.18,425.62Z"/><path class="cls-7" d="M115.17,412.16a47.08,47.08,0,0,1-72.39,39.68A47,47,0,0,1,1.09,479.26L6.26,381l2.17-41.22A47.08,47.08,0,0,1,63.72,365.3c1.44-.13,2.91-.2,4.39-.2A47.06,47.06,0,0,1,115.17,412.16Z"/><path class="cls-8" d="M800.05,984.21l-7.4.39-7.94.41-22.58,1.19-4.63.25h0l-121.43,6.39-7.77.41L501.93,999.9h-.22c-.73,0-1.45.05-2.18,0h-.59l-.65,0-1,0-10.52-.55-6.37-.34L448,997.26l-4.46-.23h0l-73.28-3.86-1.92-.1-2.4-.13-49.34-2.6-7-.36h0l-14.13-.75h0l-3.69-.19h0l-55.07-2.9-4-.21-29.35-1.55h0l-4-.21-20.23-1.06L326.85,864.88H680.71l23.42,23.42,3.1,3.09Z"/><path class="cls-9" d="M451.11,864.88c-9.45,5.64-35.54,22.08-57.11,43.69-2.5,2.5-4.94,5.07-7.28,7.7-20.41,22.91-33.76,50.42-18.44,76.8l-2.4-.13-49.34-2.6-7-.36h0l-14.13-.75h0l-3.69-.19h0l-55.07-2.9-4-.21-29.35-1.55h0l-4-.21-20.23-1.06L326.85,864.88Z"/></g></g></g></svg>