<svg xmlns="http://www.w3.org/2000/svg" xmlns:xlink="http://www.w3.org/1999/xlink" viewBox="0 0 1000 1000"><defs><style>.cls-1{fill:none;}.cls-2{fill:url(#linear-gradient);}.cls-3{fill:url(#linear-gradient-2);}.cls-4{fill:url(#linear-gradient-3);}.cls-5{fill:url(#linear-gradient-4);}.cls-6{fill:url(#linear-gradient-5);}.cls-7{fill:#bfbfbf;}.cls-8{fill:#aaa;}.cls-9{fill:url(#linear-gradient-6);}.cls-10,.cls-138{opacity:0.2;}.cls-100,.cls-101,.cls-102,.cls-103,.cls-104,.cls-105,.cls-106,.cls-107,.cls-108,.cls-109,.cls-11,.cls-110,.cls-111,.cls-112,.cls-113,.cls-114,.cls-115,.cls-116,.cls-117,.cls-118,.cls-119,.cls-12,.cls-120,.cls-121,.cls-122,.cls-123,.cls-124,.cls-125,.cls-126,.cls-127,.cls-128,.cls-129,.cls-13,.cls-130,.cls-131,.cls-132,.cls-133,.cls-134,.cls-135,.cls-136,.cls-14,.cls-15,.cls-16,.cls-17,.cls-18,.cls-19,.cls-20,.cls-21,.cls-22,.cls-23,.cls-24,.cls-25,.cls-26,.cls-27,.cls-28,.cls-29,.cls-30,.cls-31,.cls-32,.cls-33,.cls-34,.cls-35,.cls-36,.cls-37,.cls-38,.cls-39,.cls-40,.cls-41,.cls-42,.cls-43,.cls-44,.cls-45,.cls-46,.cls-47,.cls-48,.cls-49,.cls-50,.cls-51,.cls-52,.cls-53,.cls-54,.cls-55,.cls-56,.cls-57,.cls-58,.cls-59,.cls-60,.cls-61,.cls-62,.cls-63,.cls-64,.cls-65,.cls-66,.cls-67,.cls-68,.cls-69,.cls-70,.cls-71,.cls-72,.cls-73,.cls-74,.cls-75,.cls-76,.cls-77,.cls-78,.cls-79,.cls-80,.cls-81,.cls-82,.cls-83,.cls-84,.cls-85,.cls-86,.cls-87,.cls-88,.cls-89,.cls-90,.cls-91,.cls-92,.cls-93,.cls-94,.cls-95,.cls-96,.cls-97,.cls-98,.cls-99{opacity:0.5;}.cls-11{fill:url(#linear-gradient-7);}.cls-12{fill:url(#linear-gradient-8);}.cls-13{fill:url(#linear-gradient-9);}.cls-14{fill:url(#linear-gradient-10);}.cls-15{fill:url(#linear-gradient-11);}.cls-16{fill:url(#linear-gradient-12);}.cls-17{fill:url(#linear-gradient-13);}.cls-18{fill:url(#linear-gradient-14);}.cls-19{fill:url(#linear-gradient-15);}.cls-20{fill:url(#linear-gradient-16);}.cls-21{fill:url(#linear-gradient-17);}.cls-22{fill:url(#linear-gradient-18);}.cls-23{fill:url(#linear-gradient-19);}.cls-24{fill:url(#linear-gradient-20);}.cls-25{fill:url(#linear-gradient-21);}.cls-26{fill:url(#linear-gradient-22);}.cls-27{fill:url(#linear-gradient-23);}.cls-28{fill:url(#linear-gradient-24);}.cls-29{fill:url(#linear-gradient-25);}.cls-30{fill:url(#linear-gradient-26);}.cls-31{fill:url(#linear-gradient-27);}.cls-32{fill:url(#linear-gradient-28);}.cls-33{fill:url(#linear-gradient-29);}.cls-34{fill:url(#linear-gradient-30);}.cls-35{fill:url(#linear-gradient-31);}.cls-36{fill:url(#linear-gradient-32);}.cls-37{fill:url(#linear-gradient-33);}.cls-38{fill:url(#linear-gradient-34);}.cls-39{fill:url(#linear-gradient-35);}.cls-40{fill:url(#linear-gradient-36);}.cls-41{fill:url(#linear-gradient-37);}.cls-42{fill:url(#linear-gradient-38);}.cls-43{fill:url(#linear-gradient-39);}.cls-44{fill:url(#linear-gradient-40);}.cls-45{fill:url(#linear-gradient-41);}.cls-46{fill:url(#linear-gradient-42);}.cls-47{fill:url(#linear-gradient-43);}.cls-48{fill:url(#linear-gradient-44);}.cls-49{fill:url(#linear-gradient-45);}.cls-50{fill:url(#linear-gradient-46);}.cls-51{fill:url(#linear-gradient-47);}.cls-52{fill:url(#linear-gradient-48);}.cls-53{fill:url(#linear-gradient-49);}.cls-54{fill:url(#linear-gradient-50);}.cls-55{fill:url(#linear-gradient-51);}.cls-56{fill:url(#linear-gradient-52);}.cls-57{fill:url(#linear-gradient-53);}.cls-58{fill:url(#linear-gradient-54);}.cls-59{fill:url(#linear-gradient-55);}.cls-60{fill:url(#linear-gradient-56);}.cls-61{fill:url(#linear-gradient-57);}.cls-62{fill:url(#linear-gradient-58);}.cls-63{fill:url(#linear-gradient-59);}.cls-64{fill:url(#linear-gradient-60);}.cls-65{fill:url(#linear-gradient-61);}.cls-66{fill:url(#linear-gradient-62);}.cls-67{fill:url(#linear-gradient-63);}.cls-68{fill:url(#linear-gradient-64);}.cls-69{fill:url(#linear-gradient-65);}.cls-70{fill:url(#linear-gradient-66);}.cls-71{fill:url(#linear-gradient-67);}.cls-72{fill:url(#linear-gradient-68);}.cls-73{fill:url(#linear-gradient-69);}.cls-74{fill:url(#linear-gradient-70);}.cls-75{fill:url(#linear-gradient-71);}.cls-76{fill:url(#linear-gradient-72);}.cls-77{fill:url(#linear-gradient-73);}.cls-78{fill:url(#linear-gradient-74);}.cls-79{fill:url(#linear-gradient-75);}.cls-80{fill:url(#linear-gradient-76);}.cls-81{fill:url(#linear-gradient-77);}.cls-82{fill:url(#linear-gradient-78);}.cls-83{fill:url(#linear-gradient-79);}.cls-84{fill:url(#linear-gradient-80);}.cls-85{fill:url(#linear-gradient-81);}.cls-86{fill:url(#linear-gradient-82);}.cls-87{fill:url(#linear-gradient-83);}.cls-88{fill:url(#linear-gradient-84);}.cls-89{fill:url(#linear-gradient-85);}.cls-90{fill:url(#linear-gradient-86);}.cls-91{fill:url(#linear-gradient-87);}.cls-92{fill:url(#linear-gradient-88);}.cls-93{fill:url(#linear-gradient-89);}.cls-94{fill:url(#linear-gradient-90);}.cls-95{fill:url(#linear-gradient-91);}.cls-96{fill:url(#linear-gradient-92);}.cls-97{fill:url(#linear-gradient-93);}.cls-98{fill:url(#linear-gradient-94);}.cls-99{fill:url(#linear-gradient-95);}.cls-100{fill:url(#linear-gradient-96);}.cls-101{fill:url(#linear-gradient-97);}.cls-102{fill:url(#linear-gradient-98);}.cls-103{fill:url(#linear-gradient-99);}.cls-104{fill:url(#linear-gradient-100);}.cls-105{fill:url(#linear-gradient-101);}.cls-106{fill:url(#linear-gradient-102);}.cls-107{fill:url(#linear-gradient-103);}.cls-108{fill:url(#linear-gradient-104);}.cls-109{fill:url(#linear-gradient-105);}.cls-110{fill:url(#linear-gradient-106);}.cls-111{fill:url(#linear-gradient-107);}.cls-112{fill:url(#linear-gradient-108);}.cls-113{fill:url(#linear-gradient-109);}.cls-114{fill:url(#linear-gradient-110);}.cls-115{fill:url(#linear-gradient-111);}.cls-116{fill:url(#linear-gradient-112);}.cls-117{fill:url(#linear-gradient-113);}.cls-118{fill:url(#linear-gradient-114);}.cls-119{fill:url(#linear-gradient-115);}.cls-120{fill:url(#linear-gradient-116);}.cls-121{fill:url(#linear-gradient-117);}.cls-122{fill:url(#linear-gradient-118);}.cls-123{fill:url(#linear-gradient-119);}.cls-124{fill:url(#linear-gradient-120);}.cls-125{fill:url(#linear-gradient-121);}.cls-126{fill:url(#linear-gradient-122);}.cls-127{fill:url(#linear-gradient-123);}.cls-128{fill:url(#linear-gradient-124);}.cls-129{fill:url(#linear-gradient-125);}.cls-130{fill:url(#linear-gradient-126);}.cls-131{fill:url(#linear-gradient-127);}.cls-132{fill:url(#linear-gradient-128);}.cls-133{fill:url(#linear-gradient-129);}.cls-134{fill:url(#linear-gradient-130);}.cls-135{fill:url(#linear-gradient-131);}.cls-136{fill:url(#linear-gradient-132);}.cls-137{fill:url(#linear-gradient-133);}</style><linearGradient id="linear-gradient" x1="500" y1="988.86" x2="500" y2="-9.52" gradientUnits="userSpaceOnUse"><stop offset="0" stop-color="#29abe2"/><stop offset="1" stop-color="#004c8a"/></linearGradient><linearGradient id="linear-gradient-2" x1="575.9" y1="394.33" x2="888.51" y2="394.33" gradientUnits="userSpaceOnUse"><stop offset="0" stop-color="#fff"/><stop offset="1" stop-color="#fff" stop-opacity="0"/></linearGradient><linearGradient id="linear-gradient-3" x1="168.55" y1="385.2" x2="168.55" y2="15.2" gradientUnits="userSpaceOnUse"><stop offset="0" stop-color="#fff"/><stop offset="1" stop-color="#004c8a"/></linearGradient><linearGradient id="linear-gradient-4" x1="389.83" y1="262.05" x2="389.83" y2="-2.49" xlink:href="#linear-gradient-3"/><linearGradient id="linear-gradient-5" x1="737.74" y1="377.03" x2="737.74" y2="9.74" xlink:href="#linear-gradient-3"/><linearGradient id="linear-gradient-6" x1="200.1" y1="295.64" x2="435.09" y2="295.64" xlink:href="#linear-gradient-2"/><linearGradient id="linear-gradient-7" x1="244.34" y1="591.72" x2="244.34" y2="476.65" gradientTransform="matrix(0.4, 0.18, -0.42, 0.91, 435.55, -27.05)" xlink:href="#linear-gradient-2"/><linearGradient id="linear-gradient-8" x1="437.83" y1="363.16" x2="437.83" y2="248.09" gradientTransform="matrix(0.4, 0.18, -0.42, 0.91, 435.55, -27.05)" xlink:href="#linear-gradient-2"/><linearGradient id="linear-gradient-9" x1="213.83" y1="391.91" x2="213.83" y2="276.84" gradientTransform="matrix(0.4, 0.18, -0.42, 0.91, 435.55, -27.05)" xlink:href="#linear-gradient-2"/><linearGradient id="linear-gradient-10" x1="305.8" y1="442.19" x2="305.8" y2="327.12" gradientTransform="matrix(0.4, 0.18, -0.42, 0.91, 435.55, -27.05)" xlink:href="#linear-gradient-2"/><linearGradient id="linear-gradient-11" x1="51.44" y1="455.06" x2="51.44" y2="339.99" gradientTransform="matrix(0.4, 0.18, -0.42, 0.91, 435.55, -27.05)" xlink:href="#linear-gradient-2"/><linearGradient id="linear-gradient-12" x1="-181.25" y1="502.01" x2="-181.25" y2="386.94" gradientTransform="matrix(0.4, 0.18, -0.42, 0.91, 435.55, -27.05)" xlink:href="#linear-gradient-2"/><linearGradient id="linear-gradient-13" x1="-124.06" y1="579.66" x2="-124.06" y2="464.59" gradientTransform="matrix(0.4, 0.18, -0.42, 0.91, 435.55, -27.05)" xlink:href="#linear-gradient-2"/><linearGradient id="linear-gradient-14" x1="89.03" y1="581.16" x2="89.03" y2="466.09" gradientTransform="matrix(0.4, 0.18, -0.42, 0.91, 435.55, -27.05)" xlink:href="#linear-gradient-2"/><linearGradient id="linear-gradient-15" x1="107.66" y1="678.9" x2="107.66" y2="563.83" gradientTransform="matrix(0.4, 0.18, -0.42, 0.91, 435.55, -27.05)" xlink:href="#linear-gradient-2"/><linearGradient id="linear-gradient-16" x1="348.69" y1="535.03" x2="348.69" y2="419.96" gradientTransform="matrix(0.4, 0.18, -0.42, 0.91, 435.55, -27.05)" xlink:href="#linear-gradient-2"/><linearGradient id="linear-gradient-17" x1="611.82" y1="362.84" x2="611.82" y2="247.77" gradientTransform="matrix(0.4, 0.18, -0.42, 0.91, 435.55, -27.05)" xlink:href="#linear-gradient-2"/><linearGradient id="linear-gradient-18" x1="638.24" y1="463.72" x2="638.24" y2="348.65" gradientTransform="matrix(0.4, 0.18, -0.42, 0.91, 435.55, -27.05)" xlink:href="#linear-gradient-2"/><linearGradient id="linear-gradient-19" x1="455.79" y1="456.42" x2="455.79" y2="341.35" gradientTransform="matrix(0.4, 0.18, -0.42, 0.91, 435.55, -27.05)" xlink:href="#linear-gradient-2"/><linearGradient id="linear-gradient-20" x1="724.72" y1="560.67" x2="724.72" y2="445.59" gradientTransform="matrix(0.4, 0.18, -0.42, 0.91, 435.55, -27.05)" xlink:href="#linear-gradient-2"/><linearGradient id="linear-gradient-21" x1="368.45" y1="592.15" x2="368.45" y2="477.08" gradientTransform="matrix(0.4, 0.18, -0.42, 0.91, 435.55, -27.05)" xlink:href="#linear-gradient-2"/><linearGradient id="linear-gradient-22" x1="83.67" y1="492.47" x2="83.67" y2="377.4" gradientTransform="matrix(0.4, 0.18, -0.42, 0.91, 435.55, -27.05)" xlink:href="#linear-gradient-2"/><linearGradient id="linear-gradient-23" x1="-90.67" y1="382.24" x2="-90.67" y2="267.16" gradientTransform="matrix(0.4, 0.18, -0.42, 0.91, 435.55, -27.05)" xlink:href="#linear-gradient-2"/><linearGradient id="linear-gradient-24" x1="-281.27" y1="441.05" x2="-281.27" y2="325.97" gradientTransform="matrix(0.4, 0.18, -0.42, 0.91, 435.55, -27.05)" xlink:href="#linear-gradient-2"/><linearGradient id="linear-gradient-25" x1="-71.12" y1="619.73" x2="-71.12" y2="504.66" gradientTransform="matrix(0.4, 0.18, -0.42, 0.91, 435.55, -27.05)" xlink:href="#linear-gradient-2"/><linearGradient id="linear-gradient-26" x1="-27.06" y1="773.44" x2="-27.06" y2="658.37" gradientTransform="matrix(0.4, 0.18, -0.42, 0.91, 435.55, -27.05)" xlink:href="#linear-gradient-2"/><linearGradient id="linear-gradient-27" x1="375.89" y1="770.77" x2="375.89" y2="655.7" gradientTransform="matrix(0.4, 0.18, -0.42, 0.91, 435.55, -27.05)" xlink:href="#linear-gradient-2"/><linearGradient id="linear-gradient-28" x1="89.29" y1="812.51" x2="89.29" y2="697.44" gradientTransform="matrix(0.4, 0.18, -0.42, 0.91, 435.55, -27.05)" xlink:href="#linear-gradient-2"/><linearGradient id="linear-gradient-29" x1="231.35" y1="704.69" x2="231.35" y2="589.62" gradientTransform="matrix(0.4, 0.18, -0.42, 0.91, 435.55, -27.05)" xlink:href="#linear-gradient-2"/><linearGradient id="linear-gradient-30" x1="545.76" y1="632.41" x2="545.76" y2="517.34" gradientTransform="matrix(0.4, 0.18, -0.42, 0.91, 435.55, -27.05)" xlink:href="#linear-gradient-2"/><linearGradient id="linear-gradient-31" x1="567.63" y1="743.53" x2="567.63" y2="628.46" gradientTransform="matrix(0.4, 0.18, -0.42, 0.91, 435.55, -27.05)" xlink:href="#linear-gradient-2"/><linearGradient id="linear-gradient-32" x1="908.85" y1="656.3" x2="908.85" y2="541.23" gradientTransform="matrix(0.4, 0.18, -0.42, 0.91, 435.55, -27.05)" xlink:href="#linear-gradient-2"/><linearGradient id="linear-gradient-33" x1="816.27" y1="535.94" x2="816.27" y2="420.86" gradientTransform="matrix(0.4, 0.18, -0.42, 0.91, 435.55, -27.05)" xlink:href="#linear-gradient-2"/><linearGradient id="linear-gradient-34" x1="1025.2" y1="632.83" x2="1025.2" y2="517.75" gradientTransform="matrix(0.4, 0.18, -0.42, 0.91, 435.55, -27.05)" xlink:href="#linear-gradient-2"/><linearGradient id="linear-gradient-35" x1="975.3" y1="495" x2="975.3" y2="379.93" gradientTransform="matrix(0.4, 0.18, -0.42, 0.91, 435.55, -27.05)" xlink:href="#linear-gradient-2"/><linearGradient id="linear-gradient-36" x1="851.01" y1="388.41" x2="851.01" y2="273.34" gradientTransform="matrix(0.4, 0.18, -0.42, 0.91, 435.55, -27.05)" xlink:href="#linear-gradient-2"/><linearGradient id="linear-gradient-37" x1="527.61" y1="600.43" x2="527.61" y2="485.36" gradientTransform="matrix(0.4, 0.18, -0.42, 0.91, 435.55, -27.05)" xlink:href="#linear-gradient-2"/><linearGradient id="linear-gradient-38" x1="736.29" y1="698.06" x2="736.29" y2="582.99" gradientTransform="matrix(0.4, 0.18, -0.42, 0.91, 435.55, -27.05)" xlink:href="#linear-gradient-2"/><linearGradient id="linear-gradient-39" x1="1338.2" y1="650.45" x2="1338.2" y2="535.37" gradientTransform="matrix(0.4, 0.18, -0.42, 0.91, 435.55, -27.05)" xlink:href="#linear-gradient-2"/><linearGradient id="linear-gradient-40" x1="1531.69" y1="421.89" x2="1531.69" y2="306.81" gradientTransform="matrix(0.4, 0.18, -0.42, 0.91, 435.55, -27.05)" xlink:href="#linear-gradient-2"/><linearGradient id="linear-gradient-41" x1="1307.69" y1="450.63" x2="1307.69" y2="335.56" gradientTransform="matrix(0.4, 0.18, -0.42, 0.91, 435.55, -27.05)" xlink:href="#linear-gradient-2"/><linearGradient id="linear-gradient-42" x1="1399.66" y1="500.91" x2="1399.66" y2="385.84" gradientTransform="matrix(0.4, 0.18, -0.42, 0.91, 435.55, -27.05)" xlink:href="#linear-gradient-2"/><linearGradient id="linear-gradient-43" x1="1145.3" y1="513.79" x2="1145.3" y2="398.71" gradientTransform="matrix(0.4, 0.18, -0.42, 0.91, 435.55, -27.05)" xlink:href="#linear-gradient-2"/><linearGradient id="linear-gradient-44" x1="912.61" y1="560.73" x2="912.61" y2="445.66" gradientTransform="matrix(0.4, 0.18, -0.42, 0.91, 435.55, -27.05)" xlink:href="#linear-gradient-2"/><linearGradient id="linear-gradient-45" x1="969.8" y1="638.39" x2="969.8" y2="523.31" gradientTransform="matrix(0.4, 0.18, -0.42, 0.91, 435.55, -27.05)" xlink:href="#linear-gradient-2"/><linearGradient id="linear-gradient-46" x1="1182.89" y1="639.88" x2="1182.89" y2="524.81" gradientTransform="matrix(0.4, 0.18, -0.42, 0.91, 435.55, -27.05)" xlink:href="#linear-gradient-2"/><linearGradient id="linear-gradient-47" x1="1201.52" y1="737.62" x2="1201.52" y2="622.55" gradientTransform="matrix(0.4, 0.18, -0.42, 0.91, 435.55, -27.05)" xlink:href="#linear-gradient-2"/><linearGradient id="linear-gradient-48" x1="1442.55" y1="593.76" x2="1442.55" y2="478.69" gradientTransform="matrix(0.4, 0.18, -0.42, 0.91, 435.55, -27.05)" xlink:href="#linear-gradient-2"/><linearGradient id="linear-gradient-49" x1="960.19" y1="662.53" x2="960.19" y2="574.88" xlink:href="#linear-gradient-2"/><linearGradient id="linear-gradient-50" x1="1732.1" y1="522.44" x2="1732.1" y2="407.37" gradientTransform="matrix(0.4, 0.18, -0.42, 0.91, 435.55, -27.05)" xlink:href="#linear-gradient-2"/><linearGradient id="linear-gradient-51" x1="1549.65" y1="515.14" x2="1549.65" y2="400.07" gradientTransform="matrix(0.4, 0.18, -0.42, 0.91, 435.55, -27.05)" xlink:href="#linear-gradient-2"/><linearGradient id="linear-gradient-52" x1="1818.58" y1="619.39" x2="1818.58" y2="504.32" gradientTransform="matrix(0.4, 0.18, -0.42, 0.91, 435.55, -27.05)" xlink:href="#linear-gradient-2"/><linearGradient id="linear-gradient-53" x1="1462.31" y1="650.88" x2="1462.31" y2="535.8" gradientTransform="matrix(0.4, 0.18, -0.42, 0.91, 435.55, -27.05)" xlink:href="#linear-gradient-2"/><linearGradient id="linear-gradient-54" x1="1177.53" y1="551.2" x2="1177.53" y2="436.13" gradientTransform="matrix(0.4, 0.18, -0.42, 0.91, 435.55, -27.05)" xlink:href="#linear-gradient-2"/><linearGradient id="linear-gradient-55" x1="1003.19" y1="440.96" x2="1003.19" y2="325.89" gradientTransform="matrix(0.4, 0.18, -0.42, 0.91, 435.55, -27.05)" xlink:href="#linear-gradient-2"/><linearGradient id="linear-gradient-56" x1="812.59" y1="499.77" x2="812.59" y2="384.7" gradientTransform="matrix(0.4, 0.18, -0.42, 0.91, 435.55, -27.05)" xlink:href="#linear-gradient-2"/><linearGradient id="linear-gradient-57" x1="1022.74" y1="678.45" x2="1022.74" y2="563.38" gradientTransform="matrix(0.4, 0.18, -0.42, 0.91, 435.55, -27.05)" xlink:href="#linear-gradient-2"/><linearGradient id="linear-gradient-58" x1="1066.8" y1="832.17" x2="1066.8" y2="717.09" gradientTransform="matrix(0.4, 0.18, -0.42, 0.91, 435.55, -27.05)" xlink:href="#linear-gradient-2"/><linearGradient id="linear-gradient-59" x1="1469.75" y1="829.49" x2="1469.75" y2="714.42" gradientTransform="matrix(0.4, 0.18, -0.42, 0.91, 435.55, -27.05)" xlink:href="#linear-gradient-2"/><linearGradient id="linear-gradient-60" x1="1183.15" y1="871.23" x2="1183.15" y2="756.16" gradientTransform="matrix(0.4, 0.18, -0.42, 0.91, 435.55, -27.05)" xlink:href="#linear-gradient-2"/><linearGradient id="linear-gradient-61" x1="1325.21" y1="763.42" x2="1325.21" y2="648.34" gradientTransform="matrix(0.4, 0.18, -0.42, 0.91, 435.55, -27.05)" xlink:href="#linear-gradient-2"/><linearGradient id="linear-gradient-62" x1="1639.62" y1="691.13" x2="1639.62" y2="576.06" gradientTransform="matrix(0.4, 0.18, -0.42, 0.91, 435.55, -27.05)" xlink:href="#linear-gradient-2"/><linearGradient id="linear-gradient-63" x1="790.29" y1="985.59" x2="790.29" y2="908.35" xlink:href="#linear-gradient-2"/><linearGradient id="linear-gradient-64" x1="951.05" y1="976.96" x2="951.05" y2="911.37" xlink:href="#linear-gradient-2"/><linearGradient id="linear-gradient-65" x1="958.96" y1="857.49" x2="958.96" y2="793.49" xlink:href="#linear-gradient-2"/><linearGradient id="linear-gradient-66" x1="1621.47" y1="659.16" x2="1621.47" y2="544.09" gradientTransform="matrix(0.4, 0.18, -0.42, 0.91, 435.55, -27.05)" xlink:href="#linear-gradient-2"/><linearGradient id="linear-gradient-67" x1="874.05" y1="981.24" x2="874.05" y2="898.03" xlink:href="#linear-gradient-2"/><linearGradient id="linear-gradient-68" x1="350.65" y1="888.55" x2="350.65" y2="773.48" gradientTransform="matrix(0.4, 0.18, -0.42, 0.91, 435.55, -27.05)" xlink:href="#linear-gradient-2"/><linearGradient id="linear-gradient-69" x1="544.14" y1="660" x2="544.14" y2="544.92" gradientTransform="matrix(0.4, 0.18, -0.42, 0.91, 435.55, -27.05)" xlink:href="#linear-gradient-2"/><linearGradient id="linear-gradient-70" x1="320.14" y1="688.74" x2="320.14" y2="573.67" gradientTransform="matrix(0.4, 0.18, -0.42, 0.91, 435.55, -27.05)" xlink:href="#linear-gradient-2"/><linearGradient id="linear-gradient-71" x1="412.11" y1="739.02" x2="412.11" y2="623.95" gradientTransform="matrix(0.4, 0.18, -0.42, 0.91, 435.55, -27.05)" xlink:href="#linear-gradient-2"/><linearGradient id="linear-gradient-72" x1="157.75" y1="751.9" x2="157.75" y2="636.82" gradientTransform="matrix(0.4, 0.18, -0.42, 0.91, 435.55, -27.05)" xlink:href="#linear-gradient-2"/><linearGradient id="linear-gradient-73" x1="-74.94" y1="798.84" x2="-74.94" y2="683.77" gradientTransform="matrix(0.4, 0.18, -0.42, 0.91, 435.55, -27.05)" xlink:href="#linear-gradient-2"/><linearGradient id="linear-gradient-74" x1="-17.75" y1="876.5" x2="-17.75" y2="761.42" gradientTransform="matrix(0.4, 0.18, -0.42, 0.91, 435.55, -27.05)" xlink:href="#linear-gradient-2"/><linearGradient id="linear-gradient-75" x1="195.34" y1="877.99" x2="195.34" y2="762.92" gradientTransform="matrix(0.4, 0.18, -0.42, 0.91, 435.55, -27.05)" xlink:href="#linear-gradient-2"/><linearGradient id="linear-gradient-76" x1="213.97" y1="975.73" x2="213.97" y2="860.66" gradientTransform="matrix(0.4, 0.18, -0.42, 0.91, 435.55, -27.05)" xlink:href="#linear-gradient-2"/><linearGradient id="linear-gradient-77" x1="455" y1="831.87" x2="455" y2="716.79" gradientTransform="matrix(0.4, 0.18, -0.42, 0.91, 435.55, -27.05)" xlink:href="#linear-gradient-2"/><linearGradient id="linear-gradient-78" x1="718.13" y1="659.68" x2="718.13" y2="544.6" gradientTransform="matrix(0.4, 0.18, -0.42, 0.91, 435.55, -27.05)" xlink:href="#linear-gradient-2"/><linearGradient id="linear-gradient-79" x1="744.55" y1="760.55" x2="744.55" y2="645.48" gradientTransform="matrix(0.4, 0.18, -0.42, 0.91, 435.55, -27.05)" xlink:href="#linear-gradient-2"/><linearGradient id="linear-gradient-80" x1="562.1" y1="753.25" x2="562.1" y2="638.18" gradientTransform="matrix(0.4, 0.18, -0.42, 0.91, 435.55, -27.05)" xlink:href="#linear-gradient-2"/><linearGradient id="linear-gradient-81" x1="831.03" y1="857.5" x2="831.03" y2="742.43" gradientTransform="matrix(0.4, 0.18, -0.42, 0.91, 435.55, -27.05)" xlink:href="#linear-gradient-2"/><linearGradient id="linear-gradient-82" x1="474.76" y1="888.99" x2="474.76" y2="773.91" gradientTransform="matrix(0.4, 0.18, -0.42, 0.91, 435.55, -27.05)" xlink:href="#linear-gradient-2"/><linearGradient id="linear-gradient-83" x1="189.98" y1="789.31" x2="189.98" y2="674.23" gradientTransform="matrix(0.4, 0.18, -0.42, 0.91, 435.55, -27.05)" xlink:href="#linear-gradient-2"/><linearGradient id="linear-gradient-84" x1="15.64" y1="679.07" x2="15.64" y2="564" gradientTransform="matrix(0.4, 0.18, -0.42, 0.91, 435.55, -27.05)" xlink:href="#linear-gradient-2"/><linearGradient id="linear-gradient-85" x1="-174.96" y1="737.88" x2="-174.96" y2="622.81" gradientTransform="matrix(0.4, 0.18, -0.42, 0.91, 435.55, -27.05)" xlink:href="#linear-gradient-2"/><linearGradient id="linear-gradient-86" x1="35.19" y1="916.56" x2="35.19" y2="801.49" gradientTransform="matrix(0.4, 0.18, -0.42, 0.91, 435.55, -27.05)" xlink:href="#linear-gradient-2"/><linearGradient id="linear-gradient-87" x1="51.83" y1="935.39" x2="51.83" y2="861.89" xlink:href="#linear-gradient-2"/><linearGradient id="linear-gradient-88" x1="220.93" y1="983.82" x2="220.93" y2="933.52" xlink:href="#linear-gradient-2"/><linearGradient id="linear-gradient-89" x1="86.29" y1="976.51" x2="86.29" y2="918.85" xlink:href="#linear-gradient-2"/><linearGradient id="linear-gradient-90" x1="337.66" y1="1001.52" x2="337.66" y2="886.45" gradientTransform="matrix(0.4, 0.18, -0.42, 0.91, 435.55, -27.05)" xlink:href="#linear-gradient-2"/><linearGradient id="linear-gradient-91" x1="652.07" y1="929.24" x2="652.07" y2="814.17" gradientTransform="matrix(0.4, 0.18, -0.42, 0.91, 435.55, -27.05)" xlink:href="#linear-gradient-2"/><linearGradient id="linear-gradient-92" x1="311.01" y1="988.73" x2="311.01" y2="943.97" xlink:href="#linear-gradient-2"/><linearGradient id="linear-gradient-93" x1="473.06" y1="996.49" x2="473.06" y2="927.02" xlink:href="#linear-gradient-2"/><linearGradient id="linear-gradient-94" x1="922.58" y1="832.77" x2="922.58" y2="717.7" gradientTransform="matrix(0.4, 0.18, -0.42, 0.91, 435.55, -27.05)" xlink:href="#linear-gradient-2"/><linearGradient id="linear-gradient-95" x1="528.06" y1="999.15" x2="528.06" y2="927" xlink:href="#linear-gradient-2"/><linearGradient id="linear-gradient-96" x1="1081.61" y1="791.83" x2="1081.61" y2="676.76" gradientTransform="matrix(0.4, 0.18, -0.42, 0.91, 435.55, -27.05)" xlink:href="#linear-gradient-2"/><linearGradient id="linear-gradient-97" x1="957.32" y1="685.25" x2="957.32" y2="570.17" gradientTransform="matrix(0.4, 0.18, -0.42, 0.91, 435.55, -27.05)" xlink:href="#linear-gradient-2"/><linearGradient id="linear-gradient-98" x1="633.92" y1="897.27" x2="633.92" y2="782.2" gradientTransform="matrix(0.4, 0.18, -0.42, 0.91, 435.55, -27.05)" xlink:href="#linear-gradient-2"/><linearGradient id="linear-gradient-99" x1="391.17" y1="992.51" x2="391.17" y2="933.43" xlink:href="#linear-gradient-2"/><linearGradient id="linear-gradient-100" x1="472.76" y1="748.5" x2="472.76" y2="535.77" gradientTransform="matrix(0.4, 0.18, -0.42, 0.91, 435.55, -27.05)" xlink:href="#linear-gradient-2"/><linearGradient id="linear-gradient-101" x1="830.46" y1="325.96" x2="830.46" y2="113.23" gradientTransform="matrix(0.4, 0.18, -0.42, 0.91, 435.55, -27.05)" xlink:href="#linear-gradient-2"/><linearGradient id="linear-gradient-102" x1="416.35" y1="379.11" x2="416.35" y2="166.38" gradientTransform="matrix(0.4, 0.18, -0.42, 0.91, 435.55, -27.05)" xlink:href="#linear-gradient-2"/><linearGradient id="linear-gradient-103" x1="586.38" y1="472.06" x2="586.38" y2="259.33" gradientTransform="matrix(0.4, 0.18, -0.42, 0.91, 435.55, -27.05)" xlink:href="#linear-gradient-2"/><linearGradient id="linear-gradient-104" x1="116.15" y1="495.86" x2="116.15" y2="283.13" gradientTransform="matrix(0.4, 0.18, -0.42, 0.91, 435.55, -27.05)" xlink:href="#linear-gradient-2"/><linearGradient id="linear-gradient-105" x1="-314.03" y1="582.65" x2="-314.03" y2="369.91" gradientTransform="matrix(0.4, 0.18, -0.42, 0.91, 435.55, -27.05)" xlink:href="#linear-gradient-2"/><linearGradient id="linear-gradient-106" x1="-208.3" y1="726.21" x2="-208.3" y2="513.47" gradientTransform="matrix(0.4, 0.18, -0.42, 0.91, 435.55, -27.05)" xlink:href="#linear-gradient-2"/><linearGradient id="linear-gradient-107" x1="185.63" y1="728.97" x2="185.63" y2="516.24" gradientTransform="matrix(0.4, 0.18, -0.42, 0.91, 435.55, -27.05)" xlink:href="#linear-gradient-2"/><linearGradient id="linear-gradient-108" x1="220.07" y1="909.66" x2="220.07" y2="696.93" gradientTransform="matrix(0.4, 0.18, -0.42, 0.91, 435.55, -27.05)" xlink:href="#linear-gradient-2"/><linearGradient id="linear-gradient-109" x1="665.67" y1="643.7" x2="665.67" y2="430.97" gradientTransform="matrix(0.4, 0.18, -0.42, 0.91, 435.55, -27.05)" xlink:href="#linear-gradient-2"/><linearGradient id="linear-gradient-110" x1="1152.11" y1="325.37" x2="1152.11" y2="112.64" gradientTransform="matrix(0.4, 0.18, -0.42, 0.91, 435.55, -27.05)" xlink:href="#linear-gradient-2"/><linearGradient id="linear-gradient-111" x1="1129.84" y1="496.75" x2="1129.84" y2="284.02" gradientTransform="matrix(0.4, 0.18, -0.42, 0.91, 435.55, -27.05)" xlink:href="#linear-gradient-2"/><linearGradient id="linear-gradient-112" x1="863.66" y1="498.37" x2="863.66" y2="285.64" gradientTransform="matrix(0.4, 0.18, -0.42, 0.91, 435.55, -27.05)" xlink:href="#linear-gradient-2"/><linearGradient id="linear-gradient-113" x1="1360.83" y1="691.09" x2="1360.83" y2="478.36" gradientTransform="matrix(0.4, 0.18, -0.42, 0.91, 435.55, -27.05)" xlink:href="#linear-gradient-2"/><linearGradient id="linear-gradient-114" x1="702.19" y1="749.3" x2="702.19" y2="536.56" gradientTransform="matrix(0.4, 0.18, -0.42, 0.91, 435.55, -27.05)" xlink:href="#linear-gradient-2"/><linearGradient id="linear-gradient-115" x1="175.73" y1="565.02" x2="175.73" y2="352.29" gradientTransform="matrix(0.4, 0.18, -0.42, 0.91, 435.55, -27.05)" xlink:href="#linear-gradient-2"/><linearGradient id="linear-gradient-116" x1="-146.58" y1="361.23" x2="-146.58" y2="148.49" gradientTransform="matrix(0.4, 0.18, -0.42, 0.91, 435.55, -27.05)" xlink:href="#linear-gradient-2"/><linearGradient id="linear-gradient-117" x1="-498.93" y1="469.95" x2="-498.93" y2="257.21" gradientTransform="matrix(0.4, 0.18, -0.42, 0.91, 435.55, -27.05)" xlink:href="#linear-gradient-2"/><linearGradient id="linear-gradient-118" x1="-110.43" y1="800.28" x2="-110.43" y2="587.55" gradientTransform="matrix(0.4, 0.18, -0.42, 0.91, 435.55, -27.05)" xlink:href="#linear-gradient-2"/><linearGradient id="linear-gradient-119" x1="51.22" y1="856.19" x2="51.22" y2="772.38" xlink:href="#linear-gradient-2"/><linearGradient id="linear-gradient-120" x1="346.16" y1="989.4" x2="346.16" y2="904.4" xlink:href="#linear-gradient-2"/><linearGradient id="linear-gradient-121" x1="97.18" y1="975.87" x2="97.18" y2="877.28" xlink:href="#linear-gradient-2"/><linearGradient id="linear-gradient-122" x1="448.74" y1="957.35" x2="448.74" y2="744.61" gradientTransform="matrix(0.4, 0.18, -0.42, 0.91, 435.55, -27.05)" xlink:href="#linear-gradient-2"/><linearGradient id="linear-gradient-123" x1="1029.99" y1="823.71" x2="1029.99" y2="610.98" gradientTransform="matrix(0.4, 0.18, -0.42, 0.91, 435.55, -27.05)" xlink:href="#linear-gradient-2"/><linearGradient id="linear-gradient-124" x1="512.73" y1="998.48" x2="512.73" y2="923.63" xlink:href="#linear-gradient-2"/><linearGradient id="linear-gradient-125" x1="824.16" y1="983.99" x2="824.16" y2="892.58" xlink:href="#linear-gradient-2"/><linearGradient id="linear-gradient-126" x1="1530.08" y1="645.37" x2="1530.08" y2="432.64" gradientTransform="matrix(0.4, 0.18, -0.42, 0.91, 435.55, -27.05)" xlink:href="#linear-gradient-2"/><linearGradient id="linear-gradient-127" x1="930.32" y1="978.35" x2="930.32" y2="892.73" xlink:href="#linear-gradient-2"/><linearGradient id="linear-gradient-128" x1="943.54" y1="814.23" x2="943.54" y2="698.97" xlink:href="#linear-gradient-2"/><linearGradient id="linear-gradient-129" x1="943.28" y1="592.9" x2="943.28" y2="457.42" xlink:href="#linear-gradient-2"/><linearGradient id="linear-gradient-130" x1="996.43" y1="764.61" x2="996.43" y2="551.87" gradientTransform="matrix(0.4, 0.18, -0.42, 0.91, 435.55, -27.05)" xlink:href="#linear-gradient-2"/><linearGradient id="linear-gradient-131" x1="666.27" y1="992.27" x2="666.27" y2="904.33" xlink:href="#linear-gradient-2"/><linearGradient id="linear-gradient-132" x1="666.97" y1="887.21" x2="967.15" y2="887.21" gradientUnits="userSpaceOnUse"><stop offset="0" stop-color="#fff"/><stop offset="1" stop-color="#fff" stop-opacity="0.5"/></linearGradient><linearGradient id="linear-gradient-133" x1="772.29" y1="882.65" x2="781.71" y2="882.65" xlink:href="#linear-gradient-132"/></defs><g id="Layer_2" data-name="Layer 2"><g id="OutPut"><rect id="BG" class="cls-1" width="1000" height="1000"/></g><g id="Bachground"><g id="_1" data-name="1"><path class="cls-2" d="M999.91,501.71l-3.9,74,0,.67-6.51,123.68-.38,7.13-4.57,86.9-.07,1.4v.06l-.11,2.22-6,114.22-.14,2.71-1.63,31c0,.53-.07,1.06-.12,1.58s-.1.88-.17,1.31a3.85,3.85,0,0,1-.07.49c0,.35-.11.7-.18,1s-.17.88-.28,1.32c-.06.25-.12.5-.19.75a8.48,8.48,0,0,1-.22.83c-.14.49-.3,1-.46,1.47-.25.74-.53,1.46-.83,2.17s-.62,1.41-1,2.09c-.18.38-.38.75-.59,1.11s-.4.69-.61,1-.34.56-.52.83c-.35.56-.73,1.11-1.13,1.64l-.51.67-.21.27q-.36.47-.75.9c-.22.26-.45.52-.68.77s-.67.72-1,1.06-.7.68-1.06,1-.73.65-1.1,1c-.75.62-1.52,1.22-2.33,1.77q-.6.42-1.23.81c-.41.26-.83.51-1.26.76s-.86.47-1.3.69-.88.44-1.33.65-1,.44-1.53.64l-1.24.46c-.45.15-.91.3-1.37.43a31,31,0,0,1-3,.75c-.49.09-1,.18-1.48.25s-1,.14-1.53.19-1,.09-1.55.12l-18.12,1-3.8.2L901,978.9l-7.63.4-15.68.82-19.49,1-15.09.79h0l-4.07.22-46.33,2.44-7.94.41-22.58,1.19-4.63.25h0l-72.15,3.8h0l-49.27,2.59-7.77.41L501.93,999.9h-.22c-.73,0-1.45.05-2.18,0h-.59l-.65,0-1,0-10.52-.55-6.37-.34L448,997.26l-4.46-.23h0l-73.28-3.86-4.32-.23-49.34-2.6-7-.36h0l-14.13-.75h0l-3.69-.19h0l-55.07-2.9-1.41-.07-2.58-.14-29.35-1.55h0l-4-.21-133.45-7L62.5,977l-.92-.05-6.72-.35-.57,0c-.52,0-1-.07-1.55-.12s-1-.11-1.53-.19-1-.16-1.51-.26-.88-.18-1.32-.29l-.79-.2-.8-.22-.18-.06c-.4-.11-.8-.24-1.19-.37l-.41-.15-1-.36c-.43-.17-.85-.35-1.26-.53-.23-.1-.47-.21-.7-.33l-.77-.37a2.49,2.49,0,0,1-.28-.15c-.3-.15-.59-.3-.87-.47s-.35-.19-.52-.29c-.33-.18-.65-.38-1-.58s-.83-.53-1.23-.81-.7-.5-1.05-.76l-.28-.21c-.34-.26-.67-.53-1-.8s-.74-.64-1.1-1-.71-.66-1.06-1-.68-.7-1-1.06-.52-.57-.76-.87a5.07,5.07,0,0,1-.37-.44c-.18-.2-.34-.41-.5-.62a4.4,4.4,0,0,1-.38-.5c-.19-.24-.37-.49-.54-.74a3.13,3.13,0,0,1-.29-.42c-.2-.28-.39-.56-.56-.84a3,3,0,0,1-.21-.33c-.16-.25-.31-.5-.46-.76s-.23-.38-.34-.58-.36-.65-.52-1a.76.76,0,0,1-.09-.18q-.16-.3-.3-.6c-.16-.32-.31-.65-.45-1s-.36-.83-.53-1.26c0-.12-.1-.25-.14-.38-.13-.34-.26-.69-.38-1a.07.07,0,0,1,0-.05q-.23-.66-.42-1.35c-.14-.46-.26-.93-.38-1.41a31.17,31.17,0,0,1-.78-4.86h0c0-.35-.06-.7-.08-1.06l-.5-9.5-.28-5.32L18.8,857.12l-.42-8-.54-10.33-.15-2.88-1-19.19L16.27,809l-.11-2-1.37-26-.26-4.91L13.4,754.64l-.75-14.2-.8-15.27L9,670.07.09,501.71a32.51,32.51,0,0,1,0-3.42L6.26,381,23.46,54.29A32.58,32.58,0,0,1,54.29,23.46l136.59-7.19,48-2.53h0L496.2.2l2.09-.11a32.51,32.51,0,0,1,3.42,0l2.35.12h0L945.71,23.46a32.58,32.58,0,0,1,30.83,30.83L988.9,289.18l8.93,169.54.22,4.21,1.86,35.36A32.51,32.51,0,0,1,999.91,501.71Z"/><path class="cls-3" d="M802.2,215.93l4.29-2,82,238.11L684.28,477.54l18.58,64.53s-81.2,21.46-127,32.64l107.74-55.48-55.23-68.74,240.67-9.1Z"/><path class="cls-4" d="M330.85,148.73a144.43,144.43,0,0,1-13.67,61.54q-2.31,4.9-5,9.6a142.53,142.53,0,0,1-8.42,13.2,145.33,145.33,0,0,1-63.34,50h0q-3.13,1.29-6.36,2.42a144.78,144.78,0,0,1-48.23,8.22c-3.39,0-6.74-.11-10.06-.36A145.43,145.43,0,0,1,94.47,375q-5.76,2.3-11.77,4.1a145.78,145.78,0,0,1-76.44,2L23.46,54.29A32.58,32.58,0,0,1,54.29,23.46l136.59-7.19,48-2.53h0a145.36,145.36,0,0,1,86.86,96.75c.14.55.29,1.08.43,1.63h0A145.28,145.28,0,0,1,330.85,148.73Z"/><path class="cls-5" d="M593.07,101.5a94.44,94.44,0,0,1-51.62,84.21,93.25,93.25,0,0,1-20.14,7.51,94.54,94.54,0,0,1-174.92,22.13A94.32,94.32,0,0,1,317.08,220q-2.44,0-4.86-.12a94.6,94.6,0,0,1-19.25-3c-.3-.07-.59-.15-.89-.25h0A93.7,93.7,0,0,1,258,199.21c-.57-.45-1.14-.92-1.7-1.39-1-.88-2.07-1.77-3.07-2.69a94.26,94.26,0,0,1-30.61-69.64c0-2.22.08-4.41.24-6.59a94.62,94.62,0,0,1-32-102.63l48-2.53h0L496.2.2l2.09-.11a32.51,32.51,0,0,1,3.42,0l2.35.12h0q1.88,3.53,3.45,7.22A94.5,94.5,0,0,1,593.07,101.5Z"/><path class="cls-6" d="M988.9,289.18a142.92,142.92,0,0,1-123.58,95.57q-5.64.45-11.4.45h-1.51a142.46,142.46,0,0,1-41.64-6.63c-1.8-.56-3.58-1.17-5.35-1.8a143.29,143.29,0,0,1-77.26-66.6,142.2,142.2,0,0,1-43.36,7h-.95c-1.89,0-3.78,0-5.65-.11a142.92,142.92,0,0,1-128.72-94.13l-.28-.79a142,142,0,0,1-7.75-36.43q-.45-5.64-.45-11.4c0-3.36.12-6.67.36-10A143,143,0,0,1,496.2.2l2.09-.11a32.51,32.51,0,0,1,3.42,0l2.35.12h0L945.71,23.46a32.58,32.58,0,0,1,30.83,30.83Z"/><path class="cls-7" d="M984.45,795.5v.06l-.11,2.22-6,114.22-.14,2.71-1.63,31c0,.53-.07,1.06-.12,1.58s-.1.88-.17,1.31a3.85,3.85,0,0,1-.07.49c0,.35-.11.7-.18,1s-.17.88-.28,1.32c-.06.25-.12.5-.19.75a8.48,8.48,0,0,1-.22.83c-.14.49-.3,1-.46,1.47-.25.74-.53,1.46-.83,2.17s-.62,1.41-1,2.09c-.18.38-.38.75-.59,1.11s-.4.69-.61,1-.34.56-.52.83c-.35.56-.73,1.11-1.13,1.64l-.51.67-.21.27q-.36.47-.75.9c-.22.26-.45.52-.68.77s-.67.72-1,1.06-.7.68-1.06,1-.73.65-1.1,1c-.75.62-1.52,1.22-2.33,1.77q-.6.42-1.23.81c-.41.26-.83.51-1.26.76s-.86.47-1.3.69-.88.44-1.33.65-1,.44-1.53.64l-1.24.46c-.45.15-.91.3-1.37.43a31,31,0,0,1-3,.75c-.49.09-1,.18-1.48.25s-1,.14-1.53.19-1,.09-1.55.12l-18.12,1-3.8.2L901,978.9l-7.63.4-15.68.82-19.49,1-15.09.79h0l-4.07.22-46.33,2.44-7.94.41-22.58,1.19-4.63.25h0l-72.15,3.8h0l-49.27,2.59-7.77.41L501.93,999.9h-.22c-.73,0-1.45.05-2.18,0h-.59l-.65,0-1,0-10.52-.55-6.37-.34L448,997.26l-4.46-.23h0l-73.28-3.86-4.32-.23-49.34-2.6-7-.36h0l-14.13-.75h0l-3.69-.19h0l-55.07-2.9-1.41-.07-2.58-.14-29.35-1.55h0l-4-.21-133.45-7L62.5,977l-.92-.05-6.72-.35-.57,0c-.52,0-1-.07-1.55-.12s-1-.11-1.53-.19-1-.16-1.51-.26-.88-.18-1.32-.29l-.79-.2-.8-.22-.18-.06c-.4-.11-.8-.24-1.19-.37l-.41-.15-1-.36c-.43-.17-.85-.35-1.26-.53-.23-.1-.47-.21-.7-.33l-.77-.37a2.49,2.49,0,0,1-.28-.15c-.3-.15-.59-.3-.87-.47s-.35-.19-.52-.29c-.33-.18-.65-.38-1-.58s-.83-.53-1.23-.81-.7-.5-1.05-.76l-.28-.21c-.34-.26-.67-.53-1-.8s-.74-.64-1.1-1-.71-.66-1.06-1-.68-.7-1-1.06-.52-.57-.76-.87a5.07,5.07,0,0,1-.37-.44c-.18-.2-.34-.41-.5-.62a4.4,4.4,0,0,1-.38-.5c-.19-.24-.37-.49-.54-.74a3.13,3.13,0,0,1-.29-.42c-.2-.28-.39-.56-.56-.84a3,3,0,0,1-.21-.33c-.16-.25-.31-.5-.46-.76s-.23-.38-.34-.58-.36-.65-.52-1a.76.76,0,0,1-.09-.18q-.16-.3-.3-.6c-.16-.32-.31-.65-.45-1s-.36-.83-.53-1.26c0-.12-.1-.25-.14-.38-.13-.34-.26-.69-.38-1a.07.07,0,0,1,0-.05q-.23-.66-.42-1.35c-.14-.46-.26-.93-.38-1.41a31.17,31.17,0,0,1-.78-4.86h0c0-.35-.06-.7-.08-1.06l-.5-9.5-.28-5.32L18.8,857.12l-.42-8-.54-10.33-.15-2.88-1-19.19L16.27,809l-.11-2-.57-10.61L15.47,794l-.68-13c3.56-.9,28.49-7,66.77-12.47l4.84-.67c22-3,48-5.67,76.71-7l4.39-.2,2.35-.09q4.1-.17,8.26-.27c19.32-.55,39.69-.44,60.7.61q6.85.35,13.77.61l1.43.06q17.42.67,35.23.88c1.33,0,2.66,0,4,0q9.5.09,19.08,0h1.84c22.77-.15,45.83-.89,68.92-2.27q3.56-.19,7.11-.44,19.62-1.27,39.2-3.18l4.67-.46q16.54-1.68,32.94-3.83c22.67-3,45.06-6.65,66.93-11.06l5.58-1.14q16.61-3.46,32.76-7.51l3.23-.82h0c1.32-.34,2.63-.67,3.94-1l1.43-.37q18.63-4.92,36.47-10.65a161.42,161.42,0,0,1,50-7.73c1.13,0,2.27,0,3.4,0,25.32.5,50.12,6.38,74,14.78l1.2.43c1.71.6,3.41,1.21,5.1,1.85,1.42.52,2.83,1.05,4.24,1.6q8.91,3.4,17.64,7.19c1.12.47,2.23.95,3.34,1.44,6.52,2.85,13,5.8,19.31,8.78l1,.47q5.55,2.61,11,5.24l5.59,2.69h0c16.64,8.06,32.54,15.91,47.56,22.28l.57.24c4.31,1.83,8.56,3.53,12.72,5.07l0,0c13.48,5,26.15,8.38,37.87,9.11,2.48.15,5,.3,7.47.43h0q3.89.22,7.78.4l7.13.31,2.48.1,5.28.19,2.21.08c13.3.41,26.49.63,39,.7h1.12Z"/><path class="cls-8" d="M467,752.35q-17.89,3.07-34.86,6.25l-5.21,1h0q-23.28,4.39-44.86,9l-5.15,1.09q-40.93,8.76-75.93,18l-2.28.6-5.63,1.51q-2.87.76-5.68,1.55-11.85,3.24-23,6.53l-5.07,1.51q-25.26,7.56-47.17,15.31L205.56,817h0a684.78,684.78,0,0,0-64.25,26.7q-3.24,1.56-6.36,3.12h0c-70.83,35.3-100.59,70.8-111.39,99.95,0-.35-.06-.7-.08-1.06l-.5-9.5-.28-5.32L18.8,857.12l-.42-8-.54-10.33-.15-2.88-1-19.19L16.27,809l-.11-2-.57-10.61L15.47,794l-.68-13c3.56-.9,28.49-7,66.77-12.47l4.84-.67c22-3,48-5.67,76.71-7l4.39-.2,2.35-.09q4.1-.17,8.26-.27c19.32-.55,39.69-.44,60.7.61q6.85.35,13.77.61l1.43.06q17.42.67,35.23.88c1.33,0,2.66,0,4,0q9.5.09,19.08,0h1.84c22.77-.15,45.83-.89,68.92-2.27q3.56-.19,7.11-.44,19.62-1.27,39.2-3.18l4.67-.46Q450.6,754.5,467,752.35Z"/><path class="cls-9" d="M435.09,500l-235-90.56,112-172.67-61.33-27.33s35.86-75.95,56.77-118.16L280.62,209.44l88.15,2-148,190Z"/><g class="cls-10"><path class="cls-11" d="M346.86,458.05s-77.68,88.4-75.46,92.1S346.86,458.05,346.86,458.05Z"/><path class="cls-12" d="M519.47,285.89S441.79,374.29,444,378,519.47,285.89,519.47,285.89Z"/><path class="cls-13" d="M418.25,271s-77.67,88.4-75.46,92.1S418.25,271,418.25,271Z"/><path class="cls-14" d="M433.85,333.48s-77.67,88.4-75.46,92.1S433.85,333.48,433.85,333.48Z"/><path class="cls-15" d="M327.19,298.56s-77.68,88.4-75.46,92.09S327.19,298.56,327.19,298.56Z"/><path class="cls-16" d="M214.91,298.56s-77.68,88.4-75.47,92.09S214.91,298.56,214.91,298.56Z"/><path class="cls-17" d="M205.21,379.58s-77.68,88.4-75.46,92.1S205.21,379.58,205.21,379.58Z"/><path class="cls-18" d="M289.43,420S211.76,508.39,214,512.09,289.43,420,289.43,420Z"/><path class="cls-19" d="M256,512.19s-77.68,88.4-75.47,92.1S256,512.19,256,512.19Z"/><path class="cls-20" d="M412.11,425.68s-77.67,88.4-75.46,92.1S412.11,425.68,412.11,425.68Z"/><path class="cls-21" d="M588.88,317.49s-77.68,88.39-75.47,92.09S588.88,317.49,588.88,317.49Z"/><path class="cls-22" d="M557.22,414s-77.68,88.39-75.46,92.09S557.22,414,557.22,414Z"/><path class="cls-23" d="M487.63,373.9S410,462.29,412.16,466,487.63,373.9,487.63,373.9Z"/><path class="cls-24" d="M551.12,517.88s-77.68,88.4-75.46,92.1S551.12,517.88,551.12,517.88Z"/><path class="cls-25" d="M396.1,481.19s-77.68,88.4-75.47,92.09S396.1,481.19,396.1,481.19Z"/><path class="cls-26" d="M324.38,338.45s-77.68,88.4-75.46,92.1S324.38,338.45,324.38,338.45Z"/><path class="cls-27" d="M301.05,206.36s-77.68,88.4-75.46,92.1S301.05,206.36,301.05,206.36Z"/><path class="cls-28" d="M200.57,224.85s-77.68,88.4-75.46,92.1S200.57,224.85,200.57,224.85Z"/><path class="cls-29" d="M209.54,425.68s-77.68,88.4-75.47,92.1S209.54,425.68,209.54,425.68Z"/><path class="cls-30" d="M162.82,573.39s-77.68,88.4-75.47,92.09S162.82,573.39,162.82,573.39Z"/><path class="cls-31" d="M324.38,644.81S246.7,733.2,248.92,736.9,324.38,644.81,324.38,644.81Z"/><path class="cls-32" d="M192.81,630.2s-77.68,88.4-75.46,92.1S192.81,630.2,192.81,630.2Z"/><path class="cls-33" d="M294.46,558.29s-77.68,88.4-75.47,92.1S294.46,558.29,294.46,558.29Z"/><path class="cls-34" d="M449.87,550.25s-77.68,88.4-75.47,92.1S449.87,550.25,449.87,550.25Z"/><path class="cls-35" d="M412.11,655.21s-77.67,88.39-75.46,92.09S412.11,655.21,412.11,655.21Z"/><path class="cls-36" d="M584.46,638.5S506.78,726.89,509,730.59,584.46,638.5,584.46,638.5Z"/><path class="cls-37" d="M597.92,512.19s-77.68,88.4-75.47,92.1S597.92,512.19,597.92,512.19Z"/><path class="cls-38" d="M640.6,638.5s-77.68,88.39-75.47,92.09S640.6,638.5,640.6,638.5Z"/><path class="cls-39" d="M678.35,504.15s-77.68,88.4-75.46,92.1S678.35,504.15,678.35,504.15Z"/><path class="cls-40" d="M673.43,384.55S595.75,473,598,476.64,673.43,384.55,673.43,384.55Z"/><path class="cls-41" d="M456,517.88s-77.68,88.4-75.47,92.1S456,517.88,456,517.88Z"/><path class="cls-42" d="M498.29,644.81s-77.68,88.39-75.47,92.09S498.29,644.81,498.29,644.81Z"/></g><g class="cls-10"><path class="cls-43" d="M757.86,711.87S680.19,800.26,682.4,804,757.86,711.87,757.86,711.87Z"/><path class="cls-44" d="M930.47,539.7S852.79,628.1,855,631.8,930.47,539.7,930.47,539.7Z"/><path class="cls-45" d="M829.25,524.77s-77.67,88.39-75.46,92.09S829.25,524.77,829.25,524.77Z"/><path class="cls-46" d="M844.86,587.3s-77.68,88.39-75.47,92.09S844.86,587.3,844.86,587.3Z"/><path class="cls-47" d="M738.19,552.37s-77.68,88.4-75.46,92.1S738.19,552.37,738.19,552.37Z"/><path class="cls-48" d="M625.91,552.37s-77.68,88.4-75.47,92.1S625.91,552.37,625.91,552.37Z"/><path class="cls-49" d="M616.21,633.4s-77.67,88.39-75.46,92.09S616.21,633.4,616.21,633.4Z"/><path class="cls-50" d="M700.44,673.81S622.76,762.21,625,765.9,700.44,673.81,700.44,673.81Z"/><path class="cls-51" d="M667,766s-77.68,88.4-75.47,92.09S667,766,667,766Z"/><path class="cls-52" d="M823.12,679.5s-77.68,88.39-75.47,92.09S823.12,679.5,823.12,679.5Z"/><path class="cls-53" d="M996,575.72l0,.67c-15.2,19.76-69.66,90.18-71.56,87S980.33,593.66,996,575.72Z"/><path class="cls-54" d="M968.22,667.78s-77.67,88.4-75.46,92.1S968.22,667.78,968.22,667.78Z"/><path class="cls-55" d="M898.63,627.71s-77.68,88.4-75.47,92.1S898.63,627.71,898.63,627.71Z"/><path class="cls-56" d="M962.12,771.7s-77.67,88.39-75.46,92.09S962.12,771.7,962.12,771.7Z"/><path class="cls-57" d="M807.1,735s-77.68,88.4-75.47,92.1S807.1,735,807.1,735Z"/><path class="cls-58" d="M735.38,592.26s-77.68,88.4-75.46,92.1S735.38,592.26,735.38,592.26Z"/><path class="cls-59" d="M712.05,460.17s-77.67,88.4-75.46,92.1S712.05,460.17,712.05,460.17Z"/><path class="cls-60" d="M611.57,478.67s-77.68,88.39-75.46,92.09S611.57,478.67,611.57,478.67Z"/><path class="cls-61" d="M620.54,679.5s-77.68,88.39-75.46,92.09S620.54,679.5,620.54,679.5Z"/><path class="cls-62" d="M573.82,827.2s-77.68,88.4-75.47,92.1S573.82,827.2,573.82,827.2Z"/><path class="cls-63" d="M735.38,898.62s-77.68,88.4-75.46,92.1S735.38,898.62,735.38,898.62Z"/><path class="cls-64" d="M603.81,884s-77.68,88.39-75.46,92.09S603.81,884,603.81,884Z"/><path class="cls-65" d="M705.46,812.11S627.78,900.51,630,904.2,705.46,812.11,705.46,812.11Z"/><path class="cls-66" d="M860.87,804.07s-77.68,88.39-75.46,92.09S860.87,804.07,860.87,804.07Z"/><path class="cls-67" d="M823.07,909.09c-1.58,2.06-39.46,51.54-60.94,77.11l-4.63.25C777.54,961,821.19,911.21,823.07,909.09Z"/><path class="cls-68" d="M978.31,912l-.14,2.71c-15.92,20.49-38.8,49.57-50.58,62.78l-3.8.2c5.93-8.21,17.89-22.73,30.37-37.49,4.34-5.13,8.73-10.28,13-15.21C971.06,920.4,974.85,916,978.31,912Z"/><path class="cls-69" d="M984.52,794.1l-.07,1.4v.06l-.11,2.22c-21.5,27.52-49.52,62.59-50.88,60.32s27.46-36.54,49.88-62.61Z"/><path class="cls-70" d="M867,771.7s-77.68,88.39-75.46,92.09S867,771.7,867,771.7Z"/><path class="cls-71" d="M909.12,898.83c-3,3.88-46.58,60.81-66.06,83.11h0l-4.07.22C855.48,960,905.74,902.66,909.12,898.83Z"/></g><g class="cls-10"><path class="cls-72" d="M265.09,747.18s-77.68,88.4-75.47,92.09S265.09,747.18,265.09,747.18Z"/><path class="cls-73" d="M437.69,575S360,663.41,362.23,667.11,437.69,575,437.69,575Z"/><path class="cls-74" d="M336.48,560.08S258.8,648.47,261,652.17,336.48,560.08,336.48,560.08Z"/><path class="cls-75" d="M352.08,622.61S274.4,711,276.61,714.7,352.08,622.61,352.08,622.61Z"/><path class="cls-76" d="M245.41,587.69S167.74,676.08,170,679.78,245.41,587.69,245.41,587.69Z"/><path class="cls-77" d="M133.13,587.69s-77.68,88.39-75.46,92.09S133.13,587.69,133.13,587.69Z"/><path class="cls-78" d="M123.44,668.71S45.76,757.11,48,760.8,123.44,668.71,123.44,668.71Z"/><path class="cls-79" d="M207.66,709.12s-77.68,88.4-75.47,92.1S207.66,709.12,207.66,709.12Z"/><path class="cls-80" d="M174.21,801.32s-77.68,88.4-75.47,92.1S174.21,801.32,174.21,801.32Z"/><path class="cls-81" d="M330.34,714.81s-77.68,88.4-75.47,92.09S330.34,714.81,330.34,714.81Z"/><path class="cls-82" d="M507.1,606.61s-77.68,88.4-75.46,92.1S507.1,606.61,507.1,606.61Z"/><path class="cls-83" d="M475.45,703.09s-77.68,88.4-75.47,92.1S475.45,703.09,475.45,703.09Z"/><path class="cls-84" d="M405.85,663s-77.68,88.4-75.47,92.1S405.85,663,405.85,663Z"/><path class="cls-85" d="M469.35,807s-77.68,88.39-75.47,92.09S469.35,807,469.35,807Z"/><path class="cls-86" d="M314.32,770.32s-77.68,88.39-75.46,92.09S314.32,770.32,314.32,770.32Z"/><path class="cls-87" d="M242.6,627.58S164.93,716,167.14,719.67,242.6,627.58,242.6,627.58Z"/><path class="cls-88" d="M219.28,495.49s-77.68,88.39-75.47,92.09S219.28,495.49,219.28,495.49Z"/><path class="cls-89" d="M118.8,514s-77.68,88.4-75.47,92.09S118.8,514,118.8,514Z"/><path class="cls-90" d="M127.76,714.81S50.09,803.21,52.3,806.9,127.76,714.81,127.76,714.81Z"/><path class="cls-91" d="M81,862.59c-1.51,2-36.21,47.3-58,73.62l-.28-5.32C44.43,904.23,79.31,864.48,81,862.59Z"/><path class="cls-92" d="M242.55,934c-1.12,1.46-20.43,26.69-39.23,50.38h0l-4-.21C219.22,960.57,241.23,935.5,242.55,934Z"/><path class="cls-93" d="M111,919.4c-1.24,1.61-24.69,32.25-45.13,57.75L62.5,977l-.92-.05c4.92-5.88,10.12-12,15.24-18l.1-.12C93.89,938.88,109.87,920.67,111,919.4Z"/><path class="cls-94" d="M212.68,847.42s-77.68,88.4-75.47,92.1S212.68,847.42,212.68,847.42Z"/><path class="cls-95" d="M368.09,839.38s-77.67,88.4-75.46,92.09S368.09,839.38,368.09,839.38Z"/><path class="cls-96" d="M330.29,944.4c-1,1.35-17.54,22.91-34.85,44.83h0l-3.69-.19C310.26,967.2,329.07,945.78,330.29,944.4Z"/><path class="cls-97" d="M502.63,927.69c-1.44,1.87-32.85,42.91-54.68,69.57l-4.46-.23C465.16,970.37,500.93,929.61,502.63,927.69Z"/><path class="cls-98" d="M516.14,801.32s-77.68,88.4-75.47,92.1S516.14,801.32,516.14,801.32Z"/><path class="cls-99" d="M558.77,927.69c-1.49,1.94-35,45.71-56.84,72.21h-.22c-.73,0-1.45.05-2.18,0h-.59l-.65,0-1,0C518.67,973.36,557,929.68,558.77,927.69Z"/><path class="cls-100" d="M596.58,793.28s-77.68,88.4-75.47,92.09S596.58,793.28,596.58,793.28Z"/><path class="cls-101" d="M591.65,673.68S514,762.07,516.19,765.77,591.65,673.68,591.65,673.68Z"/><path class="cls-102" d="M374.23,807s-77.68,88.39-75.46,92.09S374.23,807,374.23,807Z"/><path class="cls-103" d="M416.46,934c-1.26,1.64-25.57,33.4-46.26,59.17l-4.32-.23C387.29,967.22,415,935.68,416.46,934Z"/></g><path class="cls-104" d="M424.39,559.84S280.79,723.26,284.88,730.1,424.39,559.84,424.39,559.84Z"/><path class="cls-105" d="M743.48,241.57S599.88,405,604,411.82,743.48,241.57,743.48,241.57Z"/><path class="cls-106" d="M556.37,214S412.77,377.37,416.86,384.21,556.37,214,556.37,214Z"/><path class="cls-107" d="M585.21,329.55S441.61,493,445.7,499.81,585.21,329.55,585.21,329.55Z"/><path class="cls-108" d="M388,265S244.42,428.41,248.51,435.24,388,265,388,265Z"/><path class="cls-109" d="M180.45,265S36.84,428.41,40.93,435.24,180.45,265,180.45,265Z"/><path class="cls-110" d="M162.52,414.78S18.92,578.19,23,585,162.52,414.78,162.52,414.78Z"/><path class="cls-111" d="M318.22,489.49S174.62,652.91,178.71,659.74,318.22,489.49,318.22,489.49Z"/><path class="cls-112" d="M256.39,659.94S112.79,823.35,116.88,830.19,256.39,659.94,256.39,659.94Z"/><path class="cls-113" d="M545,500S401.42,663.42,405.51,670.25,545,500,545,500Z"/><path class="cls-114" d="M871.8,300S728.2,463.4,732.29,470.23,871.8,300,871.8,300Z"/><path class="cls-115" d="M791.29,451.58S647.68,615,651.77,621.83,791.29,451.58,791.29,451.58Z"/><path class="cls-116" d="M684.62,404.26S541,567.68,545.11,574.52,684.62,404.26,684.62,404.26Z"/><path class="cls-117" d="M802,670.45S658.4,833.87,662.49,840.7,802,670.45,802,670.45Z"/><path class="cls-118" d="M515.41,602.62S371.81,766,375.9,772.87,515.41,602.62,515.41,602.62Z"/><path class="cls-119" d="M382.83,338.74S239.23,502.15,243.32,509,382.83,338.74,382.83,338.74Z"/><path class="cls-120" d="M339.7,94.54S196.1,258,200.19,264.8,339.7,94.54,339.7,94.54Z"/><path class="cls-121" d="M153.94,128.73S10.34,292.15,14.43,299,153.94,128.73,153.94,128.73Z"/><path class="cls-122" d="M170.52,500S26.92,663.42,31,670.25,170.52,500,170.52,500Z"/><path class="cls-123" d="M84.06,773.18c-1.91,2.49-32.95,43-65.26,83.94l-.42-8C50.8,811.05,82.05,775.45,84.06,773.18Z"/><path class="cls-124" d="M382.74,905.21c-1.93,2.52-33.55,43.83-66.2,85.13l-7-.36C344.49,948.77,380.57,907.66,382.74,905.21Z"/><path class="cls-125" d="M139.5,878.22c-1.93,2.52-31.28,40.87-62.58,80.55l-.1.12c-4.75,6-9.56,12.1-14.32,18.08l-.92-.05-6.72-.35C92.86,931.34,137.05,881,139.5,878.22Z"/><path class="cls-126" d="M327.5,745.16S183.9,908.58,188,915.41,327.5,745.16,327.5,745.16Z"/><path class="cls-127" d="M614.82,730.29S471.22,893.71,475.31,900.55,614.82,730.29,614.82,730.29Z"/><path class="cls-128" d="M545,924.35c-.92,1.2-28.07,36.68-58.18,75l-6.37-.34C513,960.75,544.06,925.41,545,924.35Z"/><path class="cls-129" d="M863.61,893.46c-1.05,1.36-36.2,47.31-71,91.14l-7.94.41C821.87,941,862.54,894.67,863.61,893.46Z"/><path class="cls-130" d="M888.51,659.94S744.91,823.35,749,830.19,888.51,659.94,888.51,659.94Z"/><path class="cls-131" d="M967.32,893.55c-.67.88-4.9,6.4-11.5,15-9.86,12.8-25,32.39-41.49,53.39-4.39,5.6-8.88,11.3-13.38,17l-7.63.4q5.1-6,10.21-12c20-23.47,39.35-45.77,51.42-59.6C962,899.58,966.59,894.38,967.32,893.55Z"/><path class="cls-132" d="M989.47,700.07l-.38,7.13c-39.36,50.3-88.94,112.22-91.39,108.12S948.09,748.21,989.47,700.07Z"/><path class="cls-133" d="M998.05,462.93C957.9,514.65,891.45,599,888.6,594.21a1.14,1.14,0,0,1,0-.78c.66-3.19,8.28-13.74,19.66-28.14l0,0,0,0c23.34-29.51,62.4-75.14,89.56-106.51Z"/><path class="cls-134" d="M626.17,670.45S482.57,833.87,486.66,840.7,626.17,670.45,626.17,670.45Z"/><path class="cls-135" d="M704.26,905.17c-1,1.35-14.55,19-32.79,42.48l-3.27,4.2c-9.9,12.73-21,26.9-32.14,41l-7.77.41C664.26,950.71,702.45,907.21,704.26,905.17Z"/><path class="cls-136" d="M967.12,925c-.21,2.7-1.69,5.64-5,9a50.09,50.09,0,0,1-8,6.2c-9.1,6-23.35,13.46-39.83,21.7-3.51,1.76-7.12,3.55-10.8,5.38-8.36,4.14-17.1,8.44-25.89,12.84l-19.49,1-15.09.79h0l-4.07.22-46.33,2.44-7.94.41-22.58,1.19-4.63.25h0l-72.15,3.8h0a106.24,106.24,0,0,1-11.28-14c-.69-1.05-1.34-2.09-1.94-3.12-4.79-8.22-6.55-15.68-3.91-21.24a12.46,12.46,0,0,1,3.27-4.2c2.48-2.11,6.06-3.72,10.88-4.7a87.2,87.2,0,0,0,20.75-7.07h0c2-.94,3.88-2,5.76-3,41.85-23.78,63.33-74.56,100.69-69h0c1.41.21,2.77.4,4.07.56,39.87,4.86,31.87-14,60.41-11.34,0,0,6.57.08,15.67.94,5.74-11.29,12-22.33,19.4-26.85,5.36-3.27,2-10-4.35-17.13-.91-1-1.88-2.05-2.9-3.08-10.91-11.11-27-22.3-27.79-22.82,13.48,5,26.15,8.38,37.87,9.11,2.48.15,5,.3,7.47.43h0q3.89.22,7.78.4c-5.52,3-6.6,15-7.68,27h0c-.18,2-.35,3.94-.55,5.87-1,9.82-2.52,18.47-7.19,20.43-2.86,1.2-6.86,4.17-11.23,7.93,20.45,3,44.91,10,42.72,26.42-1.15,8.62,2.06,15.05,6.47,20.39a66.54,66.54,0,0,0,5.2,5.52l.87.83C961.82,914.23,967.59,919,967.12,925Z"/><path class="cls-8" d="M874.35,881.43l-.3.34C871.21,885,871.76,884.26,874.35,881.43Z"/><path class="cls-8" d="M936.82,794.52a3.74,3.74,0,0,1-2.48-.1Z"/><path class="cls-137" d="M781.5,877.65s-7,5.52-9,8.87S783.49,885.44,781.5,877.65Z"/><path class="cls-138" d="M967.12,925c-.21,2.7-1.69,5.64-5,9a50.09,50.09,0,0,1-8,6.2c-9.1,6-23.35,13.46-39.83,21.7-3.51,1.76-7.12,3.55-10.8,5.38-8.36,4.14-17.1,8.44-25.89,12.84l-19.49,1c46.76-31.51,84.27-71.07,91.6-79a66.54,66.54,0,0,0,5.2,5.52l.87.83C961.82,914.23,967.59,919,967.12,925Z"/></g></g></g></svg>