<svg xmlns="http://www.w3.org/2000/svg" viewBox="0 0 1000 1000"><defs><style>.cls-1{fill:none;}.cls-2{fill:#f1bc9e;}.cls-3{fill:#ea9975;}.cls-4{opacity:0.5;}</style></defs><g id="Layer_2" data-name="Layer 2"><g id="OutPut"><rect id="BG" class="cls-1" width="1000" height="1000"/></g><g id="Body"><g id="A"><path class="cls-2" d="M562.15,623.79V665.9c0,14.06-6.16,27.1-13.76,37.66-6.57,9.13-13.81,16.42-24.1,20.93-.59.26-1.18.51-1.78.75l-.3.12c-6.88,2.71-14.35,3.54-22.12,3.54,0,0-1.17,0-1.67,0-7.25-.17-14.2-1-20.65-3.54-.51-.2-1-.41-1.53-.63h0l-.37-.17c-10.61-4.6-17.58-11.47-24.22-21-7.3-10.44-13.76-23.9-13.76-37.66V623.79a6.82,6.82,0,0,1,6.72-6.89H555.42A6.83,6.83,0,0,1,562.15,623.79Z"/><path class="cls-3" d="M502,705.65a2,2,0,0,1-4.08,0c0-1.13.83-1.13,2-1.13S502,704.52,502,705.65Z"/><path class="cls-3" d="M499.34,652.51s3.61,15.14-12.9,15.5-37.77-1.24-39.74-2.62C456.05,666.69,501.16,674.36,499.34,652.51Z"/><path class="cls-3" d="M500.66,652.51s-3.61,15.14,12.9,15.5,37.77-1.24,39.74-2.62C544,666.69,498.84,674.36,500.66,652.51Z"/><path class="cls-3" d="M537.07,663.64s7,5.33,8.37-1.85C538.71,661.61,537.07,663.64,537.07,663.64Z"/><path class="cls-3" d="M462.92,664s-7.19,5.13-8.31-2.09C461.33,662,462.92,664,462.92,664Z"/><path class="cls-3" d="M587.13,737.56l3.71-1.75c.16-1.7.45-3.54.73-5.4,0-.19,0-.38.07-.57-.19.2-.38.39-.56.59a29.3,29.3,0,0,0-4.36,6.77A.29.29,0,0,0,587.13,737.56Z"/><path class="cls-3" d="M587.35,730.63l3.73-.2.49,0c0-.19,0-.38.07-.57.14-.91.26-1.81.35-2.71a22.65,22.65,0,0,0-4.81,3.15A.2.2,0,0,0,587.35,730.63Z"/><path class="cls-2" d="M583.54,721.48a1.26,1.26,0,0,0,.46-.87c.11-1.63.85-6.6,5.83-3.45,2.57,1.62,2.66,5.58,2.16,10-.09.9-.21,1.8-.35,2.71,0,.19,0,.38-.07.57-.28,1.86-.57,3.7-.73,5.4a18.61,18.61,0,0,0-.05,4.2,1.31,1.31,0,0,0,2.18.73c11.81-10.79,16.57-32.09,18-40.48,12.4-26.76,8.11-42.07,8.11-42.07s-44-61.65-45.12-11.9c-.58,25,5.22,45.88,12.82,57-7.83,3.3-9,7.08-10.65,14.37C573.67,728.86,581.56,723.07,583.54,721.48Z"/><path class="cls-3" d="M611,700.58a9.82,9.82,0,0,0-1.9-7.3A24.79,24.79,0,0,0,611,700.58Z"/><path class="cls-3" d="M591.49,702.83a6.94,6.94,0,0,0-6.4,1.2C587.92,704,591.13,703.18,591.49,702.83Z"/><path class="cls-3" d="M582.8,595.58s-41.51,28.54-16.75,58.24,47.21.06,47.21.06S616.23,592.45,582.8,595.58Z"/><path class="cls-2" d="M584.81,601.16S547.23,628,570.18,656.74s43.11.61,43.11.61S615.31,598.55,584.81,601.16Z"/><path class="cls-3" d="M412.87,737.56l-3.71-1.75c-.16-1.7-.45-3.54-.73-5.4,0-.19-.05-.38-.07-.57l.56.59a29.3,29.3,0,0,1,4.36,6.77A.29.29,0,0,1,412.87,737.56Z"/><path class="cls-3" d="M412.65,730.63l-3.73-.2-.49,0c0-.19-.05-.38-.07-.57-.14-.91-.26-1.81-.36-2.71a22.5,22.5,0,0,1,4.82,3.15A.2.2,0,0,1,412.65,730.63Z"/><path class="cls-2" d="M423.84,717.63c2.49,11.23-5.4,5.44-7.38,3.84a1.22,1.22,0,0,1-.46-.86c-.11-1.64-.85-6.6-5.83-3.46-2.57,1.62-2.66,5.59-2.17,10,.1.89.22,1.8.36,2.71,0,.19.05.37.07.57.28,1.86.57,3.7.73,5.4a18.61,18.61,0,0,1,0,4.2,1.31,1.31,0,0,1-2.18.73c-11.81-10.79-16.57-32.09-18-40.48a111,111,0,0,1-5.14-13.14,85.17,85.17,0,0,1-2.43-9.44c-.1-.5-.19-1-.28-1.47s-.11-.67-.17-1a63.68,63.68,0,0,1-.79-8.23h0c0-.15,0-.29,0-.43a32.1,32.1,0,0,1,.71-8.36s44-61.64,45.12-11.9a137.18,137.18,0,0,1-2.08,27.66l-.18.95c-.4,2.16-.86,4.24-1.37,6.26l-.09.37c-.14.57-.29,1.13-.44,1.68-.7,2.54-1.47,4.94-2.29,7.2h0a58.37,58.37,0,0,1-6.37,12.84C421,706.56,422.22,710.33,423.84,717.63Z"/><path class="cls-3" d="M389.05,700.58a9.82,9.82,0,0,1,1.9-7.3A24.79,24.79,0,0,1,389.05,700.58Z"/><path class="cls-3" d="M407.51,702.37a6.94,6.94,0,0,1,6.4,1.2C411.08,703.54,407.88,702.72,407.51,702.37Z"/><path class="cls-3" d="M417.2,595.58s41.51,28.54,16.75,58.24-47.21.06-47.21.06S383.77,592.45,417.2,595.58Z"/><path class="cls-2" d="M415.19,601.16s37.58,26.86,14.63,55.58-43.11.61-43.11.61S384.69,598.55,415.19,601.16Z"/><path class="cls-4" d="M423.75,674.89c-.4,2.16-.86,4.24-1.37,6.26l-.09.37c-18.19,2-29.32.28-41.31-6.31a63.68,63.68,0,0,1-.79-8.23h0c0-.15,0-.29,0-.43C386.85,670.84,401.82,677.67,423.75,674.89Z"/><path class="cls-4" d="M388.72,681.22l-.8,7.3a41.29,41.29,0,0,1-4.06-1.4,85.17,85.17,0,0,1-2.43-9.44A36.5,36.5,0,0,0,388.72,681.22Z"/><path class="cls-4" d="M400,683.86l-1,6.68a61.85,61.85,0,0,1-10.1-1.77l.5-7.34A50.39,50.39,0,0,0,400,683.86Z"/><path class="cls-4" d="M413,690.87a103.38,103.38,0,0,1-12.7-.21l.52-6.7a68.31,68.31,0,0,0,12.06.25Z"/><path class="cls-4" d="M421.85,683.2c-.7,2.54-1.47,4.94-2.29,7.2h0c-1.49.14-3.18.27-5,.37l-.2-6.67C416.72,683.92,419.22,683.63,421.85,683.2Z"/></g></g></g></svg>