<svg xmlns="http://www.w3.org/2000/svg" viewBox="0 0 1000 1000"><defs><style>.cls-1{fill:none;}.cls-2{fill:#a66339;}.cls-3{fill:#734227;}.cls-4{opacity:0.4;}</style></defs><g id="Layer_2" data-name="Layer 2"><g id="OutPut"><rect id="BG" class="cls-1" width="1000" height="1000"/></g><g id="Body"><g id="_1" data-name="1"><path class="cls-2" d="M562.15,623.69V665.8c0,14-6.27,27.24-13.76,37.76-6.59,9.25-13.71,16.28-24.1,20.83-.69.3-1.38.59-2.08.87-6.88,2.71-14.35,3.54-22.12,3.54,0,0-1.17,0-1.67,0-7.25-.17-14.2-1-20.65-3.54-.51-.2-1-.41-1.53-.63h0c-10.84-4.63-17.86-11.33-24.59-21-7.21-10.4-13.76-24.09-13.76-37.76V623.69a6.82,6.82,0,0,1,6.72-6.89H555.42A6.83,6.83,0,0,1,562.15,623.69Z"/><path class="cls-3" d="M502,705.57a2,2,0,1,1-4.08,0c0-1.13.83-1.13,2-1.13S502,704.44,502,705.57Z"/><path class="cls-3" d="M499.34,652.43s3.61,15.14-12.9,15.5-37.77-1.24-39.74-2.62C456.05,666.6,501.16,674.28,499.34,652.43Z"/><path class="cls-3" d="M500.66,652.43s-3.61,15.14,12.9,15.5,37.77-1.24,39.74-2.62C544,666.6,498.84,674.28,500.66,652.43Z"/><path class="cls-3" d="M537.07,663.56s7,5.33,8.37-1.85C538.71,661.53,537.07,663.56,537.07,663.56Z"/><path class="cls-3" d="M462.92,663.94s-7.19,5.13-8.31-2.09C461.33,661.87,462.92,663.94,462.92,663.94Z"/><path class="cls-3" d="M412.87,737.48l-3.7-1.75c-.17-1.7-.46-3.54-.73-5.4,0-.19-.06-.38-.08-.57.19.19.38.39.56.59a29.3,29.3,0,0,1,4.36,6.77A.29.29,0,0,1,412.87,737.48Z"/><path class="cls-3" d="M412.65,730.55l-3.73-.2-.48,0c0-.19-.06-.38-.08-.57-.14-.91-.25-1.81-.35-2.71a22.65,22.65,0,0,1,4.81,3.15A.2.2,0,0,1,412.65,730.55Z"/><path class="cls-2" d="M423.84,717.55c2.49,11.23-5.4,5.44-7.38,3.84a1.22,1.22,0,0,1-.46-.86c-.11-1.64-.85-6.6-5.83-3.46-2.57,1.62-2.66,5.59-2.17,10,.1.89.22,1.8.36,2.71,0,.19.05.37.07.57.28,1.86.57,3.7.73,5.4a18.61,18.61,0,0,1,0,4.2,1.31,1.31,0,0,1-2.18.73c-11.81-10.79-16.57-32.09-18-40.48A111,111,0,0,1,383.86,687a85.17,85.17,0,0,1-2.43-9.44c-.1-.5-.19-1-.28-1.47s-.11-.67-.17-1a63.68,63.68,0,0,1-.79-8.23h0c0-.15,0-.29,0-.43a32.1,32.1,0,0,1,.71-8.36s44-61.64,45.12-11.9a137.18,137.18,0,0,1-2.08,27.66l-.18.95c-.4,2.16-.86,4.24-1.37,6.26l-.09.37c-.14.57-.29,1.13-.44,1.68-.7,2.54-1.47,4.94-2.29,7.2h0a58.37,58.37,0,0,1-6.37,12.84C421,706.48,422.22,710.25,423.84,717.55Z"/><path class="cls-3" d="M389.06,700.5a9.79,9.79,0,0,1,1.89-7.3A25.23,25.23,0,0,1,389.06,700.5Z"/><path class="cls-3" d="M407.52,702.29a6.92,6.92,0,0,1,6.39,1.2C411.08,703.46,407.88,702.64,407.52,702.29Z"/><path class="cls-3" d="M417.21,595.5S458.71,624,434,653.74s-47.21.06-47.21.06S383.77,592.37,417.21,595.5Z"/><path class="cls-2" d="M415.19,601.08s37.58,26.86,14.63,55.58-43.11.61-43.11.61S384.69,598.47,415.19,601.08Z"/><path class="cls-3" d="M587.13,737.48l3.71-1.75c.16-1.7.45-3.54.73-5.4,0-.19,0-.38.08-.57-.2.19-.38.39-.57.59a29.3,29.3,0,0,0-4.36,6.77A.29.29,0,0,0,587.13,737.48Z"/><path class="cls-3" d="M587.35,730.55l3.73-.2.49,0c0-.19,0-.38.08-.57.13-.91.25-1.81.35-2.71a22.5,22.5,0,0,0-4.82,3.15A.2.2,0,0,0,587.35,730.55Z"/><path class="cls-2" d="M619.34,672.9c-.88,6.9-3.15,16.09-8.33,27.28-1.47,8.39-6.22,29.69-18,40.48a1.31,1.31,0,0,1-2.18-.73,19.21,19.21,0,0,1,.05-4.2c.16-1.7.45-3.54.73-5.4,0-.19,0-.38.08-.57.13-.91.25-1.81.35-2.71.49-4.39.4-8.35-2.17-10-5-3.15-5.72,1.81-5.83,3.45a1.26,1.26,0,0,1-.46.87c-2,1.59-9.86,7.38-7.38-3.85,1.23-5.54,2.22-9.06,6.07-11.87l.2-.15a23.51,23.51,0,0,1,4.38-2.35c-.38-.56-.76-1.14-1.12-1.74a58.86,58.86,0,0,1,14.84-12.64c11.64-6.65,13.61-9.9,15.4-11.83A36.5,36.5,0,0,0,619.34,672.9Z"/><path class="cls-2" d="M619.34,672.9a36.5,36.5,0,0,1-3.41,4.07c-1.79,1.93-3.76,5.18-15.4,11.83a58.86,58.86,0,0,0-14.84,12.64c-.16-.24-.31-.49-.45-.74a64.71,64.71,0,0,1-5.32-11.85,0,0,0,0,0,0,0c-.87-2.51-1.66-5.2-2.37-8.05v0c-.43-1.74-.83-3.55-1.19-5.41a123.89,123.89,0,0,1-1.88-13.58,2.31,2.31,0,0,1,0-.37q-.13-1.42-.21-2.88c-.06-.87-.11-1.74-.15-2.62-.11-2.75-.16-5.55-.11-8.42h0c0-.42,0-.83,0-1.25a50.09,50.09,0,0,1,1.15-10.31,15.12,15.12,0,0,1,3.2-6.81h0a6.72,6.72,0,0,1,3.27-2h0a7.49,7.49,0,0,1,2.52-.23,17.59,17.59,0,0,1,7.64,2.9,68.13,68.13,0,0,1,12.37,10.48c.65.66,1.28,1.34,1.9,2,2.69,2.88,5.14,5.77,7.19,8.28a.23.23,0,0,0,.08.09h0c2.09,2.58,3.75,4.76,4.74,6.09.67.9,1,1.42,1,1.42S620.56,663.29,619.34,672.9Z"/><path class="cls-3" d="M611,700.5a9.82,9.82,0,0,0-1.9-7.3A24.79,24.79,0,0,0,611,700.5Z"/><path class="cls-3" d="M591.49,702.75a6.92,6.92,0,0,0-6.39,1.2C587.92,703.92,591.13,703.09,591.49,702.75Z"/><path class="cls-3" d="M613.33,650.59h0q0,1.08,0,1.83v.11c0,.81,0,1.26,0,1.26a39.49,39.49,0,0,1-14,10.94h0a23.26,23.26,0,0,1-19.43.15c-.5-.22-1-.46-1.49-.71l-.09-.05c-.81-.42-1.61-.89-2.43-1.41h0c-.46-.3-.93-.62-1.39-1a45.93,45.93,0,0,1-8.42-8l-.28-.35a33.26,33.26,0,0,1-6.72-12.71c-6.36-24.49,23.75-45.18,23.75-45.18a22.15,22.15,0,0,1,9.31,1h0c12.53,4.29,17.71,20.27,19.81,34.28h0A134,134,0,0,1,613.33,650.59Z"/><path class="cls-2" d="M613.3,657.27s-5.14,7.16-13.17,10.55a21,21,0,0,1-7,1.72,19.65,19.65,0,0,1-6.53-.66,24.44,24.44,0,0,1-7.1-3.33,42.24,42.24,0,0,1-9.33-8.89c-.29-.36-.57-.72-.83-1.08a32.55,32.55,0,0,1-5.76-11.75h0a27.4,27.4,0,0,1-.81-6.19c0-.61,0-1.21,0-1.81a34.66,34.66,0,0,1,4.53-15.07,57.9,57.9,0,0,1,7.82-10.81,67.43,67.43,0,0,1,9.66-8.86c7.63-.65,13.22,2.54,17.33,7.69h0c4.86,6.11,7.62,15,9.19,23.46h0A131.45,131.45,0,0,1,613.3,657.27Z"/><g class="cls-4"><path d="M619.34,672.9a36.5,36.5,0,0,1-3.41,4.07c-1.79,1.93-3.76,5.18-15.4,11.83a58.86,58.86,0,0,0-14.84,12.64c-.16-.24-.31-.49-.45-.74,4.92-8.38,12.52-22.55,10.77-27.45a6.75,6.75,0,0,0-2.87-3.71,9.08,9.08,0,0,0-6.53-.66,12.1,12.1,0,0,0-3,1,13.2,13.2,0,0,0-6.11,10.84c-.43-1.74-.83-3.55-1.19-5.41a25.4,25.4,0,0,1,3.16-9.79c.12-.22.24-.44.37-.65a22.71,22.71,0,0,1,6.3-7c6.26-4.34,12-7.41,18-17.7a87,87,0,0,0,5.14-10.58c2.16-5-3.85-15.53-13.45-6.56-2.58,2.41-3.74,4.66-4.06,6.66-.88,5.42,4.46,9,4.46,9s-11.11-2.21-12.1-11.91a16.33,16.33,0,0,1,.49-5.73,20,20,0,0,1,8.1-11.94s-5.88,9.09,5.07,7.21c4-.69,5.18-4,4.33-7.59,4.86,6.11,7.62,15,9.19,23.46h0c-1.34,3.07-3.35,6.57-5.27,10-2.33,4.12-4.52,8.09-5.26,11-1,4-1.87,8.14-1.49,11.51h0a10.07,10.07,0,0,0,.82,3.07,7,7,0,0,0,.8,1.34c2.79,3.68,8,5.72,12.42,1.49s4.88-6.74,5.41-10.57a6.23,6.23,0,0,0-.69-3.39c.67.9,1,1.42,1,1.42S620.56,663.29,619.34,672.9Z"/><path d="M562.77,637.63c0-.61,0-1.21,0-1.81a12.05,12.05,0,0,1,3-1.25A7.23,7.23,0,0,0,562.77,637.63Z"/><path d="M580.71,655.94c2.73-5.08-1.18-12.74-6.74-8.48h0l-.14.1c-2.82,2.26-1.62,5.23.25,8.32,1.08,1.78,2.38,3.6,3.25,5.33a13.38,13.38,0,0,0-3.1-2.71c-1.43-1-3.13-1.92-4.88-2.93a32.55,32.55,0,0,1-5.76-11.75c2,2.51,5.86,3.31,8.49-1,3.55-5.84-2.73-11.39-4.42-17.85.6-.2,1.18-.39,1.74-.59,0,3.43,2.6,7.92,5.74,11.52a31.13,31.13,0,0,0,3.32,3.29C585,644.69,584.83,649.82,580.71,655.94Z"/><path d="M576.58,629.44c3.26-4.3,2.2-6.8.45-8.2a48.21,48.21,0,0,0,5.16-2.92c.37,1,.64,2,.64,2,.72,3.28,0,5.39-1.2,6.74h0a7.18,7.18,0,0,1-3.27,2h0A8.81,8.81,0,0,1,576.58,629.44Z"/><path d="M584.31,608.69l-6.91,0A8.38,8.38,0,0,1,584.31,608.69Z"/></g></g></g></g></svg>