<svg xmlns="http://www.w3.org/2000/svg" viewBox="0 0 1000 1000"><defs><style>.cls-1{fill:none;}.cls-2{fill:#a08a72;}.cls-3{opacity:0.2;}.cls-4{fill:#d1b693;}.cls-5{opacity:0.6;}.cls-6{fill:#999;}.cls-7{fill:#7f7f7f;}.cls-8{fill:#666;}</style></defs><g id="Layer_2" data-name="Layer 2"><g id="OutPut"><rect id="BG" class="cls-1" width="1000" height="1000"/></g><g id="Body"><g id="_3" data-name="3"><path class="cls-2" d="M562,631.5a7.52,7.52,0,0,1-.55,2.78,9.19,9.19,0,0,0-1.65-2.83c-8.3-10-37-6.35-46.74-4.78a6.38,6.38,0,0,0-2.82,1.74c-1.54,1.35-6.07-4.63-10.13-4.78h-.13c-4.06.15-8.59,6.13-10.14,4.78a6.13,6.13,0,0,0-2.81-1.74c-9.68-1.57-38.44-5.24-46.75,4.78a9.19,9.19,0,0,0-1.65,2.83,7.52,7.52,0,0,1-.55-2.78q0-.35,0-.69c0-.22.06-.43.11-.65s.05-.23.08-.35a12.57,12.57,0,0,1,.46-1.51c4.56-9.51,34.21-6.23,46.34-4.69,2.3.3,4.48-1.68,5.59-5a44.41,44.41,0,0,1,3.4-7.53c1.39-2.45,4.29-3.11,5.45-3.27a3,3,0,0,1,.95,0c1.13.16,4.12.81,5.52,3.27a45.3,45.3,0,0,1,3.38,7.53c1.11,3.34,3.29,5.32,5.59,5,12.13-1.54,41.78-4.82,46.34,4.69a11.74,11.74,0,0,1,.44,1.46c0,.14.07.27.1.4s.08.43.11.65S562,631.27,562,631.5Z"/><path class="cls-2" d="M522.54,723.44v0c0,4.56-8.21,2.46-15.76,1a44.48,44.48,0,0,0-7.65-1,51.36,51.36,0,0,0-8.27,1c-7,1.25-14.33,2.82-14.64-.76a1.93,1.93,0,0,1,0-.24c0-5.5,22.75-8.84,22.75-8.84S522.44,717.22,522.54,723.44Z"/><path class="cls-2" d="M522.54,730.12v0c0,4.56-8.21,2.46-15.76,1a44.48,44.48,0,0,0-7.65-1,51.36,51.36,0,0,0-8.27,1c-7,1.25-14.33,2.82-14.64-.76a1.93,1.93,0,0,1,0-.24c0-5.5,22.75-8.84,22.75-8.84S522.44,723.9,522.54,730.12Z"/><path class="cls-2" d="M517.65,718.67a2.21,2.21,0,0,1-.51.55l0,0c-.24.14-.47.25-.71.37-1.3.71-3.92-.59-7.06-2-1.34-.59-2.77-1.22-4.23-1.71h0a16.7,16.7,0,0,0-4.55-1l-.43,0h-.21a19.89,19.89,0,0,0-6.92,1.72c-4.13,1.7-7.77,3.89-9.39,3a2.38,2.38,0,0,1-.82-.61c-1.47-1.6-.47-4.63,1.2-7.66,0,0,0,0,0-.05a8.71,8.71,0,0,0,.95-1.41q.61-1.11,1.29-2.13l.39-.56a38.57,38.57,0,0,1,3.44-4.36,3.23,3.23,0,0,1,.34-.38v0c2.24-2.43,6.9-3.08,8.77-3.24a7.82,7.82,0,0,1,1.53,0c1.82.16,6.62.8,8.88,3.24l.56.66a39.4,39.4,0,0,1,3.94,5.23l.13.2c.27.45.55.9.8,1.38a11.94,11.94,0,0,0,.92,1.39C517.6,714.2,518.68,717.11,517.65,718.67Z"/><path class="cls-3" d="M517.65,718.67a2.21,2.21,0,0,1-.51.55l0,0c-.24.14-.47.25-.71.37-1.3.71-3.92-.59-7.06-2A60.19,60.19,0,0,0,517.65,718.67Z"/><path class="cls-3" d="M482.75,719c1.43-.36,4.56-1.1,10.21-2.4-4.13,1.7-7.77,3.89-9.39,3A2.38,2.38,0,0,1,482.75,719Z"/><path class="cls-2" d="M515.85,710.15a2.21,2.21,0,0,1-.46.55s0,0,0,0c-.21.14-.41.25-.63.38-1.17.71-3.52-.6-6.34-2a41.31,41.31,0,0,0-3.8-1.73h0a14,14,0,0,0-4.09-1l-.39,0h-.19a16.34,16.34,0,0,0-6.2,1.74c-3.71,1.71-7,3.92-8.44,3a2.48,2.48,0,0,1-.73-.62c-1.32-1.61-.42-4.67,1.08-7.73,0,0,0,0,0,0a8.47,8.47,0,0,0,.85-1.42c.36-.75.75-1.46,1.16-2.15l.34-.56a39.32,39.32,0,0,1,3.09-4.4,3.12,3.12,0,0,1,.31-.38v0c2-2.45,6.19-3.11,7.87-3.27a6.28,6.28,0,0,1,1.37,0c1.63.16,5.95.81,8,3.27l.51.66a39.65,39.65,0,0,1,3.53,5.28,2.12,2.12,0,0,1,.12.2c.25.45.49.91.72,1.39a12,12,0,0,0,.82,1.4C515.81,705.64,516.77,708.57,515.85,710.15Z"/><path class="cls-3" d="M515.85,710.15a2.21,2.21,0,0,1-.46.55s0,0,0,0c-.21.14-.41.25-.63.38-1.17.71-3.52-.6-6.34-2A48.49,48.49,0,0,0,515.85,710.15Z"/><path class="cls-3" d="M484.52,710.49c1.28-.36,4.1-1.11,9.17-2.42-3.71,1.71-7,3.92-8.44,3A2.48,2.48,0,0,1,484.52,710.49Z"/><path class="cls-2" d="M512.92,699.65a2.44,2.44,0,0,1-.38.55s0,0,0,0-.34.25-.51.38c-.95.71-2.87-.6-5.16-2a32,32,0,0,0-3.1-1.73h0a9.7,9.7,0,0,0-3.33-1l-.31,0h-.16a11.48,11.48,0,0,0-5.05,1.74c-3,1.71-5.68,3.92-6.87,3a2.08,2.08,0,0,1-.6-.62c-1.07-1.61-.34-4.67.88-7.73,0,0,0,0,0,0a8.52,8.52,0,0,0,.7-1.42c.29-.75.61-1.46.94-2.15l.28-.56a39.11,39.11,0,0,1,2.52-4.4l.24-.38,0,0c1.63-2.45,5-3.11,6.41-3.27a4.13,4.13,0,0,1,1.11,0c1.33.16,4.85.81,6.49,3.27l.42.66a42.37,42.37,0,0,1,2.88,5.28,1.76,1.76,0,0,0,.09.2c.2.45.4.91.59,1.39a11.32,11.32,0,0,0,.67,1.4C512.88,695.14,513.67,698.07,512.92,699.65Z"/><path class="cls-3" d="M512.92,699.65a2.44,2.44,0,0,1-.38.55s0,0,0,0-.34.25-.51.38c-.95.71-2.87-.6-5.16-2A32.53,32.53,0,0,0,512.92,699.65Z"/><path class="cls-3" d="M487.4,700c1.05-.36,3.34-1.11,7.47-2.42-3,1.71-5.68,3.92-6.87,3A2.08,2.08,0,0,1,487.4,700Z"/><path class="cls-2" d="M557.72,687a8,8,0,0,1-.51,2.76,9.45,9.45,0,0,0-1.54-2.81c-7.73-9.93-34.51-6.29-43.54-4.73a5.86,5.86,0,0,0-2.63,1.72c-1.43,1.34-5.65-4.59-9.43-4.74h-.13c-3.78.15-8,6.08-9.44,4.74a5.62,5.62,0,0,0-2.62-1.72c-9-1.56-35.81-5.2-43.55,4.73a9.45,9.45,0,0,0-1.54,2.81,8,8,0,0,1-.51-2.76q0-.35,0-.69c0-.21.06-.42.1-.63s0-.23.08-.35a5.43,5.43,0,0,1,.35-1c4.25-9.43,31.94-6.69,43.24-5.17,2.15.3,4.18-1.67,5.21-5a44.86,44.86,0,0,1,3.17-7.46,6.89,6.89,0,0,1,5.07-3.24,2.66,2.66,0,0,1,.89,0c1.05.16,3.84.8,5.14,3.24a45.84,45.84,0,0,1,3.15,7.46c1,3.31,3.06,5.28,5.21,5,11.3-1.52,39-4.26,43.24,5.17a4.65,4.65,0,0,1,.33.93c0,.13.07.26.1.4s.07.42.1.63S557.72,686.74,557.72,687Z"/><path class="cls-4" d="M490.88,706.32s-48.67,2.46-48.67-18.44a11.75,11.75,0,0,1,.1-1.6c0-.21.06-.42.1-.63s0-.23.08-.35a5.43,5.43,0,0,1,.35-1,10.5,10.5,0,0,0,1.49,2.6C453.55,699.17,490.88,706.32,490.88,706.32Z"/><path class="cls-4" d="M557.79,687.88c0,20.9-48.67,18.44-48.67,18.44s37.33-7.15,46.55-19.4a10.5,10.5,0,0,0,1.49-2.6,5.6,5.6,0,0,1,.43,1.33c0,.21.07.42.1.63A11.75,11.75,0,0,1,557.79,687.88Z"/><path class="cls-2" d="M562,669a7.47,7.47,0,0,1-.55,2.77,9.14,9.14,0,0,0-1.65-2.82c-8.3-10-37-6.35-46.74-4.78a6.36,6.36,0,0,0-2.82,1.73c-1.54,1.36-6.07-4.63-10.13-4.77h-.13c-4.06.14-8.59,6.13-10.14,4.77a6.1,6.1,0,0,0-2.81-1.73c-9.68-1.57-38.44-5.24-46.75,4.78a9.14,9.14,0,0,0-1.65,2.82A7.47,7.47,0,0,1,438,669c0-.24,0-.47,0-.7s.06-.43.11-.64.05-.23.08-.35a11.8,11.8,0,0,1,.46-1.46c4.56-9.5,34.21-6.28,46.34-4.74,2.3.3,4.48-1.69,5.59-5a44.27,44.27,0,0,1,3.4-7.52c1.39-2.45,4.29-3.11,5.45-3.28a3,3,0,0,1,.95,0c1.13.17,4.12.81,5.52,3.28a45.16,45.16,0,0,1,3.38,7.52c1.11,3.34,3.29,5.33,5.59,5,12.13-1.54,41.78-4.76,46.34,4.74a11,11,0,0,1,.44,1.41c0,.13.07.26.1.4s.08.43.11.64S562,668.8,562,669Z"/><path class="cls-2" d="M562,650.27a7.52,7.52,0,0,1-.55,2.78,9.19,9.19,0,0,0-1.65-2.83c-8.3-10-37-6.35-46.74-4.78a6.38,6.38,0,0,0-2.82,1.74c-1.54,1.35-6.07-4.63-10.13-4.78h-.13c-4.06.15-8.59,6.13-10.14,4.78a6.13,6.13,0,0,0-2.81-1.74c-9.68-1.57-38.44-5.24-46.75,4.78a9.19,9.19,0,0,0-1.65,2.83,7.52,7.52,0,0,1-.55-2.78c0-.23,0-.46,0-.7s.06-.43.11-.64.05-.23.08-.35a11.59,11.59,0,0,1,.46-1.48c4.56-9.51,34.21-6.26,46.34-4.72,2.3.3,4.48-1.69,5.59-5a44.27,44.27,0,0,1,3.4-7.52c1.39-2.45,4.29-3.11,5.45-3.27a3,3,0,0,1,.95,0c1.13.16,4.12.81,5.52,3.27a45.16,45.16,0,0,1,3.38,7.52c1.11,3.34,3.29,5.33,5.59,5,12.13-1.54,41.78-4.79,46.34,4.72a10.81,10.81,0,0,1,.44,1.43c0,.13.07.27.1.4s.08.43.11.64S562,650,562,650.27Z"/><path class="cls-4" d="M510.67,640.49h0c0,5.26,2.79,9.32,5.93,8.61,11.87-2.66,35.75-9,43.08-18.18a10.25,10.25,0,0,0,1.6-2.63,5.3,5.3,0,0,1,.46,1.34c0,.21.08.43.11.65a11.71,11.71,0,0,1,.11,1.6c0,16.61-32.32,18.62-46.09,18.72-2.88,0-5.2,3.91-5.2,8.69h0c0,5.26,2.79,9.32,5.93,8.61,11.87-2.67,35.75-9,43.08-18.18a10.42,10.42,0,0,0,1.6-2.63,5.3,5.3,0,0,1,.46,1.34c0,.21.08.43.11.64a12,12,0,0,1,.11,1.61c0,16.61-32.32,18.62-46.09,18.71-2.88,0-5.2,3.91-5.2,8.69h0c0,5.26,2.79,9.31,5.93,8.61,11.87-2.67,35.75-9,43.08-18.18a10.47,10.47,0,0,0,1.6-2.64,5.37,5.37,0,0,1,.46,1.35c0,.21.08.43.11.64a11.75,11.75,0,0,1,.11,1.61c0,18.47-40,18.89-50,18.7-.74,0-8.7,16-12.05,16s-11.23-16.05-12-16c-10,.19-49.95-.23-49.95-18.7a11.75,11.75,0,0,1,.11-1.61c0-.21.06-.43.11-.64s.05-.24.08-.35a5.73,5.73,0,0,1,.38-1,10.47,10.47,0,0,0,1.6,2.64c7.33,9.17,31.21,15.51,43.08,18.18,3.14.7,5.93-3.35,5.93-8.61h0c0-4.78-2.32-8.67-5.2-8.69-13.77-.1-46.09-2.11-46.09-18.72a12,12,0,0,1,.11-1.61c0-.21.06-.43.11-.64s.05-.23.08-.35a5.34,5.34,0,0,1,.38-1,10.42,10.42,0,0,0,1.6,2.63c7.33,9.17,31.21,15.51,43.08,18.18,3.14.71,5.93-3.35,5.93-8.61h0c0-4.78-2.32-8.67-5.2-8.69-13.77-.1-46.09-2.11-46.09-18.72a11.71,11.71,0,0,1,.11-1.6c0-.22.06-.44.11-.65s.05-.23.08-.35a5.34,5.34,0,0,1,.38-1,10.25,10.25,0,0,0,1.6,2.63c7.33,9.17,31.21,15.52,43.08,18.18,3.14.71,5.93-3.35,5.93-8.61h0c0-4.78-2.32-8.67-5.2-8.69-13.77-.09-46.09-2.1-46.09-18.72a11.71,11.71,0,0,1,.11-1.6c0-.22.06-.43.11-.65s.05-.23.08-.35a5.63,5.63,0,0,1,.38-1,10.25,10.25,0,0,0,1.6,2.63c7.33,9.17,31.21,15.52,43.08,18.18,3.14.71,5.93-3.35,5.93-8.61h0c0-4.77-2.32-8.66-5.2-8.68-13.77-.1-46.09-2.11-46.09-18.72a11.75,11.75,0,0,1,.11-1.61c0-.22.06-.43.11-.65s.05-.23.08-.34a5.73,5.73,0,0,1,.38-1,10.47,10.47,0,0,0,1.6,2.64c8.43,10.54,38.76,17.35,47.52,19.13.8.16,6.83-10.79,11.93-10.79s11.59,11,12.39,10.79c8.76-1.78,39.09-8.59,47.52-19.13a10.47,10.47,0,0,0,1.6-2.64,5.44,5.44,0,0,1,.46,1.34c0,.22.08.43.11.65a11.75,11.75,0,0,1,.11,1.61c0,16.61-32.32,18.62-46.09,18.72-2.88,0-5.2,3.91-5.2,8.68h0c0,5.26,2.79,9.32,5.93,8.61,11.87-2.66,35.75-9,43.08-18.18a10.25,10.25,0,0,0,1.6-2.63,5.3,5.3,0,0,1,.46,1.34c0,.22.08.43.11.65a11.71,11.71,0,0,1,.11,1.6c0,16.62-32.32,18.63-46.09,18.71C513,631.82,510.67,635.71,510.67,640.49Z"/><path class="cls-3" d="M476.22,723.72c1.49.29,5.32.76,14.64.76C483.82,725.73,476.53,727.3,476.22,723.72Z"/><path class="cls-3" d="M522.54,723.44v0c0,4.56-8.21,2.46-15.76,1C515.58,724.67,519.18,725.14,522.54,723.44Z"/><path class="cls-4" d="M611.63,657.67c-16-9.09-28.91-2.28-35.75,3.26-2.5-1.8-3.58-4.1-2-6.85,6.75-11.76-3-23.25-8-30.44a64,64,0,0,0,34.19-11.11l.63.79c10,12.71-5.4,15,7.84,28.67C615.78,649.41,615,654.23,611.63,657.67Z"/><path class="cls-4" d="M600,720.73a1,1,0,0,1,.25,1c-.49,1.3-1.85,4.39-3.89,4.87s-8.45,4.08-12,3.94c-.88,0,1.43-1.83,2.1-2.34,2.28-1.71,4.38-5.49,6.13-6,2.47-.65.13-5.34-.33-6.36S591.32,712.34,600,720.73Z"/><path class="cls-2" d="M611.63,657.67c-2.77,2.88-7.3,4.79-10.35,6.44-4.76,2.58-19.3,1.22-25.4-3.18C582.72,655.39,595.64,648.58,611.63,657.67Z"/><path class="cls-4" d="M612.48,666.83c-6.71,12.81-12.09,21.58-8.08,36.66.38,3.28-10.39,4.55-17.91,3-2.8-.59-5.15-1.58-6.3-3s-1.13-3.1.54-5.28c7.1-9.27-.15-15.53-6.42-33-1.6-4.46,9.57-8.32,14.27-9a67.17,67.17,0,0,1,18.27-.24A7.53,7.53,0,0,1,612.48,666.83Z"/><path class="cls-2" d="M600.72,711.81a1.39,1.39,0,0,1,.87,1.31c0,2.25-.28,7.76-2.82,9.91s-9.47,12-14.39,14.28c-1.23.57,1-3.71,1.67-4.93,2.23-4.13,3.17-11.16,5.33-13.08,3-2.7-2.56-7.95-3.7-9.12S584.56,705.61,600.72,711.81Z"/><path class="cls-4" d="M602.37,719.11c-2.07,3.2-7.68,17.63-12.45,21.91-1.19,1.06-1.14-5.44-.82-7,1.08-5.38,1.83-13.59,3.6-16.48s-2-5.83-4.86-7.55h0c-.35-.22-.69-.41-1-.58-.63-.35-1.16-.62-1.47-.79a2.82,2.82,0,0,1-1.28-1.17c-.23-.66.47-1.37,3.8-1.68a56.18,56.18,0,0,1,6-.14h0l.85,0c1.72,0,3.71.15,6,.3a1.65,1.65,0,0,1,1.19.67l.25.49a.26.26,0,0,1,0,.11C602.92,709.74,604.47,715.87,602.37,719.11Z"/><path class="cls-2" d="M594.67,705.58c-1.65,1.38-1.11-.94-6.8,4.25h0l-.07,0-1.1.58s0-.48.09-1.16c.13-1.17.4-2.89,1-3.54,0,0,0,0,.07-.06a4.16,4.16,0,0,1,1.36-.66,41.55,41.55,0,0,1,4.62.52h0Z"/><path class="cls-4" d="M593.91,705.59a7.4,7.4,0,0,0-4.24,2.21,15.81,15.81,0,0,0-1.78,2.08h0l0,.05c-3.06,4.23-4.92,10.2-5.79,11.79-1.35,2.46-1.59,1.38-5.14,2.48-2.6-8.29.77-13.9,4-17.1v0c.34-.34.68-.65,1-.94,1.36-1.19,4.56-1.29,7.31-1.11a43,43,0,0,1,4.6.53h0Z"/><path class="cls-2" d="M601.85,706.56a1.65,1.65,0,0,0-1.19-.67c-2.28-.15-4.27-.25-6-.3l-.85,0h0a43,43,0,0,0-4.6-.53c-2.75-.18-6-.08-7.31,1.11-.33.29-.67.6-1,.94.09-.28,1.35-3.21,11-2C601.17,706.3,601,705,601.85,706.56Z"/><path class="cls-4" d="M600.1,612.53a64,64,0,0,1-34.19,11.11c-2-3-3.23-5.18-2.13-6.4,1.36-1.51-3.55-7.06-9.38-14.13L551.9,583s24.28,1.59,41.48,6.53a5.21,5.21,0,0,1,.19,3.56C589.55,606,590.69,600.84,600.1,612.53Z"/><path class="cls-4" d="M426.12,654.07c1.58,2.75.5,5-2,6.85-5.64-4.57-15.43-10-27.66-6.66l-1.08.31a36,36,0,0,0-7,3.09c-3.33-3.44-4.15-8.26,3.06-15.68,13.24-13.62-2.16-16,7.84-28.67l.63-.79A61.57,61.57,0,0,0,411,618.6c.5.21,1,.42,1.5.6a65.58,65.58,0,0,0,21.61,4.43C429.17,630.82,419.37,642.31,426.12,654.07Z"/><path class="cls-4" d="M400,720.73a1,1,0,0,0-.25,1c.49,1.3,1.85,4.39,3.89,4.87s8.45,4.08,12,3.94c.88,0-1.43-1.83-2.1-2.34-2.28-1.71-4.38-5.49-6.13-6-2.47-.65-.13-5.34.32-6.36S408.68,712.34,400,720.73Z"/><path class="cls-2" d="M424.12,660.92l-.24.17c-5.13,3.51-15.69,5-21.88,4-.36-.05-.7-.12-1-.19a9.34,9.34,0,0,1-2.25-.8c-2.89-1.56-7.1-3.36-9.89-6l-.46-.45a34.72,34.72,0,0,1,8.75-3.57l.76-.18C409.45,651.34,418.7,656.53,424.12,660.92Z"/><path class="cls-4" d="M425.69,665.15c-6.27,17.47-13.52,23.73-6.42,33,1.67,2.18,1.64,3.93.54,5.28s-3.5,2.42-6.3,3c-7.52,1.6-18.29.33-17.91-3a40.75,40.75,0,0,0,.92-4.34,2.25,2.25,0,0,0,.06-.36c1.85-12.33-3.08-20.54-9.06-32a7.52,7.52,0,0,1,5.63-10.9c1.55-.22,3.11-.36,4.64-.43l.74,0a72.75,72.75,0,0,1,12.89.71c3.18.45,9.31,2.35,12.46,4.92C425.39,662.32,426.21,663.7,425.69,665.15Z"/><path class="cls-2" d="M399.28,711.81a1.38,1.38,0,0,0-.87,1.31c0,2.25.28,7.76,2.82,9.91s9.47,12,14.39,14.28c1.23.57-1-3.71-1.67-4.93-2.23-4.13-3.17-11.16-5.33-13.08-3-2.7,2.56-7.95,3.7-9.12S415.44,705.61,399.28,711.81Z"/><path class="cls-4" d="M397.63,719.11c2.07,3.2,7.68,17.63,12.45,21.91,1.19,1.06,1.14-5.44.82-7-1.08-5.38-1.83-13.59-3.6-16.48s2-5.83,4.86-7.55h0c.35-.22.69-.41,1-.58.63-.35,1.16-.62,1.47-.79a2.82,2.82,0,0,0,1.28-1.17c.23-.66-.47-1.37-3.8-1.68a56.18,56.18,0,0,0-6-.14h0l-.85,0c-1.72,0-3.71.15-6,.3a1.65,1.65,0,0,0-1.19.67l-.25.49a.26.26,0,0,0,0,.11C397.08,709.74,395.53,715.87,397.63,719.11Z"/><path class="cls-2" d="M405.33,705.58c1.65,1.38,1.11-.94,6.8,4.25h0l.07,0,1.1.58s0-.48-.09-1.16c-.13-1.17-.4-2.89-1-3.54,0,0,0,0-.07-.06a4.16,4.16,0,0,0-1.36-.66,41.55,41.55,0,0,0-4.62.52h0Z"/><path class="cls-4" d="M406.09,705.59a7.4,7.4,0,0,1,4.24,2.21,15.81,15.81,0,0,1,1.78,2.08h0l0,.05c3.06,4.23,4.92,10.2,5.79,11.79,1.35,2.46,1.59,1.38,5.14,2.48,2.6-8.29-.77-13.9-4-17.1v0c-.34-.34-.68-.65-1-.94-1.36-1.19-4.56-1.29-7.31-1.11a43,43,0,0,0-4.6.53h0Z"/><path class="cls-2" d="M398.15,706.56a1.65,1.65,0,0,1,1.19-.67c2.28-.15,4.27-.25,6-.3l.85,0h0a43,43,0,0,1,4.6-.53c2.75-.18,5.95-.08,7.31,1.11.33.29.67.6,1,.94-.09-.28-1.35-3.21-11-2C398.83,706.3,399,705,398.15,706.56Z"/><path class="cls-4" d="M399.9,612.53a64,64,0,0,0,34.19,11.11c2-3,3.23-5.18,2.13-6.4-1.36-1.51,3.55-7.06,9.38-14.13L448.1,583s-24.28,1.59-41.48,6.53a5.21,5.21,0,0,0-.19,3.56C410.45,606,409.31,600.84,399.9,612.53Z"/><path class="cls-5" d="M402.82,633.86l3-4.5-4.5,9.62-2.38,7.25,1.88,5.37-2.26-4-2.1,6.66-1.08.31,3.06-11.84,3.62-8.5-.87-8.87L427,607.75c.5.21-15,11.27-14.47,11.45l-10.54,6.66Z"/><path class="cls-5" d="M407.86,690.4l-6,1.87-5.38,6.88a2.25,2.25,0,0,0,.06-.36l5.86-9L401,682.65l1.46-7.38-2.58-2.83-3,1.21,3-1.55,1.62.8-.59-8-.24-3.17-2.94-6.23.74,0,2.41,5.77,1.06,3.86,1.69,6.18-1,5.67-1.09,5.75,1.46,4.08.71-.75-.91,4.58,1.87.17Z"/><path class="cls-6" d="M541,716.25h0l-2.09,3.61a38.24,38.24,0,0,0-5.17,19.21h-69c0-.57,0-1.14,0-1.71a41.21,41.21,0,0,0-1.17-8.29,41.67,41.67,0,0,0-3.56-9.43s-3.66-10-1.1-7.48l.24.22,0,0a6,6,0,0,0,4,1.34,10.84,10.84,0,0,0,1.65-.1,2.56,2.56,0,0,1,2.83,2.16,15.09,15.09,0,0,0,1.32,4.15,62.89,62.89,0,0,0,16.76,7.16s4.82.11,8.2-1.47a7.89,7.89,0,0,1,6.76.15,24.53,24.53,0,0,0,8.1,1.86h0a71.51,71.51,0,0,0,25.47-10.28,15.21,15.21,0,0,0,1.25-4.14,2.3,2.3,0,0,1,2.63-2,9,9,0,0,0,3.9-.19C544.29,708.87,541,716.25,541,716.25Z"/><path class="cls-7" d="M541,716.25l-2.09,3.61a38.24,38.24,0,0,0-5.17,19.21h-69A42,42,0,0,0,460,719.64s-3.66-10-1.1-7.48l.24.22a6,6,0,0,0,4,1.37s6.5,12.89,8.67,14.69,20-1.52,32.58,2.39,10.25,7.5,20.33,6.67S532.75,718.58,541,716.25Z"/><path class="cls-8" d="M518.59,739.07H464.72a59.61,59.61,0,0,0-1.17-10,41.67,41.67,0,0,0-3.56-9.43s-3.66-10-1.1-7.48l.24.22,0,0c.59.64,10.6,11.58,9.3,13.92s5.09,8.75,13.92,7,16.67-1.91,24.33.92C510.42,735.61,514.93,737.49,518.59,739.07Z"/></g></g></g></svg>