<svg xmlns="http://www.w3.org/2000/svg" viewBox="0 0 1000 1000"><defs><style>.cls-1{fill:none;}.cls-2{fill:#1c1817;}.cls-3{fill:#5e5651;}.cls-4{fill:#443e3c;}.cls-5{fill:#fce3bf;}.cls-6{fill:#f7d2a1;}</style></defs><g id="Layer_2" data-name="Layer 2"><g id="OutPut"><rect id="BG" class="cls-1" width="1000" height="1000"/></g><g id="Body"><g id="_4" data-name="4"><path class="cls-2" d="M478.58,726.17s22.16,5.79,42.43,0a24.31,24.31,0,0,1,4.75-3.33L522.35,721l-16,.34-32.42-1.67,2.71,4.5,2,1.75"/><path class="cls-3" d="M562.15,623.91v41.52a62.78,62.78,0,0,1-2.3,16.89,1.8,1.8,0,0,0-.06.22v0c0,.13-.08.27-.12.4-.1.36-.21.72-.32,1.08-1,1.42-2.28,3.81-2.25,6a17.75,17.75,0,0,0-5.09,4.58l0,0a42.5,42.5,0,0,0-14.78,20.78c0,.11-.08.22-.1.33l-.33.24c-.09,0-1.1,3.1-1.18,3.1-2.15,0-2.42-1.33-4.67,1.06v0a29.27,29.27,0,0,1-6.94,4c-.92.35-1.87.68-2.86,1a74,74,0,0,1-21,3.05h-.18c-.5,0-1.13,3.33-1.62,3.31-7.1-.17-14.15-2.83-20.48-5.25-.14,0,.1-2.18,0-2.23a62.1,62.1,0,0,1-10.34-5.19c-1.5-1.65-2.58-2.8-4.2-2.87-.31-.22-.63-.46-.93-.7a42.63,42.63,0,0,0-14-20.1,19.06,19.06,0,0,0-5.43-5.08c-.18-.43-.35-.86-.52-1.3a10.43,10.43,0,0,0-.45-1.54,12.66,12.66,0,0,0-1.5-4.14l0-.06-.18-.65a63.3,63.3,0,0,1-2.32-17V623.91a6.78,6.78,0,0,1,6.72-6.79H555.42A6.78,6.78,0,0,1,562.15,623.91Z"/><path class="cls-4" d="M440.59,653.28s3.84,7.84,3.67,12.5c6.17-4,7-4.87,12.79,1.59-.62-4.13,26.54-1.63,26.5,3.33,0,0,.59-2.87,2.79-2.46s7.75-3.08,9.3-1c-.71-4.08,1.29-7.58,3.5-7.75-1-.79-1.8-.5-1.75-1.87-2.25,3.29-1.34,4.41-2.59,4.83.29,1-.83,4.54-5.46,3.87-4.25,1.84-13.75-.62-14.12-1.79,0,0-20.54,1-21-2.25,0,0-8,.29-7.25-5.71C443.14,657,440.59,653.28,440.59,653.28Z"/><path class="cls-4" d="M559.41,653.28s-3.84,7.84-3.67,12.5c-6.17-4-7-4.87-12.79,1.59.62-4.13-26.54-1.63-26.5,3.33,0,0-.59-2.87-2.79-2.46s-7.75-3.08-9.3-1c.71-4.08-1.29-7.58-3.5-7.75,1-.79,1.8-.5,1.75-1.87,2.25,3.29,1.34,4.41,2.59,4.83-.29,1,.83,4.54,5.46,3.87,4.25,1.84,13.75-.62,14.12-1.79,0,0,20.54,1,21-2.25,0,0,8,.29,7.25-5.71C556.86,657,559.41,653.28,559.41,653.28Z"/><path class="cls-4" d="M560.23,682.77l-.27.32v0c-.17.22-.41.54-.67.93-.95,1.42-2.28,3.81-2.24,6v.06a3.85,3.85,0,0,0,.46,1.86,5.54,5.54,0,0,0-1.58.39,18.69,18.69,0,0,0-4,2.27l0,0c-.77.95-.87,2-3.54,8.95,0,.11-6.86,9.74-6.89,9.85S537,715.9,537,716l-.25,0c-.08,0-.47,2.48-.55,2.48-2.15,0-3-.71-5.29,1.68l0,0-.53.55h0a28.32,28.32,0,0,1-10.41,6.78,5.75,5.75,0,0,0,.42-.63,7.3,7.3,0,0,0,.75-1.71,11,11,0,0,0-.59-7.14c7.18,2.34,14-15.21,10.47-21.88,11.45,1.39,8.53-4.35,11.24-17.39,4.88,7.26,14.85,5,17.43,4.23l.46-.14Z"/><path class="cls-4" d="M479.54,727.48a28.32,28.32,0,0,1-10.41-6.78h0c-.65-.66-1.21-1.29-1.73-1.86-1.5-1.65-2.59-2.8-4.21-2.87H463a4.22,4.22,0,0,0-.49,0l-3.1.41s-7.75-12.8-7.76-12.84c-2.83-7.89-1.84-6.81-3.38-8.4a12.37,12.37,0,0,0-4.73-2.85,5.54,5.54,0,0,0-1.58-.39,3.86,3.86,0,0,0,.47-1.86v0a5.93,5.93,0,0,0-.11-1.25,9.34,9.34,0,0,0-.45-1.54,17.26,17.26,0,0,0-2.36-4.13v0l-.26-.32.15.05c.18.06.51.16,1,.28,3.18.83,12.32,2.47,16.92-4.37,2.71,13-.21,18.78,11.24,17.39C465,702.79,471.78,720.34,479,718a11.3,11.3,0,0,0-.83,6.18,7.9,7.9,0,0,0,1,2.67A5.75,5.75,0,0,0,479.54,727.48Z"/><circle class="cls-4" cx="500.08" cy="697.08" r="2.04"/><path class="cls-4" d="M497.34,693.78a3.34,3.34,0,0,1-3.25.38c2.25,4.25,2.38,5.87,2,6.87,1.54-1.18.79-1.62,1.79-1.65C496.28,697.41,497,693.72,497.34,693.78Z"/><path class="cls-4" d="M502.66,693.78a3.34,3.34,0,0,0,3.25.38c-2.25,4.25-2.38,5.87-2,6.87-1.54-1.18-.79-1.62-1.79-1.65C503.72,697.41,503,693.72,502.66,693.78Z"/><path class="cls-2" d="M412.87,737.55l-3.71-1.76c-.16-1.69-.45-3.54-.73-5.4,0-.19-.05-.38-.08-.56.2.19.38.39.57.59a28.65,28.65,0,0,1,4.35,6.77A.28.28,0,0,1,412.87,737.55Z"/><path class="cls-2" d="M412.65,730.61l-3.73-.19-.49,0c0-.19-.05-.38-.08-.56-.13-.91-.25-1.82-.35-2.71a22.13,22.13,0,0,1,4.82,3.15A.2.2,0,0,1,412.65,730.61Z"/><path class="cls-3" d="M416.46,721.46a1.22,1.22,0,0,1-.46-.86c-.11-1.64-.85-6.6-5.83-3.46-2.57,1.62-2.66,5.59-2.17,10,.1.89.22,1.8.35,2.71,0,.18.06.37.08.56.28,1.86.57,3.71.73,5.4a19.22,19.22,0,0,1,0,4.2,1.31,1.31,0,0,1-2.18.74c-11.82-10.79-16.57-32.1-18-40.49-12.39-26.76-8.1-42.07-8.1-42.07s44-61.65,45.12-11.9c.58,25-5.22,45.88-12.82,57,7.83,3.3,9,7.08,10.65,14.38C426.32,728.84,418.44,723.05,416.46,721.46Z"/><path class="cls-2" d="M389.05,700.57a9.82,9.82,0,0,1,1.9-7.3A24.79,24.79,0,0,1,389.05,700.57Z"/><path class="cls-2" d="M407.51,702.36a6.94,6.94,0,0,1,6.4,1.2A17.43,17.43,0,0,1,407.51,702.36Z"/><path class="cls-4" d="M441.35,617.72s.59,10,6.79,13.09c-8.47.49-5.22,16.83-5.22,16.83s-4.53-.79-8.56,5.61S441.35,617.72,441.35,617.72Z"/><path class="cls-2" d="M417.2,595.56S458.71,624.1,434,653.8s-47.21.07-47.21.07S383.76,592.44,417.2,595.56Z"/><path class="cls-3" d="M415.19,601.15s37.57,26.85,14.63,55.58-43.12.6-43.12.6S384.69,598.54,415.19,601.15Z"/><path class="cls-4" d="M380.13,670.3a6.13,6.13,0,0,0-1.75-5.75c2.12-1,2.75-7.88,2.12-8.75,1.5-.75,4.91-1.84,4.81-4.66,1.41,2.44,2.19,1.19,2.19,1.19s-2,6.66.31,7.5c0,0-5,4.22,2.5,9.19-5.84-.35-6.4,3.31-6.4,3.31S383.6,668.49,380.13,670.3Z"/><path class="cls-5" d="M400.92,733.43s3.79,9.62,14.71,18.45C408.46,741.38,403.3,731.06,400.92,733.43Z"/><path class="cls-5" d="M423.44,715.92s2.66,10.38,1.31,17.13C424.19,725.89,419.72,720.11,423.44,715.92Z"/><path class="cls-6" d="M409.94,736.16s5.2,2.7,7.95,3.09C416.42,738.74,411.27,735.05,409.94,736.16Z"/><path class="cls-6" d="M409.55,730.47s4.69.52,6.88,0C415.17,730.52,410.22,729.25,409.55,730.47Z"/><path class="cls-2" d="M587.13,737.63l3.71-1.75c.16-1.7.45-3.54.73-5.4,0-.2,0-.38.08-.57-.2.19-.38.39-.57.59a28.85,28.85,0,0,0-4.35,6.77A.28.28,0,0,0,587.13,737.63Z"/><path class="cls-2" d="M587.35,730.7l3.73-.2.49,0c0-.2,0-.38.08-.57.13-.91.25-1.82.35-2.71a22.5,22.5,0,0,0-4.82,3.15A.2.2,0,0,0,587.35,730.7Z"/><path class="cls-3" d="M583.54,721.54a1.22,1.22,0,0,0,.46-.86c.11-1.64.85-6.6,5.83-3.46,2.57,1.62,2.66,5.59,2.17,10-.1.89-.22,1.8-.35,2.71,0,.19-.06.37-.08.57-.28,1.86-.57,3.7-.73,5.4a19.21,19.21,0,0,0-.05,4.2,1.31,1.31,0,0,0,2.18.73c11.82-10.79,16.57-32.09,18-40.48,12.39-26.76,8.1-42.07,8.1-42.07s-44-61.65-45.12-11.91c-.58,25,5.22,45.88,12.82,57-7.83,3.31-9,7.08-10.65,14.38C573.68,728.93,581.56,723.14,583.54,721.54Z"/><path class="cls-2" d="M611,700.65a9.82,9.82,0,0,0-1.9-7.3A24.79,24.79,0,0,0,611,700.65Z"/><path class="cls-2" d="M592.49,702.44a6.94,6.94,0,0,0-6.4,1.2A17.43,17.43,0,0,0,592.49,702.44Z"/><path class="cls-4" d="M558.65,617.8s-.59,10-6.79,13.09c8.47.49,5.22,16.83,5.22,16.83s4.53-.79,8.56,5.61S558.65,617.8,558.65,617.8Z"/><path class="cls-2" d="M582.8,595.64s-41.51,28.54-16.75,58.24,47.21.07,47.21.07S616.24,592.52,582.8,595.64Z"/><path class="cls-3" d="M584.81,601.23s-37.57,26.86-14.63,55.58,43.12.61,43.12.61S615.31,598.62,584.81,601.23Z"/><path class="cls-4" d="M619.87,670.38a6.13,6.13,0,0,1,1.75-5.75c-2.12-1-2.75-7.87-2.12-8.75-1.5-.75-4.91-1.84-4.81-4.65-1.41,2.43-2.19,1.18-2.19,1.18s2,6.66-.31,7.5c0,0,5,4.22-2.5,9.19,5.84-.34,6.4,3.31,6.4,3.31S616.4,668.57,619.87,670.38Z"/><path class="cls-5" d="M599.08,733.52s-3.79,9.61-14.71,18.45C591.54,741.47,596.7,731.15,599.08,733.52Z"/><path class="cls-5" d="M576.56,716s-2.66,10.37-1.31,17.12C575.81,726,580.28,720.2,576.56,716Z"/><path class="cls-6" d="M590.06,736.24s-5.2,2.71-7.95,3.1C583.58,738.82,588.73,735.13,590.06,736.24Z"/><path class="cls-6" d="M590.44,730.54s-4.7.52-6.88,0C584.82,730.59,589.76,729.32,590.44,730.54Z"/></g></g></g></svg>