<svg xmlns="http://www.w3.org/2000/svg" viewBox="0 0 1000 1000"><defs><style>.cls-1{fill:none;}.cls-2{fill:#b6f1ff;}.cls-3{fill:#c5fbff;}.cls-4{fill:#18989b;}.cls-5{fill:#c7f4ff;}</style></defs><g id="Layer_2" data-name="Layer 2"><g id="OutPut"><rect id="BG" class="cls-1" width="1000" height="1000"/></g><g id="Body"><g id="_0" data-name="0"><path class="cls-2" d="M619,670.65l-10,30.83-5,28.08L591,742.65l-5.83-4.75,1.12-1.76-.89-1.15,2.32-1.08.56-.87-.48-.73,1.42-.75,3-4.75-.08-12L584,717l-.42,6L576,724.73l-.58-9.92,3.5-8.58,6.76-3.56L575,676.15l-.1-1.39a52.57,52.57,0,0,0-3.17-15.31L561.46,648,560,685l-11.61,18.58c-5.87,9.61-10.95,15.05-15.09,18.16-.39.3-.77.57-1.14.82-6.87,4.67-10.91,2.86-11.36,4.05a3.43,3.43,0,0,1-3.36,2.45,8,8,0,0,1-2.15-.2c-1.06-.29-1-.8-4.81-.8a12,12,0,0,0-1.63.09l-.39.77-3.28.08h-.05a18.14,18.14,0,0,1-2.95.08h-.1l-2.08.05-2.08-.05h-.1a18.14,18.14,0,0,1-2.95-.08h-.05l-3.28-.08-.39-.77a12,12,0,0,0-1.63-.09c-3.8,0-3.75.51-4.81.8a8,8,0,0,1-2.15.2,3.43,3.43,0,0,1-3.36-2.45c-.45-1.19-4.49.62-11.36-4.05-.37-.25-.75-.52-1.14-.82-4.14-3.11-9.22-8.55-15.09-18.16L440,685l-1.46-37-10.31,11.5a52.57,52.57,0,0,0-3.17,15.31l-.1,1.39-10.6,26.52,6.76,3.56,3.5,8.58-.58,9.92L416.46,723l-.42-6-8.17-2.17-.08,12,3,4.75,1.42.75-.48.73.56.87,2.32,1.08-.89,1.15,1.12,1.76L409,742.65,396,729.56l-5-28.08-10-30.83,7.5-13.34L386,625l9-18c19.5,9.63,53.24,15.92,53.45,16h.9c9.53.17,88.84-.69,100.76-1l.74,0h.25l.47,0c.21,0,36.12-13.36,51-24.63L614,625l-2.5,32.33Z"/><path class="cls-3" d="M491.15,728.13a12,12,0,0,0-1.63-.09c-3.8,0-3.75.51-4.81.8a8,8,0,0,1-2.15.2,3.43,3.43,0,0,1-3.36-2.45c-.45-1.19-4.49.62-11.36-4.05-.37-.25-.75-.52-1.14-.82-4.14-3.11-9.22-8.55-15.09-18.16a57.93,57.93,0,0,0,7.28,8.6l.24.22,0,0a5.21,5.21,0,0,0,.89.61,4.44,4.44,0,0,0,.49.24l.51.18.39.11a8.12,8.12,0,0,0,1.69.2,10.84,10.84,0,0,0,1.65-.1,2.56,2.56,0,0,1,2.83,2.16,15.09,15.09,0,0,0,1.32,4.15,62.89,62.89,0,0,0,16.76,7.16,25.7,25.7,0,0,0,4.74-.42Z"/><path class="cls-3" d="M497.82,729.06a18.14,18.14,0,0,1-2.95-.08Z"/><path class="cls-4" d="M428.23,659.45a52.57,52.57,0,0,0-3.17,15.31L426,662Z"/><polygon class="cls-4" points="414.64 734.99 413.75 736.14 412.32 733.91 414.64 734.99"/><polygon class="cls-4" points="412.24 732.31 411.76 733.04 410.82 731.56 412.24 732.31"/><polygon class="cls-5" points="414.87 737.9 409.04 742.65 395.96 729.56 407.79 726.81 410.82 731.56 411.76 733.04 411.46 733.51 412.32 733.91 413.75 736.14 414.87 737.9"/><polygon class="cls-3" points="412.32 733.91 411.46 733.51 411.76 733.04 412.32 733.91"/><polygon class="cls-5" points="424.62 714.81 416.04 716.98 421.12 706.23 424.62 714.81"/><polygon class="cls-5" points="425.96 661.98 425.06 674.76 424.96 676.15 414.36 702.67 407.87 714.81 406.69 713.88 390.96 701.48 380.96 670.65 388.46 657.31 409.81 659.97 425.96 661.98"/><path class="cls-2" d="M490.43,726.7a25.7,25.7,0,0,1-4.74.42A62.89,62.89,0,0,1,468.93,720a15.09,15.09,0,0,1-1.32-4.15,2.56,2.56,0,0,0-2.83-2.16,10.84,10.84,0,0,1-1.65.1,8.12,8.12,0,0,1-1.69-.2l-.39-.11-.51-.18a4.44,4.44,0,0,1-.49-.24,5.21,5.21,0,0,1-.89-.61l0,0-.24-.22a57.93,57.93,0,0,1-7.28-8.6L440,685l-1.46-37,0,0,1.21-1.35,1.49-1.65.69-.77a6.59,6.59,0,0,0,.31-.71l.49-1.29c.09-.23.18-.47.27-.73l.32-.88,0,0c.61-1.16,1.25-2.44,1.88-3.84Z"/><path class="cls-2" d="M448.44,623q0,.15-.09.33c0,.08-.05.17-.07.27-.8,2.89-2.44,9.81-3.35,12.47-.55,1.63-1.09,3.18-1.56,4.48l0,0-.32.88c-.09.26-.18.5-.27.73l-.49,1.29a6.59,6.59,0,0,1-.31.71l-.69.77-1.49,1.65-1.21,1.35,0,0-10.31,11.5L426,662l-16.15-2-21.35-2.66L386,625l9-18C414.49,616.64,448.23,622.93,448.44,623Z"/><polygon class="cls-2" points="424.62 714.81 424.04 724.73 416.46 722.98 416.04 716.98 424.62 714.81"/><polygon class="cls-2" points="421.12 706.23 416.04 716.98 407.87 714.81 414.36 702.67 421.12 706.23"/><polygon class="cls-2" points="407.87 714.81 407.79 726.81 395.96 729.56 390.96 701.48 406.69 713.88 407.87 714.81"/><path class="cls-3" d="M548.39,703.56c-5.87,9.61-10.95,15.05-15.09,18.16-.39.3-.77.57-1.14.82-6.87,4.67-10.91,2.86-11.36,4.05a3.43,3.43,0,0,1-3.36,2.45,8,8,0,0,1-2.15-.2c-1.06-.29-1-.8-4.81-.8a12,12,0,0,0-1.63.09l.72-1.43a25.7,25.7,0,0,0,4.74.42A62.89,62.89,0,0,0,531.07,720a15.09,15.09,0,0,0,1.32-4.15,2.56,2.56,0,0,1,2.83-2.16,10.84,10.84,0,0,0,1.65.1,8.12,8.12,0,0,0,1.69-.2l.39-.11.51-.18A4.44,4.44,0,0,0,540,713a5.21,5.21,0,0,0,.89-.61l0,0,.24-.22A57.93,57.93,0,0,0,548.39,703.56Z"/><path class="cls-3" d="M505.13,729a18.14,18.14,0,0,1-2.95.08Z"/><path class="cls-5" d="M554.75,636.67l-45.18,90-.72,1.43-.39.77-3.28.08h-.05l-2.95.08h-.1l-2.08.05-2.08-.05h-.1l-2.95-.08h-.05l-3.28-.08-.39-.77-.72-1.43-45.18-90a2,2,0,0,0,.11-.26c1-2.64,2.08-9.38,2.92-12.85,0-.1.05-.19.07-.27s.06-.23.09-.33h.9c9.53.17,88.84-.69,100.76-1l.74,0h.25l.47,0q0,.15.09.33c.86,3.44,1.92,11.42,3,14.2A2,2,0,0,0,554.75,636.67Z"/><path class="cls-4" d="M574.94,674.76a52.57,52.57,0,0,0-3.17-15.31L574,662Z"/><polygon class="cls-4" points="587.68 733.91 586.25 736.14 585.36 734.99 587.68 733.91"/><polygon class="cls-4" points="589.18 731.56 588.24 733.04 587.76 732.31 589.18 731.56"/><polygon class="cls-5" points="604.04 729.56 590.96 742.65 585.13 737.9 586.25 736.14 587.68 733.91 588.54 733.51 588.24 733.04 589.18 731.56 592.21 726.81 604.04 729.56"/><polygon class="cls-3" points="588.54 733.51 587.68 733.91 588.24 733.04 588.54 733.51"/><polygon class="cls-5" points="583.96 716.98 575.38 714.81 578.88 706.23 583.96 716.98"/><polygon class="cls-5" points="619.04 670.65 609.04 701.48 593.31 713.88 592.13 714.81 585.64 702.67 575.04 676.15 574.94 674.76 574.04 661.98 590.19 659.97 611.54 657.31 619.04 670.65"/><path class="cls-2" d="M561.46,648,560,685l-11.61,18.58a57.93,57.93,0,0,1-7.28,8.6l-.24.22,0,0a5.21,5.21,0,0,1-.89.61,4.44,4.44,0,0,1-.49.24l-.51.18-.39.11a8.12,8.12,0,0,1-1.69.2,10.84,10.84,0,0,1-1.65-.1,2.56,2.56,0,0,0-2.83,2.16,15.09,15.09,0,0,1-1.32,4.15,62.89,62.89,0,0,1-16.76,7.16,25.7,25.7,0,0,1-4.74-.42l45.18-90c.63,1.4,1.27,2.68,1.88,3.84l0,0,.32.88c.09.26.18.5.27.73l.49,1.29a6.59,6.59,0,0,0,.31.71l.69.77,1.49,1.65,1.21,1.35Z"/><path class="cls-2" d="M614,625l-2.5,32.33L590.19,660,574,662l-2.27-2.53L561.46,648l0,0-1.21-1.35-1.49-1.65-.69-.77a6.59,6.59,0,0,1-.31-.71l-.49-1.29c-.09-.23-.18-.47-.27-.73l-.32-.88,0,0c-.47-1.3-1.55-3.3-2.1-4.93-.89-2.6-2-9.74-2.75-12.86,0-.19-.09-.36-.13-.51s-.06-.23-.09-.33c.21,0,36.12-13.36,51-24.63Z"/><polygon class="cls-2" points="583.96 716.98 583.54 722.98 575.96 724.73 575.38 714.81 583.96 716.98"/><polygon class="cls-2" points="592.13 714.81 583.96 716.98 578.88 706.23 585.64 702.67 592.13 714.81"/><polygon class="cls-2" points="609.04 701.48 604.04 729.56 592.21 726.81 592.13 714.81 593.31 713.88 609.04 701.48"/><path class="cls-4" d="M449.34,623l-.9,4.78a61.57,61.57,0,0,1-3.08,8.64,2,2,0,0,1-.11.26c-.63,1.4-1.27,2.68-1.88,3.84.47-1.3,1-2.85,1.56-4.48.91-2.66,2.55-9.58,3.35-12.47,0-.1.05-.19.07-.27s.06-.23.09-.33h.9Z"/><path class="cls-4" d="M556.63,640.51c-.61-1.16-1.25-2.44-1.88-3.84a2,2,0,0,1-.11-.26,61.57,61.57,0,0,1-3.08-8.64L550.1,622l.74,0h.25l.47,0q0,.15.09.33c0,.15.09.32.13.51.82,3.17,2.4,10.71,3.29,13.31C555.62,637.66,556.16,639.21,556.63,640.51Z"/></g></g></g></svg>