<svg xmlns="http://www.w3.org/2000/svg" viewBox="0 0 1000 1000"><defs><style>.cls-1{fill:none;}.cls-2{fill:#c5fbff;}.cls-3{fill:#18989b;}.cls-4{fill:#c7f4ff;}.cls-5{fill:#b6f1ff;}</style></defs><g id="Layer_2" data-name="Layer 2"><g id="OutPut"><rect id="BG" class="cls-1" width="1000" height="1000"/></g><g id="Body"><g id="_0" data-name="0"><path class="cls-2" d="M491.15,728.13a12,12,0,0,0-1.63-.09c-3.8,0-3.75.51-4.81.8a8,8,0,0,1-2.15.2,3.43,3.43,0,0,1-3.36-2.45c-.45-1.19-4.49.62-11.36-4.05-.37-.25-.75-.52-1.14-.82-4.14-3.11-9.22-8.55-15.09-18.16a57.93,57.93,0,0,0,7.28,8.6l.24.22,0,0a5.21,5.21,0,0,0,.89.61,4.44,4.44,0,0,0,.49.24l.51.18.39.11a8.12,8.12,0,0,0,1.69.2,10.84,10.84,0,0,0,1.65-.1,2.56,2.56,0,0,1,2.83,2.16,15.09,15.09,0,0,0,1.32,4.15,62.89,62.89,0,0,0,16.76,7.16,25.7,25.7,0,0,0,4.74-.42Z"/><path class="cls-2" d="M497.82,729.06a18.14,18.14,0,0,1-2.95-.08Z"/><path class="cls-3" d="M428.23,659.45a52.57,52.57,0,0,0-3.17,15.31L426,662Z"/><polygon class="cls-3" points="414.64 734.99 413.75 736.14 412.32 733.91 414.64 734.99"/><polygon class="cls-3" points="412.24 732.31 411.76 733.04 410.82 731.56 412.24 732.31"/><polygon class="cls-4" points="414.87 737.9 409.04 742.65 395.96 729.56 407.79 726.81 410.82 731.56 411.76 733.04 411.46 733.51 412.32 733.91 413.75 736.14 414.87 737.9"/><polygon class="cls-2" points="412.32 733.91 411.46 733.51 411.76 733.04 412.32 733.91"/><polygon class="cls-4" points="424.62 714.81 416.04 716.98 421.12 706.23 424.62 714.81"/><polygon class="cls-4" points="425.96 661.98 425.06 674.76 424.96 676.15 414.36 702.67 407.87 714.81 406.69 713.88 390.96 701.48 380.96 670.65 388.46 657.31 409.81 659.97 425.96 661.98"/><path class="cls-5" d="M490.43,726.7a25.7,25.7,0,0,1-4.74.42A62.89,62.89,0,0,1,468.93,720a15.09,15.09,0,0,1-1.32-4.15,2.56,2.56,0,0,0-2.83-2.16,10.84,10.84,0,0,1-1.65.1,8.12,8.12,0,0,1-1.69-.2l-.39-.11-.51-.18a4.44,4.44,0,0,1-.49-.24,5.21,5.21,0,0,1-.89-.61l0,0-.24-.22a57.93,57.93,0,0,1-7.28-8.6L440,685l-1.46-37,0,0,1.21-1.35,1.49-1.65.69-.77a6.59,6.59,0,0,0,.31-.71l.49-1.29c.09-.23.18-.47.27-.73l.32-.88,0,0c.61-1.16,1.25-2.44,1.88-3.84Z"/><path class="cls-5" d="M448.44,623c-.7,2.4-2.53,10.2-3.51,13.07-.55,1.63-1.09,3.18-1.56,4.48l0,0-.32.88c-.09.26-.18.5-.27.73l-.49,1.29a6.59,6.59,0,0,1-.31.71l-.69.77-1.49,1.65-1.21,1.35,0,0-10.31,11.5L426,662l-16.15-2-21.35-2.66L386,625l9-18C414.49,616.64,448.23,622.93,448.44,623Z"/><polygon class="cls-5" points="424.62 714.81 424.04 724.73 416.46 722.98 416.04 716.98 424.62 714.81"/><polygon class="cls-5" points="421.12 706.23 416.04 716.98 407.87 714.81 414.36 702.67 421.12 706.23"/><polygon class="cls-5" points="407.87 714.81 407.79 726.81 395.96 729.56 390.96 701.48 406.69 713.88 407.87 714.81"/><path class="cls-2" d="M508.85,728.13a12,12,0,0,1,1.63-.09c3.8,0,3.75.51,4.81.8a8,8,0,0,0,2.15.2,3.43,3.43,0,0,0,3.36-2.45c.45-1.19,4.49.62,11.36-4.05.37-.25.75-.52,1.14-.82,4.14-3.11,9.22-8.55,15.09-18.16a57.93,57.93,0,0,1-7.28,8.6l-.24.22,0,0a5.21,5.21,0,0,1-.89.61,4.44,4.44,0,0,1-.49.24l-.51.18-.39.11a8.12,8.12,0,0,1-1.69.2,10.84,10.84,0,0,1-1.65-.1,2.56,2.56,0,0,0-2.83,2.16,15.09,15.09,0,0,1-1.32,4.15,62.89,62.89,0,0,1-16.76,7.16,25.7,25.7,0,0,1-4.74-.42Z"/><path class="cls-2" d="M502.18,729.06a18.14,18.14,0,0,0,2.95-.08Z"/><path class="cls-4" d="M554.75,636.67l-45.18,90-.72,1.43-.39.77-3.28.08h-.05l-2.95.08h-.1l-2.08.05-2.08-.05h-.1l-2.95-.08h-.05l-3.28-.08-.39-.77-.72-1.43-45.18-90c1.15-2.58,2.28-10.37,3.19-13.71,2.19.31,100.93-.77,103.12-1.08C552.47,625.22,553.6,634.09,554.75,636.67Z"/><path class="cls-3" d="M571.77,659.45a52.57,52.57,0,0,1,3.17,15.31L574,662Z"/><polygon class="cls-3" points="585.36 734.99 586.25 736.14 587.68 733.91 585.36 734.99"/><polygon class="cls-3" points="587.76 732.31 588.24 733.04 589.18 731.56 587.76 732.31"/><polygon class="cls-4" points="585.13 737.9 590.96 742.65 604.04 729.56 592.21 726.81 589.18 731.56 588.24 733.04 588.54 733.51 587.68 733.91 586.25 736.14 585.13 737.9"/><polygon class="cls-2" points="587.68 733.91 588.54 733.51 588.24 733.04 587.68 733.91"/><polygon class="cls-4" points="575.38 714.81 583.96 716.98 578.88 706.23 575.38 714.81"/><polygon class="cls-4" points="574.04 661.98 574.94 674.76 575.04 676.15 585.64 702.67 592.13 714.81 593.31 713.88 609.04 701.48 619.04 670.65 611.54 657.31 590.19 659.97 574.04 661.98"/><path class="cls-5" d="M509.57,726.7a25.7,25.7,0,0,0,4.74.42A62.89,62.89,0,0,0,531.07,720a15.09,15.09,0,0,0,1.32-4.15,2.56,2.56,0,0,1,2.83-2.16,10.84,10.84,0,0,0,1.65.1,8.12,8.12,0,0,0,1.69-.2l.39-.11.51-.18A4.44,4.44,0,0,0,540,713a5.21,5.21,0,0,0,.89-.61l0,0,.24-.22a57.93,57.93,0,0,0,7.28-8.6L560,685l1.46-37,0,0-1.21-1.35-1.49-1.65-.69-.77a6.59,6.59,0,0,1-.31-.71l-.49-1.29c-.09-.23-.18-.47-.27-.73l-.32-.88,0,0c-.61-1.16-1.25-2.44-1.88-3.84Z"/><path class="cls-5" d="M551.56,621.88c.7,2.4,2,10.83,3,13.7.55,1.63,1.63,3.63,2.1,4.93l0,0,.32.88c.09.26.18.5.27.73l.49,1.29a6.59,6.59,0,0,0,.31.71l.69.77,1.49,1.65,1.21,1.35,0,0,10.31,11.5L574,662l16.15-2,21.35-2.66L614,625l-11.46-27.73C587.68,608.52,551.77,621.85,551.56,621.88Z"/><polygon class="cls-5" points="575.38 714.81 575.96 724.73 583.54 722.98 583.96 716.98 575.38 714.81"/><polygon class="cls-5" points="578.88 706.23 583.96 716.98 592.13 714.81 585.64 702.67 578.88 706.23"/><polygon class="cls-5" points="592.13 714.81 592.21 726.81 604.04 729.56 609.04 701.48 593.31 713.88 592.13 714.81"/><path class="cls-3" d="M449.34,623l-.9,4.78a61.7,61.7,0,0,1-3.19,8.9c-.63,1.4-1.27,2.68-1.88,3.84.47-1.3,1-2.85,1.56-4.48,1-2.87,2.81-10.67,3.51-13.07C448.56,623,449.18,623,449.34,623Z"/><path class="cls-3" d="M550.1,622l1.46,5.82a61.7,61.7,0,0,0,3.19,8.9c.63,1.4,1.27,2.68,1.88,3.84-.47-1.3-1-2.85-1.56-4.48-1-2.87-2.81-11.75-3.51-14.15C551.44,621.9,550.26,621.93,550.1,622Z"/></g></g></g></svg>