<svg xmlns="http://www.w3.org/2000/svg" viewBox="0 0 1000 1000"><defs><style>.cls-1{fill:none;}.cls-2{fill:#fbf3cf;}.cls-3{fill:#ada689;}.cls-4{fill:#161616;}</style></defs><g id="Layer_2" data-name="Layer 2"><g id="OutPut"><rect id="BG" class="cls-1" width="1000" height="1000"/></g><g id="Body"><g id="_8" data-name="8"><path class="cls-2" d="M562.15,660.44v5q0,.87,0,1.74a63.08,63.08,0,0,1-2.26,15.15,1.87,1.87,0,0,0-.07.22v0a58.77,58.77,0,0,1-1.88,5.57v0c-.23.61-.47,1.21-.72,1.81-3.12,1.49-9.48,8.29-12.11,18.59l-.43.45c-1.49,0-2.28,1.66-4,3.81h0a62.9,62.9,0,0,1-6.44,4.95c-1.33.9-4.15,2.69-6.71,4.3s-4.91,3-5.24,3.14c-.85-1.4-6.2,7.12-9.78,5.49a7,7,0,0,0-7.06.47c-3.88-1.56-4.74-4.63-9.05-5.53-3.49-.74-4.75,1.18-5.1,1.93a.45.45,0,0,1-.16,0c-.3-1.42-2.63,3.15-5.3,2.75s-12.82-2.15-12.91-.9c-.05,0-.78-2.69-2.92-3.79-3.33-1.73-2.23-6.49-4.43-8a60.08,60.08,0,0,1-6.74-5.26c-1.4-1.85-2.17-3.27-3.46-3.35-.22-.22-.44-.45-.65-.68-2.61-9.94-8.69-16.59-11.85-18.25-.32-.77-.64-1.55-.93-2.34a11.9,11.9,0,0,0-1.58-4.7c-.06-.22-.12-.43-.19-.65A62.71,62.71,0,0,1,438,668.68c-.06-1.08-.09-2.16-.09-3.25v-5a20.25,20.25,0,0,1,.95,5.9c7-4.56,8-5.55,14.57,1.8-.71-4.7,30.18-1.85,30.18,3.79.05-.22.75-3.25,3.18-2.79s8.82-3.51,10.58-1.19c-.67-3.83.76-7.22,2.69-8.39,1.93,1.17,3.36,4.56,2.69,8.39,1.76-2.32,8.07,1.66,10.58,1.19s3.13,2.57,3.18,2.79c0-5.64,30.89-8.49,30.18-3.79,6.6-7.35,7.55-6.36,14.57-1.8A20,20,0,0,1,562.15,660.44Z"/><path class="cls-3" d="M562.14,660.44v5q0,.87,0,1.74a20.94,20.94,0,0,1-6.36,1.06c-9.87.25-8.62,2.5-18.5.87s-19.74,5.38-21.74,4.88-7.26-7.38-19.38-1.88-17,.5-27.62-3-18.76,3.26-23-1.24c-3.11-3.29-6.15-.77-7.57.82-.06-1.08-.09-2.16-.09-3.25v-5a20.25,20.25,0,0,1,.95,5.9c7-4.56,8-5.55,14.57,1.8-.71-4.7,30.18-1.85,30.18,3.79.05-.22.75-3.25,3.18-2.79s8.82-3.51,10.58-1.19c-.67-3.83-.38-8.19,4.48-9.2,1.93,1.17,1.57,5.37.9,9.2,1.76-2.32,8.07,1.66,10.58,1.19s3.13,2.57,3.18,2.79c0-5.64,30.89-8.49,30.18-3.79,6.6-7.35,7.55-6.36,14.57-1.8A20,20,0,0,1,562.14,660.44Z"/><path class="cls-4" d="M562.14,623.91v36.53a23.27,23.27,0,0,0-.93,4.92c0,.32,0,.64,0,.95-1.76-1.14-3.11-2-4.29-2.67h0c-3.33-1.75-5.1-1.11-9.43,3.58-.26.28-.54.58-.82.9.23-1.49-2.74-2.22-6.87-2.34h0c-8.14-.24-20.83,1.86-23,5.16a1.79,1.79,0,0,0-.31,1,5.41,5.41,0,0,0-.82-1.83h0a2.28,2.28,0,0,0-2.35-.95c-1.21.23-3.3-.58-5.33-1.21h0c-2.2-.68-4.33-1.17-5.24,0a11.81,11.81,0,0,0,.16-1.64c.08-3.13-.51-5.75-2.16-6.75a8,8,0,0,0-3.55,6.36,12,12,0,0,0,.17,2c-1.2-1.58-4.49-.24-7.27.63a8.16,8.16,0,0,1-3.31.56,2.2,2.2,0,0,0-2.06.63,4.73,4.73,0,0,0-1.12,2.16c0-2.23-4.79-4-10.56-5.07h0c-7.68-1.42-17.08-1.55-19.17.3a1,1,0,0,0-.42,1,31.17,31.17,0,0,0-4.22-4.13c-2.94-2.2-4.75-1.3-8.8,1.32l-1.55,1a18.41,18.41,0,0,0-.68-4.91l-.27-1v-36.5a6.77,6.77,0,0,1,6.71-6.79H555.42A6.78,6.78,0,0,1,562.14,623.91Z"/><circle cx="500" cy="697.08" r="2.04"/><path class="cls-2" d="M465.9,718.28a18.74,18.74,0,0,1-7.07-5.92c-1.4-1.85-1.95-1.62-3.24-1.7-.15,0-.52-1.66-.69-1.63-.06-.24-3.23-5.24-3.29-5.47-2.61-9.94-5.58-11.82-8.74-13.48a3,3,0,0,0-1.23-.42,4.13,4.13,0,0,0,.3-1.92,11.9,11.9,0,0,0-1.58-4.7l-.45-.75.26.1c1.43.53,8.13,2.65,11.35-3.36,1.75,10.5-.12,15.13,7.25,14-2.25,5.37,2.13,19.5,6.75,17.63,0,0-1.42,3.72.05,7A5.08,5.08,0,0,0,465.9,718.28Z"/><path class="cls-4" d="M497.27,693.78a3.35,3.35,0,0,1-3.25.38c2.25,4.25,2.37,5.87,2,6.87,1.53-1.18.78-1.62,1.78-1.65C496.21,697.41,496.92,693.72,497.27,693.78Z"/><path class="cls-2" d="M560,682.28l-.17.26v0a11.82,11.82,0,0,0-1.88,5.57v0a3.76,3.76,0,0,0,.3,1.5,3,3,0,0,0-1,.31c-3.12,1.49-6.17,3.3-8.8,13.6,0,.16-3.39,5.31-3.43,5.47l-.31,0c-1.49,0-.24.9-1.93,3l-2.05.77a18.61,18.61,0,0,1-6.71,5.46q.15-.25.27-.51c1.57-3.28.1-7.12.1-7.12,4.63,1.88,9-12.25,6.75-17.62,7.38,1.12,5.5-3.5,7.25-14,3.39,6.3,10.59,3.67,11.53,3.29Z"/><path class="cls-4" d="M502.58,693.78a3.35,3.35,0,0,0,3.25.38c-2.25,4.25-2.37,5.87-2,6.87-1.53-1.18-.78-1.62-1.78-1.65C503.64,697.41,502.92,693.72,502.58,693.78Z"/><path d="M440.35,665.3l-1.55,1a18.41,18.41,0,0,0-.68-4.91A15.91,15.91,0,0,1,440.35,665.3Z"/><path d="M453.37,668.11a31.17,31.17,0,0,0-4.22-4.13,10,10,0,0,1,4.64,3.14A1,1,0,0,0,453.37,668.11Z"/><path d="M484.67,669.74a4.73,4.73,0,0,0-1.12,2.16c0-2.23-4.79-4-10.56-5.07C477.48,667.12,482.1,667.9,484.67,669.74Z"/><path d="M497.14,665.89a12,12,0,0,0,.17,2c-1.2-1.58-4.49-.24-7.27.63C489.75,667,491.4,665.81,497.14,665.89Z"/><path d="M507.93,667.89c-2.2-.68-4.33-1.17-5.24,0a11.81,11.81,0,0,0,.16-1.64C505.66,666.64,507.23,667.21,507.93,667.89Z"/><path d="M516.76,670.93a1.79,1.79,0,0,0-.31,1,5.41,5.41,0,0,0-.82-1.83A3.26,3.26,0,0,1,516.76,670.93Z"/><path d="M546.63,668.11c.23-1.49-2.74-2.22-6.87-2.34a9.43,9.43,0,0,1,7.69,1.44C547.19,667.49,546.91,667.79,546.63,668.11Z"/><path d="M561.21,665.36c0,.32,0,.64,0,.95-1.76-1.14-3.11-2-4.29-2.67A8.87,8.87,0,0,1,561.21,665.36Z"/><path d="M399.29,727.43c1.43-2.6,2.82-5.69,4.23-8.78.16-.31.3-.62.44-.92a6.48,6.48,0,0,0,.34,2.09c13.67,27.48.68,15.84.37,19.06C404.62,739.47,399.29,727.43,399.29,727.43Z"/><path d="M400.8,724.47c.58-2,1.06-4.36,1.55-6.7.06-.24.11-.47.16-.71a4.56,4.56,0,0,0,.56,1.39c13.68,16.81,2.93,10.81,3.21,13.08C406.34,731.94,400.8,724.47,400.8,724.47Z"/><path class="cls-4" d="M409.91,717.37c-2.57,1.62-.35,20.8-3.14,23.59-8.13,8.13-16.57-32.09-18-40.48-12.4-26.76-8.11-42.07-8.11-42.07s44-61.65,45.12-11.9c.59,25-5.22,45.87-12.81,57,7.82,3.31,14.6,8,10.64,14.38C419.24,724.82,414.9,714.23,409.91,717.37Z"/><path d="M388.8,700.8a9.79,9.79,0,0,1,1.89-7.3A25.23,25.23,0,0,1,388.8,700.8Z"/><path d="M407.26,702.59a6.92,6.92,0,0,1,6.39,1.2C410.82,703.76,407.62,702.93,407.26,702.59Z"/><path d="M441.09,618s.59,10,6.79,13.09c-8.46.49-5.22,16.83-5.22,16.83s-4.52-.79-8.56,5.61S441.09,618,441.09,618Z"/><path d="M417,595.79s41.5,28.54,16.74,58.24-47.21.07-47.21.07S383.51,592.67,417,595.79Z"/><path class="cls-4" d="M414.93,601.38s37.58,26.86,14.63,55.58-43.11.61-43.11.61S384.43,598.77,414.93,601.38Z"/><path class="cls-4" d="M379.87,670.53a6.1,6.1,0,0,0-1.75-5.75c2.13-1,2.75-7.87,2.13-8.75,1.5-.75,4.9-1.84,4.81-4.65,1.4,2.43,2.19,1.18,2.19,1.18s-2,6.66.31,7.5c0,0-5,4.22,2.5,9.19-5.85-.34-6.41,3.31-6.41,3.31S383.34,668.72,379.87,670.53Z"/><path d="M600.71,727.43c-1.43-2.6-2.82-5.69-4.23-8.78-.16-.31-.3-.62-.44-.92a6.48,6.48,0,0,1-.34,2.09c-13.67,27.48-.68,15.84-.37,19.06C595.38,739.47,600.71,727.43,600.71,727.43Z"/><path d="M599.2,724.47c-.58-2-1.06-4.36-1.55-6.7-.06-.24-.11-.47-.16-.71a4.56,4.56,0,0,1-.56,1.39c-13.68,16.81-2.93,10.81-3.21,13.08C593.66,731.94,599.2,724.47,599.2,724.47Z"/><path class="cls-4" d="M590.09,717.37c2.57,1.62.35,20.8,3.14,23.59,8.13,8.13,16.57-32.09,18-40.48,12.4-26.76,8.11-42.07,8.11-42.07s-44-61.65-45.12-11.9c-.59,25,5.22,45.87,12.81,57-7.82,3.31-14.6,8-10.64,14.38C580.76,724.82,585.1,714.23,590.09,717.37Z"/><path d="M611.2,700.8a9.79,9.79,0,0,0-1.89-7.3A25.23,25.23,0,0,0,611.2,700.8Z"/><path d="M592.74,702.59a6.92,6.92,0,0,0-6.39,1.2C589.18,703.76,592.38,702.93,592.74,702.59Z"/><path d="M558.91,618s-.59,10-6.79,13.09c8.46.49,5.22,16.83,5.22,16.83s4.52-.79,8.56,5.61S558.91,618,558.91,618Z"/><path d="M583.05,595.79s-41.5,28.54-16.74,58.24,47.21.07,47.21.07S616.49,592.67,583.05,595.79Z"/><path class="cls-4" d="M585.07,601.38S547.49,628.24,570.44,657s43.11.61,43.11.61S615.57,598.77,585.07,601.38Z"/><path class="cls-4" d="M620.13,670.53a6.1,6.1,0,0,1,1.75-5.75c-2.13-1-2.75-7.87-2.13-8.75-1.5-.75-4.9-1.84-4.81-4.65-1.4,2.43-2.19,1.18-2.19,1.18s2,6.66-.31,7.5c0,0,5,4.22-2.5,9.19,5.85-.34,6.41,3.31,6.41,3.31S616.66,668.72,620.13,670.53Z"/></g></g></g></svg>