<svg xmlns="http://www.w3.org/2000/svg" viewBox="0 0 1000 1000"><defs><style>.cls-1{fill:none;}.cls-2{fill:#e7e5e1;}.cls-3{fill:#b4894c;}.cls-4{fill:#161616;}.cls-5{opacity:0.2;}.cls-6{fill:#895c27;}.cls-7{fill:#999;}</style></defs><g id="Layer_2" data-name="Layer 2"><g id="OutPut"><rect id="BG" class="cls-1" width="1000" height="1000"/></g><g id="Body"><g id="_7" data-name="7"><path class="cls-2" d="M562.15,660.44v5q0,.87,0,1.74a63.08,63.08,0,0,1-2.26,15.15,1.87,1.87,0,0,0-.07.22v0a58.77,58.77,0,0,1-1.88,5.57v0a3.76,3.76,0,0,0,.3,1.5,3,3,0,0,0-1,.31c-3.12,1.49-6.17,3.3-8.8,13.6,0,.16-3.39,5.31-3.43,5.47-.11,0-1.92,2.61-2,2.61-1.49,0-.57-1-2.26,1.17h0a18.61,18.61,0,0,1-6.71,5.46q.15-.25.27-.51c-1.33.9-4.15,2.69-6.71,4.3s-4.91,3-5.24,3.14c-12.56,5.29-30.64,1.61-31,2.36.33.74-11.54-1.25-11.63,0a41.21,41.21,0,0,1-5.88-2.16c-3.33-1.73-6-6.3-8.21-7.79a5.08,5.08,0,0,0,.33.66c-3.7-1.82-6.21-2.72-7.59-4.56s-1.65-4.63-2.94-4.71l-.34-.36c0-.1-3.4-5-3.42-5.09-1.93-7.39-2.59-8.16-5.8-11.22-.21-.21-.42-.4-.62-.58h0a7.56,7.56,0,0,0-.63-.54,10.88,10.88,0,0,0-1.68-1.14,3,3,0,0,0-1.23-.42,4.13,4.13,0,0,0,.3-1.92,11.9,11.9,0,0,0-1.58-4.7c-.06-.22-.12-.43-.19-.65A62.71,62.71,0,0,1,438,668.68c-.06-1.08-.09-2.16-.09-3.25v-5a20.25,20.25,0,0,1,.95,5.9c7-4.56,8-5.55,14.57,1.8-.71-4.7,30.18-1.85,30.18,3.79.05-.22.75-3.25,3.18-2.79s8.82-3.51,10.58-1.19c-.67-3.83,1.38-8.13,3.3-9.3,1.93,1.17,2.75,5.47,2.08,9.3,1.76-2.32,8.07,1.66,10.58,1.19s3.13,2.57,3.18,2.79c0-5.64,30.89-8.49,30.18-3.79,6.6-7.35,7.55-6.36,14.57-1.8A20,20,0,0,1,562.15,660.44Z"/><path class="cls-3" d="M562.14,623.91v36.53a23.27,23.27,0,0,0-.93,4.92c0,.32,0,.64,0,.95-1.76-1.14-3.11-2-4.29-2.67h0c-3.33-1.75-5.1-1.11-9.43,3.58-.26.28-.54.58-.82.9.23-1.49-2.74-2.22-6.87-2.34h0c-8.14-.24-20.83,1.86-23,5.16a1.79,1.79,0,0,0-.31,1,5.41,5.41,0,0,0-.82-1.83h0a2.28,2.28,0,0,0-2.35-.95c-1.21.23-3.3-.58-5.33-1.21h0c-2.2-.68-4.33-1.17-5.24,0a11.81,11.81,0,0,0,.16-1.64c.08-3.13-.51-5.75-2.16-6.75a8,8,0,0,0-3.55,6.36,12,12,0,0,0,.17,2c-1.2-1.58-4.49-.24-7.27.63a8.16,8.16,0,0,1-3.31.56,2.2,2.2,0,0,0-2.06.63,4.73,4.73,0,0,0-1.12,2.16c0-2.23-4.79-4-10.56-5.07h0c-7.68-1.42-17.08-1.55-19.17.3a1,1,0,0,0-.42,1,31.17,31.17,0,0,0-4.22-4.13c-2.94-2.2-4.75-1.3-8.8,1.32l-1.55,1a18.41,18.41,0,0,0-.68-4.91l-.27-1v-36.5a6.77,6.77,0,0,1,6.71-6.79H555.42A6.78,6.78,0,0,1,562.14,623.91Z"/><circle cx="500" cy="697.08" r="2.04"/><path class="cls-2" d="M440.36,683l-.45-.75.26.1C440.24,682.61,440.3,682.82,440.36,683Z"/><path class="cls-2" d="M455.37,709c-.15,0,0,.06-.15.09a2.88,2.88,0,0,0-.19-.45Z"/><path class="cls-4" d="M497.27,693.78a3.35,3.35,0,0,1-3.25.38c2.25,4.25,2.37,5.87,2,6.87,1.53-1.18.78-1.62,1.78-1.65C496.21,697.41,496.92,693.72,497.27,693.78Z"/><path class="cls-2" d="M560,682.28l-.17.26a1.87,1.87,0,0,1,.07-.22Z"/><path class="cls-4" d="M502.58,693.78a3.35,3.35,0,0,0,3.25.38c-2.25,4.25-2.37,5.87-2,6.87-1.53-1.18-.78-1.62-1.78-1.65C503.64,697.41,502.92,693.72,502.58,693.78Z"/><path class="cls-5" d="M440.35,665.3l-1.55,1a18.41,18.41,0,0,0-.68-4.91A15.91,15.91,0,0,1,440.35,665.3Z"/><path class="cls-5" d="M453.37,668.11a31.17,31.17,0,0,0-4.22-4.13,10,10,0,0,1,4.64,3.14A1,1,0,0,0,453.37,668.11Z"/><path class="cls-5" d="M484.67,669.74a4.73,4.73,0,0,0-1.12,2.16c0-2.23-4.79-4-10.56-5.07C477.48,667.12,482.1,667.9,484.67,669.74Z"/><path class="cls-5" d="M497.14,665.89a12,12,0,0,0,.17,2c-1.2-1.58-4.49-.24-7.27.63C489.75,667,491.4,665.81,497.14,665.89Z"/><path class="cls-5" d="M507.93,667.89c-2.2-.68-4.33-1.17-5.24,0a11.81,11.81,0,0,0,.16-1.64C505.66,666.64,507.23,667.21,507.93,667.89Z"/><path class="cls-5" d="M516.76,670.93a1.79,1.79,0,0,0-.31,1,5.41,5.41,0,0,0-.82-1.83A3.26,3.26,0,0,1,516.76,670.93Z"/><path class="cls-5" d="M546.63,668.11c.23-1.49-2.74-2.22-6.87-2.34a9.43,9.43,0,0,1,7.69,1.44C547.19,667.49,546.91,667.79,546.63,668.11Z"/><path class="cls-5" d="M561.21,665.36c0,.32,0,.64,0,.95-1.76-1.14-3.11-2-4.29-2.67A8.87,8.87,0,0,1,561.21,665.36Z"/><path class="cls-6" d="M402.42,727.43c1.43-2.6,2.82-5.69,4.23-8.78l.44-.92a6.48,6.48,0,0,0,.34,2.09c13.67,27.48.68,15.84.37,19.06C407.75,739.47,402.42,727.43,402.42,727.43Z"/><path class="cls-6" d="M403.92,724.47c.59-2,1.06-4.36,1.56-6.7.06-.24.11-.47.16-.71a4.56,4.56,0,0,0,.56,1.39c13.68,16.81,2.93,10.81,3.21,13.08C409.46,731.94,403.92,724.47,403.92,724.47Z"/><path class="cls-3" d="M413,717.37c-2.57,1.62-.35,20.8-3.14,23.59-8.13,8.13-16.57-32.09-18-40.48-12.39-26.76-8.1-42.07-8.1-42.07s44-61.65,45.12-11.9c.58,25-5.22,45.87-12.82,57,7.83,3.31,14.6,8,10.65,14.38C422.36,724.82,418,714.23,413,717.37Z"/><path class="cls-6" d="M391.92,700.8a9.82,9.82,0,0,1,1.9-7.3A24.79,24.79,0,0,1,391.92,700.8Z"/><path class="cls-6" d="M410.38,702.59a6.94,6.94,0,0,1,6.4,1.2A17.43,17.43,0,0,1,410.38,702.59Z"/><path class="cls-6" d="M444.22,618s.59,10,6.79,13.09c-8.47.49-5.22,16.83-5.22,16.83s-4.53-.79-8.56,5.61S444.22,618,444.22,618Z"/><path class="cls-6" d="M420.07,595.79s41.51,28.54,16.75,58.24-47.21.07-47.21.07S386.64,592.67,420.07,595.79Z"/><path class="cls-3" d="M418.06,601.38s37.58,26.86,14.63,55.58-43.11.61-43.11.61S387.56,598.77,418.06,601.38Z"/><path class="cls-3" d="M383,670.53a6.13,6.13,0,0,0-1.75-5.75c2.12-1,2.75-7.87,2.12-8.75,1.5-.75,4.91-1.84,4.82-4.65,1.4,2.43,2.18,1.18,2.18,1.18s-2,6.66.32,7.5c0,0-5,4.22,2.5,9.19-5.85-.34-6.41,3.31-6.41,3.31S386.47,668.72,383,670.53Z"/><path class="cls-7" d="M597.58,727.43c-1.43-2.6-2.82-5.69-4.23-8.78l-.44-.92a6.48,6.48,0,0,1-.34,2.09c-13.67,27.48-.68,15.84-.37,19.06C592.25,739.47,597.58,727.43,597.58,727.43Z"/><path class="cls-7" d="M596.08,724.47c-.59-2-1.06-4.36-1.56-6.7-.06-.24-.11-.47-.16-.71a4.56,4.56,0,0,1-.56,1.39c-13.68,16.81-2.93,10.81-3.21,13.08C590.54,731.94,596.08,724.47,596.08,724.47Z"/><path class="cls-2" d="M587,717.37c2.57,1.62.35,20.8,3.14,23.59,8.13,8.13,16.57-32.09,18-40.48,12.39-26.76,8.1-42.07,8.1-42.07s-44-61.65-45.12-11.9c-.58,25,5.22,45.87,12.82,57-7.83,3.31-14.6,8-10.65,14.38C577.64,724.82,582,714.23,587,717.37Z"/><path class="cls-7" d="M608.08,700.8a9.82,9.82,0,0,0-1.9-7.3A24.79,24.79,0,0,0,608.08,700.8Z"/><path class="cls-7" d="M589.62,702.59a6.94,6.94,0,0,0-6.4,1.2A17.43,17.43,0,0,0,589.62,702.59Z"/><path class="cls-7" d="M555.78,618S555.19,628,549,631c8.47.49,5.22,16.83,5.22,16.83s4.53-.79,8.56,5.61S555.78,618,555.78,618Z"/><path class="cls-7" d="M579.93,595.79S538.42,624.33,563.18,654s47.21.07,47.21.07S613.36,592.67,579.93,595.79Z"/><path class="cls-2" d="M581.94,601.38S544.36,628.24,567.31,657s43.11.61,43.11.61S612.44,598.77,581.94,601.38Z"/><path class="cls-2" d="M617,670.53a6.13,6.13,0,0,1,1.75-5.75c-2.12-1-2.75-7.87-2.12-8.75-1.5-.75-4.91-1.84-4.82-4.65-1.4,2.43-2.18,1.18-2.18,1.18s2,6.66-.32,7.5c0,0,5,4.22-2.5,9.19,5.85-.34,6.41,3.31,6.41,3.31S613.53,668.72,617,670.53Z"/></g></g></g></svg>