<svg xmlns="http://www.w3.org/2000/svg" viewBox="0 0 1000 1000"><defs><style>.cls-1{fill:none;}.cls-2{fill:#d8884d;}.cls-3{fill:#ce804a;}.cls-4{fill:#aa6b3f;}.cls-5{fill:#db925f;}.cls-6{fill:#865a3e;}.cls-7{fill:#603f2d;}.cls-8{fill:#7c513c;}</style></defs><g id="Layer_2" data-name="Layer 2"><g id="OutPut"><rect id="BG" class="cls-1" width="1000" height="1000"/></g><g id="Body"><g id="_6" data-name="6"><path class="cls-2" d="M533.62,720.06h0c-8.34,5.66-19,9.05-32.53,9.05-80.94,0-61.27-118.85-61.27-118.85q4.31-.93,8.69-1.68c2.74-.49,5.5-.92,8.25-1.3,6.35-.89,12.7-1.55,19-2a410.76,410.76,0,0,1,58.51.19c15.31,1.1,25.15,2.6,25.15,2.6a205.64,205.64,0,0,1,2.72,26.31c.88,20.58-1.27,48.85-13.71,69.19C544.46,710,540,715.76,533.62,720.06Z"/><path class="cls-3" d="M501.08,729.11c-80.94,0-61.27-118.85-61.27-118.85,5.58-1.2,11.26-2.19,16.94-3,0,0-5.3,56.7,3.93,59.43s.15,24.72,6.34,26,5.53,14,19.37,12.67,41.54,13,46.81,8.5,26-37.22,28.9-79.57c.88,20.53-1.35,48.86-13.71,69.19C539.31,718.49,525.05,729.11,501.08,729.11Z"/><path class="cls-4" d="M533.61,720.06c-8.34,5.66-19,9.05-32.53,9.05-23.94,0-40-10.9-49.47-25.55-22.5-34.87-11.8-93.3-11.8-93.3q4.31-.93,8.69-1.68c0,.95-.31,66.2,4.92,69.52s3.31,20.65,9.89,22.66,6.6,15.67,29.67,13.17S519.53,725.35,533.61,720.06Z"/><path class="cls-5" d="M531.22,651.69c-5.27,1.6-13.84,33.07-25.4,33.07s-20.75-14.66-20.09-18S479.8,648.1,472.22,648s3.5-42.68,3.5-42.68h0a410.76,410.76,0,0,1,58.51.19C537.15,623.42,535.46,650.41,531.22,651.69Z"/><path class="cls-3" d="M431.93,708.06c-.15,1-.32,2.07-.52,3.12-2.15,11.41-6.64,16.14-11.94,17.09a13.14,13.14,0,0,1-4.51,0c-6.25-1-13-5.69-18.11-10.08a88.11,88.11,0,0,1-8.56-8.35s.27-1.2.54-3.17c.81-5.83,1.64-18.48-4.44-27-8.15-11.39-.64-39.5-.64-39.5,2.2.54,4.36,1.18,6.5,1.89h0c14.58,4.92,27.35,13.85,35,26.73h0C431.45,679.28,434.27,692.37,431.93,708.06Z"/><path class="cls-2" d="M425.24,668.78h0s-26.29-3.91-37-16.41a17,17,0,0,1-4.46-12.24c1.13-22.33,25.41-46.37,25.41-46.37s.93-.1,2.49-.14c6.33-.18,30.31,4.59,36.24,17.2C455.19,626.36,425.81,667.64,425.24,668.78Z"/><path class="cls-6" d="M423.27,738.58l-3.8-10.31-3.08-8.34L415,728.25c-.57,3.37-1.29,7.53-2.07,12.09a54.68,54.68,0,0,1-10.93-1c-27.2-5.56-13.21-32.71-13.21-32.71l.08,0a241.62,241.62,0,0,0,24.13,2.7h0c1.39.07,2.78.12,4.15.14h.16c5.81.11,11.18-.26,14.6-1.53l.05.1C446.44,735.5,423.27,738.58,423.27,738.58Z"/><polygon class="cls-7" points="423.27 738.58 413.26 738.21 416.38 719.93 423.27 738.58"/><path class="cls-4" d="M413,709.35a241.62,241.62,0,0,1-24.13-2.7c.81-5.83,1.64-18.48-4.44-27-8.15-11.39-.64-39.5-.64-39.5,1.13-22.33,25.41-46.37,25.41-46.37s.93-.1,2.49-.14c-5.29,8.19-27.06,42.76-21.4,48.4h0c4.82,4.76.45,6.88-2,10.34a6.8,6.8,0,0,0-1.44,4.21c.13,6.54,13.19,31.27,9.44,36C392.75,696.89,396.76,707.93,413,709.35Z"/><path class="cls-8" d="M417.28,709.49h0c-1.59,5.59-15.81,5.11-20.43,8.67-1.84,1.42-2.17,3.46.39,6.77,4.85,6.28,5.32,11.19,4.72,14.4-27.2-5.56-13.21-32.71-13.21-32.71l.08,0a241.62,241.62,0,0,0,24.13,2.7h0c1.31.11,2.68.16,4.15.14Z"/><path class="cls-2" d="M568.77,708.3c.17,1,.36,2.06.58,3.11,2.34,11.37,6.91,16,12.23,16.89a13.39,13.39,0,0,0,4.5-.1c6.23-1.1,12.88-5.91,17.94-10.39a88.61,88.61,0,0,0,8.41-8.5s-.28-1.18-.59-3.15c-.91-5.82-2-18.45,4-27.07,7.94-11.53,0-39.51,0-39.51-2.19.58-4.35,1.26-6.47,2h0c-14.49,5.16-27.1,14.31-34.53,27.32h0C568.77,679.51,566.16,692.65,568.77,708.3Z"/><path class="cls-3" d="M574.79,668.91h0s26.22-4.35,36.74-17a17.08,17.08,0,0,0,4.26-12.32c-1.52-22.3-26.2-45.93-26.2-45.93s-.93-.08-2.49-.1c-6.34-.08-30.23,5.1-36,17.82C544.13,627,574.21,667.78,574.79,668.91Z"/><path class="cls-6" d="M577.94,738.67l3.64-10.37,2.93-8.39,1.57,8.29c.63,3.35,1.42,7.5,2.27,12a55.59,55.59,0,0,0,10.92-1.18c27.1-6,12.65-32.93,12.65-32.93l-.08,0a241.11,241.11,0,0,1-24.09,3.1h0c-1.38.09-2.77.16-4.14.21h-.16c-5.81.21-11.18-.07-14.62-1.28l-.05.1C554.73,736,577.94,738.67,577.94,738.67Z"/><polygon class="cls-7" points="577.94 738.67 587.95 738.13 584.51 719.9 577.94 738.67"/><path class="cls-4" d="M587.75,709.26a241.11,241.11,0,0,0,24.09-3.1c-.91-5.82-2-18.45,4-27.07,7.94-11.53,0-39.51,0-39.51-1.52-22.3-26.2-45.93-26.2-45.93s-.93-.08-2.49-.1c5.43,8.1,27.77,42.29,22.22,48h0c-4.73,4.84-.33,6.88,2.22,10.31a6.78,6.78,0,0,1,1.51,4.18c0,6.54-12.66,31.49-8.83,36.11C607.76,696.47,603.94,707.58,587.75,709.26Z"/><path class="cls-8" d="M583.44,709.48h0c1.69,5.56,15.89,4.84,20.58,8.32,1.86,1.39,2.23,3.42-.28,6.78-4.75,6.36-5.13,11.28-4.47,14.48,27.1-6,12.65-32.93,12.65-32.93l-.08,0a241.11,241.11,0,0,1-24.09,3.1h0c-1.3.13-2.67.2-4.14.21Z"/></g></g></g></svg>