<svg xmlns="http://www.w3.org/2000/svg" viewBox="0 0 1000 1000"><defs><style>.cls-1{fill:none;}.cls-2{fill:#490000;}.cls-3{fill:#7f0000;}.cls-4{fill:#b20000;}</style></defs><g id="Layer_2" data-name="Layer 2"><g id="OutPut"><rect id="BG" class="cls-1" width="1000" height="1000"/></g><g id="Red_Hair" data-name="Red Hair"><g id="_9" data-name="9"><g id="_8" data-name="8"><path class="cls-2" d="M346.72,311.92c-11.8,4-54.83-27.39-60.09-21.84-4.5-30.7,28.91-162.5,28.91-162.5s3,.74,4-14.39l4.72,20.06,2.1-7.3,4.41-10.51,2,9.58,5.12,11.64,2.94-30.14,4.81,16.71,1.09,4.75s-31,111.55,0,183.92Z"/><path class="cls-2" d="M706.7,278.2c-15.87-10.83-66.91,26.28-83.48,22.83,37-47.39,25.57-159.12,25.57-159.12l11.42-31.85c3,12.86,14.82,12.14,28.37,39.66C710.74,194.67,715.69,261.67,706.7,278.2Z"/><path class="cls-3" d="M564.27,303.87c-27.81,5.07-51.1,30.26-64.27,36.21-19.07-14.82-53.94-36.16-89.09-35.68l0,0s48.48-11.51,60-5.25,9.11,15.29,27.31,12.51C515.93,308.93,561.86,304.12,564.27,303.87Z"/><path class="cls-3" d="M649.79,253.46h0c-4,20.77-10.72,40.48-21.69,54.52A151.22,151.22,0,0,0,609,305.25h0a173.8,173.8,0,0,0-27.77.08s19.62-55.53-7.66-153c0,0,3.38-22.74,5.61-37.26a57.64,57.64,0,0,0,.4-13.41c.21,1,3,7.63,4.75,13.66,3.21,11.14,7.71,26,7.92,26s3.09-20.81,3.09-20.81,23.6,26.45,27.94,20.85c10.32-13.29,6-36.49,6-36.49L644,122.78l9.65,26.08S659.31,204.16,649.79,253.46Z"/><path class="cls-3" d="M417,308.57A292.67,292.67,0,0,0,369.68,313h0a198.83,198.83,0,0,0-29,7.27h0c-10.89-25.39-14.14-55.6-13.76-84.11v0c.69-52.78,13.76-99.79,13.76-99.79l2.31-5.21,7.8-15.14,6.58,13.25,1,1.61s.15-.68.4-1.78c1.31-5.68,6.74-15.43,6.6-16.39-.4-2.75,1.7,10.53,3.16,15.17,4.69,15,13.14,35.84,13.14,35.84l6.15-33.27,5.69,14.32,3.62-20.21-.2-5.41,2.24,5.18,1.58,6.55,1.07-6.82,8.3-26.81L415,122.62l1.94,5.2s-50,98.07,0,180.73C417,308.55,417,308.57,417,308.57Z"/><path class="cls-4" d="M584.81,301.16c-7,.57-13.86,1.5-20.45,2.7h-.09c-2.41.25-48.34,5.06-66.07,7.77-18.2,2.78-15.78-6.26-27.31-12.51s-60,5.25-60,5.25c-50-82.66,0-180.74,0-180.74l2.43-5.64,6.46-19.57,13.07,17.74,9.67,15.41s2.69-10.74,4.4-16.61c.71-2.45,3.57-4.06,3.66-3.7s-1.79,1.6-1.08,3.48c2.67,7.07,8.68,22.38,8.68,22.38l11-23.83,11.61-29.65,18.54,27.9L505.47,124s1.21-6,2.64-12.83c2-9.58,9.48-22.56,9.66-22s-2.29,12.86-.13,21.59c1.42,5.71,2.65,10.63,2.89,11.45.28,1,5.31-5.08,10.59-11.81,6-7.63,8.5-18.63,8.5-18.63l6.88,18.43,3.25,16.85S560.19,105,562,103.18c.78,1.95,1.56,3.92,2.32,5.91,0,.11.07.22.12.33,4,11.9,12.05,36.62,12.71,38.59l0,.13C604.44,245.63,584.81,301.16,584.81,301.16Z"/><path class="cls-4" d="M369.67,313a198.83,198.83,0,0,0-29,7.27h0c-10.89-25.39-14.14-55.6-13.76-84.11C327.53,239.91,340.72,313.49,369.67,313Z"/><path class="cls-4" d="M649.77,253.46c-4,20.77-10.72,40.48-21.69,54.52A151.22,151.22,0,0,0,609,305.25C632.66,303.72,649.77,253.46,649.77,253.46Z"/></g><path class="cls-2" d="M450.24,405.37s-27.85.34-56.72-.15c-27.73-.47-56.4-1.7-62.28-4.7-12-6.13,5.81-20.13,5.81-20.13,3.13-2.91,52.64,2.45,84.74,7.47h0c12.07,1.89,21.67,3.73,25.43,5.07C441.74,397.83,450.24,405.37,450.24,405.37Z"/><path class="cls-4" d="M450.24,405.37s-27.85.34-56.72-.15c13.47-1.22,63.81-6.64,28.29-17.35,12.07,1.89,21.67,3.73,25.43,5.07C441.74,397.83,450.24,405.37,450.24,405.37Z"/><path class="cls-2" d="M549.76,405.37s27.85.34,56.72-.15c27.73-.47,56.4-1.7,62.28-4.7,12-6.13-5.81-20.13-5.81-20.13-3.13-2.91-52.64,2.45-84.74,7.47h0c-12.07,1.89-21.67,3.73-25.43,5.07C558.26,397.83,549.76,405.37,549.76,405.37Z"/><path class="cls-4" d="M549.76,405.37s27.85.34,56.72-.15c-13.47-1.22-63.81-6.64-28.29-17.35-12.07,1.89-21.67,3.73-25.43,5.07C558.26,397.83,549.76,405.37,549.76,405.37Z"/></g></g></g></svg>