<svg xmlns="http://www.w3.org/2000/svg" viewBox="0 0 1000 1000"><defs><style>.cls-1{fill:none;}.cls-2{fill:#7f0000;}.cls-3{fill:#490000;}.cls-4{fill:#b20000;}</style></defs><g id="Layer_2" data-name="Layer 2"><g id="OutPut"><rect id="BG" class="cls-1" width="1000" height="1000"/></g><g id="Red_Hair" data-name="Red Hair"><g id="_9" data-name="9"><path class="cls-2" d="M706.7,278.2c-13.32-9.09-51.44,15.61-73.14,21.72a76.47,76.47,0,0,1-5.48,8.06A151.22,151.22,0,0,0,609,305.25h0a173.8,173.8,0,0,0-27.77.08s.47-1.33,1.17-3.95c-6.15.57-12.17,1.42-18,2.48h-.09c-27.81,5.07-51.1,30.26-64.27,36.21-18.41-14.31-51.55-34.7-85.45-35.65q1.15,2.07,2.4,4.12s0,0,0,0A292.67,292.67,0,0,0,369.68,313h0a198.83,198.83,0,0,0-29,7.27h0q-2-4.61-3.62-9.4c-17.16-5.56-46.13-25.26-50.39-20.77-4.5-30.7,28.91-162.5,28.91-162.5s3,.74,4-14.39l4.72,20.06,2.1-7.3,4.41-10.51,2,9.58,5.12,11.64,2.94-30.14,4.81,16.71.43,1.87,4.7-9.13,6.58,13.25,1,1.61s.15-.68.4-1.78c1.31-5.68,6.74-15.43,6.6-16.39-.4-2.75,1.7,10.53,3.16,15.17,4.69,15,13.14,35.84,13.14,35.84l6.15-33.27,5.69,14.32,3.62-20.21-.2-5.41,2.24,5.18,1.58,6.55,1.07-6.82,8.3-26.81,3.75,19.28,6-18,13.07,17.74,9.67,15.41s2.69-10.74,4.4-16.61c.71-2.45,3.57-4.06,3.66-3.7s-1.79,1.6-1.08,3.48c2.67,7.07,8.68,22.38,8.68,22.38l11-23.83,11.61-29.65,18.54,27.9L505.47,124s1.21-6,2.64-12.83c2-9.58,9.48-22.56,9.66-22s-2.29,12.86-.13,21.59c1.42,5.71,2.65,10.63,2.89,11.45.28,1,5.31-5.08,10.59-11.81,6-7.63,8.5-18.63,8.5-18.63l6.88,18.43,3.25,16.85S560.19,105,562,103.18c.78,1.95,1.56,3.92,2.32,5.91,0,.11.07.22.12.33,2.87,8.57,7.85,23.79,10.67,32.37,1.17-7.85,2.79-18.59,4-26.74a57.64,57.64,0,0,0,.4-13.41c.21,1,3,7.63,4.75,13.66,3.21,11.14,7.71,26,7.92,26s3.09-20.81,3.09-20.81,23.6,26.45,27.94,20.85c10.32-13.29,6-36.49,6-36.49L644,122.78l5.92,16,10.29-28.71c3,12.86,14.82,12.14,28.37,39.66C710.74,194.67,715.69,261.67,706.7,278.2Z"/><g id="_8" data-name="8"><path class="cls-3" d="M346.72,311.92c-2.25.77-5.65.24-9.7-1.07-17.16-5.56-46.13-25.26-50.39-20.77-4.5-30.7,28.91-162.5,28.91-162.5s3,.74,4-14.39l4.72,20.06,2.1-7.3,4.41-10.51,2,9.58,5.12,11.64,2.94-30.14,4.81,16.71.43,1.87.66,2.88s-20.86,75-11.26,141.9c2.1,14.69,5.67,29,11.26,42Z"/><path class="cls-3" d="M706.7,278.2c-13.32-9.09-51.44,15.61-73.14,21.72-4.14,1.17-7.68,1.66-10.34,1.11a80,80,0,0,0,5.8-8.58c30-51,19.77-150.54,19.77-150.54l1.13-3.14,10.29-28.71c3,12.86,14.82,12.14,28.37,39.66C710.74,194.67,715.69,261.67,706.7,278.2Z"/><path class="cls-2" d="M564.27,303.87c-27.81,5.07-51.1,30.26-64.27,36.21-18.41-14.31-51.55-34.7-85.45-35.65-1.22,0-2.43-.05-3.64,0l0,0s1.18-.28,3.23-.73c11-2.43,47.05-9.8,56.78-4.52,11.53,6.25,9.11,15.29,27.31,12.51C515.93,308.93,561.86,304.12,564.27,303.87Z"/><path class="cls-2" d="M649.79,253.46h0v0c-3.28,17-8.4,33.36-16.2,46.42a76.47,76.47,0,0,1-5.48,8.06A151.22,151.22,0,0,0,609,305.25h0a173.8,173.8,0,0,0-27.77.08s.47-1.33,1.17-3.95c3.78-14.26,14.22-66.68-8.83-149.07,0,0,.65-4.38,1.57-10.52,1.17-7.85,2.79-18.59,4-26.74a57.64,57.64,0,0,0,.4-13.41c.21,1,3,7.63,4.75,13.66,3.21,11.14,7.71,26,7.92,26s3.09-20.81,3.09-20.81,23.6,26.45,27.94,20.85c10.32-13.29,6-36.49,6-36.49L644,122.78l5.92,16,3.73,10.09S659.31,204.16,649.79,253.46Z"/><path class="cls-2" d="M417,308.57A292.67,292.67,0,0,0,369.68,313h0a198.83,198.83,0,0,0-29,7.27h0q-2-4.61-3.62-9.4c-8-23.26-10.47-49.64-10.14-74.71v0c.69-52.78,13.76-99.79,13.76-99.79l2.31-5.21,3.1-6,4.7-9.13,6.58,13.25,1,1.61s.15-.68.4-1.78c1.31-5.68,6.74-15.43,6.6-16.39-.4-2.75,1.7,10.53,3.16,15.17,4.69,15,13.14,35.84,13.14,35.84l6.15-33.27,5.69,14.32,3.62-20.21-.2-5.41,2.24,5.18,1.58,6.55,1.07-6.82,8.3-26.81,3.75,19.28,1.2,6.14,1.94,5.2s-48,94.24-2.84,175.83c.14.26.29.52.44.78q1.15,2.07,2.4,4.12S417,308.57,417,308.57Z"/><path class="cls-4" d="M584.81,301.16l-2.47.22c-6.15.57-12.17,1.42-18,2.48h-.09c-2.41.25-48.34,5.06-66.07,7.77-18.2,2.78-15.78-6.26-27.31-12.51-9.73-5.28-45.76,2.09-56.78,4.52-2.05.45-3.23.73-3.23.73-50-82.66,0-180.74,0-180.74l2.43-5.64.5-1.52,6-18,13.07,17.74,9.67,15.41s2.69-10.74,4.4-16.61c.71-2.45,3.57-4.06,3.66-3.7s-1.79,1.6-1.08,3.48c2.67,7.07,8.68,22.38,8.68,22.38l11-23.83,11.61-29.65,18.54,27.9L505.47,124s1.21-6,2.64-12.83c2-9.58,9.48-22.56,9.66-22s-2.29,12.86-.13,21.59c1.42,5.71,2.65,10.63,2.89,11.45.28,1,5.31-5.08,10.59-11.81,6-7.63,8.5-18.63,8.5-18.63l6.88,18.43,3.25,16.85S560.19,105,562,103.18c.78,1.95,1.56,3.92,2.32,5.91,0,.11.07.22.12.33,2.87,8.57,7.85,23.79,10.67,32.37l2,6.22,0,.13C604.44,245.63,584.81,301.16,584.81,301.16Z"/><path class="cls-4" d="M369.67,313a198.83,198.83,0,0,0-29,7.27h0q-2-4.61-3.62-9.4c-8-23.26-10.47-49.64-10.14-74.71a256.79,256.79,0,0,0,8.57,33.74C342.36,290.67,353.58,313.27,369.67,313Z"/><path class="cls-4" d="M649.76,253.5c-3.28,17-8.4,33.36-16.2,46.42a76.47,76.47,0,0,1-5.48,8.06A151.22,151.22,0,0,0,609,305.25c7.44-.48,14.24-5.77,20.06-12.8C641.43,277.45,649.4,254.53,649.76,253.5Z"/></g><path class="cls-3" d="M450.24,405.37s-27.85.34-56.72-.15c-27.73-.47-56.4-1.7-62.28-4.7-12-6.13,5.81-20.13,5.81-20.13,3.13-2.91,52.64,2.45,84.74,7.47h0c12.07,1.89,21.67,3.73,25.43,5.07C441.74,397.83,450.24,405.37,450.24,405.37Z"/><path class="cls-4" d="M450.24,405.37s-27.85.34-56.72-.15c13.47-1.22,63.81-6.64,28.29-17.35,12.07,1.89,21.67,3.73,25.43,5.07C441.74,397.83,450.24,405.37,450.24,405.37Z"/><path class="cls-3" d="M549.76,405.37s27.85.34,56.72-.15c27.73-.47,56.4-1.7,62.28-4.7,12-6.13-5.81-20.13-5.81-20.13-3.13-2.91-52.64,2.45-84.74,7.47h0c-12.07,1.89-21.67,3.73-25.43,5.07C558.26,397.83,549.76,405.37,549.76,405.37Z"/><path class="cls-4" d="M549.76,405.37s27.85.34,56.72-.15c-13.47-1.22-63.81-6.64-28.29-17.35-12.07,1.89-21.67,3.73-25.43,5.07C558.26,397.83,549.76,405.37,549.76,405.37Z"/></g></g></g></svg>