<svg xmlns="http://www.w3.org/2000/svg" viewBox="0 0 1000 1000"><defs><style>.cls-1{fill:none;}.cls-2{fill:#90543c;}.cls-3{fill:#b56f4e;}.cls-4{fill:#007f00;}.cls-5{fill:#004900;}.cls-6{fill:#00b200;}</style></defs><g id="Layer_2" data-name="Layer 2"><g id="OutPut"><rect id="BG" class="cls-1" width="1000" height="1000"/></g><g id="Mounth_Up"><g id="_3" data-name="3"><path class="cls-2" d="M498.87,578.28l-.44.52c.11-.42.23-.86.38-1.32s.42-.59.66-.51a3.81,3.81,0,0,1,.45.19C499.5,577.57,499.16,577.94,498.87,578.28Z"/><path class="cls-2" d="M499.92,577.16c.1-.11.22-.22.34-.34C500.23,577.2,500.09,577.22,499.92,577.16Z"/><path class="cls-2" d="M498.43,578.8a13,13,0,0,0-.27,1.39c-.27.8-.39,1.3-.39,1.3S496.59,581.15,498.43,578.8Z"/><path class="cls-3" d="M500.22,648.79A2.81,2.81,0,0,1,500,650C499.61,650.58,499.8,649.94,500.22,648.79Z"/><path class="cls-2" d="M500.22,648.79A2.81,2.81,0,0,1,500,650C499.61,650.58,499.8,649.94,500.22,648.79Z"/><path class="cls-4" d="M502,579.82s-1.52,6.25-5.79,10.41a12.46,12.46,0,0,1-5.91,3.34,84.59,84.59,0,0,1-14.65,2.26l.47-1.44-7.89,1,4-3.34s-11.7-.92-17.37-3C419.46,576,426.73,603.7,427,604.8c-1.82-5.11-14-9.2-9.57-22.11C412.68,588,408.6,588,408.6,588c4.89-4.59,2-8,6.14-12.72h0c.17-.2.36-.4.56-.61a18,18,0,0,1,2-1.74c7.8-6,14.35-6.56,20.91-5.5-2.56-3.58-4.29-4.39-5-4.56,2.07.2,10.77,1,12.49,1.53,2,.55-1.24-4.25-5.14-5.31s18.08,2.49,19.5,4.27-2.31-5.5-5.67-6.39,44.63-3.28,47.54,20.57A18.57,18.57,0,0,1,502,579.82Z"/><path class="cls-4" d="M580.8,582.69c4.42,12.91-7.75,17-9.57,22.11.3-1.1,7.57-28.79-27.84-15.73-5.67,2.09-17.37,3-17.37,3l4,3.34-7.89-1,.47,1.44a84.59,84.59,0,0,1-14.65-2.26,12.46,12.46,0,0,1-5.91-3.34,18.9,18.9,0,0,1-3-3.88,26.28,26.28,0,0,1-2.79-6.53,18.57,18.57,0,0,1,.14-2.27c2.91-23.85,50.81-21.42,47.54-20.57s-7.09,8.16-5.67,6.39,23.4-5.32,19.5-4.27-7.09,5.86-5.14,5.31c1.72-.49,10.42-1.33,12.49-1.53-.75.17-2.48,1-5,4.56a24.17,24.17,0,0,1,16,2.32h0a32.28,32.28,0,0,1,4.9,3.17,18,18,0,0,1,2,1.74c.2.21.39.41.56.61h0c4.14,4.72,1.25,8.13,6.14,12.72C589.66,588,585.58,588,580.8,582.69Z"/><path class="cls-4" d="M514,618.2c-1.48,11.51-7.13,34.79-9,33.88-2.37-1.17-2.19-9.75-2.19-9.75s-1.75,4.21-2.59,6.46c.24-4.09-2.08-16.11-2.08-16.11s-1.45,1.64-3.12,12a21.52,21.52,0,0,1-5.48-8.72c-3.92-10.31-4.06-24-4.06-24s3,6.25,5.57,6.3,5.64-12,5.64-12,2.4,13.84,4.77,13.1,5.4-9.54,5.4-9.54l1.45,8.34s2.6-1.43,5.67-6.2C514.46,612.49,514.38,614.84,514,618.2Z"/><path class="cls-5" d="M514,618.2c-1.48,11.51-7.13,34.79-9,33.88-2.37-1.17-2.19-9.75-2.19-9.75s-1.75,4.21-2.59,6.46c.24-4.09-2.08-16.11-2.08-16.11s-1.45,1.64-3.12,12a21.52,21.52,0,0,1-5.48-8.72l.26-.64s8.43-.15,7.51-8.26a40.56,40.56,0,0,0,8.23,9.79s-1.09-6.18,0-9.79l3.54,5.49Z"/><path class="cls-5" d="M502,579.82s-1.52,6.25-5.79,10.41a12.46,12.46,0,0,1-5.91,3.34,84.59,84.59,0,0,1-14.65,2.26l.47-1.44-7.89,1,4-3.34s-11.7-.92-17.37-3C419.46,576,426.73,603.7,427,604.8c-1.82-5.11-14-9.2-9.57-22.11C412.68,588,408.6,588,408.6,588c4.89-4.59,2-8,6.14-12.72h0a61.14,61.14,0,0,0,7.09-1.95c-1.54,3.92,9.78.63,9.78.63s-1.94,7.53,41.38,12.28c6.6.72,7.5-3.37,7.5-3.37s-.85,3.89-2.32,5.17a78,78,0,0,0,9.94-7.4s-1.16,6.64-3.17,7.7c6.52-2.42,15.65-6.11,16.93-10.8A18.57,18.57,0,0,1,502,579.82Z"/><path class="cls-5" d="M580.8,582.69c4.42,12.91-7.75,17-9.57,22.11.3-1.1,7.57-28.79-27.84-15.73-5.67,2.09-17.37,3-17.37,3l4,3.34-7.89-1,.47,1.44a84.59,84.59,0,0,1-14.65-2.26,12.46,12.46,0,0,1-5.91-3.34,18.9,18.9,0,0,1-3-3.88l1.23-1.88s16.49,6.36,19.91,6.53c-5.86-3.67-6.21-4.33-6.21-4.33a89.71,89.71,0,0,0,32.62-2.92c15.94-4.66,23-1.4,23.69-1-.58-.39-5.21-3.56-5.52-5.89,0,0,17.3,3.12,11.32-7.05a32.28,32.28,0,0,1,4.9,3.17,18,18,0,0,1,2,1.74c.2.21.39.41.56.61h0c4.14,4.72,1.25,8.13,6.14,12.72C589.66,588,585.58,588,580.8,582.69Z"/><polygon class="cls-6" points="489.94 630.92 487.06 620.78 489.94 619.87 497.27 625.4 494.09 627.27 492.16 625.4 489.94 630.92"/><path class="cls-6" d="M480.69,568.07c.92.47,1.84.92,2.8,1.31,3.76,1.57,11.57,5.35,4.7,7.3-8.81,2.5-30,3.62-34.13-1.38,7.5,1.75,3-5.44,3-5.44,10.32,4.32,15.82-3.37,11.19-5.56C475.71,565.88,479.19,567.3,480.69,568.07Z"/><path class="cls-6" d="M527.17,563.5s-25.25,6.33-19.17,14.37,39.17-3.45,44.33-1.7c-10.75-2.83-5.37-5.67-3.81-6-14.52,2-6.22-3.75-6.22-3.75C525.83,572.33,522.75,565.83,527.17,563.5Z"/></g></g></g></svg>