<svg xmlns="http://www.w3.org/2000/svg" viewBox="0 0 1000 1000"><defs><style>.cls-1{fill:none;}.cls-2{fill:#191919;}.cls-3{fill:#0c0c0c;}.cls-4{fill:#262626;}</style></defs><g id="Layer_2" data-name="Layer 2"><g id="OutPut"><rect id="BG" class="cls-1" width="1000" height="1000"/></g><g id="BlackHair"><g id="_6" data-name="6"><path class="cls-2" d="M616,398.16h0c-23.66,8.53-46.71,13.25-46.16,3.32,1.16-21,4.66-21.06,4.66-21.06l4-.81c16.7-3.35,80.51-15.62,87-9.11C669.45,374.45,642.36,388.67,616,398.16Z"/><path class="cls-3" d="M616,398.16c-23.66,8.53-46.71,13.25-46.16,3.32,1.16-21,4.66-21.06,4.66-21.06l4-.81-.27.81S574,398.82,616,398.16Z"/><path class="cls-2" d="M384,398.16h0c23.66,8.53,46.71,13.25,46.16,3.32-1.16-21-4.66-21.06-4.66-21.06l-4-.81c-16.7-3.35-80.51-15.62-87-9.11C330.55,374.45,357.64,388.67,384,398.16Z"/><path class="cls-3" d="M384,398.16c23.66,8.53,46.71,13.25,46.16,3.32-1.16-21-4.66-21.06-4.66-21.06l-4-.81.27.81S426,398.82,384,398.16Z"/><path class="cls-4" d="M684.78,246.54S617.18,101,556.37,147.27s-74.75,145.06,55,94.3C632.52,233.29,684.78,246.54,684.78,246.54Z"/><path class="cls-2" d="M590.9,208.46c-37,82.54-73.38,32.34-115.64,36.77-13.41,1.37-26.36,2.92-38.06,5.52-48.61,10.72-64.33,33.6-50.75,92.93s54.3,144.34-75.63,185.8c3.14-1.43,53.44-25,52.75-70-.71-46.47-90.78-92.22-67.91-190.87a229.31,229.31,0,0,1,11.78-37.26c28.94-68.85,87-89.7,180.52-83.55,63.62-9.29,49.32-15,74.34-12.86S612.24,160.84,590.9,208.46Z"/><path class="cls-4" d="M386.45,343.68C400,403,440.75,488,310.82,529.48c3.14-1.43,53.44-25,52.75-70-.71-46.47-90.78-92.22-67.91-190.87a229.31,229.31,0,0,1,11.78-37.26s3.09,82.35,49.47,141.4C345.47,312.94,343,216.84,475.26,245.23c-13.41,1.37-26.36,2.92-38.06,5.52C388.59,261.47,372.87,284.35,386.45,343.68Z"/><path class="cls-3" d="M689.81,252.89s-51-9.2-69.14-3.22S556.37,265,556.37,265s124.28-6.75,144,2.8C699.83,265.92,691.11,253.12,689.81,252.89Z"/><path class="cls-3" d="M703.47,272.75s-50.8-6.58-57.47-3.42-30,5.5-30,5.5,63.93,13.39,92.63,6.78C708.63,278.5,703.75,272.79,703.47,272.75Z"/></g></g></g></svg>