<svg xmlns="http://www.w3.org/2000/svg" viewBox="0 0 1000 1000"><defs><style>.cls-1{fill:none;}.cls-2{fill:#262626;}.cls-3{fill:#191919;opacity:0.2;}.cls-4{fill:#0c0c0c;}</style></defs><g id="Layer_2" data-name="Layer 2"><g id="OutPut"><rect id="BG" class="cls-1" width="1000" height="1000"/></g><g id="BlackHair"><g id="_3" data-name="3"><path class="cls-2" d="M612.53,233.84v0c-2.87,21.85-19.38,26.15-29,26.77a37.32,37.32,0,0,1-7-.14l0,.08a0,0,0,0,0,0,0,108.12,108.12,0,0,1,1.84,17.82c1,39.71-15,97.48-67.42,84-23.64-6.08-34.83-22.53-39.88-33.89A55,55,0,0,1,467.26,317l-.07.13a38.71,38.71,0,0,1-3.6,5.5c-12.8,16.2-34.21,13.24-51.12-7.74-.8-1-1.58-2-2.35-3.08h0a88.42,88.42,0,0,1-6.52-10.47c-9.71-18.16-16.43-44-16.43-77.19a157.78,157.78,0,0,1,2.12-26.6h0c4.28-24.88,14.62-41.78,27.48-53.52h0c15.93-14.56,35.72-21.22,52.59-25.34a79.09,79.09,0,0,1,24.15-.51c27.58,3.68,49.19,11.05,66,20.65h0c16.66,9.53,28.56,21.26,36.85,33.73a101,101,0,0,1,16.56,51.59A55,55,0,0,1,612.53,233.84Z"/><path class="cls-2" d="M665.52,372.1c-5.12,3.46-32,16.35-52,18.72a35.79,35.79,0,0,1-12.73-.39c-7.41-1.9-9-11.81-2.61-16.06,9.75-6.52,30.27-15.11,62.3-4.11C662.16,370.82,663.82,371.43,665.52,372.1Z"/><path class="cls-2" d="M399.29,389.43c-7,1.8-17.18.2-27.38-2.72-16.6-4.74-33.38-12.95-37.31-15.61q4.51-1.77,8.75-3.05c29.89-9.11,49.18-.93,58.55,5.32C408.26,377.62,406.7,387.53,399.29,389.43Z"/><path class="cls-3" d="M612.53,233.84v0c-2.87,21.85-19.38,26.15-29,26.77a37.32,37.32,0,0,1-7-.14l0,.08c-3-8.27-15.83-43.07-24.89-53.57,0,0,29.07-44.45,7.86-68.24,16.66,9.53,28.56,21.26,36.85,33.73a101,101,0,0,1,16.56,51.59A55,55,0,0,1,612.53,233.84Z"/><path class="cls-3" d="M467.19,317.1a38.71,38.71,0,0,1-3.6,5.5c-12.8,16.2-34.21,13.24-51.12-7.74-.8-1-1.58-2-2.35-3.08h0a88.42,88.42,0,0,1-6.52-10.47c-9.71-18.16-16.43-44-16.43-77.19a157.78,157.78,0,0,1,2.12-26.6h0c4.28-24.88,14.62-41.78,27.48-53.52-16,65.48,50.78,132.68,50.78,132.68C464.73,285.69,466.43,308.57,467.19,317.1Z"/><path class="cls-4" d="M583.49,260.66a37.32,37.32,0,0,1-7-.14l0,.08c-3-8.27-15.83-43.07-24.89-53.57,5.77,6,26.58,28.48,30.66,44.2C583.47,255.78,583.75,258.76,583.49,260.66Z"/><path class="cls-4" d="M467.19,317.1a38.71,38.71,0,0,1-3.6,5.5c-1.26-.51-2.59-2.48-3.61-7.49-2.29-11.28,5.31-32.52,7.57-38.44C464.73,285.69,466.43,308.57,467.19,317.1Z"/><path class="cls-4" d="M371.91,386.71c-16.6-4.74-33.38-12.95-37.31-15.61q4.51-1.77,8.75-3.05C353,374.08,363.46,381,371.91,386.71Z"/><path class="cls-4" d="M665.52,372.1c-5.12,3.46-32,16.35-52,18.72l47-20.56C662.16,370.82,663.82,371.43,665.52,372.1Z"/><path class="cls-4" d="M403.59,301.3c-9.71-18.16-16.43-44-16.43-77.19a157.78,157.78,0,0,1,2.12-26.6h0S390.88,270.8,403.59,301.3Z"/><path class="cls-4" d="M612.53,233.84c.48-10.46-16.19-61.32-16.19-61.32a101,101,0,0,1,16.56,51.59A55,55,0,0,1,612.53,233.84Z"/></g></g></g></svg>