<svg xmlns="http://www.w3.org/2000/svg" viewBox="0 0 1000 1000"><defs><style>.cls-1{fill:none;}.cls-2{fill:#f2f2f2;}.cls-3{fill:#207f7a;}.cls-4,.cls-8{opacity:0.2;}.cls-5{fill:#c6c6c6;}.cls-6{fill:#773a22;}.cls-7,.cls-8{fill:#30211b;}.cls-9{fill:#111;}.cls-10{fill:#565656;}.cls-11{fill:#a37664;}.cls-12{fill:#5cccc9;}.cls-13{fill:#727272;}.cls-14{fill:#3a3a3a;}</style></defs><g id="Layer_2" data-name="Layer 2"><g id="OutPut"><rect id="BG" class="cls-1" width="1000" height="1000"/></g><g id="Foreground"><g id="_1" data-name="1"><path class="cls-2" d="M999.91,498.29l-23.37-444a32.58,32.58,0,0,0-30.83-30.83L501.71.09a32.51,32.51,0,0,0-3.42,0l-444,23.37A32.58,32.58,0,0,0,23.46,54.29L.09,498.29a32.51,32.51,0,0,0,0,3.42l20,380.05L985.42,777l14.49-275.24A32.51,32.51,0,0,0,999.91,498.29ZM908.26,634.81H91.74V199.74H908.26Z"/><path class="cls-3" d="M892.12,170.5H107.88a43,43,0,0,0-42.95,42.95V621.09A43,43,0,0,0,107.88,664H892.12a42.95,42.95,0,0,0,43-42.95V213.45A43,43,0,0,0,892.12,170.5Zm16.14,421.36a43,43,0,0,1-43,42.95H134.69a43,43,0,0,1-42.95-42.95V242.69a43,43,0,0,1,43-42.95H865.31a43,43,0,0,1,43,42.95Z"/><path class="cls-3" d="M680.88,733.05H341.71s3.14-21.83,36.66-32.75c6-1.94,13.17-2.88,20.84-3.49,26.78-2.15,59.93-.46,72.46-25.33a40.29,40.29,0,0,0,2.9-7.44c1.9-6.64,2.69-14.71,2-24.56H546c-.66,9.85.14,17.94,2,24.56a41.69,41.69,0,0,0,3.49,8.57c10.22,18.64,32.58,21.61,54.52,23.08h0c14,.91,27.79,1.24,38.17,4.61C677.77,711.22,680.88,733.05,680.88,733.05Z"/><path class="cls-4" d="M143.92,664h-79V569c2,19,3.58,34.1,4.68,43.2C73,640.4,108.27,655.72,143.92,664Z"/><path class="cls-4" d="M935.07,557.78V664H908.59a50.31,50.31,0,0,0,2.85-4.59C923.11,638.48,930.47,597.05,935.07,557.78Z"/><path class="cls-4" d="M935.07,213.45v55.36c-7.37-101.12-46.55-92-180-98.31H892.12A43,43,0,0,1,935.07,213.45Z"/><path class="cls-4" d="M150.45,170.5c-44.09,4.89-74.29,21-85.52,68.63V213.45a43,43,0,0,1,42.95-42.95Z"/><path class="cls-4" d="M551.53,672.61c-34.88,6.59-61,4.14-79.86-1.13a40.29,40.29,0,0,0,2.9-7.44H548A41.69,41.69,0,0,0,551.53,672.61Z"/><path class="cls-4" d="M399.21,696.81c-15.11,9.08-37.15,23.86-43.25,36.24H341.71s3.14-21.83,36.66-32.75C384.38,698.36,391.54,697.42,399.21,696.81Z"/><path class="cls-4" d="M680.88,733.05H654.26c-6.5-16.91-30.94-30-48.18-37.36,14,.91,27.79,1.24,38.17,4.61C677.77,711.22,680.88,733.05,680.88,733.05Z"/><path class="cls-5" d="M985.68,772l-.26,5L982,842.35l-2.7,51.27L978.63,906l-2.09,39.76a32.58,32.58,0,0,1-30.83,30.83l-444,23.37a32.51,32.51,0,0,1-3.42,0l-444-23.37a32.58,32.58,0,0,1-30.83-30.83L21.31,905l-.54-10.4-.68-12.83-2.65-50.34L14.31,772Z"/><ellipse class="cls-4" cx="500" cy="850.42" rx="374" ry="40.42"/><path class="cls-4" d="M171.67,899.75c0,5-37.16,9-83,9-27.73,0-52.29-1.47-67.36-3.73l-.54-10.4c15-2.3,39.83-3.81,67.9-3.81C134.51,890.78,171.67,894.8,171.67,899.75Z"/><path class="cls-4" d="M979.28,893.62,978.63,906c-15.11,1.71-36.39,2.77-60,2.77-45.84,0-83-4-83-9s37.16-9,83-9C942.59,890.78,964.14,891.87,979.28,893.62Z"/><rect class="cls-6" x="108" y="729.56" width="784" height="106.3"/><path class="cls-7" d="M648.69,782.71a18.4,18.4,0,0,1-18.33,18.36H369.64a18.36,18.36,0,0,1,0-36.71H630.36A18.39,18.39,0,0,1,648.69,782.71Z"/><path class="cls-4" d="M131.05,729.56c-13.41,7.29-20.13,41.08-23.05,61.83V729.56Z"/><path class="cls-4" d="M892,729.56v87.17c-2.28-20.14-10.55-67.69-46.36-87.17Z"/><path class="cls-8" d="M588.08,801.07c-61.9,12.66-121.66,7.86-165.64,0Z"/><rect class="cls-9" x="175.39" y="792.53" width="37.97" height="70.86"/><rect class="cls-10" x="161.15" y="728.61" width="66.44" height="108.2"/><path class="cls-4" d="M193.21,836.81H161.15V780.38C166.18,797.12,177.33,828,193.21,836.81Z"/><path class="cls-4" d="M213.36,846.72v16.67H196.08C200.64,861.21,211.17,855.28,213.36,846.72Z"/><rect class="cls-9" x="786.64" y="792.53" width="37.97" height="70.86"/><rect class="cls-10" x="772.41" y="728.61" width="66.44" height="108.2"/><path class="cls-4" d="M804.47,836.81H772.41V780.38C777.44,797.12,788.58,828,804.47,836.81Z"/><path class="cls-4" d="M824.61,846.72v16.67H807.34C811.89,861.21,822.43,855.28,824.61,846.72Z"/><path class="cls-11" d="M149,837.42,146.69,900H22.76l-1.59-42.43-.76-20.15a10.25,10.25,0,0,1,10.24-10.63H138.81A10.25,10.25,0,0,1,149,837.42Z"/><path class="cls-4" d="M161.65,634.81c-1.43,10.16-2.86,20-4.24,29.23H64.93V401L83,405.67s3.33.36,8.74,1.22c20,3.13,68.29,12.89,81.93,35.44C183.85,459.17,172.64,557,161.65,634.81Z"/><path class="cls-12" d="M108.47,426H61A53.85,53.85,0,0,0,7.13,481.9L19.37,809.39l.08,2.37c5.58,14,25.09,15,25.09,15H125s19.36-1,25-14.89v0l12.34-330A53.89,53.89,0,0,0,108.47,426ZM93.74,786.69a43.93,43.93,0,0,1-52.12-51.44,43.37,43.37,0,0,1,3.72-11,43.93,43.93,0,1,1,48.4,62.44Z"/><path class="cls-13" d="M143,505.68A58.23,58.23,0,1,1,35.3,474.91v0A58.23,58.23,0,0,1,143,505.68Z"/><path class="cls-13" d="M134.78,630.82a50.05,50.05,0,1,1-50-50.06A50,50,0,0,1,134.78,630.82Z"/><path class="cls-13" d="M128.65,743.7a43.93,43.93,0,1,1-87.85,0,43.92,43.92,0,0,1,4.54-19.45,43.92,43.92,0,0,1,83.31,19.45Z"/><path class="cls-14" d="M125.59,858.11a15.36,15.36,0,0,1-15.32,15.33H59.19a15.32,15.32,0,0,1-10.83-26.16,15.12,15.12,0,0,1,4.58-3.14,14.83,14.83,0,0,1,6.25-1.35h51.08A15.35,15.35,0,0,1,125.59,858.11Z"/><path class="cls-4" d="M122.61,549.87a58.21,58.21,0,0,1-87.31-75C35.8,500.8,45.11,560.72,122.61,549.87Z"/><path class="cls-4" d="M109.35,674.4a50.05,50.05,0,0,1-73.43-54.69C42.56,638.17,62,676.07,109.35,674.4Z"/><path class="cls-4" d="M93.74,786.69a43.93,43.93,0,0,1-48.4-62.44C49.46,742.88,61.19,775.37,93.74,786.69Z"/><path class="cls-4" d="M81,873.44H59.19a15.32,15.32,0,0,1-10.83-26.16,15.12,15.12,0,0,1,4.58-3.14C50.38,852.25,50.34,867.22,81,873.44Z"/><path class="cls-4" d="M935.07,415.5V664H908.59a50.31,50.31,0,0,0,2.85-4.59A42.62,42.62,0,0,1,892.12,664H834.28c-1.23-7.13-2.9-17.22-4.69-29.23-9.36-62.68-22.1-177.61,6.74-196.62C857,424.55,885.54,419,908.26,416.83,919,415.8,928.36,415.52,935.07,415.5Z"/><path class="cls-11" d="M979.59,837.42l-.89,23.66L977.24,900H853.31L851,837.42a10.25,10.25,0,0,1,10.23-10.63H969.35A10.25,10.25,0,0,1,979.59,837.42Z"/><path class="cls-12" d="M992.87,481.9l-1.66,44.44L980.53,811.88v0a18.77,18.77,0,0,1-2.5,4.36c-7.42,9.75-22.53,10.53-22.53,10.53H875.09s-19.52-1-25.09-15l-.09-2.37L837.68,481.9A53.89,53.89,0,0,1,891.53,426H939A53.9,53.9,0,0,1,992.87,481.9Z"/><path class="cls-13" d="M973.5,505.68a58.23,58.23,0,1,1-107.65-30.77v0A58.23,58.23,0,0,1,973.5,505.68Z"/><path class="cls-13" d="M965.33,630.82a50.06,50.06,0,1,1-50.06-50.06A50,50,0,0,1,965.33,630.82Z"/><path class="cls-13" d="M959.2,743.7a43.93,43.93,0,1,1-43.93-43.93A43.93,43.93,0,0,1,959.2,743.7Z"/><path class="cls-14" d="M956.13,858.11a15.35,15.35,0,0,1-15.32,15.33H889.73a15.32,15.32,0,0,1-10.82-26.16,15.08,15.08,0,0,1,4.57-3.14,14.86,14.86,0,0,1,6.25-1.35h51.08A15.35,15.35,0,0,1,956.13,858.11Z"/><path class="cls-4" d="M953.15,549.87a58.21,58.21,0,0,1-87.3-75C866.34,500.8,875.66,560.72,953.15,549.87Z"/><path class="cls-4" d="M939.89,674.4a50.07,50.07,0,0,1-73.43-54.69C873.1,638.17,892.55,676.07,939.89,674.4Z"/><path class="cls-4" d="M924.28,786.69a43.94,43.94,0,0,1-48.4-62.44C880,742.88,891.74,775.37,924.28,786.69Z"/><path class="cls-4" d="M911.49,873.44H889.73a15.32,15.32,0,0,1-10.82-26.16,15.08,15.08,0,0,1,4.57-3.14C880.93,852.25,880.89,867.22,911.49,873.44Z"/><path class="cls-4" d="M672.91,729.56c-132.2,15.12-243.8,7.27-305.33,0Z"/><path class="cls-4" d="M125,826.79H44.54s-19.51-1-25.09-15l-.08-2.37L7.13,481.9a54.37,54.37,0,0,1,.19-7L8,475S7.07,631,41.62,735.25a43.47,43.47,0,0,0-.82,8.45,43.93,43.93,0,0,0,20.51,37.17C77.27,808.76,98,826.79,125,826.79Z"/><path class="cls-4" d="M137.87,826.79c-10.58,0-107.32.82-116.7,30.78l-.76-20.15a10.25,10.25,0,0,1,10.24-10.63Z"/><path class="cls-4" d="M979.59,837.42l-.89,23.66c-14.06-33.21-103.61-34.29-103.61-34.29L978,816.26c-7.42,9.75-22.53,10.53-22.53,10.53h13.85A10.25,10.25,0,0,1,979.59,837.42Z"/><path class="cls-4" d="M992.87,481.9l-1.66,44.44C973.56,426.25,892.33,426,891.54,426H939A53.9,53.9,0,0,1,992.87,481.9Z"/></g></g></g></svg>