<svg xmlns="http://www.w3.org/2000/svg" viewBox="0 0 1000 1000"><defs><style>.cls-1{fill:none;}.cls-2{fill:#e2e2e2;}.cls-3{fill:#fdffbd;}.cls-4{fill:#d8d85b;}.cls-5{fill:#c4c035;}.cls-6{fill:#bfb826;}.cls-7{fill:#ccca92;}.cls-8{fill:#d8d89a;}.cls-11,.cls-9{opacity:0.2;}.cls-10{fill:#ffba0d;}.cls-11{fill:#00bdff;}.cls-12{fill:#604000;}.cls-13{fill:#d89500;}.cls-14{fill:#fff;opacity:0.5;}.cls-15{fill:#0f930f;}.cls-16{fill:#49330b;}.cls-17{fill:#60410f;}.cls-18{opacity:0.1;}.cls-19{fill:#7a3927;}.cls-20{fill:#ecc286;}.cls-21{fill:#692d1f;}.cls-22{fill:#f4ce9d;}.cls-23{fill:#e0b77f;}.cls-24{fill:#352e27;}.cls-25{fill:#1c1c1c;}.cls-26{fill:#cea265;}.cls-27{fill:#e0b67f;}.cls-28{fill:#d6aa6c;}</style></defs><g id="Layer_2" data-name="Layer 2"><g id="OutPut"><rect id="BG" class="cls-1" width="1000" height="1000"/></g><g id="Foreground"><path class="cls-2" d="M999.91,501.71l-3,57h0l-3.19,60.53h0l-.93,17.7-1.27,24-.44,8.51-1.78,33.64,0,.43-3,57-.6,11.39-.26,5-1.35,25.62-.43,8.27-.89,16.85-1.39,26.38-.51,9.77-.34,6.46v.13l-.35,6.68-1.23,23.29-2.23,42.37-.15,2.94a32.58,32.58,0,0,1-30.83,30.83l-9.47.5L716.85,988.59l-1.4.07h0L516,999.16l-14.33.75a32.51,32.51,0,0,1-3.42,0l-10.68-.56L282.67,988.56,143,981.2,63.28,977l-9-.47a32.58,32.58,0,0,1-30.83-30.83l-.75-14.31-.93-17.53-.16-3-1.53-29.09-.6-11.32h0l-.71-13.55L18,841.16l-.58-11-.12-2.31-2.18-41.32L14.31,772,14,766.44l-1-19.67L9.8,686.27,8.63,664.13h0l-.92-17.54L.09,501.71a32.51,32.51,0,0,1,0-3.42l2.2-41.75,10-189.15.32-6.06.37-6.88h0l2.44-46.39.56-10.72L17,177.45h0L18.32,152l.81-15.41.42-8,1.32-25.06,0-.68,1.94-36.92v-.13h0l.6-11.48A32.58,32.58,0,0,1,54.29,23.46L498.29.09a32.51,32.51,0,0,1,3.42,0l254.1,13.37,189.9,10a32.58,32.58,0,0,1,30.83,30.83l8,151.41,1,18.83h0l.17,3.17v.12l.14,2.6,1.36,25.77h0l.81,15.35.42,8.07.49,9.33v.24L990,310.43l8.07,153.27,1.82,34.59A32.51,32.51,0,0,1,999.91,501.71Z"/><g id="_2" data-name="2"><path class="cls-3" d="M999.91,498.29l-23.37-444a32.58,32.58,0,0,0-30.83-30.83L501.71.09a32.51,32.51,0,0,0-3.42,0l-444,23.37A32.58,32.58,0,0,0,23.46,54.29L.09,498.29a32.51,32.51,0,0,0,0,3.42L14.31,772l5.18,98.44h961L985.42,777l.26-5,14.23-270.29A32.51,32.51,0,0,0,999.91,498.29ZM880.33,675.56H119.67V172.07H880.33Z"/><rect class="cls-4" x="400.93" y="827.83" width="198.14" height="42.61"/><rect class="cls-5" x="598.56" y="827.69" width="198.13" height="42.61"/><polygon class="cls-6" points="203.31 827.83 203.31 870.44 19.49 870.44 19.49 870.43 17.37 830.14 17.25 827.83 203.31 827.83"/><rect class="cls-5" x="202.79" y="827.69" width="198.14" height="42.61"/><polygon class="cls-6" points="982.75 827.69 981.36 854.07 980.51 870.3 796.69 870.3 796.69 827.69 982.75 827.69"/><polygon class="cls-7" points="400.93 870.3 282.67 988.56 63.28 977.01 202.61 870.44 202.79 870.3 400.93 870.3"/><path class="cls-8" d="M202.79,870.3l-.18.14L63.28,977l-9-.47a32.58,32.58,0,0,1-30.83-30.83l-3.37-64-.6-11.32h0Z"/><polygon class="cls-7" points="936.24 977.04 716.85 988.59 598.56 870.3 796.69 870.3 936.24 977.04"/><path class="cls-8" d="M980.51,870.3l-4,75.41a32.58,32.58,0,0,1-30.83,30.83l-9.47.5L796.69,870.3Z"/><path class="cls-8" d="M716.85,988.59,501.71,999.91a32.51,32.51,0,0,1-3.42,0L282.67,988.56,400.93,870.3H598.56Z"/><path class="cls-9" d="M981.36,854.07l-.85,16.23H599.07v.14H400.93v-.14H203.31v.14H19.49l-2.12-40.29c23.75,4.17,83,13.26,185.42,20.9l.52,0c53.68,4,119.19,7.59,197.62,9.87,58.53,1.7,124.26,2.67,197.63,2.53h.51q90.87-.18,197.62-2.85Q883.54,858.36,981.36,854.07Z"/><path class="cls-10" d="M81,130.91V716.72H919V130.91ZM880.33,675.56H119.67V172.07H880.33Z"/><polygon class="cls-11" points="880.33 172.07 880.33 338.62 119.67 282.11 119.67 172.07 880.33 172.07"/><rect class="cls-12" x="56.52" y="708.21" width="886.96" height="20.48"/><polygon class="cls-13" points="943.48 676.86 943.48 708.21 56.52 708.21 56.52 675.29 943.48 676.86"/><polygon class="cls-13" points="880.33 338.62 880.33 396.11 551.87 363.83 119.67 321.35 119.67 282.11 880.33 338.62"/><polygon class="cls-14" points="734.94 172.07 753.35 329.18 824.91 334.5 779.93 172.07 734.94 172.07"/><polygon class="cls-14" points="801.58 172.07 840.58 335.66 857.1 336.89 801.58 172.07"/><line class="cls-1" x1="980.61" y1="870.44" x2="980.5" y2="870.44"/><ellipse class="cls-9" cx="880.34" cy="693" rx="48.18" ry="9.74"/><path class="cls-15" d="M914.38,555.56c-4,51.88-30.73,91-48.54,59-20-36-6.87-97.3,4.1-134.14,5.47-18.38,10.4-30.66,10.4-30.66C909.15,478.54,917.11,520.05,914.38,555.56Z"/><path class="cls-16" d="M933.34,602.09v59.67a34.49,34.49,0,0,1-34.49,34.49h-37a34.49,34.49,0,0,1-34.49-34.49V602.09Z"/><path class="cls-17" d="M942.34,598.43a16.5,16.5,0,0,1-16.5,16.5h-91a16.5,16.5,0,1,1,0-33h91A16.5,16.5,0,0,1,942.34,598.43Z"/><path class="cls-9" d="M914.38,555.56c-3.92-43.18-29.12-65.47-44.44-75.17,5.47-18.38,10.4-30.66,10.4-30.66C909.15,478.54,917.11,520.05,914.38,555.56Z"/><path class="cls-18" d="M844.15,614.93h-8.79c-9.19,0-17-7.3-17-16.5a16.48,16.48,0,0,1,12.2-15.93,6.07,6.07,0,0,1,.7.29,8.92,8.92,0,0,1,3.11,2.42,65.44,65.44,0,0,0,14.85,13.17C856.65,603.29,853.08,614.93,844.15,614.93Z"/><path class="cls-9" d="M893.88,696.25h-32a34.49,34.49,0,0,1-34.49-34.49v-7.4C830.62,664.51,843.92,691.2,893.88,696.25Z"/><path class="cls-9" d="M56.52,682.45c31.8,5.28,171.12,24.19,543,25.76h-543Z"/><path class="cls-3" d="M717.81,728.69H701Q709.61,728.63,717.81,728.69Z"/><path class="cls-9" d="M880.33,359v37.11L551.87,363.83l.51,0C846.42,388.08,880.33,359,880.33,359Z"/><path class="cls-9" d="M62.81,197,81,208.49C80.49,208.28,70.11,203.74,62.81,197Z"/><path class="cls-9" d="M81,130.91H506.09c-266.18,0-380.54,15-425.09,31.75Z"/><path class="cls-9" d="M919,160.05c-46.9-15.7-160.7-29.14-412.91-29.14H919Z"/><ellipse class="cls-9" cx="174.42" cy="930.4" rx="125.38" ry="3.34"/><path class="cls-19" d="M296.63,881.68c-.47-23.95-38.15-28.08-38.15-28.08l.18-7.67a36.11,36.11,0,0,1,12.08-2.6c13.19-.47,24.5,6.92,27.95,18C300.56,867.27,300.17,874.27,296.63,881.68Z"/><path class="cls-20" d="M221.56,932.3c-9.35.94-19.77,1.45-31.34,1.45-66,0-93-18.61-102.8-39-11.84-24.52,1.3-51.55,1.3-51.55,9-11,101-24.5,155.5-7C294.38,852.36,329.72,921.42,221.56,932.3Z"/><path class="cls-19" d="M124.8,852c-19.94-65.17,7.23-64.7,7.23-64.7a33.43,33.43,0,0,1,4.58-1.07c16-2.55,25.73,9.06,32.23,23.87a126,126,0,0,1,4.54,12.26q.54,1.73,1.05,3.45c3.22,10.91,5.37,21.57,7.44,28.33C188.2,874.81,144.74,917.16,124.8,852Z"/><path class="cls-21" d="M168.84,810.08c-8.12-10.57-24.9-20.05-32.23-23.87C152.59,783.66,162.34,795.27,168.84,810.08Z"/><path class="cls-22" d="M210.89,818.25a94.15,94.15,0,0,1-13.73,36,62,62,0,0,1-20.77,20c-8.23,4.72-18.37,7.73-30.84,7.73-28.43,0-51.2-2.29-66.93-9.9A43.42,43.42,0,0,1,63,860c-6-7.57-9.15-17.58-9.15-30.71,0-26.71,20.14-40.63,35.59-47.38a58.11,58.11,0,0,1,38.51-3.1c30.16,8.23,28.87,34,28.59,37.16l0,.32h.06Z"/><path class="cls-23" d="M176.39,874.19c-8.23,4.72-18.37,7.73-30.84,7.73-28.43,0-51.2-2.29-66.93-9.9A43.42,43.42,0,0,1,63,860l18.38-10.48S134.1,876,176.39,874.19Z"/><path class="cls-19" d="M96.39,874a15.53,15.53,0,0,1-1.91,4.87C83.33,898.05,32.9,908,45.56,844.21,48.19,831,51.21,820.8,54.38,813c13.36-33,29.35-24.05,29.35-24.05C122.31,796.58,100.74,852.11,96.39,874Z"/><path class="cls-24" d="M137.64,816.87s-9.42,13.58-26.5,1.35"/><path class="cls-24" d="M156.61,816.25c-1.19,1.46-6.61,7-15.54.49l15.51-.81,0,.32Z"/><circle class="cls-25" cx="208.14" cy="819.58" r="6.42"/><path class="cls-26" d="M221.56,932.3c-9.35.94-19.77,1.45-31.34,1.45-66,0-93-18.61-102.8-39C101.4,900.71,172.23,929.71,221.56,932.3Z"/><path class="cls-27" d="M206.82,933.51c-.35,3.27-15.18,4.82-35.15,4.82h0c-38.79,0-97-5.84-106.38-16.23.26-3.52,2.81-6.47,7-8.92,25.48-14.9,111.5-11.78,111.5-11.78C200.73,902.65,207.86,923.9,206.82,933.51Z"/><path class="cls-27" d="M290.91,930.75s-67.69,11-67.69-5c0-11.89,19.62-13.84,29.7-14l0,0c-3.72-1.71-7.83-7.43-7.83-24.43,0-2.12.06-4.14.16-6.07,1.42-26.38,11.84-35.93,11.84-35.93C309.87,845.25,290.91,930.75,290.91,930.75Z"/><path class="cls-21" d="M94.48,878.88C83.33,898.05,32.9,908,45.56,844.21,48.19,831,51.21,820.8,54.38,813,52.05,844.78,53.07,902.11,94.48,878.88Z"/><path class="cls-28" d="M171.65,938.33c-38.79,0-97-5.84-106.38-16.23.26-3.52,2.81-6.47,7-8.92C94.39,919.38,136.16,930.73,171.65,938.33Z"/><path class="cls-21" d="M298.69,861.34c-7.05-6.51-19.15-13.41-27.95-18C283.93,842.86,295.24,850.25,298.69,861.34Z"/><path class="cls-28" d="M258.74,911.75l-5.36-.06h-.49c-3.72-1.71-7.83-7.43-7.83-24.43,0-2.12.06-4.14.16-6.07C250.52,900.48,258.74,911.75,258.74,911.75Z"/></g></g></g></svg>