<svg xmlns="http://www.w3.org/2000/svg" viewBox="0 0 1000 1000"><defs><style>.cls-1{fill:none;}.cls-2{fill:#282828;}.cls-3{fill:#bdf6ff;}.cls-4{fill:#ff3636;}</style></defs><g id="Layer_2" data-name="Layer 2"><g id="OutPut"><rect id="BG" class="cls-1" width="1000" height="1000"/></g><g id="Mounth_Up"><path class="cls-2" d="M519.05,575c0,8.14-9,14.74-20,14.74s-20-6.6-20-14.74,6.18-16.26,20-14.74C518.22,562.34,519.05,566.83,519.05,575Z"/><path class="cls-3" d="M518.62,578s.48,7.07-.27,8.7-1.87,1.62-2.68.81,1.87,13.94-2.57,14.38.32-7.07-1.62-7.38-4.63-3.94-10.06-4.19-13,1.54-12.49-2.7c4.42-1,12.42.52,12.42.52l8.94-7.75Z"/><path class="cls-4" d="M518.62,578c-.17.47-.15,1.37-.33,1.84-2.92,7.64-7.2,13.14-11.86,13.61a22.81,22.81,0,0,1-17.5-5.83c1.75-2.17,6.4-7,13.18-5.55C508,577.33,514.72,576,518.62,578Z"/></g></g></svg>