<svg xmlns="http://www.w3.org/2000/svg" viewBox="0 0 1000 1000"><defs><style>.cls-1{fill:none;}.cls-2{fill:#282828;}.cls-3,.cls-7{opacity:0.2;}.cls-4{fill:#afafaf;}.cls-5{fill:#828282;}.cls-6{fill:#5b5b5b;}</style></defs><g id="Layer_2" data-name="Layer 2"><g id="OutPut"><rect id="BG" class="cls-1" width="1000" height="1000"/></g><g id="Mounth_Up"><g id="_1" data-name="1"><ellipse class="cls-2" cx="499.25" cy="577.33" rx="30.42" ry="15"/><path class="cls-3" d="M491.69,601c-6.46-1.59-15.74-5.17-17-12.7C477.76,592,483,596.77,491.69,601Z"/><path class="cls-3" d="M527.71,549.33s-31.83,8.34-53.5-1.5c.83,9.34,14.83,9,14.83,9l24.67-.16Z"/><path class="cls-3" d="M517.38,568.33s10.16,6,5.16,14.84,8.34-9.17,8.34-9.17l-6.67-13.33Z"/><path class="cls-3" d="M479.71,564.83s-14.33,13.67,1,22.34C480,585.17,473.71,575.83,479.71,564.83Z"/><path class="cls-3" d="M471.83,597.88s45.38-.5,52,3.24c-11-9.62-20.62-9.5-20.62-9.5L481.71,593Z"/><path class="cls-4" d="M535.46,553.27c-4-5.31-9.89-7.77-17.94-3.92-1.8.86-3.45,1.61-4.94,2.27a31.13,31.13,0,0,1-25.16,0c-1.49-.66-3.13-1.41-4.94-2.27-9.63-4.61-16.14-.19-20.09,7.34-3.41,6.47-4.93,15.25-4.93,22.55,0,11.29,2.42,17.94,11,20.81a21.3,21.3,0,0,0,2.17.63,29.91,29.91,0,0,0,17.86-1.37l.18-.07a31.1,31.1,0,0,1,22.7,0l.18.07a29.91,29.91,0,0,0,17.86,1.37,19,19,0,0,0,6.42-2.69c5.15-3.52,6.73-9.61,6.73-18.75C542.54,570.55,540.39,559.77,535.46,553.27Zm-50,31.73c-5.83,0-10.56-4-10.56-8.89s4.73-8.89,10.56-8.89,10.56,4,10.56,8.89S491.3,585,485.46,585Zm29.08,0c-5.83,0-10.56-4-10.56-8.89s4.73-8.89,10.56-8.89,10.56,4,10.56,8.89S520.37,585,514.54,585Z"/><path class="cls-5" d="M521.65,595.18c-6.53,5.51-18.23,6.85-19,6.94H498a51,51,0,0,1-6.27-1.15c-6.46-1.59-15.74-5.17-17-12.7-.58-3.61.68-8.13,5-13.77a.86.86,0,0,1,1.53.37.76.76,0,0,1,0,.15.92.92,0,0,1-.06.33c-1,2.45-9,23.61,16.82,23.61h4.58c25.82,0,17.83-21.16,16.83-23.61a.79.79,0,0,1,0-.48.85.85,0,0,1,.85-.71.84.84,0,0,1,.67.34,33.56,33.56,0,0,1,2.87,4.38h0C527.87,586.5,525.8,591.68,521.65,595.18Z"/><path class="cls-6" d="M520.81,574.45a16.54,16.54,0,0,1-1.59,7.09C516.1,588.24,508.66,593,500,593a23,23,0,0,1-5.5-.66c-8.82-2.14-15.31-9.31-15.31-17.84a17.29,17.29,0,0,1,4.94-12,21,21,0,0,1,9.23-5.57,23,23,0,0,1,6.64-1C511.49,555.94,520.81,564.23,520.81,574.45Z"/><path class="cls-3" d="M468.44,600.05c-8.56-2.87-11-9.52-11-20.81,0-7.3,1.52-16.08,4.93-22.55C459.89,568.38,457.11,590.31,468.44,600.05Z"/><path class="cls-3" d="M542.54,579.24c0,9.14-1.58,15.23-6.73,18.75,5.09-13.32,1.46-35.65-.35-44.72C540.39,559.77,542.54,570.55,542.54,579.24Z"/><path class="cls-3" d="M521.65,595.18a42,42,0,0,0,2.1-16.29C527.87,586.5,525.8,591.68,521.65,595.18Z"/><path class="cls-3" d="M519.22,581.54C516.1,588.24,508.66,593,500,593a23,23,0,0,1-5.5-.66c-8.82-2.14-15.31-9.31-15.31-17.84a17.29,17.29,0,0,1,4.94-12,21,21,0,0,1,9.23-5.57c-5.4,5.32-14.39,16.19-6.15,23,11.25,9.24,32,1.62,32,1.62Z"/><g class="cls-7"><path d="M442.8,588.52s10.84-2.22,11.14-4.7"/><path d="M442.56,561.49s9.82,5.1,11.62,3.36"/><path d="M435.16,572.78s14.3,3.58,16.08.77"/><path d="M557.2,588.52s-10.84-2.22-11.14-4.7"/><path d="M557.44,561.49s-9.82,5.1-11.62,3.36"/><path d="M564.84,572.78s-14.3,3.58-16.08.77"/></g></g></g></g></svg>