<svg xmlns="http://www.w3.org/2000/svg" xmlns:xlink="http://www.w3.org/1999/xlink" viewBox="0 0 1000 1000"><defs><style>.cls-1{fill:none;}.cls-2{fill:url(#linear-gradient);}.cls-3{fill:url(#linear-gradient-2);}.cls-4{fill:url(#linear-gradient-3);}.cls-5{fill:url(#linear-gradient-4);}.cls-6{fill:#11c5a2;}.cls-7{fill:#6de7d0;}.cls-8{fill:#2a9b85;}.cls-9{opacity:0.1;}</style><linearGradient id="linear-gradient" x1="293.56" y1="530.33" x2="404.02" y2="530.33" gradientUnits="userSpaceOnUse"><stop offset="0" stop-color="#fff" stop-opacity="0"/><stop offset="0.14" stop-color="#777" stop-opacity="0.53"/><stop offset="1"/></linearGradient><linearGradient id="linear-gradient-2" x1="595.53" y1="531.18" x2="686.44" y2="531.18" gradientUnits="userSpaceOnUse"><stop offset="0"/><stop offset="0.86" stop-color="#777" stop-opacity="0.53"/><stop offset="1" stop-color="#fff" stop-opacity="0"/></linearGradient><linearGradient id="linear-gradient-3" x1="293.56" y1="559.26" x2="422.46" y2="559.26" xlink:href="#linear-gradient"/><linearGradient id="linear-gradient-4" x1="577.1" y1="560.1" x2="685.98" y2="560.1" xlink:href="#linear-gradient-2"/></defs><g id="Layer_2" data-name="Layer 2"><g id="OutPut"><rect id="BG" class="cls-1" width="1000" height="1000"/></g><g id="Mounth_Up"><g id="_2" data-name="2"><path class="cls-2" d="M404,547.26v4.67s-70.37-13-110.46-43.2C332.75,536.19,404,547.26,404,547.26Z"/><path class="cls-3" d="M686.44,510.43c-38.76,28.71-83.79,40.2-90.4,41.41l-.51.09v-4.67h.09C598.44,546.82,647.4,537.36,686.44,510.43Z"/><polyline class="cls-4" points="293.56 508.73 422.46 609.78 418.3 602.51"/><polyline class="cls-5" points="685.98 510.42 577.1 609.78 580.82 602.19"/><path class="cls-6" d="M506.45,630.79a48.23,48.23,0,0,1-6.06-.3c-.2,0-.41,0-.61,0a4.07,4.07,0,0,0-.61,0,52.3,52.3,0,0,1-6.06.29c-10.63,0-38.36-2.36-67.28-24.1a118.73,118.73,0,0,1-6.85-13c-4.67-10.28-10.07-25.59-10.47-42.08,20.88-1.71,38.66-15,54.47-26.89,13.2-9.89,25.67-19.24,36.8-19.24s23.6,9.35,36.8,19.24c15.81,11.85,33.58,25.18,54.46,26.89-.38,15.58-5.25,30.09-9.46,39.84a122.8,122.8,0,0,1-7.84,15.27C544.81,628.42,517.08,630.79,506.45,630.79Z"/><path class="cls-7" d="M499.78,510c9.63,0,21.52,8.91,34.1,18.34,15.23,11.42,32.24,24.17,52.46,27.27-1,13.31-5.21,25.56-8.89,34.07a121.29,121.29,0,0,1-7.1,14c-27.6,20.45-53.8,22.69-63.9,22.69A48.4,48.4,0,0,1,501,626h0a8.6,8.6,0,0,0-1.22-.1,8.39,8.39,0,0,0-1.2.09,47.79,47.79,0,0,1-5.48.26c-10.09,0-36.31-2.24-63.89-22.69a117,117,0,0,1-6.15-11.81c-4.1-9-8.78-22.06-9.86-36.23,20.22-3.1,37.23-15.85,52.47-27.27,12.58-9.43,24.47-18.34,34.1-18.34m0-9c-27.68,0-56.5,46.31-95.76,46.31-.55,18.84,5.53,36.53,10.86,48.25a114.13,114.13,0,0,0,7.58,14.27c29.74,22.63,58.14,25.51,70.65,25.51a53,53,0,0,0,6.67-.34,53.17,53.17,0,0,0,6.67.34c12.51,0,40.91-2.88,70.65-25.51a118.94,118.94,0,0,0,8.61-16.58c5-11.67,10.33-28.3,9.82-45.94-39.25,0-68.08-46.31-95.75-46.31Z"/><path class="cls-8" d="M444.42,560s32-20.25,55.35-20.25S555.13,560,555.13,560,523,544,500.55,544,444.42,560,444.42,560Z"/><path class="cls-8" d="M551.09,585.4S521.4,601,499.79,601s-51.33-15.6-51.33-15.6,29.77,12.31,50.6,12.31S551.09,585.4,551.09,585.4Z"/><path class="cls-8" d="M444,573.34s57.1-3.63,111.55,0C518.5,576.65,500.5,577,444,573.34Z"/><path class="cls-9" d="M585.71,593.2a118.94,118.94,0,0,1-8.61,16.58C537.24,640.11,499.78,635,499.78,635s-37.47,5.16-77.32-25.17a114.13,114.13,0,0,1-7.58-14.27C433.14,605.61,511.13,643,585.71,593.2Z"/></g></g></g></svg>