<svg xmlns="http://www.w3.org/2000/svg" viewBox="0 0 1000 1000"><defs><style>.cls-1{fill:none;}.cls-2{fill:#282828;}.cls-3{fill:#ff3636;}.cls-4{fill:#232323;}.cls-5{opacity:0.2;}</style></defs><g id="Layer_2" data-name="Layer 2"><g id="OutPut"><rect id="BG" class="cls-1" width="1000" height="1000"/></g><g id="Mounth_Up"><g id="_4" data-name="4"><path class="cls-2" d="M524.76,578.25a24.61,24.61,0,0,1-3.13,12c-.17.28-.33.57-.5.84a24.75,24.75,0,0,1-40.33,2.78.11.11,0,0,0,0,0,24.54,24.54,0,0,1-4.24-7.68c-.07-.18-.13-.38-.2-.57a24.58,24.58,0,0,1-1.11-7.37c0-.81,0-1.64,0-2.47,0-6.07,0-12.5,2.44-17.11l0-.07h0c2.87-5.37,9.05-8.24,22.28-5.11,13.65,3.23,19.79,6.45,22.55,11.26l0,0a13.05,13.05,0,0,1,1,2.32.09.09,0,0,1,0,.08,29,29,0,0,1,1.1,8.57C524.76,576.56,524.76,577.39,524.76,578.25Z"/><path class="cls-3" d="M520.6,592c-.31.54-.62,1.09-.94,1.62-5.22,8.68-11.63,14.46-17.41,14-6.34-.48-13.59-4.16-19.54-11.65,0,0,0,0,0,0,2.59-2.25,8.76-6.34,16.67-3.17h0l.09,0,.07,0h0c8.13-4.46,16.71-4.13,21-.8Z"/><path class="cls-4" d="M504.46,569.39a1.3,1.3,0,0,0-1.31,1.7c1.26,3.7,1.48,7.57-3.17,7.57s-4.43-3.87-3.17-7.57a1.3,1.3,0,0,0-1.31-1.7c-16.34.88-20.28,6.39-20.28,6.39-.07-13.19.17-28.12,24.77-22.29,22,5.22,24.52,10.39,24.74,22.26C524.41,575.34,520.14,570.23,504.46,569.39Z"/><path class="cls-5" d="M475.23,578.25a24.58,24.58,0,0,0,1.11,7.37c-5.15-15.77,1.35-27,1.35-27-2.46,4.62-2.5,11.09-2.47,17.18C475.23,576.61,475.23,577.44,475.23,578.25Z"/><path class="cls-5" d="M521.64,590.29h0a24.61,24.61,0,0,0,3.13-12c0-.86,0-1.69,0-2.5a29,29,0,0,0-1.1-8.57C529.12,580.82,521.64,590.29,521.64,590.29Z"/><path class="cls-5" d="M521.13,591.13s-5.31,17.51-18.52,17.51c-12.79,0-21.29-13.87-21.81-14.73a22.71,22.71,0,0,0,1.88,2.05s0,0,0,0c6,7.49,13.2,11.17,19.54,11.65,5.78.43,12.19-5.35,17.41-14,.32-.53.63-1.08.94-1.62h0C520.77,591.71,521,591.42,521.13,591.13Z"/><path class="cls-5" d="M501,600.73a34.09,34.09,0,0,1-1.62-7.94h0l.09,0,.07,0h0C499.85,594.52,500.33,598.23,501,600.73Z"/></g></g></g></svg>