<svg xmlns="http://www.w3.org/2000/svg" viewBox="0 0 1000 1000"><defs><style>.cls-1{fill:none;}.cls-2{fill:#282828;}.cls-3{fill:#ff3636;}.cls-4{fill:#232323;}.cls-5{opacity:0.2;}</style></defs><g id="Layer_2" data-name="Layer 2"><g id="OutPut"><rect id="BG" class="cls-1" width="1000" height="1000"/></g><g id="Mounth_Up"><g id="_5" data-name="5"><path class="cls-2" d="M530.35,579.62a53.36,53.36,0,0,1-6.66,8.9h0q-.49.56-1,1.08l-1.22,1.22c-6.79,6.47-14.82,10.5-21.68,9.59A39.76,39.76,0,0,1,477.33,589c-.3-.3-.59-.59-.88-.9-.76-.81-1.49-1.66-2.2-2.55l0,0a42,42,0,0,1-6.62-12A49.76,49.76,0,0,1,464.83,559s50.66,11.18,71.43,1.16C536.33,566.61,534,573.45,530.35,579.62Z"/><path class="cls-3" d="M522.66,589.61l-1.22,1.22c-6.79,6.47-14.82,10.5-21.68,9.59A39.76,39.76,0,0,1,477.33,589a25.63,25.63,0,0,1,19.74-.91l.33.1.35-.09C507.69,585.42,517.81,586.52,522.66,589.61Z"/><path class="cls-4" d="M530.35,579.62a102.3,102.3,0,0,0-27.28-7,.58.58,0,0,0-.64.7c.7,3.13.4,6.14-3.46,5.82s-3.64-3.37-2.44-6.36A.58.58,0,0,0,496,572a117.41,117.41,0,0,0-28.42,1.55A49.76,49.76,0,0,1,464.83,559s50.66,11.18,71.43,1.16C536.33,566.61,534,573.45,530.35,579.62Z"/><path class="cls-4" d="M464.83,559l-2.47-.72s2.5.93,2.5,1.42Z"/><path class="cls-4" d="M536.26,560.17l2.86-1.69s-2.67,1.75-2.89,3.2Z"/><path class="cls-5" d="M523.68,588.53c-.25.43-8.85,14.22-24.46,12.94-15.34-1.26-24.42-15-25-15.89.71.89,1.44,1.74,2.2,2.55.29.31.58.6.88.9a39.76,39.76,0,0,0,22.43,11.39c6.86.91,14.89-3.12,21.68-9.59l1.22-1.22Q523.18,589.09,523.68,588.53Z"/><path class="cls-5" d="M500,595.71s-2.59-5.61-2.95-7.59l.33.1.35-.09C498.31,589.42,499.89,593.27,500,595.71Z"/></g></g></g></svg>