<svg xmlns="http://www.w3.org/2000/svg" viewBox="0 0 1000 1000"><defs><style>.cls-1{fill:none;}.cls-2{fill:#380f13;}.cls-3{fill:#ffeddc;}.cls-4{fill:#260b0b;}.cls-5{fill:#ae312f;}.cls-6{opacity:0.2;}.cls-7{opacity:0.1;}</style></defs><g id="Layer_2" data-name="Layer 2"><g id="OutPut"><rect id="BG" class="cls-1" width="1000" height="1000"/></g><g id="Mounth_Up"><g id="_6" data-name="6"><path class="cls-2" d="M540.86,563.15c0,.1,0,.21,0,.31a26.33,26.33,0,0,1-4.22,13.45c-.16.28-.34.57-.53.85a54,54,0,0,1-12.8,13.81,35.39,35.39,0,0,1-24.76,6.87h-.05a35.58,35.58,0,0,1-17.55-6.85c-1-.75-2-1.54-2.94-2.38a57.08,57.08,0,0,1-9.75-11.27c-.56-.85-1.07-1.7-1.51-2.53a26.35,26.35,0,0,1-3.34-12.21v0a16.72,16.72,0,0,1,.07-1.95,13.76,13.76,0,0,1,.38-2.48l.15,0h0c.12,0,.32.06.63.14.51.13,1,.26,1.55.37l.21.05c.57.14,1.16.27,1.75.39.75.17,1.51.32,2.26.46l1.47.28c1.25.23,2.52.44,3.8.64s2.59.38,3.91.55l1.91.23h0l1.3.14.33,0,1,.1.3,0,.51,0c.64.07,1.27.12,1.93.17h0l1.27.09c.4,0,.81.06,1.21.09l1.56.1h.25l.36,0h.18l.28,0,.48,0,1.12.05h.14l.41,0h.12l.45,0,1.11,0q3.92.12,7.85.09a157.71,157.71,0,0,0,35.75-4.12l.74-.17h0l.06,0a13.66,13.66,0,0,1,.39,2.33C540.82,561.65,540.87,562.35,540.86,563.15Z"/><path class="cls-3" d="M523.3,591.57a35.39,35.39,0,0,1-24.76,6.87h-.05a35.58,35.58,0,0,1-17.55-6.85,6.8,6.8,0,0,1,3.31-2.08l.5-.15a24.32,24.32,0,0,1,9.77-.08,48,48,0,0,0,15.22,0,31.13,31.13,0,0,1,6.5-.41,16.21,16.21,0,0,1,3.26.49A7.14,7.14,0,0,1,523.3,591.57Z"/><path class="cls-4" d="M496,562.93c-1.15,0-2.23.08-3.28.16h0a56.31,56.31,0,0,0-10.17,1.51c-5.69,1.47-9.12,3.67-11.14,5.87a10.94,10.94,0,0,0-2.75,5,7.49,7.49,0,0,0-.21,2.44l-.15,0c-.56-.85-1.07-1.7-1.51-2.53a26.35,26.35,0,0,1-3.34-12.21v0a17,17,0,0,1,.45-4.43l.15,0h0l.33.11.11,0,.18.05c6.24,2,9.33,2.13,17.2,2.95l1,.11.33,0h.12l1.73.17.71.08,1.22.09h0l.4,0,.87.06c.4,0,.81.06,1.21.09l1.24.07h.17l.27,0h.13l.36,0,.94,0,1.12.05h.14l.41,0,.57,0Z"/><path class="cls-4" d="M540.86,563.25a1.48,1.48,0,0,0,0,.21,26.33,26.33,0,0,1-4.22,13.45c-.16.28-.34.57-.53.85,0-.15-.1-.45-.24-.87a13.7,13.7,0,0,0-4.43-5.95c-4.26-3.52-12.33-7.21-27.62-7.92,14.94-.13,24.57-.49,35.76-4.06l.37-.11a.34.34,0,0,0,.12,0l.24-.08h0l.06,0A17.4,17.4,0,0,1,540.86,563.25Z"/><path class="cls-3" d="M482.86,562c-.05.12-.18,1.17-.36,2.56-.08.74-.18,1.57-.25,2.41-.07.63-.13,1.27-.19,1.88a3.51,3.51,0,0,1-4.12,3.18c-.59-.1-1.17-.21-1.75-.33h0c-1.14-.23-2.25-.49-3.31-.78-9-2.44-8.77-9.1-8.21-12A134.11,134.11,0,0,0,482.86,562Z"/><path class="cls-3" d="M531.36,571c-7.12,1.93-16.44,2.56-22.63,2.76h-.46c-2.21.07-4,.08-5,.07h-1.13s-1.6,0-4.16,0l-1.29,0a4.14,4.14,0,0,1-4-4.68,29.91,29.91,0,0,0,.24-3.17c0-.28,0-.55,0-.82a9.37,9.37,0,0,0-.3-2.21v-.07h0l1.12.05c.74,0,1.49.06,2.23.09q3.92.12,7.85.09a157.71,157.71,0,0,0,35.75-4.12C540.13,561.83,540.36,568.52,531.36,571Z"/><path class="cls-5" d="M516.27,588.82l0,0a31.22,31.22,0,0,0-6.5.41,48,48,0,0,1-15.22,0,24.32,24.32,0,0,0-9.77.08s5.43-6.4,15.58-1.28C509.73,582.78,516.27,588.82,516.27,588.82Z"/><path class="cls-4" d="M500.51,580.05c-7.48,0-3-6.28-3-6.28H498c2.56.06,4.16,0,4.16,0h1.13C503.59,574.26,507.69,580.05,500.51,580.05Z"/><path class="cls-4" d="M492.93,565.9c-4,.26-7.62-2-10.42-1.3.17-1.39.31-2.44.35-2.56a2.28,2.28,0,0,0,.45,0c.81.09,1.63.18,2.45.25s1.68.14,2.53.19,1.63.12,2.45.16c.38,0,1.17.08,1.87.11h0A11.48,11.48,0,0,1,492.93,565.9Z"/><path class="cls-4" d="M457.42,556.81a5.39,5.39,0,0,1,.65.19Z"/><path class="cls-4" d="M463.85,558.72l-.25,2.52-.2,1.91v0a7.82,7.82,0,0,0-.63-2.22,8,8,0,0,0-4.62-3.94Z"/><path class="cls-4" d="M540.38,558.71l5.81-2.05a8.75,8.75,0,0,0-4.85,4.28,5.88,5.88,0,0,0-.48,2.21c0,.1,0,.21,0,.31l-.24-2.39Z"/><path class="cls-4" d="M546.59,556.51l-.4.14Z"/><path class="cls-6" d="M536.65,576.91s-10.3,22.71-35.24,22.71-34.68-24.22-34.68-24.22h0c.44.83.95,1.68,1.51,2.53a54.47,54.47,0,0,0,12.69,13.65,35.36,35.36,0,0,0,42.36,0,54,54,0,0,0,12.8-13.81c.19-.28.37-.57.53-.85Z"/><path class="cls-7" d="M498.49,598.43a35.58,35.58,0,0,1-17.55-6.85,6.8,6.8,0,0,1,3.31-2.08C484.23,589.8,483.73,596,498.49,598.43Z"/><path class="cls-7" d="M482.25,567c-.07.63-.13,1.27-.19,1.88a3.51,3.51,0,0,1-4.12,3.18c-.59-.1-1.17-.21-1.75-.33A6.32,6.32,0,0,0,482.25,567Z"/><path class="cls-6" d="M492.6,562.8h0v0Z"/><path class="cls-7" d="M508.27,573.73c-2.21.07-4,.08-5,.07h-1.13s-1.6,0-4.16,0l-1.29,0a4.14,4.14,0,0,1-4-4.68,29.91,29.91,0,0,0,.24-3.17c0-.28,0-.55,0-.82C493.75,568.37,496.84,574,508.27,573.73Z"/><path d="M457.42,556.81a5.39,5.39,0,0,1,.65.19Z"/><path class="cls-7" d="M540.38,558.71l5.81-2.05a8.75,8.75,0,0,0-4.85,4.28l-.18,0-.39.07-.16,0c-46.92,8.35-72.29,1.64-77,.17l-.13,0-.69-.23h0a8,8,0,0,0-4.62-3.94l5.7,1.69.15,0h0c.12,0,.32.06.63.14.51.13,1,.26,1.55.37l.21.05c.57.14,1.16.27,1.75.39.75.17,1.51.32,2.26.46l1.47.28c1.25.23,2.52.44,3.8.64s2.59.38,3.91.55l1.91.23h0l1.3.14.33,0,1,.1.3,0,.51,0c.64.07,1.27.12,1.93.17h0l1.27.09c.4,0,.81.06,1.21.09l1.56.1h.25l.36,0h.18l.28,0,.48,0,1.12.05h.14l.41,0h.12l.45,0,1.11,0q3.92.12,7.85.09a157.71,157.71,0,0,0,35.75-4.12l.74-.17h0Z"/><path d="M546.59,556.51l-.4.14Z"/></g></g></g></svg>