<svg xmlns="http://www.w3.org/2000/svg" viewBox="0 0 1000 1000"><defs><style>.cls-1{fill:none;}.cls-2{fill:#007c00;}.cls-3,.cls-4{opacity:0.2;}.cls-4{fill:#fff;}</style></defs><g id="Layer_2" data-name="Layer 2"><g id="OutPut"><rect id="BG" class="cls-1" width="1000" height="1000"/></g><g id="Mounth_Up"><g id="_7" data-name="7"><path d="M523.21,564.84c-1.45-.23-2.94-.4-4.47-.52a94.36,94.36,0,0,0-11.31-.2l-1.09,0c-5,.23-9.86.74-14.08,1.31l-.18,0c-3.55.49-6.64,1-8.94,1.43s-3.71.73-4.18.83c.47-.13,2-.53,4.17-1a128.06,128.06,0,0,1,25.65-3.41h2.12a52,52,0,0,1,10.08,1C521.74,564.46,522.48,564.64,523.21,564.84Z"/><path class="cls-2" d="M567,565.55c-5.79-1.46-22.53-9.67-56.06-2.24-1.14.25-2.29.52-3.47.81l-1.09,0c.29-.11,1.13-.43,2.44-.86a91.68,91.68,0,0,1,12-3l.13,0c.79-.14,1.61-.28,2.46-.4h0c10.59-1.63,24.75-2,38.54,3.46C563.62,564,565.3,564.71,567,565.55Z"/><path class="cls-2" d="M566.91,584.58c-7.95-8-10.84-13.92-11.81-17.74a9.65,9.65,0,0,1-.27-5h.53c7.13,1.72,10,12.79,11,18.82C566.78,583,566.91,584.58,566.91,584.58Z"/><path class="cls-3" d="M556,563.33s6.58,8.17,8.29,16.5C562.25,574.42,556,563.33,556,563.33Z"/><path class="cls-2" d="M576.58,563.81c-.57.26-.68.3-1.2.5h0c-7.34,2.89-9.91.78-9.91.78l.08-.2a2.56,2.56,0,0,1,.2-.26h0C568.55,561.21,576.58,563.81,576.58,563.81Z"/><path class="cls-3" d="M566.14,564.85a20.85,20.85,0,0,1,8.32-.9A81.25,81.25,0,0,0,566.14,564.85Z"/><path class="cls-3" d="M518.74,564.32a228.53,228.53,0,0,0-26.48,1.16c4.22-.57,9.09-1.08,14.08-1.31l1.09,0A94.36,94.36,0,0,1,518.74,564.32Z"/><path class="cls-3" d="M561.94,563.31c-18.45-5.29-32.86-4.23-38.54-3.46C534,558.22,548.15,557.9,561.94,563.31Z"/><path class="cls-4" d="M566.91,584.58c-7.95-8-10.84-13.92-11.81-17.74,0,0,10.53,20.49,11.28,13.83C566.78,583,566.91,584.58,566.91,584.58Z"/><path class="cls-4" d="M575.35,564.32c-7.34,2.89-9.91.78-9.91.78l.08-.2a2.56,2.56,0,0,1,.2-.26C565.71,564.74,565.71,566.94,575.35,564.32Z"/><path class="cls-3" d="M494.31,567.11a48.1,48.1,0,0,1,15.88-.94Z"/></g></g></g></svg>