<svg xmlns="http://www.w3.org/2000/svg" viewBox="0 0 1000 1000"><defs><style>.cls-1{fill:none;}.cls-2{fill:#282828;}.cls-3{fill:#827e7d;}.cls-4{fill:#ef7800;}.cls-5{fill:#f7c328;}.cls-6{fill:#f2e975;}.cls-7{fill:#9b9a9a;}.cls-8{opacity:0.2;}.cls-9{opacity:0.6;}.cls-10{opacity:0.42;}</style></defs><g id="Layer_2" data-name="Layer 2"><g id="OutPut"><rect id="BG" class="cls-1" width="1000" height="1000"/></g><g id="Mounth_Up"><g id="_0" data-name="0"><path class="cls-2" d="M525.23,571.89c.19,2.06-4,4.15-9.44,4.65a20.24,20.24,0,0,1-6.85-.41c-1.93-.5-3.2-1.36-3.3-2.42a2.4,2.4,0,0,1,.5-2.08l1-.68,0,0c1.32-.64,3.71-1.23,7.94-1.88C521.82,568,525,569.82,525.23,571.89Z"/><path class="cls-2" d="M529.63,571.94a16.37,16.37,0,0,1-10.51,6.69Z"/><polygon class="cls-3" points="419.84 631.17 419.88 634.67 422.44 635.74 422.63 641.26 426.28 641.73 429.81 647.53 435.78 648.83 438.46 651.49 449.27 619.78 419.84 631.17"/><path class="cls-4" d="M426.28,641.73l3.46,5.28,6,1.82,2.67,1.9h0l1.09-.39,1.55-1.67,2.75-8.67,1-3.09-1-1.23L435,624.29,423,629l-2.18,1.51,0,.16,0,.28-.39,3.14,2.11,1.63.75,4.88Z"/><polygon class="cls-5" points="425.4 630.39 422.52 633.06 424.89 637.14 424.51 639.37 428.83 642.24 429.98 644.38 437.47 648.46 443.98 645.05 443.77 629.46 430.42 628.34 425.4 630.39"/><polygon class="cls-6" points="428.88 631.88 427.77 637.08 432.13 641.72 437.91 644.22 447.95 631.77 428.88 631.88"/><path class="cls-3" d="M509.25,575.79c-.09.1-.19.22-.31.34-1.29,1.42-4,4.33-7.61,8.23-16.11,17.28-50.44,53.88-60.22,64.31l-1.55,1.66-1.1,1.16h0v-.76l0-2.8h0v-.34h0l-1.86-1.79V645l0-1.36-.05-2.69h0l-3.54-3.4-1.89-3.47-2.63,0,0-.09-1.87-3.1-3,1.37-.09-.11-1.13-1.55-1.65.39-.89.19.94-.64L423,629l.67-.47,66.3-45.75,6.88-4.74,9.32-6.43,1-.68,0,0S510.7,571.94,509.25,575.79Z"/><path class="cls-7" d="M509.25,575.79c-.09.1-.19.22-.31.34-1.29,1.42-4,4.33-7.61,8.23a12.67,12.67,0,0,0-4.51-6.3l9.32-6.43,1-.68,0,0S510.7,571.94,509.25,575.79Z"/><polygon class="cls-8" points="419.84 631.17 423.41 629.88 422.38 630.59 419.84 631.17"/><polygon class="cls-8" points="423.6 632.25 427.92 629.74 426.57 630.88 423.6 632.25"/><polygon class="cls-8" points="428.48 634.07 432.6 633.52 431.11 634.08 428.48 634.07"/><polygon class="cls-8" points="436.64 645.77 436.95 639.21 436.55 640.97 436.64 645.77"/><polygon class="cls-8" points="438.46 651.49 438.85 646.42 438.5 647.58 438.46 651.49"/><path class="cls-8" d="M509.25,575.79c-.09.1-.19.22-.31.34-1.29,1.42-4,4.33-7.61,8.23-16.11,17.28-50.44,53.88-60.22,64.31l-1.55,1.66-1.1,1.16h0v-.76l0-2.8h0v-.34h0l-1.86-1.79V645l0,0,.58-.55.37-.33c.56-.55,1.12-1.07,1.68-1.6l3.29-3.14c.44-.41.88-.82,1.3-1.23l.81-.78c37.85-36.41,45.07-49.69,45.24-54.55l6.88-4.74,9.32-6.43,1-.68,0,0S510.7,571.94,509.25,575.79Z"/><path class="cls-9" d="M436.64,645.77l1.86,1.8c1-1.79-1-2.53-1.91-3.93Z"/><path class="cls-9" d="M400.63,629.9c.46,26.56,37.83,21.59,37.83,21.59a2.23,2.23,0,0,1-.58-1.18l-2.1-1.47-6-1.83-3.45-5.28-3.1-1.11-.74-4.88-2.12-1.63.39-3.14,1.66-.38,1.22,1.66,3-1.37,1.91,3.19h2.63l1.9,3.48,3.54,3.41c1.68-3.59-5-7.49-5-7.49s-2.11-.66-8.59-5.46,8.94-21.11-14.28-31.53-4.59-30.62-4.59-30.62S354.74,583.22,394,610.42,406.62,643.57,400.63,629.9Z"/><path class="cls-10" d="M438.5,647.57a4.23,4.23,0,0,0-.62,2.74l.59.41Z"/><path class="cls-10" d="M436.59,643.64l0-2.67A2.58,2.58,0,0,0,436.59,643.64Z"/></g></g></g></svg>